<svg xmlns="http://www.w3.org/2000/svg" xmlns:xlink="http://www.w3.org/1999/xlink" width="30" height="58" viewBox="0 0 30 58"><defs><style>.a{fill:none;}.b,.e{fill:#f98e4d;}.c{clip-path:url(#a);}.d,.f{fill:#fff;}.d{opacity:0.25;}.e,.f{opacity:0.5;}.e{mix-blend-mode:multiply;isolation:isolate;}</style><clipPath id="a"><path class="a" d="M15-10h0A15,15,0,0,1,0-25V-68H30v43A15,15,0,0,1,15-10Z"/></clipPath></defs><g transform="translate(0 68)"><path class="b" d="M30-68H0v43A15,15,0,0,0,15-10h0A15,15,0,0,0,30-25Z"/><g class="c"><rect class="d" width="15" height="84.853" transform="translate(-22.778 -65.222) rotate(-45)"/><rect class="d" width="5" height="84.853" transform="translate(-10.757 -77.243) rotate(-45)"/></g><path class="e" d="M15-12A13.015,13.015,0,0,0,28-25V-68h2v43A15,15,0,0,1,15-10,14.953,14.953,0,0,1,4.394-14.393l1.418-1.419A12.96,12.96,0,0,0,15-12Z"/><path class="f" d="M0-68H2v43a12.96,12.96,0,0,0,3.812,9.188L4.394-14.393A14.953,14.953,0,0,1,0-25Z"/></g></svg>