<svg xmlns="http://www.w3.org/2000/svg" xmlns:xlink="http://www.w3.org/1999/xlink" viewBox="0 0 75.56 75.56"><defs><style>.cls-1{fill:none;}.cls-2{isolation:isolate;}.cls-3,.cls-6{fill:#f7d857;}.cls-4{clip-path:url(#clip-path);}.cls-5,.cls-7{fill:#fff;}.cls-5{opacity:0.25;}.cls-6{mix-blend-mode:multiply;}.cls-7{opacity:0.5;}</style><clipPath id="clip-path" transform="translate(22.78 12.78)"><path class="cls-1" d="M15,58h0A15,15,0,0,1,0,43V0H30V43A15,15,0,0,1,15,58Z"/></clipPath></defs><title>Ресурс 7</title><g class="cls-2"><g id="Слой_2" data-name="Слой 2"><g id="Layer_1" data-name="Layer 1"><path class="cls-3" d="M30,0H0V43A15,15,0,0,0,15,58h0A15,15,0,0,0,30,43Z" transform="translate(22.78 12.78)"/><g class="cls-4"><rect class="cls-5" x="5.03" y="-14.95" width="15" height="84.85" transform="translate(7.02 29.68) rotate(-45)"/><rect class="cls-5" x="18.51" y="-23.44" width="5" height="84.85" transform="translate(15.5 33.2) rotate(-45)"/></g><path class="cls-6" d="M15,56A13,13,0,0,0,28,43V0h2V43A15,15,0,0,1,4.39,53.61l1.42-1.42A13,13,0,0,0,15,56Z" transform="translate(22.78 12.78)"/><path class="cls-7" d="M0,0H2V43a13,13,0,0,0,3.81,9.19L4.39,53.61A15,15,0,0,1,0,43Z" transform="translate(22.78 12.78)"/></g></g></g></svg>