<svg xmlns="http://www.w3.org/2000/svg" xmlns:xlink="http://www.w3.org/1999/xlink" viewBox="0 0 75.56 75.56"><defs><style>.cls-1{fill:none;}.cls-2{isolation:isolate;}.cls-3,.cls-7{fill:#f7d857;}.cls-4{clip-path:url(#clip-path);}.cls-5,.cls-6{fill:#fff;}.cls-5{opacity:0.25;}.cls-6{opacity:0.5;}.cls-7{mix-blend-mode:multiply;}</style><clipPath id="clip-path" transform="translate(22.78 4.78)"><path class="cls-1" d="M15,0h0A15,15,0,0,0,0,15V58H30V15A15,15,0,0,0,15,0Z"/></clipPath></defs><title>Ресурс 8</title><g class="cls-2"><g id="Слой_2" data-name="Слой 2"><g id="Layer_1" data-name="Layer 1"><path class="cls-3" d="M30,58H0V15A15,15,0,0,1,15,0h0A15,15,0,0,1,30,15Z" transform="translate(22.78 4.78)"/><g class="cls-4"><rect class="cls-5" x="5.03" y="-6.95" width="15" height="84.85" transform="translate(1.36 24.03) rotate(-45)"/><rect class="cls-5" x="18.51" y="-15.44" width="5" height="84.85" transform="translate(9.85 27.54) rotate(-45)"/></g><path class="cls-6" d="M15,2A13,13,0,0,0,2,15V58H0V15A15,15,0,0,1,25.61,4.39L24.19,5.81A13,13,0,0,0,15,2Z" transform="translate(22.78 4.78)"/><path class="cls-7" d="M30,58H28V15a13,13,0,0,0-3.81-9.19l1.42-1.42A15,15,0,0,1,30,15Z" transform="translate(22.78 4.78)"/></g></g></g></svg>