<svg xmlns="http://www.w3.org/2000/svg" viewBox="0 0 18 28"><defs><style>.cls-1{opacity:0.25;}.cls-2{fill:#1e1e1e;}</style></defs><title>Ресурс 5</title><g id="Слой_2" data-name="Слой 2"><g id="Layer_1" data-name="Layer 1"><g class="cls-1"><path class="cls-2" d="M16.5,7.5a7.5,7.5,0,0,0-15,0V11h5V7.5a2.5,2.5,0,0,1,5,0V11h5Z"/><path class="cls-2" d="M17,12H1a1,1,0,0,0-1,1V27a1,1,0,0,0,1,1H17a1,1,0,0,0,1-1V13A1,1,0,0,0,17,12ZM11.5,25h-5l.76-5.71A2.48,2.48,0,0,1,6.5,17.5a2.5,2.5,0,0,1,5,0,2.48,2.48,0,0,1-.76,1.79Z"/></g></g></g></svg>