<svg xmlns="http://www.w3.org/2000/svg" xmlns:xlink="http://www.w3.org/1999/xlink" width="30" height="58" viewBox="0 0 30 58"><defs><style>.a{fill:none;}.b,.e{fill:#d8e0e3;}.c{clip-path:url(#a);}.d,.f{fill:#fff;}.d{opacity:0.25;}.e{mix-blend-mode:multiply;isolation:isolate;}.f{opacity:0.5;}</style><clipPath id="a"><path class="a" d="M165-10h0a15,15,0,0,1-15-15V-68h30v43A15,15,0,0,1,165-10Z"/></clipPath></defs><g transform="translate(-150 68)"><path class="b" d="M180-68H150v43a15,15,0,0,0,15,15h0a15,15,0,0,0,15-15Z"/><g class="c"><rect class="d" width="15" height="84.853" transform="translate(127.222 -65.222) rotate(-45)"/><rect class="d" width="5" height="84.853" transform="translate(139.243 -77.243) rotate(-45)"/></g><path class="e" d="M165-12a13.015,13.015,0,0,0,13-13V-68h2v43a15,15,0,0,1-15,15,14.953,14.953,0,0,1-10.606-4.393l1.418-1.419A12.96,12.96,0,0,0,165-12Z"/><path class="f" d="M150-68h2v43a12.96,12.96,0,0,0,3.812,9.188l-1.418,1.419A14.953,14.953,0,0,1,150-25Z"/></g></svg>