<svg xmlns="http://www.w3.org/2000/svg" xmlns:xlink="http://www.w3.org/1999/xlink" width="30" height="58" viewBox="0 0 30 58"><defs><style>.a{fill:none;}.b{fill:#cbdee0;}.c{clip-path:url(#a);}.d,.f{fill:#fff;}.d{opacity:0.25;}.e{fill:#cadee0;mix-blend-mode:multiply;isolation:isolate;}.f{opacity:0.5;}</style><clipPath id="a"><path class="a" d="M65-10h0A15,15,0,0,1,50-25V-68H80v43A15,15,0,0,1,65-10Z"/></clipPath></defs><g transform="translate(-50 68)"><path class="b" d="M80-68H50v43A15,15,0,0,0,65-10h0A15,15,0,0,0,80-25Z"/><g class="c"><rect class="d" width="15" height="84.853" transform="translate(27.222 -65.222) rotate(-45)"/><rect class="d" width="5" height="84.853" transform="translate(39.243 -77.243) rotate(-45)"/></g><path class="e" d="M65-12A13.015,13.015,0,0,0,78-25V-68h2v43A15,15,0,0,1,65-10a14.953,14.953,0,0,1-10.606-4.393l1.418-1.419A12.96,12.96,0,0,0,65-12Z"/><path class="f" d="M50-68h2v43a12.96,12.96,0,0,0,3.812,9.188l-1.418,1.419A14.953,14.953,0,0,1,50-25Z"/></g></svg>