<svg id="logo" xmlns="http://www.w3.org/2000/svg" xmlns:xlink="http://www.w3.org/1999/xlink" version="1.1" x="0px" y="0px" viewBox="0 0 66.2 12.1" enable-background="new 0 0 66.2 12.1" xml:space="preserve" style="overflow: visible;fill: #fff;width: 130">
  <!-- M -->
  <path d="M11.3 3.6c-1.1 0-1.9 0.4-2.5 1.3c-0.4-1-1.3-1.3-2.3-1.3C5.7 3.6 4.6 4.1 4 5.2C3.7 4.4 3 3.6 1.4 3.6 C0.9 3.6 0.4 3.7 0 3.9v1.8c1.3-0.3 1.6 0.4 1.6 1.2v5h0h2.6h0v-4c0-1.5 0.4-2 1.3-2c0.7 0 1 0.6 1 1.5v4.5h2.6V7.9 c0-1.3 0.1-2.2 1.2-2.2c0.7 0 1.1 0.5 1.1 1.4v4.7h2.6V7.1C14.1 5.5 13.8 3.6 11.3 3.6z" style="stroke-dasharray: 68, 78; stroke-dashoffset: 0;"></path>
  <!-- E -->
  <path id="letter-e" d="M18.9 3.6c-2.4 0-4.3 1.8-4.3 4.2c0 2.7 1.8 4.2 4.4 4.2c1.8 0 3.5-0.8 4-2.6h-2.4c-0.2 0.6-0.9 0.9-1.5 0.9 c-1.1 0-1.7-0.7-1.8-1.8H23C23.1 5.8 21.7 3.6 18.9 3.6z M17.2 7c0.2-1 0.8-1.6 1.7-1.6c0.9 0 1.5 0.7 1.6 1.6H17.2z" style="stroke-dasharray: 48, 58; stroke-dashoffset: 0;"></path>
  <!-- H -->
  <path id="letter-h" d="M28.5 3.6c-1 0-2 0.5-2.4 1.3h0V0.8h-2.6v11H26V7.5c0-0.9 0.4-1.7 1.4-1.7c1.4 0 1.3 1.1 1.3 2.2v3.9h2.6V6.7 C31.4 5.6 31.1 3.6 28.5 3.6z" style="stroke-dasharray: 50, 60; stroke-dashoffset: 0;"></path>
  <!-- A -->
  <path id="letter-a" d="M39.6 6.3c0-2.3-1.8-2.7-3.7-2.7c-0.9 0-1.8 0.2-2.5 0.6c-0.7 0.4-1.2 1.1-1.2 2.1h2.4c0.1-0.7 0.6-1 1.3-1 c0.5 0 1.3 0.2 1.3 0.8c0 0.5-0.2 0.6-0.7 0.7c-1.8 0.4-4.6 0.2-4.6 2.8c0 1.6 1.2 2.4 2.7 2.4c1 0 2-0.3 2.6-1 c0 0.3 0.1 0.5 0.2 0.8h2.6c-0.3-0.6-0.3-1.4-0.3-2V6.3z M35.5 10.4c-0.6 0-1.1-0.3-1.1-0.9c0-0.6 0.5-0.9 1.1-1 c0.6-0.2 1.2-0.2 1.6-0.4C37.1 9.7 36.7 10.4 35.5 10.4z" style="stroke-dasharray: 48, 58; stroke-dashoffset: 0;"></path>
  <!-- C -->
  <path id="letter-c" d="M44.2 10.1c-1.1 0-1.6-1.1-1.6-2.1c0-1.1 0.2-2.4 1.7-2.4c0.7 0 1.3 0.5 1.3 1.2h2.5c-0.2-2.1-2-3.2-3.9-3.2 C41.6 3.6 40 5.4 40 8c0 2.4 1.8 4.1 4.2 4.1c2.1 0 3.8-1.2 4-3.4h-2.5C45.5 9.5 45.1 10.1 44.2 10.1z" style="stroke-dasharray: 41, 51; stroke-dashoffset: 0;"></path>
  <!-- K -->
  <path id="letter-k" points="56.6,3.8 53.6,3.8 51.2,6.5 51.2,0.8 48.6,0.8 48.6,11.8 51.2,11.8 51.2,9.3 51.9,8.6 53.8,11.8 57,11.8 53.7,6.9" d="M56.6,3.8L53.6,3.8L51.2,6.5L51.2,0.8L48.6,0.8L48.6,11.8L51.2,11.8L51.2,9.3L51.9,8.6L53.8,11.8L57,11.8L53.7,6.9Z" style="stroke-dasharray: 50, 60; stroke-dashoffset: 0;"></path>
  <!-- I -->
  <path x="57.2" y="3.8" width="2.6" height="8" d="M57.2 3.8 L59.800000000000004 3.8 L59.800000000000004 11.8 L57.2 11.8 Z" style="stroke-dasharray: 22, 32; stroke-dashoffset: 0;"></path>
  <path cx="58.5" cy="1.6" r="1.6" d="M56.9,1.6A1.6,1.6 0,1,1 60.1,1.6A1.6,1.6 0,1,1 56.9,1.6" style="stroke-dasharray: 11, 21; stroke-dashoffset: 0;"></path>
  <!-- T -->
  <path d="M64.6 5.5h1.6V3.8h-1.6V1.4H62v2.4h-1.6v1.7H62v3.3c0 1.2 0.2 3.1 2.9 3.1c0.5 0 0.9-0.1 1.4-0.3V9.8 c-1.8 0.4-1.6-1.1-1.6-2V5.5z" style="stroke-dasharray: 35, 45; stroke-dashoffset: 0;"></path>
</svg>