<svg xmlns="http://www.w3.org/2000/svg" xmlns:xlink="http://www.w3.org/1999/xlink" width="85" height="85" viewBox="0 0 85 85"><defs><style>.a{fill:none;}.b{fill:#cbdee0;}.c{clip-path:url(#a);}.d,.f{fill:#fff;}.d,.h{opacity:0.5;}.e{clip-path:url(#b);}.f{opacity:0.25;}.g,.h,.i{fill:#cadee0;mix-blend-mode:multiply;isolation:isolate;}.i{font-size:33px;font-family:OpenSans-SemiBold, Open Sans;font-weight:600;}</style><clipPath id="a"><rect class="a" width="85" height="85" rx="2" transform="translate(0 0)"/></clipPath><clipPath id="b"><path class="a" d="M1.5,0H63.75a0,0,0,0,1,0,0V63.75a0,0,0,0,1,0,0H0a0,0,0,0,1,0,0V1.5A1.5,1.5,0,0,1,1.5,0Z"/></clipPath></defs><g transform="translate(0 0)"><rect class="b" width="85" height="85" rx="2" transform="translate(0 0)"/><g class="c"><g transform="translate(-11.019 -11.019)"><rect class="d" width="21.25" height="120.208" transform="translate(0 22.038) rotate(-45)"/><rect class="d" width="7.083" height="120.208" transform="translate(17.029 5.009) rotate(-45)"/></g></g><rect class="b" width="63.75" height="63.75" rx="1.5" transform="translate(10.625 10.625)"/><g transform="translate(10.625 10.625)"><g class="e"><g transform="translate(-21.644 -15.977)"><rect class="f" width="21.25" height="120.208" transform="translate(0 22.038) rotate(-45)"/><rect class="f" width="7.083" height="120.208" transform="translate(17.029 5.009) rotate(-45)"/></g></g></g><path class="g" d="M551.511,110.083a2.125,2.125,0,0,0-2.125-2.125h-59.5a2.124,2.124,0,0,0-2.125,2.125v59.5a2.125,2.125,0,0,0,2.125,2.125h.708V110.791h60.916Z" transform="translate(-477.136 -97.333)"/><g transform="translate(9.209 9.209)"><path class="d" d="M552.27,107.544l-1.21,1.208a2.116,2.116,0,0,1,.623,1.5v59.5a2.126,2.126,0,0,1-2.125,2.125h-59.5a2.114,2.114,0,0,1-1.5-.623l-1.21,1.21a2.825,2.825,0,0,0,2,.83h60.916a2.834,2.834,0,0,0,2.833-2.833V109.547A2.824,2.824,0,0,0,552.27,107.544Z" transform="translate(-486.517 -106.714)"/><path class="h" d="M550.511,106.958H489.594a2.833,2.833,0,0,0-2.833,2.833v60.916a2.823,2.823,0,0,0,.829,2l1.21-1.21a2.112,2.112,0,0,1-.622-1.5V110.5a2.124,2.124,0,0,1,2.125-2.125h59.5a2.118,2.118,0,0,1,1.5.622l1.21-1.208A2.824,2.824,0,0,0,550.511,106.958Z" transform="translate(-486.761 -106.958)"/></g><g transform="translate(0 0)"><path class="d" d="M481.09,184.627l1.21-1.21a2.112,2.112,0,0,1-.622-1.5V104a2.124,2.124,0,0,1,2.125-2.125h77.916a2.118,2.118,0,0,1,1.5.622l1.21-1.208a2.825,2.825,0,0,0-2-.83H483.094a2.833,2.833,0,0,0-2.833,2.833v79.333A2.829,2.829,0,0,0,481.09,184.627Z" transform="translate(-480.261 -100.458)"/><path class="g" d="M482.851,185.213h79.333a2.834,2.834,0,0,0,2.833-2.833V103.047a2.824,2.824,0,0,0-.83-2l-1.21,1.208a2.119,2.119,0,0,1,.623,1.5v77.916a2.126,2.126,0,0,1-2.125,2.125H483.559a2.114,2.114,0,0,1-1.5-.623l-1.21,1.21A2.825,2.825,0,0,0,482.851,185.213Z" transform="translate(-480.017 -100.214)"/></g><text class="i" transform="translate(43 55)"><tspan x="-20.085" y="0">Ag</tspan></text></g></svg>