<svg xmlns="http://www.w3.org/2000/svg" xmlns:xlink="http://www.w3.org/1999/xlink" width="85" height="85" viewBox="0 0 85 85"><defs><style>.a{fill:none;}.b,.g,.h,.i{fill:#d8e0e3;}.c{clip-path:url(#a);}.d,.f{fill:#fff;}.d,.h{opacity:0.5;}.e{clip-path:url(#b);}.f{opacity:0.25;}.g,.h,.i{mix-blend-mode:multiply;isolation:isolate;}.i{font-size:33px;font-family:OpenSans-SemiBold, Open Sans;font-weight:600;}</style><clipPath id="a"><rect class="a" width="85" height="85" rx="2" transform="translate(0 0)"/></clipPath><clipPath id="b"><path class="a" d="M1.5,0H63.75a0,0,0,0,1,0,0V63.75a0,0,0,0,1,0,0H0a0,0,0,0,1,0,0V1.5A1.5,1.5,0,0,1,1.5,0Z"/></clipPath></defs><g transform="translate(0 0)"><rect class="b" width="85" height="85" rx="2" transform="translate(0 0)"/><g class="c"><g transform="translate(-11.019 -11.019)"><rect class="d" width="21.25" height="120.208" transform="translate(0 22.038) rotate(-45)"/><rect class="d" width="7.083" height="120.208" transform="translate(17.029 5.009) rotate(-45)"/></g></g><rect class="b" width="63.75" height="63.75" rx="1.5" transform="translate(10.625 10.625)"/><g transform="translate(10.625 10.625)"><g class="e"><g transform="translate(-21.644 -15.977)"><rect class="f" width="21.25" height="120.208" transform="translate(0 22.038) rotate(-45)"/><rect class="f" width="7.083" height="120.208" transform="translate(17.029 5.009) rotate(-45)"/></g></g></g><path class="g" d="M691.25,110.083a2.125,2.125,0,0,0-2.125-2.125h-59.5a2.124,2.124,0,0,0-2.125,2.125v59.5a2.125,2.125,0,0,0,2.125,2.125h.708V110.791H691.25Z" transform="translate(-616.875 -97.333)"/><g transform="translate(9.208 9.209)"><path class="d" d="M692.009,107.544l-1.208,1.208a2.121,2.121,0,0,1,.622,1.5v59.5a2.126,2.126,0,0,1-2.125,2.125H629.8a2.119,2.119,0,0,1-1.5-.623l-1.208,1.21a2.825,2.825,0,0,0,2,.83h60.917a2.833,2.833,0,0,0,2.833-2.833V109.547A2.825,2.825,0,0,0,692.009,107.544Z" transform="translate(-626.256 -106.714)"/><path class="h" d="M690.25,106.958H629.333a2.833,2.833,0,0,0-2.833,2.833v60.916a2.825,2.825,0,0,0,.83,2l1.208-1.21a2.118,2.118,0,0,1-.622-1.5V110.5a2.124,2.124,0,0,1,2.125-2.125h59.5a2.124,2.124,0,0,1,1.5.622l1.208-1.208A2.824,2.824,0,0,0,690.25,106.958Z" transform="translate(-626.5 -106.958)"/></g><g transform="translate(0 0)"><path class="d" d="M620.83,184.628l1.208-1.21a2.118,2.118,0,0,1-.622-1.5V104a2.125,2.125,0,0,1,2.125-2.125h77.916a2.124,2.124,0,0,1,1.5.622l1.208-1.208a2.824,2.824,0,0,0-2-.83H622.833A2.833,2.833,0,0,0,620,103.291v79.333A2.825,2.825,0,0,0,620.83,184.628Z" transform="translate(-620 -100.458)"/><path class="g" d="M622.589,185.214h79.333a2.833,2.833,0,0,0,2.833-2.833V103.047a2.825,2.825,0,0,0-.83-2l-1.208,1.208a2.124,2.124,0,0,1,.622,1.5v77.916a2.126,2.126,0,0,1-2.125,2.125H623.3a2.119,2.119,0,0,1-1.5-.623l-1.208,1.21A2.824,2.824,0,0,0,622.589,185.214Z" transform="translate(-619.756 -100.214)"/></g><text class="i" transform="translate(43 55)"><tspan x="-16.637" y="0">Pt</tspan></text></g></svg>