<svg xmlns="http://www.w3.org/2000/svg" xmlns:xlink="http://www.w3.org/1999/xlink" width="85" height="85" viewBox="0 0 85 85"><defs><style>.a{fill:none;}.b,.g,.h,.i{fill:#f98e4d;}.c{clip-path:url(#a);}.d,.f{fill:#fff;}.d,.g{opacity:0.5;}.e{clip-path:url(#b);}.f,.i{opacity:0.25;}.g,.h,.i{mix-blend-mode:multiply;isolation:isolate;}.h{font-size:33px;font-family:OpenSans-SemiBold, Open Sans;font-weight:600;}</style><clipPath id="a"><rect class="a" width="85" height="85" rx="2"/></clipPath><clipPath id="b"><path class="a" d="M1.5,0H63.546a0,0,0,0,1,0,0V63.546a0,0,0,0,1,0,0H0a0,0,0,0,1,0,0V1.5A1.5,1.5,0,0,1,1.5,0Z"/></clipPath></defs><rect class="b" width="85" height="85" rx="2"/><g class="c"><g transform="translate(-11.019 -11.019)"><rect class="d" width="21.25" height="120.208" transform="translate(0 22.038) rotate(-45)"/><rect class="d" width="7.083" height="120.208" transform="translate(17.029 5.009) rotate(-45)"/></g></g><rect class="b" width="63.546" height="63.546" rx="1.5" transform="translate(10.727 10.727)"/><g transform="translate(10.727 10.727)"><g class="e"><g transform="translate(-21.575 -15.926)"><rect class="f" width="21.182" height="119.824" transform="translate(0 21.968) rotate(-45)"/><rect class="f" width="7.061" height="119.824" transform="translate(16.975 4.993) rotate(-45)"/></g></g></g><path class="g" d="M481.539,110.076a2.118,2.118,0,0,0-2.118-2.118h-59.31a2.117,2.117,0,0,0-2.118,2.118v59.31a2.118,2.118,0,0,0,2.118,2.118h.706V110.782h60.722Z" transform="translate(-407.266 -97.231)"/><text class="h" transform="translate(43 56)"><tspan x="-20.931" y="0">Cu</tspan></text><g transform="translate(9.297 9.297)"><path class="d" d="M482.32,107.544l-1.206,1.205a2.11,2.11,0,0,1,.622,1.5v59.333a2.12,2.12,0,0,1-2.119,2.119H420.283a2.108,2.108,0,0,1-1.5-.622l-1.206,1.206a2.817,2.817,0,0,0,2,.828h60.746a2.826,2.826,0,0,0,2.825-2.825V109.542A2.816,2.816,0,0,0,482.32,107.544Z" transform="translate(-416.741 -106.706)"/><path class="i" d="M480.564,106.958H419.818a2.825,2.825,0,0,0-2.825,2.825v60.746a2.815,2.815,0,0,0,.826,2l1.206-1.206a2.106,2.106,0,0,1-.62-1.5V110.49a2.118,2.118,0,0,1,2.119-2.119h59.333a2.112,2.112,0,0,1,1.5.62l1.206-1.205A2.817,2.817,0,0,0,480.564,106.958Z" transform="translate(-416.993 -106.958)"/></g><g transform="translate(0 0)"><path class="d" d="M411.322,184.619l1.21-1.21a2.112,2.112,0,0,1-.622-1.5V104a2.124,2.124,0,0,1,2.125-2.125h77.909a2.117,2.117,0,0,1,1.5.622l1.21-1.208a2.824,2.824,0,0,0-2-.83H413.326a2.832,2.832,0,0,0-2.833,2.833v79.325A2.829,2.829,0,0,0,411.322,184.619Z" transform="translate(-410.493 -100.458)"/><path class="g" d="M413.082,185.205h79.325a2.834,2.834,0,0,0,2.833-2.833V103.047a2.824,2.824,0,0,0-.83-2l-1.21,1.208a2.119,2.119,0,0,1,.623,1.5v77.909a2.126,2.126,0,0,1-2.125,2.125H413.791a2.114,2.114,0,0,1-1.5-.623l-1.21,1.21A2.825,2.825,0,0,0,413.082,185.205Z" transform="translate(-410.241 -100.206)"/></g></svg>