<svg xmlns="http://www.w3.org/2000/svg" xmlns:xlink="http://www.w3.org/1999/xlink" width="85" height="85" viewBox="0 0 85 85"><defs><style>.a{fill:none;}.b,.g,.h,.i{fill:#fdcd3f;}.c{clip-path:url(#a);}.d,.f{fill:#fff;}.d,.h{opacity:0.5;}.e{clip-path:url(#b);}.f{opacity:0.25;}.g,.h,.i{mix-blend-mode:multiply;isolation:isolate;}.i{font-size:33px;font-family:OpenSans-SemiBold, Open Sans;font-weight:600;}</style><clipPath id="a"><rect class="a" width="85" height="85" rx="2" transform="translate(-0.001 0)"/></clipPath><clipPath id="b"><path class="a" d="M1.5,0H63.75a0,0,0,0,1,0,0V63.75a0,0,0,0,1,0,0H0a0,0,0,0,1,0,0V1.5A1.5,1.5,0,0,1,1.5,0Z"/></clipPath></defs><g transform="translate(0 0)"><g transform="translate(0.001)"><rect class="b" width="85" height="85" rx="2" transform="translate(-0.001 0)"/><g class="c"><g transform="translate(-11.019 -11.019)"><rect class="d" width="21.25" height="120.208" transform="translate(0 22.038) rotate(-45)"/><rect class="d" width="7.083" height="120.208" transform="translate(17.029 5.009) rotate(-45)"/></g></g><rect class="b" width="63.75" height="63.75" rx="1.5" transform="translate(10.625 10.625)"/><g transform="translate(10.625 10.625)"><g class="e"><g transform="translate(-21.644 -15.977)"><rect class="f" width="21.25" height="120.208" transform="translate(0 22.038) rotate(-45)"/><rect class="f" width="7.083" height="120.208" transform="translate(17.029 5.009) rotate(-45)"/></g></g></g><path class="g" d="M621.244,110.083a2.124,2.124,0,0,0-2.125-2.125h-59.5a2.125,2.125,0,0,0-2.125,2.125v59.5a2.126,2.126,0,0,0,2.125,2.125h.708V110.791h60.916Z" transform="translate(-546.87 -97.333)"/><g transform="translate(9.208 9.209)"><path class="d" d="M622,107.544l-1.21,1.208a2.115,2.115,0,0,1,.622,1.5v59.5a2.125,2.125,0,0,1-2.125,2.125h-59.5a2.119,2.119,0,0,1-1.5-.623l-1.208,1.21a2.825,2.825,0,0,0,2,.83H620a2.834,2.834,0,0,0,2.833-2.833V109.547A2.829,2.829,0,0,0,622,107.544Z" transform="translate(-556.25 -106.714)"/><path class="h" d="M620.244,106.958H559.327a2.833,2.833,0,0,0-2.833,2.833v60.916a2.824,2.824,0,0,0,.83,2l1.208-1.21a2.118,2.118,0,0,1-.622-1.5V110.5a2.125,2.125,0,0,1,2.125-2.125h59.5a2.119,2.119,0,0,1,1.5.622l1.21-1.208A2.83,2.83,0,0,0,620.244,106.958Z" transform="translate(-556.494 -106.958)"/></g></g><g transform="translate(0 0)"><path class="d" d="M550.824,184.628l1.21-1.21a2.113,2.113,0,0,1-.623-1.5V104a2.125,2.125,0,0,1,2.125-2.125h77.916a2.119,2.119,0,0,1,1.5.622l1.21-1.208a2.825,2.825,0,0,0-2-.83H552.827a2.833,2.833,0,0,0-2.833,2.833v79.333A2.824,2.824,0,0,0,550.824,184.628Z" transform="translate(-549.994 -100.458)"/><path class="g" d="M552.583,185.214h79.333a2.834,2.834,0,0,0,2.833-2.833V103.047a2.823,2.823,0,0,0-.829-2l-1.21,1.208a2.117,2.117,0,0,1,.622,1.5v77.916a2.125,2.125,0,0,1-2.125,2.125H553.292a2.113,2.113,0,0,1-1.5-.623l-1.21,1.21A2.824,2.824,0,0,0,552.583,185.214Z" transform="translate(-549.75 -100.214)"/></g><text class="i" transform="translate(43 55)"><tspan x="-21.382" y="0">Au</tspan></text></g></svg>