<svg width="70" height="72" viewBox="0 0 70 72" fill="none" xmlns="http://www.w3.org/2000/svg"> <rect width="70" height="72" fill="white"/> <path d="M58.873 15.7794L62.9365 13V40H58.873V15.7794Z" fill="#009688"/> <path d="M9.0957 15.7794L5.03221 13V40H9.0957V15.7794Z" fill="#009688"/> <path fill-rule="evenodd" clip-rule="evenodd" d="M21.1262 18.95C15.8638 15.075 11.186 11.975 5.72868 9.65L3 5C9.71401 6.5402 17.4508 10.7438 23.6304 16.1376C29.7963 21.5195 34.9406 28.7604 36.5238 36H32.6257C30.6766 29.8 26.3887 23.6 21.1262 18.95Z" fill="#009688"/> <path fill-rule="evenodd" clip-rule="evenodd" d="M48.8738 18.95C54.1362 15.075 58.814 11.975 64.2713 9.65L67 5C60.286 6.5402 52.5492 10.7438 46.3696 16.1376C40.2037 21.5195 35.0594 28.7604 33.4762 36H37.3743C39.3234 29.8 43.6113 23.6 48.8738 18.95Z" fill="#009688"/> <path fill-rule="evenodd" clip-rule="evenodd" d="M49.4217 33C51.1048 33 52.4693 31.6569 52.4693 30C52.4693 28.3431 51.1048 27 49.4217 27C47.7385 27 46.374 28.3431 46.374 30C46.374 31.6569 47.7385 33 49.4217 33ZM49.4217 37C53.349 37 56.5328 33.866 56.5328 30C56.5328 26.134 53.349 23 49.4217 23C45.4943 23 42.3105 26.134 42.3105 30C42.3105 33.866 45.4943 37 49.4217 37Z" fill="#009688"/> <path fill-rule="evenodd" clip-rule="evenodd" d="M18.3269 33C20.0101 33 21.3746 31.6569 21.3746 30C21.3746 28.3431 20.0101 27 18.3269 27C16.6438 27 15.2793 28.3431 15.2793 30C15.2793 31.6569 16.6438 33 18.3269 33ZM18.3269 37C22.2543 37 25.438 33.866 25.438 30C25.438 26.134 22.2543 23 18.3269 23C14.3996 23 11.2158 26.134 11.2158 30C11.2158 33.866 14.3996 37 18.3269 37Z" fill="#009688"/> <rect x="14.1748" y="46.1045" width="42.6415" height="1.90972" fill="#009688"/> <path d="M16.0375 50.833L18.3302 56.6373L20.6228 50.833H23.5011V59.9997H21.4038V54.2465L19.1426 59.9997H17.5177L15.2565 54.2465V59.9997H13.1592V50.833H16.0375Z" fill="#009688"/> <path d="M27.1479 58.2034L26.4551 59.9997H24.194L27.9289 50.833H30.0074L33.7423 59.9997H31.4812L30.7884 58.2034H27.1479ZM28.9681 53.5178L27.8407 56.4199H30.0955L28.9681 53.5178Z" fill="#009688"/> <path d="M37.3135 50.833L39.6061 56.6373L41.8987 50.833H44.7771V59.9997H42.6797V54.2465L40.4186 59.9997H38.7936L36.5325 54.2465V59.9997H34.4351V50.833H37.3135Z" fill="#009688"/> <path d="M48.4238 58.2034L47.731 59.9997H45.4699L49.2048 50.833H51.2833L55.0182 59.9997H52.7571L52.0643 58.2034H48.4238ZM50.2441 53.5178L49.1167 56.4199H51.3715L50.2441 53.5178Z" fill="#009688"/> </svg>
