<svg xmlns="http://www.w3.org/2000/svg" viewBox="0 0 490.6 89.1" fill="#fff"><path d="M0 2h8.3v75.3h34v7.4H0V2zm63.7 57.2l-6.4 27.2-8.2-2.2L70.1 2H80l21 82.1-8.2 2.2-6.5-27.2H63.7zM75.1 13h-.2l-9.2 38.7h18.6L75.1 13zm57.1 23.1h2.2L157.5.4l6.7 4.2-22.7 35 27.2 42.5-6.9 4.2L135 43.5h-2.9v41.2h-8.3V2h8.3l.1 34.1zM189.8 2h40.3v7.4h-32v27.3h26.4v7.4h-26.4v33.1h32v7.4h-40.3V2zm98.7 18.9c-1.4-6.1-4.3-12.2-11.4-12.2-7.8 0-10.9 6.3-10.9 13.3 0 6.7 1.4 8.8 14.4 16.6 10.2 6.1 17.1 11.2 17.1 23.9 0 13-6.9 23.3-20.8 23.3-14.6 0-20-9.7-21.2-22.8l8.3-1.2c1.1 9.2 3.1 16.1 13.1 16.1 7.2 0 12.3-4.8 12.3-14.8 0-10.9-7.1-14.6-15.6-19.6-9.5-5.6-15.9-9.5-15.9-21.7 0-11.2 7.4-21.1 19.2-21.1s17.4 8.3 19.5 18.7l-8.1 1.5zm42.6-11.5h-11.2V2h30.8v7.4h-11.3v67.8h11.3v7.4h-30.8v-7.4h11.2V9.4zm42.9 0V2h21.8c16.6 0 26.4 7.3 26.4 41.4 0 18.2-1 41.3-26.2 41.3h-22v-7.4h6.7V9.4H374zm15 67.9h6.8c10 0 17.7-2.6 17.7-33.9 0-31.5-8.4-34-15.8-34H389v67.9zM450.4 2h40.3v7.4h-32v27.3h26.4v7.4h-26.4v33.1h32v7.4h-40.3V2z"/></svg>