<svg xmlns="http://www.w3.org/2000/svg" xmlns:xlink="http://www.w3.org/1999/xlink" viewBox="0 0 355.58 363.92"><defs><linearGradient id="Безымянный_градиент_2" x1="94.81" y1="-1732.21" x2="427.07" y2="-1791.61" gradientTransform="translate(-21.31 1857.15)" gradientUnits="userSpaceOnUse"><stop offset="0" stop-color="#25baff"/><stop offset="1" stop-color="#0379b0"/></linearGradient></defs><title>Ресурс 1</title><g id="Слой_2" data-name="Слой 2"><g id="svg2"><g id="layer1"><text transform="translate(3.05 263.66)" style="isolation:isolate;font-size:70px;font-family:Arial-BoldMT, Arial;font-weight:700">AFFILI<tspan x="217.72" y="0" style="letter-spacing:-0.07421875em">A</tspan><tspan x="263.08" y="0">TE</tspan></text><text transform="translate(0 337.57)" style="isolation:isolate;font-size:70px;font-family:Arial-BoldMT, Arial;font-weight:700;letter-spacing:0.013999720982142857em">EMBASS<tspan x="305.36" y="0" style="letter-spacing:-0.004059709821428572em">Y</tspan></text><path id="path5002" d="M179.31,0l-111,192.2h222L282,177.8H93l86.3-149.4,73.2,124.5H136.21l22.1-39,14.5,24h13l-21.1-35.3,14.6-25.8,34.2,61h13.3l-47.5-84-65,112.9h161.4L179.31,0Z" style="fill:url(#Безымянный_градиент_2)"/><g style="isolation:isolate"><path d="M53.33,263.66h-11l-4.37-11.38h-20l-4.14,11.38H3l19.52-50.11h10.7ZM34.7,243.84l-6.9-18.59L21,243.84Z"/><path d="M58.76,263.66V213.56H93.11V222H68.88v11.86H89.8v8.48H68.88v21.29Z"/><path d="M101.52,263.66V213.56h34.35V222H111.64v11.86h20.92v8.48H111.64v21.29Z"/><path d="M143.9,263.66V213.56H154v50.11Z"/><path d="M163.93,263.66V214H174v41.25h25.16v8.44Z"/><path d="M206.11,263.66V213.56h10.12v50.11Z"/><path d="M271.05,263.66H260l-4.37-11.38h-20l-4.14,11.38H220.77l19.52-50.11H251Zm-18.63-19.82-6.9-18.59-6.77,18.59Z"/><path d="M282.5,263.66V222H267.63v-8.48h39.82V222H292.62v41.63Z"/><path d="M314,263.66V213.56h37.15V222h-27v11.11h25.16v8.44H324.1v13.64h28v8.44Z"/></g><g style="isolation:isolate"><path d="M5.09,337.57V287.46H42.25v8.48h-27V307H40.37v8.44H15.21v13.64h28v8.44Z" style="fill:#26a2dc"/><path d="M52.63,337.57V287.46H67.77l9.09,34.18,9-34.18H101v50.11h-9.4V298.13l-9.95,39.44H71.94L62,298.13v39.44Z" style="fill:#26a2dc"/><path d="M112.09,287.46h20a57.89,57.89,0,0,1,8.87.5,13,13,0,0,1,5.23,2.07,12.88,12.88,0,0,1,3.84,4.19,11.35,11.35,0,0,1,1.54,5.86,11.88,11.88,0,0,1-7,10.87,13.19,13.19,0,0,1,7,4.55,12.07,12.07,0,0,1,2.46,7.55,14.87,14.87,0,0,1-1.59,6.65,13.39,13.39,0,0,1-4.34,5.16,14.34,14.34,0,0,1-6.79,2.38q-2.53.27-12.2.34H112.09Zm10.12,8.34v11.59h6.63q5.91,0,7.35-.17a6.68,6.68,0,0,0,4.08-1.79,5.29,5.29,0,0,0,1.49-3.91,5.5,5.5,0,0,0-1.28-3.78,5.8,5.8,0,0,0-3.81-1.76q-1.5-.17-8.65-.17Zm0,19.93v13.4h9.37a45.77,45.77,0,0,0,6.94-.31,6.26,6.26,0,0,0,3.67-2,6.15,6.15,0,0,0,1.42-4.25,6.54,6.54,0,0,0-1.09-3.83,6.19,6.19,0,0,0-3.16-2.29q-2.07-.72-9-.72Z" style="fill:#26a2dc"/><path d="M208.77,337.57h-11l-4.37-11.38h-20l-4.14,11.38H158.49L178,287.46h10.7Zm-18.63-19.82-6.9-18.59-6.77,18.59Z" style="fill:#26a2dc"/><path d="M212.55,321.27l9.84-1q.89,5,3.61,7.28a10.9,10.9,0,0,0,7.33,2.32q4.89,0,7.37-2.07a6.15,6.15,0,0,0,2.48-4.84,4.56,4.56,0,0,0-1-3,8.34,8.34,0,0,0-3.64-2.17q-1.78-.62-8.1-2.19-8.14-2-11.42-5a13,13,0,0,1-4.61-10.08,12.87,12.87,0,0,1,2.17-7.16,13.58,13.58,0,0,1,6.25-5.08,25.07,25.07,0,0,1,9.86-1.74q9.43,0,14.2,4.14a14.6,14.6,0,0,1,5,11l-10.12.44a8.61,8.61,0,0,0-2.79-5.55q-2.14-1.69-6.41-1.69a11.56,11.56,0,0,0-6.9,1.81A3.65,3.65,0,0,0,224,299.9a3.85,3.85,0,0,0,1.5,3q1.91,1.61,9.3,3.35a49,49,0,0,1,10.92,3.61,14.07,14.07,0,0,1,5.54,5.09,15.77,15.77,0,0,1-.39,16,14.34,14.34,0,0,1-6.77,5.59,28.41,28.41,0,0,1-10.9,1.83q-9.5,0-14.59-4.39T212.55,321.27Z" style="fill:#26a2dc"/><path d="M260.22,321.27l9.84-1q.89,5,3.61,7.28a10.9,10.9,0,0,0,7.33,2.32q4.89,0,7.37-2.07a6.15,6.15,0,0,0,2.48-4.84,4.56,4.56,0,0,0-1-3,8.34,8.34,0,0,0-3.64-2.17q-1.78-.62-8.1-2.19-8.14-2-11.42-5A13,13,0,0,1,262,300.59a12.87,12.87,0,0,1,2.17-7.16,13.58,13.58,0,0,1,6.25-5.08,25.07,25.07,0,0,1,9.86-1.74q9.43,0,14.2,4.14a14.6,14.6,0,0,1,5,11l-10.12.44a8.61,8.61,0,0,0-2.79-5.55q-2.14-1.69-6.41-1.69a11.56,11.56,0,0,0-6.9,1.81,3.65,3.65,0,0,0-1.61,3.11,3.85,3.85,0,0,0,1.5,3q1.91,1.61,9.3,3.35a49,49,0,0,1,10.92,3.61A14.07,14.07,0,0,1,299,315a15.77,15.77,0,0,1-.39,16,14.34,14.34,0,0,1-6.77,5.59,28.41,28.41,0,0,1-10.9,1.83q-9.5,0-14.59-4.39T260.22,321.27Z" style="fill:#26a2dc"/><path d="M323.61,337.57V316.48l-18.35-29h11.86l11.79,19.82,11.55-19.82h11.66L333.7,316.55v21Z" style="fill:#26a2dc"/></g><path id="path5012" d="M179.31,0l-111,192.2h222L282,177.8H93l86.3-149.4,73.2,124.5H136.21l22.1-39,14.5,24h13l-21.1-35.3,14.6-25.8,34.2,61h13.3l-47.5-84-65,112.9h161.4L179.31,0Z" style="fill:url(#Безымянный_градиент_2)"/></g></g></g></svg>
