<svg version="1.1" id="Layer_1" xmlns="http://www.w3.org/2000/svg" xmlns:xlink="http://www.w3.org/1999/xlink" x="0px" y="0px" viewBox="0 0 250 75" style="enable-background:new 0 0 250 75;" xml:space="preserve"> <style type="text/css"> .st0{fill:#042338;} .st1{fill:#54C2B4;} </style> <g> <g> <g> <path class="st0" d="M6.6,52.4c-3-2.9-4.5-6.9-4.5-12.1c0-5.5,1.5-9.7,4.4-12.6s7.2-4.4,13-4.4c1.9,0,3.6,0.1,5.2,0.4 s3.1,0.7,4.7,1.2V32c-2.9-1.2-6-1.8-9.2-1.8c-3.4,0-5.8,0.8-7.4,2.4c-1.6,1.6-2.3,4.1-2.3,7.6c0,3.3,0.8,5.7,2.4,7.2 s4.1,2.3,7.4,2.3s6.3-0.6,9.2-1.8V55c-3,1-6.2,1.5-9.8,1.5C13.9,56.7,9.6,55.3,6.6,52.4z"/> <path class="st0" d="M36.2,52.7c-2.7-2.7-4.1-6.9-4.1-12.5c0-5.9,1.3-10.1,4-12.8s6.7-4,12.1-4s9.4,1.3,12.1,4 c2.7,2.7,4.1,7,4.1,12.8c0,5.6-1.4,9.8-4.1,12.5c-2.7,2.7-6.7,4.1-12.1,4.1S38.9,55.4,36.2,52.7z M54.2,47.5 c1.3-1.6,1.9-4,1.9-7.3c0-3.6-0.6-6.1-1.9-7.6c-1.2-1.5-3.2-2.3-6-2.3s-4.8,0.8-6,2.3s-1.9,4.1-1.9,7.6c0,3.3,0.6,5.8,1.9,7.3 s3.3,2.3,6,2.3C51,49.9,52.9,49.1,54.2,47.5z"/> <path class="st0" d="M68.5,23.8h6.9l13.8,19.4V23.8h8.2v32.4h-7L76.6,36.9v19.3h-8.1V23.8z"/> <path class="st0" d="M102.5,23.8h23.6V30h-15.5v6.8h13.6v6.3h-13.6v13h-8.1V23.8z"/> <path class="st0" d="M133.8,23.8h8.8L155,56.2h-8.5l-2.9-7.3h-10.8l-2.9,7.3h-8.5L133.8,23.8z M142.4,42.9l-4.3-11.3l-4.3,11.3 H142.4z"/> </g> <path class="st1" d="M149.4,11.2v55.9H204V6.5L149.4,11.2z M162.8,56.2h-5.5V23.8h5.5V56.2z M196.3,56.2h-4.8l-16.9-23.8v23.8 h-5.5V23.8h4.8l16.9,23.9V23.8h5.4v32.4H196.3z"/> </g> <g> <path class="st0" d="M205.9,54.7c-1.2-1.3-1.9-3.1-1.9-5.5v-12h7.6v11.4c0,0.9,0.2,1.5,0.6,1.9c0.4,0.4,1.1,0.6,1.9,0.6 c0.6,0,1.2-0.1,1.8-0.4c0.6-0.3,1.1-0.6,1.5-1V37.1h7.6v19.1h-7.1l-0.2-1.4c-1.7,1.2-3.9,1.9-6.5,1.9 C208.9,56.6,207.1,56,205.9,54.7z"/> <path class="st0" d="M229.6,55.1c-1.3-1-1.9-2.6-1.9-4.6s0.7-3.6,2-4.7c1.4-1.1,3.4-1.6,6.1-1.6h5v-0.4c0-0.8-0.3-1.3-0.9-1.7 c-0.6-0.3-1.7-0.5-3.2-0.5c-2.2,0-4.4,0.3-6.5,1V38c1-0.4,2.2-0.7,3.7-1c1.4-0.2,2.9-0.4,4.4-0.4c3.1,0,5.5,0.6,7.3,1.9 c1.7,1.3,2.6,3.2,2.6,5.8v11.8h-6.6l-0.4-1.5c-1.4,1.3-3.6,1.9-6.5,1.9C232.5,56.6,230.9,56.1,229.6,55.1z M240.7,50.6v-2.4H237 c-0.9,0-1.5,0.2-1.9,0.5s-0.6,0.8-0.6,1.5c0,1.3,0.8,1.9,2.5,1.9C238.6,52.2,239.8,51.7,240.7,50.6z"/> </g> </g> </svg>
