<svg enable-background="new 0 0 165.7 33" viewBox="0 0 165.7 33" xmlns="http://www.w3.org/2000/svg"><path clip-rule="evenodd" d="m4.1 16.5 20.6-11.8v-4.7l-24.7 14.1v4.7l24.7 14.2 12.3-7.1v-4.7l-12.3 7.1zm28.8-2.4-12.3 7.1 4.1 2.4 8.2-4.7zm-4.1-7-16.4 9.4 4.1 2.4 12.3-7.1z" fill="#ff8a00" fill-rule="evenodd"/><g fill="#362c50"><path d="m64.2 20.4v3.1h-13v-16.8h12.7v3.1h-8.8v3.6h7.8v3h-7.8v3.9h9.1z"/><path d="m85.7 6.7-7.3 16.8h-3.8l-7.3-16.8h4.2l5.1 12 5.2-12z"/><path d="m102.5 20.4v3.1h-13v-16.8h12.7v3.1h-8.8v3.6h7.8v3h-7.8v3.9h9.1z"/><path d="m118.7 23.5-3.2-4.7h-.2-3.4v4.7h-3.9v-16.8h7.3c1.5 0 2.8.2 3.9.7s1.9 1.2 2.5 2.1.9 2 .9 3.2-.3 2.3-.9 3.2-1.5 1.6-2.6 2.1l3.8 5.4h-4.2zm-1-12.9c-.6-.5-1.5-.8-2.7-.8h-3.2v5.9h3.2c1.2 0 2.1-.3 2.7-.8s.9-1.2.9-2.2c0-.8-.3-1.6-.9-2.1z"/><path d="m139.1 19.9h-7.8l-1.5 3.6h-4l7.5-16.8h3.8l7.5 16.8h-4.1zm-1.3-2.9-2.7-6.4-2.7 6.4z"/><path d="m148.8 6.7h7.6c1.8 0 3.4.3 4.8 1s2.5 1.7 3.3 2.9c.8 1.3 1.2 2.7 1.2 4.4s-.4 3.2-1.2 4.4c-.8 1.3-1.9 2.2-3.3 2.9s-3 1-4.8 1h-7.6zm7.4 13.6c1.7 0 3-.5 4-1.4s1.5-2.2 1.5-3.8-.5-2.9-1.5-3.8-2.3-1.4-4-1.4h-3.6v10.4z"/></g></svg>