<svg xmlns="http://www.w3.org/2000/svg" xmlns:xlink="http://www.w3.org/1999/xlink" id="Слой_1" x="0px" y="0px" viewBox="0 0 165.7 33" style="enable-background:new 0 0 165.7 33;" xml:space="preserve"> <style type="text/css"> .st0{fill-rule:evenodd;clip-rule:evenodd;fill:#FF8A00;} .st1{fill:#362C50;} </style> <path class="st0" d="M4.1,16.5L24.7,4.7V0L0,14.1v4.7L24.7,33L37,25.9v-4.7l-12.3,7.1L4.1,16.5z M32.9,14.1l-12.3,7.1l4.1,2.4 l8.2-4.7V14.1z M28.8,7.1l-16.4,9.4l4.1,2.4l12.3-7.1V7.1z"/> <g> <g> <path class="st1" d="M64.2,20.4v3.1h-13V6.7h12.7v3.1h-8.8v3.6h7.8v3h-7.8v3.9H64.2z"/> <path class="st1" d="M85.7,6.7l-7.3,16.8h-3.8L67.3,6.7h4.2l5.1,12l5.2-12H85.7z"/> <path class="st1" d="M102.5,20.4v3.1h-13V6.7h12.7v3.1h-8.8v3.6h7.8v3h-7.8v3.9H102.5z"/> <path class="st1" d="M118.7,23.5l-3.2-4.7h-0.2h-3.4v4.7h-3.9V6.7h7.3c1.5,0,2.8,0.2,3.9,0.7c1.1,0.5,1.9,1.2,2.5,2.1 c0.6,0.9,0.9,2,0.9,3.2s-0.3,2.3-0.9,3.2c-0.6,0.9-1.5,1.6-2.6,2.1l3.8,5.4H118.7z M117.7,10.6c-0.6-0.5-1.5-0.8-2.7-0.8h-3.2v5.9 h3.2c1.2,0,2.1-0.3,2.7-0.8c0.6-0.5,0.9-1.2,0.9-2.2C118.6,11.9,118.3,11.1,117.7,10.6z"/> <path class="st1" d="M139.1,19.9h-7.8l-1.5,3.6h-4l7.5-16.8h3.8l7.5,16.8h-4.1L139.1,19.9z M137.8,17l-2.7-6.4l-2.7,6.4H137.8z"/> <path class="st1" d="M148.8,6.7h7.6c1.8,0,3.4,0.3,4.8,1c1.4,0.7,2.5,1.7,3.3,2.9c0.8,1.3,1.2,2.7,1.2,4.4c0,1.7-0.4,3.2-1.2,4.4 c-0.8,1.3-1.9,2.2-3.3,2.9s-3,1-4.8,1h-7.6V6.7z M156.2,20.3c1.7,0,3-0.5,4-1.4s1.5-2.2,1.5-3.8c0-1.6-0.5-2.9-1.5-3.8 s-2.3-1.4-4-1.4h-3.6v10.4H156.2z"/> </g> </g> </svg>
