<?xml version="1.0" encoding="UTF-8"?>
<svg xmlns="http://www.w3.org/2000/svg" viewBox="0 0 1868 1568"> <defs> <style>.cls-1{fill-rule:evenodd;}</style> </defs> <title>logo-black</title> <g id="logo-black"> <g id="logo"> <g id="label"> <path d="M166.57,1339a90,90,0,0,1,9.39-1.48,84.07,84.07,0,0,1,8.67-.46,56.42,56.42,0,0,1,20.52,3.46,42,42,0,0,1,14.91,9.58,40.3,40.3,0,0,1,9.08,14.31,50,50,0,0,1,3.07,17.68,53.91,53.91,0,0,1-4.14,21.4,48.27,48.27,0,0,1-11.48,16.55,51.56,51.56,0,0,1-17.41,10.65,62,62,0,0,1-21.9,3.77,58.85,58.85,0,0,1-13.16-1.43,65.35,65.35,0,0,1-21.8-9.32,63.44,63.44,0,0,1-8.32-6.57l7.76-10.7a7.53,7.53,0,0,1,6.43-3.46,9.91,9.91,0,0,1,5.21,1.63q2.65,1.62,6.07,3.56a50.37,50.37,0,0,0,8.07,3.57,33.76,33.76,0,0,0,11.17,1.63,31.35,31.35,0,0,0,12.25-2.24,23.78,23.78,0,0,0,8.83-6.27,26.73,26.73,0,0,0,5.31-9.57,39.32,39.32,0,0,0,1.79-12.08q0-12-7-18.8t-20.68-6.77a64.81,64.81,0,0,0-21.54,3.87L142,1357.07l12.25-71.52H227.1v10.69a11.84,11.84,0,0,1-3.37,8.77q-3.36,3.36-11.43,3.36H171.77Z"/> <path d="M395.65,1328.34,338.58,1461.6a9.66,9.66,0,0,1-2.91,4q-1.79,1.38-5.46,1.38H311.42L331,1425l-42.37-96.68h22.15a7,7,0,0,1,4.65,1.42A9.32,9.32,0,0,1,318,1333l22.25,54.21a49,49,0,0,1,1.89,5.5q.76,2.74,1.48,5.6c.61-1.9,1.23-3.78,1.84-5.65s1.29-3.72,2-5.56l21-54.1a7.54,7.54,0,0,1,2.71-3.36,7.19,7.19,0,0,1,4.23-1.32Z"/> <path d="M424.33,1383.76a49.42,49.42,0,0,0,2.86,13.91,28.47,28.47,0,0,0,5.92,9.68,23.18,23.18,0,0,0,8.73,5.7,31.72,31.72,0,0,0,11.18,1.89,34.78,34.78,0,0,0,10.57-1.43,48.83,48.83,0,0,0,7.75-3.16q3.33-1.72,5.82-3.16a9.8,9.8,0,0,1,4.85-1.42,5.23,5.23,0,0,1,4.7,2.34l7.25,9.17a41.81,41.81,0,0,1-9.39,8.2,52.58,52.58,0,0,1-10.88,5.3,58.76,58.76,0,0,1-11.53,2.8,83.44,83.44,0,0,1-11.39.82,56.05,56.05,0,0,1-20.31-3.62,45.41,45.41,0,0,1-16.33-10.7,50.24,50.24,0,0,1-10.93-17.52,67.79,67.79,0,0,1-4-24.2,57.84,57.84,0,0,1,3.47-20.12,48.31,48.31,0,0,1,9.95-16.4,46.9,46.9,0,0,1,15.83-11.06,52.32,52.32,0,0,1,21.08-4.07,51.25,51.25,0,0,1,18.27,3.16,39.84,39.84,0,0,1,14.4,9.22,42.79,42.79,0,0,1,9.44,14.87,55.32,55.32,0,0,1,3.42,20.12q0,5.72-1.23,7.69c-.81,1.33-2.38,2-4.69,2Zm48.09-15.18a30.2,30.2,0,0,0-1.38-9.22,21.92,21.92,0,0,0-4.14-7.59,19.14,19.14,0,0,0-7-5.14,24,24,0,0,0-9.85-1.89q-10.92,0-17.2,6.22t-8,17.62Z"/> <path d="M511.52,1342.91q18.06-16.52,43.48-16.51a42.45,42.45,0,0,1,16.44,3,34.72,34.72,0,0,1,12.25,8.35,35.78,35.78,0,0,1,7.61,12.79,49.18,49.18,0,0,1,2.6,16.3v66H582.47a11.65,11.65,0,0,1-5.52-1.07c-1.29-.71-2.31-2.16-3.06-4.33l-2.24-7.54a92.91,92.91,0,0,1-7.76,6.27,45.65,45.65,0,0,1-7.86,4.53,42.42,42.42,0,0,1-8.73,2.8,50.09,50.09,0,0,1-10.26,1,40.51,40.51,0,0,1-12.25-1.78,26.85,26.85,0,0,1-9.7-5.35,24.05,24.05,0,0,1-6.33-8.87,31.31,31.31,0,0,1-2.25-12.32,24.67,24.67,0,0,1,1.33-7.9,23,23,0,0,1,4.34-7.49,35.89,35.89,0,0,1,7.81-6.72,50.58,50.58,0,0,1,11.79-5.5,100.69,100.69,0,0,1,16.28-3.82A163.16,163.16,0,0,1,569.3,1373v-6.11q0-10.5-4.49-15.54t-13-5a30.63,30.63,0,0,0-10.16,1.43,42.27,42.27,0,0,0-7.09,3.2q-3.06,1.78-5.57,3.21a10.91,10.91,0,0,1-5.56,1.43,7.25,7.25,0,0,1-4.49-1.38,11.36,11.36,0,0,1-3-3.2Zm57.78,45.33a140.46,140.46,0,0,0-18.38,1.89,49.37,49.37,0,0,0-11.94,3.51,15.69,15.69,0,0,0-6.43,5,10.76,10.76,0,0,0-1.94,6.21q0,6.63,3.93,9.48t10.26,2.85a29.94,29.94,0,0,0,13.42-2.8,40,40,0,0,0,11.08-8.51Z"/> <path d="M641.37,1346.47A45.05,45.05,0,0,1,653,1331.75a24.81,24.81,0,0,1,15.92-5.35q7.25,0,11.64,3.16l-1.63,18.85a4.93,4.93,0,0,1-1.48,2.6,4.11,4.11,0,0,1-2.61.76,29.78,29.78,0,0,1-4.54-.51,35.11,35.11,0,0,0-5.87-.51A21.28,21.28,0,0,0,657,1352a18.74,18.74,0,0,0-5.87,3.52,24,24,0,0,0-4.6,5.55,54.85,54.85,0,0,0-3.72,7.44v64.39H617.58V1328.34h14.81q3.87,0,5.41,1.37t2,4.94Z"/> <path d="M757.34,1348.71a6.7,6.7,0,0,1-2.15,2.3,5.57,5.57,0,0,1-2.85.66,9,9,0,0,1-3.94-1c-1.39-.68-3-1.44-4.84-2.29a44.47,44.47,0,0,0-6.28-2.3,30.51,30.51,0,0,0-8.32-1q-7.46,0-11.69,3.16a9.8,9.8,0,0,0-4.24,8.25,7.83,7.83,0,0,0,2.2,5.65,19.72,19.72,0,0,0,5.82,4,56.5,56.5,0,0,0,8.21,3.1q4.61,1.38,9.34,3t9.34,3.72a32.46,32.46,0,0,1,8.22,5.3,23.32,23.32,0,0,1,8,18.49,35.23,35.23,0,0,1-2.71,13.9,30,30,0,0,1-8,11,37.77,37.77,0,0,1-13.12,7.23,61.5,61.5,0,0,1-28.58,1.63,61.51,61.51,0,0,1-9.91-2.7,54.89,54.89,0,0,1-8.78-4.07,42.53,42.53,0,0,1-7.09-5.1l5.82-9.58a8.23,8.23,0,0,1,2.65-2.64,7.45,7.45,0,0,1,3.88-.92,8.16,8.16,0,0,1,4.44,1.32c1.4.89,3,1.84,4.85,2.86a43.23,43.23,0,0,0,6.48,2.85,28.7,28.7,0,0,0,9.45,1.32,24.3,24.3,0,0,0,7.7-1.07,16.05,16.05,0,0,0,5.31-2.8,10.47,10.47,0,0,0,3.07-4,12.18,12.18,0,0,0,1-4.74,8.44,8.44,0,0,0-2.2-6,19.27,19.27,0,0,0-5.82-4.08,56.07,56.07,0,0,0-8.27-3.1q-4.65-1.38-9.49-3a86.41,86.41,0,0,1-9.5-3.82,32.57,32.57,0,0,1-8.27-5.55,25.13,25.13,0,0,1-5.81-8.25,28.67,28.67,0,0,1-2.2-11.82,30.09,30.09,0,0,1,2.55-12.23,28.62,28.62,0,0,1,7.51-10.14,37.47,37.47,0,0,1,12.35-6.93,51.58,51.58,0,0,1,17.1-2.59,52.58,52.58,0,0,1,19.7,3.56,44.52,44.52,0,0,1,14.8,9.38Z"/> <path d="M879.13,1326.71a57.11,57.11,0,0,1,21.18,3.77,46.44,46.44,0,0,1,16.33,10.69,46.94,46.94,0,0,1,10.47,16.92,70,70,0,0,1,0,44.72,48,48,0,0,1-10.47,17,45.75,45.75,0,0,1-16.33,10.8,57.31,57.31,0,0,1-21.18,3.77,58,58,0,0,1-21.34-3.77,45.6,45.6,0,0,1-16.38-10.8,48.51,48.51,0,0,1-10.52-17,68.88,68.88,0,0,1,0-44.72,47.45,47.45,0,0,1,10.52-16.92,46.28,46.28,0,0,1,16.38-10.69A57.78,57.78,0,0,1,879.13,1326.71Zm0,88.33q13.07,0,19.34-8.76t6.28-25.68q0-16.9-6.28-25.77T879.13,1346q-13.27,0-19.66,8.92t-6.38,25.72q0,16.82,6.38,25.63T879.13,1415Z"/> <path d="M954.87,1432.87v-85.58l-9.08-1.43a10.68,10.68,0,0,1-4.75-2.09,5.17,5.17,0,0,1-1.79-4.23v-10.29h15.62v-7.74a45.22,45.22,0,0,1,2.71-16.1,32.67,32.67,0,0,1,20.06-19.76A47.25,47.25,0,0,1,994,1283a45.23,45.23,0,0,1,13.48,1.94l-.51,12.63a3.92,3.92,0,0,1-.82,2.29,4.59,4.59,0,0,1-1.89,1.33,10.32,10.32,0,0,1-2.7.61q-1.53.15-3.27.15a30,30,0,0,0-8,1,13.37,13.37,0,0,0-6,3.36,15.17,15.17,0,0,0-3.73,6.32,31.83,31.83,0,0,0-1.28,9.73v6.92h27.26v17.94H980.09v85.68Z"/> <path d="M1130.36,1348.71a6.78,6.78,0,0,1-2.14,2.3,5.6,5.6,0,0,1-2.86.66,9,9,0,0,1-3.93-1c-1.4-.68-3-1.44-4.85-2.29a44.47,44.47,0,0,0-6.28-2.3,30.51,30.51,0,0,0-8.32-1q-7.45,0-11.69,3.16a9.83,9.83,0,0,0-4.24,8.25,7.83,7.83,0,0,0,2.2,5.65,19.72,19.72,0,0,0,5.82,4,56.21,56.21,0,0,0,8.22,3.1q4.59,1.38,9.34,3T1121,1376a32.81,32.81,0,0,1,8.22,5.3A24.61,24.61,0,0,1,1135,1389a24.27,24.27,0,0,1,2.2,10.8,35.06,35.06,0,0,1-2.71,13.9,30,30,0,0,1-8,11,37.77,37.77,0,0,1-13.12,7.23,61.5,61.5,0,0,1-28.58,1.63,61.11,61.11,0,0,1-9.9-2.7,54.09,54.09,0,0,1-8.78-4.07,42.63,42.63,0,0,1-7.1-5.1l5.82-9.58a8.23,8.23,0,0,1,2.65-2.64,7.5,7.5,0,0,1,3.88-.92,8.16,8.16,0,0,1,4.44,1.32q2.1,1.34,4.85,2.86a42.93,42.93,0,0,0,6.49,2.85,28.64,28.64,0,0,0,9.44,1.32,24.41,24.41,0,0,0,7.71-1.07,16.25,16.25,0,0,0,5.31-2.8,10.54,10.54,0,0,0,3.06-4,12.18,12.18,0,0,0,1-4.74,8.4,8.4,0,0,0-2.2-6,19.27,19.27,0,0,0-5.82-4.08,55.65,55.65,0,0,0-8.27-3.1q-4.63-1.38-9.49-3a86.25,86.25,0,0,1-9.49-3.82,32.22,32.22,0,0,1-8.27-5.55,25,25,0,0,1-5.82-8.25,28.67,28.67,0,0,1-2.2-11.82,29.94,29.94,0,0,1,2.56-12.23,28.72,28.72,0,0,1,7.5-10.14,37.57,37.57,0,0,1,12.35-6.93,51.62,51.62,0,0,1,17.1-2.59,52.58,52.58,0,0,1,19.7,3.56,44.56,44.56,0,0,1,14.81,9.38Z"/> <path d="M1246.43,1328.34v104.53H1231q-5,0-6.33-4.59l-1.74-8.35a56.46,56.46,0,0,1-14.19,10.55,39.19,39.19,0,0,1-18.27,4,37.34,37.34,0,0,1-15.16-2.9,30.39,30.39,0,0,1-11.08-8.21,35.88,35.88,0,0,1-6.79-12.58,53.15,53.15,0,0,1-2.29-16v-66.42h25.21v66.42q0,9.59,4.44,14.83t13.32,5.25a26.68,26.68,0,0,0,12.26-2.91,42.74,42.74,0,0,0,10.82-8v-75.59Z"/> <path d="M1346.37,1350.45a12.65,12.65,0,0,1-2.19,2.24,5.1,5.1,0,0,1-3.11.81,6.93,6.93,0,0,1-3.78-1.17q-1.85-1.17-4.39-2.65a33.07,33.07,0,0,0-6.08-2.65,27.91,27.91,0,0,0-8.72-1.17,26.59,26.59,0,0,0-11.64,2.4,22,22,0,0,0-8.32,6.87,31.06,31.06,0,0,0-5,10.85,58.12,58.12,0,0,0-1.64,14.42,56.37,56.37,0,0,0,1.79,14.87,31.75,31.75,0,0,0,5.16,11,22.15,22.15,0,0,0,8.16,6.72,24.78,24.78,0,0,0,10.82,2.29,27,27,0,0,0,9.75-1.47,31.3,31.3,0,0,0,6.28-3.26q2.55-1.79,4.44-3.26a6.68,6.68,0,0,1,4.24-1.48,5.12,5.12,0,0,1,4.59,2.34l7.25,9.17a45.25,45.25,0,0,1-9.09,8.2,48.72,48.72,0,0,1-10.15,5.3,51.4,51.4,0,0,1-10.82,2.8,76.92,76.92,0,0,1-11.08.82,46.5,46.5,0,0,1-18.27-3.62,43.12,43.12,0,0,1-15-10.54,50.44,50.44,0,0,1-10.16-17,65.5,65.5,0,0,1-3.72-22.87,66.45,66.45,0,0,1,3.31-21.35,48.3,48.3,0,0,1,9.75-17,44.76,44.76,0,0,1,15.93-11.26,55.07,55.07,0,0,1,21.84-4.07,52,52,0,0,1,20.58,3.77,50.27,50.27,0,0,1,15.87,10.8Z"/> <path d="M1443,1350.45a12.34,12.34,0,0,1-2.2,2.24,5.08,5.08,0,0,1-3.11.81,7,7,0,0,1-3.78-1.17q-1.83-1.17-4.39-2.65a33,33,0,0,0-6.07-2.65,28,28,0,0,0-8.73-1.17,26.65,26.65,0,0,0-11.64,2.4,22.08,22.08,0,0,0-8.32,6.87,31.06,31.06,0,0,0-5,10.85,58.14,58.14,0,0,0-1.63,14.42,56,56,0,0,0,1.79,14.87,31.74,31.74,0,0,0,5.15,11,22.26,22.26,0,0,0,8.17,6.72,24.75,24.75,0,0,0,10.82,2.29,27,27,0,0,0,9.75-1.47,31.86,31.86,0,0,0,6.28-3.26q2.55-1.79,4.44-3.26a6.67,6.67,0,0,1,4.23-1.48,5.12,5.12,0,0,1,4.6,2.34l7.25,9.17a45.25,45.25,0,0,1-9.09,8.2,48.79,48.79,0,0,1-10.16,5.3,51.09,51.09,0,0,1-10.82,2.8,76.79,76.79,0,0,1-11.07.82,46.59,46.59,0,0,1-18.28-3.62,43.21,43.21,0,0,1-15-10.54,50.43,50.43,0,0,1-10.15-17,65.26,65.26,0,0,1-3.73-22.87,66.45,66.45,0,0,1,3.32-21.35,48.3,48.3,0,0,1,9.75-17,44.8,44.8,0,0,1,15.92-11.26,55.08,55.08,0,0,1,21.85-4.07,51.93,51.93,0,0,1,20.57,3.77,50.19,50.19,0,0,1,15.88,10.8Z"/> <path d="M1483.89,1383.76a49.42,49.42,0,0,0,2.86,13.91,28.31,28.31,0,0,0,5.92,9.68,23.18,23.18,0,0,0,8.73,5.7,31.66,31.66,0,0,0,11.17,1.89,34.74,34.74,0,0,0,10.57-1.43,49,49,0,0,0,7.76-3.16q3.31-1.72,5.82-3.16a9.77,9.77,0,0,1,4.85-1.42,5.21,5.21,0,0,1,4.69,2.34l7.25,9.17a41.81,41.81,0,0,1-9.39,8.2,52.51,52.51,0,0,1-10.87,5.3,59,59,0,0,1-11.54,2.8,83.3,83.3,0,0,1-11.38.82,56.11,56.11,0,0,1-20.32-3.62,45.5,45.5,0,0,1-16.33-10.7,50.07,50.07,0,0,1-10.92-17.52,67.57,67.57,0,0,1-4-24.2,57.61,57.61,0,0,1,3.48-20.12,48.31,48.31,0,0,1,10-16.4,46.86,46.86,0,0,1,15.82-11.06,52.35,52.35,0,0,1,21.08-4.07,51.31,51.31,0,0,1,18.28,3.16,39.71,39.71,0,0,1,14.39,9.22,42.81,42.81,0,0,1,9.45,14.87,55.54,55.54,0,0,1,3.41,20.12c0,3.81-.4,6.37-1.22,7.69s-2.38,2-4.7,2Zm48.08-15.18a30.2,30.2,0,0,0-1.38-9.22,21.9,21.9,0,0,0-4.13-7.59,19.22,19.22,0,0,0-7-5.14,24,24,0,0,0-9.86-1.89q-10.92,0-17.2,6.22t-8,17.62Z"/> <path d="M1637.43,1348.71a6.7,6.7,0,0,1-2.15,2.3,5.58,5.58,0,0,1-2.86.66,9,9,0,0,1-3.93-1q-2.09-1-4.85-2.29a44.31,44.31,0,0,0-6.27-2.3,30.56,30.56,0,0,0-8.32-1q-7.46,0-11.69,3.16a9.8,9.8,0,0,0-4.24,8.25,7.83,7.83,0,0,0,2.2,5.65,19.8,19.8,0,0,0,5.81,4,57.09,57.09,0,0,0,8.22,3.1q4.59,1.38,9.34,3T1628,1376a32.46,32.46,0,0,1,8.22,5.3,23.32,23.32,0,0,1,8,18.49,35.23,35.23,0,0,1-2.71,13.9,30,30,0,0,1-8,11,37.77,37.77,0,0,1-13.12,7.23,61.54,61.54,0,0,1-28.59,1.63,61.67,61.67,0,0,1-9.9-2.7,54.89,54.89,0,0,1-8.78-4.07,42.53,42.53,0,0,1-7.09-5.1l5.82-9.58a8.14,8.14,0,0,1,2.65-2.64,7.45,7.45,0,0,1,3.88-.92,8.18,8.18,0,0,1,4.44,1.32c1.4.89,3,1.84,4.85,2.86a43.23,43.23,0,0,0,6.48,2.85,28.7,28.7,0,0,0,9.45,1.32,24.3,24.3,0,0,0,7.7-1.07,16.05,16.05,0,0,0,5.31-2.8,10.34,10.34,0,0,0,3.06-4,12,12,0,0,0,1-4.74,8.44,8.44,0,0,0-2.19-6,19.39,19.39,0,0,0-5.82-4.08,56.07,56.07,0,0,0-8.27-3.1q-4.65-1.38-9.49-3a86.41,86.41,0,0,1-9.5-3.82,32.57,32.57,0,0,1-8.27-5.55,25.3,25.3,0,0,1-5.82-8.25,28.84,28.84,0,0,1-2.19-11.82,30.09,30.09,0,0,1,2.55-12.23,28.62,28.62,0,0,1,7.51-10.14,37.47,37.47,0,0,1,12.35-6.93,51.58,51.58,0,0,1,17.1-2.59,52.58,52.58,0,0,1,19.7,3.56,44.52,44.52,0,0,1,14.8,9.38Z"/> <path d="M1727.16,1348.71a6.78,6.78,0,0,1-2.14,2.3,5.6,5.6,0,0,1-2.86.66,9,9,0,0,1-3.93-1c-1.4-.68-3-1.44-4.85-2.29a44.47,44.47,0,0,0-6.28-2.3,30.51,30.51,0,0,0-8.32-1q-7.46,0-11.69,3.16a9.83,9.83,0,0,0-4.24,8.25,7.83,7.83,0,0,0,2.2,5.65,19.72,19.72,0,0,0,5.82,4,56.21,56.21,0,0,0,8.22,3.1q4.59,1.38,9.34,3t9.34,3.72a32.81,32.81,0,0,1,8.22,5.3,24.61,24.61,0,0,1,5.81,7.69,24.27,24.27,0,0,1,2.2,10.8,35.06,35.06,0,0,1-2.71,13.9,30,30,0,0,1-8,11,37.77,37.77,0,0,1-13.12,7.23,61.5,61.5,0,0,1-28.58,1.63,61.11,61.11,0,0,1-9.9-2.7,54.09,54.09,0,0,1-8.78-4.07,42.63,42.63,0,0,1-7.1-5.1l5.82-9.58a8.23,8.23,0,0,1,2.65-2.64,7.5,7.5,0,0,1,3.88-.92,8.16,8.16,0,0,1,4.44,1.32q2.1,1.34,4.85,2.86a42.93,42.93,0,0,0,6.49,2.85,28.64,28.64,0,0,0,9.44,1.32,24.41,24.41,0,0,0,7.71-1.07,16.25,16.25,0,0,0,5.31-2.8,10.54,10.54,0,0,0,3.06-4,12.18,12.18,0,0,0,1-4.74,8.4,8.4,0,0,0-2.2-6,19.27,19.27,0,0,0-5.82-4.08,55.93,55.93,0,0,0-8.26-3.1q-4.65-1.38-9.5-3a86.25,86.25,0,0,1-9.49-3.82,32.22,32.22,0,0,1-8.27-5.55,25,25,0,0,1-5.82-8.25,28.67,28.67,0,0,1-2.2-11.82,29.94,29.94,0,0,1,2.56-12.23,28.72,28.72,0,0,1,7.5-10.14,37.57,37.57,0,0,1,12.35-6.93,51.66,51.66,0,0,1,17.1-2.59,52.54,52.54,0,0,1,19.7,3.56,44.56,44.56,0,0,1,14.81,9.38Z"/> </g> <g id="logo-2" data-name="logo"> <path class="cls-1" d="M1466.64,523.37H401.36C328,523.37,268,583.27,268,656.49v403.75c0,73.22,60,133.13,133.36,133.13H1466.64c73.35,0,133.36-59.91,133.36-133.13V656.49C1600,583.27,1540,523.37,1466.64,523.37Zm90.69,533.46c0,52.14-42.73,94.8-95,94.8H404.59c-52.23,0-95-42.66-95-94.8v-397c0-52.14,42.74-94.8,95-94.8H1462.37c52.23,0,95,42.66,95,94.8Z"/> <path class="cls-1" d="M1425.15,993.9h-1.74c-10.51,0-18.17-5.34-23.61-13.71-6.44-9.9-12.37-20.13-18.3-30.35-6-10.42-12.46-20.63-18.53-31-5.31-9.11-10.94-18-16.2-27.16-7-12-14.29-23.85-21.34-35.83q-8.55-14.52-17.14-29c-.6-1-1.22-2.08-2.56-2.11s-1.72,1.27-2.31,2.26c-4,6.78-8.2,13.45-12.07,20.31-3.13,5.55-6.6,10.88-9.68,16.47-3.52,6.38-7.55,12.48-11.31,18.74-4.95,8.24-9.84,16.52-14.78,24.78-5.94,9.94-11.93,19.87-17.86,29.82-3.86,6.47-7.65,13-11.49,19.46-4.65,7.88-9.14,15.86-14.06,23.57a31.16,31.16,0,0,1-12.3,11c-7.32,3.78-14.86,3.48-22.4,1.8a23.44,23.44,0,0,1-9.72-5.25q-13.34-11.26-10.93-28.48c.71-5,3.22-9.37,5.81-13.67,5.92-9.82,11.74-19.71,17.64-29.54,3.28-5.47,6.79-10.8,9.91-16.35,3.68-6.58,7.64-13,11.49-19.44,5.93-9.95,11.94-19.85,17.86-29.81,4.92-8.26,9.71-16.6,14.64-24.86s10-16.44,14.9-24.7c4-6.66,7.82-13.42,11.81-20.08,5.71-9.54,11.62-19,17.19-28.58a39.86,39.86,0,0,1,7.48-9.94c8-7.24,17.34-9.66,27.76-7.19,8.72,2.07,14.88,7.71,19.39,15.29,4.91,8.26,9.87,16.49,14.79,24.75,3.31,5.58,6.55,11.2,9.85,16.78,2.84,4.78,5.72,9.54,8.58,14.31,4.17,7,8.29,13.95,12.52,20.86,5.2,8.49,10.07,17.19,15.34,25.64,5,8,9.54,16.15,14.33,24.21s9.78,16.29,14.64,24.46c5,8.46,10,17,15,25.41q5.79,9.7,11.69,19.34a47.61,47.61,0,0,1,6.08,16.17,6,6,0,0,1,.12,1.73c-1.25,12-5.82,21.75-17.39,27.33A29.29,29.29,0,0,1,1425.15,993.9Z"/> <path class="cls-1" d="M1157.23,852.67a2,2,0,0,0,0,.35c.43,11.32-4.89,19.5-14.18,25.37-10.29,6.49-20.68,12.83-31,19.27q-16.65,10.4-33.27,20.86c-12.36,7.76-24.69,15.57-37.08,23.29-10.71,6.69-21.51,13.25-32.22,19.93s-21.18,13.33-31.77,20c-7.06,4.44-14.09,9-21.19,13.33-9,5.55-18.77,6.95-28.69,3.22a28,28,0,0,1-15.21-13.6,29.08,29.08,0,0,1-3.73-13.23c-.08-11.12,4.39-20.27,14-26.44s19-12,28.52-18c8-5,16-9.76,24-14.73,7.57-4.72,15-9.6,22.61-14.34,7.85-4.92,15.76-9.75,23.63-14.65,6.29-3.92,12.55-7.89,18.84-11.82q12-7.44,23.92-14.85a9.92,9.92,0,0,0,1.71-1.17c1.43-1.4,1.25-2.63-.52-3.57-11-5.83-21.65-12.09-32.43-18.21s-21.81-12.24-32.71-18.38c-8.06-4.55-16.08-9.17-24.17-13.68-10.21-5.7-20.5-11.27-30.7-17-7.68-4.3-15.44-8.48-22.84-13.21-6.53-4.17-11.31-10-12.64-17.94-.34-2.06-1.41-4-1.32-6.1.48-11.34,4.76-20.54,14.69-26.79,6.25-3.93,13.08-4.67,20.11-4,4.88.48,9.29,2.81,13.55,5.17,7.29,4,14.51,8.23,21.76,12.35q8.31,4.73,16.63,9.43c5.34,3,10.7,6,16,9,7.07,4,14.13,8,21.2,12,4.24,2.38,8.53,4.68,12.77,7.06,3.92,2.2,7.81,4.49,11.73,6.71,5.35,3,10.72,6,16.06,9,7.36,4.17,14.68,8.42,22,12.56,7.06,4,14.21,7.81,21.27,11.79,9.39,5.3,19,10.22,28,16.17,8,5.28,13,12.86,12.63,23.07C1157.21,851.51,1157.23,852.09,1157.23,852.67Z"/> <path class="cls-1" d="M630.3,1000.11c-6.41.56-12-2.2-17.53-5.26-7.19-4-14.32-8.09-21.49-12.14q-7.87-4.44-15.76-8.86c-4.54-2.54-9.1-5-13.64-7.6q-12.25-6.9-24.49-13.83c-6-3.41-12.07-6.88-18.18-10.19-7-3.79-13.87-7.92-20.81-11.86-5.34-3-10.72-6-16.07-9-7.36-4.16-14.68-8.38-22.05-12.52-5.45-3.06-11-6-16.42-9-6.37-3.58-13-6.81-18.93-11-7.8-5.53-12.82-13-12.54-23.17,0-1,0-2.09,0-3.13.15-10.67,5.25-18.49,14.07-24.09,8.12-5.16,16.29-10.24,24.46-15.32,6.4-4,12.85-7.88,19.25-11.87,7.57-4.73,15.08-9.55,22.65-14.29,9.44-5.9,18.9-11.74,28.35-17.62,6.09-3.79,12.17-7.63,18.26-11.43q12.24-7.64,24.5-15.24l18.26-11.45L601.63,729c3.54-2.21,7.16-4.3,10.59-6.66,9.18-6.32,19.12-7.64,29.49-4a28,28,0,0,1,14.49,12c5.34,8.54,5.91,17.73,2.57,27a27.6,27.6,0,0,1-11.28,13.81c-9,5.87-18.28,11.4-27.41,17.12s-18.2,11.53-27.34,17.25c-7.85,4.92-15.78,9.73-23.64,14.65s-15.62,10-23.48,14.87-16,9.75-24,14.73c-5.6,3.51-11.09,7.19-16.82,10.5a5.62,5.62,0,0,0-1.34,1.09c-1.24,1.4-1.11,2.53.56,3.32,4.62,2.18,8.9,5,13.36,7.45,4.05,2.24,8.14,4.43,12.17,6.71,5.65,3.18,11.25,6.44,16.89,9.63q10.9,6.15,21.84,12.23c5.77,3.22,11.55,6.4,17.3,9.65s11.42,6.57,17.16,9.8c6.86,3.87,13.78,7.64,20.66,11.5,5.35,3,10.72,6,16,9.12,2.18,1.31,4.52,2.3,6.68,3.7,5.4,3.52,9.9,7.88,12.25,13.85,2.12,5.38,3.23,11,2.05,17a31.45,31.45,0,0,1-7.31,15.12A28.59,28.59,0,0,1,630.3,1000.11Z"/> <path class="cls-1" d="M866.25,745.85c3.51,0,4.3.76,4.31,4.68,0,10.33,0,20.66,0,31,0,2,0,4,0,5.92a5.5,5.5,0,0,1-2.14,4.54q-16.71,14.21-33.39,28.46c-4.33,3.69-8.62,7.42-12.93,11.13a10.23,10.23,0,0,0-1,.95c-1.36,1.52-1.13,2.74.78,2.89,3.1.25,5.81,1.55,8.67,2.48,11.94,3.86,22.45,10,30.75,19.49A50.42,50.42,0,0,1,871,874.13a68.73,68.73,0,0,1,3.57,28.07c-.44,6-1.16,12.15-3.31,18A82.44,82.44,0,0,1,863.05,937a64.6,64.6,0,0,1-15.17,16.16,95,95,0,0,1-14.29,8.53,83.26,83.26,0,0,1-20,6.83,85.47,85.47,0,0,1-18.3,2.24c-2.09,0-4.19-.11-6.27,0-8.64.5-17.19-.61-25.68-1.85a106.83,106.83,0,0,1-17.9-4.34,126.39,126.39,0,0,1-21-9,104.53,104.53,0,0,1-16.87-11.63c-3.48-2.9-6.79-6-10-9.2-2.26-2.27-2.3-3.69-.1-5.89Q714.32,912,731.23,895.1c1.89-1.88,3.6-2,5.43-.12a87.79,87.79,0,0,0,19.08,14.49,61.5,61.5,0,0,0,29.16,8.22,39.42,39.42,0,0,0,14.72-2.21c5.35-2,9.74-5.28,12.25-10.66a21.13,21.13,0,0,0,2.18-9.73c-.22-7.91-4.16-13.22-11-16.73-7.74-4-16-5.12-24.61-5.13-7.21,0-14.41,0-21.62,0-3.79,0-4-.09-5.27-3.73-1.66-4.59-2.64-9.38-3.92-14.06-1-3.68-2.39-7.27-3.12-11-.55-2.8-.12-4.79,2.36-6.63,3.16-2.33,5.95-5.17,8.88-7.8,9.06-8.14,18.17-16.24,27.15-24.47,2.48-2.28,5.08-4.41,7.62-6.62.67-.59,1.61-1.18,1-2.29-.43-.85-1.36-.77-2.16-.78-1.28,0-2.56,0-3.84,0H716.1c-5.85,0-6-.17-6-6.09q0-18.63,0-37.26c0-.81,0-1.62,0-2.43.18-3,1.09-3.94,4-4.15C714.86,745.85,841.14,745.85,866.25,745.85Z"/> </g> <g id="stars"> <path id="_2" data-name="+2" d="M1733.75,231a5,5,0,0,0-4.77-3.45h-95l-29.34-90.12a5,5,0,0,0-9.56,0l-29.34,90.12h-95a5,5,0,0,0-3,9.05l76.83,55.71-29.35,90.1a5,5,0,0,0,7.73,5.6l76.82-55.69L1676.72,388a5,5,0,0,0,5.91,0,5,5,0,0,0,1.81-5.6l-29.34-90.1,76.82-55.71A5,5,0,0,0,1733.75,231Z"/> <path id="_1" data-name="+1" d="M1400.81,231a5,5,0,0,0-4.78-3.45h-95l-29.35-90.12a5,5,0,0,0-9.55,0l-29.35,90.12h-95a5,5,0,0,0-4.78,3.45,5,5,0,0,0,1.84,5.6l76.82,55.71-29.34,90.1a5,5,0,0,0,7.72,5.6L1267,332.34,1343.77,388a5,5,0,0,0,7.72-5.6l-29.34-90.1L1399,236.62A5,5,0,0,0,1400.81,231Z"/> <path id="_0" data-name="0" d="M1067.86,231a5,5,0,0,0-4.78-3.45h-95l-29.34-90.12a5,5,0,0,0-9.56,0l-29.34,90.12h-95a5,5,0,0,0-4.78,3.45,5,5,0,0,0,1.83,5.6l76.82,55.71-29.34,90.1a5,5,0,0,0,7.73,5.6L934,332.34,1010.82,388a5,5,0,0,0,7.73-5.6l-29.34-90.1L1066,236.62A5,5,0,0,0,1067.86,231Z"/> <path id="_-1" data-name="-1" d="M734.92,231a5,5,0,0,0-4.78-3.45h-95l-29.35-90.12a5,5,0,0,0-9.55,0l-29.35,90.12H472a5,5,0,0,0-3,9.05l76.83,55.71-29.34,90.1a5,5,0,0,0,7.72,5.6l76.82-55.69L677.88,388a5,5,0,0,0,5.91,0,5,5,0,0,0,1.81-5.6l-29.34-90.1,76.82-55.71A5,5,0,0,0,734.92,231Z"/> <path id="_-2" data-name="-2" d="M402,231a5,5,0,0,0-4.78-3.45h-95l-29.34-90.12a5,5,0,0,0-9.56,0L234,227.57H139a5,5,0,0,0-2.94,9.05l76.82,55.71-29.34,90.1a5,5,0,0,0,7.72,5.6l76.83-55.69L344.93,388a5,5,0,0,0,7.73-5.6l-29.35-90.1,76.83-55.71A5,5,0,0,0,402,231Z"/> </g> </g> </g> </svg>