<?xml version="1.0" encoding="utf-8"?>
<!-- Generator: Adobe Illustrator 23.0.3, SVG Export Plug-In . SVG Version: 6.00 Build 0)  -->
<svg version="1.1" id="_02_SVG" xmlns="http://www.w3.org/2000/svg" xmlns:xlink="http://www.w3.org/1999/xlink" x="0px" y="0px"
	 viewBox="0 0 473.2 136.8" style="enable-background:new 0 0 473.2 136.8;" xml:space="preserve">
<style type="text/css">
	.st0{fill-rule:evenodd;clip-rule:evenodd;}
	.st1{fill-rule:evenodd;clip-rule:evenodd;fill:url(#Фигура_1_копия_1_);}
	.st2{fill-rule:evenodd;clip-rule:evenodd;fill:url(#Фигура_1_копия_2_1_);}
</style>
<path id="Фигура_1" class="st0" d="M464.7,133.5l-3.6,0.1l-7.1,0.3l-7.1,0.3l-7.1,0.2l-14.3,0.4l-14.3,0.4
	c-19.1,0.5-38.1,0.8-57.2,1c-9.5,0.1-19.1,0.2-28.6,0.3l-14.3,0.1l-14.3,0.1c-9.5,0-19.1,0.1-28.6,0.1l-14.3,0l-14.3,0
	c-38.1-0.1-76.2-0.4-114.3-1c-19.1-0.3-38.1-0.7-57.2-1.1c-19.1-0.5-38.1-1-57.2-1.8c19.1-0.7,38.1-1.2,57.2-1.7s38.1-0.8,57.2-1
	c37.8-0.5,75.6-0.8,113.4-0.7V69.9l-32.8-55.4h14.3l25.3,43.9l25.3-43.9h14.3l-32.6,55.4v59.5h1.4l14.3,0c9.5,0,19.1,0.1,28.6,0.1
	l14.3,0.1l14.3,0.1c9.5,0.1,19.1,0.2,28.6,0.4c19.1,0.3,38.1,0.7,57.2,1.2l14.3,0.4l14.3,0.5l7.1,0.2l7.1,0.3l7.1,0.3l3.6,0.1
	l3.6,0.2L464.7,133.5z M202.1,84.1c3,2.9,4.6,6.8,4.6,11.8c0,5.7-2.7,10.3-8.1,13.8c-5.4,3.4-12.4,5.1-21.1,5.1h-23.9V49.4
	c10.2-0.4,17.5-0.6,22-0.6c8.3,0,14.7,1.4,19.2,4.2c4.3,2.4,6.9,7,6.8,11.9c0,3-1.5,5.8-4.4,8.3c-2.7,2.4-6,4-9.6,4.7
	C194.2,79.2,199.1,81.3,202.1,84.1z M190.1,65.3c0-6-5-9.1-14.9-9.1c-3.8,0-7.2,0.1-10.2,0.3v18.8c2.4,0.2,5.4,0.3,8.9,0.3
	C184.7,75.6,190.1,72.2,190.1,65.3z M174.2,82l-9.2,0.2v25c3.9,0.3,6.9,0.4,9,0.4c7.2,0,12.4-1,15.7-3.1c3.3-2.1,4.9-5.4,4.9-10
	c0-4.3-1.6-7.4-4.7-9.4C186.8,83.1,181.5,82,174.2,82z M113.5,116c-8.7,0-15.5-3-20.4-9s-7.3-14.1-7.3-24.3c0-9.9,2.5-17.8,7.6-23.9
	s11.8-9.1,20.1-9.1c8.8,0,15.6,2.9,20.4,8.7s7.3,13.9,7.3,24.2c0,10.3-2.5,18.4-7.4,24.4S122,116,113.5,116z M113.5,59
	c-4.8-0.1-9.3,2.3-11.9,6.3c-3,4.2-4.4,10-4.4,17.4c0,16,5.4,24,16.3,24c4.8,0.1,9.4-2.3,11.9-6.4c2.9-4.3,4.3-10.2,4.3-17.6
	C129.7,66.9,124.3,59,113.5,59z M60.6,72.6l-18.3,43.1h-2.9L20.6,72.6l-9.7,42.2H0L15.7,49h5.2l20,48l18.4-48h5.2l17,65.8H70.6
	L60.6,72.6z"/>
<linearGradient id="Фигура_1_копия_1_" gradientUnits="userSpaceOnUse" x1="248.02" y1="89.384" x2="248.02" y2="136.596" gradientTransform="matrix(1 0 0 -1 -2.563 136.609)">
	<stop  offset="0" style="stop-color:#D26002"/>
	<stop  offset="1" style="stop-color:#F9AE00"/>
</linearGradient>
<path id="Фигура_1_копия" class="st1" d="M268.1,8h-45.3l-4.6-8h54.6L268.1,8L268.1,8L268.1,8z M235.7,30.3h19.6l-9.8,17
	L235.7,30.3L235.7,30.3z M259.5,22.9h-28.1l-4.4-7.6h36.8L259.5,22.9z"/>
<linearGradient id="Фигура_1_копия_2_1_" gradientUnits="userSpaceOnUse" x1="380.1276" y1="20.5673" x2="380.1276" y2="105.157" gradientTransform="matrix(1 0 0 -1 -2.563 136.609)">
	<stop  offset="0" style="stop-color:#ED6C02"/>
	<stop  offset="1" style="stop-color:#F4AB00"/>
</linearGradient>
<path id="Фигура_1_копия_2" class="st2" d="M445.4,48.4c-7.5,0-14,2.9-19.5,8.7c-6.1,6.5-9.2,15.1-9.2,25.9
	c0,10.3,3,18.6,9,24.7c5.1,5.4,12.2,8.5,19.6,8.3c5,0.1,9.9-0.8,14.5-2.6c2.9-0.9,5.5-2.5,7.7-4.6l-4.6-8.3c-4.2,3.9-9.8,6-15.6,5.8
	c-5,0.2-9.9-1.8-13.4-5.4c-3.9-4.1-5.9-10-5.9-17.6h44.2c0.6-2.3,0.9-4.7,0.9-7.1c0-8.3-2.4-15-7.2-20
	C461,51.1,454.1,48.4,445.4,48.4L445.4,48.4L445.4,48.4z M310.9,106.9c-3.9,0-6.6-1.1-8.4-3.2s-2.6-5.8-2.6-10.8v-30h16.8v-8.5
	h-16.8V37.6l-10.9,4.1v12.7H282v8.5h7.1v34.3c-0.2,5,1.6,9.8,5,13.5c3.1,3.5,7.6,5.4,12.3,5.3c5,0,10-0.5,14.8-1.7l-1.6-9.4
	C316.9,106.1,313.9,106.9,310.9,106.9L310.9,106.9L310.9,106.9z M342.9,31.5c-1.8,0-3.5,0.7-4.8,1.9c-2.6,2.6-2.6,6.8,0,9.4
	c0,0,0,0,0,0c1.2,1.3,2.9,2,4.7,1.9c1.8,0,3.5-0.7,4.8-1.9c1.3-1.2,2-2.9,2-4.7c0-1.8-0.7-3.4-2-4.7
	C346.4,32.1,344.7,31.4,342.9,31.5L342.9,31.5L342.9,31.5z M347.8,114.8V54.3h-19.3v9h8.4v51.5L347.8,114.8L347.8,114.8z
	 M410.3,57.4v-3h-50.1v9.6h34.3L359.6,112v2.8h51v-9.6h-34L410.3,57.4L410.3,57.4L410.3,57.4z M428.4,75L428.4,75
	c0.3-4.4,2.2-8.6,5.3-11.8c3.2-3.3,7.6-5.1,12.2-5c5.2,0,9.3,1.7,12.3,5.1c2.8,3.2,4.3,7.4,4.1,11.7H428.4z"/>
</svg>
