<svg enable-background="new 0 0 473.2 136.8" viewBox="0 0 473.2 136.8" xmlns="http://www.w3.org/2000/svg" xmlns:xlink="http://www.w3.org/1999/xlink"><linearGradient id="a" gradientTransform="matrix(1 0 0 -1 -2.563 136.609)" gradientUnits="userSpaceOnUse" x1="248.02" x2="248.02" y1="89.384" y2="136.596"><stop offset="0" stop-color="#d26002"/><stop offset="1" stop-color="#f9ae00"/></linearGradient><linearGradient id="b" gradientTransform="matrix(1 0 0 -1 -2.563 136.609)" gradientUnits="userSpaceOnUse" x1="380.1276" x2="380.1276" y1="20.5673" y2="105.157"><stop offset="0" stop-color="#ed6c02"/><stop offset="1" stop-color="#f4ab00"/></linearGradient><g clip-rule="evenodd" fill-rule="evenodd"><path d="m464.7 133.5-3.6.1-7.1.3-7.1.3-7.1.2-14.3.4-14.3.4c-19.1.5-38.1.8-57.2 1-9.5.1-19.1.2-28.6.3l-14.3.1-14.3.1c-9.5 0-19.1.1-28.6.1h-14.3-14.3c-38.1-.1-76.2-.4-114.3-1-19.1-.3-38.1-.7-57.2-1.1-19.1-.5-38.1-1-57.2-1.8 19.1-.7 38.1-1.2 57.2-1.7s38.1-.8 57.2-1c37.8-.5 75.6-.8 113.4-.7v-59.6l-32.8-55.4h14.3l25.3 43.9 25.3-43.9h14.3l-32.6 55.4v59.5h1.4 14.3c9.5 0 19.1.1 28.6.1l14.3.1 14.3.1c9.5.1 19.1.2 28.6.4 19.1.3 38.1.7 57.2 1.2l14.3.4 14.3.5 7.1.2 7.1.3 7.1.3 3.6.1 3.6.2zm-262.6-49.4c3 2.9 4.6 6.8 4.6 11.8 0 5.7-2.7 10.3-8.1 13.8-5.4 3.4-12.4 5.1-21.1 5.1h-23.9v-65.4c10.2-.4 17.5-.6 22-.6 8.3 0 14.7 1.4 19.2 4.2 4.3 2.4 6.9 7 6.8 11.9 0 3-1.5 5.8-4.4 8.3-2.7 2.4-6 4-9.6 4.7 6.6 1.3 11.5 3.4 14.5 6.2zm-12-18.8c0-6-5-9.1-14.9-9.1-3.8 0-7.2.1-10.2.3v18.8c2.4.2 5.4.3 8.9.3 10.8 0 16.2-3.4 16.2-10.3zm-15.9 16.7-9.2.2v25c3.9.3 6.9.4 9 .4 7.2 0 12.4-1 15.7-3.1s4.9-5.4 4.9-10c0-4.3-1.6-7.4-4.7-9.4s-8.4-3.1-15.7-3.1zm-60.7 34c-8.7 0-15.5-3-20.4-9s-7.3-14.1-7.3-24.3c0-9.9 2.5-17.8 7.6-23.9s11.8-9.1 20.1-9.1c8.8 0 15.6 2.9 20.4 8.7s7.3 13.9 7.3 24.2-2.5 18.4-7.4 24.4-11.8 9-20.3 9zm0-57c-4.8-.1-9.3 2.3-11.9 6.3-3 4.2-4.4 10-4.4 17.4 0 16 5.4 24 16.3 24 4.8.1 9.4-2.3 11.9-6.4 2.9-4.3 4.3-10.2 4.3-17.6 0-15.8-5.4-23.7-16.2-23.7zm-52.9 13.6-18.3 43.1h-2.9l-18.8-43.1-9.7 42.2h-10.9l15.7-65.8h5.2l20 48 18.4-48h5.2l17 65.8h-10.9z"/><path d="m268.1 8h-45.3l-4.6-8h54.6zm-32.4 22.3h19.6l-9.8 17zm23.8-7.4h-28.1l-4.4-7.6h36.8z" fill="url(#a)"/><path d="m445.4 48.4c-7.5 0-14 2.9-19.5 8.7-6.1 6.5-9.2 15.1-9.2 25.9 0 10.3 3 18.6 9 24.7 5.1 5.4 12.2 8.5 19.6 8.3 5 .1 9.9-.8 14.5-2.6 2.9-.9 5.5-2.5 7.7-4.6l-4.6-8.3c-4.2 3.9-9.8 6-15.6 5.8-5 .2-9.9-1.8-13.4-5.4-3.9-4.1-5.9-10-5.9-17.6h44.2c.6-2.3.9-4.7.9-7.1 0-8.3-2.4-15-7.2-20-4.9-5.1-11.8-7.8-20.5-7.8zm-134.5 58.5c-3.9 0-6.6-1.1-8.4-3.2s-2.6-5.8-2.6-10.8v-30h16.8v-8.5h-16.8v-16.8l-10.9 4.1v12.7h-7v8.5h7.1v34.3c-.2 5 1.6 9.8 5 13.5 3.1 3.5 7.6 5.4 12.3 5.3 5 0 10-.5 14.8-1.7l-1.6-9.4c-2.7 1.2-5.7 2-8.7 2zm32-75.4c-1.8 0-3.5.7-4.8 1.9-2.6 2.6-2.6 6.8 0 9.4 1.2 1.3 2.9 2 4.7 1.9 1.8 0 3.5-.7 4.8-1.9s2-2.9 2-4.7-.7-3.4-2-4.7c-1.2-1.3-2.9-2-4.7-1.9zm4.9 83.3v-60.5h-19.3v9h8.4v51.5zm62.5-57.4v-3h-50.1v9.6h34.3l-34.9 48v2.8h51v-9.6h-34zm18.1 17.6c.3-4.4 2.2-8.6 5.3-11.8 3.2-3.3 7.6-5.1 12.2-5 5.2 0 9.3 1.7 12.3 5.1 2.8 3.2 4.3 7.4 4.1 11.7z" fill="url(#b)"/></g></svg>
