<svg version="1.1" id="Слой_1" xmlns="http://www.w3.org/2000/svg" xmlns:xlink="http://www.w3.org/1999/xlink" x="0px" y="0px" viewBox="0 0 1515 400" style="enable-background:new 0 0 1515 400;" xml:space="preserve"> <style type="text/css"> .st0{fill:#A2DB05;} .st1{fill:#00BC2C;} .st2{fill:#007AFF;} .st3{fill:#E20505;} .st4{opacity:0.1;} .st5{opacity:0.05;} .st6{fill:url(#SVGID_1_);} .st7{fill:url(#SVGID_2_);} .st8{fill:url(#SVGID_3_);} .st9{fill:url(#SVGID_4_);} </style> <path class="st0" d="M32.95,149.9V33.99c0-11.71,9.49-21.2,21.2-21.2h115.91c11.71,0,21.2,9.49,21.2,21.2V149.9 c0,11.71-9.49,21.2-21.2,21.2H54.15C42.44,171.1,32.95,161.61,32.95,149.9z"/> <path class="st1" d="M229.34,364.76v-130.3c0-12.17,9.87-22.04,22.04-22.04h130.3c12.17,0,22.04,9.87,22.04,22.04v130.3 c0,12.17-9.87,22.04-22.04,22.04h-130.3C239.2,386.79,229.34,376.93,229.34,364.76z"/> <g> <circle class="st2" cx="113.56" cy="299.46" r="87.35"/> </g> <path class="st3" d="M227.29,159.43L305.16,22.2c3.77-6.64,12.53-6.64,16.3,0l77.88,137.24c4.01,7.07-0.59,16.26-8.15,16.26H235.44 C227.88,175.69,223.27,166.51,227.29,159.43z"/> <path class="st4" d="M169.99,171.1c11.75,0,21.28-9.53,21.28-21.28V33.91c0-5.58-2.16-10.64-5.68-14.43L39.64,165.43 c3.79,3.51,8.86,5.68,14.43,5.68H169.99z"/> <path class="st5" d="M32.95,149.82c0,11.75,9.53,21.28,21.28,21.28h115.91c5.58,0,10.64-2.16,14.43-5.68L38.63,19.48 c-3.51,3.79-5.68,8.86-5.68,14.43V149.82z"/> <path class="st5" d="M230,365.34c0,11.96,9.7,21.66,21.66,21.66h131.76c5.11,0,9.79-1.81,13.46-4.81c0.17-0.14,0.18-0.41,0.03-0.57 L235.38,220.1c-0.16-0.16-0.42-0.15-0.57,0.03c-3,3.67-4.81,8.35-4.81,13.46V365.34z"/> <path class="st5" d="M382.44,390.99c11.75,0,21.28-9.53,21.28-21.28V237.57c0-5.26-1.92-10.07-5.08-13.78L237,385 c3.71,3.16,7.74,6,13,6L382.44,390.99z"/> <g class="st5"> <path d="M51.63,237.7c-34,34.12-33.96,89.34,0.11,123.41s89.29,34.11,123.41,0.11L51.63,237.7z"/> </g> <g class="st4"> <path d="M51.63,361.52c34.12,34,89.34,33.96,123.41-0.11s34.11-89.29,0.11-123.41L51.63,361.52z"/> </g> <path class="st4" d="M359.3,88.88l-132.62,80.54c1.47,3.58,4.67,6.27,8.76,6.27h155.75c7.56,0,12.16-9.19,8.15-16.26L359.3,88.88z" /> <path class="st4" d="M267.33,88.89l132.62,80.54c-1.47,3.58-4.67,6.27-8.76,6.27H235.44c-7.56,0-12.16-9.19-8.15-16.26L267.33,88.89 z"/> <g> <linearGradient id="SVGID_1_" gradientUnits="userSpaceOnUse" x1="383.0787" y1="82.5369" x2="1480.8866" y2="641.8979"> <stop  offset="0" style="stop-color:#C70000"/> <stop  offset="0.3324" style="stop-color:#CFDB05"/> <stop  offset="0.6927" style="stop-color:#00BC2C"/> <stop  offset="1" style="stop-color:#1877F2"/> </linearGradient> <path class="st6" d="M667.36,68.24h-3.92c-6.85,0-13.17,3.65-16.59,9.59L588.4,179.14L529.96,77.82 c-3.42-5.93-9.75-9.59-16.59-9.59h-3.92c-14.75,0-23.97,15.97-16.59,28.74l74.36,128.69v100.47c0,10.58,8.58,19.16,19.16,19.16 h4.05c10.58,0,19.16-8.58,19.16-19.16V225.67l74.36-128.69C691.32,84.21,682.11,68.24,667.36,68.24z"/> <linearGradient id="SVGID_2_" gradientUnits="userSpaceOnUse" x1="431.6084" y1="-12.708" x2="1529.4163" y2="546.653"> <stop  offset="0" style="stop-color:#C70000"/> <stop  offset="0.3324" style="stop-color:#CFDB05"/> <stop  offset="0.6927" style="stop-color:#00BC2C"/> <stop  offset="1" style="stop-color:#1877F2"/> </linearGradient> <path class="st7" d="M852.16,57.85c-83.08,0-144.14,62.31-144.14,143.72S769.09,345.3,852.16,345.3S996.3,282.99,996.3,201.57 S935.24,57.85,852.16,57.85z M852.16,306.25c-59.4,0-101.77-43.2-101.77-104.68c0-61.47,42.37-104.68,101.77-104.68 s101.77,43.2,101.77,104.68C953.93,263.05,911.56,306.25,852.16,306.25z"/> <linearGradient id="SVGID_3_" gradientUnits="userSpaceOnUse" x1="487.5769" y1="-122.5524" x2="1585.3848" y2="436.8087"> <stop  offset="0" style="stop-color:#C70000"/> <stop  offset="0.3324" style="stop-color:#CFDB05"/> <stop  offset="0.6927" style="stop-color:#00BC2C"/> <stop  offset="1" style="stop-color:#1877F2"/> </linearGradient> <path class="st8" d="M1145.41,174.99l-27.83-11.22c-27-10.8-29.91-25.34-29.91-33.64c0-17.86,13.29-33.23,39.05-33.23 c12.05,0,21.18,2.91,29.91,9.97c1.56,1.35,2.96,2.73,4.22,4.13c6.18,6.85,16.2,8.66,24.16,4l0.8-0.47 c10.25-6,12.63-19.81,4.97-28.89c-2.9-3.44-5.89-6.49-8.82-9.09c-8.72-7.48-25.75-18.69-55.66-18.69c-51.92,0-81,35.72-81,73.11 c0,41.54,33.65,60.65,56.49,70.2l26.58,11.22c18.28,7.48,39.88,19.11,39.88,47.35c0,27.83-19.94,46.52-45.69,46.52 c-16.61,0-28.25-6.65-36.14-16.62c-3.69-4.85-6.87-10.97-8.97-17.82c-2.92-9.52-12.45-15.36-22.18-13.24l-4.27,0.93 c-11.04,2.4-17.55,13.77-14.18,24.55c3.65,11.66,9.79,22.87,19.27,33.41c14.12,15.78,33.23,27.83,65.22,27.83 c51.92,0,89.31-36.14,89.31-88.89C1210.63,224.84,1196.5,195.76,1145.41,174.99z"/> <linearGradient id="SVGID_4_" gradientUnits="userSpaceOnUse" x1="522.9832" y1="-192.041" x2="1620.791" y2="367.32"> <stop  offset="0" style="stop-color:#C70000"/> <stop  offset="0.3324" style="stop-color:#CFDB05"/> <stop  offset="0.6927" style="stop-color:#00BC2C"/> <stop  offset="1" style="stop-color:#1877F2"/> </linearGradient> <path class="st9" d="M1387.18,90.14c-6.69-14.95-27.85-15.15-34.82-0.33l-107.3,228.17c-5.98,12.71,3.3,27.31,17.34,27.31h3.16 c7.52,0,14.34-4.4,17.45-11.25l25.22-55.63h118.38l24.07,55.36c3.04,6.99,9.94,11.52,17.57,11.52h3.57 c13.89,0,23.16-14.31,17.49-26.98L1387.18,90.14z M1325.68,238.54l42.78-93.87l41.12,93.87H1325.68z"/> </g> </svg>
