<?xml version="1.0" encoding="utf-8"?>
<!-- Generator: Adobe Illustrator 17.0.0, SVG Export Plug-In . SVG Version: 6.00 Build 0)  -->
<!DOCTYPE svg PUBLIC "-//W3C//DTD SVG 1.1//EN" "http://www.w3.org/Graphics/SVG/1.1/DTD/svg11.dtd">
<svg version="1.1" id="Layer_1" xmlns="http://www.w3.org/2000/svg" xmlns:xlink="http://www.w3.org/1999/xlink" x="0px" y="0px"
	 width="255.873px" height="341.572px" viewBox="0 0 255.873 341.572" enable-background="new 0 0 255.873 341.572"
	 xml:space="preserve">
<g>
	<g>
		<path fill="#CE4B12" d="M123.064,77.795l-80.882-45.76c-0.007-0.003-0.014-0.006-0.021-0.011
			c-0.737-0.405-1.583-0.636-2.484-0.636c-2.806,0-5.087,2.241-5.155,5.031c-0.002,0.006-0.004,0.009-0.004,0.009l0.001,132.022
			c0,1.84,0.964,3.453,2.414,4.367l80.764,52.934c0.163,0.111,0.33,0.215,0.503,0.307c0.695,0.373,1.485,0.59,2.324,0.607
			c0.038,0.002,0.074,0.004,0.111,0.004c1.739,0,3.277-0.861,4.212-2.178c0.597-0.842,0.946-1.871,0.946-2.98
			c0-0.021-0.001-0.041-0.001-0.061c0-0.006,0.001-0.01,0.001-0.016c0,0,0-2.273,0-3.047V82.346
			C125.794,80.376,124.688,78.664,123.064,77.795z"/>
		<path fill="#CE4B12" d="M154.491,72.876c-0.549,0-1.078,0.087-1.574,0.246c-0.002,0-0.002,0-0.002,0l-13.088,4.165
			c-0.002,0.001-0.004,0.003-0.008,0.005c-2.051,0.645-3.549,2.536-3.607,4.786c0,0.002-0.002,0.005-0.002,0.006v0.064
			c0,0.022-0.002,0.044-0.002,0.067c0,0.022,0.002,0.044,0.002,0.066l-0.002,139.13c0,0.01,0.002,0.02,0.002,0.029
			c0,0.023-0.002,0.047-0.002,0.072c0,2.848,2.311,5.158,5.158,5.158c0.551,0,1.082-0.088,1.578-0.248c0.002,0,0.004,0,0.006,0
			l0.027-0.01c0.146-0.049,0.291-0.104,0.432-0.164l9.217-3.482c5.787-2.127,7.025-2.887,7.025-7.154V78.034
			C159.651,75.186,157.34,72.876,154.491,72.876z"/>
		<path fill="#F5DC03" d="M186.407,62.719c-0.551,0-1.078,0.086-1.576,0.246v0l-13.088,4.164c-0.002,0.002-0.006,0.004-0.008,0.005
			c-2.051,0.645-3.549,2.536-3.607,4.786c-0.002,0.002-0.002,0.004-0.002,0.006v0.063c0,0.022-0.002,0.044-0.002,0.067
			c0,0.021,0.002,0.043,0.002,0.066l-0.006,136.838c0,0.01,0,0.021,0.002,0.031c-0.002,0.023-0.002,0.047-0.002,0.07
			c0,2.848,2.309,5.158,5.158,5.158c0.551,0,1.08-0.086,1.578-0.246c0.002-0.002,0.004-0.002,0.004-0.002l0.027-0.01
			c0.148-0.047,0.293-0.102,0.434-0.162l9.215-3.482c5.789-2.127,7.025-2.887,7.025-7.154l0.004-135.287
			C191.565,65.028,189.256,62.719,186.407,62.719z"/>
		<path fill="#F5DC03" d="M216.137,53.249c-0.549,0-1.078,0.087-1.576,0.246c0-0.001,0-0.001,0-0.001l-13.088,4.166
			c-0.002,0.002-0.006,0.003-0.008,0.005c-2.051,0.644-3.549,2.536-3.607,4.785c0,0.002-0.002,0.004-0.002,0.006v0.064
			c0,0.022-0.002,0.044-0.002,0.066c0,0.022,0.002,0.044,0.002,0.066l0.002,134.756c0,0.01,0.002,0.021,0.002,0.031
			c0,0.023-0.002,0.047-0.002,0.07c0,2.848,2.311,5.158,5.158,5.158c0.551,0,1.08-0.086,1.578-0.248c0.002,0,0.004,0,0.006,0
			l0.027-0.01c0.146-0.049,0.291-0.102,0.432-0.164l9.217-3.48c5.787-2.127,7.023-2.889,7.023-7.154l-0.002-133.204
			C221.297,55.559,218.987,53.249,216.137,53.249z"/>
		<path fill="#CE4B12" d="M158.17,62.193c-0.014-0.008-0.027-0.017-0.039-0.024l-0.033-0.019c-0.004-0.002-0.006-0.003-0.01-0.005
			l-78.661-42.27c-0.058-0.032-0.116-0.063-0.177-0.09c-0.011-0.005-0.021-0.011-0.033-0.015c-0.24-0.102-0.503-0.159-0.781-0.159
			c-1.105,0-2.002,0.896-2.002,2.001c0,0.71,0.372,1.333,0.929,1.688c0.004,0.003,0.007,0.006,0.011,0.009l0.074,0.042
			c0.016,0.008,0.03,0.018,0.046,0.026l77.632,43.931c0.043,0.026,0.088,0.052,0.133,0.077l0.002,0.001l0,0
			c0.42,0.227,0.902,0.355,1.412,0.355c1.645,0,2.979-1.333,2.979-2.977C159.651,63.668,159.055,62.709,158.17,62.193z"/>
		<path fill="#F5DC03" d="M190.086,52.014c-0.014-0.008-0.027-0.016-0.041-0.023l-0.033-0.018c-0.002-0.002-0.006-0.004-0.008-0.005
			l-78.662-42.27c-0.057-0.033-0.116-0.063-0.177-0.091c-0.012-0.005-0.022-0.01-0.032-0.015c-0.24-0.102-0.505-0.159-0.782-0.159
			c-1.106,0-2.001,0.896-2.001,2.002c0,0.71,0.37,1.332,0.929,1.688c0.003,0.002,0.006,0.005,0.011,0.009l0.073,0.042
			c0.016,0.009,0.03,0.019,0.046,0.026l77.63,43.93c0.045,0.027,0.088,0.052,0.133,0.077l0.004,0.001l0,0
			c0.42,0.227,0.9,0.356,1.412,0.356c1.645,0,2.977-1.333,2.977-2.978C191.565,53.489,190.971,52.531,190.086,52.014z"/>
		<path fill="#F5DC03" d="M219.821,42.581c-0.014-0.008-0.027-0.016-0.039-0.024l-0.033-0.019c-0.004-0.001-0.006-0.002-0.01-0.005
			L141.077,0.265c-0.057-0.033-0.115-0.064-0.176-0.09c-0.012-0.005-0.021-0.012-0.033-0.016C140.627,0.057,140.364,0,140.086,0
			c-1.105,0-2.002,0.896-2.002,2.001c0,0.711,0.371,1.332,0.928,1.689c0.004,0.003,0.008,0.005,0.012,0.008l0.074,0.043
			c0.016,0.008,0.029,0.018,0.045,0.026l77.631,43.93c0.045,0.027,0.088,0.053,0.135,0.077l0.002,0.001l0,0
			c0.42,0.227,0.9,0.356,1.412,0.356c1.645,0,2.977-1.333,2.977-2.978C221.299,44.056,220.706,43.098,219.821,42.581z"/>
	</g>
	<g>
		<polygon points="212.282,297.863 252.745,254.389 241.784,254.389 202.989,295.953 202.989,254.389 195.19,254.385 
			195.19,341.572 202.989,341.572 202.989,299.885 244.567,341.572 255.873,341.572 		"/>
		<path d="M128.323,341.572h29.564c6.438,0,13.01-2.459,18.031-6.742c5.377-4.588,8.338-10.627,8.338-17.004
			c0-18.898-15.553-23.15-20.662-24.547c-0.402-0.109-0.748-0.205-1.031-0.291l-0.189-0.049
			c-12.783-2.842-20.543-5.338-20.543-16.01c0-7.58,7.803-14.744,16.057-14.744h20.695l10.096-7.014v-0.785h-30.791
			c-11.672,0-23.746,8.883-23.746,23.746c0,12.049,8.221,19.949,23.152,22.264c0.476,0.156,0.967,0.316,1.469,0.478
			c7.73,2.502,16.494,5.338,16.494,16.951c0,7.84-6.496,15.947-17.369,15.947h-19.383l-10.182,7.07"/>
		<path d="M51.905,266.084c-8.009-7.723-18.367-11.477-31.659-11.477H0v86.855h20.247c27.193,0,43.428-16.234,43.428-43.428
			C63.675,283.228,59.825,272.777,51.905,266.084z M46.764,324.553c-6.047,6.047-14.969,9.113-26.517,9.113H8.749l0.361-71.26
			h11.136c10.995,0,19.99,3.389,26.741,10.074c4.081,5.371,8.89,14.127,8.89,25.555C55.877,309.584,52.811,318.504,46.764,324.553z"
			/>
		<rect x="85.155" y="294.08" width="21.418" height="7.908"/>
		<polygon points="121.812,262.295 121.812,254.605 71.748,254.605 71.748,341.572 120.816,341.572 121.812,341.572 
			121.812,333.885 79.438,333.885 79.438,262.295 		"/>
	</g>
</g>
</svg>
