<?xml version="1.0" encoding="utf-8"?>
<!-- Generator: Adobe Illustrator 17.0.0, SVG Export Plug-In . SVG Version: 6.00 Build 0)  -->
<!DOCTYPE svg PUBLIC "-//W3C//DTD SVG 1.1//EN" "http://www.w3.org/Graphics/SVG/1.1/DTD/svg11.dtd">
<svg version="1.1" id="Слой_1" xmlns="http://www.w3.org/2000/svg" xmlns:xlink="http://www.w3.org/1999/xlink" x="0px" y="0px"
	 width="124.227px" height="18.631px" viewBox="0 0 124.227 18.631" enable-background="new 0 0 124.227 18.631"
	 xml:space="preserve">
<g>
	<path fill="#E04726" d="M10.736,0l10.736,18.194c-18.776,0-2.794,0-21.473,0L10.736,0z"/>
	<path fill="#E04726" d="M34.234,3.352l-6.34,6.315l6.34,6.341c-3.498,3.497-9.157,3.497-12.655,0
		c-3.498-3.499-3.498-9.157,0-12.656C25.077-0.144,30.737-0.144,34.234,3.352z"/>
	<path fill="#E04726" d="M44.298,0l10.735,18.194c-18.775,0-2.793,0-21.472,0L44.298,0z"/>
	<path fill="#E04726" d="M55.021,18.217c0-17.391,0,0.364,0-17.027h8.502c4.687,0,8.502,3.839,8.502,8.526s-3.814,8.501-8.502,8.501
		H55.021z"/>
	<path fill="#E04726" d="M87.264,1.167v5.732h-3.522v0.73h3.522v4.08h-3.522v0.728h3.522v5.734H73.175V1.167H87.264z"/>
	<path fill="#3EA0D7" d="M88.656,0.536l8.502,6.436l8.502-6.436l0.048,17.658H88.705L88.656,0.536z"/>
	<path fill="#3EA0D7" d="M119.466,18.194h-8.502V9.693l-4.762-8.502c13.19,0,4.567,0,18.024,0l-4.761,8.502V18.194z"/>
</g>
</svg>
