<?xml version="1.0" encoding="utf-8"?>
<!-- Generator: Adobe Illustrator 22.0.1, SVG Export Plug-In . SVG Version: 6.00 Build 0)  -->
<svg version="1.1" id="Layer_1" xmlns="http://www.w3.org/2000/svg" xmlns:xlink="http://www.w3.org/1999/xlink" x="0px" y="0px"
	 viewBox="0 0 88.2 73.2" style="enable-background:new 0 0 88.2 73.2;" xml:space="preserve">
<style type="text/css">
	.st0{fill:#F44336;stroke:#F44336;stroke-width:3.25;}
	.st1{fill:#FFFFFF;stroke:#FFFFFF;stroke-width:3.25;}
</style>
<title>alert_fill</title>
<desc>Created with Sketch.</desc>
<g id="Page-1">
	<g id="alert_fill">
		<g id="alert" transform="translate(111.000000, 118.000000)">
			<path id="Path" class="st0" d="M-66.9-116.4c1.8,0,3.3,0.8,4.2,2.3l18.8,30.5L-25-53.2c0.9,1.4,0.9,3.1,0,4.5
				c-0.9,1.4-2.4,2.3-4.2,2.3h-37.6h-37.6c-1.8,0-3.3-0.8-4.2-2.3c-0.9-1.4-0.9-3.1,0-4.5l18.8-30.5l18.8-30.5
				C-70.2-115.5-68.6-116.4-66.9-116.4"/>
			<g id="Group-3" transform="translate(39.230769, 19.090909)">
				<path id="Fill-4" class="st1" d="M-105.3-116.4h-1.6c-1.4,0-2.5,1.3-2.5,2.8l0.8,26.3c0,1.5,1.1,2.7,2.5,2.7
					c1.3,0,2.4-1.2,2.5-2.7l0.8-26.3C-102.8-115.1-103.9-116.4-105.3-116.4"/>
				<path id="Fill-6" class="st1" d="M-106.1-78.2c-1.8,0-3.3,1.4-3.3,3.2s1.5,3.2,3.3,3.2c1.8,0,3.3-1.4,3.3-3.2
					S-104.3-78.2-106.1-78.2"/>
			</g>
		</g>
	</g>
</g>
</svg>
