<svg width="29" height="30" xmlns="http://www.w3.org/2000/svg"><path d="M28.36 12.025c.427.481.64 1.062.64 1.743v2.464c0 .68-.213 1.262-.64 1.743-.427.481-.982.722-1.665.722h-13.87l5.773 5.661c.499.462.748 1.04.748 1.733 0 .693-.25 1.271-.748 1.733l-1.478 1.464a2.442 2.442 0 01-1.773.712c-.683 0-1.28-.237-1.793-.712L.73 16.733A2.332 2.332 0 010 15c0-.668.243-1.252.729-1.752L13.554.732A2.474 2.474 0 0115.347 0c.683 0 1.274.244 1.773.732l1.478 1.425c.499.487.748 1.071.748 1.752 0 .68-.25 1.264-.748 1.752l-5.773 5.642h13.87c.683 0 1.238.24 1.665.722z" fill="#aaa"/></svg>