<svg xmlns="http://www.w3.org/2000/svg" width="97.526" height="106.697" viewBox="0 0 97.526 106.697">
  <g id="Group_2" data-name="Group 2" transform="translate(-191.237 206.019)">
    <g id="Group_114" data-name="Group 114">
      <path id="Path_233" data-name="Path 233" d="M193.74-132.2a19.814,19.814,0,0,1-2.4-7.585,25.365,25.365,0,0,1,.52-7.837,35.4,35.4,0,0,1,2.508-7.342,48.283,48.283,0,0,1,3.805-6.692,62.407,62.407,0,0,1,4.68-6.068,71.566,71.566,0,0,1,5.339-5.467l.7-.646q.35-.327.713-.635l1.444-1.247c.988-.8,1.964-1.616,2.984-2.374,1-.785,2.047-1.507,3.077-2.251,1.057-.705,2.1-1.433,3.181-2.1q3.214-2.045,6.6-3.8t6.9-3.217a76.405,76.405,0,0,1,14.554-4.436,54.454,54.454,0,0,1,15.2-.952,35.2,35.2,0,0,1,7.525,1.446A27.093,27.093,0,0,1,274.667-192a24.617,24.617,0,0,1,3.346,1.936.566.566,0,0,1,.15.787.567.567,0,0,1-.782.154l-.016-.011a23.556,23.556,0,0,0-3.195-1.808,25.935,25.935,0,0,0-3.449-1.3,33.975,33.975,0,0,0-7.278-1.326,53.113,53.113,0,0,0-14.815,1.071,74.851,74.851,0,0,0-14.228,4.484q-3.441,1.463-6.744,3.222t-6.443,3.786c-1.056.661-2.07,1.385-3.1,2.085-1,.738-2.021,1.455-2.993,2.232-.992.752-1.939,1.559-2.9,2.351l-1.4,1.231q-.353.3-.69.627l-.68.637a69.069,69.069,0,0,0-5.149,5.373,60.355,60.355,0,0,0-4.476,5.915,46.36,46.36,0,0,0-3.587,6.445,33.424,33.424,0,0,0-2.3,6.93,23.206,23.206,0,0,0-.415,7.161,17.586,17.586,0,0,0,2.176,6.686l.007.013a1.134,1.134,0,0,1-.419,1.548,1.134,1.134,0,0,1-1.548-.419Z" fill="#161616"/>
      <path id="Path_234" data-name="Path 234" d="M264.985-113.113a19.065,19.065,0,0,1-6.541,2.246,23.393,23.393,0,0,1-6.839-.012,31.9,31.9,0,0,1-6.541-1.7c-.521-.206-1.05-.4-1.564-.617l-1.533-.682-1.5-.749c-.252-.12-.495-.257-.738-.393l-.731-.406a53.652,53.652,0,0,1-5.58-3.643,66.164,66.164,0,0,1-5.114-4.238c-1.619-1.507-3.2-3.057-4.669-4.7l-.56-.61-.541-.626-1.08-1.253-1.042-1.286-.521-.642-.5-.658-1-1.316-.962-1.343-.481-.672c-.159-.225-.309-.456-.464-.684l-.921-1.372c-.305-.459-.59-.93-.886-1.394s-.6-.926-.869-1.4c-.556-.95-1.131-1.889-1.648-2.861a87.173,87.173,0,0,1-5.518-11.986l-.551-1.557-.273-.779-.25-.787-.5-1.575-.448-1.59c-.313-1.055-.546-2.133-.812-3.2-.128-.535-.226-1.078-.34-1.617s-.229-1.078-.311-1.623l-.271-1.631c-.086-.544-.143-1.093-.216-1.639l-.1-.82c-.033-.274-.05-.549-.076-.824l-.142-1.648a55.623,55.623,0,0,1-.006-6.622.568.568,0,0,1,.6-.531.567.567,0,0,1,.531.594v.009a54.269,54.269,0,0,0,.076,6.465l.156,1.612c.029.268.048.537.084.8l.111.8c.077.535.139,1.071.229,1.6l.283,1.6c.086.533.21,1.06.322,1.588s.219,1.059.351,1.583c.272,1.046.512,2.1.831,3.135l.456,1.556.507,1.541.253.771.277.763.558,1.523a85.735,85.735,0,0,0,5.551,11.721c.518.95,1.093,1.867,1.649,2.794.274.467.579.914.868,1.37s.581.912.885,1.36l.919,1.336c.154.222.3.447.462.666l.478.654.959,1.307.995,1.278.5.639.517.624,1.033,1.247,1.07,1.215.536.606.553.59c1.456,1.593,3.012,3.088,4.6,4.537a64.164,64.164,0,0,0,5.008,4.061,51.731,51.731,0,0,0,5.415,3.452l.7.382c.234.128.469.256.71.369l1.438.7,1.465.633c.49.2.992.378,1.487.568a29.741,29.741,0,0,0,6.124,1.521,21.171,21.171,0,0,0,6.2-.051,16.785,16.785,0,0,0,5.753-2.04h0a1.134,1.134,0,0,1,1.55.409,1.133,1.133,0,0,1-.409,1.55Z" fill="#161616"/>
      <circle id="Ellipse_55" data-name="Ellipse 55" cx="5.669" cy="5.669" r="5.669" transform="translate(277.424 -189.461)" fill="#4f3160"/>
      <path id="Path_235" data-name="Path 235" d="M218.1-121.056h-.017c-11.551,0-20.2-3.962-24.345-11.147a1.134,1.134,0,0,1,.415-1.549,1.133,1.133,0,0,1,1.548.415c3.727,6.454,11.676,10.01,22.383,10.013h.016c10.93,0,23.35-3.7,34.978-10.409,20.748-11.979,33.745-30.705,30.9-44.527a1.134,1.134,0,0,1,.883-1.339,1.132,1.132,0,0,1,1.338.883c1.47,7.152-.923,15.8-6.739,24.338s-14.775,16.56-25.253,22.609C242.248-124.86,229.423-121.056,218.1-121.056Z" fill="#161616"/>
      <circle id="Ellipse_56" data-name="Ellipse 56" cx="5.669" cy="5.669" r="5.669" transform="translate(198.489 -195.5)" fill="#4f3160"/>
      <path id="Path_236" data-name="Path 236" d="M264.419-112.961a1.133,1.133,0,0,1-.983-.567,1.134,1.134,0,0,1,.415-1.549c6.454-3.726,10.01-11.675,10.014-22.382,0-10.934-3.694-23.362-10.41-34.994s-15.63-21.048-25.1-26.512c-9.274-5.351-17.937-6.246-24.39-2.52a17.538,17.538,0,0,0-6.619,6.969,1.134,1.134,0,0,1-1.539.452,1.134,1.134,0,0,1-.452-1.538,19.787,19.787,0,0,1,7.476-7.847c7.185-4.148,16.652-3.253,26.658,2.52,9.81,5.659,19.019,15.37,25.931,27.342s10.717,24.8,10.713,36.128c0,11.552-3.962,20.2-11.147,24.346A1.127,1.127,0,0,1,264.419-112.961Z" fill="#161616"/>
    </g>
    <ellipse id="Ellipse_57" data-name="Ellipse 57" cx="23.81" cy="2.268" rx="23.81" ry="2.268" transform="translate(215.098 -103.858)" fill="#161616"/>
    <g id="Group_120" data-name="Group 120">
      <g id="Group_115" data-name="Group 115">
        <path id="Path_237" data-name="Path 237" d="M216.8-165.271,198.995-173.9a.454.454,0,0,1-.21-.606.454.454,0,0,1,.606-.21l.009,0,17.606,9.04a.227.227,0,0,1,.1.3A.225.225,0,0,1,216.8-165.271Z" fill="#161616"/>
        <path id="Path_238" data-name="Path 238" d="M199.2-174.933a.447.447,0,0,1-.16-.029.453.453,0,0,1-.264-.585l1.489-3.941a.453.453,0,0,1,.585-.264.454.454,0,0,1,.264.584l-1.49,3.942A.452.452,0,0,1,199.2-174.933Z" fill="#161616"/>
        <path id="Path_239" data-name="Path 239" d="M199.846-175.906l-.892,2.2-4.213,1.47v-5.466Z" fill="#161616"/>
        <path id="Path_240" data-name="Path 240" d="M194.741-171.786a.457.457,0,0,1-.263-.084.453.453,0,0,1-.191-.37v-5.465a.456.456,0,0,1,.192-.371.452.452,0,0,1,.412-.057l5.106,1.8a.453.453,0,0,1,.263.241.456.456,0,0,1,.007.357l-.893,2.2a.455.455,0,0,1-.271.257l-4.213,1.471A.48.48,0,0,1,194.741-171.786Zm.453-5.279v4.187l3.417-1.193.636-1.566Z" fill="#161616"/>
      </g>
      <circle id="Ellipse_58" data-name="Ellipse 58" cx="24.944" cy="24.944" r="24.944" transform="translate(213.964 -183.225)" fill="#4f3160"/>
      <path id="Path_241" data-name="Path 241" d="M238.907-132.2a26.107,26.107,0,0,1-26.077-26.078,26.106,26.106,0,0,1,26.077-26.077,26.107,26.107,0,0,1,26.078,26.077A26.107,26.107,0,0,1,238.907-132.2Zm0-49.888a23.837,23.837,0,0,0-23.81,23.81,23.837,23.837,0,0,0,23.81,23.81,23.837,23.837,0,0,0,23.81-23.81A23.837,23.837,0,0,0,238.907-182.091Z" fill="#161616"/>
      <path id="Path_242" data-name="Path 242" d="M238.908-135.888a22.467,22.467,0,0,1-8.612-1.6,22.6,22.6,0,0,1-7.373-4.8,22.7,22.7,0,0,1-5-7.292,22.777,22.777,0,0,1-1.833-8.693,22.9,22.9,0,0,1,1.636-8.774,23.051,23.051,0,0,1,4.9-7.511,23.132,23.132,0,0,1,7.43-5.092,23.216,23.216,0,0,1,8.856-1.866h0a1.7,1.7,0,0,1,1.72,1.681,1.7,1.7,0,0,1-1.68,1.721h-.042a19.911,19.911,0,0,0-7.634,1.409,20.036,20.036,0,0,0-6.547,4.252A20.168,20.168,0,0,0,220.279-166a20.216,20.216,0,0,0-1.638,7.715,20.331,20.331,0,0,0,1.442,7.8,20.462,20.462,0,0,0,4.343,6.684,20.581,20.581,0,0,0,6.6,4.54,20.641,20.641,0,0,0,7.879,1.671h0a.851.851,0,0,1,.839.862A.851.851,0,0,1,238.908-135.888Z" fill="#fff"/>
      <g id="Group_118" data-name="Group 118">
        <ellipse id="Ellipse_59" data-name="Ellipse 59" cx="2.268" cy="5.102" rx="2.268" ry="5.102" transform="translate(227.189 -166.825)" fill="#161616"/>
        <ellipse id="Ellipse_60" data-name="Ellipse 60" cx="2.268" cy="5.102" rx="2.268" ry="5.102" transform="translate(238.528 -166.825)" fill="#161616"/>
        <g id="Group_117" data-name="Group 117">
          <path id="Path_243" data-name="Path 243" d="M229.6-151.427a5.347,5.347,0,0,0,.98.429,11.041,11.041,0,0,0,1.109.283,19.105,19.105,0,0,0,2.321.311,29.1,29.1,0,0,0,4.723-.039,23.181,23.181,0,0,0,4.583-.833,11.235,11.235,0,0,0,2.062-.826,4.691,4.691,0,0,0,1.513-1.2l.01-.013a1.134,1.134,0,0,1,1.59-.218,1.135,1.135,0,0,1,.218,1.589c-.015.019-.031.04-.047.057a6.813,6.813,0,0,1-2.341,1.69,13.216,13.216,0,0,1-2.49.837,25.011,25.011,0,0,1-5,.615,30.727,30.727,0,0,1-4.972-.25,20.344,20.344,0,0,1-2.465-.479,7.984,7.984,0,0,1-2.424-1.01.566.566,0,0,1-.158-.786.566.566,0,0,1,.761-.173Z" fill="#161616"/>
          <path id="Path_244" data-name="Path 244" d="M234.2-149.265l-.307,3.248,1.646,2.122s6.188-.542,6.232-.608,5.662-6.43,5.662-6.43l-3.709.077-4.279.889-4.279.132Z" fill="#161616"/>
          <g id="Group_116" data-name="Group 116">
            <path id="Path_245" data-name="Path 245" d="M239.586-148.078a3.9,3.9,0,0,0-.5.3,4.944,4.944,0,0,0-.579.478,4.149,4.149,0,0,0-.9,1.222v0a.137.137,0,0,1-.182.065.137.137,0,0,1-.074-.156,4.566,4.566,0,0,1,.7-1.515c.071-.1.147-.2.225-.3-.738-.278-3.966.037-3.966,1.266l.366,1.617s1.88.885,1.88.931,3.613,0,3.613,0l2.371-1.217C242.95-146.931,241.349-148.252,239.586-148.078Z" fill="#d76b6f"/>
          </g>
          <path id="Path_246" data-name="Path 246" d="M237.152-142.441a5.01,5.01,0,0,1-3.422-1.146c-1.026-.919-2-2.784-.826-6.452.191-.6.477.122,1.074.313s1.277-.217,1.086.379c-.629,1.959-.565,3.4.179,4.071.951.851,3.157.723,5.49-.319,2.845-1.272,5.907-4,5.907-7a1.134,1.134,0,0,1,1.134-1.134,1.134,1.134,0,0,1,1.134,1.134c0,4.027-3.642,7.457-7.25,9.069A11.261,11.261,0,0,1,237.152-142.441Z" fill="#161616"/>
          <path id="Path_247" data-name="Path 247" d="M247.3-155.462c.232.382.4.757.62,1.055a2.612,2.612,0,0,0,.657.694,1.8,1.8,0,0,0,.763.285,4.143,4.143,0,0,0,1.064-.028l.059-.007a.418.418,0,0,1,.467.363.424.424,0,0,1-.079.3,2.2,2.2,0,0,1-1.442.831,2.379,2.379,0,0,1-1.756-.463,2.874,2.874,0,0,1-.979-1.389c-.04-.127-.079-.253-.108-.379s-.041-.253-.054-.38a2.051,2.051,0,0,1-.015-.375c0-.124.007-.248.021-.371a.412.412,0,0,1,.455-.364.407.407,0,0,1,.306.194Z" fill="#161616"/>
          <path id="Path_248" data-name="Path 248" d="M234.951-141.625a2.46,2.46,0,0,0,1,.345,5.86,5.86,0,0,0,1.113.044,10.3,10.3,0,0,0,1.136-.123,4.884,4.884,0,0,0,1.01-.254l.117-.047a.273.273,0,0,1,.355.153.276.276,0,0,1-.005.215,1.552,1.552,0,0,1-.551.607c-.1.069-.209.129-.318.189s-.218.1-.33.142a4.119,4.119,0,0,1-1.379.246,3.94,3.94,0,0,1-1.411-.223,2.145,2.145,0,0,1-1.168-.927.289.289,0,0,1,.118-.392.29.29,0,0,1,.291.01Z" fill="#161616"/>
        </g>
      </g>
      <g id="Group_119" data-name="Group 119">
        <path id="Path_249" data-name="Path 249" d="M260-165.942l11.321,13.055a.448.448,0,0,1-.029.616l0,0-9.3,8.874a.455.455,0,0,1-.642-.015.453.453,0,0,1,.016-.641l9.3-8.875-.033.621L259.653-165.65a.226.226,0,0,1,.031-.319A.226.226,0,0,1,260-165.942Z" fill="#161616"/>
        <path id="Path_250" data-name="Path 250" d="M261.669-143.72l2.826,4.535,4.477-.549-4.5-3.884Z" fill="#161616"/>
        <path id="Path_251" data-name="Path 251" d="M264.495-138.732a.454.454,0,0,1-.385-.213l-2.826-4.535a.455.455,0,0,1-.008-.468.454.454,0,0,1,.409-.226l2.8.1a.455.455,0,0,1,.279.11l4.5,3.884a.451.451,0,0,1,.137.475.453.453,0,0,1-.378.319l-4.477.548A.507.507,0,0,1,264.495-138.732Zm-1.99-4.5,2.222,3.566,3.173-.389-3.6-3.111Z" fill="#161616"/>
      </g>
    </g>
  </g>
</svg>
