<svg xmlns="http://www.w3.org/2000/svg" width="100" height="100" viewBox="0 0 100 100">
  <g id="Group_125" data-name="Group 125" transform="translate(-884.194 -283.717)">
    <rect id="Rectangle_66" data-name="Rectangle 66" width="90" height="90" rx="45" transform="translate(889.194 288.717)" fill="#161616"/>
    <g id="Group_121" data-name="Group 121">
      <rect id="Rectangle_67" data-name="Rectangle 67" width="67.5" height="67.5" rx="33.75" transform="translate(900.444 299.967)" fill="#161616"/>
      <path id="Path_227" data-name="Path 227" d="M934.194,299.967a33.75,33.75,0,0,1,33.75,33.75h0a33.75,33.75,0,0,1-33.75,33.75h0a33.75,33.75,0,0,1-33.75-33.75h0a33.75,33.75,0,0,1,33.75-33.75h0m0-2a35.75,35.75,0,1,0,35.75,35.75,35.79,35.79,0,0,0-35.75-35.75Z" fill="#fff"/>
    </g>
    <g id="Group_124" data-name="Group 124">
      <g id="Group_122" data-name="Group 122">
        <path id="Path_228" data-name="Path 228" d="M916.435,351.824a9.9,9.9,0,0,1-2.076-3.383,12.672,12.672,0,0,1-.694-3.858,17.641,17.641,0,0,1,.328-3.858,24.2,24.2,0,0,1,1.034-3.7,31.1,31.1,0,0,1,1.534-3.5,35.453,35.453,0,0,1,1.925-3.292l.262-.4c.087-.134.176-.265.269-.394l.549-.778c.381-.507.755-1.02,1.158-1.51s.809-.977,1.218-1.461c.426-.469.843-.947,1.287-1.4q1.309-1.377,2.737-2.634t2.953-2.391a38.086,38.086,0,0,1,6.511-3.9,27.176,27.176,0,0,1,7.244-2.3,17.536,17.536,0,0,1,3.818-.208,13.619,13.619,0,0,1,1.907.241,12.376,12.376,0,0,1,1.854.534.282.282,0,0,1-.192.531l-.009,0a11.661,11.661,0,0,0-1.766-.489,12.991,12.991,0,0,0-1.826-.214,16.99,16.99,0,0,0-3.684.236A26.535,26.535,0,0,0,935.732,316a37.391,37.391,0,0,0-6.348,3.889q-1.489,1.123-2.876,2.375t-2.663,2.611c-.432.447-.835.92-1.249,1.383-.4.479-.8.949-1.179,1.442s-.751.989-1.12,1.488l-.529.766c-.09.126-.175.255-.258.386l-.253.391a34.738,34.738,0,0,0-1.845,3.223,30.407,30.407,0,0,0-1.453,3.4,23.158,23.158,0,0,0-.958,3.554,16.657,16.657,0,0,0-.276,3.633,11.589,11.589,0,0,0,.663,3.517,8.8,8.8,0,0,0,1.861,2.975l.005.005a.566.566,0,0,1-.816.784Z" fill="#fff"/>
        <path id="Path_229" data-name="Path 229" d="M953.235,352.466a9.486,9.486,0,0,1-2.9,1.877,11.655,11.655,0,0,1-3.312.82,15.963,15.963,0,0,1-3.372-.032c-.278-.037-.556-.066-.832-.111l-.825-.145-.816-.181c-.137-.028-.271-.065-.405-.1l-.4-.109a26.678,26.678,0,0,1-3.141-1.09,32.933,32.933,0,0,1-2.988-1.435c-.966-.534-1.917-1.094-2.828-1.713l-.345-.228-.338-.237-.674-.477-.66-.5-.329-.248-.322-.258-.644-.516-.629-.534-.314-.268c-.1-.089-.2-.183-.307-.275l-.611-.553c-.2-.185-.4-.379-.6-.568s-.4-.377-.59-.575c-.384-.393-.775-.778-1.143-1.187a43.464,43.464,0,0,1-4.119-5.137l-.455-.687-.226-.344-.216-.352-.431-.7-.409-.715c-.279-.474-.522-.968-.78-1.453-.126-.244-.239-.495-.36-.742s-.241-.494-.346-.748l-.328-.757c-.107-.253-.2-.512-.3-.768l-.149-.384c-.05-.128-.091-.26-.137-.39l-.267-.781a27.7,27.7,0,0,1-.8-3.2.283.283,0,0,1,.556-.106v0a27.176,27.176,0,0,0,.817,3.121l.271.762c.046.126.087.254.137.379l.151.376c.1.249.2.5.3.748l.33.739c.106.248.23.488.348.73s.234.486.361.724c.258.474.5.956.781,1.418l.408.7.432.685.215.343.226.336.455.67a42.659,42.659,0,0,0,4.1,5.005c.366.4.755.772,1.136,1.154.189.193.39.372.586.558s.391.372.592.552l.606.536c.1.088.2.18.3.266l.311.259.622.517.636.5.318.25.326.239.651.479.664.459.333.229.339.219c.9.6,1.831,1.131,2.777,1.641a32,32,0,0,0,2.915,1.362,25.727,25.727,0,0,0,3.038,1.017l.387.1c.129.034.258.068.389.093l.78.165.786.129c.262.04.526.063.788.1a14.862,14.862,0,0,0,3.149,0,10.6,10.6,0,0,0,3-.773,8.386,8.386,0,0,0,2.539-1.683h0a.566.566,0,0,1,.789.811Z" fill="#fff"/>
        <path id="Path_230" data-name="Path 230" d="M953.472,319.386a3.327,3.327,0,1,1,2.311-.933h0A3.317,3.317,0,0,1,953.472,319.386Zm0-5.655a2.327,2.327,0,1,0,1.676.71A2.319,2.319,0,0,0,953.471,313.731Z" fill="#fff"/>
        <path id="Path_231" data-name="Path 231" d="M929.576,354.28l-.008,0c-5.593,1.393-10.257.52-13.133-2.458a.566.566,0,1,1,.814-.786c2.583,2.675,6.861,3.437,12.046,2.146l.007,0c5.293-1.319,10.86-4.608,15.68-9.263,8.6-8.3,12.632-18.94,9.588-25.29a.566.566,0,1,1,1.021-.489c1.575,3.286,1.459,7.76-.325,12.6a38.9,38.9,0,0,1-9.5,13.995C940.808,349.523,935.058,352.913,929.576,354.28Z" fill="#fff"/>
        <path id="Path_232" data-name="Path 232" d="M914.523,325.99a3.327,3.327,0,1,1,2.312-.932h0A3.317,3.317,0,0,1,914.523,325.99Zm0-5.654a2.327,2.327,0,1,0,1.676.709A2.321,2.321,0,0,0,914.522,320.336Z" fill="#fff"/>
        <path id="Path_233" data-name="Path 233" d="M952.98,352.608a.566.566,0,0,1-.531-.956c2.675-2.583,3.438-6.861,2.147-12.046-1.318-5.294-4.609-10.865-9.265-15.687s-10.109-8.3-15.354-9.807c-5.137-1.471-9.439-.858-12.114,1.725a8.747,8.747,0,0,0-2.363,4.173.566.566,0,1,1-1.095-.285,9.87,9.87,0,0,1,2.672-4.7c2.978-2.876,7.67-3.585,13.212-2,5.433,1.556,11.064,5.146,15.856,10.108s8.183,10.715,9.549,16.2c1.392,5.593.519,10.257-2.459,13.133A.555.555,0,0,1,952.98,352.608Z" fill="#fff"/>
      </g>
      <g id="Group_123" data-name="Group 123">
        <path id="Path_234" data-name="Path 234" d="M932.282,322.216a11.881,11.881,0,1,0,14.4,8.654A11.895,11.895,0,0,0,932.282,322.216Z" fill="#fff"/>
      </g>
    </g>
    <rect id="Rectangle_68" data-name="Rectangle 68" width="100" height="100" transform="translate(884.194 283.717)" fill="none"/>
  </g>
</svg>
