<svg width="40" height="40" viewBox="0 0 40 40" fill="none" xmlns="http://www.w3.org/2000/svg"> <path d="M31.4061 13.125C31.1772 16.3023 28.8202 18.75 26.2499 18.75C23.6796 18.75 21.3186 16.3031 21.0936 13.125C20.8592 9.81953 23.1538 7.5 26.2499 7.5C29.346 7.5 31.6405 9.87969 31.4061 13.125Z" stroke="#673AB7" stroke-width="4" stroke-linecap="round" stroke-linejoin="round"/> <path d="M26.2497 23.75C21.1583 23.75 16.2622 26.2789 15.0356 31.2039C14.8731 31.8555 15.2817 32.5 15.9513 32.5H36.5489C37.2184 32.5 37.6247 31.8555 37.4645 31.2039C36.238 26.2 31.3419 23.75 26.2497 23.75Z" stroke="#673AB7" stroke-width="4" stroke-miterlimit="10"/> <path d="M15.6253 14.5266C15.4424 17.0641 13.5378 19.0625 11.4846 19.0625C9.43151 19.0625 7.5237 17.0648 7.34401 14.5266C7.15729 11.8867 9.01119 10 11.4846 10C13.9581 10 15.812 11.9352 15.6253 14.5266Z" stroke="#673AB7" stroke-width="4" stroke-linecap="round" stroke-linejoin="round"/> <path d="M16.0935 23.9063C14.6834 23.2602 13.1303 23.0117 11.4842 23.0117C7.42166 23.0117 3.5076 25.0313 2.52713 28.9648C2.39823 29.4852 2.72479 30 3.25916 30H12.031" stroke="#673AB7" stroke-width="4" stroke-miterlimit="10" stroke-linecap="round"/> </svg>
