<svg width="45" height="40" viewBox="0 0 45 40" fill="none" xmlns="http://www.w3.org/2000/svg"> <g clip-path="url(#clip0)"> <path d="M1.16631 11.5646L21.1846 19.8201C21.769 20.0615 22.4298 20.0615 23.0142 19.8201L43.0325 11.5646C44.4547 10.9779 44.4547 9.02402 43.0325 8.4373L23.0151 0.181052C22.7279 0.0617479 22.4159 0 22.1003 0C21.7846 0 21.4726 0.0617479 21.1854 0.181052L1.16631 8.43652C-0.255957 9.02324 -0.255957 10.9779 1.16631 11.5646ZM43.0333 18.4615L38.0412 16.4045L24.1503 22.1287C23.5006 22.3967 22.8105 22.5326 22.0998 22.5326C21.3891 22.5326 20.6999 22.3967 20.0494 22.1287L6.15928 16.4045L1.16631 18.4615C-0.255957 19.0475 -0.255957 21.0006 1.16631 21.5865L21.1846 29.8357C21.769 30.0764 22.4298 30.0764 23.0142 29.8357L43.0333 21.5865C44.4556 21.0006 44.4556 19.0475 43.0333 18.4615ZM43.0333 28.4459L38.0601 26.3967L24.1503 32.1287C23.5006 32.3967 22.8105 32.5326 22.0998 32.5326C21.3891 32.5326 20.6999 32.3967 20.0494 32.1287L6.14037 26.3967L1.16631 28.4459C-0.255957 29.0318 -0.255957 30.985 1.16631 31.5709L21.1846 39.8201C21.769 40.0607 22.4298 40.0607 23.0142 39.8201L43.0333 31.5709C44.4556 30.985 44.4556 29.0318 43.0333 28.4459Z" fill="white"/> </g> <defs> <clipPath id="clip0"> <path d="M0.0996094 0H44.0996V40H0.0996094V0Z" fill="white"/> </clipPath> </defs> </svg>
