<svg width="34" height="34" viewBox="0 0 34 34" fill="none" xmlns="http://www.w3.org/2000/svg"> <path d="M27.5997 1.40065C30.333 1.40065 32.5997 3.66732 32.5997 6.40065C32.5997 9.15065 30.333 11.4007 27.5997 11.4007C24.8497 11.4007 22.5997 9.15065 22.5997 6.40065C22.5997 5.90065 22.683 5.43398 22.833 5.00065C21.0497 4.15065 19.083 3.66732 16.9997 3.66732C13.4635 3.66732 10.0721 5.07208 7.57158 7.57256C5.0711 10.073 3.66634 13.4644 3.66634 17.0007L3.73301 18.4007L0.416341 18.7507L0.333008 17.0007C0.333008 12.5804 2.08896 8.34114 5.21456 5.21554C8.34017 2.08993 12.5794 0.333984 16.9997 0.333984C19.8163 0.333984 22.4663 1.03398 24.783 2.26732C25.5997 1.71732 26.5663 1.40065 27.5997 1.40065ZM27.5997 4.73398C27.1576 4.73398 26.7337 4.90958 26.4212 5.22214C26.1086 5.5347 25.933 5.95862 25.933 6.40065C25.933 6.84268 26.1086 7.2666 26.4212 7.57916C26.7337 7.89172 27.1576 8.06732 27.5997 8.06732C28.533 8.06732 29.2663 7.31732 29.2663 6.40065C29.2663 5.46732 28.533 4.73398 27.5997 4.73398ZM6.39967 22.6007C9.14967 22.6007 11.3997 24.8507 11.3997 27.6007C11.3997 28.1007 11.3163 28.5673 11.1663 29.0007C12.9497 29.8507 14.9163 30.334 16.9997 30.334C20.5359 30.334 23.9273 28.9292 26.4278 26.4287C28.9283 23.9283 30.333 20.5369 30.333 17.0007L30.2663 15.6007L33.583 15.2507L33.6663 17.0007C33.6663 21.4209 31.9104 25.6602 28.7848 28.7858C25.6592 31.9114 21.42 33.6673 16.9997 33.6673C14.183 33.6673 11.533 32.9673 9.21634 31.734C8.39967 32.284 7.43301 32.6007 6.39967 32.6007C3.66634 32.6007 1.39967 30.334 1.39967 27.6007C1.39967 24.8507 3.66634 22.6007 6.39967 22.6007ZM6.39967 25.934C5.46634 25.934 4.73301 26.684 4.73301 27.6007C4.73301 28.534 5.46634 29.2673 6.39967 29.2673C6.8417 29.2673 7.26563 29.0917 7.57819 28.7792C7.89075 28.4666 8.06634 28.0427 8.06634 27.6007C8.06634 27.1586 7.89075 26.7347 7.57819 26.4221C7.26563 26.1096 6.8417 25.934 6.39967 25.934ZM16.9997 10.334C18.7678 10.334 20.4635 11.0364 21.7137 12.2866C22.964 13.5368 23.6663 15.2325 23.6663 17.0007C23.6663 18.7688 22.964 20.4645 21.7137 21.7147C20.4635 22.9649 18.7678 23.6673 16.9997 23.6673C15.2316 23.6673 13.5359 22.9649 12.2856 21.7147C11.0354 20.4645 10.333 18.7688 10.333 17.0007C10.333 15.2325 11.0354 13.5368 12.2856 12.2866C13.5359 11.0364 15.2316 10.334 16.9997 10.334Z" fill="#673AB7"/> </svg>