<svg width="45" height="40" viewBox="0 0 45 40" fill="none" xmlns="http://www.w3.org/2000/svg"> <g clip-path="url(#clip0)"> <path d="M13.3 14C15.1225 14 16.6 12.6569 16.6 11C16.6 9.34315 15.1225 8 13.3 8C11.4775 8 10 9.34315 10 11C10 12.6569 11.4775 14 13.3 14Z" fill="white"/> <path d="M19.2864 16.8595C18.6571 16.294 17.5759 15.25 15.4781 15.25H11.3793C6.94166 15.2355 3.32699 11.9875 3.32699 8H0.0996094C0.0996094 12.582 3.5045 16.468 8.16807 17.7295V37H11.3955V28.3H14.6228V37H17.8502V19.6725L24.2243 25.4L26.4996 23.3555L19.2864 16.8595Z" fill="white"/> <path d="M30.8996 14C32.7221 14 34.1996 12.6569 34.1996 11C34.1996 9.34315 32.7221 8 30.8996 8C29.0771 8 27.5996 9.34315 27.5996 11C27.5996 12.6569 29.0771 14 30.8996 14Z" fill="white"/> <path d="M36.3877 16.8595C35.8108 16.294 34.8197 15.25 32.8967 15.25H29.1395C25.0717 15.2355 21.7582 11.9875 21.7582 8H18.7998C18.7998 12.582 21.921 16.468 26.1959 17.7295V37H29.1543V28.3H32.1128V37H35.0712V19.6725L40.9141 25.4L42.9998 23.3555L36.3877 16.8595Z" fill="white"/> </g> <defs> <clipPath id="clip0"> <rect x="0.0996094" width="44" height="40" fill="white"/> </clipPath> </defs> </svg>
