<svg width="30" height="28" viewBox="0 0 30 28" fill="none" xmlns="http://www.w3.org/2000/svg">
<path d="M29.6875 24.9375H2.8125V0.5625C2.8125 0.390625 2.67188 0.25 2.5 0.25H0.3125C0.140625 0.25 0 0.390625 0 0.5625V27.4375C0 27.6094 0.140625 27.75 0.3125 27.75H29.6875C29.8594 27.75 30 27.6094 30 27.4375V25.25C30 25.0781 29.8594 24.9375 29.6875 24.9375ZM6.94531 18.9102C7.06641 19.0312 7.26172 19.0312 7.38672 18.9102L12.7891 13.5352L17.7734 18.5508C17.8945 18.6719 18.0938 18.6719 18.2148 18.5508L28.9727 7.79688C29.0938 7.67578 29.0938 7.47656 28.9727 7.35547L27.4258 5.80859C27.367 5.75044 27.2877 5.71781 27.2051 5.71781C27.1224 5.71781 27.0431 5.75044 26.9844 5.80859L18 14.7891L13.0234 9.78125C12.9647 9.72309 12.8854 9.69047 12.8027 9.69047C12.7201 9.69047 12.6408 9.72309 12.582 9.78125L5.40234 16.918C5.34419 16.9767 5.31156 17.056 5.31156 17.1387C5.31156 17.2213 5.34419 17.3006 5.40234 17.3594L6.94531 18.9102Z" fill="#673AB7"/>
</svg>
