<svg width="45" height="40" viewBox="0 0 45 40" fill="none" xmlns="http://www.w3.org/2000/svg"> <path d="M39.6998 36L39.7218 11.44C41.0198 10.74 41.8998 9.46 41.8998 8C41.8998 5.8 39.9198 4 37.4998 4C35.0798 4 33.0998 5.8 33.0998 8C33.0998 9.6 34.1338 10.96 35.6078 11.6L26.5218 24.76C25.7958 24.28 24.9158 24 23.9698 24C22.1218 24 20.5598 25.02 19.8998 26.48L15.1918 23.42C15.3898 22.98 15.4998 22.5 15.4998 22C15.4998 19.78 13.5418 18 11.0998 18C9.93285 18 8.81369 18.4214 7.98853 19.1716C7.16337 19.9217 6.6998 20.9391 6.6998 22C6.70374 22.6908 6.9044 23.3689 7.28223 23.9682C7.66006 24.5675 8.20218 25.0677 8.8558 25.42L2.2998 36H39.6998ZM37.4998 6C38.7098 6 39.6998 6.9 39.6998 8C39.6998 9.1 38.7098 10 37.4998 10C36.2898 10 35.2998 9.1 35.2998 8C35.2998 6.9 36.2898 6 37.4998 6ZM11.0998 20C12.3098 20 13.2998 20.9 13.2998 22C13.2998 23.1 12.3098 24 11.0998 24C9.8898 24 8.89981 23.1 8.89981 22C8.89981 20.9 9.8898 20 11.0998 20ZM23.9698 26C25.1798 26 26.1698 26.9 26.1698 28C26.1698 29.1 25.1798 30 23.9698 30C22.7598 30 21.7698 29.1 21.7698 28C21.7698 26.9 22.7598 26 23.9698 26Z" fill="white"/> </svg>
