<svg xmlns="http://www.w3.org/2000/svg" width="1170" height="210.594" viewBox="0 0 1170 210.594"><defs><style>.a{fill:#0068ac;}.b{fill:#fff;}</style></defs><g transform="translate(-375 -533)"><path class="a" d="M1102.464,301.548a83.324,83.324,0,0,0-83.235,83.235h-.3A100.4,100.4,0,0,1,918.646,485.066h-142.1A100.4,100.4,0,0,1,676.262,384.783h-.3a83.324,83.324,0,0,0-83.235-83.235h-142.1a83.324,83.324,0,0,0-83.235,83.235h-.3A100.4,100.4,0,0,1,266.807,485.066H113.174a8.53,8.53,0,0,1-8.524-8.524h0a8.53,8.53,0,0,1,8.524-8.524H266.807a83.324,83.324,0,0,0,83.235-83.235h.3A100.4,100.4,0,0,1,450.626,284.5h142.1A100.4,100.4,0,0,1,693.01,384.783h.3a83.324,83.324,0,0,0,83.235,83.235h142.1a83.324,83.324,0,0,0,83.235-83.235h.3A100.4,100.4,0,0,1,1102.464,284.5H1256.1a8.53,8.53,0,0,1,8.524,8.524h0a8.53,8.53,0,0,1-8.524,8.524Z" transform="translate(275.364 253.514)"/><g transform="translate(375 533)"><path class="a" d="M1102.472,487.58A102.912,102.912,0,0,1,999.712,387.3h-.331V384.79a80.816,80.816,0,0,0-80.728-80.728h-142.1a80.816,80.816,0,0,0-80.728,80.728V387.3h-.331A102.912,102.912,0,0,1,592.734,487.58h-142.1A102.912,102.912,0,0,1,347.873,387.3h-.331V384.79a80.816,80.816,0,0,0-80.728-80.728H113.181a11.031,11.031,0,1,1,0-22.062H266.814a102.912,102.912,0,0,1,102.76,100.283h.331v2.507a80.816,80.816,0,0,0,80.728,80.728h142.1a80.816,80.816,0,0,0,80.728-80.728v-2.507h.331A102.912,102.912,0,0,1,776.552,282h142.1a102.912,102.912,0,0,1,102.76,100.283h.331v2.507a80.816,80.816,0,0,0,80.728,80.728H1256.1a11.031,11.031,0,1,1,0,22.062Z" transform="translate(-99.643 -279.493)"/><path class="b" d="M918.66,284.514A100.4,100.4,0,0,1,1018.943,384.8h.3a83.324,83.324,0,0,0,83.235,83.235h153.633a8.524,8.524,0,0,1,0,17.048H1102.479A100.4,100.4,0,0,1,1002.2,384.8h-.3a83.324,83.324,0,0,0-83.235-83.235h-142.1A83.324,83.324,0,0,0,693.324,384.8h-.3A100.4,100.4,0,0,1,592.741,485.08H450.64A100.4,100.4,0,0,1,350.357,384.8h-.3a83.324,83.324,0,0,0-83.235-83.235H113.188a8.524,8.524,0,1,1,0-17.048H266.821A100.4,100.4,0,0,1,367.1,384.8h.3a83.324,83.324,0,0,0,83.235,83.235h142.1A83.324,83.324,0,0,0,675.976,384.8h.3A100.4,100.4,0,0,1,776.559,284.514h142.1m0-5.014h-142.1A105.418,105.418,0,0,0,671.383,379.783h-.421V384.8a78.308,78.308,0,0,1-78.221,78.221H450.64A78.308,78.308,0,0,1,372.419,384.8v-5.014H372A105.424,105.424,0,0,0,266.821,279.5H113.188a13.538,13.538,0,0,0,0,27.076H266.821A78.308,78.308,0,0,1,345.042,384.8v5.014h.421A105.424,105.424,0,0,0,450.64,490.094h142.1A105.418,105.418,0,0,0,697.917,389.811h.421V384.8a78.308,78.308,0,0,1,78.221-78.221h142.1A78.308,78.308,0,0,1,996.881,384.8v5.014h.421a105.424,105.424,0,0,0,105.177,100.283h153.633a13.538,13.538,0,1,0,0-27.076H1102.479a78.308,78.308,0,0,1-78.221-78.221v-5.014h-.421A105.424,105.424,0,0,0,918.66,279.5Z" transform="translate(-99.65 -279.5)"/></g></g></svg>