<svg xmlns="http://www.w3.org/2000/svg" viewBox="0 0 701 140"><defs><style>.cls-1{fill:#fff;}.cls-2{fill:#2e7ab9;}</style></defs><title>Ресурс 1</title><g id="Слой_2" data-name="Слой 2"><g id="Layer_1" data-name="Layer 1"><path class="cls-1" d="M691,140H554.1a40.23,40.23,0,0,1-39.86-36.68l-5.42-65A20.12,20.12,0,0,0,488.89,20H378.1a20.12,20.12,0,0,0-19.93,18.34l-5.41,65A40.25,40.25,0,0,1,312.89,140H222.1a40.24,40.24,0,0,1-39.86-36.68l-5.41-65A20.13,20.13,0,0,0,156.9,20H10A10,10,0,0,1,10,0H156.9a40.24,40.24,0,0,1,39.86,36.68l5.41,65A20.12,20.12,0,0,0,222.1,120h90.79a20.13,20.13,0,0,0,19.94-18.34l5.41-65A40.24,40.24,0,0,1,378.1,0H488.89a40.23,40.23,0,0,1,39.86,36.68l5.42,65A20.12,20.12,0,0,0,554.1,120H691a10,10,0,0,1,0,20Z"/><path class="cls-2" d="M691,137.5H554.1a37.72,37.72,0,0,1-37.37-34.39l-5.42-65A22.62,22.62,0,0,0,488.89,17.5H378.1a22.62,22.62,0,0,0-22.42,20.63l-5.41,65a37.73,37.73,0,0,1-37.38,34.39H222.1a37.72,37.72,0,0,1-37.37-34.39l-5.41-65A22.64,22.64,0,0,0,156.9,17.5H10a7.5,7.5,0,0,1,0-15H156.9a37.73,37.73,0,0,1,37.37,34.39l5.41,65A22.63,22.63,0,0,0,222.1,122.5h90.79a22.64,22.64,0,0,0,22.43-20.63l5.41-65A37.72,37.72,0,0,1,378.1,2.5H488.89a37.71,37.71,0,0,1,37.37,34.39l5.42,65A22.62,22.62,0,0,0,554.1,122.5H691a7.5,7.5,0,0,1,0,15Z"/><path class="cls-1" d="M488.89,140H378.1a40.24,40.24,0,0,1-39.86-36.68l-5.41-65A20.13,20.13,0,0,0,312.89,20H222.1a20.12,20.12,0,0,0-19.93,18.34l-5.41,65A40.24,40.24,0,0,1,156.9,140H10a10,10,0,0,1,0-20H156.9a20.13,20.13,0,0,0,19.93-18.34l5.41-65A40.24,40.24,0,0,1,222.1,0h90.79a40.25,40.25,0,0,1,39.87,36.68l5.41,65A20.12,20.12,0,0,0,378.1,120H488.89a20.12,20.12,0,0,0,19.93-18.34l5.42-65A40.23,40.23,0,0,1,554.1,0H691a10,10,0,0,1,0,20H554.1a20.12,20.12,0,0,0-19.93,18.34l-5.42,65A40.23,40.23,0,0,1,488.89,140Z"/><path class="cls-2" d="M488.89,137.5H378.1a37.72,37.72,0,0,1-37.37-34.39l-5.41-65A22.64,22.64,0,0,0,312.89,17.5H222.1a22.63,22.63,0,0,0-22.42,20.63l-5.41,65A37.73,37.73,0,0,1,156.9,137.5H10a7.5,7.5,0,0,1,0-15H156.9a22.64,22.64,0,0,0,22.42-20.63l5.41-65A37.72,37.72,0,0,1,222.1,2.5h90.79a37.71,37.71,0,0,1,37.37,34.39l5.42,65A22.62,22.62,0,0,0,378.1,122.5H488.89a22.62,22.62,0,0,0,22.42-20.63l5.42-65A37.72,37.72,0,0,1,554.1,2.5H691a7.5,7.5,0,0,1,0,15H554.1a22.62,22.62,0,0,0-22.42,20.63l-5.42,65A37.71,37.71,0,0,1,488.89,137.5Z"/></g></g></svg>