<svg version="1.1" id="Слой_1" xmlns="http://www.w3.org/2000/svg" xmlns:xlink="http://www.w3.org/1999/xlink" x="0px" y="0px"
	 width="46.48px" height="28.346px" viewBox="0 0 46.48 28.346" enable-background="new 0 0 46.48 28.346" xml:space="preserve">
<path fill="#333456" d="M45.098,1.571c-0.892-0.892-2.076-1.383-3.338-1.383c-1.261,0-2.446,0.491-3.337,1.383L23.239,16.756
	L8.055,1.571C7.165,0.679,5.98,0.188,4.718,0.188c-1.261,0-2.447,0.491-3.338,1.383c-1.84,1.84-1.84,4.834,0,6.674l18.521,18.524
	c0.892,0.891,2.077,1.383,3.337,1.383c1.26,0,2.445-0.491,3.338-1.386l18.522-18.52c0.891-0.892,1.382-2.076,1.382-3.337
	C46.48,3.647,45.991,2.462,45.098,1.571z"/>
<path d="M4.718,2.286"/>
<rect x="0" y="0" fill="none" width="46.461" height="28.346"/>
</svg>
