<svg xmlns="http://www.w3.org/2000/svg" xmlns:xlink="http://www.w3.org/1999/xlink" version="1.1" x="0px" y="0px" width="11px" height="7px" viewBox="0 0 11 7" enable-background="new 0 0 11 7" xml:space="preserve">
<g>
	<path fill="#222222" d="M11.026,0.918c0,0.096-0.037,0.18-0.11,0.254l-5.15,5.15c-0.073,0.073-0.158,0.11-0.253,0.11   c-0.097,0-0.18-0.037-0.255-0.11L0.11,1.171C0.037,1.098,0,1.014,0,0.918s0.037-0.18,0.11-0.255L0.663,0.11   C0.736,0.037,0.821,0,0.917,0c0.096,0,0.18,0.037,0.255,0.11l4.343,4.343L9.857,0.11C9.929,0.037,10.014,0,10.11,0   c0.097,0,0.18,0.037,0.255,0.11l0.553,0.553C10.989,0.737,11.026,0.822,11.026,0.918z"/>
</g>
</svg>