<?xml version="1.0" encoding="utf-8"?>
<!-- Generator: Adobe Illustrator 17.0.0, SVG Export Plug-In . SVG Version: 6.00 Build 0)  -->
<!DOCTYPE svg PUBLIC "-//W3C//DTD SVG 1.1//EN" "http://www.w3.org/Graphics/SVG/1.1/DTD/svg11.dtd">
<svg version="1.1" id="Layer_1" xmlns="http://www.w3.org/2000/svg" xmlns:xlink="http://www.w3.org/1999/xlink" x="0px" y="0px"
	 width="202.411px" height="48.608px" viewBox="0 0 202.411 48.608" enable-background="new 0 0 202.411 48.608"
	 xml:space="preserve">
<g>
	<g>
		<circle fill="#8BC541" cx="89.605" cy="40.541" r="8.067"/>
		<g>
			<path fill="#FFFFFF" d="M9.053,33.012c0.159,4.788,2.342,7.851,6.177,7.851c2.183,0,4.31-1.196,5.163-3.792h8.467
				c-1.704,7.984-7.561,11.446-13.738,11.446C6.122,48.517,0,41.728,0,30.146c0-10.579,6.762-18.167,14.909-18.167
				c9.902,0,14.854,9.317,14.431,21.032H9.053z M20.287,26.687c-0.16-3.927-2.344-7.054-5.378-7.054
				c-3.194,0-5.271,2.794-5.856,7.054H20.287z"/>
			<path fill="#FFFFFF" d="M33.166,20.299H28.8v-7.32h4.366C33.166,3.062,35.935,0,43.655,0c1.438,0,2.929,0.134,4.367,0.2v7.986
				c-0.853-0.133-1.653-0.2-2.449-0.2c-2.078,0-3.356,0.334-3.356,3.461v1.531h5.433v7.32h-5.433v27.22h-9.051V20.299z"/>
			<path fill="#FFFFFF" d="M57.181,29.418l-8.785-16.439h10.012l3.885,8.253l3.887-8.253h9.585l-8.627,16.238l9.799,18.302H66.925
				l-4.793-9.984l-4.524,9.984H47.597L57.181,29.418z"/>
		</g>
		<g>
			<path fill="#D0D1D2" d="M107.811,19.868c-0.392-0.953-0.915-1.739-1.57-2.361c-0.658-0.622-1.41-1.076-2.263-1.364
				c-0.851-0.287-1.758-0.433-2.716-0.433c-0.745,0-1.5,0.099-2.261,0.298c-0.765,0.2-1.466,0.532-2.104,0.999
				c-0.641,0.466-1.154,1.076-1.546,1.831c-0.388,0.754-0.584,1.684-0.584,2.792c0,0.934,0.185,1.723,0.558,2.365
				c0.374,0.643,0.843,1.188,1.411,1.631c0.568,0.443,1.188,0.81,1.862,1.098c0.674,0.289,1.297,0.523,1.864,0.698l4.473,1.264
				c0.958,0.18,1.907,0.499,2.848,0.964c0.94,0.468,1.773,1.079,2.503,1.831c0.728,0.756,1.32,1.688,1.782,2.796
				c0.464,1.108,0.691,2.419,0.691,3.925c0,1.865-0.335,3.45-1.01,4.759c-0.676,1.308-1.536,2.374-2.581,3.194
				c-1.049,0.821-2.231,1.406-3.542,1.763c-1.313,0.355-2.609,0.532-3.886,0.532c-3.229,0-5.848-0.953-7.854-2.862
				c-2.004-1.906-3.148-4.967-3.433-9.181h3.354c0.141,2.838,0.967,4.979,2.474,6.421c1.51,1.44,3.38,2.161,5.617,2.161
				c0.817,0,1.659-0.11,2.529-0.333c0.867-0.22,1.678-0.598,2.423-1.13c0.745-0.532,1.355-1.208,1.837-2.029
				c0.48-0.819,0.717-1.83,0.717-3.027c0-1.021-0.167-1.874-0.503-2.563c-0.339-0.687-0.791-1.266-1.36-1.731
				c-0.567-0.465-1.215-0.854-1.942-1.163c-0.729-0.31-1.464-0.576-2.21-0.799l-4.312-1.198c-1.1-0.356-2.113-0.764-3.035-1.229
				c-0.921-0.468-1.729-1.042-2.421-1.73c-0.693-0.687-1.234-1.532-1.623-2.529c-0.393-0.999-0.586-2.231-0.586-3.692
				c0-1.731,0.31-3.218,0.931-4.459c0.619-1.242,1.43-2.239,2.423-2.995c0.992-0.753,2.101-1.308,3.327-1.663
				c1.224-0.356,2.44-0.533,3.646-0.533c1.385,0,2.671,0.224,3.859,0.665c1.189,0.443,2.237,1.133,3.14,2.064
				c0.906,0.933,1.624,2.085,2.156,3.461c0.532,1.375,0.836,2.995,0.905,4.859h-3.354C108.415,21.943,108.201,20.823,107.811,19.868
				z"/>
			<path fill="#D0D1D2" d="M132.112,13.646c1.616,0.977,2.972,2.286,4.073,3.927c1.1,1.641,1.935,3.56,2.502,5.756
				c0.566,2.196,0.852,4.537,0.852,7.021c0,2.484-0.285,4.822-0.852,7.018c-0.567,2.196-1.402,4.116-2.502,5.759
				c-1.102,1.641-2.457,2.937-4.073,3.892c-1.616,0.953-3.471,1.43-5.562,1.43c-2.095,0-3.947-0.477-5.563-1.43
				c-1.617-0.955-2.975-2.251-4.074-3.892c-1.099-1.643-1.936-3.563-2.503-5.759c-0.566-2.196-0.851-4.534-0.851-7.018
				c0-2.484,0.284-4.825,0.851-7.021c0.567-2.196,1.404-4.115,2.503-5.756c1.1-1.641,2.457-2.949,4.074-3.927
				c1.615-0.975,3.468-1.464,5.563-1.464C128.642,12.183,130.496,12.672,132.112,13.646z M122.345,16.974
				c-1.207,0.843-2.21,1.954-3.009,3.328c-0.8,1.375-1.402,2.94-1.811,4.691c-0.409,1.754-0.612,3.539-0.612,5.358
				c0,1.818,0.203,3.603,0.612,5.357c0.408,1.75,1.011,3.316,1.811,4.689c0.799,1.376,1.802,2.485,3.009,3.326
				c1.204,0.845,2.607,1.265,4.205,1.265c1.597,0,2.997-0.42,4.204-1.265c1.207-0.841,2.211-1.95,3.01-3.326
				c0.798-1.373,1.4-2.939,1.811-4.689c0.406-1.754,0.611-3.539,0.611-5.357c0-1.818-0.205-3.604-0.611-5.358
				c-0.41-1.752-1.013-3.316-1.811-4.691c-0.799-1.374-1.803-2.485-3.01-3.328c-1.207-0.842-2.607-1.264-4.204-1.264
				C124.952,15.71,123.549,16.132,122.345,16.974z"/>
			<path fill="#D0D1D2" d="M158.704,17.906c-1.243-1.464-2.981-2.196-5.218-2.196c-1.597,0-2.999,0.422-4.206,1.264
				c-1.208,0.843-2.208,1.954-3.008,3.328c-0.799,1.375-1.402,2.94-1.808,4.691c-0.41,1.754-0.614,3.539-0.614,5.358
				c0,1.818,0.204,3.603,0.614,5.357c0.405,1.75,1.009,3.316,1.808,4.689c0.8,1.376,1.8,2.485,3.008,3.326
				c1.207,0.845,2.609,1.265,4.206,1.265c1.028,0,2.004-0.243,2.93-0.73c0.919-0.488,1.734-1.163,2.446-2.03
				c0.71-0.864,1.295-1.896,1.757-3.095c0.462-1.198,0.746-2.504,0.853-3.925h3.355c-0.463,4.171-1.687,7.419-3.676,9.749
				c-1.987,2.329-4.542,3.492-7.665,3.492c-2.093,0-3.949-0.477-5.562-1.43c-1.617-0.955-2.975-2.251-4.074-3.892
				c-1.101-1.643-1.935-3.563-2.503-5.759c-0.567-2.196-0.851-4.534-0.851-7.018c0-2.484,0.283-4.825,0.851-7.021
				c0.568-2.196,1.402-4.115,2.503-5.756c1.1-1.641,2.457-2.949,4.074-3.927c1.612-0.975,3.469-1.464,5.562-1.464
				c2.946,0,5.438,0.979,7.48,2.929c2.04,1.952,3.256,4.901,3.646,8.849h-3.353C160.798,21.387,159.945,19.369,158.704,17.906z"/>
			<path fill="#D0D1D2" d="M170.257,0.007v6.719h-3.354V0.007H170.257z M170.257,13.181v34.338h-3.354V13.181H170.257z"/>
			<path fill="#D0D1D2" d="M174.729,18.506c0.564-1.466,1.336-2.662,2.314-3.595c0.974-0.931,2.12-1.62,3.432-2.064
				c1.313-0.441,2.769-0.665,4.367-0.665c1.206,0,2.413,0.144,3.62,0.435c1.206,0.287,2.291,0.83,3.246,1.629
				c0.959,0.799,1.738,1.919,2.344,3.359c0.603,1.444,0.906,3.317,0.906,5.626v18.229c0,1.688,0.654,2.532,1.967,2.532
				c0.392,0,0.747-0.09,1.065-0.27v3.53c-0.392,0.087-0.737,0.153-1.038,0.198c-0.302,0.044-0.684,0.066-1.144,0.066
				c-0.851,0-1.536-0.143-2.049-0.434c-0.518-0.286-0.914-0.699-1.199-1.231c-0.285-0.532-0.471-1.163-0.557-1.896
				c-0.091-0.732-0.135-1.542-0.135-2.429h-0.107c-0.604,1.109-1.215,2.097-1.836,2.961c-0.622,0.864-1.313,1.588-2.077,2.162
				c-0.763,0.578-1.633,1.021-2.607,1.331c-0.977,0.311-2.139,0.466-3.487,0.466c-1.279,0-2.475-0.188-3.595-0.565
				c-1.116-0.376-2.095-0.976-2.928-1.796c-0.833-0.82-1.49-1.863-1.969-3.128c-0.479-1.265-0.718-2.761-0.718-4.491
				c0-2.396,0.426-4.271,1.277-5.624c0.852-1.353,1.976-2.384,3.381-3.095c1.399-0.708,2.98-1.208,4.739-1.496
				c1.755-0.288,3.539-0.567,5.349-0.832c0.711-0.088,1.33-0.201,1.862-0.334c0.532-0.133,0.975-0.364,1.331-0.697
				c0.354-0.334,0.631-0.787,0.824-1.366c0.195-0.575,0.293-1.327,0.293-2.26c0-1.421-0.186-2.585-0.558-3.495
				c-0.373-0.907-0.888-1.629-1.543-2.162c-0.657-0.534-1.421-0.899-2.289-1.1c-0.871-0.199-1.804-0.298-2.796-0.298
				c-2.13,0-3.87,0.631-5.219,1.896c-1.347,1.265-2.058,3.296-2.128,6.092h-3.355C173.823,21.699,174.158,19.97,174.729,18.506z
				 M191.498,28.752c-0.214,0.489-0.623,0.843-1.225,1.066c-0.604,0.221-1.137,0.375-1.597,0.464
				c-1.421,0.313-2.886,0.588-4.393,0.831c-1.511,0.246-2.884,0.612-4.126,1.1c-1.245,0.489-2.264,1.187-3.061,2.098
				c-0.801,0.909-1.199,2.207-1.199,3.891c0,1.066,0.167,2.009,0.506,2.83c0.336,0.82,0.789,1.529,1.357,2.127
				c0.568,0.601,1.224,1.058,1.971,1.364c0.743,0.313,1.508,0.466,2.289,0.466c1.276,0,2.501-0.243,3.673-0.73
				c1.171-0.488,2.191-1.198,3.061-2.131c0.87-0.933,1.563-2.061,2.077-3.393c0.514-1.331,0.77-2.838,0.77-4.523v-5.459H191.498z"/>
			<path fill="#D0D1D2" d="M202.411,0.007v47.512h-3.353V0.007H202.411z"/>
		</g>
	</g>
</g>
</svg>
