<svg width="24" height="24" viewBox="0 0 24 24" fill="none" xmlns="http://www.w3.org/2000/svg">
<path d="M14.5973 11.8229C14.2836 11.6204 13.9442 11.461 13.5881 11.3489C13.1595 11.2096 12.7242 11.0923 12.2837 10.9973C12.0106 10.9344 11.7389 10.8656 11.4689 10.7909C11.3043 10.7445 11.145 10.681 10.9937 10.6013C10.8584 10.5354 10.7386 10.4418 10.6421 10.3265C10.563 10.2257 10.5214 10.1005 10.5245 9.97247C10.5245 9.74687 10.6445 9.55727 10.8905 9.39167C11.1449 9.22007 11.4893 9.13367 11.9117 9.13367C12.3677 9.13367 12.6989 9.21047 12.8969 9.36527C13.1009 9.52487 13.2785 9.75167 13.4249 10.0397C13.5521 10.2653 13.6661 10.4213 13.7777 10.5197C13.8965 10.6277 14.0669 10.6841 14.2853 10.6841C14.5265 10.6841 14.7293 10.5977 14.8913 10.4237C15.0457 10.2678 15.1327 10.0575 15.1337 9.83807C15.1337 9.61247 15.0701 9.37847 14.9489 9.14687C14.8051 8.88911 14.6103 8.66333 14.3765 8.48327C14.0856 8.25831 13.7557 8.08907 13.4033 7.98407C12.9568 7.85118 12.4926 7.78804 12.0269 7.79687C11.3669 7.79687 10.7849 7.89047 10.2953 8.07767C9.79967 8.26727 9.41447 8.54327 9.15047 8.89727C8.88507 9.25103 8.74415 9.68265 8.74967 10.1249C8.74967 10.6049 8.87807 11.0129 9.13127 11.3393C9.37967 11.6609 9.72167 11.9177 10.1441 12.1037C10.5593 12.2837 11.0777 12.4433 11.6909 12.5789C12.1397 12.6749 12.5045 12.7685 12.7721 12.8549C13.0289 12.9365 13.2413 13.0565 13.4021 13.2113C13.4784 13.2861 13.5381 13.3762 13.5772 13.4756C13.6163 13.5751 13.6339 13.6817 13.6289 13.7885C13.6289 14.0909 13.4861 14.3369 13.1933 14.5457C12.8921 14.7569 12.4925 14.8625 12.0053 14.8625C11.6501 14.8625 11.3633 14.8109 11.1485 14.7053C10.9544 14.6168 10.7848 14.4826 10.6541 14.3141C10.5179 14.1213 10.4043 13.9136 10.3157 13.6949C10.241 13.4973 10.1224 13.3192 9.96887 13.1741C9.82543 13.0495 9.64035 12.9836 9.45047 12.9893C9.33731 12.9857 9.22457 13.0046 9.11872 13.0447C9.01287 13.0849 8.91599 13.1456 8.83367 13.2233C8.75512 13.2968 8.6927 13.3859 8.65035 13.4849C8.60801 13.5838 8.58666 13.6905 8.58767 13.7981C8.58767 14.1521 8.71487 14.5229 8.96567 14.8925C9.21407 15.2633 9.54047 15.5609 9.93767 15.7805C10.4921 16.0829 11.2025 16.2353 12.0497 16.2353C12.7553 16.2353 13.3745 16.1225 13.8929 15.9029C14.4149 15.6797 14.8181 15.3641 15.0905 14.9681C15.364 14.5696 15.5081 14.0966 15.5033 13.6133C15.5033 13.1957 15.4229 12.8357 15.2633 12.5441C15.1027 12.2535 14.8742 12.0061 14.5973 11.8229ZM12.0005 0.480469C5.63807 0.480469 0.480469 5.63807 0.480469 12.0005C0.480469 18.3629 5.63807 23.5205 12.0005 23.5205C18.3629 23.5205 23.5205 18.3629 23.5205 12.0005C23.5205 5.63807 18.3629 0.480469 12.0005 0.480469ZM14.7617 18.4505C14.1773 18.4505 13.6265 18.3005 13.1441 18.0329C12.7882 18.102 12.4266 18.1366 12.0641 18.1361C8.80847 18.1361 6.16727 15.4169 6.16727 12.0677C6.16727 11.6477 6.20927 11.2397 6.28727 10.8461C5.97759 10.3051 5.81539 9.69223 5.81687 9.06887C5.81687 7.12607 7.34807 5.54807 9.23807 5.54807C9.90647 5.54807 10.5293 5.74727 11.0573 6.08927C11.3837 6.03047 11.7221 6.00047 12.0641 6.00047C15.3221 6.00047 17.9621 8.71727 17.9621 12.0689C17.9621 12.5141 17.9153 12.9497 17.8265 13.3697C18.0533 13.8413 18.1817 14.3705 18.1817 14.9333C18.1805 16.8749 16.6505 18.4505 14.7617 18.4505Z" fill="white"/>
</svg>
