<svg width="42" height="42" viewBox="0 0 42 42" fill="none" xmlns="http://www.w3.org/2000/svg"> <path d="M41.9965 21C41.9965 9.401 32.5955 0 20.9982 0C9.401 0 0 9.401 0 21C0 31.479 7.679 40.166 17.717 41.741V27.069H12.3865V20.9982H17.717V16.373C17.717 11.109 20.853 8.20225 25.648 8.20225C27.9457 8.20225 30.3485 8.61175 30.3485 8.61175V13.7795H27.7025C25.095 13.7795 24.2812 15.3983 24.2812 17.059V21H30.1052L29.1742 27.0707H24.2812V41.7428C34.3192 40.1678 41.9982 31.4807 41.9982 21H41.9965Z" fill="#009688"/> </svg>
