<?xml version="1.0" encoding="utf-8"?>
<!-- Generator: Adobe Illustrator 17.0.0, SVG Export Plug-In . SVG Version: 6.00 Build 0)  -->
<!DOCTYPE svg PUBLIC "-//W3C//DTD SVG 1.1//EN" "http://www.w3.org/Graphics/SVG/1.1/DTD/svg11.dtd">
<svg version="1.1" id="Слой_1" xmlns="http://www.w3.org/2000/svg" xmlns:xlink="http://www.w3.org/1999/xlink" x="0px" y="0px"
	 width="157.288px" height="25.83px" viewBox="0 0 157.288 25.83" enable-background="new 0 0 157.288 25.83" xml:space="preserve">
<g enable-background="new    ">
	<path fill="#43AE86" d="M19.532,1.65v7.947h-4.883v1.011h4.883v7.577h-5.287v7.038H0V1.65H19.532z"/>
	<path fill="#43AE86" d="M31.625,0L46.51,25.224c-26.031,0-3.872,0-29.77,0L31.625,0z"/>
	<path fill="#43AE86" d="M64.935,4.647l-8.789,8.756l8.789,8.789c-4.85,4.85-12.695,4.85-17.545,0c-4.85-4.849-4.85-12.695,0-17.545
		S60.085-0.202,64.935,4.647z"/>
	<path fill="#43AE86" d="M65.948,1.583c24.112,0-0.538,0,23.573,0v12.325c0,6.5-5.287,11.787-11.786,11.787
		c-6.5,0-11.787-5.287-11.787-11.787V1.583z"/>
	<path fill="#43AE86" d="M109.731,13.437v11.787h-18.32c0-7.847,0-15.727,0-23.573h11.787v11.786H109.731z"/>
	<path fill="#43AE86" d="M127.279,25.257h-11.786V13.471h-4.884V1.65h21.25v11.82h-4.58V25.257z"/>
	<path fill="#43AE86" d="M150.688,25.224h-11.786V13.437L132.301,1.65c18.286,0,6.331,0,24.987,0l-6.601,11.786V25.224z"/>
</g>
</svg>
