<?xml version="1.0" encoding="UTF-8" standalone="no"?>
<svg width="166px" height="20px" viewBox="0 0 166 20" version="1.1" xmlns="http://www.w3.org/2000/svg" xmlns:xlink="http://www.w3.org/1999/xlink">
    <!-- Generator: sketchtool 3.8.2 (29753) - http://www.bohemiancoding.com/sketch -->
    <title>firebrand_logo_red_1280</title>
    <desc>Created with sketchtool.</desc>
    <defs></defs>
    <g id="guides" stroke="none" stroke-width="1" fill="none" fill-rule="evenodd">
        <g id="guide_assets" transform="translate(-335.000000, -162.000000)">
            <g id="brand" transform="translate(40.000000, 0.000000)">
                <g id="logo-red">
                    <g id="logo" transform="translate(95.000000, 162.000000)">
                        <g id="firebrand_logo_red_1280" transform="translate(200.000000, 0.000000)">
                            <g id="firebrand-mark" transform="translate(0.000000, 0.571429)">
                                <path d="M4.204,5.43428571 C4.35428571,5.68685714 4.34,6.172 4.32857143,6.72457143 C4.34057143,8.03085714 4.72857143,9.79428571 6.08742857,10.3582857 C5.568,8.008 5.54571429,5.668 6.61028571,3.472 C6.55542857,2.26057143 4.62628571,0.953714286 3.59657143,2.43314286 C2.90628571,3.424 3.692,4.76685714 4.204,5.43428571" id="Fill-1" fill="#000000"></path>
                                <path d="M2.95485714,10.5754286 C3.24057143,10.6468571 3.57085714,11 3.95485714,11.3994286 C4.88742857,12.3142857 6.40971429,13.2868571 7.76914286,12.7268571 C5.73828571,11.4302857 4.06914286,9.792 3.26857143,7.48514286 C2.37371429,6.66971429 0.0845714286,7.10857143 0.403428571,8.88114286 C0.615428571,10.072 2.12057143,10.4651429 2.95485714,10.5754286" id="Fill-2" fill="#000000"></path>
                                <path d="M5.70628571,15.0914286 C5.96057143,14.9417143 6.44228571,14.9588571 6.99542857,14.9685714 C8.304,14.9588571 10.0668571,14.5697143 10.6314286,13.2114286 C8.27885714,13.7297143 5.94057143,13.7502857 3.74514286,12.6874286 C2.53371429,12.7422857 1.22514286,14.672 2.70457143,15.7005714 C3.69714286,16.3937143 5.04,15.6051429 5.70628571,15.0914286" id="Fill-3" fill="#000000"></path>
                                <path d="M10.848,16.3422857 C10.9205714,16.0577143 11.2725714,15.7262857 11.6708571,15.344 C12.5874286,14.4114286 13.56,12.8891429 12.9994286,11.5297143 C11.7017143,13.5594286 10.0651429,15.2291429 7.75942857,16.0302857 C6.94171429,16.9257143 7.38114286,19.2142857 9.15428571,18.8942857 C10.3445714,18.6811429 10.7377143,17.1765714 10.848,16.3422857" id="Fill-4" fill="#000000"></path>
                                <path d="M15.3651429,13.5897143 C15.2148571,13.3377143 15.2308571,12.8548571 15.2422857,12.3034286 C15.2308571,10.9931429 14.8411429,9.23028571 13.4834286,8.66628571 C14.0017143,11.0194286 14.0257143,13.356 12.9611429,15.552 C13.0148571,16.7651429 14.9445714,18.0737143 15.9742857,16.5937143 C16.6645714,15.6017143 15.8788571,14.2588571 15.3651429,13.5897143" id="Fill-5" fill="#000000"></path>
                                <path d="M16.6148571,8.45142857 C16.3291429,8.37542857 16,8.024 15.616,7.62914286 C14.6834286,6.71085714 13.1611429,5.73828571 11.8022857,6.29942857 C13.8331429,7.59485714 15.5011429,9.23428571 16.3017143,11.5371429 C17.1965714,12.3571429 19.4874286,11.9182857 19.168,10.144 C18.9548571,8.95257143 17.4491429,8.56 16.6148571,8.45142857" id="Fill-6" fill="#000000"></path>
                                <path d="M13.8645714,3.93314286 C13.6091429,4.08342857 13.1268571,4.06571429 12.5754286,4.05771429 C11.2674286,4.06742857 9.50457143,4.45714286 8.93885714,5.81485714 C11.2914286,5.29657143 13.6297143,5.27428571 15.8257143,6.33714286 C17.0371429,6.28285714 18.3457143,4.35428571 16.8657143,3.32571429 C15.8737143,2.63485714 14.5314286,3.42 13.8645714,3.93314286" id="Fill-7" fill="#000000"></path>
                                <path d="M8.724,2.684 C8.65142857,2.96914286 8.29828571,3.29828571 7.9,3.68171429 C6.98342857,4.61371429 6.012,6.13714286 6.57142857,7.49542857 C7.86857143,5.46685714 9.50628571,3.79657143 11.8114286,2.996 C12.6297143,2.10057143 12.1908571,-0.189714286 10.4165714,0.129714286 C9.22628571,0.342857143 8.83314286,1.848 8.724,2.684" id="Fill-8" fill="#FFFFFF"></path>
                            </g>
                            <g id="firebrand-logotype" transform="translate(23.428571, 0.000000)" fill="#FFFFFF">
                                <path d="M0.117142857,0.610285714 L12.2177143,0.610285714 L12.2177143,4.72228571 L5.17771429,4.72228571 L5.17771429,8.20971429 L11.7988571,8.20971429 L11.7988571,12.2925714 L5.17771429,12.2925714 L5.17771429,19.448 L0.117142857,19.448 L0.117142857,0.610285714 Z M14.6474286,0.609714286 L19.7051429,0.609714286 L19.7051429,19.4474286 L14.6474286,19.4474286 L14.6474286,0.609714286 Z M27.4765714,8.77257143 L28.7891429,8.77257143 C30.6891429,8.77257143 31.7788571,7.81885714 31.7788571,6.42114286 C31.7788571,5.00057143 30.8605714,4.21942857 29.1805714,4.18685714 C28.2308571,4.18685714 27.728,4.24228571 27.4765714,4.29828571 L27.4765714,8.77257143 Z M22.476,0.861142857 C23.8988571,0.638285714 26.0525714,0.470857143 28.5662857,0.470857143 C31.4462857,0.470857143 33.5137143,0.861142857 34.9388571,1.92342857 C36.1405714,2.84571429 36.8108571,4.18685714 36.8108571,6.03028571 C36.8108571,8.37657143 35.0508571,10.0531429 33.5668571,10.588 L33.5668571,10.7 C34.824,11.2274286 35.4982857,12.4268571 35.9737143,14.0531429 C36.5588571,15.9794286 37.1748571,18.7188571 37.5382857,19.4474286 L32.3685714,19.4474286 C32.0897143,18.8851429 31.6154286,17.4365714 31.052,15.1142857 C30.5497143,12.8508571 29.8542857,12.3714286 28.2868571,12.3714286 L27.4765714,12.3714286 L27.4765714,19.4474286 L22.476,19.4474286 L22.476,0.861142857 Z M50.8388571,11.8445714 L44.076,11.8445714 L44.076,15.3097143 L51.648,15.3097143 L51.648,19.4485714 L39.0177143,19.4485714 L39.0177143,0.610857143 L51.2577143,0.610857143 L51.2577143,4.72228571 L44.076,4.72228571 L44.076,7.76285714 L50.8388571,7.76285714 L50.8388571,11.8445714 Z M58.7491429,15.896 C59.1114286,15.9525714 59.5577143,15.9525714 60.2017143,15.9525714 C61.8782857,15.9525714 63.3051429,15.2817143 63.3051429,13.6297143 C63.3051429,12.0411429 61.8497143,11.4222857 59.9508571,11.4222857 L58.7491429,11.4222857 L58.7491429,15.896 Z M58.7491429,7.84514286 L59.7542857,7.84514286 C61.9062857,7.84514286 62.9394286,7.09257143 62.9394286,5.89028571 C62.9394286,4.77828571 62.1017143,4.07428571 60.3977143,4.07428571 C59.5577143,4.07428571 59.0845714,4.12971429 58.7491429,4.18685714 L58.7491429,7.84514286 L58.7491429,7.84514286 Z M53.7445714,0.861714286 C54.892,0.666857143 57.3782857,0.471428571 59.6988571,0.471428571 C62.3805714,0.471428571 63.9731429,0.638857143 65.4537143,1.39142857 C66.9062857,2.06685714 67.9988571,3.43257143 67.9988571,5.24857143 C67.9988571,6.844 67.132,8.37657143 64.9245714,9.21942857 L64.9245714,9.272 C67.2468571,9.91771429 68.6125714,11.6217143 68.6125714,13.856 C68.6125714,15.6171429 67.7748571,17.0142857 66.5154286,17.9628571 C65.0914286,19.0291429 62.7434286,19.6725714 58.7182857,19.6725714 C56.4285714,19.6725714 54.7771429,19.5 53.7445714,19.332 L53.7445714,0.861714286 Z M75.6828571,8.77257143 L76.9965714,8.77257143 C78.896,8.77257143 79.9857143,7.81885714 79.9857143,6.42114286 C79.9857143,5.00057143 79.064,4.21942857 77.3874286,4.18685714 C76.44,4.18685714 75.9342857,4.24228571 75.6828571,4.29828571 L75.6828571,8.77257143 Z M70.6817143,0.861142857 C72.1062857,0.638285714 74.2582857,0.470857143 76.7725714,0.470857143 C79.6502857,0.470857143 81.72,0.861142857 83.144,1.92342857 C84.3462857,2.84571429 85.0142857,4.18685714 85.0142857,6.03028571 C85.0142857,8.37657143 83.2554286,10.0531429 81.7748571,10.588 L81.7748571,10.7 C83.0325714,11.2274286 83.7028571,12.4268571 84.18,14.0531429 C84.7645714,15.9794286 85.38,18.7188571 85.7428571,19.4474286 L80.5737143,19.4474286 C80.2937143,18.8851429 79.82,17.4365714 79.2617143,15.1142857 C78.7582857,12.8508571 78.0582857,12.3714286 76.4937143,12.3714286 L75.6828571,12.3714286 L75.6828571,19.4474286 L70.6817143,19.4474286 L70.6817143,0.861142857 Z M96.6148571,11.3417143 L95.7508571,7.95828571 C95.4691429,6.89542857 95.104,5.35942857 94.8257143,4.24285714 L94.7697143,4.24285714 C94.4914286,5.35942857 94.2097143,6.928 93.9308571,7.98628571 L93.12,11.3417143 L96.6148571,11.3417143 Z M92.4525714,15.0822857 L91.3908571,19.448 L86.164,19.448 L91.6417143,0.610285714 L98.348,0.610285714 L103.965143,19.448 L98.5137143,19.448 L97.3142857,15.0822857 L92.4525714,15.0822857 Z M105.666286,19.4474286 L105.666286,0.610285714 L111.622857,0.610285714 L114.614286,6.39257143 C115.646286,8.26971429 116.735429,10.7845714 117.573714,12.9868571 L117.657714,12.9868571 C117.378286,10.504 117.264571,7.87428571 117.264571,5.05714286 L117.264571,0.610285714 L121.880571,0.610285714 L121.880571,19.4474286 L116.568,19.4474286 L113.381143,13.1857143 C112.32,11.1708571 111.089143,8.66057143 110.196571,6.36514286 L110.114286,6.36514286 C110.224571,8.91142857 110.280571,11.7617143 110.280571,14.8074286 L110.280571,19.4474286 L105.666286,19.4474286 Z M129.730857,15.6731429 C129.982857,15.7291429 130.457143,15.7291429 130.794286,15.7291429 C134.063429,15.7845714 136.468,13.968 136.468,9.71885714 C136.468,6.06285714 134.284571,4.32971429 131.267429,4.32971429 C130.457143,4.32971429 129.982857,4.38571429 129.730857,4.44171429 L129.730857,15.6731429 Z M124.671429,0.861714286 C126.292,0.610857143 128.444,0.470857143 130.680571,0.470857143 C134.284571,0.470857143 136.549714,1.06171429 138.421714,2.34171429 C140.489714,3.77257143 141.833143,6.11885714 141.833143,9.58342857 C141.833143,13.4091429 140.38,15.896 138.536,17.3205714 C136.468,18.9411429 133.393143,19.6725714 129.700571,19.6725714 C127.270286,19.6725714 125.651429,19.5 124.671429,19.332 L124.671429,0.861714286 L124.671429,0.861714286 Z" id="firebrand"></path>
                            </g>
                        </g>
                    </g>
                </g>
            </g>
        </g>
    </g>
</svg>