<?xml version="1.0" encoding="utf-8"?>
<!-- Generator: Adobe Illustrator 21.1.0, SVG Export Plug-In . SVG Version: 6.00 Build 0)  -->
<svg version="1.1" id="Слой_1" xmlns="http://www.w3.org/2000/svg" xmlns:xlink="http://www.w3.org/1999/xlink" x="0px" y="0px"
	 viewBox="0 0 178.3 96.8" style="enable-background:new 0 0 178.3 96.8;" xml:space="preserve">
<style type="text/css">
	.st0{fill:#A3A3A3;}
</style>
<g>
	<g>
		<path class="st0" d="M67.6,24.5h-4.5V14h-5.9v10.5h-4.5v-24h4.5V10h5.9V0.5h4.5V24.5z"/>
		<path class="st0" d="M83.2,24.5l-1.4-6h-6.2l-1.4,6h-4.5l5.9-24h6l5.9,24H83.2z M81,14.5l-1.3-5.6c-0.1-0.3-0.2-1.2-0.5-2.5
			s-0.4-2.3-0.5-2.7c-0.1,0.9-0.3,2-0.5,3.1s-0.8,3.7-1.7,7.7C76.5,14.5,81,14.5,81,14.5z"/>
		<path class="st0" d="M94.2,15.1v9.3h-4.5V0.5h5.8c2.5,0,4.3,0.6,5.5,1.8s1.8,3,1.8,5.4c0,3-1,5.1-3.1,6.3l4.6,10.5h-4.8l-3.8-9.3
			L94.2,15.1L94.2,15.1z M94.2,11.3h1.1c1,0,1.8-0.3,2.3-0.9s0.7-1.5,0.7-2.7s-0.2-2.1-0.7-2.6s-1.2-0.8-2.3-0.8h-1.1V11.3z"/>
		<path class="st0" d="M121.7,12.3c0,3.9-0.8,7-2.4,9.1s-3.9,3.1-6.9,3.1h-5.9v-24h6.4c2.8,0,4.9,1,6.5,3.1
			C121,5.7,121.7,8.6,121.7,12.3z M117.2,12.4c0-5.3-1.5-8-4.4-8H111v16.2h1.4c1.6,0,2.8-0.7,3.6-2
			C116.8,17.2,117.2,15.1,117.2,12.4z"/>
	</g>
	<g>
		<path class="st0" d="M41.1,52.3c0,1.6-0.4,2.9-1.2,3.7c-0.8,0.9-2,1.3-3.5,1.3s-2.8-0.3-3.8-0.9v-3.2c1.3,0.8,2.5,1.3,3.6,1.3
			c0.6,0,1.1-0.2,1.4-0.5c0.3-0.3,0.5-0.8,0.5-1.4c0-0.6-0.2-1.1-0.6-1.6c-0.4-0.5-1-1-1.8-1.6c-0.7-0.5-1.3-1-1.7-1.5
			s-0.7-1-0.9-1.6s-0.3-1.3-0.3-2c0-1.5,0.4-2.7,1.2-3.5c0.8-0.9,1.9-1.3,3.3-1.3c1.3,0,2.6,0.4,3.8,1.1L40,43.2
			c-0.4-0.2-0.8-0.4-1.2-0.6c-0.4-0.2-0.9-0.3-1.3-0.3c-0.5,0-0.9,0.2-1.2,0.5s-0.4,0.8-0.4,1.4c0,0.6,0.2,1.1,0.5,1.5
			s0.9,0.9,1.8,1.5c1.1,0.8,1.9,1.5,2.4,2.3C40.8,50.4,41.1,51.3,41.1,52.3z"/>
		<path class="st0" d="M64.4,57.1H61l-2.9-7.4L56.8,51v6.1h-3.2V39.8h3.2v8.6l1.1-2.6l2.9-6h3.4l-4,7.5L64.4,57.1z"/>
		<path class="st0" d="M76.9,57.1V39.8h3v17.3H76.9z"/>
		<path class="st0" d="M94,57.1V39.8h3.2v14.5h4.5v2.8H94z"/>
		<path class="st0" d="M114.1,57.1V39.8h3.2v14.5h4.5v2.8H114.1z"/>
		<path class="st0" d="M142.1,52.3c0,1.6-0.4,2.9-1.2,3.7c-0.8,0.9-2,1.3-3.5,1.3s-2.8-0.3-3.8-0.9v-3.2c1.3,0.8,2.5,1.3,3.6,1.3
			c0.6,0,1.1-0.2,1.4-0.5s0.5-0.8,0.5-1.4c0-0.6-0.2-1.1-0.6-1.6s-1-1-1.8-1.6c-0.7-0.5-1.3-1-1.7-1.5s-0.7-1-0.9-1.6
			c-0.2-0.6-0.3-1.3-0.3-2c0-1.5,0.4-2.7,1.2-3.5c0.8-0.9,1.9-1.3,3.3-1.3c1.3,0,2.6,0.4,3.8,1.1l-1.1,2.6c-0.4-0.2-0.8-0.4-1.2-0.6
			c-0.4-0.2-0.9-0.3-1.3-0.3c-0.5,0-0.9,0.2-1.2,0.5c-0.3,0.3-0.4,0.8-0.4,1.4c0,0.6,0.2,1.1,0.5,1.5c0.3,0.4,0.9,0.9,1.8,1.5
			c1.1,0.8,1.9,1.5,2.4,2.3S142.1,51.3,142.1,52.3z"/>
	</g>
	<g>
		<path class="st0" d="M62.9,96.7H52.1v-24h10.8v3.9h-6.4v5.7h5.9v3.9h-5.9v6.7h6.4V96.7z"/>
		<path class="st0" d="M80.2,96.7h-4.7l-3.4-8.6l-3.2,8.6h-4.7l5.5-12.5l-5.1-11.5h4.5l3.2,7.9l2.7-7.9h4.7l-5.1,11.7L80.2,96.7z"/>
		<path class="st0" d="M93.7,96.7l-1.4-6.1h-6.2l-1.4,6.1h-4.5l5.9-24.1h6.1l6,24.1H93.7z M91.5,86.7l-1.3-5.6
			c-0.1-0.3-0.2-1.2-0.5-2.6s-0.4-2.3-0.5-2.7c-0.1,0.9-0.3,2-0.5,3.1s-0.8,3.7-1.7,7.8C87,86.7,91.5,86.7,91.5,86.7z"/>
		<path class="st0" d="M108.9,96.7l-4.6-20.5h-0.2c0.2,1.6,0.3,3,0.3,4.3v16.1h-4.1v-24h6.9l4.1,18.9h0.1l4.1-18.9h7v24h-4.2V80.5
			c0-1.3,0.1-2.7,0.2-4.1h-0.1l-4.6,20.4h-4.9V96.7z"/>
	</g>
	<path class="st0" d="M23.9,48.6c0-13.3,10.8-24.1,24.1-24.1V0.6c-26.4,0-48,21.5-48,48c0,26.4,21.5,48,48,48V72.7
		C34.7,72.7,23.9,61.9,23.9,48.6z"/>
	<polygon class="st0" points="149.6,96.5 140.6,96.5 169.3,48.2 140.6,0 149.6,0 178.3,48.2 	"/>
</g>
</svg>
