<?xml version="1.0" encoding="UTF-8"?>
<svg enable-background="new 0 0 700.9 250" version="1.1" viewBox="0 0 700.9 250" xml:space="preserve" xmlns="http://www.w3.org/2000/svg">
<style type="text/css">
	.st0{fill:url(#a);}
	.st1{fill:#FFFFFF;}
</style>
		<linearGradient id="a" x2="250" y1="124.78" y2="124.78" gradientTransform="matrix(1 0 0 -1 0 249.78)" gradientUnits="userSpaceOnUse">
		<stop stop-color="#EE5950" offset="0"/>
		<stop stop-color="#EE5B51" offset=".4162"/>
		<stop stop-color="#EF6155" offset=".593"/>
		<stop stop-color="#F06C5C" offset=".7244"/>
		<stop stop-color="#F17966" offset=".8334"/>
		<stop stop-color="#F38A74" offset=".9275"/>
		<stop stop-color="#F59B84" offset="1"/>
	</linearGradient>
	<circle class="st0" cx="125" cy="125" r="125"/>
	<path class="st1" d="M125,60l56.3,97.5H68.7L125,60 M125,0L16.7,187.5h216.5L125,0L125,0z"/>
			<polygon class="st1" points="659.3 131 659.3 57.6 641.4 57.6 641.4 148.9 700.9 148.9 700.9 131"/>
			<polygon class="st1" points="577.5 112.9 602.7 112.9 602.7 95 577.5 95 577.5 76.5 621.8 76.5 621.8 58.5 559.6 58.5 559.6 149.2 622.3 149.4 622.3 131.5 577.5 131.3"/>
			<path class="st1" d="m531.4 94l14.9-22.7-7.2-5c-7.7-5.3-16.8-8.2-26.2-8.2-25.4 0-46.1 20.7-46.1 46 0 25.4 20.7 46 46.1 46 9.4 0 18.4-2.8 26.2-8.2l-10.2-14.8c-4.7 3.3-10.2 5-16 5-15.5 0-28.1-12.6-28.1-28.1s12.6-28.1 28.1-28.1c2.7 0 5.4 0.4 8 1.2l-4.5 6.9 15 10z"/>
			<path class="st1" d="m446 94l14.9-22.7-7.2-5c-7.7-5.3-16.8-8.2-26.2-8.2-25.4 0-46.1 20.7-46.1 46 0 25.4 20.7 46 46.1 46 9.4 0 18.4-2.8 26.2-8.2l-10.2-14.8c-4.7 3.3-10.2 5-16 5-15.5 0-28.1-12.6-28.1-28.1s12.6-28.1 28.1-28.1c2.7 0 5.4 0.4 8 1.2l-4.5 6.9 15 10z"/>
			<path class="st1" d="m282 149.1l19.1-0.1 9-17.3h40.1l9 17.3 18.7 0.1-47.7-92.1-48.2 92.1zm37.4-35.3l10.7-20.7 10.7 20.7h-21.4z"/>
		<path class="st1" d="m295.7 184.4h-8l-1.1 3.1h-4.2l7-18h4.8l6.9 18h-4.2l-1.2-3.1zm-7-3.4h6l-3-8.3-3 8.3z"/>
		<path class="st1" d="m308.7 180.3l-1.4 1.7v5.5h-3.8v-18h3.8v8l6.4-8h4.7l-7.2 8.4 7.6 9.6h-4.7l-5.4-7.2z"/>
		<path class="st1" d="m319 178.5c0-5.5 4.2-9.3 9.4-9.3 4.1 0 6.4 2.2 7.7 4.4l-3.3 1.6c-0.8-1.5-2.4-2.6-4.4-2.6-3.1 0-5.5 2.5-5.5 5.9s2.4 5.9 5.5 5.9c2 0 3.6-1.1 4.4-2.6l3.3 1.6c-1.3 2.2-3.6 4.4-7.7 4.4-5.2 0-9.4-3.8-9.4-9.3z"/>
		<path class="st1" d="m338.9 169.5h12.7v3.3h-8.9v3.9h8.7v3.3h-8.7v4.2h8.9v3.3h-12.7v-18z"/>
		<path class="st1" d="m358.2 174.9l0.4-5.4h12.8v18h-3.9v-14.6h-5.7l-0.2 2.5c-0.9 11.1-3.8 12.4-7.5 12.4v-3.7c1.9 0 3.5-1.2 4.1-9.2z"/>
		<path class="st1" d="m375.5 169.5h12.7v3.3h-8.9v3.9h8.7v3.3h-8.7v4.2h8.9v3.3h-12.7v-18z"/>
		<path class="st1" d="m392 169.5h8.4c3.9 0 6 2.6 6 5.8 0 3.1-2.2 5.8-6 5.8h-4.6v6.5h-3.8v-18.1zm7.9 3.3h-4.1v5h4.1c1.5 0 2.6-1 2.6-2.5s-1.1-2.5-2.6-2.5z"/>
		<path class="st1" d="m419.6 184.4h-8l-1.1 3.1h-4.2l7-18h4.8l6.9 18h-4.2l-1.2-3.1zm-7-3.4h6l-3-8.3-3 8.3z"/>
		<path class="st1" d="M429.3,172.8H424v-3.4h14.4v3.4h-5.2v14.6h-3.9V172.8z"/>
		<path class="st1" d="m449.5 169.2c5.5 0 9.4 3.9 9.4 9.3s-4 9.3-9.4 9.3-9.4-3.9-9.4-9.3 4-9.3 9.4-9.3zm0 3.4c-3.3 0-5.5 2.5-5.5 5.9 0 3.3 2.1 5.9 5.5 5.9s5.5-2.6 5.5-5.9c0-3.4-2.2-5.9-5.5-5.9z"/>
		<path class="st1" d="m462 169.5h8.4c3.9 0 6 2.6 6 5.8 0 3.1-2.2 5.8-6 5.8h-4.6v6.5h-3.8v-18.1zm7.9 3.3h-4.1v5h4.1c1.5 0 2.6-1 2.6-2.5 0.1-1.5-1-2.5-2.6-2.5z"/>
		<path class="st1" d="m495.9 169.2c5.5 0 9.4 3.9 9.4 9.3s-4 9.3-9.4 9.3-9.4-3.9-9.4-9.3 4-9.3 9.4-9.3zm0 3.4c-3.3 0-5.5 2.5-5.5 5.9 0 3.3 2.1 5.9 5.5 5.9s5.5-2.6 5.5-5.9c0-3.4-2.1-5.9-5.5-5.9z"/>
		<path class="st1" d="m520.8 179.9h-8.5v7.6h-3.8v-18h3.8v7.1h8.5v-7.1h3.9v18h-3.9v-7.6z"/>
		<path class="st1" d="m531.6 174.9l0.4-5.4h12.8v18h-3.9v-14.6h-5.7l-0.2 2.5c-0.9 11.1-3.8 12.4-7.5 12.4v-3.7c1.8 0 3.5-1.2 4.1-9.2z"/>
		<path class="st1" d="m560.6 184.4h-8l-1.1 3.1h-4.2l7-18h4.8l6.9 18h-4.2l-1.2-3.1zm-7-3.4h6l-3-8.3-3 8.3z"/>
		<path class="st1" d="m572.2 169.5v12.3l8.3-12.3h3.9v18h-3.8v-12.7l-8.6 12.7h-3.7v-18h3.9zm-0.6-3.8l1.9-1.5c0.7 1 1.7 1.6 3 1.6 1.2 0 2.3-0.6 3-1.6l1.8 1.5c-1.1 1.5-2.9 2.4-4.8 2.4s-3.8-0.9-4.9-2.4z"/>
		<path class="st1" d="m600.9 179.9h-8.5v7.6h-3.8v-18h3.8v7.1h8.5v-7.1h3.9v18h-3.9v-7.6z"/>
		<path class="st1" d="m608.3 176.8h6.5v2.9h-6.5v-2.9z"/>
		<path class="st1" d="m641.3 187.5h-23v-18h3.8v14.6h5.7v-14.6h3.9v14.6h5.7v-14.6h3.9v18z"/>
		<path class="st1" d="m650.7 180.3l-1.4 1.7v5.5h-3.8v-18h3.8v8l6.4-8h4.7l-7.2 8.4 7.6 9.6h-4.7l-5.4-7.2z"/>
		<path class="st1" d="m670.4 169.2c5.5 0 9.4 3.9 9.4 9.3s-4 9.3-9.4 9.3-9.4-3.9-9.4-9.3 3.9-9.3 9.4-9.3zm0 3.4c-3.3 0-5.5 2.5-5.5 5.9 0 3.3 2.1 5.9 5.5 5.9s5.5-2.6 5.5-5.9c-0.1-3.4-2.2-5.9-5.5-5.9z"/>
		<path class="st1" d="m685.5 174.9l0.4-5.4h12.8v18h-3.9v-14.6h-5.7l-0.2 2.5c-0.9 11.1-3.8 12.4-7.5 12.4v-3.7c1.8 0 3.5-1.2 4.1-9.2z"/>
</svg>
