<?xml version="1.0" encoding="utf-8"?>
<!-- Generator: Adobe Illustrator 21.1.0, SVG Export Plug-In . SVG Version: 6.00 Build 0)  -->
<svg version="1.1" id="Capa_1" xmlns="http://www.w3.org/2000/svg" xmlns:xlink="http://www.w3.org/1999/xlink" x="0px" y="0px"
	 viewBox="0 0 19 14.2" style="enable-background:new 0 0 19 14.2;" xml:space="preserve" width="19" height="19">
<style type="text/css">
	.st0{fill:#FFBF10;}
</style>
<g>
	<path class="st0" d="M19,11.9c0,0.4-0.1,0.8-0.3,1.1l-6-6.7l5.9-5.2C18.9,1.5,19,1.9,19,2.4L19,11.9L19,11.9z M9.5,7.5l8.3-7.2
		C17.4,0.1,17,0,16.6,0H2.4C2,0,1.6,0.1,1.2,0.3L9.5,7.5z M11.8,7.1L9.9,8.8C9.8,8.9,9.6,8.9,9.5,8.9c-0.1,0-0.3,0-0.4-0.1L7.2,7.1
		l-6.1,6.8c0.4,0.2,0.8,0.4,1.3,0.4h14.3c0.5,0,0.9-0.1,1.3-0.4L11.8,7.1z M0.4,1.1C0.1,1.5,0,1.9,0,2.4v9.5c0,0.4,0.1,0.8,0.3,1.1
		l6-6.7L0.4,1.1z"/>
</g>
</svg>
