<svg xmlns="http://www.w3.org/2000/svg" xmlns:xlink="http://www.w3.org/1999/xlink" width="290" height="27.691" viewBox="0 0 290 27.691"><defs><style>.a{fill:#848a8f;}.b{clip-path:url(#a);}.c{fill:none;stroke:#67737a;stroke-miterlimit:10;stroke-width:1.117px;}</style><clipPath id="a"><rect class="a" width="290" height="27.691"/></clipPath></defs><g transform="translate(-42.469 -271.014)"><g class="b" transform="translate(42.469 271.014)"><path class="a" d="M230.4,284.782a8.865,8.865,0,0,1,9-9.243,8.089,8.089,0,0,1,6.563,3.162l-1.285.83a6.521,6.521,0,0,0-5.278-2.6c-4.153,0-7.394,3.188-7.394,7.849,0,4.608,3.242,7.849,7.394,7.849a6.522,6.522,0,0,0,5.278-2.6l1.285.8a8.038,8.038,0,0,1-6.563,3.188,8.865,8.865,0,0,1-9-9.242" transform="translate(-66.99 -271.604)"/><path class="a" d="M250.635,287.955c0-3.777,2.437-6.777,6.215-6.777,3.83,0,6.241,3,6.241,6.777s-2.411,6.8-6.241,6.8c-3.778,0-6.215-3.028-6.215-6.8m10.957,0c0-2.866-1.688-5.519-4.741-5.519-3,0-4.715,2.653-4.715,5.519,0,2.894,1.714,5.546,4.715,5.546,3.054,0,4.741-2.652,4.741-5.546" transform="translate(-69.631 -272.34)"/><path class="a" d="M284.184,285.383c0-1.822-.777-2.947-2.6-2.947a4.8,4.8,0,0,0-3.7,2.2v9.8h-1.419v-9.055c0-1.822-.75-2.947-2.6-2.947a4.964,4.964,0,0,0-3.7,2.224v9.778H268.78V281.5h1.393v1.956a5.693,5.693,0,0,1,4.179-2.277,3.256,3.256,0,0,1,3.4,2.439,5.379,5.379,0,0,1,4.287-2.439c2.384,0,3.536,1.34,3.536,3.939v9.322h-1.393Z" transform="translate(-71.998 -272.34)"/><path class="a" d="M308.182,285.383c0-1.822-.777-2.947-2.6-2.947a4.8,4.8,0,0,0-3.7,2.2v9.8h-1.419v-9.055c0-1.822-.75-2.947-2.6-2.947a4.964,4.964,0,0,0-3.7,2.224v9.778h-1.393V281.5h1.393v1.956a5.693,5.693,0,0,1,4.179-2.277,3.256,3.256,0,0,1,3.4,2.439,5.379,5.379,0,0,1,4.287-2.439c2.384,0,3.536,1.34,3.536,3.939v9.322h-1.393Z" transform="translate(-75.13 -272.34)"/><path class="a" d="M325.509,292.585a6.562,6.562,0,0,1-4.661,2.223c-2.653,0-4.072-1.232-4.072-4.152v-9.108h1.393v8.786c0,2.518,1.259,3.215,3.135,3.215a5.6,5.6,0,0,0,4.2-2.142v-9.859H326.9v12.939h-1.393Z" transform="translate(-78.261 -272.388)"/><path class="a" d="M341.836,285.679c0-2.492-1.259-3.242-3.134-3.242a5.539,5.539,0,0,0-4.206,2.223v9.778H333.1V281.5H334.5v1.956a6.554,6.554,0,0,1,4.661-2.277c2.625,0,4.072,1.286,4.072,4.2v9.055h-1.393Z" transform="translate(-80.391 -272.34)"/><path class="a" d="M349,277.689a1.092,1.092,0,0,1,1.071-1.071,1.071,1.071,0,1,1,0,2.142A1.092,1.092,0,0,1,349,277.689m.375,3.216h1.392v12.938h-1.392Z" transform="translate(-82.466 -271.745)"/><path class="a" d="M355.7,291.464v-9.215h-2.144v-1.232H355.7V277.48h1.419v3.537h2.626v1.232h-2.626v9c0,1.045.43,1.769,1.34,1.769a2.02,2.02,0,0,0,1.446-.616l.536,1.072a2.911,2.911,0,0,1-2.2.8c-1.715,0-2.545-1.044-2.545-2.813" transform="translate(-83.06 -271.858)"/><path class="a" d="M364.09,298.478c.857,0,1.446-.348,1.956-1.58l1.017-2.3L361.6,281.548h1.555l4.715,11.3,4.661-11.3h1.58l-6.7,15.779a3.436,3.436,0,0,1-3.322,2.411,5.486,5.486,0,0,1-1.367-.188l.241-1.286a3.232,3.232,0,0,0,1.126.214" transform="translate(-84.109 -272.388)"/><path class="a" d="M57.84,286.9H53.257v-3.418h9.726v9.246a29.919,29.919,0,0,1-8.866,1.241c-7.75,0-11.649-3.115-11.649-9.273,0-6.076,3.952-9.5,11.119-9.5,6.027,0,9.14,2,9.4,6.051H57.409c-.076-1.669-1.542-2.71-3.975-2.71-3.6,0-5.6,2.107-5.6,5.88,0,4,2.053,6.027,6.127,6.027a15.415,15.415,0,0,0,3.876-.533Z" transform="translate(-42.469 -271.56)"/><path class="a" d="M69.147,275.461H74.39v3.575H69.147Zm.2,5.523h4.864V293.7H69.349Z" transform="translate(-45.95 -271.594)"/><path class="a" d="M89.854,281.768h4.757a22.607,22.607,0,0,0-.175,2.889v6.484c0,2.453-.1,4.228-1.166,5.648-1.421,1.846-3.952,2.682-7.774,2.682-4.763,0-7.17-1.47-7.218-4.479h4.811c.051,1.14.91,1.719,2.557,1.719,2.686,0,3.925-1.216,3.925-3.8V291.85A6.85,6.85,0,0,1,84.155,294c-4,0-6.56-2.609-6.56-6.18,0-3.925,2.533-6.353,6.786-6.353a7.494,7.494,0,0,1,5.319,2.2,9.956,9.956,0,0,1,.155-1.9m-3.8,9.42c2.332,0,3.57-1.239,3.57-3.517a3.178,3.178,0,0,0-3.52-3.446c-2.229,0-3.52,1.317-3.52,3.62a3.2,3.2,0,0,0,3.469,3.343" transform="translate(-47.052 -272.378)"/><path class="a" d="M104.1,294.787c-3.266,0-5.035-1.443-5.035-3.848a3.986,3.986,0,0,1,1.974-3.575c1.263-.784,3.415-.884,6.5-.884H109.9c0-.127.023-.254.023-.352,0-1.393-.835-2.13-2.382-2.13-1.7,0-2.555.4-2.734,1.545H99.87c.329-2.835,2.836-4.075,7.75-4.075,4.737,0,6.987,1.492,6.987,4.859v6.485a4.526,4.526,0,0,0,.255,1.671h-4.533a4.01,4.01,0,0,1-.3-1.645v-.23c-1.011,1.369-3.036,2.179-5.927,2.179m5.419-5.978c-3.7,0-5.393.377-5.393,1.8,0,.938.811,1.419,2.436,1.419,2.149,0,3.34-1.036,3.34-2.94v-.277Z" transform="translate(-49.854 -272.378)"/><path class="a" d="M119.6,284.757a24,24,0,0,0-.147-2.989h4.785c.1.685.177,1.369.227,2.052a6.831,6.831,0,0,1,5.269-2.352c2.355,0,3.9.905,4.557,2.63a6,6,0,0,1,5.191-2.63c3.569,0,5.574,1.869,5.574,5.391v7.624h-4.838v-7.749a2.217,2.217,0,0,0-2.459-2.409c-2.1,0-3.065,1.218-3.065,3.7v6.461h-4.785v-7.749a2.214,2.214,0,0,0-2.408-2.409c-2.153,0-3.113,1.218-3.113,3.7v6.461H119.6Z" transform="translate(-52.514 -272.378)"/><path class="a" d="M151.079,288.1c0-4.255,2.962-6.662,8.613-6.662s8.637,2.407,8.637,6.713c0,4.38-2.967,6.635-8.841,6.635-5.521,0-8.408-2.407-8.408-6.686m12.152-.1c0-2.484-1.363-4-3.512-4-2.233,0-3.522,1.419-3.522,3.979,0,2.579,1.238,3.971,3.541,3.971,2.153,0,3.493-1.495,3.493-3.948" transform="translate(-56.641 -272.374)"/><path class="a" d="M172.728,284.757a22.3,22.3,0,0,0-.159-2.989h4.89a16.737,16.737,0,0,1,.129,2.026,7.038,7.038,0,0,1,5.466-2.326c3.449,0,5.522,1.923,5.522,5.241v7.773h-4.887v-7.547a2.365,2.365,0,0,0-2.682-2.611c-2.335,0-3.419,1.218-3.419,3.7v6.461h-4.86Z" transform="translate(-59.445 -272.378)"/><path class="a" d="M195.6,275.2a3.645,3.645,0,0,1,1.749.457,3.288,3.288,0,0,1,1.327,1.314,3.579,3.579,0,0,1,.008,3.546,3.32,3.32,0,0,1-1.314,1.316,3.574,3.574,0,0,1-3.535,0,3.316,3.316,0,0,1-1.315-1.316,3.545,3.545,0,0,1,.006-3.546,3.287,3.287,0,0,1,1.331-1.314,3.618,3.618,0,0,1,1.743-.457m0,.587a3.013,3.013,0,0,0-1.456.384,2.719,2.719,0,0,0-1.105,1.1,2.948,2.948,0,0,0-.01,2.956,2.774,2.774,0,0,0,1.1,1.1,2.949,2.949,0,0,0,2.945,0,2.773,2.773,0,0,0,1.1-1.1,2.968,2.968,0,0,0-.008-2.956,2.73,2.73,0,0,0-1.105-1.1,3.053,3.053,0,0,0-1.458-.384m-1.559,4.927V276.9h1.315a3.227,3.227,0,0,1,.974.105.926.926,0,0,1,.479.369.984.984,0,0,1,.184.561,1.033,1.033,0,0,1-.3.73,1.184,1.184,0,0,1-.795.347,1.141,1.141,0,0,1,.326.2,4.484,4.484,0,0,1,.564.758l.465.747h-.75l-.34-.6a3.14,3.14,0,0,0-.645-.888.786.786,0,0,0-.495-.131h-.363v1.622Zm.619-2.149h.75a1.221,1.221,0,0,0,.73-.16.519.519,0,0,0,.195-.424.535.535,0,0,0-.091-.3.56.56,0,0,0-.265-.2,1.853,1.853,0,0,0-.617-.067h-.7Z" transform="translate(-61.986 -271.56)"/><line class="c" y2="26.788" transform="translate(149.859 0.341)"/></g></g></svg>