<?xml version="1.0" encoding="utf-8"?>
<!-- Generator: Adobe Illustrator 22.0.1, SVG Export Plug-In . SVG Version: 6.00 Build 0)  -->
<svg version="1.1" id="Layer_1" xmlns="http://www.w3.org/2000/svg" xmlns:xlink="http://www.w3.org/1999/xlink" x="0px" y="0px"
	 viewBox="0 0 34 49" style="enable-background:new 0 0 34 49;" xml:space="preserve">
<style type="text/css">
	.st0{fill:#FC8019;}
</style>
<path  class="st0" d="M31.8,21.8c0.2-1.2,0-2.2-0.7-2.7c-1-0.7-2.4-1.2-5.9-1.2c-2.6,0-5.3,0-6.5,0
	c-0.1,0-0.5-0.2-0.5-0.6l0-7.6c0-0.5,0.4-0.9,0.9-0.9c0.5,0,0.9,0.4,0.9,0.9c0,0,0,4.1,0,5.6c0,0.1,0.1,0.5,0.4,0.6
	c2.1,0.6,12.5,0.2,12.4-1.8C31.8,6.2,25.1,0,17.1,0c-2.5,0-5,0.6-7.1,1.7c-5.1,2.7-8.7,8-8.6,14.2C1.4,20.3,4.2,28.1,6,29.3
	c0.8,0.5,1.9,0.3,6.6,0.3c2.2,0,4.2,0,5.1,0c0.1,0,0.6,0.1,0.6,0.6l0,5.8c0,0.5-0.4,0.9-0.9,0.9c-0.5,0-0.9-0.4-0.9-0.9
	c0,0,0-2.3,0-3.2c0-0.2,0-0.5-0.6-0.8c-1.9-0.9-8-0.3-8.4,0.6c-0.1,0.4,0.6,1.8,1.6,3.6c3.5,5.6,7,10,7.5,10.7c0,0,0.1,0.1,0.1,0.1
	C17.5,46.5,29.8,32.8,31.8,21.8z"/>
</svg>
