<?xml version="1.0" encoding="utf-8"?>
<!-- Generator: Adobe Illustrator 21.1.0, SVG Export Plug-In . SVG Version: 6.00 Build 0)  -->
<svg version="1.1" id="Слой_1" xmlns="http://www.w3.org/2000/svg" xmlns:xlink="http://www.w3.org/1999/xlink" x="0px" y="0px"
	 viewBox="0 0 60 60" style="enable-background:new 0 0 60 60;" xml:space="preserve">
<style type="text/css">
	.st0{fill:#fff;}
</style>
<path class="st0" d="M15,15c0-8.3,6.7-15,15-15c8.3,0,15,6.7,15,15H15z M15,45c0-8.3,6.7-15,15-15c-8.3,0-15-6.7-15-15
	C6.7,15,0,21.7,0,30C0,38.3,6.7,45,15,45 M15,45c0,8.3,6.7,15,15,15c8.3,0,15-6.7,15-15H15z M30,30c8.3,0,15,6.7,15,15
	c8.3,0,15-6.7,15-15c0-8.3-6.7-15-15-15C45,23.3,38.3,30,30,30"/>
</svg>
