<?xml version="1.0" encoding="utf-8"?>
<!-- Generator: Adobe Illustrator 21.1.0, SVG Export Plug-In . SVG Version: 6.00 Build 0)  -->
<svg version="1.1" id="Layer_1" xmlns="http://www.w3.org/2000/svg" xmlns:xlink="http://www.w3.org/1999/xlink" x="0px" y="0px"
	 viewBox="0 0 40 40" style="enable-background:new 0 0 40 40;" xml:space="preserve">
<style type="text/css">
	.st0{opacity:4.000000e-02;}
</style>
<title>pattern_1</title>
<g class="st0">
	<polygon points="0,28 6,22 6,28 	"/>
	<polygon points="0,12 6,12 6,18 	"/>
	<polygon points="18,6 12,6 12,0 	"/>
	<polygon points="40,12 34,18 34,12 	"/>
	<path d="M23,11h-6l-6,6v6l6,6h6l6-6v-6L23,11z M23,23h-6v-6h6V23z"/>
	<polygon points="12,34 18,34 12,40 	"/>
	<polygon points="34,22 40,28 34,28 	"/>
	<polygon points="22,6 28,0 28,6 	"/>
	<polygon points="22,34 28,34 28,40 	"/>
	<rect x="6" y="6" width="6" height="6"/>
	<rect x="28" y="6" width="6" height="6"/>
	<rect x="6" y="28" width="6" height="6"/>
	<rect x="28" y="28" width="6" height="6"/>
	<polygon points="34,0 40,0 40,6 	"/>
	<polygon points="40,34.3 34.3,40 40,40 	"/>
	<polygon points="0,34.3 5.7,40 0,40 	"/>
	<polygon points="6,0 0,6 0,0 	"/>
</g>
</svg>
