<?xml version="1.0" encoding="utf-8"?>
<!-- Generator: Adobe Illustrator 21.1.0, SVG Export Plug-In . SVG Version: 6.00 Build 0)  -->
<svg version="1.1" id="Layer_1" xmlns="http://www.w3.org/2000/svg" xmlns:xlink="http://www.w3.org/1999/xlink" x="0px" y="0px"
	 viewBox="0 0 1000 1000" style="enable-background:new 0 0 1000 1000;" xml:space="preserve">
<style type="text/css">
	.st0{fill:#F16A21;}
	.st1{fill:#87189d;}
</style>
<g>
	
		<rect x="655.7" y="526.2" transform="matrix(0.7071 -0.7071 0.7071 0.7071 -195.0676 669.7455)" class="st0" width="110.5" height="88.4"/>
	
		<rect x="515.1" y="385.5" transform="matrix(0.7071 -0.7071 0.7071 0.7071 -136.7879 529.1263)" class="st0" width="110.5" height="88.4"/>
	
		<rect x="335.4" y="150.6" transform="matrix(0.7071 -0.7071 0.7071 0.7071 -62.3568 349.4621)" class="st0" width="110.5" height="198.9"/>
	
		<rect x="515.1" y="666.8" transform="matrix(0.7071 -0.7071 0.7071 0.7071 -335.6868 611.53)" class="st0" width="110.5" height="88.4"/>
	
		<rect x="265.1" y="262.1" transform="matrix(0.7071 -0.7071 0.7071 0.7071 -232.0997 361.5174)" class="st0" width="110.5" height="397.7"/>
	
		<rect x="374.4" y="807.4" transform="matrix(0.7071 -0.7071 0.7071 0.7071 -476.306 553.2504)" class="st0" width="110.5" height="88.4"/>
	
		<rect x="124.4" y="402.7" transform="matrix(0.7071 -0.7071 0.7071 0.7071 -372.7378 303.2566)" class="st0" width="110.5" height="397.7"/>
	
		<rect x="444.7" y="22.9" transform="matrix(0.7071 -0.7071 0.7071 0.7071 91.1893 376.4329)" class="st1" width="110.5" height="110.5"/>
	
		<rect x="340.2" y="265.1" transform="matrix(0.7071 -0.7071 0.7071 0.7071 -68.6191 475.0069)" class="st1" width="397.7" height="110.5"/>
	
		<rect x="357.4" y="655.7" transform="matrix(0.7071 -0.7071 0.7071 0.7071 -294.4755 710.9246)" class="st1" width="707.1" height="110.5"/>
	
		<rect x="216.7" y="515.1" transform="matrix(0.7071 -0.7071 0.7071 0.7071 -236.2601 570.3055)" class="st1" width="707.1" height="110.5"/>
</g>
</svg>
