<svg xmlns="http://www.w3.org/2000/svg" viewBox="0 0 210.68 151.95"><defs><style>.cls-1{fill:#ea5c75;}.cls-2{fill:#9c9b9b;}</style></defs><title>Asset 3</title><g id="Layer_2" data-name="Layer 2"><g id="Layer_1-2" data-name="Layer 1"><path class="cls-1" d="M139.53,28.35l-46.6-27v0A9.68,9.68,0,0,0,85.78.26h0C82.25,1,71.56,7,71.56,7h0a8.9,8.9,0,0,0-4.72,7.81h0l0,53.56h0a9.67,9.67,0,0,0,2.59,6.67h0c2.35,2.73,12.88,9,12.88,9h0a8.89,8.89,0,0,0,9.21.21h0l46.35-26.69.16-.09h0a9.68,9.68,0,0,0,4.31-5.39h0c1.23-3.39,1.59-15.66,1.59-15.66h0A8.89,8.89,0,0,0,139.53,28.35ZM78.08,24V76.39a8.81,8.81,0,0,0,.47,2.83c-5.23-3.4-6.89-4.9-7.33-5.35h0a7.22,7.22,0,0,1-2.32-5.38L69,14.95v0a1.31,1.31,0,0,1,0-.15A6.89,6.89,0,0,1,75.76,8a6.66,6.66,0,0,1,3.18.77l.21.11L122.4,34l2.17,1.27h0a.55.55,0,0,1,.26.5.67.67,0,0,1-.25.48h0l0,0-1.86,1.07-.48.27L116,41.14,82.4,21.56a2.79,2.79,0,0,0-1.29-.42,3.11,3.11,0,0,0-1.47.27A2.86,2.86,0,0,0,78.08,24Zm62.28,27.13h0a7.25,7.25,0,0,1-3.85,4.81l-4.73,2.64-.3.17h0l-36,20.78h0l-5,2.89-.14.08A6.76,6.76,0,0,1,81.18,80a6.64,6.64,0,0,1-.85-3.14,1,1,0,0,1,0-.23V23.89h0a.53.53,0,0,1,.3-.47.55.55,0,0,1,.49,0h.05l1.36.79h0l1,.61h0l6.07,3.5V67.91a2.7,2.7,0,0,0,1.16,1.81,2.75,2.75,0,0,0,2.84.19l45.69-26.22h0l.11-.06a14.06,14.06,0,0,0,2-1.49C141,48.35,140.54,50.54,140.36,51.14Zm.42-11.66a6.53,6.53,0,0,1-2.32,2.25,1.16,1.16,0,0,1-.2.12l-1.06.62L92.47,68.14h0a.44.44,0,0,1-.5,0,.51.51,0,0,1-.22-.41v0h0a.05.05,0,0,1,0,0v-10l33.95-19.47,0,0a2.77,2.77,0,0,0,.91-.9A3,3,0,0,0,127,36a2.74,2.74,0,0,0-1.28-2.5L80.63,7.3h0a9.1,9.1,0,0,0-3-1.14c5.53-2.87,7.66-3.59,8.26-3.75h0a7.23,7.23,0,0,1,6.1.8l3.58,2,42.72,24.86.11.06.13.08A6.76,6.76,0,0,1,140.79,39.48Z"/><path class="cls-2" d="M9.14,112.72H18v-4.84H9q-8.94,0-9,9.59v34.28H4.84v-25h9.4v-4.84H4.84v-4.22C4.84,114.37,6.28,112.72,9.14,112.72Z"/><path class="cls-2" d="M148.48,125.17v26.75h5.1V125.41q0-5.24,4.53-5.25h6.57v-5.09H157.9Q148.48,115.07,148.48,125.17Z"/><path class="cls-2" d="M81.55,105.8H80.18a3.63,3.63,0,0,0-3.8,3.09h0v33q0,10.09,9.41,10.09h3.63v-5.09H86.07c-3,0-4.52-2.65-4.52-6.15v-20.6h9.7V115h-9.7Z"/><path class="cls-2" d="M46,151.74a16.69,16.69,0,0,0,16.69-16.69v-20H57.51v20a11.51,11.51,0,0,1-23,0v-20H29.32v20A16.69,16.69,0,0,0,46,151.74Z"/><path class="cls-2" d="M119.92,151.52a16.59,16.59,0,0,0,16.58-16.59V115.09h-5.15v19.85a11.44,11.44,0,0,1-22.88,0V115.09h-5.14v19.85A16.59,16.59,0,0,0,119.92,151.52Z"/><path class="cls-2" d="M194,151.71A16.67,16.67,0,0,0,210.68,135v-20H205.5v20a11.5,11.5,0,0,1-23,0v-20h-5.17v20A16.67,16.67,0,0,0,194,151.71Z"/></g></g></svg>