<svg xmlns="http://www.w3.org/2000/svg" xmlns:xlink="http://www.w3.org/1999/xlink" width="49.024" height="61.711" viewBox="0 0 49.024 61.711"><defs><style>.a{fill:#fff;}.b{fill:#9eacb5;}.c{fill:#004685;}.d,.e,.g{fill:none;stroke:#004685;}.d,.g{stroke-miterlimit:2.5;}.d{stroke-width:0.805px;}.e{stroke-miterlimit:3.864;stroke-width:0.435px;}.f{clip-path:url(#a);}.g{stroke-width:0.805px;}.h{clip-path:url(#b);}</style><clipPath id="a"><path d="M741.6-111.55h5.554v-8.381H741.6Z" transform="translate(-741.601 119.931)"/></clipPath><clipPath id="b"><path d="M742.246-92.727h4.577v-7.765h-4.577Z" transform="translate(-742.246 100.492)"/></clipPath></defs><g transform="translate(0 0.005)"><path class="a" d="M10.613,7.188l4.571,15.164L.02,17.678V45.705l15.268-4.674L11.131,56.187H38.754L34.08,41.241,49,45.827V18.108l-14.814,3.91,4.467-14.83" transform="translate(0.001 0.253)"/><path class="b" d="M49,41.461A86.733,86.733,0,0,0,29.02,36.214a86.788,86.788,0,0,0,5.247,19.98H14.739a86.8,86.8,0,0,0,5.245-19.98A86.77,86.77,0,0,0,0,41.461V21.939a87.186,87.186,0,0,0,19.984,5.244A86.776,86.776,0,0,0,14.739,7.205H34.267A86.76,86.76,0,0,0,29.02,27.183,87.148,87.148,0,0,0,49,21.939" transform="translate(0 0.254)"/><path class="c" d="M35.835,20.377a129.068,129.068,0,0,0,13.171-4.2v3.031A96.184,96.184,0,0,1,32.1,24.12,96.128,96.128,0,0,1,37,7.208h3.037a131.576,131.576,0,0,0-4.2,13.169M36.1,43.3a104.208,104.208,0,0,0,4.2,12.879H37.265A86.934,86.934,0,0,1,32.36,39.554a88.777,88.777,0,0,1,16.664,4.9V47.5A106.04,106.04,0,0,0,36.1,43.3m-22.925-.272A137.3,137.3,0,0,0,0,47.225V44.194a96.185,96.185,0,0,1,16.911-4.912,96.126,96.126,0,0,1-4.905,16.913H8.971a131.357,131.357,0,0,0,4.2-13.169m0-22.649a131.575,131.575,0,0,0-4.2-13.169H12.01A96.127,96.127,0,0,1,16.915,24.12,96.121,96.121,0,0,1,0,19.208V16.177a133.771,133.771,0,0,0,13.171,4.2" transform="translate(0 0.254)"/><path class="a" d="M19.317,4.65A4.261,4.261,0,1,1,25.406,8.5L24.68,60.961l-.08.14a4.619,4.619,0,0,1-2.056,0c-.06-.018-.078-.14-.078-.14L21.75,8.5A4.25,4.25,0,0,1,19.317,4.65" transform="translate(0.702 0)"/><path class="d" d="M19.317,4.65A4.261,4.261,0,1,1,25.406,8.5L24.68,60.961l-.08.14a4.619,4.619,0,0,1-2.056,0c-.06-.018-.078-.14-.078-.14L21.75,8.5A4.25,4.25,0,0,1,19.317,4.65Z" transform="translate(0.702 0)"/><path class="a" d="M30.739,16.964c1.1-7.492-10.7-8.407-16.3-4.855-.265.052.075.96.941,2.093.08.106.993.3.887.467a5.094,5.094,0,0,0,1.019,1.81,15,15,0,0,0,6.608-.607c1.035-.376,1.535-1.81,2.471-1.784.609.008,1.538.809,1.577,2.674.106,4.951-14.1,6.727-14.144,11.968-.057,6.818,13.742,4.663,13.742,11.5,0,5.259-8.944,2.99-8.711,10.044.109,3.314,3.654,4.061,6.5,6.068,2.443,1.722,3.524,3.773,4.113,3.6,1.1-.327.228-1.743-1.32-3.633-1.113-1.364-7.051-4.045-7.023-6.348.049-3.7,9.966-4.3,9.74-10.5-.244-6.613-12.372-7.15-12.73-10.5-.449-4.214,11.587-4.855,12.634-12" transform="translate(0.498 0.316)"/><path class="d" d="M30.739,16.964c1.1-7.492-10.7-8.407-16.3-4.855-.265.052.075.96.941,2.093.08.106.993.3.887.467a5.094,5.094,0,0,0,1.019,1.81,15,15,0,0,0,6.608-.607c1.035-.376,1.535-1.81,2.471-1.784.609.008,1.538.809,1.577,2.674.106,4.951-14.1,6.727-14.144,11.968-.057,6.818,13.742,4.663,13.742,11.5,0,5.259-8.944,2.99-8.711,10.044.109,3.314,3.654,4.061,6.5,6.068,2.443,1.722,3.524,3.773,4.113,3.6,1.1-.327.228-1.743-1.32-3.633-1.113-1.364-7.051-4.045-7.023-6.348.049-3.7,9.966-4.3,9.74-10.5-.244-6.613-12.372-7.15-12.73-10.5C17.656,24.747,29.691,24.106,30.739,16.964Z" transform="translate(0.498 0.316)"/><path class="c" d="M19.84,12.858c.628-.106,1.063-.949,1.429-1.3a9.756,9.756,0,0,0-2.609.757,1.243,1.243,0,0,0,1.18.545" transform="translate(0.681 0.406)"/><path class="a" d="M16.693,14.668a4.711,4.711,0,0,1-1.984.158c-.827-.088-1.208-.7-2.038-.633a2.637,2.637,0,0,0-2.334,1.636,8.5,8.5,0,0,1,2.453-.265c.884.018,1.393.545,2.246.316a2.576,2.576,0,0,0,1.657-1.214" transform="translate(0.376 0.503)"/><path class="e" d="M16.693,14.668a4.711,4.711,0,0,1-1.984.158c-.827-.088-1.208-.7-2.038-.633a2.637,2.637,0,0,0-2.334,1.636,8.5,8.5,0,0,1,2.453-.265c.884.018,1.393.545,2.246.316A2.576,2.576,0,0,0,16.693,14.668Z" transform="translate(0.376 0.503)"/><path class="c" d="M12.448,14.75c-.262.519-.641.537-1.149.835a3.811,3.811,0,0,1-1.986.625c.786-1.151,3.135-1.46,3.135-1.46" transform="translate(0.34 0.524)"/><path class="c" d="M16.32,14.25c.9,0,1.4.052,2.3.052a3.526,3.526,0,0,0,1.618-.262l.838.262a5.368,5.368,0,0,0-1.1.265l-.889.158a6.431,6.431,0,0,1-1.8.054c-.456,0-.716-.132-1.175-.161" transform="translate(0.587 0.498)"/><g class="f" transform="translate(21.629 30.29)"><g transform="translate(-1.61 -29.919)"><path class="a" d="M0,.153A4.259,4.259,0,0,1,4.261-4.1,4.259,4.259,0,0,1,6.089,4l-.726,52.5-.08.14a4.615,4.615,0,0,1-2.056,0c-.06-.018-.078-.14-.078-.14L2.432,4A4.253,4.253,0,0,1,0,.153" transform="translate(0 4.102)"/></g><g transform="translate(-1.61 -29.919)"><path class="g" d="M0,.153A4.259,4.259,0,0,1,4.261-4.1,4.259,4.259,0,0,1,6.089,4l-.726,52.5-.08.14a4.615,4.615,0,0,1-2.056,0c-.06-.018-.078-.14-.078-.14L2.432,4A4.253,4.253,0,0,1,0,.153Z" transform="translate(0 4.102)"/></g></g><g class="h" transform="translate(22.298 50.434)"><g transform="translate(-2.279 -50.082)"><path class="a" d="M0,.153A4.259,4.259,0,0,1,4.261-4.1,4.259,4.259,0,0,1,6.089,4l-.726,52.5-.08.14a4.615,4.615,0,0,1-2.056,0c-.06-.018-.078-.14-.078-.14L2.432,4A4.253,4.253,0,0,1,0,.153" transform="translate(0 4.102)"/></g><g transform="translate(-2.279 -50.082)"><path class="g" d="M0,.153A4.259,4.259,0,0,1,4.261-4.1,4.259,4.259,0,0,1,6.089,4l-.726,52.5-.08.14a4.615,4.615,0,0,1-2.056,0c-.06-.018-.078-.14-.078-.14L2.432,4A4.253,4.253,0,0,1,0,.153Z" transform="translate(0 4.102)"/></g></g></g></svg>