<svg width="63" height="56" viewBox="0 0 63 56" fill="none" xmlns="http://www.w3.org/2000/svg">
<path d="M54.833 10.8882L58.7219 8.16602V34.6105H54.833V10.8882Z" fill="#009688"/>
<path d="M6.61133 10.8882L2.72244 8.16602V34.6105H6.61133V10.8882Z" fill="#009688"/>
<path fill-rule="evenodd" clip-rule="evenodd" d="M18.0833 14C12.8333 10.1111 8.16667 7 2.72222 4.66667L0 0C6.69812 1.54572 14.4166 5.76436 20.5816 11.1775C26.7329 16.5787 31.865 23.8456 33.4444 31.1111H29.5556C27.6111 24.8889 23.3333 18.6667 18.0833 14Z" fill="#009688"/>
<path fill-rule="evenodd" clip-rule="evenodd" d="M44.528 14C49.778 10.1111 54.4447 7 59.8891 4.66667L62.6113 0C55.9132 1.54572 48.1948 5.76436 42.0298 11.1775C35.8785 16.5787 30.7463 23.8456 29.1669 31.1111H33.0558C35.0002 24.8889 39.278 18.6667 44.528 14Z" fill="#009688"/>
<path fill-rule="evenodd" clip-rule="evenodd" d="M46.0829 27.9996C47.6937 27.9996 48.9996 26.6937 48.9996 25.0829C48.9996 23.4721 47.6937 22.1662 46.0829 22.1662C44.4721 22.1662 43.1662 23.4721 43.1662 25.0829C43.1662 26.6937 44.4721 27.9996 46.0829 27.9996ZM46.0829 31.8885C49.8415 31.8885 52.8885 28.8415 52.8885 25.0829C52.8885 21.3243 49.8415 18.2773 46.0829 18.2773C42.3243 18.2773 39.2773 21.3243 39.2773 25.0829C39.2773 28.8415 42.3243 31.8885 46.0829 31.8885Z" fill="#009688"/>
<path fill-rule="evenodd" clip-rule="evenodd" d="M14.9725 27.9996C16.5834 27.9996 17.8892 26.6937 17.8892 25.0829C17.8892 23.4721 16.5834 22.1662 14.9725 22.1662C13.3617 22.1662 12.0559 23.4721 12.0559 25.0829C12.0559 26.6937 13.3617 27.9996 14.9725 27.9996ZM14.9725 31.8885C18.7312 31.8885 21.7781 28.8415 21.7781 25.0829C21.7781 21.3243 18.7312 18.2773 14.9725 18.2773C11.2139 18.2773 8.16699 21.3243 8.16699 25.0829C8.16699 28.8415 11.2139 31.8885 14.9725 31.8885Z" fill="#009688"/>
<rect x="9.72266" y="40.834" width="42.3889" height="1.94444" fill="#009688"/>
<path d="M13.3613 46.666L15.6403 52.5758L17.9194 46.666H20.7807V55.9993H18.6957V50.1416L16.448 55.9993H14.8327L12.5849 50.1416V55.9993H10.5V46.666H13.3613Z" fill="#009688"/>
<path d="M24.4058 54.1704L23.7171 55.9993H21.4694L25.1822 46.666H27.2484L30.9612 55.9993H28.7135L28.0248 54.1704H24.4058ZM26.2153 49.3996L25.0946 52.3545H27.336L26.2153 49.3996Z" fill="#009688"/>
<path d="M34.5112 46.666L36.7903 52.5758L39.0693 46.666H41.9306V55.9993H39.8457V50.1416L37.5979 55.9993H35.9826L33.7349 50.1416V55.9993H31.6499V46.666H34.5112Z" fill="#009688"/>
<path d="M45.5558 54.1704L44.867 55.9993H42.6193L46.3321 46.666H48.3983L52.1111 55.9993H49.8634L49.1747 54.1704H45.5558ZM47.3652 49.3996L46.2445 52.3545H48.4859L47.3652 49.3996Z" fill="#009688"/>
</svg>
