<svg id="Слой_1" data-name="Слой 1" xmlns="http://www.w3.org/2000/svg" viewBox="0 0 199.73 45.03"><defs><style>.cls-1{opacity:0.61;}.cls-2{fill:#a4a4af;}</style></defs><title>Монтажная область 1</title><g id="logo-bw" class="cls-1"><g id="Page-1"><g id="Homepage"><g id="footer"><g id="logo-bw-2" data-name="logo-bw"><g id="springboard-logo-b_w-CMYK" data-name="springboard-logo-b&amp;w-CMYK"><path id="Fill-1" class="cls-2" d="M13.14,1.28l6.81,11.41,2.15-1.28L15.28,0Zm-4,2.4,6.83,11.43,2.15-1.28L11.24,2.4ZM5,6.11l4.07,6.74L2.21,9,1,11.19,7.81,15H0v2.5H7.55L.87,21,2,23.23,9,19.57,4.74,26.18l2.1,1.35,7.2-11.28L7.15,4.82ZM8.67,28.78l6.9,11.43,2.14-1.29-4.07-6.74L20.51,36l1.22-2.18L14.92,30h7.8v-2.5H15.17L21.85,24,20.69,21.8l-7,3.66L18,18.85l-2.1-1.35Zm-4,2.41,6.82,11.44,2.15-1.28L6.82,29.9ZM.62,33.58,7.44,45l2.15-1.28L2.77,32.31Z"/><g id="Group-18"><path id="Fill-3" class="cls-2" d="M41.19,17.16a3.29,3.29,0,0,0-1.52-1.05,5.46,5.46,0,0,0-1.82-.34,4.76,4.76,0,0,0-1,.12,3.94,3.94,0,0,0-1,.37,2.18,2.18,0,0,0-.77.67,1.69,1.69,0,0,0-.3,1,1.67,1.67,0,0,0,.71,1.45,6.75,6.75,0,0,0,1.79.86q1.08.35,2.32.71a9.62,9.62,0,0,1,2.32,1,5.5,5.5,0,0,1,1.79,1.75,5.32,5.32,0,0,1,.71,2.93,6.74,6.74,0,0,1-.65,3A6.17,6.17,0,0,1,42,31.84a7.48,7.48,0,0,1-2.57,1.27,11.33,11.33,0,0,1-3.09.42,11.22,11.22,0,0,1-3.79-.62,9.47,9.47,0,0,1-3.26-2l3.28-3.61a4.79,4.79,0,0,0,1.79,1.46,5,5,0,0,0,3.37.38,3.71,3.71,0,0,0,1-.4,2.24,2.24,0,0,0,.74-.68,1.7,1.7,0,0,0,.28-1,1.77,1.77,0,0,0-.72-1.5,6.7,6.7,0,0,0-1.82-.93q-1.1-.38-2.37-.77a10.62,10.62,0,0,1-2.37-1,5.7,5.7,0,0,1-1.82-1.72,4.9,4.9,0,0,1-.73-2.81,6.29,6.29,0,0,1,.67-3,6.43,6.43,0,0,1,1.78-2.13,7.73,7.73,0,0,1,2.56-1.29,10.49,10.49,0,0,1,3-.43,11.76,11.76,0,0,1,3.43.5,7.93,7.93,0,0,1,3,1.69Z"/><path id="Fill-5" class="cls-2" d="M51,25.8A3.72,3.72,0,0,0,52,28.44a3.91,3.91,0,0,0,5.24,0,3.72,3.72,0,0,0,.93-2.63,3.72,3.72,0,0,0-.93-2.63,3.91,3.91,0,0,0-5.24,0A3.72,3.72,0,0,0,51,25.8ZM47,18.61H51v1.89h.06a4.94,4.94,0,0,1,.69-.78,5.32,5.32,0,0,1,1-.72,6.35,6.35,0,0,1,1.26-.53,5,5,0,0,1,1.45-.21,7.42,7.42,0,0,1,2.9.55,6.47,6.47,0,0,1,2.23,1.54,6.87,6.87,0,0,1,1.44,2.35,8.57,8.57,0,0,1,.5,3,9.08,9.08,0,0,1-.46,2.89A8,8,0,0,1,60.82,31a6.35,6.35,0,0,1-2.06,1.7,5.83,5.83,0,0,1-2.75.64,7.64,7.64,0,0,1-2.59-.43,4.14,4.14,0,0,1-2-1.46h-.06v8.29H47Z"/><path id="Fill-7" class="cls-2" d="M65,18.61h4.44v2.31h.06a5.46,5.46,0,0,1,1.69-2,4.26,4.26,0,0,1,2.46-.67l.77,0a3.85,3.85,0,0,1,.71.12v4.05a6.76,6.76,0,0,0-.93-.22,6.11,6.11,0,0,0-1-.07,4.73,4.73,0,0,0-2,.35,2.67,2.67,0,0,0-1.14,1A3.76,3.76,0,0,0,69.58,25a14.82,14.82,0,0,0-.12,2v6H65Z"/><path id="Fill-9" class="cls-2" d="M77.59,33H82V18.61H77.59Zm-.35-18.91A2.58,2.58,0,1,1,78,15.9,2.48,2.48,0,0,1,77.24,14.08Z"/><path id="Fill-11" class="cls-2" d="M85.23,18.61h4.26v2h.06a3.55,3.55,0,0,1,.59-.83,4.32,4.32,0,0,1,.92-.74,5.28,5.28,0,0,1,1.21-.53,5.07,5.07,0,0,1,1.48-.21,6.12,6.12,0,0,1,2.72.52,3.94,3.94,0,0,1,1.61,1.44,5.81,5.81,0,0,1,.78,2.16,16.47,16.47,0,0,1,.21,2.69V33H94.64V26q0-.62,0-1.29a4.1,4.1,0,0,0-.27-1.23,1.91,1.91,0,0,0-2-1.27,2.73,2.73,0,0,0-1.39.31,2.12,2.12,0,0,0-.81.83,3.4,3.4,0,0,0-.37,1.17,10,10,0,0,0-.09,1.36V33H85.23Z"/><path id="Fill-12" class="cls-2" d="M106.12,25.72a3.44,3.44,0,0,0,.27,1.35,3.48,3.48,0,0,0,.75,1.12,3.89,3.89,0,0,0,1.13.78,3.28,3.28,0,0,0,1.41.3,3.32,3.32,0,0,0,1.39-.3,3.85,3.85,0,0,0,1.14-.78,3.49,3.49,0,0,0,.75-1.12,3.53,3.53,0,0,0,0-2.69,3.5,3.5,0,0,0-.75-1.12,3.88,3.88,0,0,0-1.14-.78,3.33,3.33,0,0,0-1.39-.3,3.3,3.3,0,0,0-1.41.3,3.92,3.92,0,0,0-1.13.78,3.49,3.49,0,0,0-.75,1.12A3.44,3.44,0,0,0,106.12,25.72Zm11.19,6.07q0,4.08-2.06,6.2T109,40.1a16.91,16.91,0,0,1-3.79-.43A8.58,8.58,0,0,1,101.77,38l2.46-3.67a9.31,9.31,0,0,0,2.18,1.36,6.13,6.13,0,0,0,2.5.5,4,4,0,0,0,3-1,3.49,3.49,0,0,0,1-2.53V31.28h-.06a4.18,4.18,0,0,1-1.91,1.47,6.1,6.1,0,0,1-2.15.43,7.39,7.39,0,0,1-2.9-.55,6.45,6.45,0,0,1-2.23-1.54,6.85,6.85,0,0,1-1.43-2.35,8.53,8.53,0,0,1-.5-3,8.67,8.67,0,0,1,.46-2.78,7.63,7.63,0,0,1,1.3-2.4,6.55,6.55,0,0,1,2.06-1.67,5.83,5.83,0,0,1,2.75-.64,6.68,6.68,0,0,1,3.14.74,5.28,5.28,0,0,1,1.07.72,4.6,4.6,0,0,1,.71.78h.06V18.61h4.08Z"/><path id="Fill-13" class="cls-2" d="M124.37,25.8a3.72,3.72,0,0,0,.93,2.63,3.91,3.91,0,0,0,5.24,0,3.72,3.72,0,0,0,.93-2.63,3.72,3.72,0,0,0-.93-2.63,3.91,3.91,0,0,0-5.24,0A3.73,3.73,0,0,0,124.37,25.8Zm-4.08-15.18h4.44v9.53h.06a4.15,4.15,0,0,1,2-1.46,7.63,7.63,0,0,1,2.59-.43,5.83,5.83,0,0,1,2.75.64,6.35,6.35,0,0,1,2.06,1.7,8,8,0,0,1,1.3,2.44,9.08,9.08,0,0,1,.46,2.89,8.58,8.58,0,0,1-.5,3A6.88,6.88,0,0,1,134,31.26a6.45,6.45,0,0,1-2.23,1.54,7.42,7.42,0,0,1-2.9.55,5,5,0,0,1-1.45-.21,6.31,6.31,0,0,1-1.26-.53,5.25,5.25,0,0,1-1-.73,4.84,4.84,0,0,1-.69-.78h-.06V33h-4.08Z"/><path id="Fill-14" class="cls-2" d="M142.42,25.8a3.72,3.72,0,0,0,.93,2.63,3.91,3.91,0,0,0,5.24,0,3.72,3.72,0,0,0,.93-2.63,3.73,3.73,0,0,0-.93-2.63,3.91,3.91,0,0,0-5.24,0,3.72,3.72,0,0,0-.93,2.63m-4.44,0a7.54,7.54,0,0,1,.62-3.11,7.15,7.15,0,0,1,1.7-2.38,7.5,7.5,0,0,1,2.54-1.52,9.41,9.41,0,0,1,6.24,0,7.53,7.53,0,0,1,2.55,1.52,7.15,7.15,0,0,1,1.7,2.38,8.06,8.06,0,0,1,0,6.22,7.15,7.15,0,0,1-1.7,2.38,7.53,7.53,0,0,1-2.55,1.52,9.41,9.41,0,0,1-6.24,0,7.5,7.5,0,0,1-2.54-1.52,7.14,7.14,0,0,1-1.7-2.38A7.54,7.54,0,0,1,138,25.8"/><path id="Fill-15" class="cls-2" d="M164.5,26.69c-.34,0-.75,0-1.26,0a6.34,6.34,0,0,0-1.45.25,3.21,3.21,0,0,0-1.18.62,1.43,1.43,0,0,0-.49,1.15,1.27,1.27,0,0,0,.68,1.18,2.84,2.84,0,0,0,1.42.38,4.45,4.45,0,0,0,1.26-.18,3.76,3.76,0,0,0,1.08-.5,2.44,2.44,0,0,0,.75-.83,2.38,2.38,0,0,0,.28-1.18v-.95Zm1.1,4.5h-.06a4.18,4.18,0,0,1-2,1.66,6.77,6.77,0,0,1-2.59.5,6.68,6.68,0,0,1-1.94-.28,4.87,4.87,0,0,1-1.64-.84,4.08,4.08,0,0,1-1.12-1.39,4.24,4.24,0,0,1-.41-1.92,4.42,4.42,0,0,1,.46-2.1,4.12,4.12,0,0,1,1.24-1.42,6.19,6.19,0,0,1,1.79-.87,13.18,13.18,0,0,1,2.09-.46,19.91,19.91,0,0,1,2.16-.18l2,0a2.31,2.31,0,0,0-.84-1.88,3,3,0,0,0-2-.7,4.35,4.35,0,0,0-2,.46A5.47,5.47,0,0,0,159.14,23l-2.37-2.43a8.13,8.13,0,0,1,2.9-1.73,10.36,10.36,0,0,1,3.43-.58,9,9,0,0,1,3.21.49,4.68,4.68,0,0,1,2,1.44,5.54,5.54,0,0,1,1,2.32,15.27,15.27,0,0,1,.3,3.18V33H165.6Z"/><path id="Fill-16" class="cls-2" d="M172.59,18.61H177v2.31h.06a5.46,5.46,0,0,1,1.69-2,4.27,4.27,0,0,1,2.46-.67l.77,0a3.85,3.85,0,0,1,.71.12v4.05a6.74,6.74,0,0,0-.93-.22,6.09,6.09,0,0,0-1-.07,4.73,4.73,0,0,0-2,.35,2.67,2.67,0,0,0-1.14,1,3.77,3.77,0,0,0-.52,1.52,15,15,0,0,0-.12,2v6h-4.44Z"/><path id="Fill-17" class="cls-2" d="M195.64,25.8a3.73,3.73,0,0,0-.93-2.63,3.91,3.91,0,0,0-5.24,0,3.73,3.73,0,0,0-.93,2.63,3.72,3.72,0,0,0,.93,2.63,3.91,3.91,0,0,0,5.24,0A3.72,3.72,0,0,0,195.64,25.8ZM199.73,33h-4.08V31.1h-.06a4.85,4.85,0,0,1-.7.78,5.25,5.25,0,0,1-1,.73,6.2,6.2,0,0,1-1.27.53,5,5,0,0,1-1.43.21,7.42,7.42,0,0,1-2.9-.55A6.46,6.46,0,0,1,186,31.26a6.86,6.86,0,0,1-1.44-2.35,8.55,8.55,0,0,1-.5-3,9,9,0,0,1,.46-2.89,7.93,7.93,0,0,1,1.3-2.44,6.35,6.35,0,0,1,2.06-1.7,5.83,5.83,0,0,1,2.75-.64,7.64,7.64,0,0,1,2.59.43,4.15,4.15,0,0,1,2,1.46h.06V10.62h4.44Z"/></g></g></g></g></g></g></g></svg>