<svg version="1.1" id="Layer_1" xmlns="http://www.w3.org/2000/svg" x="0" y="0" viewBox="-61.9 71.6 141.7 141.7" xml:space="preserve"><style>.st0{display:none}.st1{display:inline}.st2,.st3{fill:none;stroke:#9e1f63;stroke-width:.1596;stroke-miterlimit:10}.st3{stroke:#00a651;stroke-width:.75}.st4,.st5{fill:#9e1f63}.st5{display:inline}.st6{fill:#c22036}.st7{fill:#8da5b5}.st8{fill:#f05235}.st9{fill:#faaa3a}.st10{display:inline;fill:none;stroke:#000;stroke-width:1.3072;stroke-miterlimit:10}</style><g id="Layer_7" class="st0"><g class="st1"><path class="st2" d="M-78.4-102.3h61.8v61.8h-61.8zM-16.6-102.3h61.8v61.8h-61.8zM45.2-102.3H107v61.8H45.2z"/><path class="st2" d="M106.9-102.3h61.8v61.8h-61.8zM-78.4-40.5h61.8v61.8h-61.8zM-16.6-40.5h61.8v61.8h-61.8zM45.2-40.5H107v61.8H45.2z"/><path class="st2" d="M106.9-40.5h61.8v61.8h-61.8zM-78.4 21.2h61.8V83h-61.8zM-16.6 21.2h61.8V83h-61.8z"/><path class="st2" d="M45.2 21.2H107V83H45.2z"/><path class="st2" d="M106.9 21.2h61.8V83h-61.8zM-78.4 83h61.8v61.8h-61.8zM-16.6 83h61.8v61.8h-61.8zM45.2 83H107v61.8H45.2z"/><path class="st2" d="M106.9 83h61.8v61.8h-61.8z"/><circle class="st2" cx="45.2" cy="21.2" r="123.5"/></g><g class="st1"><path class="st2" d="M168.7-102.3h61.8v61.8h-61.8z"/><path class="st2" d="M230.4-102.3h61.8v61.8h-61.8zM292.2-102.3H354v61.8h-61.8z"/><path class="st2" d="M353.9-102.3h61.8v61.8h-61.8zM168.7-40.5h61.8v61.8h-61.8z"/><path class="st2" d="M230.4-40.5h61.8v61.8h-61.8zM292.2-40.5H354v61.8h-61.8z"/><path class="st2" d="M353.9-40.5h61.8v61.8h-61.8zM168.7 21.2h61.8V83h-61.8z"/><path class="st2" d="M230.4 21.2h61.8V83h-61.8zM292.2 21.2H354V83h-61.8z"/><path class="st2" d="M353.9 21.2h61.8V83h-61.8zM168.7 83h61.8v61.8h-61.8z"/><path class="st2" d="M230.4 83h61.8v61.8h-61.8zM292.2 83H354v61.8h-61.8z"/><path class="st2" d="M353.9 83h61.8v61.8h-61.8z"/><circle class="st2" cx="292.2" cy="21.2" r="123.5"/></g><g class="st1"><path class="st2" d="M-78.4 144.4h61.8v61.8h-61.8zM-16.6 144.4h61.8v61.8h-61.8zM45.2 144.4H107v61.8H45.2z"/><path class="st2" d="M106.9 144.4h61.8v61.8h-61.8zM-78.4 206.2h61.8V268h-61.8zM-16.6 206.2h61.8V268h-61.8zM45.2 206.2H107V268H45.2z"/><path class="st2" d="M106.9 206.2h61.8V268h-61.8zM-78.4 268h61.8v61.8h-61.8zM-16.6 268h61.8v61.8h-61.8zM45.2 268H107v61.8H45.2z"/><path class="st2" d="M106.9 268h61.8v61.8h-61.8zM-78.4 329.7h61.8v61.8h-61.8zM-16.6 329.7h61.8v61.8h-61.8z"/><path class="st2" d="M45.2 329.7H107v61.8H45.2z"/><path class="st2" d="M106.9 329.7h61.8v61.8h-61.8z"/><circle class="st2" cx="45.2" cy="268" r="123.5"/></g><g class="st1"><path class="st2" d="M168.7 144.4h61.8v61.8h-61.8z"/><path class="st2" d="M230.4 144.4h61.8v61.8h-61.8zM292.2 144.4H354v61.8h-61.8z"/><path class="st2" d="M353.9 144.4h61.8v61.8h-61.8zM168.7 206.2h61.8V268h-61.8z"/><path class="st2" d="M230.4 206.2h61.8V268h-61.8zM292.2 206.2H354V268h-61.8z"/><path class="st2" d="M353.9 206.2h61.8V268h-61.8zM168.7 268h61.8v61.8h-61.8z"/><path class="st2" d="M230.4 268h61.8v61.8h-61.8zM292.2 268H354v61.8h-61.8z"/><path class="st2" d="M353.9 268h61.8v61.8h-61.8zM168.7 329.7h61.8v61.8h-61.8z"/><path class="st2" d="M230.4 329.7h61.8v61.8h-61.8zM292.2 329.7H354v61.8h-61.8z"/><path class="st2" d="M353.9 329.7h61.8v61.8h-61.8z"/><circle class="st2" cx="292.2" cy="268" r="123.5"/></g><g class="st1"><path class="st3" d="M228.9 108.3H119.8l21.3-23.5 91.7-.1zM222.3 156H76.8l21.1-24.3H226zM215.5 203.8H34.2l21.1-23.1h163.8z"/><path class="st3" d="M299.5 108.2l-41.6.2-3.2 23.3h38.4l-3.5 24.4h-38.4l-6.9 47.7h-28.9l16.8-119h70.3l-3 23.4z"/><circle class="st3" cx="168.3" cy="144.3" r="184.8"/></g></g><g id="Layer_2" class="st0"><g class="st1"><path class="st4" d="M48.3-3.4H17l6.8-7.5h24.5zM48.3 11.8h-45L10 4h38.3zM48.3 27h-58.6l6.7-7.4h51.9z"/></g><g class="st1"><path class="st4" d="M57.9-3.5v9.1h12.2V13H57.9v14h-9.2v-37.9h22.4v7.4H57.9zM92.8 27l-.5-3.2c-1.4 2.2-3.8 4.1-8 4.1-7.8 0-10.7-5.8-10.7-15 0-8.8 3.2-15 11.1-15 4.4 0 6.5 1.9 7.6 4h.1l.4-3.2h8.1v28.4l-8.1-.1zm-.9-16.2c0-3.6-1.9-5.9-4.4-5.9-3.3 0-4.6 2.6-4.6 6.1v3.6c0 4 1.6 6.1 4.4 6.1 3 0 4.7-2.6 4.7-5.8l-.1-4.1zM115.2 27.8c-3.5 0-6.7-.6-9.8-2l.5-6.8c2.5 1.4 5.5 2.3 8.3 2.3 3.4 0 4-1.2 4-2.4 0-1.3-.9-1.9-3.3-2.8l-1.9-.6c-4-1.4-7.4-3.6-7.4-9.1 0-6 4.9-8.7 11.8-8.7 3.1 0 6.5.9 8.5 1.8l-.4 6.8c-2.5-1.3-5.6-2.2-7.4-2.2-2.4 0-3.2.8-3.2 1.9 0 1.2 1 1.9 3.5 2.8l1.6.7c3.8 1.3 7.2 3.5 7.2 9 0 5.9-4.2 9.3-12 9.3zM142.6 27.9c-5.7 0-8.3-3-8.3-8.6l.1-13.6h-5.7v-7.2h5.7l.1-7 9-1-.1 8h6.6v7.2h-6.6l-.1 11.7c0 2.6.9 3.3 3 3.3 1.2 0 2.8-.4 3.4-.6l.4 6.4c-1.2.5-4.2 1.4-7.5 1.4zM154.4 27v-37.9h9.2v30.6l13.6.1V27h-22.8zM198.5 27l-.5-3.2c-1.4 2.2-3.8 4.1-8 4.1-7.8 0-10.7-5.8-10.7-15 0-8.8 3.2-15 11.1-15 4.4 0 6.5 1.9 7.6 4h.1l.4-3.2h8.1v28.4l-8.1-.1zm-.9-16.2c0-3.6-1.9-5.9-4.4-5.9-3.3 0-4.6 2.6-4.6 6.1v3.6c0 4 1.6 6.1 4.4 6.1 3 0 4.7-2.6 4.7-5.8v-4.1h-.1zM230.5 27V10.1c0-2.4-.8-4.5-4.1-4.5-2.7 0-4.9 2-4.9 4.3V27h-9V-1.4h8.6v3.2h.1c1-1.3 4.2-4 9-4 5.1 0 9.3 2.5 9.3 9.5V27h-9zM269.6 15.2h-16.9v.3c0 2.6 1.5 5.3 6.2 5.3 3.2 0 6.3-.9 8.9-2l.4 6.8c-2.2 1.2-5.7 2.2-10.3 2.2-11.1 0-14-5.6-14-14.9 0-9.1 3.6-15.2 13.9-15.2 9.1 0 12 5.4 12 14.1-.1.6-.1 2.5-.2 3.4zM257.3 3.6c-3.4 0-4.8 3-4.8 5.9h8.9c0-2.6-.5-5.9-4.1-5.9z"/></g><g class="st1"><path class="st4" d="M460.3-2.6h-34.7l6.7-7.5h29.2zM458.2 12.5h-46.3l6.7-7.7h40.8zM456 27.7h-57.7l6.7-7.3h52.2z"/></g><path class="st5" d="M482.7-2.8l-13.2.1-1.2 9.1h12.2l-1.1 7.4h-12.2l-1.9 14H456l5.3-37.9h22.4l-1 7.3zM508.6 27.7h-7.9l.3-4.2h-.1c-1 1.6-4.2 5.1-9.1 5.1-5.8 0-8.7-3.9-8.7-10.9C483 6.6 488-1.5 496.6-1.5c4 0 6.4 1.9 7 2.9h.1l.3-2h8.6l-4 28.3zM498.2 5.6c-3.1 0-4.9 3-5.5 6.5l-.5 3.7c-.1.5-.1 1.1-.1 1.5 0 2.5 1.1 4 3.2 4 3 0 5.7-4 6.2-7.9l.9-6.1c-.5-.5-2-1.7-4.2-1.7zM537.4 7.4c-1.3-.8-4.8-2.4-7.8-2.4-1.2 0-3.2.3-3.2 2 0 1.3 1.1 1.9 3.1 2.7l.8.3c3.4 1.4 7.2 3.3 7.2 8.2 0 7.4-6.1 10.4-13.2 10.4-4.8 0-8.4-1.4-9.6-2l1.4-6.9c1.2.8 4.4 2.4 7.9 2.4 1.9 0 4.3-.6 4.3-2.5 0-1.3-1.5-2-3.6-2.9l-.7-.3c-3.5-1.4-6.7-3.8-6.7-8.2 0-6.8 5.6-9.7 12.1-9.7 4.9 0 8.4 1.4 9.6 2l-1.6 6.9zM562.5 6.5h-6.6l-1.7 12.1c-.1.4-.1.6-.1.7 0 1.8 1.2 2.2 2.8 2.2 1.3 0 3.2-.6 3.9-1l-.5 6.7c-1 .5-4 1.4-7.6 1.4-5.2 0-7.8-2.4-7.8-7.3 0-.7.1-1.5.2-2.3l1.8-12.6h-5.7l1-7.2h5.7l1-7 9.1-1-1.1 8h6.6l-1 7.3zM588 27.7h-22.8l5.3-37.9h9.2l-4.2 30.7 13.6.1-1.1 7.1zM618.6 27.7h-7.9l.3-4.2h-.1c-1 1.6-4.2 5.1-9.1 5.1-5.8 0-8.7-3.9-8.7-10.9C593 6.6 598-1.5 606.6-1.5c4 0 6.4 1.9 7 2.9h.1l.3-2h8.6l-4 28.3zM608.2 5.6c-3.1 0-4.9 3-5.5 6.5l-.5 3.7c-.1.5-.1 1.1-.1 1.5 0 2.5 1.1 4 3.2 4 3 0 5.7-4 6.2-7.9l.9-6.1c-.5-.5-2-1.7-4.2-1.7zM652.7 27.7h-9l2.5-17.5c.1-.4.1-.6.1-.9 0-1.4-.5-3.4-2.8-3.4-3.6 0-6.4 4.8-6.9 8.4l-1.9 13.4h-9l4-28.4h8.2l-.6 4.5h.1c1.1-1.8 4.7-5.3 10.2-5.3 5.2 0 8 3.2 8 8.2 0 .7-.1 1.4-.2 2.2l-2.7 18.8zM668.4 17.1v.5c0 2 1.6 4 5.2 4 4.3 0 8.2-2.3 9.7-3.4l-.6 7.4c-1.4 1-5.5 3-10.9 3-7.4 0-12.2-3.7-12.2-11.4 0-13.1 7.5-18.7 16-18.7 7.2 0 10.9 3.6 10.9 8.8.1 7.4-10.5 9.8-18.1 9.8zm6.8-12.8c-3 0-5.7 2.6-6.3 7 5.3 0 9.4-1.5 9.4-4.1 0-1.8-1.1-2.9-3.1-2.9z"/><g class="st1"><path d="M48.3-85.6H17l6.8-7.5h24.5zM48.3-70.5h-45l6.7-7.7h38.3zM48.3-55.2h-58.6l6.7-7.4h51.9z"/></g><g class="st1"><path d="M57.9-85.7v9.1h12.2v7.4H57.9v14h-9.2v-37.9h22.4v7.4H57.9zM92.8-55.3l-.5-3.2c-1.4 2.2-3.8 4.1-8 4.1-7.8 0-10.7-5.8-10.7-15 0-8.8 3.2-15 11.1-15 4.4 0 6.5 1.9 7.6 4h.1l.4-3.2h8.1v28.4h-8.1v-.1zm-.9-16.1c0-3.6-1.9-5.9-4.4-5.9-3.3 0-4.6 2.6-4.6 6.1v3.6c0 4 1.6 6.1 4.4 6.1 3 0 4.7-2.6 4.7-5.8l-.1-4.1zM115.2-54.4c-3.5 0-6.7-.6-9.8-2l.5-6.8c2.5 1.4 5.5 2.3 8.3 2.3 3.4 0 4-1.2 4-2.4 0-1.3-.9-1.9-3.3-2.8l-1.9-.6c-4-1.4-7.4-3.6-7.4-9.1 0-6 4.9-8.7 11.8-8.7 3.1 0 6.5.9 8.5 1.8l-.4 6.8c-2.5-1.3-5.6-2.2-7.4-2.2-2.4 0-3.2.8-3.2 1.9 0 1.2 1 1.9 3.5 2.8l1.9.6c3.8 1.3 7.2 3.5 7.2 9-.3 6-4.5 9.4-12.3 9.4zM142.6-54.4c-5.7 0-8.3-3-8.3-8.6l.1-13.6h-5.7v-7.2h5.7l.1-7 9-1-.1 8h6.6v7.2h-6.6l-.1 11.7c0 2.6.9 3.3 3 3.3 1.2 0 2.8-.4 3.4-.6l.4 6.4c-1.2.5-4.2 1.4-7.5 1.4zM154.4-55.3v-37.9h9.2v30.6l13.6.1v7.2h-22.8zM198.5-55.3l-.5-3.2c-1.4 2.2-3.8 4.1-8 4.1-7.8 0-10.7-5.8-10.7-15 0-8.8 3.2-15 11.1-15 4.4 0 6.5 1.9 7.6 4h.1l.4-3.2h8.1v28.4h-8.1v-.1zm-.9-16.1c0-3.6-1.9-5.9-4.4-5.9-3.3 0-4.6 2.6-4.6 6.1v3.6c0 4 1.6 6.1 4.4 6.1 3 0 4.7-2.6 4.7-5.8v-4.1h-.1zM230.5-55.3v-16.9c0-2.4-.8-4.5-4.1-4.5-2.7 0-4.9 2-4.9 4.3v17.1h-9v-28.4h8.6v3.2h.1c1-1.3 4.2-4 9-4 5.1 0 9.3 2.5 9.3 9.5v19.7h-9zM269.6-67.1h-16.9v.3c0 2.6 1.5 5.3 6.2 5.3 3.2 0 6.3-.9 8.9-2l.4 6.8c-2.2 1.2-5.7 2.2-10.3 2.2-11.1 0-14-5.6-14-14.9 0-9.1 3.6-15.2 13.9-15.2 9.1 0 12 5.4 12 14.1-.1.7-.1 2.6-.2 3.4zm-12.3-11.6c-3.4 0-4.8 3-4.8 5.9h8.9c0-2.6-.5-5.9-4.1-5.9z"/></g><path class="st1" d="M508.6-54.5h-7.9l.3-4.3h-.1c-1 1.6-4.2 5.1-9.1 5.1-5.8 0-8.7-3.9-8.7-10.9 0-11.2 4.9-19.3 13.5-19.3 4 0 6.4 1.9 7 2.9h.1l.3-2h8.6l-4 28.5zm-10.4-22.1c-3.1 0-4.9 3-5.5 6.5l-.5 3.7c-.1.5-.1 1.1-.1 1.5 0 2.5 1.1 4 3.2 4 3 0 5.7-4 6.2-7.9l.9-6.1c-.5-.6-2-1.7-4.2-1.7zM537.4-74.9c-1.3-.8-4.8-2.4-7.8-2.4-1.2 0-3.2.3-3.2 2 0 1.3 1.1 1.9 3.1 2.7l.8.3c3.4 1.4 7.2 3.3 7.2 8.2 0 7.4-6.1 10.4-13.2 10.4-4.8 0-8.4-1.4-9.6-2l1.4-6.9c1.2.8 4.4 2.4 7.9 2.4 1.9 0 4.3-.6 4.3-2.5 0-1.3-1.5-2-3.6-2.9l-.7-.3c-3.5-1.4-6.7-3.8-6.7-8.2 0-6.8 5.6-9.7 12.1-9.7 4.9 0 8.4 1.4 9.6 2l-1.6 6.9zM562.5-75.7h-6.6l-1.7 12.1c-.1.4-.1.6-.1.7 0 1.8 1.2 2.2 2.8 2.2 1.3 0 3.2-.6 3.9-1l-.5 6.7c-1 .5-4 1.4-7.6 1.4-5.2 0-7.8-2.4-7.8-7.3 0-.7.1-1.5.2-2.3l1.8-12.6h-5.7l1-7.2h5.7l1-7 9.1-1-1.1 8h6.6l-1 7.3zM588-54.5h-22.8l5.3-37.9h9.2l-4.3 30.6 13.6.1-1 7.2zM618.6-54.5h-7.9l.3-4.3h-.1c-1 1.6-4.2 5.1-9.1 5.1-5.8 0-8.7-3.9-8.7-10.9 0-11.2 4.9-19.3 13.5-19.3 4 0 6.4 1.9 7 2.9h.1l.3-2h8.6l-4 28.5zm-10.4-22.1c-3.1 0-4.9 3-5.5 6.5l-.5 3.7c-.1.5-.1 1.1-.1 1.5 0 2.5 1.1 4 3.2 4 3 0 5.7-4 6.2-7.9l.9-6.1c-.5-.6-2-1.7-4.2-1.7zM652.7-54.5h-9l2.5-17.5c.1-.4.1-.6.1-.9 0-1.4-.5-3.4-2.8-3.4-3.6 0-6.4 4.8-6.9 8.4l-1.9 13.4h-9l4-28.4h8.2l-.6 4.5h.1c1.1-1.8 4.7-5.3 10.2-5.3 5.2 0 8 3.2 8 8.2 0 .7-.1 1.4-.2 2.2l-2.7 18.8zM668.4-65.1v.5c0 2 1.6 4 5.2 4 4.3 0 8.2-2.3 9.7-3.4l-.6 7.4c-1.4 1-5.5 3-10.9 3-7.4 0-12.2-3.7-12.2-11.4 0-13.1 7.5-18.7 16-18.7 7.2 0 10.9 3.6 10.9 8.8.1 7.3-10.5 9.8-18.1 9.8zm6.8-12.8c-3 0-5.7 2.6-6.3 7 5.3 0 9.4-1.5 9.4-4.1 0-1.9-1.1-2.9-3.1-2.9z"/><g class="st1"><path class="st6" d="M48.3 85.9H17l6.8-7.5h24.5zM48.3 101.1h-45l6.7-7.7 38.3-.1zM48.3 116.3h-58.6l6.7-7.3 51.9-.1z"/></g><g class="st1"><path class="st6" d="M57.9 85.8v9.1h12.2v7.4H57.9v14h-9.2V78.4h22.4v7.4H57.9zM92.8 116.3l-.5-3.2c-1.4 2.2-3.8 4.1-8 4.1-7.8 0-10.7-5.8-10.7-15 0-8.8 3.2-15 11.1-15 4.4 0 6.5 1.9 7.6 4h.1l.4-3.2h8.1v28.4l-8.1-.1zm-.9-16.2c0-3.6-1.9-5.9-4.4-5.9-3.3 0-4.6 2.6-4.6 6.1v3.6c0 4 1.6 6.1 4.4 6.1 3 0 4.7-2.6 4.7-5.8l-.1-4.1zM115.2 117.1c-3.5 0-6.7-.6-9.8-2l.5-6.8c2.5 1.4 5.5 2.3 8.3 2.3 3.4 0 4-1.2 4-2.4 0-1.3-.9-1.9-3.3-2.8l-1.9-.6c-4-1.4-7.4-3.6-7.4-9.1 0-6 4.9-8.7 11.8-8.7 3.1 0 6.5.9 8.5 1.8l-.4 6.8c-2.5-1.3-5.6-2.2-7.4-2.2-2.4 0-3.2.8-3.2 1.9 0 1.2 1 1.9 3.5 2.8l1.9.6c3.8 1.3 7.2 3.5 7.2 9-.3 6-4.5 9.4-12.3 9.4zM142.6 117.2c-5.7 0-8.3-3-8.3-8.6l.1-13.6h-5.7v-7.1h5.7l.1-7 9-1-.1 8h6.6v7.2h-6.6l-.1 11.7c0 2.6.9 3.3 3 3.3 1.2 0 2.8-.4 3.4-.6l.4 6.4c-1.2.4-4.2 1.3-7.5 1.3zM154.4 116.3V78.4h9.2V109l13.6.1v7.2h-22.8zM198.5 116.3l-.5-3.2c-1.4 2.2-3.8 4.1-8 4.1-7.8 0-10.7-5.8-10.7-15 0-8.8 3.2-15 11.1-15 4.4 0 6.5 1.9 7.6 4h.1l.4-3.2h8.1v28.4l-8.1-.1zm-.9-16.2c0-3.6-1.9-5.9-4.4-5.9-3.3 0-4.6 2.6-4.6 6.1v3.6c0 4 1.6 6.1 4.4 6.1 3 0 4.7-2.6 4.7-5.8v-4.1h-.1zM230.5 116.3V99.4c0-2.4-.8-4.5-4.1-4.5-2.7 0-4.9 2-4.9 4.3v17.1h-9V87.9h8.6v3.2h.1c1-1.3 4.2-4 9-4 5.1 0 9.3 2.5 9.3 9.5v19.7h-9zM269.6 104.5h-16.9v.3c0 2.6 1.5 5.3 6.2 5.3 3.2 0 6.3-.9 8.9-2l.4 6.8c-2.2 1.2-5.7 2.2-10.3 2.2-11.1 0-14-5.6-14-14.9 0-9.1 3.6-15.2 13.9-15.2 9.1 0 12 5.4 12 14.1-.1.6-.1 2.5-.2 3.4zm-12.3-11.6c-3.4 0-4.8 3-4.8 5.9h8.9c0-2.6-.5-5.9-4.1-5.9z"/></g><g class="st1"><path class="st6" d="M460.3 86.7h-34.7l6.7-7.5h29.2zM458.2 101.8h-46.3l6.7-7.7h40.8zM456 117.1h-57.7l6.7-7.4h52.2z"/></g><g class="st1"><path class="st6" d="M482.7 86.5l-13.2.1-1.2 9.1h12.2l-1.1 7.4h-12.2l-1.9 14H456l5.3-37.9h22.4l-1 7.3zM508.6 117.1h-7.9l.3-4.3h-.1c-1 1.6-4.2 5.1-9.1 5.1-5.8 0-8.7-3.9-8.7-10.9 0-11.2 4.9-19.3 13.5-19.3 4 0 6.4 1.9 7 2.9h.1l.3-2h8.6l-4 28.5zm-10.4-22.2c-3.1 0-4.9 3-5.5 6.5l-.5 3.7c-.1.5-.1 1.1-.1 1.5 0 2.5 1.1 4 3.2 4 3 0 5.7-4 6.2-7.9l.9-6.1c-.5-.5-2-1.7-4.2-1.7zM537.4 96.7c-1.3-.8-4.8-2.4-7.8-2.4-1.2 0-3.2.3-3.2 2 0 1.3 1.1 1.9 3.1 2.7l.8.3c3.4 1.4 7.2 3.3 7.2 8.2 0 7.4-6.1 10.4-13.2 10.4-4.8 0-8.4-1.4-9.6-2l1.4-6.9c1.2.8 4.4 2.4 7.9 2.4 1.9 0 4.3-.6 4.3-2.5 0-1.3-1.5-2-3.6-2.9l-.7-.3c-3.5-1.4-6.7-3.8-6.7-8.2 0-6.8 5.6-9.7 12.1-9.7 4.9 0 8.4 1.4 9.6 2l-1.6 6.9zM562.5 95.8h-6.6l-1.7 12.1c-.1.4-.1.6-.1.7 0 1.8 1.2 2.2 2.8 2.2 1.3 0 3.2-.6 3.9-1l-.5 6.7c-1 .5-4 1.4-7.6 1.4-5.2 0-7.8-2.4-7.8-7.3 0-.7.1-1.5.2-2.3l1.8-12.6h-5.7l1-7.2h5.7l1-7 9.1-1-1.1 8h6.6l-1 7.3zM588 117.1h-22.8l5.3-37.9h9.2l-4.3 30.6 13.6.1-1 7.2zM618.6 117.1h-7.9l.3-4.3h-.1c-1 1.6-4.2 5.1-9.1 5.1-5.8 0-8.7-3.9-8.7-10.9 0-11.2 4.9-19.3 13.5-19.3 4 0 6.4 1.9 7 2.9h.1l.3-2h8.6l-4 28.5zm-10.4-22.2c-3.1 0-4.9 3-5.5 6.5l-.5 3.7c-.1.5-.1 1.1-.1 1.5 0 2.5 1.1 4 3.2 4 3 0 5.7-4 6.2-7.9l.9-6.1c-.5-.5-2-1.7-4.2-1.7zM652.7 117.1h-9l2.5-17.5c.1-.4.1-.6.1-.9 0-1.4-.5-3.4-2.8-3.4-3.6 0-6.4 4.8-6.9 8.4l-1.9 13.4h-9l4-28.4h8.2l-.6 4.5h.1c1.1-1.8 4.7-5.3 10.2-5.3 5.2 0 8 3.2 8 8.2 0 .7-.1 1.4-.2 2.2l-2.7 18.8zM668.4 106.4v.5c0 2 1.6 4 5.2 4 4.3 0 8.2-2.3 9.7-3.4l-.6 7.4c-1.4 1-5.5 3-10.9 3-7.4 0-12.2-3.7-12.2-11.4 0-13.1 7.5-18.7 16-18.7 7.2 0 10.9 3.6 10.9 8.8.1 7.4-10.5 9.8-18.1 9.8zm6.8-12.8c-3 0-5.7 2.6-6.3 7 5.3 0 9.4-1.5 9.4-4.1 0-1.8-1.1-2.9-3.1-2.9z"/></g><g class="st1"><path class="st7" d="M48.3 176H17l6.8-7.5h24.5zM48.3 191.2h-45l6.7-7.8h38.3zM48.3 206.4h-58.6l6.7-7.4h51.9z"/></g><g class="st1"><path class="st7" d="M57.9 175.9v9.1h12.2v7.4H57.9v14h-9.2v-37.9h22.4v7.4H57.9zM92.8 206.3l-.5-3.2c-1.4 2.2-3.8 4.1-8 4.1-7.8 0-10.7-5.8-10.7-15 0-8.8 3.2-15 11.1-15 4.4 0 6.5 1.9 7.6 4h.1l.4-3.2h8.1v28.4h-8.1v-.1zm-.9-16.1c0-3.6-1.9-5.9-4.4-5.9-3.3 0-4.6 2.6-4.6 6.1v3.6c0 4 1.6 6.1 4.4 6.1 3 0 4.7-2.6 4.7-5.8l-.1-4.1zM115.2 207.2c-3.5 0-6.7-.6-9.8-2l.5-6.8c2.5 1.4 5.5 2.3 8.3 2.3 3.4 0 4-1.2 4-2.4 0-1.3-.9-1.9-3.3-2.8l-1.9-.6c-4-1.4-7.4-3.6-7.4-9.1 0-6 4.9-8.7 11.8-8.7 3.1 0 6.5.9 8.5 1.8l-.4 6.8c-2.5-1.3-5.6-2.2-7.4-2.2-2.4 0-3.2.8-3.2 1.9 0 1.2 1 1.9 3.5 2.8l1.9.6c3.8 1.3 7.2 3.5 7.2 9-.3 6-4.5 9.4-12.3 9.4zM142.6 207.3c-5.7 0-8.3-3-8.3-8.6l.1-13.6h-5.7v-7.2h5.7l.1-7 9-1-.1 8h6.6v7.2h-6.6l-.1 11.7c0 2.6.9 3.3 3 3.3 1.2 0 2.8-.4 3.4-.6l.4 6.4c-1.2.4-4.2 1.4-7.5 1.4zM154.4 206.3v-37.8h9.2v30.6l13.6.1v7.2l-22.8-.1zM198.5 206.3l-.5-3.2c-1.4 2.2-3.8 4.1-8 4.1-7.8 0-10.7-5.8-10.7-15 0-8.8 3.2-15 11.1-15 4.4 0 6.5 1.9 7.6 4h.1l.4-3.2h8.1v28.4h-8.1v-.1zm-.9-16.1c0-3.6-1.9-5.9-4.4-5.9-3.3 0-4.6 2.6-4.6 6.1v3.6c0 4 1.6 6.1 4.4 6.1 3 0 4.7-2.6 4.7-5.8v-4.1h-.1zM230.5 206.3v-16.9c0-2.4-.8-4.5-4.1-4.5-2.7 0-4.9 2-4.9 4.3v17.1h-9V178h8.6v3.2h.1c1-1.3 4.2-4 9-4 5.1 0 9.3 2.5 9.3 9.5v19.7l-9-.1zM269.6 194.5h-16.9v.3c0 2.6 1.5 5.3 6.2 5.3 3.2 0 6.3-.9 8.9-2l.4 6.8c-2.2 1.2-5.7 2.2-10.3 2.2-11.1 0-14-5.6-14-14.9 0-9.1 3.6-15.2 13.9-15.2 9.1 0 12 5.4 12 14.1-.1.7-.1 2.6-.2 3.4zM257.3 183c-3.4 0-4.8 3-4.8 5.9h8.9c0-2.7-.5-5.9-4.1-5.9z"/></g><g class="st1"><path class="st7" d="M460.3 176.7h-34.7l6.7-7.5h29.2zM458.2 191.9h-46.3l6.7-7.7h40.8zM456 207.1h-57.7l6.7-7.3h52.2z"/></g><g class="st1"><path class="st7" d="M482.7 176.6l-13.2.1-1.2 9.1h12.2l-1.1 7.4h-12.2l-1.9 14H456l5.3-37.9h22.4l-1 7.3zM508.6 207.1h-7.9l.3-4.3h-.1c-1 1.6-4.2 5.1-9.1 5.1-5.8 0-8.7-3.9-8.7-10.9 0-11.2 4.9-19.3 13.5-19.3 4 0 6.4 1.9 7 2.9h.1l.3-2h8.6l-4 28.5zM498.2 185c-3.1 0-4.9 3-5.5 6.5l-.5 3.7c-.1.5-.1 1.1-.1 1.5 0 2.5 1.1 4 3.2 4 3 0 5.7-4 6.2-7.9l.9-6.1c-.5-.5-2-1.7-4.2-1.7zM537.4 186.7c-1.3-.8-4.8-2.4-7.8-2.4-1.2 0-3.2.3-3.2 2 0 1.3 1.1 1.9 3.1 2.7l.8.3c3.4 1.4 7.2 3.3 7.2 8.2 0 7.4-6.1 10.4-13.2 10.4-4.8 0-8.4-1.4-9.6-2l1.4-6.9c1.2.8 4.4 2.4 7.9 2.4 1.9 0 4.3-.6 4.3-2.5 0-1.3-1.5-2-3.6-2.9l-.7-.3c-3.5-1.4-6.7-3.8-6.7-8.2 0-6.8 5.6-9.7 12.1-9.7 4.9 0 8.4 1.4 9.6 2l-1.6 6.9zM562.5 185.9h-6.6l-1.7 12.1c-.1.4-.1.6-.1.7 0 1.8 1.2 2.2 2.8 2.2 1.3 0 3.2-.6 3.9-1l-.5 6.7c-1 .5-4 1.4-7.6 1.4-5.2 0-7.8-2.4-7.8-7.3 0-.7.1-1.5.2-2.3l1.8-12.6h-5.7l1-7.2h5.7l1-7 9.1-1-1.1 8h6.6l-1 7.3zM588 207.1h-22.8l5.3-37.9h9.2l-4.3 30.6 13.6.1-1 7.2zM618.6 207.1h-7.9l.3-4.3h-.1c-1 1.6-4.2 5.1-9.1 5.1-5.8 0-8.7-3.9-8.7-10.9 0-11.2 4.9-19.3 13.5-19.3 4 0 6.4 1.9 7 2.9h.1l.3-2h8.6l-4 28.5zM608.2 185c-3.1 0-4.9 3-5.5 6.5l-.5 3.7c-.1.5-.1 1.1-.1 1.5 0 2.5 1.1 4 3.2 4 3 0 5.7-4 6.2-7.9l.9-6.1c-.5-.5-2-1.7-4.2-1.7zM652.7 207.1h-9l2.5-17.5c.1-.4.1-.6.1-.9 0-1.4-.5-3.4-2.8-3.4-3.6 0-6.4 4.8-6.9 8.4l-1.9 13.4h-9l4-28.4h8.2l-.6 4.5h.1c1.1-1.8 4.7-5.3 10.2-5.3 5.2 0 8 3.2 8 8.2 0 .7-.1 1.4-.2 2.2l-2.7 18.8zM668.4 196.5v.5c0 2 1.6 4 5.2 4 4.3 0 8.2-2.3 9.7-3.4l-.6 7.4c-1.4 1-5.5 3-10.9 3-7.4 0-12.2-3.7-12.2-11.4 0-13.1 7.5-18.7 16-18.7 7.2 0 10.9 3.6 10.9 8.8.1 7.4-10.5 9.8-18.1 9.8zm6.8-12.8c-3 0-5.7 2.6-6.3 7 5.3 0 9.4-1.5 9.4-4.1 0-1.9-1.1-2.9-3.1-2.9z"/></g><g class="st1"><path class="st8" d="M48.3 263.3H17l6.8-7.5h24.5zM48.3 278.5h-45l6.7-7.8h38.3zM48.3 293.7h-58.6l6.7-7.4h51.9z"/></g><g class="st1"><path class="st8" d="M57.9 263.2v9.1h12.2v7.4H57.9v14h-9.2v-37.9h22.4v7.4H57.9zM92.8 293.7l-.5-3.2c-1.4 2.2-3.8 4.1-8 4.1-7.8 0-10.7-5.8-10.7-15 0-8.8 3.2-15 11.1-15 4.4 0 6.5 1.9 7.6 4h.1l.4-3.2h8.1v28.4h-8.1v-.1zm-.9-16.2c0-3.6-1.9-5.9-4.4-5.9-3.3 0-4.6 2.6-4.6 6.1v3.6c0 4 1.6 6.1 4.4 6.1 3 0 4.7-2.6 4.7-5.8l-.1-4.1zM115.2 294.5c-3.5 0-6.7-.6-9.8-2l.5-6.8c2.5 1.4 5.5 2.3 8.3 2.3 3.4 0 4-1.2 4-2.4 0-1.3-.9-1.9-3.3-2.8l-1.9-.6c-4-1.4-7.4-3.6-7.4-9.1 0-6 4.9-8.7 11.8-8.7 3.1 0 6.5.9 8.5 1.8l-.4 6.8c-2.5-1.3-5.6-2.2-7.4-2.2-2.4 0-3.2.8-3.2 1.9 0 1.2 1 1.9 3.5 2.8l1.9.6c3.8 1.3 7.2 3.5 7.2 9-.3 6-4.5 9.4-12.3 9.4zM142.6 294.6c-5.7 0-8.3-3-8.3-8.6l.1-13.6h-5.7v-7.2h5.7l.1-7 9-1-.1 8h6.6v7.2h-6.6l-.1 11.7c0 2.6.9 3.3 3 3.3 1.2 0 2.8-.4 3.4-.6l.4 6.4c-1.2.5-4.2 1.4-7.5 1.4zM154.4 293.7v-37.9h9.2v30.6l13.6.1v7.2h-22.8zM198.5 293.7l-.5-3.2c-1.4 2.2-3.8 4.1-8 4.1-7.8 0-10.7-5.8-10.7-15 0-8.8 3.2-15 11.1-15 4.4 0 6.5 1.9 7.6 4h.1l.4-3.2h8.1v28.4h-8.1v-.1zm-.9-16.2c0-3.6-1.9-5.9-4.4-5.9-3.3 0-4.6 2.6-4.6 6.1v3.6c0 4 1.6 6.1 4.4 6.1 3 0 4.7-2.6 4.7-5.8v-4.1h-.1zM230.5 293.7v-16.9c0-2.4-.8-4.5-4.1-4.5-2.7 0-4.9 2-4.9 4.3v17.1h-9v-28.4h8.6v3.2h.1c1-1.3 4.2-4 9-4 5.1 0 9.3 2.5 9.3 9.5v19.7h-9zM269.6 281.8h-16.9v.3c0 2.6 1.5 5.3 6.2 5.3 3.2 0 6.3-.9 8.9-2l.4 6.8c-2.2 1.2-5.7 2.2-10.3 2.2-11.1 0-14-5.6-14-14.9 0-9.1 3.6-15.2 13.9-15.2 9.1 0 12 5.4 12 14.1-.1.7-.1 2.6-.2 3.4zm-12.3-11.5c-3.4 0-4.8 3-4.8 5.9h8.9c0-2.7-.5-5.9-4.1-5.9z"/></g><g class="st1"><path class="st8" d="M460.3 264h-34.7l6.7-7.5h29.2zM458.2 279.2h-46.3l6.7-7.7h40.8zM456 294.4h-57.7l6.7-7.3h52.2z"/></g><g class="st1"><path class="st8" d="M482.7 263.9l-13.2.1-1.2 9.1h12.2l-1.1 7.4h-12.2l-1.9 14H456l5.3-37.9h22.4l-1 7.3zM508.6 294.4h-7.9l.3-4.3h-.1c-1 1.6-4.2 5.1-9.1 5.1-5.8 0-8.7-3.9-8.7-10.9 0-11.2 4.9-19.3 13.5-19.3 4 0 6.4 1.9 7 2.9h.1l.3-2h8.6l-4 28.5zm-10.4-22.1c-3.1 0-4.9 3-5.5 6.5l-.5 3.7c-.1.5-.1 1.1-.1 1.5 0 2.5 1.1 4 3.2 4 3 0 5.7-4 6.2-7.9l.9-6.1c-.5-.5-2-1.7-4.2-1.7zM537.4 274c-1.3-.8-4.8-2.4-7.8-2.4-1.2 0-3.2.3-3.2 2 0 1.3 1.1 1.9 3.1 2.7l.8.3c3.4 1.4 7.2 3.3 7.2 8.2 0 7.4-6.1 10.4-13.2 10.4-4.8 0-8.4-1.4-9.6-2l1.4-6.9c1.2.8 4.4 2.4 7.9 2.4 1.9 0 4.3-.6 4.3-2.5 0-1.3-1.5-2-3.6-2.9l-.7-.3c-3.5-1.4-6.7-3.8-6.7-8.2 0-6.8 5.6-9.7 12.1-9.7 4.9 0 8.4 1.4 9.6 2l-1.6 6.9zM562.5 273.2h-6.6l-1.7 12.1c-.1.4-.1.6-.1.7 0 1.8 1.2 2.2 2.8 2.2 1.3 0 3.2-.6 3.9-1l-.5 6.7c-1 .5-4 1.4-7.6 1.4-5.2 0-7.8-2.4-7.8-7.3 0-.7.1-1.5.2-2.3l1.8-12.6h-5.7l1-7.2h5.7l1-7 9.1-1-1.1 8h6.6l-1 7.3zM588 294.4h-22.8l5.3-37.9h9.2l-4.3 30.6 13.6.1-1 7.2zM618.6 294.4h-7.9l.3-4.3h-.1c-1 1.6-4.2 5.1-9.1 5.1-5.8 0-8.7-3.9-8.7-10.9 0-11.2 4.9-19.3 13.5-19.3 4 0 6.4 1.9 7 2.9h.1l.3-2h8.6l-4 28.5zm-10.4-22.1c-3.1 0-4.9 3-5.5 6.5l-.5 3.7c-.1.5-.1 1.1-.1 1.5 0 2.5 1.1 4 3.2 4 3 0 5.7-4 6.2-7.9l.9-6.1c-.5-.5-2-1.7-4.2-1.7zM652.7 294.4h-9l2.5-17.5c.1-.4.1-.6.1-.9 0-1.4-.5-3.4-2.8-3.4-3.6 0-6.4 4.8-6.9 8.4l-1.9 13.4h-9l4-28.4h8.2l-.6 4.5h.1c1.1-1.8 4.7-5.3 10.2-5.3 5.2 0 8 3.2 8 8.2 0 .7-.1 1.4-.2 2.2l-2.7 18.8zM668.4 283.8v.5c0 2 1.6 4 5.2 4 4.3 0 8.2-2.3 9.7-3.4l-.6 7.4c-1.4 1-5.5 3-10.9 3-7.4 0-12.2-3.7-12.2-11.4 0-13.1 7.5-18.7 16-18.7 7.2 0 10.9 3.6 10.9 8.8.1 7.4-10.5 9.8-18.1 9.8zm6.8-12.8c-3 0-5.7 2.6-6.3 7 5.3 0 9.4-1.5 9.4-4.1 0-1.9-1.1-2.9-3.1-2.9z"/></g><g class="st1"><path class="st9" d="M48.3 351.4H17l6.8-7.6h24.5zM48.3 366.5h-45l6.7-7.7h38.3zM48.3 381.7h-58.6l6.7-7.3h51.9z"/></g><g class="st1"><path class="st9" d="M57.9 351.3v9.1h12.2v7.4H57.9v14h-9.2v-37.9h22.4v7.4H57.9zM92.8 381.7l-.5-3.2c-1.4 2.2-3.8 4.1-8 4.1-7.8 0-10.7-5.8-10.7-15 0-8.8 3.2-15 11.1-15 4.4 0 6.5 1.9 7.6 4h.1l.4-3.2h8.1v28.4l-8.1-.1zm-.9-16.2c0-3.6-1.9-5.9-4.4-5.9-3.3 0-4.6 2.6-4.6 6.1v3.6c0 4 1.6 6.1 4.4 6.1 3 0 4.7-2.6 4.7-5.8l-.1-4.1zM115.2 382.6c-3.5 0-6.7-.6-9.8-2l.5-6.8c2.5 1.4 5.5 2.3 8.3 2.3 3.4 0 4-1.2 4-2.4 0-1.3-.9-1.9-3.3-2.8l-1.9-.6c-4-1.4-7.4-3.6-7.4-9.1 0-6 4.9-8.7 11.8-8.7 3.1 0 6.5.9 8.5 1.8l-.4 6.8c-2.5-1.3-5.6-2.2-7.4-2.2-2.4 0-3.2.8-3.2 1.9 0 1.2 1 1.9 3.5 2.8l1.9.6c3.8 1.3 7.2 3.5 7.2 9-.3 6-4.5 9.4-12.3 9.4zM142.6 382.6c-5.7 0-8.3-3-8.3-8.6l.1-13.6h-5.7v-7.2h5.7l.1-7 9-1-.1 8h6.6v7.2h-6.6l-.1 11.7c0 2.6.9 3.3 3 3.3 1.2 0 2.8-.4 3.4-.6l.4 6.4c-1.2.5-4.2 1.4-7.5 1.4zM154.4 381.7v-37.9h9.2v30.6l13.6.1v7.2h-22.8zM198.5 381.7l-.5-3.2c-1.4 2.2-3.8 4.1-8 4.1-7.8 0-10.7-5.8-10.7-15 0-8.8 3.2-15 11.1-15 4.4 0 6.5 1.9 7.6 4h.1l.4-3.2h8.1v28.4l-8.1-.1zm-.9-16.2c0-3.6-1.9-5.9-4.4-5.9-3.3 0-4.6 2.6-4.6 6.1v3.6c0 4 1.6 6.1 4.4 6.1 3 0 4.7-2.6 4.7-5.8v-4.1h-.1zM230.5 381.7v-16.9c0-2.4-.8-4.5-4.1-4.5-2.7 0-4.9 2-4.9 4.3v17.1h-9v-28.4h8.6v3.2h.1c1-1.3 4.2-4 9-4 5.1 0 9.3 2.5 9.3 9.5v19.7h-9zM269.6 369.9h-16.9v.3c0 2.6 1.5 5.3 6.2 5.3 3.2 0 6.3-.9 8.9-2l.4 6.8c-2.2 1.2-5.7 2.2-10.3 2.2-11.1 0-14-5.6-14-14.9 0-9.1 3.6-15.2 13.9-15.2 9.1 0 12 5.4 12 14.1-.1.7-.1 2.6-.2 3.4zm-12.3-11.6c-3.4 0-4.8 3-4.8 5.9h8.9c0-2.6-.5-5.9-4.1-5.9z"/></g><g class="st1"><path class="st9" d="M460.3 352.1h-34.7l6.7-7.5h29.2zM458.2 367.3h-46.3l6.7-7.8h40.8zM456 382.5h-57.7l6.7-7.4h52.2z"/></g><g class="st1"><path class="st9" d="M482.7 352l-13.2.1-1.2 9.1h12.2l-1.1 7.4h-12.2l-1.9 14H456l5.3-37.9h22.4l-1 7.3zM508.6 382.5h-7.9l.3-4.3h-.1c-1 1.6-4.2 5.1-9.1 5.1-5.8 0-8.7-3.9-8.7-10.9 0-11.2 4.9-19.3 13.5-19.3 4 0 6.4 1.9 7 2.9h.1l.3-2h8.6l-4 28.5zm-10.4-22.2c-3.1 0-4.9 3-5.5 6.5l-.5 3.7c-.1.5-.1 1.1-.1 1.5 0 2.5 1.1 4 3.2 4 3 0 5.7-4 6.2-7.9l.9-6.1c-.5-.5-2-1.7-4.2-1.7zM537.4 362.1c-1.3-.8-4.8-2.4-7.8-2.4-1.2 0-3.2.3-3.2 2 0 1.3 1.1 1.9 3.1 2.7l.8.3c3.4 1.4 7.2 3.3 7.2 8.2 0 7.4-6.1 10.4-13.2 10.4-4.8 0-8.4-1.4-9.6-2l1.4-6.9c1.2.8 4.4 2.4 7.9 2.4 1.9 0 4.3-.6 4.3-2.5 0-1.3-1.5-2-3.6-2.9l-.7-.3c-3.5-1.4-6.7-3.8-6.7-8.2 0-6.8 5.6-9.7 12.1-9.7 4.9 0 8.4 1.4 9.6 2l-1.6 6.9zM562.5 361.2h-6.6l-1.7 12.1c-.1.4-.1.6-.1.7 0 1.8 1.2 2.2 2.8 2.2 1.3 0 3.2-.6 3.9-1l-.5 6.7c-1 .5-4 1.4-7.6 1.4-5.2 0-7.8-2.4-7.8-7.3 0-.7.1-1.5.2-2.3l1.8-12.6h-5.7l1-7.2h5.7l1-7 9.1-1-1.1 8h6.6l-1 7.3zM588 382.5h-22.8l5.3-37.9h9.2l-4.3 30.6 13.6.1-1 7.2zM618.6 382.5h-7.9l.3-4.3h-.1c-1 1.6-4.2 5.1-9.1 5.1-5.8 0-8.7-3.9-8.7-10.9 0-11.2 4.9-19.3 13.5-19.3 4 0 6.4 1.9 7 2.9h.1l.3-2h8.6l-4 28.5zm-10.4-22.2c-3.1 0-4.9 3-5.5 6.5l-.5 3.7c-.1.5-.1 1.1-.1 1.5 0 2.5 1.1 4 3.2 4 3 0 5.7-4 6.2-7.9l.9-6.1c-.5-.5-2-1.7-4.2-1.7zM652.7 382.5h-9l2.5-17.5c.1-.4.1-.6.1-.9 0-1.4-.5-3.4-2.8-3.4-3.6 0-6.4 4.8-6.9 8.4l-1.9 13.4h-9l4-28.4h8.2l-.6 4.5h.1c1.1-1.8 4.7-5.3 10.2-5.3 5.2 0 8 3.2 8 8.2 0 .7-.1 1.4-.2 2.2l-2.7 18.8zM668.4 371.9v.5c0 2 1.6 4 5.2 4 4.3 0 8.2-2.3 9.7-3.4l-.6 7.4c-1.4 1-5.5 3-10.9 3-7.4 0-12.2-3.7-12.2-11.4 0-13.1 7.5-18.7 16-18.7 7.2 0 10.9 3.6 10.9 8.8.1 7.3-10.5 9.8-18.1 9.8zm6.8-12.8c-3 0-5.7 2.6-6.3 7 5.3 0 9.4-1.5 9.4-4.1 0-1.9-1.1-2.9-3.1-2.9z"/></g><g class="st1"><path d="M-212.1 4.3h-60l11.8-12.9h50.3zM-215.7 30.5h-80l11.6-13.3h70.4zM-219.5 56.8h-99.6l11.6-12.7h90z"/><path d="M-173.5 4.1l-22.8.1-2.2 15.7h21.1l-1.9 12.7h-21.1l-3.3 24.1h-15.9l9.2-65.4h38.6l-1.7 12.8z"/></g><circle class="st10" cx="-245.4" cy="24.1" r="101.5"/><g class="st1"><path d="M-216.6 258.7h-60l11.8-12.9h50.3zM-220.2 284.9h-80l11.6-13.3h70.4zM-224 311.1h-99.6l11.6-12.6h90zM-169 258.5l-22.8.1-2.2 15.7h21.1l-1.9 12.7h-21.1l-3.3 24.1H-215l9.2-65.4h38.6l-1.8 12.8z"/></g><circle class="st10" cx="-245.4" cy="278.5" r="101.5"/><path class="st1" d="M482.8-84.9l.9-7.5h-51.4l-6.7 7.5h34.7l-1.1 7.5h-40.6l-6.7 7.7h46.2l-1.1 7.9h-52l-6.7 7.3h66.9l2.2-15.2h12.2l1.1-7.7h-12.2l1-7.5z"/></g><g id="Layer_3" class="st0"><g class="st1"><path class="st4" d="M-515.3-3.4h-31.4l6.8-7.5h24.6zM-515.3 11.8h-45.1l6.8-7.8h38.3zM-515.3 27h-58.6l6.7-7.4h51.9z"/></g><g class="st1"><path class="st4" d="M-494.8-3.5v9.1h12.2V13h-12.2v14h-9.2v-37.9h22.4v7.4h-13.2zM-459.8 27l-.5-3.2c-1.4 2.2-3.8 4.1-8 4.1-7.8 0-10.7-5.8-10.7-15 0-8.8 3.2-15 11.1-15 4.4 0 6.5 1.9 7.6 4h.1l.4-3.2h8.1v28.4l-8.1-.1zm-.9-16.2c0-3.6-1.9-5.9-4.4-5.9-3.3 0-4.6 2.6-4.6 6.1v3.6c0 4 1.6 6.1 4.4 6.1 3 0 4.7-2.6 4.7-5.8v-4.1h-.1zM-437.5 27.8c-3.5 0-6.7-.6-9.8-2l.5-6.8c2.5 1.4 5.5 2.3 8.3 2.3 3.4 0 4-1.2 4-2.4 0-1.3-.9-1.9-3.3-2.8l-1.9-.6c-4-1.4-7.4-3.6-7.4-9.1 0-6 4.9-8.7 11.8-8.7 3.1 0 6.5.9 8.5 1.8l-.4 6.8c-2.5-1.3-5.6-2.2-7.4-2.2-2.4 0-3.2.8-3.2 1.9 0 1.2 1 1.9 3.5 2.8l1.9.6c3.8 1.3 7.2 3.5 7.2 9-.3 6-4.5 9.4-12.3 9.4zM-410.1 27.9c-5.7 0-8.3-3-8.3-8.6l.1-13.6h-5.7v-7.2h5.7l.1-7 9-1-.1 8h6.6v7.2h-6.6l-.1 11.7c0 2.6.9 3.3 3 3.3 1.2 0 2.8-.4 3.4-.6l.4 6.4c-1.2.5-4.1 1.4-7.5 1.4zM-398.3 27v-37.9h9.2v30.6l13.6.1V27h-22.8zM-354.1 27l-.5-3.2c-1.4 2.2-3.8 4.1-8 4.1-7.8 0-10.7-5.8-10.7-15 0-8.8 3.2-15 11.1-15 4.4 0 6.5 1.9 7.6 4h.1l.4-3.2h8.1v28.4l-8.1-.1zm-1-16.2c0-3.6-1.9-5.9-4.4-5.9-3.3 0-4.6 2.6-4.6 6.1v3.6c0 4 1.6 6.1 4.4 6.1 3 0 4.7-2.6 4.7-5.8v-4.1h-.1zM-322.1 27V10.1c0-2.4-.8-4.5-4.1-4.5-2.7 0-4.9 2-4.9 4.3V27h-9V-1.4h8.6v3.2h.1c1-1.3 4.2-4 9-4 5.1 0 9.3 2.5 9.3 9.5V27h-9zM-283.1 15.2H-300v.3c0 2.6 1.5 5.3 6.2 5.3 3.2 0 6.3-.9 8.9-2l.4 6.8c-2.2 1.2-5.7 2.2-10.3 2.2-11.1 0-14-5.6-14-14.9 0-9.1 3.6-15.2 13.9-15.2 9.1 0 12 5.4 12 14.1 0 .6-.1 2.5-.2 3.4zm-12.2-11.6c-3.4 0-4.8 3-4.8 5.9h8.9c0-2.6-.5-5.9-4.1-5.9z"/></g><g class="st1"><path class="st4" d="M32.8-3.7H-1.9l6.8-7.5h29.2zM30.7 11.5h-46.3l6.7-7.8h40.8zM28.6 26.7h-57.8l6.8-7.4h52.1z"/></g><g class="st1"><path class="st4" d="M66.2-3.8H53l-1.2 9.1H64l-1.1 7.4H50.7l-1.9 14h-9.2l5.3-37.9h22.4l-1.1 7.4zM92.1 26.7h-7.9l.3-4.3h-.1c-1 1.6-4.2 5.1-9.1 5.1-5.8 0-8.7-3.9-8.7-10.9 0-11.2 4.9-19.3 13.5-19.3 4 0 6.4 1.9 7 2.9h.1l.3-2h8.6l-4 28.5zM81.7 4.5c-3.1 0-4.9 3-5.5 6.5l-.5 3.7c-.1.5-.1 1.1-.1 1.5 0 2.5 1.1 4 3.2 4 3 0 5.7-4 6.2-7.9l.9-6.1c-.5-.5-2-1.7-4.2-1.7zM120.9 6.3c-1.3-.8-4.8-2.4-7.8-2.4-1.2 0-3.2.3-3.2 2 0 1.3 1.1 1.9 3.1 2.7l.8.3c3.4 1.4 7.2 3.3 7.2 8.2 0 7.4-6.1 10.4-13.2 10.4-4.8 0-8.4-1.4-9.6-2l1.4-6.9c1.2.8 4.4 2.4 7.9 2.4 1.9 0 4.3-.6 4.3-2.5 0-1.3-1.5-2-3.6-2.9l-.7-.3c-3.5-1.4-6.7-3.8-6.7-8.2 0-6.8 5.6-9.7 12.1-9.7 4.9 0 8.4 1.4 9.6 2l-1.6 6.9zM146.1 5.4h-6.6l-1.8 12.1c-.1.4-.1.6-.1.7 0 1.8 1.2 2.2 2.8 2.2 1.3 0 3.2-.6 3.9-1l-.5 6.7c-1 .5-4 1.4-7.6 1.4-5.2 0-7.8-2.4-7.8-7.3 0-.7.1-1.5.2-2.3l1.8-12.6h-5.7l1-7.2h5.7l1-7 9.1-1-1.1 8h6.6l-.9 7.3zM171.6 26.7h-22.8l5.3-37.9h9.2L159 19.4l13.6.1-1 7.2zM202.1 26.7h-7.9l.3-4.3h-.1c-1 1.6-4.2 5.1-9.1 5.1-5.8 0-8.7-3.9-8.7-10.9 0-11.2 4.9-19.3 13.5-19.3 4 0 6.4 1.9 7 2.9h.1l.3-2h8.6l-4 28.5zM191.7 4.5c-3.1 0-4.9 3-5.5 6.5l-.5 3.7c-.1.5-.1 1.1-.1 1.5 0 2.5 1.1 4 3.2 4 3 0 5.7-4 6.2-7.9l.9-6.1c-.5-.5-2-1.7-4.2-1.7zM236.3 26.7h-9l2.5-17.5c.1-.4.1-.6.1-.9 0-1.4-.5-3.4-2.8-3.4-3.6 0-6.4 4.8-6.9 8.4l-1.9 13.4h-9l4-28.4h8.2l-.6 4.5h.1c1.1-1.8 4.7-5.3 10.2-5.3 5.2 0 8 3.2 8 8.2 0 .7-.1 1.4-.2 2.2l-2.7 18.8zM252 16.1v.5c0 2 1.6 4 5.2 4 4.3 0 8.2-2.3 9.7-3.4l-.6 7.4c-1.4 1-5.5 3-10.9 3-7.4 0-12.2-3.7-12.2-11.4 0-13.1 7.5-18.7 16-18.7 7.2 0 10.9 3.6 10.9 8.8 0 7.3-10.5 9.8-18.1 9.8zm6.7-12.8c-3 0-5.7 2.6-6.3 7 5.3 0 9.4-1.5 9.4-4.1 0-1.9-1-2.9-3.1-2.9z"/></g><g class="st1"><path d="M-515.3-85.6h-31.4l6.8-7.5h24.6zM-515.3-70.5h-45.1l6.8-7.7h38.3zM-515.3-55.2h-58.6l6.7-7.4h51.9z"/></g><g class="st1"><path d="M-494.8-85.7v9.1h12.2v7.4h-12.2v14h-9.2v-37.9h22.4v7.4h-13.2zM-459.8-55.3l-.5-3.2c-1.4 2.2-3.8 4.1-8 4.1-7.8 0-10.7-5.8-10.7-15 0-8.8 3.2-15 11.1-15 4.4 0 6.5 1.9 7.6 4h.1l.4-3.2h8.1v28.4h-8.1v-.1zm-.9-16.1c0-3.6-1.9-5.9-4.4-5.9-3.3 0-4.6 2.6-4.6 6.1v3.6c0 4 1.6 6.1 4.4 6.1 3 0 4.7-2.6 4.7-5.8v-4.1h-.1zM-437.5-54.4c-3.5 0-6.7-.6-9.8-2l.5-6.8c2.5 1.4 5.5 2.3 8.3 2.3 3.4 0 4-1.2 4-2.4 0-1.3-.9-1.9-3.3-2.8l-1.9-.6c-4-1.4-7.4-3.6-7.4-9.1 0-6 4.9-8.7 11.8-8.7 3.1 0 6.5.9 8.5 1.8l-.4 6.8c-2.5-1.3-5.6-2.2-7.4-2.2-2.4 0-3.2.8-3.2 1.9 0 1.2 1 1.9 3.5 2.8l1.9.6c3.8 1.3 7.2 3.5 7.2 9-.3 6-4.5 9.4-12.3 9.4zM-410.1-54.4c-5.7 0-8.3-3-8.3-8.6l.1-13.6h-5.7v-7.2h5.7l.1-7 9-1-.1 8h6.6v7.2h-6.6l-.1 11.7c0 2.6.9 3.3 3 3.3 1.2 0 2.8-.4 3.4-.6l.4 6.4c-1.2.5-4.1 1.4-7.5 1.4zM-398.3-55.3v-37.9h9.2v30.6l13.6.1v7.2h-22.8zM-354.1-55.3l-.5-3.2c-1.4 2.2-3.8 4.1-8 4.1-7.8 0-10.7-5.8-10.7-15 0-8.8 3.2-15 11.1-15 4.4 0 6.5 1.9 7.6 4h.1l.4-3.2h8.1v28.4h-8.1v-.1zm-1-16.1c0-3.6-1.9-5.9-4.4-5.9-3.3 0-4.6 2.6-4.6 6.1v3.6c0 4 1.6 6.1 4.4 6.1 3 0 4.7-2.6 4.7-5.8v-4.1h-.1zM-322.1-55.3v-16.9c0-2.4-.8-4.5-4.1-4.5-2.7 0-4.9 2-4.9 4.3v17.1h-9v-28.4h8.6v3.2h.1c1-1.3 4.2-4 9-4 5.1 0 9.3 2.5 9.3 9.5v19.7h-9zM-283.1-67.1H-300v.3c0 2.6 1.5 5.3 6.2 5.3 3.2 0 6.3-.9 8.9-2l.4 6.8c-2.2 1.2-5.7 2.2-10.3 2.2-11.1 0-14-5.6-14-14.9 0-9.1 3.6-15.2 13.9-15.2 9.1 0 12 5.4 12 14.1 0 .7-.1 2.6-.2 3.4zm-12.2-11.6c-3.4 0-4.8 3-4.8 5.9h8.9c0-2.6-.5-5.9-4.1-5.9z"/></g><g class="st1"><path d="M32.8-85.9H-1.9l6.8-7.5h29.2zM30.7-70.8h-46.3l6.7-7.7h40.8zM28.6-55.6h-57.8l6.8-7.3h52.1z"/></g><g class="st1"><path d="M66.2-86.1L53-86l-1.2 9.1H64l-1.1 7.4H50.7l-1.9 14h-9.2l5.3-37.9h22.4l-1.1 7.3zM92.1-55.6h-7.9l.3-4.3h-.1c-1 1.6-4.2 5.1-9.1 5.1-5.8 0-8.7-3.9-8.7-10.9 0-11.2 4.9-19.3 13.5-19.3 4 0 6.4 1.9 7 2.9h.1l.3-2h8.6l-4 28.5zM81.7-77.7c-3.1 0-4.9 3-5.5 6.5l-.5 3.7c-.1.5-.1 1.1-.1 1.5 0 2.5 1.1 4 3.2 4 3 0 5.7-4 6.2-7.9l.9-6.1c-.5-.5-2-1.7-4.2-1.7zM120.9-75.9c-1.3-.8-4.8-2.4-7.8-2.4-1.2 0-3.2.3-3.2 2 0 1.3 1.1 1.9 3.1 2.7l.8.3c3.4 1.4 7.2 3.3 7.2 8.2 0 7.4-6.1 10.4-13.2 10.4-4.8 0-8.4-1.4-9.6-2l1.4-6.9c1.2.8 4.4 2.4 7.9 2.4 1.9 0 4.3-.6 4.3-2.5 0-1.3-1.5-2-3.6-2.9l-.7-.3c-3.5-1.4-6.7-3.8-6.7-8.2 0-6.8 5.6-9.7 12.1-9.7 4.9 0 8.4 1.4 9.6 2l-1.6 6.9zM146.1-76.8h-6.6l-1.7 12.1c-.1.4-.1.6-.1.7 0 1.8 1.2 2.2 2.8 2.2 1.3 0 3.2-.6 3.9-1l-.5 6.7c-1 .5-4 1.4-7.6 1.4-5.2 0-7.8-2.4-7.8-7.3 0-.7.1-1.5.2-2.3l1.8-12.6h-5.7l1-7.2h5.7l1-7 9.1-1-1.1 8h6.6l-1 7.3zM171.6-55.6h-22.8l5.3-37.9h9.2L159-62.9l13.6.1-1 7.2zM202.1-55.6h-7.9l.3-4.3h-.1c-1 1.6-4.2 5.1-9.1 5.1-5.8 0-8.7-3.9-8.7-10.9 0-11.2 4.9-19.3 13.5-19.3 4 0 6.4 1.9 7 2.9h.1l.3-2h8.6l-4 28.5zm-10.4-22.1c-3.1 0-4.9 3-5.5 6.5l-.5 3.7c-.1.5-.1 1.1-.1 1.5 0 2.5 1.1 4 3.2 4 3 0 5.7-4 6.2-7.9l.9-6.1c-.5-.5-2-1.7-4.2-1.7zM236.3-55.6h-9l2.5-17.5c.1-.4.1-.6.1-.9 0-1.4-.5-3.4-2.8-3.4-3.6 0-6.4 4.8-6.9 8.4l-1.9 13.4h-9l4-28.4h8.2l-.6 4.5h.1c1.1-1.8 4.7-5.3 10.2-5.3 5.2 0 8 3.2 8 8.2 0 .7-.1 1.4-.2 2.2l-2.7 18.8zM252-66.2v.5c0 2 1.6 4 5.2 4 4.3 0 8.2-2.3 9.7-3.4l-.6 7.4c-1.4 1-5.5 3-10.9 3-7.4 0-12.2-3.7-12.2-11.4 0-13.1 7.5-18.7 16-18.7 7.2 0 10.9 3.6 10.9 8.8 0 7.4-10.5 9.8-18.1 9.8zm6.7-12.8c-3 0-5.7 2.6-6.3 7 5.3 0 9.4-1.5 9.4-4.1 0-1.8-1-2.9-3.1-2.9z"/></g><g class="st1"><path class="st6" d="M-515.3 85.9h-31.4l6.8-7.5h24.6zM-515.3 101.1h-45.1l6.8-7.7 38.3-.1zM-515.3 116.3h-58.6l6.7-7.3 51.9-.1z"/></g><g class="st1"><path class="st6" d="M-494.8 85.8v9.1h12.2v7.4h-12.2v14h-9.2V78.4h22.4v7.4h-13.2zM-459.8 116.3l-.5-3.2c-1.4 2.2-3.8 4.1-8 4.1-7.8 0-10.7-5.8-10.7-15 0-8.8 3.2-15 11.1-15 4.4 0 6.5 1.9 7.6 4h.1l.4-3.2h8.1v28.4l-8.1-.1zm-.9-16.2c0-3.6-1.9-5.9-4.4-5.9-3.3 0-4.6 2.6-4.6 6.1v3.6c0 4 1.6 6.1 4.4 6.1 3 0 4.7-2.6 4.7-5.8v-4.1h-.1zM-437.5 117.1c-3.5 0-6.7-.6-9.8-2l.5-6.8c2.5 1.4 5.5 2.3 8.3 2.3 3.4 0 4-1.2 4-2.4 0-1.3-.9-1.9-3.3-2.8l-1.9-.6c-4-1.4-7.4-3.6-7.4-9.1 0-6 4.9-8.7 11.8-8.7 3.1 0 6.5.9 8.5 1.8l-.4 6.8c-2.5-1.3-5.6-2.2-7.4-2.2-2.4 0-3.2.8-3.2 1.9 0 1.2 1 1.9 3.5 2.8l1.9.6c3.8 1.3 7.2 3.5 7.2 9-.3 6-4.5 9.4-12.3 9.4zM-410.1 117.2c-5.7 0-8.3-3-8.3-8.6l.1-13.6h-5.7v-7.1h5.7l.1-7 9-1-.1 8h6.6v7.2h-6.6l-.1 11.7c0 2.6.9 3.3 3 3.3 1.2 0 2.8-.4 3.4-.6l.4 6.4c-1.2.4-4.1 1.3-7.5 1.3zM-398.3 116.3V78.4h9.2V109l13.6.1v7.2h-22.8zM-354.1 116.3l-.5-3.2c-1.4 2.2-3.8 4.1-8 4.1-7.8 0-10.7-5.8-10.7-15 0-8.8 3.2-15 11.1-15 4.4 0 6.5 1.9 7.6 4h.1l.4-3.2h8.1v28.4l-8.1-.1zm-1-16.2c0-3.6-1.9-5.9-4.4-5.9-3.3 0-4.6 2.6-4.6 6.1v3.6c0 4 1.6 6.1 4.4 6.1 3 0 4.7-2.6 4.7-5.8v-4.1h-.1zM-322.1 116.3V99.4c0-2.4-.8-4.5-4.1-4.5-2.7 0-4.9 2-4.9 4.3v17.1h-9V87.9h8.6v3.2h.1c1-1.3 4.2-4 9-4 5.1 0 9.3 2.5 9.3 9.5v19.7h-9zM-283.1 104.5H-300v.3c0 2.6 1.5 5.3 6.2 5.3 3.2 0 6.3-.9 8.9-2l.4 6.8c-2.2 1.2-5.7 2.2-10.3 2.2-11.1 0-14-5.6-14-14.9 0-9.1 3.6-15.2 13.9-15.2 9.1 0 12 5.4 12 14.1 0 .6-.1 2.5-.2 3.4zm-12.2-11.6c-3.4 0-4.8 3-4.8 5.9h8.9c0-2.6-.5-5.9-4.1-5.9z"/></g><g class="st1"><path class="st6" d="M32.8 85.6H-1.9l6.8-7.5h29.2zM30.7 100.8h-46.3l6.7-7.8h40.8zM28.6 116h-57.8l6.8-7.4h52.1z"/></g><g class="st1"><path class="st6" d="M66.2 85.5H53l-1.2 9.1H64l-1.1 7.4H50.7l-1.9 14h-9.2l5.3-37.9h22.4l-1.1 7.4zM92.1 116h-7.9l.3-4.3h-.1c-1 1.6-4.2 5.1-9.1 5.1-5.8 0-8.7-3.9-8.7-10.9 0-11.2 4.9-19.3 13.5-19.3 4 0 6.4 1.9 7 2.9h.1l.3-2h8.6l-4 28.5zM81.7 93.8c-3.1 0-4.9 3-5.5 6.5l-.5 3.7c-.1.5-.1 1.1-.1 1.5 0 2.5 1.1 4 3.2 4 3 0 5.7-4 6.2-7.9l.9-6.1c-.5-.5-2-1.7-4.2-1.7zM120.9 95.6c-1.3-.8-4.8-2.4-7.8-2.4-1.2 0-3.2.3-3.2 2 0 1.3 1.1 1.9 3.1 2.7l.8.3c3.4 1.4 7.2 3.3 7.2 8.2 0 7.4-6.1 10.4-13.2 10.4-4.8 0-8.4-1.4-9.6-2l1.4-6.9c1.2.8 4.4 2.4 7.9 2.4 1.9 0 4.3-.6 4.3-2.5 0-1.3-1.5-2-3.6-2.9l-.7-.3c-3.5-1.4-6.7-3.8-6.7-8.2 0-6.8 5.6-9.7 12.1-9.7 4.9 0 8.4 1.4 9.6 2l-1.6 6.9zM146.1 94.7h-6.6l-1.7 12.1c-.1.4-.1.6-.1.7 0 1.8 1.2 2.2 2.8 2.2 1.3 0 3.2-.6 3.9-1l-.5 6.7c-1 .5-4 1.4-7.6 1.4-5.2 0-7.8-2.4-7.8-7.3 0-.7.1-1.5.2-2.3l1.8-12.6h-5.7l1-7.2h5.7l1-7 9.1-1-1.1 8h6.6l-1 7.3zM171.6 116h-22.8l5.3-37.9h9.2l-4.3 30.6 13.6.1-1 7.2zM202.1 116h-7.9l.3-4.3h-.1c-1 1.6-4.2 5.1-9.1 5.1-5.8 0-8.7-3.9-8.7-10.9 0-11.2 4.9-19.3 13.5-19.3 4 0 6.4 1.9 7 2.9h.1l.3-2h8.6l-4 28.5zm-10.4-22.2c-3.1 0-4.9 3-5.5 6.5l-.5 3.7c-.1.5-.1 1.1-.1 1.5 0 2.5 1.1 4 3.2 4 3 0 5.7-4 6.2-7.9l.9-6.1c-.5-.5-2-1.7-4.2-1.7zM236.3 116h-9l2.5-17.5c.1-.4.1-.6.1-.9 0-1.4-.5-3.4-2.8-3.4-3.6 0-6.4 4.8-6.9 8.4l-1.9 13.4h-9l4-28.4h8.2l-.6 4.5h.1c1.1-1.8 4.7-5.3 10.2-5.3 5.2 0 8 3.2 8 8.2 0 .7-.1 1.4-.2 2.2l-2.7 18.8zM252 105.4v.5c0 2 1.6 4 5.2 4 4.3 0 8.2-2.3 9.7-3.4l-.6 7.4c-1.4 1-5.5 3-10.9 3-7.4 0-12.2-3.7-12.2-11.4 0-13.1 7.5-18.7 16-18.7 7.2 0 10.9 3.6 10.9 8.8 0 7.3-10.5 9.8-18.1 9.8zm6.7-12.8c-3 0-5.7 2.6-6.3 7 5.3 0 9.4-1.5 9.4-4.1 0-1.9-1-2.9-3.1-2.9z"/></g><g class="st1"><path class="st7" d="M-515.3 176h-31.4l6.8-7.5h24.6zM-515.3 191.2h-45.1l6.8-7.8h38.3zM-515.3 206.4h-58.6l6.7-7.4h51.9z"/></g><g class="st1"><path class="st7" d="M-494.8 175.9v9.1h12.2v7.4h-12.2v14h-9.2v-37.9h22.4v7.4h-13.2zM-459.8 206.3l-.5-3.2c-1.4 2.2-3.8 4.1-8 4.1-7.8 0-10.7-5.8-10.7-15 0-8.8 3.2-15 11.1-15 4.4 0 6.5 1.9 7.6 4h.1l.4-3.2h8.1v28.4h-8.1v-.1zm-.9-16.1c0-3.6-1.9-5.9-4.4-5.9-3.3 0-4.6 2.6-4.6 6.1v3.6c0 4 1.6 6.1 4.4 6.1 3 0 4.7-2.6 4.7-5.8v-4.1h-.1zM-437.5 207.2c-3.5 0-6.7-.6-9.8-2l.5-6.8c2.5 1.4 5.5 2.3 8.3 2.3 3.4 0 4-1.2 4-2.4 0-1.3-.9-1.9-3.3-2.8l-1.9-.6c-4-1.4-7.4-3.6-7.4-9.1 0-6 4.9-8.7 11.8-8.7 3.1 0 6.5.9 8.5 1.8l-.4 6.8c-2.5-1.3-5.6-2.2-7.4-2.2-2.4 0-3.2.8-3.2 1.9 0 1.2 1 1.9 3.5 2.8l1.9.6c3.8 1.3 7.2 3.5 7.2 9-.3 6-4.5 9.4-12.3 9.4zM-410.1 207.3c-5.7 0-8.3-3-8.3-8.6l.1-13.6h-5.7v-7.2h5.7l.1-7 9-1-.1 8h6.6v7.2h-6.6l-.1 11.7c0 2.6.9 3.3 3 3.3 1.2 0 2.8-.4 3.4-.6l.4 6.4c-1.2.4-4.1 1.4-7.5 1.4zM-398.3 206.3v-37.8h9.2v30.6l13.6.1v7.2l-22.8-.1zM-354.1 206.3l-.5-3.2c-1.4 2.2-3.8 4.1-8 4.1-7.8 0-10.7-5.8-10.7-15 0-8.8 3.2-15 11.1-15 4.4 0 6.5 1.9 7.6 4h.1l.4-3.2h8.1v28.4h-8.1v-.1zm-1-16.1c0-3.6-1.9-5.9-4.4-5.9-3.3 0-4.6 2.6-4.6 6.1v3.6c0 4 1.6 6.1 4.4 6.1 3 0 4.7-2.6 4.7-5.8v-4.1h-.1zM-322.1 206.3v-16.9c0-2.4-.8-4.5-4.1-4.5-2.7 0-4.9 2-4.9 4.3v17.1h-9V178h8.6v3.2h.1c1-1.3 4.2-4 9-4 5.1 0 9.3 2.5 9.3 9.5v19.7l-9-.1zM-283.1 194.5H-300v.3c0 2.6 1.5 5.3 6.2 5.3 3.2 0 6.3-.9 8.9-2l.4 6.8c-2.2 1.2-5.7 2.2-10.3 2.2-11.1 0-14-5.6-14-14.9 0-9.1 3.6-15.2 13.9-15.2 9.1 0 12 5.4 12 14.1 0 .7-.1 2.6-.2 3.4zm-12.2-11.5c-3.4 0-4.8 3-4.8 5.9h8.9c0-2.7-.5-5.9-4.1-5.9z"/></g><g class="st1"><path class="st7" d="M32.8 175.7H-1.9l6.8-7.5h29.2zM30.7 190.8h-46.3l6.7-7.7h40.8zM28.6 206.1h-57.8l6.8-7.4h52.1z"/></g><g class="st1"><path class="st7" d="M66.2 175.5l-13.2.1-1.2 9.1H64l-1.1 7.4H50.7l-1.9 14h-9.2l5.3-37.9h22.4l-1.1 7.3zM92.1 206.1h-7.9l.3-4.3h-.1c-1 1.6-4.2 5.1-9.1 5.1-5.8 0-8.7-3.9-8.7-10.9 0-11.2 4.9-19.3 13.5-19.3 4 0 6.4 1.9 7 2.9h.1l.3-2h8.6l-4 28.5zm-10.4-22.2c-3.1 0-4.9 3-5.5 6.5l-.5 3.7c-.1.5-.1 1.1-.1 1.5 0 2.5 1.1 4 3.2 4 3 0 5.7-4 6.2-7.9l.9-6.1c-.5-.5-2-1.7-4.2-1.7zM120.9 185.7c-1.3-.8-4.8-2.4-7.8-2.4-1.2 0-3.2.3-3.2 2 0 1.3 1.1 1.9 3.1 2.7l.8.3c3.4 1.4 7.2 3.3 7.2 8.2 0 7.4-6.1 10.4-13.2 10.4-4.8 0-8.4-1.4-9.6-2l1.4-6.9c1.2.8 4.4 2.4 7.9 2.4 1.9 0 4.3-.6 4.3-2.5 0-1.3-1.5-2-3.6-2.9l-.7-.3c-3.5-1.4-6.7-3.8-6.7-8.2 0-6.8 5.6-9.7 12.1-9.7 4.9 0 8.4 1.4 9.6 2l-1.6 6.9zM146.1 184.8h-6.6l-1.7 12.1c-.1.4-.1.6-.1.7 0 1.8 1.2 2.2 2.8 2.2 1.3 0 3.2-.6 3.9-1l-.5 6.7c-1 .5-4 1.4-7.6 1.4-5.2 0-7.8-2.4-7.8-7.3 0-.7.1-1.5.2-2.3l1.8-12.6h-5.7l1-7.2h5.7l1-7 9.1-1-1.1 8h6.6l-1 7.3zM171.6 206.1h-22.8l5.3-37.9h9.2l-4.3 30.6 13.6.1-1 7.2zM202.1 206.1h-7.9l.3-4.3h-.1c-1 1.6-4.2 5.1-9.1 5.1-5.8 0-8.7-3.9-8.7-10.9 0-11.2 4.9-19.3 13.5-19.3 4 0 6.4 1.9 7 2.9h.1l.3-2h8.6l-4 28.5zm-10.4-22.2c-3.1 0-4.9 3-5.5 6.5l-.5 3.7c-.1.5-.1 1.1-.1 1.5 0 2.5 1.1 4 3.2 4 3 0 5.7-4 6.2-7.9l.9-6.1c-.5-.5-2-1.7-4.2-1.7zM236.3 206.1h-9l2.5-17.5c.1-.4.1-.6.1-.9 0-1.4-.5-3.4-2.8-3.4-3.6 0-6.4 4.8-6.9 8.4l-1.9 13.4h-9l4-28.4h8.2l-.6 4.5h.1c1.1-1.8 4.7-5.3 10.2-5.3 5.2 0 8 3.2 8 8.2 0 .7-.1 1.4-.2 2.2l-2.7 18.8zM252 195.4v.5c0 2 1.6 4 5.2 4 4.3 0 8.2-2.3 9.7-3.4l-.6 7.4c-1.4 1-5.5 3-10.9 3-7.4 0-12.2-3.7-12.2-11.4 0-13.1 7.5-18.7 16-18.7 7.2 0 10.9 3.6 10.9 8.8 0 7.4-10.5 9.8-18.1 9.8zm6.7-12.7c-3 0-5.7 2.6-6.3 7 5.3 0 9.4-1.5 9.4-4.1 0-1.9-1-2.9-3.1-2.9z"/></g><g class="st1"><path class="st8" d="M-515.3 263.3h-31.4l6.8-7.5h24.6zM-515.3 278.5h-45.1l6.8-7.8h38.3zM-515.3 293.7h-58.6l6.7-7.4h51.9z"/></g><g class="st1"><path class="st8" d="M-494.8 263.2v9.1h12.2v7.4h-12.2v14h-9.2v-37.9h22.4v7.4h-13.2zM-459.8 293.7l-.5-3.2c-1.4 2.2-3.8 4.1-8 4.1-7.8 0-10.7-5.8-10.7-15 0-8.8 3.2-15 11.1-15 4.4 0 6.5 1.9 7.6 4h.1l.4-3.2h8.1v28.4h-8.1v-.1zm-.9-16.2c0-3.6-1.9-5.9-4.4-5.9-3.3 0-4.6 2.6-4.6 6.1v3.6c0 4 1.6 6.1 4.4 6.1 3 0 4.7-2.6 4.7-5.8v-4.1h-.1zM-437.5 294.5c-3.5 0-6.7-.6-9.8-2l.5-6.8c2.5 1.4 5.5 2.3 8.3 2.3 3.4 0 4-1.2 4-2.4 0-1.3-.9-1.9-3.3-2.8l-1.9-.6c-4-1.4-7.4-3.6-7.4-9.1 0-6 4.9-8.7 11.8-8.7 3.1 0 6.5.9 8.5 1.8l-.4 6.8c-2.5-1.3-5.6-2.2-7.4-2.2-2.4 0-3.2.8-3.2 1.9 0 1.2 1 1.9 3.5 2.8l1.9.6c3.8 1.3 7.2 3.5 7.2 9-.3 6-4.5 9.4-12.3 9.4zM-410.1 294.6c-5.7 0-8.3-3-8.3-8.6l.1-13.6h-5.7v-7.2h5.7l.1-7 9-1-.1 8h6.6v7.2h-6.6l-.1 11.7c0 2.6.9 3.3 3 3.3 1.2 0 2.8-.4 3.4-.6l.4 6.4c-1.2.5-4.1 1.4-7.5 1.4zM-398.3 293.7v-37.9h9.2v30.6l13.6.1v7.2h-22.8zM-354.1 293.7l-.5-3.2c-1.4 2.2-3.8 4.1-8 4.1-7.8 0-10.7-5.8-10.7-15 0-8.8 3.2-15 11.1-15 4.4 0 6.5 1.9 7.6 4h.1l.4-3.2h8.1v28.4h-8.1v-.1zm-1-16.2c0-3.6-1.9-5.9-4.4-5.9-3.3 0-4.6 2.6-4.6 6.1v3.6c0 4 1.6 6.1 4.4 6.1 3 0 4.7-2.6 4.7-5.8v-4.1h-.1zM-322.1 293.7v-16.9c0-2.4-.8-4.5-4.1-4.5-2.7 0-4.9 2-4.9 4.3v17.1h-9v-28.4h8.6v3.2h.1c1-1.3 4.2-4 9-4 5.1 0 9.3 2.5 9.3 9.5v19.7h-9zM-283.1 281.8H-300v.3c0 2.6 1.5 5.3 6.2 5.3 3.2 0 6.3-.9 8.9-2l.4 6.8c-2.2 1.2-5.7 2.2-10.3 2.2-11.1 0-14-5.6-14-14.9 0-9.1 3.6-15.2 13.9-15.2 9.1 0 12 5.4 12 14.1 0 .7-.1 2.6-.2 3.4zm-12.2-11.5c-3.4 0-4.8 3-4.8 5.9h8.9c0-2.7-.5-5.9-4.1-5.9z"/></g><g class="st1"><path class="st8" d="M32.8 263H-1.9l6.8-7.5h29.2zM30.7 278.2h-46.3l6.7-7.8h40.8zM28.6 293.4h-57.8l6.8-7.4h52.1z"/></g><g class="st1"><path class="st8" d="M66.2 262.9L53 263l-1.2 9.1H64l-1.1 7.4H50.7l-1.9 14h-9.2l5.3-37.9h22.4l-1.1 7.3zM92.1 293.4h-7.9l.3-4.3h-.1c-1 1.6-4.2 5.1-9.1 5.1-5.8 0-8.7-3.9-8.7-10.9 0-11.2 4.9-19.3 13.5-19.3 4 0 6.4 1.9 7 2.9h.1l.3-2h8.6l-4 28.5zm-10.4-22.2c-3.1 0-4.9 3-5.5 6.5l-.5 3.7c-.1.5-.1 1.1-.1 1.5 0 2.5 1.1 4 3.2 4 3 0 5.7-4 6.2-7.9l.9-6.1c-.5-.5-2-1.7-4.2-1.7zM120.9 273c-1.3-.8-4.8-2.4-7.8-2.4-1.2 0-3.2.3-3.2 2 0 1.3 1.1 1.9 3.1 2.7l.8.3c3.4 1.4 7.2 3.3 7.2 8.2 0 7.4-6.1 10.4-13.2 10.4-4.8 0-8.4-1.4-9.6-2l1.4-6.9c1.2.8 4.4 2.4 7.9 2.4 1.9 0 4.3-.6 4.3-2.5 0-1.3-1.5-2-3.6-2.9l-.7-.3c-3.5-1.4-6.7-3.8-6.7-8.2 0-6.8 5.6-9.7 12.1-9.7 4.9 0 8.4 1.4 9.6 2l-1.6 6.9zM146.1 272.1h-6.6l-1.7 12.1c-.1.4-.1.6-.1.7 0 1.8 1.2 2.2 2.8 2.2 1.3 0 3.2-.6 3.9-1l-.5 6.7c-1 .5-4 1.4-7.6 1.4-5.2 0-7.8-2.4-7.8-7.3 0-.7.1-1.5.2-2.3l1.8-12.6h-5.7l1-7.2h5.7l1-7 9.1-1-1.1 8h6.6l-1 7.3zM171.6 293.4h-22.8l5.3-37.9h9.2l-4.3 30.6 13.6.1-1 7.2zM202.1 293.4h-7.9l.3-4.3h-.1c-1 1.6-4.2 5.1-9.1 5.1-5.8 0-8.7-3.9-8.7-10.9 0-11.2 4.9-19.3 13.5-19.3 4 0 6.4 1.9 7 2.9h.1l.3-2h8.6l-4 28.5zm-10.4-22.2c-3.1 0-4.9 3-5.5 6.5l-.5 3.7c-.1.5-.1 1.1-.1 1.5 0 2.5 1.1 4 3.2 4 3 0 5.7-4 6.2-7.9l.9-6.1c-.5-.5-2-1.7-4.2-1.7zM236.3 293.4h-9l2.5-17.5c.1-.4.1-.6.1-.9 0-1.4-.5-3.4-2.8-3.4-3.6 0-6.4 4.8-6.9 8.4l-1.9 13.4h-9l4-28.4h8.2l-.6 4.5h.1c1.1-1.8 4.7-5.3 10.2-5.3 5.2 0 8 3.2 8 8.2 0 .7-.1 1.4-.2 2.2l-2.7 18.8zM252 282.7v.5c0 2 1.6 4 5.2 4 4.3 0 8.2-2.3 9.7-3.4l-.6 7.4c-1.4 1-5.5 3-10.9 3-7.4 0-12.2-3.7-12.2-11.4 0-13.1 7.5-18.7 16-18.7 7.2 0 10.9 3.6 10.9 8.8 0 7.4-10.5 9.8-18.1 9.8zm6.7-12.7c-3 0-5.7 2.6-6.3 7 5.3 0 9.4-1.5 9.4-4.1 0-1.9-1-2.9-3.1-2.9z"/></g><g class="st1"><path class="st9" d="M-515.3 351.4h-31.4l6.8-7.6h24.6zM-515.3 366.5h-45.1l6.8-7.7h38.3zM-515.3 381.7h-58.6l6.7-7.3h51.9z"/></g><g class="st1"><path class="st9" d="M-494.8 351.3v9.1h12.2v7.4h-12.2v14h-9.2v-37.9h22.4v7.4h-13.2zM-459.8 381.7l-.5-3.2c-1.4 2.2-3.8 4.1-8 4.1-7.8 0-10.7-5.8-10.7-15 0-8.8 3.2-15 11.1-15 4.4 0 6.5 1.9 7.6 4h.1l.4-3.2h8.1v28.4l-8.1-.1zm-.9-16.2c0-3.6-1.9-5.9-4.4-5.9-3.3 0-4.6 2.6-4.6 6.1v3.6c0 4 1.6 6.1 4.4 6.1 3 0 4.7-2.6 4.7-5.8v-4.1h-.1zM-437.5 382.6c-3.5 0-6.7-.6-9.8-2l.5-6.8c2.5 1.4 5.5 2.3 8.3 2.3 3.4 0 4-1.2 4-2.4 0-1.3-.9-1.9-3.3-2.8l-1.9-.6c-4-1.4-7.4-3.6-7.4-9.1 0-6 4.9-8.7 11.8-8.7 3.1 0 6.5.9 8.5 1.8l-.4 6.8c-2.5-1.3-5.6-2.2-7.4-2.2-2.4 0-3.2.8-3.2 1.9 0 1.2 1 1.9 3.5 2.8l1.9.6c3.8 1.3 7.2 3.5 7.2 9-.3 6-4.5 9.4-12.3 9.4zM-410.1 382.6c-5.7 0-8.3-3-8.3-8.6l.1-13.6h-5.7v-7.2h5.7l.1-7 9-1-.1 8h6.6v7.2h-6.6l-.1 11.7c0 2.6.9 3.3 3 3.3 1.2 0 2.8-.4 3.4-.6l.4 6.4c-1.2.5-4.1 1.4-7.5 1.4zM-398.3 381.7v-37.9h9.2v30.6l13.6.1v7.2h-22.8zM-354.1 381.7l-.5-3.2c-1.4 2.2-3.8 4.1-8 4.1-7.8 0-10.7-5.8-10.7-15 0-8.8 3.2-15 11.1-15 4.4 0 6.5 1.9 7.6 4h.1l.4-3.2h8.1v28.4l-8.1-.1zm-1-16.2c0-3.6-1.9-5.9-4.4-5.9-3.3 0-4.6 2.6-4.6 6.1v3.6c0 4 1.6 6.1 4.4 6.1 3 0 4.7-2.6 4.7-5.8v-4.1h-.1zM-322.1 381.7v-16.9c0-2.4-.8-4.5-4.1-4.5-2.7 0-4.9 2-4.9 4.3v17.1h-9v-28.4h8.6v3.2h.1c1-1.3 4.2-4 9-4 5.1 0 9.3 2.5 9.3 9.5v19.7h-9zM-283.1 369.9H-300v.3c0 2.6 1.5 5.3 6.2 5.3 3.2 0 6.3-.9 8.9-2l.4 6.8c-2.2 1.2-5.7 2.2-10.3 2.2-11.1 0-14-5.6-14-14.9 0-9.1 3.6-15.2 13.9-15.2 9.1 0 12 5.4 12 14.1 0 .7-.1 2.6-.2 3.4zm-12.2-11.6c-3.4 0-4.8 3-4.8 5.9h8.9c0-2.6-.5-5.9-4.1-5.9z"/></g><g class="st1"><path class="st9" d="M32.8 351H-1.9l6.8-7.5h29.2zM30.7 366.2h-46.3l6.7-7.7h40.8zM28.6 381.4h-57.8l6.8-7.3h52.1z"/></g><g class="st1"><path class="st9" d="M66.2 350.9L53 351l-1.2 9.1H64l-1.1 7.4H50.7l-1.9 14h-9.2l5.3-37.9h22.4l-1.1 7.3zM92.1 381.4h-7.9l.3-4.3h-.1c-1 1.6-4.2 5.1-9.1 5.1-5.8 0-8.7-3.9-8.7-10.9 0-11.2 4.9-19.3 13.5-19.3 4 0 6.4 1.9 7 2.9h.1l.3-2h8.6l-4 28.5zm-10.4-22.1c-3.1 0-4.9 3-5.5 6.5l-.5 3.7c-.1.5-.1 1.1-.1 1.5 0 2.5 1.1 4 3.2 4 3 0 5.7-4 6.2-7.9l.9-6.1c-.5-.5-2-1.7-4.2-1.7zM120.9 361c-1.3-.8-4.8-2.4-7.8-2.4-1.2 0-3.2.3-3.2 2 0 1.3 1.1 1.9 3.1 2.7l.8.3c3.4 1.4 7.2 3.3 7.2 8.2 0 7.4-6.1 10.4-13.2 10.4-4.8 0-8.4-1.4-9.6-2l1.4-6.9c1.2.8 4.4 2.4 7.9 2.4 1.9 0 4.3-.6 4.3-2.5 0-1.3-1.5-2-3.6-2.9l-.7-.3c-3.5-1.4-6.7-3.8-6.7-8.2 0-6.8 5.6-9.7 12.1-9.7 4.9 0 8.4 1.4 9.6 2l-1.6 6.9zM146.1 360.2h-6.6l-1.7 12.1c-.1.4-.1.6-.1.7 0 1.8 1.2 2.2 2.8 2.2 1.3 0 3.2-.6 3.9-1l-.5 6.7c-1 .5-4 1.4-7.6 1.4-5.2 0-7.8-2.4-7.8-7.3 0-.7.1-1.5.2-2.3l1.8-12.6h-5.7l1-7.2h5.7l1-7 9.1-1-1.1 8h6.6l-1 7.3zM171.6 381.4h-22.8l5.3-37.9h9.2l-4.3 30.6 13.6.1-1 7.2zM202.1 381.4h-7.9l.3-4.3h-.1c-1 1.6-4.2 5.1-9.1 5.1-5.8 0-8.7-3.9-8.7-10.9 0-11.2 4.9-19.3 13.5-19.3 4 0 6.4 1.9 7 2.9h.1l.3-2h8.6l-4 28.5zm-10.4-22.1c-3.1 0-4.9 3-5.5 6.5l-.5 3.7c-.1.5-.1 1.1-.1 1.5 0 2.5 1.1 4 3.2 4 3 0 5.7-4 6.2-7.9l.9-6.1c-.5-.5-2-1.7-4.2-1.7zM236.3 381.4h-9l2.5-17.5c.1-.4.1-.6.1-.9 0-1.4-.5-3.4-2.8-3.4-3.6 0-6.4 4.8-6.9 8.4l-1.9 13.4h-9l4-28.4h8.2l-.6 4.5h.1c1.1-1.8 4.7-5.3 10.2-5.3 5.2 0 8 3.2 8 8.2 0 .7-.1 1.4-.2 2.2l-2.7 18.8zM252 370.8v.5c0 2 1.6 4 5.2 4 4.3 0 8.2-2.3 9.7-3.4l-.6 7.4c-1.4 1-5.5 3-10.9 3-7.4 0-12.2-3.7-12.2-11.4 0-13.1 7.5-18.7 16-18.7 7.2 0 10.9 3.6 10.9 8.8 0 7.4-10.5 9.8-18.1 9.8zm6.7-12.8c-3 0-5.7 2.6-6.3 7 5.3 0 9.4-1.5 9.4-4.1 0-1.9-1-2.9-3.1-2.9z"/></g><path fill="#fff" d="M519.2-41.6h98.6V57h-98.6z"/><path fill="#414042" d="M617.7-41.6h98.6V57h-98.6z"/><path fill="#c22036" d="M716.1-41.6h98.6V57h-98.6z"/><path fill="#f05235" d="M814.6-41.6h98.6V57h-98.6z"/><path fill="#d1d3d4" d="M519.2 56.9h98.6v98.6h-98.6z"/><path fill="#8da5b5" d="M617.7 56.9h98.6v98.6h-98.6z"/><path fill="#560935" d="M716.1 56.9h98.6v98.6h-98.6z"/><path class="st5" d="M814.6 56.9h98.6v98.6h-98.6z"/><path fill="#991c50" d="M519.2 155.5h98.6v98.6h-98.6z"/><path fill="#9a3354" d="M617.7 155.5h98.6v98.6h-98.6z"/><path fill="#9a4259" d="M716.1 155.5h98.6v98.6h-98.6z"/><path fill="#faaa3a" d="M814.6 155.5h98.6v98.6h-98.6z"/></g><g id="Layer_4" class="st0"><g class="st1"><path d="M-296.1-19.5V-8h15.5v9.4h-15.5v17.7h-11.7v-48h28.4v9.4h-16.7zM-250.8 19.1l-.6-4.1c-1.8 2.7-4.8 5.2-10.2 5.2-9.9 0-13.5-7.4-13.5-19.1 0-11.2 4-19.1 14-19.1 5.5 0 8.3 2.4 9.6 5.1h.1l.5-4h10.3v36h-10.2zM-252-1.4c0-4.5-2.4-7.5-5.6-7.5-4.2 0-5.8 3.3-5.8 7.8v4.5c0 5.1 2.1 7.7 5.5 7.7 3.8 0 5.9-3.2 5.9-7.4v-5.1zM-220.5 20.2c-4.5 0-8.5-.8-12.5-2.5l.6-8.6c3.2 1.7 7 3 10.5 3 4.2 0 5-1.5 5-3 0-1.7-1.1-2.4-4.2-3.5l-2.4-.8c-5-1.7-9.4-4.6-9.4-11.6 0-7.6 6.3-11 14.9-11 4 0 8.2 1.1 10.7 2.2l-.5 8.6c-3.2-1.7-7.1-2.7-9.4-2.7-3 0-4.1 1-4.1 2.4 0 1.5 1.2 2.4 4.5 3.5l2.4.8c4.8 1.7 9.1 4.4 9.1 11.4 0 7.5-5.3 11.8-15.2 11.8zM-184.8 20.3c-7.3 0-10.6-3.7-10.6-10.9l.1-17.2h-7.3v-9.1h7.3l.1-8.9 11.4-1.2-.1 10.1h8.4v9.1h-8.4L-184 7c0 3.2 1.2 4.2 3.7 4.2 1.6 0 3.5-.5 4.2-.7l.5 8.1c-1.2.5-4.9 1.7-9.2 1.7zM-167.8 19.1v-48h11.7V9.9l17.2.1v9.1h-28.9zM-110.8 19.1l-.6-4.1c-1.8 2.7-4.8 5.2-10.2 5.2-9.9 0-13.5-7.4-13.5-19.1 0-11.2 4-19.1 14-19.1 5.5 0 8.3 2.4 9.6 5.1h.1l.5-4h10.3v36h-10.2zM-112-1.4c0-4.5-2.4-7.5-5.6-7.5-4.2 0-5.8 3.3-5.8 7.8v4.5c0 5.1 2.1 7.7 5.5 7.7 3.8 0 5.9-3.2 5.9-7.4v-5.1zM-68.3 19.1V-2.4c0-3.1-1-5.7-5.2-5.7-3.4 0-6.2 2.6-6.2 5.5v21.7h-11.4v-36h10.9v4h.1c1.3-1.7 5.3-5.1 11.4-5.1 6.5 0 11.8 3.2 11.8 12.1v25h-11.4zM-17.7 4.2h-21.5v.4c0 3.3 1.9 6.8 7.9 6.8 4.1 0 8-1.1 11.2-2.5l.5 8.6c-2.7 1.5-7.3 2.7-13.1 2.7-14.1 0-17.7-7.1-17.7-18.9 0-11.5 4.5-19.2 17.6-19.2 11.6 0 15.2 6.8 15.2 17.9 0 .7 0 3.1-.1 4.2zm-15.6-14.7c-4.3 0-6.1 3.8-6.1 7.5h11.3c0-3.3-.6-7.5-5.2-7.5z"/></g><g class="st1"><path d="M42.9-19.5V-8h15.5v9.4H42.9v17.7H31.2v-48h28.4v9.4H42.9zM85.2 19.1l-.6-4.1c-1.8 2.7-4.8 5.2-10.2 5.2-9.9 0-13.5-7.4-13.5-19.1 0-11.2 4-19.1 14-19.1 5.5 0 8.3 2.4 9.6 5.1h.1l.5-4h10.3v36H85.2zM84-1.4c0-4.5-2.4-7.5-5.6-7.5-4.2 0-5.8 3.3-5.8 7.8v4.5c0 5.1 2.1 7.7 5.5 7.7 3.8 0 5.9-3.2 5.9-7.4v-5.1zM111.5 20.2c-4.5 0-8.5-.8-12.5-2.5l.6-8.6c3.2 1.7 7 3 10.5 3 4.2 0 5-1.5 5-3 0-1.7-1.1-2.4-4.2-3.5l-2.4-.8c-5-1.7-9.4-4.6-9.4-11.6 0-7.6 6.3-11 14.9-11 4 0 8.2 1.1 10.7 2.2l-.5 8.6c-3.2-1.7-7.1-2.7-9.4-2.7-3 0-4.1 1-4.1 2.4 0 1.5 1.2 2.4 4.5 3.5l2.4.8c4.8 1.7 9.1 4.4 9.1 11.4 0 7.5-5.3 11.8-15.2 11.8zM144.2 20.3c-7.3 0-10.6-3.7-10.6-10.9l.1-17.2h-7.3v-9.1h7.3l.1-8.9 11.4-1.2-.1 10.1h8.4v9.1h-8.4L145 7c0 3.2 1.2 4.2 3.7 4.2 1.6 0 3.5-.5 4.2-.7l.5 8.1c-1.2.5-4.9 1.7-9.2 1.7zM157.2 19.1v-48h11.7V9.9l17.2.1v9.1h-28.9zM211.2 19.1l-.6-4.1c-1.8 2.7-4.8 5.2-10.2 5.2-9.9 0-13.5-7.4-13.5-19.1 0-11.2 4-19.1 14-19.1 5.5 0 8.3 2.4 9.6 5.1h.1l.5-4h10.3v36h-10.2zM210-1.4c0-4.5-2.4-7.5-5.6-7.5-4.2 0-5.8 3.3-5.8 7.8v4.5c0 5.1 2.1 7.7 5.5 7.7 3.8 0 5.9-3.2 5.9-7.4v-5.1zM249.7 19.1V-2.4c0-3.1-1-5.7-5.2-5.7-3.4 0-6.2 2.6-6.2 5.5v21.7h-11.4v-36h10.9v4h.1c1.3-1.7 5.3-5.1 11.4-5.1 6.5 0 11.8 3.2 11.8 12.1v25h-11.4zM297.3 4.2h-21.5v.4c0 3.3 1.9 6.8 7.9 6.8 4.1 0 8-1.1 11.2-2.5l.5 8.6c-2.7 1.5-7.3 2.7-13.1 2.7-14.1 0-17.7-7.1-17.7-18.9 0-11.5 4.5-19.2 17.6-19.2 11.6 0 15.2 6.8 15.2 17.9 0 .7 0 3.1-.1 4.2zm-15.6-14.7c-4.3 0-6.1 3.8-6.1 7.5h11.3c0-3.3-.6-7.5-5.2-7.5z"/></g><g class="st1"><path d="M58.1 159.5v13.6H74v7.8H58.1v18.7h-9.5v-48h26.7v7.8l-17.2.1zM103.7 199.6l-.5-4.5h-.1c-1.9 2.9-4.8 5.5-10.4 5.5-9.9 0-13.5-7.7-13.5-18.9 0-10.8 3.9-19.1 14-19.1 5.7 0 8.5 2.7 9.9 5.5h.1l.4-4.5h8.4v36h-8.3zm-.9-20.7c0-5.2-3.2-8.7-6.8-8.7-5.1 0-7.1 4.1-7.1 9.3v4.5c0 5.8 2.6 9.1 6.8 9.1 4.3 0 7.1-3.9 7.1-8.4v-5.8zM130 200.6c-4.2 0-7.9-.9-11.6-2.5l.4-7.3c3.2 1.8 6.7 3 10.3 3 4.8 0 6-1.9 6-4 0-2.4-1.6-3.5-5.8-4.9l-.9-.3c-5.9-1.9-10-4.9-10-11.4 0-6.8 5.4-10.5 14-10.5 4 0 7.8 1.1 10.2 2.3l-.4 7.3c-3.4-1.8-7.1-2.7-9.2-2.7-3.7 0-5.1 1.3-5.1 3.2 0 2.1 1.6 3.2 5.3 4.5l2.4.9c4.9 1.7 8.9 4.4 8.9 11 .1 7.1-4.9 11.4-14.5 11.4zM164.1 200.6c-6.9 0-9.9-3.5-9.9-10.3l.1-19.2h-7.7v-7.5h7.7l.1-9 9.3-1.1-.1 10.1h8.9v7.5h-8.9l-.1 17.6c0 3.2 1.2 4.5 4 4.5 1.7 0 3.8-.6 4.6-.9l.4 6.8c-1.2.5-4.6 1.5-8.4 1.5zM178.6 199.6v-48h9.5v40.3l17.9.1v7.7l-27.4-.1zM233.7 199.6l-.5-4.5h-.1c-1.9 2.9-4.8 5.5-10.4 5.5-9.9 0-13.5-7.7-13.5-18.9 0-10.8 3.9-19.1 14-19.1 5.7 0 8.5 2.7 9.9 5.5h.1l.4-4.5h8.4v36h-8.3zm-.9-20.7c0-5.2-3.2-8.7-6.8-8.7-5.1 0-7.1 4.1-7.1 9.3v4.5c0 5.8 2.6 9.1 6.8 9.1 4.3 0 7.1-3.9 7.1-8.4v-5.8zM272.1 199.6v-22c0-3.5-1-6.8-6-6.8-4 0-7.4 3.2-7.4 6.6v22.2h-9.4v-36h8.9v4.4h.1c1.3-1.7 5.3-5.4 11.4-5.4 7.1 0 11.7 3.6 11.7 12.1v24.9h-9.3zM318.2 184.1h-22v.8c0 4.2 2.2 8.4 8.7 8.4 4.1 0 7.9-1.1 11.1-2.6l.4 7.3c-2.7 1.6-7.2 2.7-12.5 2.7-13.5 0-16.9-7.3-16.9-18.9 0-11.4 4.5-19.2 16.8-19.2 9.9 0 14.5 5.5 14.5 17.3.1.7 0 3.1-.1 4.2zM303.5 169c-5.2 0-7.3 4.5-7.3 8.9h13.5c-.1-4.3-.8-8.9-6.2-8.9z"/></g><g class="st1"><path d="M58.1 220.5v13.6H74v7.8H58.1v18.7h-9.5v-48h26.7v7.8l-17.2.1zM104.7 260.6l-.5-4.5h-.1c-1.9 2.9-4.8 5.5-10.4 5.5-9.9 0-13.5-7.7-13.5-18.9 0-10.8 3.9-19.1 14-19.1 5.7 0 8.5 2.7 9.9 5.5h.1l.4-4.5h8.4v36h-8.3zm-.9-20.7c0-5.2-3.2-8.7-6.8-8.7-5.1 0-7.1 4.1-7.1 9.3v4.5c0 5.8 2.6 9.1 6.8 9.1 4.3 0 7.1-3.9 7.1-8.4v-5.8zM133 261.6c-4.2 0-7.9-.9-11.6-2.5l.4-7.3c3.2 1.8 6.7 3 10.3 3 4.8 0 6-1.9 6-4 0-2.4-1.6-3.5-5.8-4.9l-.9-.3c-5.9-1.9-10-4.9-10-11.4 0-6.8 5.4-10.5 14-10.5 4 0 7.8 1.1 10.2 2.3l-.4 7.3c-3.4-1.8-7.1-2.7-9.2-2.7-3.7 0-5.1 1.3-5.1 3.2 0 2.1 1.6 3.2 5.3 4.5l2.4.9c4.9 1.7 8.9 4.4 8.9 11 .1 7.1-4.9 11.4-14.5 11.4zM168.1 261.6c-6.9 0-9.9-3.5-9.9-10.3l.1-19.2h-7.7v-7.5h7.7l.1-9 9.3-1.1-.1 10.1h8.9v7.5h-8.9l-.1 17.6c0 3.2 1.2 4.5 4 4.5 1.7 0 3.8-.6 4.6-.9l.4 6.8c-1.2.5-4.6 1.5-8.4 1.5zM184.6 260.6v-48h9.5v40.3l17.9.1v7.7h-27.4v-.1zM241.7 260.6l-.5-4.5h-.1c-1.9 2.9-4.8 5.5-10.4 5.5-9.9 0-13.5-7.7-13.5-18.9 0-10.8 3.9-19.1 14-19.1 5.7 0 8.5 2.7 9.9 5.5h.1l.4-4.5h8.4v36h-8.3zm-.9-20.7c0-5.2-3.2-8.7-6.8-8.7-5.1 0-7.1 4.1-7.1 9.3v4.5c0 5.8 2.6 9.1 6.8 9.1 4.3 0 7.1-3.9 7.1-8.4v-5.8zM283.1 260.6v-22c0-3.5-1-6.8-6-6.8-4 0-7.4 3.2-7.4 6.6v22.2h-9.4v-36h8.9v4.4h.1c1.3-1.7 5.3-5.4 11.4-5.4 7.1 0 11.7 3.6 11.7 12.1v24.9h-9.3zM331.2 245.1h-22v.8c0 4.2 2.2 8.4 8.7 8.4 4.1 0 7.9-1.1 11.1-2.6l.4 7.3c-2.7 1.6-7.2 2.7-12.5 2.7-13.5 0-16.9-7.3-16.9-18.9 0-11.4 4.5-19.2 16.8-19.2 9.9 0 14.5 5.5 14.5 17.3.1.7 0 3.1-.1 4.2zM316.5 230c-5.2 0-7.3 4.5-7.3 8.9h13.5c-.1-4.3-.8-8.9-6.2-8.9z"/></g><g class="st1"><path d="M397.1 220.5v13.6H413v7.8h-15.9v18.7h-9.5v-48h26.7v7.8l-17.2.1zM440.7 260.6l-.5-4.5h-.1c-1.9 2.9-4.8 5.5-10.4 5.5-9.9 0-13.5-7.7-13.5-18.9 0-10.8 3.9-19.1 14-19.1 5.7 0 8.5 2.7 9.9 5.5h.1l.4-4.5h8.4v36h-8.3zm-.9-20.7c0-5.2-3.2-8.7-6.8-8.7-5.1 0-7.1 4.1-7.1 9.3v4.5c0 5.8 2.6 9.1 6.8 9.1 4.3 0 7.1-3.9 7.1-8.4v-5.8zM465 261.6c-4.2 0-7.9-.9-11.6-2.5l.4-7.3c3.2 1.8 6.7 3 10.3 3 4.8 0 6-1.9 6-4 0-2.4-1.6-3.5-5.8-4.9l-.9-.3c-5.9-1.9-10-4.9-10-11.4 0-6.8 5.4-10.5 14-10.5 4 0 7.8 1.1 10.2 2.3l-.4 7.3c-3.4-1.8-7.1-2.7-9.2-2.7-3.7 0-5.1 1.3-5.1 3.2 0 2.1 1.6 3.2 5.3 4.5l2.4.9c4.9 1.7 8.9 4.4 8.9 11 .1 7.1-4.9 11.4-14.5 11.4zM498.1 261.6c-6.9 0-9.9-3.5-9.9-10.3l.1-19.2h-7.7v-7.5h7.7l.1-9 9.3-1.1-.1 10.1h8.9v7.5h-8.9l-.1 17.6c0 3.2 1.2 4.5 4 4.5 1.7 0 3.8-.6 4.6-.9l.4 6.8c-1.2.5-4.6 1.5-8.4 1.5zM510.6 260.6v-48h9.5v40.3l17.9.1v7.7h-27.4v-.1zM563.7 260.6l-.5-4.5h-.1c-1.9 2.9-4.8 5.5-10.4 5.5-9.9 0-13.5-7.7-13.5-18.9 0-10.8 3.9-19.1 14-19.1 5.7 0 8.5 2.7 9.9 5.5h.1l.4-4.5h8.4v36h-8.3zm-.9-20.7c0-5.2-3.2-8.7-6.8-8.7-5.1 0-7.1 4.1-7.1 9.3v4.5c0 5.8 2.6 9.1 6.8 9.1 4.3 0 7.1-3.9 7.1-8.4v-5.8zM601.1 260.6v-22c0-3.5-1-6.8-6-6.8-4 0-7.4 3.2-7.4 6.6v22.2h-9.4v-36h8.9v4.4h.1c1.3-1.7 5.3-5.4 11.4-5.4 7.1 0 11.7 3.6 11.7 12.1v24.9h-9.3zM646.2 245.1h-22v.8c0 4.2 2.2 8.4 8.7 8.4 4.1 0 7.9-1.1 11.1-2.6l.4 7.3c-2.7 1.6-7.2 2.7-12.5 2.7-13.5 0-16.9-7.3-16.9-18.9 0-11.4 4.5-19.2 16.8-19.2 9.9 0 14.5 5.5 14.5 17.3.1.7 0 3.1-.1 4.2zM631.5 230c-5.2 0-7.3 4.5-7.3 8.9h13.5c-.1-4.3-.8-8.9-6.2-8.9z"/></g><g class="st1"><path d="M-297.9 279.5v13.6h15.9v7.8h-15.9v18.7h-9.5v-48h26.7v7.8l-17.2.1zM-255.6 319.6l-.5-4.7h-.1c-.9 1.9-4.5 5.7-11 5.7-7.4 0-10.9-4.5-10.9-10.7 0-7.9 6.6-12 16.1-12 2.3 0 4.5.2 5.2.3v-3.1c0-3.8-2.7-5.2-6.9-5.2-4 0-7.6 1.1-11.2 2.7l-.4-7.3c3.7-1.7 8.2-2.7 13.2-2.7 8.4 0 14.7 2.2 14.7 12.5v24.5h-8.2zm-1.2-15.6c-.5-.1-1.9-.2-3.8-.2-3.6 0-8.1 1.3-8.1 5.5 0 3 1.9 4.5 4.8 4.5 3.7 0 7.2-3.5 7.2-8.1l-.1-1.7zM-230 320.7c-4.2 0-7.9-.9-11.6-2.5l.4-7.3c3.2 1.8 6.7 3 10.3 3 4.8 0 6-1.9 6-4 0-2.4-1.6-3.5-5.8-4.9l-.9-.3c-5.9-1.9-10-4.9-10-11.4 0-6.8 5.4-10.5 14-10.5 4 0 7.8 1.1 10.2 2.3l-.4 7.3c-3.4-1.8-7.1-2.7-9.2-2.7-3.7 0-5.1 1.3-5.1 3.2 0 2.1 1.6 3.2 5.3 4.5l2.4.9c4.9 1.7 8.9 4.4 8.9 11 .1 7-4.9 11.4-14.5 11.4zM-196.9 320.7c-6.9 0-9.9-3.5-9.9-10.3l.1-19.2h-7.7v-7.5h7.7l.1-9 9.3-1.1-.1 10.1h8.9v7.5h-8.9l-.1 17.6c0 3.2 1.2 4.5 4 4.5 1.7 0 3.8-.6 4.6-.9l.4 6.8c-1.2.4-4.6 1.5-8.4 1.5zM-182.4 319.6v-48h9.5v40.3l17.9.1v7.7h-27.4v-.1zM-129.6 319.6l-.5-4.7h-.1c-.9 1.9-4.5 5.7-11 5.7-7.4 0-10.9-4.5-10.9-10.7 0-7.9 6.6-12 16.1-12 2.3 0 4.5.2 5.2.3v-3.1c0-3.8-2.7-5.2-6.9-5.2-4 0-7.6 1.1-11.2 2.7l-.4-7.3c3.7-1.7 8.2-2.7 13.2-2.7 8.4 0 14.7 2.2 14.7 12.5v24.5h-8.2zm-1.2-15.6c-.5-.1-1.9-.2-3.8-.2-3.6 0-8.1 1.3-8.1 5.5 0 3 1.9 4.5 4.8 4.5 3.7 0 7.2-3.5 7.2-8.1l-.1-1.7zM-90.9 319.6v-22c0-3.5-1-6.8-6-6.8-4 0-7.4 3.2-7.4 6.6v22.2h-9.4v-36h8.9v4.4h.1c1.3-1.7 5.3-5.4 11.4-5.4 7.1 0 11.7 3.6 11.7 12.1v24.9h-9.3zM-44.8 304.1h-22v.8c0 4.2 2.2 8.4 8.7 8.4 4.1 0 7.9-1.1 11.1-2.6l.4 7.3c-2.7 1.6-7.2 2.7-12.5 2.7-13.5 0-16.9-7.3-16.9-18.9 0-11.4 4.5-19.2 16.8-19.2 9.9 0 14.5 5.5 14.5 17.3.1.7 0 3.1-.1 4.2zM-59.5 289c-5.2 0-7.3 4.5-7.3 8.9h13.5c-.1-4.2-.8-8.9-6.2-8.9z"/></g><g class="st1"><path d="M-297.9 183.5v13.6h15.9v7.8h-15.9v18.7h-9.5v-48h26.7v7.8l-17.2.1zM-256.6 223.6l-.5-4.7h-.1c-.9 1.9-4.5 5.7-11 5.7-7.4 0-10.9-4.5-10.9-10.7 0-7.9 6.6-12 16.1-12 2.3 0 4.5.2 5.2.3v-3.1c0-3.8-2.7-5.2-6.9-5.2-4 0-7.6 1.1-11.2 2.7l-.4-7.3c3.7-1.7 8.2-2.7 13.2-2.7 8.4 0 14.7 2.2 14.7 12.5v24.5h-8.2zm-1.2-15.6c-.5-.1-1.9-.2-3.8-.2-3.6 0-8.1 1.3-8.1 5.5 0 3 1.9 4.5 4.8 4.5 3.7 0 7.2-3.5 7.2-8.1l-.1-1.7zM-231 224.7c-4.2 0-7.9-.9-11.6-2.5l.4-7.3c3.2 1.8 6.7 3 10.3 3 4.8 0 6-1.9 6-4 0-2.4-1.6-3.5-5.8-4.9l-.9-.3c-5.9-1.9-10-4.9-10-11.4 0-6.8 5.4-10.5 14-10.5 4 0 7.8 1.1 10.2 2.3l-.4 7.3c-3.4-1.8-7.1-2.7-9.2-2.7-3.7 0-5.1 1.3-5.1 3.2 0 2.1 1.6 3.2 5.3 4.5l2.4.9c4.9 1.7 8.9 4.4 8.9 11 .1 7-4.9 11.4-14.5 11.4zM-196.9 224.7c-6.9 0-9.9-3.5-9.9-10.3l.1-19.2h-7.7v-7.5h7.7l.1-9 9.3-1.1-.1 10.1h8.9v7.5h-8.9l-.1 17.6c0 3.2 1.2 4.5 4 4.5 1.7 0 3.8-.6 4.6-.9l.4 6.8c-1.2.4-4.6 1.5-8.4 1.5zM-182.4 223.6v-48h9.5v40.3l17.9.1v7.7h-27.4v-.1zM-128.6 223.6l-.5-4.7h-.1c-.9 1.9-4.5 5.7-11 5.7-7.4 0-10.9-4.5-10.9-10.7 0-7.9 6.6-12 16.1-12 2.3 0 4.5.2 5.2.3v-3.1c0-3.8-2.7-5.2-6.9-5.2-4 0-7.6 1.1-11.2 2.7l-.4-7.3c3.7-1.7 8.2-2.7 13.2-2.7 8.4 0 14.7 2.2 14.7 12.5v24.5h-8.2zm-1.2-15.6c-.5-.1-1.9-.2-3.8-.2-3.6 0-8.1 1.3-8.1 5.5 0 3 1.9 4.5 4.8 4.5 3.7 0 7.2-3.5 7.2-8.1V208h-.1zM-89.9 223.6v-22c0-3.5-1-6.8-6-6.8-4 0-7.4 3.2-7.4 6.6v22.2h-9.4v-36h8.9v4.4h.1c1.3-1.7 5.3-5.4 11.4-5.4 7.1 0 11.7 3.6 11.7 12.1v24.9h-9.3zM-43.8 208.1h-22v.8c0 4.2 2.2 8.4 8.7 8.4 4.1 0 7.9-1.1 11.1-2.6l.4 7.3c-2.7 1.6-7.2 2.7-12.5 2.7-13.5 0-16.9-7.3-16.9-18.9 0-11.4 4.5-19.2 16.8-19.2 9.9 0 14.5 5.5 14.5 17.3.1.7 0 3.1-.1 4.2zM-58.5 193c-5.2 0-7.3 4.5-7.3 8.9h13.5c-.1-4.2-.8-8.9-6.2-8.9z"/></g></g><g id="Layer_5" class="st0"><g class="st1"><path d="M-59.1 265.2h-90.4l17.7-19.6h75.9zM-64.6 304.6H-185l17.5-20.1h106zM-70.2 344.2h-150.1l17.5-19.1 135.6-.1z"/></g><g class="st1"><path d="M-30.9-35.1h-81.6l17.7-19.6h63.9zM-30.9 4.3H-148l17.5-20.1h99.6zM-30.9 43.8h-152.4l17.5-19.1h134.9z"/></g><g class="st1"><path d="M22.5 264.8l-34.4.1-3.2 23.6h31.8l-2.8 19.2H-18l-5 36.3h-23.9l13.9-98.4h58.2l-2.7 19.2zM89.9 344.2H69.4l.7-11.1H70c-2.5 4.3-10.9 13.3-23.8 13.3-15.1 0-22.7-10-22.7-28.2 0-29.1 12.9-50.1 35.2-50.1 10.5 0 16.5 5 18.2 7.5h.1l.9-5.3h22.3l-10.3 73.9zm-27.1-57.7c-8 0-12.9 7.7-14.2 16.8l-1.3 9.7c-.1 1.3-.3 2.8-.3 4 0 6.5 3 10.3 8.3 10.3 7.7 0 14.8-10.5 16.2-20.5l2.2-15.8c-1.3-1.4-5.2-4.5-10.9-4.5zM164.8 291.1c-3.4-2.1-12.4-6.4-20.4-6.4-3.1 0-8.4.9-8.4 5.2 0 3.4 2.8 5 8 7.1l2.1.9c8.9 3.5 18.6 8.6 18.6 21.4 0 19.2-15.8 27-34.3 27-12.4 0-21.9-3.5-25-5.2l3.5-17.9c3.1 2.1 11.4 6.2 20.5 6.2 4.9 0 11.1-1.5 11.1-6.5 0-3.4-3.8-5.3-9.3-7.5l-1.9-.7c-9-3.5-17.4-9.9-17.4-21.4 0-17.7 14.6-25.3 31.5-25.3 12.7 0 21.9 3.5 25 5.2l-3.6 17.9zM230.1 288.9h-17.3l-4.4 31.5c-.1 1-.1 1.5-.1 1.9 0 4.7 3.1 5.6 7.4 5.6 3.4 0 8.3-1.6 10.2-2.5l-1.3 17.4c-2.7 1.2-10.3 3.7-19.6 3.7-13.4 0-20.4-6.2-20.4-18.9 0-1.9.1-3.8.4-5.9l4.6-32.8h-14.8l2.5-18.6h14.9l2.7-18.2 23.6-2.5-3 20.7h17.3l-2.7 18.6zM296.4 344.2h-59.2l13.9-98.5H275l-11.2 79.6 35.3.1-2.7 18.8zM375.9 344.2h-20.5l.7-11.1h-.1c-2.5 4.3-10.9 13.3-23.8 13.3-15.1 0-22.7-10-22.7-28.2 0-29.1 12.9-50.1 35.2-50.1 10.5 0 16.5 5 18.2 7.5h.1l.9-5.3h22.3l-10.3 73.9zm-27.1-57.7c-8 0-12.9 7.7-14.2 16.8l-1.3 9.7c-.1 1.3-.3 2.8-.3 4 0 6.5 3 10.3 8.3 10.3 7.7 0 14.8-10.5 16.2-20.5l2.2-15.8c-1.3-1.4-5.2-4.5-10.9-4.5zM464.7 344.2h-23.5l6.5-45.5c.1-1 .1-1.6.1-2.2 0-3.7-1.2-8.7-7.2-8.7-9.3 0-16.5 12.4-17.9 21.7l-4.9 34.7h-23.5l10.5-73.9h21.3l-1.6 11.7h.1c3-4.6 12.3-13.9 26.6-13.9 13.6 0 20.7 8.3 20.7 21.4 0 1.8-.1 3.7-.4 5.6l-6.8 49.1zM505.4 316.5v1.3c0 5.2 4.3 10.3 13.4 10.3 11.1 0 21.4-5.9 25.1-8.9l-1.5 19.2c-3.5 2.5-14.2 7.8-28.2 7.8-19.4 0-31.6-9.6-31.6-29.7 0-34.1 19.5-48.6 41.7-48.6 18.8 0 28.2 9.3 28.2 22.9 0 19.4-27.3 25.7-47.1 25.7zm17.6-33.2c-7.7 0-14.9 6.6-16.4 18.2 13.9 0 24.4-4 24.4-10.8 0-4.7-2.7-7.4-8-7.4z"/></g><g class="st1"><path d="M7-35.3v23.6h31.7V7.5H7v36.3h-24v-98.5h58.2v19.2L7-35.3zM97.8 43.8l-1.2-8.4C92.9 41 86.7 46 75.8 46 55.6 46 48 30.8 48 6.9c0-22.9 8.3-39.1 28.8-39.1 11.4 0 17 5 19.6 10.5h.1l1-8.3h21.1v73.8H97.8zM95.4 1.7c0-9.3-5-15.4-11.5-15.4-8.6 0-12 6.8-12 15.9v9.3c0 10.5 4.3 15.8 11.4 15.8 7.8 0 12.1-6.6 12.1-15.2V1.7zM155.9 46c-9.2 0-17.4-1.6-25.5-5.2l1.2-17.7c6.5 3.5 14.3 6.1 21.6 6.1 8.7 0 10.3-3.1 10.3-6.2 0-3.4-2.2-5-8.6-7.2l-5-1.6c-10.3-3.5-19.3-9.4-19.3-23.8 0-15.7 12.8-22.6 30.6-22.6 8.1 0 16.8 2.2 22 4.6l-1 17.7c-6.5-3.4-14.6-5.6-19.3-5.6-6.2 0-8.4 2.1-8.4 5 0 3.1 2.5 5 9.2 7.2l5 1.6c9.9 3.4 18.6 9 18.6 23.3-.2 15.6-11.2 24.4-31.4 24.4zM227.1 46.2c-14.9 0-21.7-7.7-21.7-22.3l.1-35.3h-14.9V-30h14.9l.1-18.2 23.3-2.5-.1 20.7h17.3v18.6h-17.3l-.1 30.4c0 6.6 2.4 8.6 7.7 8.6 3.2 0 7.2-1 8.7-1.5l1 16.7c-2.6 1-10.3 3.4-19 3.4zM257.8 43.8v-98.5h23.9v79.6l35.3.1v18.8h-59.2zM372.6 43.8l-1.2-8.4C367.7 41 361.5 46 350.6 46c-20.2 0-27.8-15.2-27.8-39.1 0-22.9 8.3-39.1 28.8-39.1 11.4 0 17 5 19.6 10.5h.1l1-8.3h21.1v73.8h-20.8zm-2.4-42.1c0-9.3-5-15.4-11.5-15.4-8.6 0-12 6.8-12 15.9v9.3c0 10.5 4.3 15.8 11.4 15.8 7.8 0 12.1-6.6 12.1-15.2V1.7zM455.8 43.8v-44c0-6.3-2.1-11.7-10.6-11.7-6.9 0-12.7 5.3-12.7 11.2v44.4H409v-73.8h22.3v8.3h.3c2.7-3.4 10.9-10.5 23.5-10.5 13.3 0 24.2 6.5 24.2 24.8v51.2l-23.5.1zM557.4 13.1h-44v.9c0 6.8 3.8 13.9 16.2 13.9 8.4 0 16.4-2.2 23-5.2l1 17.7c-5.6 3.1-14.9 5.6-26.9 5.6-28.9 0-36.3-14.5-36.3-38.8 0-23.6 9.3-39.4 36-39.4 23.8 0 31.2 14 31.2 36.6.1 1.6 0 6.5-.2 8.7zM525.5-17C516.6-17 513-9.2 513-1.6h23.2c-.1-6.9-1.4-15.4-10.7-15.4z"/></g></g><g id="Layer_6"><path d="M75.6 116.6H-2.6l11.2-12.4h70.7z"/><path d="M75.9 117H-3.4l12-13.1h71.3l-4 13.1zm-77.6-.8h77l3.4-11.6H8.8l-10.5 11.6zM70.8 133h-88.2l9.7-10.8H74z"/><path d="M71.1 133.3h-89.4l10.4-11.5h82.4l-3.4 11.5zm-87.7-.8h87.1l2.9-10h-81l-9 10zM65.9 149.1h-98.1l8.1-9h92.7z"/><path d="M66.3 149.5h-99.4l8.9-9.7h93.4l-2.9 9.7zm-97.7-.7h96.9l2.5-8.2h-91.9l-7.5 8.2z"/><g><path d="M61.3 165H-46.6l6.1-6.8H63.3z"/><path d="M61.6 165.3H-47.6l6.8-7.5H63.7l-2.1 7.5zm-107.3-.8H61l1.8-6h-103l-5.5 6z"/></g><g><path d="M56.6 180.7H-60.9l4.1-4.4H57.9z"/><path d="M-61.9 181.1l4.8-5.3H58.4l-1.5 5.3H-61.9zm5.3-4.5l-3.4 3.8H56.4l1.1-3.6-114.1-.2z"/></g></g></svg>