<svg xmlns="http://www.w3.org/2000/svg" viewBox="0 0 283.1 96"><style type="text/css">  
	.st0{fill:#FFFFFF;}
	.st1{fill:#1F429B;}
	.st2{fill:#DF1E37;}
	.st3{fill:#F7AD58;}
	.st4{fill:#6E6F72;}
</style><path class="st0" d="M36.8 96l-12.6-6.9c0 0-9.3-5.9-11.2-7.8C11.2 79.5 0 69.1 0 56V0h36.8 36.8v56c0 13.1-11.2 23.5-13 25.3 -1.9 1.8-11.2 7.8-11.2 7.8L36.8 96z"/><rect x="2.2" y="2.5" class="st1" width="69.1" height="22.8"/><polygon class="st0" points="71.4 25.4 2.2 25.4 2.2 55.8 2.2 58.5 2.8 60.7 3.7 64 5.1 67.1 6.7 70 8.7 73 10.5 75.3 12.6 77.6 14.5 79.5 17.6 81.9 20.5 83.9 24.3 86.5 36.8 93.3 49.5 86.3 51.8 84.8 53.9 83.4 56.1 81.9 57.4 81 59.1 79.5 60.6 77.9 61.9 76.5 63.2 74.9 64.6 73.1 65.9 71.4 67.4 69 68.1 67.6 69 65.8 69.7 64 70.7 60.7 71.2 56.6 "/><polygon class="st2" points="25.8 25.4 47.8 25.4 47.8 43.4 71.2 43.4 71.2 57.9 70.7 61.1 70.2 62.8 69.4 64.4 47.8 64.4 47.8 87.2 36.5 93.3 25.8 87.5 25.8 64.4 4 64.4 2.9 61.3 2.2 59.1 2.2 55.5 2.2 43.4 25.8 43.4 "/><rect x="2.2" y="24.9" width="69" height="1"/><path d="M36.8 94.1l-12.2-6.7c-0.4-0.3-8.8-5.7-10.6-7.5l-0.3-0.3C3.7 69.8 1.6 61.1 1.6 55.5V1.9H72v53.7c0 5.5-2.1 14.2-12.2 24.2L59.6 80c-1.8 1.8-10.2 7.2-10.6 7.4L36.8 94.1zM2.9 3.2v52.4c0 5.3 2 13.6 11.8 23.2l0.3 0.3c1.7 1.7 10.3 7.2 10.4 7.3l11.5 6.3 11.5-6.3c0 0 8.6-5.6 10.3-7.2l0.2-0.2c9.8-9.6 11.8-18 11.8-23.3V3.2H2.9z"/><path d="M30.4 62.5l1.3-0.6c0 0 0.3-0.1 0.3 0.1 0 0.1 0.2 0.5 0.2 0.9 0 0.4 0.3 1 0.8 1.3 1.2 0.7 3.2 0.5 3.5 0.4 0.3 0.1 2.3 0.3 3.6-0.3 0.5-0.2 0.8-0.8 0.8-1.2 0-0.4 0.2-0.8 0.2-0.9 0.1-0.2 0.3-0.1 0.3-0.1l1.3 0.7 -0.1-1.3c0 0 0-0.3 0.2-0.3 0.2 0 0.5 0 1 0.1 0.4 0.1 1 0 1.4-0.4 1-1 1.4-2.9 1.4-3.2 0.2-0.2 1-2.1 0.8-3.5 -0.1-0.5-0.5-1-0.9-1.2 -0.4-0.2-0.7-0.4-0.8-0.5 -0.1-0.1 0-0.3 0-0.3l1-1 -1.4-0.3c0 0-0.3-0.1-0.2-0.3 0.1-0.1 0.2-0.5 0.4-0.9 0.2-0.4 0.3-1 0.1-1.5C45.1 47 43.3 46 43 45.9c-0.2-0.3-1.8-1.6-3.1-1.8 -0.5-0.1-1.1 0.2-1.4 0.5 -0.3 0.3-0.6 0.5-0.8 0.6 -0.1 0.1-0.3-0.1-0.3-0.1l-0.6-1.3 -0.7 1.2c0 0-0.2 0.2-0.3 0.1 -0.1-0.1-0.4-0.3-0.7-0.7 -0.3-0.3-0.8-0.6-1.4-0.6 -1.4 0.2-2.9 1.5-3.1 1.8 -0.3 0.1-2 1.1-2.7 2.4 -0.3 0.5-0.2 1.1 0 1.5 0.2 0.4 0.3 0.8 0.4 0.9 0 0.1-0.2 0.2-0.2 0.2l-1.4 0.2 1 1c0 0 0.1 0.2 0 0.3 -0.1 0.1-0.4 0.3-0.8 0.5 -0.4 0.2-0.9 0.6-1 1.1 -0.2 1.4 0.5 3.2 0.7 3.5 0 0.3 0.5 2.3 1.4 3.3 0.4 0.4 1 0.5 1.4 0.4 0.4-0.1 0.8-0.1 1-0.1 0.2 0 0.2 0.3 0.2 0.3L30.4 62.5z"/><path class="st0" d="M36.8 57.9c0 0-0.5 0-0.6 0.4 -0.1 0.4 0.2 0.8-0.1 1.1 -0.3 0.2-0.2 0.4-0.6 0.3 -0.4-0.1-0.6-0.3-0.7-0.7 -0.2-0.3-0.4-0.6-0.8-0.8 -0.4-0.3-0.7-0.5-1-0.5 -0.4 0-0.6-0.1-0.9-0.5 -0.3-0.4-0.2-0.1 0-0.6 0.2-0.5 0.7-0.2 1.1-0.5 0.4-0.3 0.3-0.8 0.3-0.8s-0.3-0.6-0.8-0.5c-0.5 0-0.7 0.4-1.1 0.2 -0.3-0.2-0.5-0.1-0.5-0.5 0-0.5 0.2-0.7 0.4-0.9 0.3-0.2 0.4-0.6 0.5-1 0.2-0.4 0.3-0.8 0.2-1.2 -0.1-0.4-0.1-0.6 0.2-1 0.3-0.4 0-0.2 0.6-0.2 0.5 0 0.4 0.6 0.8 0.9 0.4 0.3 0.8 0 0.8 0s0.5-0.4 0.3-0.8c-0.1-0.4-0.7-0.6-0.5-0.9 0.1-0.4-0.1-0.5 0.3-0.6 0.4-0.2 0.7-0.1 1 0.1 0.3 0.2 0.7 0.2 1.2 0.2 0.5 0 0.8 0 1.2-0.2 0.3-0.2 0.6-0.2 1-0.1 0.4 0.2 0.2 0 0.4 0.5 0.2 0.5-0.4 0.6-0.6 1 -0.2 0.4 0.3 0.8 0.3 0.8s0.5 0.4 0.9 0.1c0.4-0.3 0.3-0.8 0.7-0.8 0.4 0 0.4-0.2 0.7 0.1 0.3 0.4 0.3 0.6 0.2 1 -0.1 0.3 0 0.7 0.2 1.2 0.1 0.5 0.3 0.8 0.5 1 0.3 0.2 0.4 0.5 0.4 0.9 0 0.5 0.1 0.2-0.4 0.5 -0.4 0.3-0.7-0.2-1.1-0.2 -0.5 0-0.7 0.5-0.7 0.5s-0.1 0.6 0.3 0.8c0.4 0.3 0.9 0.1 1 0.4 0.1 0.4 0.3 0.3 0.1 0.7 -0.3 0.4-0.5 0.5-0.9 0.5 -0.4 0-0.7 0.2-1 0.5 -0.4 0.2-0.7 0.5-0.8 0.8 -0.1 0.3-0.3 0.5-0.8 0.7 -0.4 0.1-0.2 0.2-0.6-0.2 -0.4-0.3 0-0.7-0.1-1.2C37.3 57.9 36.8 57.9 36.8 57.9"/><path class="st3" d="M36.9 29.4L36 29.2l0.2 0.9L35.2 30v1.3l0.9-0.3 0.3 0.4 0.2 0.2v0.4c0 0-0.4 0-0.5 0.2 -0.1 0.2 0 0 0 0s-4.2-0.4-7.6 2.1l-0.2 0.7c0 0 2.2-1.6 7.4-1.8l0 0.4c0 0-4.8 0.1-7.7 2L28 36.5c0 0 2.7-1.7 7.7-1.7l0.2 0 0.3 0.2 0.1 0.2 -0.4 0.2 -0.6 0.1 -0.4-0.1 0 0.9 0.2 0.9 0.1 0.5v0.5l0.4-0.4 0.5-0.1 0.2 0.1c0 0 0 0.2 0 0.5 0 0.3-0.1 0.8-0.1 0.8l-0.5 0.4c0 0-0.8 0.2-1.1 0.1 -0.3-0.2-0.8-0.6-0.8-1.3 0-0.7 0.2-0.3 0.2-0.3l0.3 0.1h0.2l0-0.4 -0.2-0.7 -0.4-0.3 -0.3 0.3c0 0-0.2-1.5-1.4-1.4 0 0-0.4 1.3 0.2 2.3l-0.6 0 -0.2 0.5 0.4 0.8 0.3 0.2 0.2-0.5 0-0.3c0 0 0.1-0.1 0.2 0.1 0.1 0.2 0.5 1.4 0 1.7 -0.4 0.3-0.7 0.4-1.1 0.2 -0.4-0.2-2-0.6-1.7-1.7l0.1-0.3 0.4 0.1 0.3 0.1 0-0.3c0 0-0.4-1.7-1.4-1.1l-0.1-0.8 -0.2-0.4 -0.8 0.4 -0.3 0.3 3.3 6.6c0 0 2-1.2 5.4-1.2 3.4 0 5.4 1.2 5.4 1.2l3.2-6.6 -0.2-0.3 -0.8-0.4 -0.2 0.4 -0.1 0.8c-1-0.6-1.4 1.1-1.4 1.1l0 0.3 0.2-0.1 0.4-0.1 0.1 0.3c0.2 1-1.3 1.5-1.7 1.7 -0.4 0.2-0.7 0.1-1.1-0.2 -0.4-0.3-0.1-1.6 0-1.7 0.1-0.2 0.3-0.1 0.3-0.1l0 0.3 0.2 0.5 0.3-0.2 0.4-0.8 -0.2-0.5 -0.6 0c0.6-1 0.2-2.3 0.2-2.3 -1.2-0.1-1.4 1.4-1.4 1.4l-0.3-0.3 -0.4 0.3 -0.2 0.7 0 0.4h0.2l0.3-0.1c0 0 0.2-0.4 0.2 0.3 0 0.7-0.5 1.2-0.8 1.3 -0.3 0.2-1.1-0.1-1.1-0.1l-0.5-0.4c0 0-0.2-0.5-0.1-0.8 0-0.3 0-0.5 0-0.5l0.2-0.1 0.5 0.1 0.4 0.4v-0.5l0.1-0.5 0.2-0.9 0-0.9 -0.4 0.1 -0.6-0.1 -0.4-0.2 0.1-0.2 0.3-0.2 0.2 0c5 0.1 7.7 1.7 7.7 1.7l-0.1-0.7c-2.9-2-7.7-2-7.7-2l0-0.4c5.2 0.2 7.4 1.8 7.4 1.8l-0.2-0.7c-3.4-2.5-7.6-2.1-7.6-2.1s0.1 0.2 0 0c-0.1-0.2-0.5-0.2-0.5-0.2v-0.4l0.2-0.2 0.3-0.4 0.9 0.3V30l-0.9 0.1 0.2-0.9L36.9 29.4z"/><polygon class="st3" points="46.9 60 49.6 63.2 46 61.4 "/><polygon class="st3" points="47.1 48.7 56.2 45.8 47.8 50.5 "/><polygon class="st3" points="48.4 53.2 57.9 54.1 48.4 55.1 "/><polygon class="st3" points="48 57.6 56.2 62.3 47.3 59.4 "/><polygon class="st3" points="48.1 51.2 51.2 51 48.3 52.5 "/><polygon class="st3" points="48.3 55.8 51.3 57.2 48.1 57 "/><polygon class="st3" points="26.2 59.6 17.2 62.5 25.5 57.9 "/><polygon class="st3" points="25 55.1 15.5 54.3 25 53.2 "/><polygon class="st3" points="25.4 50.8 17.2 46 26.1 49 "/><polygon class="st3" points="25.3 57.1 22.2 57.4 25 55.9 "/><polygon class="st3" points="25 52.6 22.1 51.2 25.3 51.3 "/><polygon class="st3" points="41.8 64.6 44.7 73.7 40.1 65.4 "/><polygon class="st3" points="37.3 65.9 36.4 75.4 35.4 65.9 "/><polygon class="st3" points="33 65.5 28.2 73.7 31.1 64.8 "/><polygon class="st3" points="39.3 65.6 39.5 68.7 38.1 65.9 "/><polygon class="st3" points="34.7 65.9 33.3 68.8 33.5 65.6 "/><polygon class="st3" points="28.8 63 25.6 64.8 27.8 61.9 "/><polygon class="st3" points="27.2 61.3 23.5 62.7 26.6 60.2 "/><polygon class="st3" points="30.5 64.4 27.6 67 29.3 63.4 "/><polygon class="st3" points="45.5 61.9 47.4 65.1 44.5 63 "/><polygon class="st3" points="43.9 63.5 45.3 67.2 42.8 64.2 "/><polygon class="st3" points="44.5 45.2 47.7 43.4 45.5 46.3 "/><polygon class="st3" points="46.1 46.9 49.8 45.5 46.8 48 "/><polygon class="st3" points="42.8 43.8 45.8 41.2 44 44.8 "/><polygon class="st3" points="27.7 46.4 25.8 43.2 28.8 45.3 "/><polygon class="st3" points="29.3 44.8 28 41.1 30.4 44.1 "/><polygon class="st3" points="26.4 48.3 23.6 45.1 27.3 46.9 "/><polygon class="st3" points="36.8 51.1 35.9 52.9 34.2 53.1 35.4 54.4 35 56.4 36.8 55.2 38.5 56.4 38.1 54.4 39.4 53.1 37.7 52.9 "/><path d="M26.3 87.5h-1V64.9H4.2v-1h22.1V87.5zM48.3 87.2h-1V63.9h22.1v1H48.3V87.2zM71.2 43.9H47.3V25.4h1v17.6h23V43.9zM26.3 43.9H2.2v-1h23.1V25.4h1V43.9z"/><path class="st3" d="M18.9 4.4l-1.3 1.3 -0.1 12.2c0 0 1 1.2 4.5 1.5 3.5 0.3 9.7-0.8 9.7-0.8l3.1 0.3 0.9 0.4L35.6 20l0.1 1 0.6 0.7 1.6 0 0.5-0.7 0-1.1 0-0.5 1.3-0.5 1-0.1 3.2 0 3.1 0.6 3.9 0.2c0 0 2.4-0.1 3.5-0.4 1-0.3 1.8-0.7 1.8-0.7l0.4-0.5 0-11.8 -1.4-1.6L55 7.2l0.2 8.7 0 1.1 -1.5 0.6 -6.3 0 -4.7-0.3 -2.5 0.3 -1.8 0.7 -1.4 1 -2.4-1.7 -3.6-0.4 -7.3 0.6 -3-0.1 -1.9-0.8L18.9 4.4z"/><path d="M36.9 19.7c-0.1 0-0.2 0-0.2-0.1 -0.7-0.5-0.3-0.8-1.8-1.5 -1-0.5-2.5-0.6-3.7-0.6 -1 0-2.1 0.1-3.4 0.2 -1.6 0.2-3.1 0.3-4.4 0.3 -3.3 0-4.2-0.6-4.3-0.7l-0.3-0.1c-0.1-0.1-0.2-0.2-0.2-0.3l0.1-12.4c0-0.2 0.1-0.3 0.2-0.4 0.1-0.1 0.3 0 0.4 0.1 0.5 0.4 0.7 0.6 0.8 0.7 0.2 0.1 1.6 0.9 4 0.9 1.1 0 2.3-0.2 3.5-0.5 0.9-0.2 1.8-0.4 2.8-0.4 3.9 0 6.8 2 6.9 2.1 0.1 0.1 0.2 0.2 0.2 0.3v12c0 0.1-0.1 0.3-0.2 0.3C37 19.7 37 19.7 36.9 19.7"/><path d="M37.1 19.7c-0.1 0-0.1 0-0.2 0 -0.1-0.1-0.2-0.2-0.2-0.3v-12c0-0.1 0.1-0.2 0.2-0.3 0.1-0.1 3-2.1 6.9-2.1 0.9 0 1.9 0.1 2.8 0.4 1.2 0.3 2.4 0.5 3.5 0.5 2.4 0 3.8-0.8 4-1 0 0 0.3-0.3 0.7-0.7C55 4 55.1 4 55.3 4c0.1 0.1 0.2 0.2 0.2 0.4l0.1 12.4c0 0.1-0.1 0.3-0.2 0.3L55 17.3c0 0-1 0.7-4.3 0.7 -1.3 0-2.8-0.1-4.4-0.3 -1.2-0.2-2.4-0.2-3.4-0.2 -1.2 0-3.2 0.3-3.9 0.7 -1.3 0.8-1 0.9-1.7 1.5C37.3 19.7 37.2 19.7 37.1 19.7"/><path d="M10.2 19L10.2 19c-0.3 0-0.6-0.3-0.6-0.5 -0.1-0.2-0.3-0.8-0.6-1 -0.5-0.3-0.6-0.8-0.6-1.1 0-0.1 0-0.1 0-0.1 0-0.2 0.2-0.5 0.6-0.7 0.3-0.2 0.6-0.9 0.7-1.1 0.1-0.4 0.7-0.7 1.2-0.3 0.1 0.1 0.2 0.2 0.3 0.3 0.2 0.2 0.3 0.3 0.5 0.3l1.3 0 2.6 0h0c0.1 0 0.2 0 0.3 0.1 0.1 0.1 0.1 0.2 0.1 0.3l0 2.8c0 0.2-0.1 0.4-0.4 0.4 0 0-3.4 0-3.9 0 -0.2 0-0.4 0.1-0.7 0.4l-0.1 0.1C10.6 18.9 10.4 19 10.2 19"/><path d="M10.2 12.9L10.2 12.9c-0.3 0-0.6-0.3-0.6-0.5 -0.1-0.2-0.3-0.8-0.6-1 -0.5-0.3-0.6-0.8-0.6-1.1 0-0.1 0-0.1 0-0.1 0-0.2 0.2-0.5 0.6-0.7 0.3-0.2 0.6-0.9 0.7-1.1 0.1-0.4 0.7-0.7 1.2-0.3 0.1 0.1 0.2 0.2 0.3 0.3 0.2 0.2 0.3 0.3 0.5 0.3l1.3 0 2.6 0h0c0.1 0 0.2 0 0.3 0.1 0.1 0.1 0.1 0.2 0.1 0.3l0 2.7c0 0.2-0.2 0.4-0.4 0.4h0c0 0-3.5 0-3.9 0 -0.2 0-0.4 0.1-0.7 0.5l-0.1 0.1C10.6 12.8 10.4 12.9 10.2 12.9"/><path d="M63.8 19c-0.2 0-0.4-0.1-0.6-0.3l-0.1-0.1c-0.4-0.3-0.5-0.4-0.7-0.4 -0.4 0-3.9 0-3.9 0h0c-0.2 0-0.4-0.2-0.4-0.4l0-2.8c0-0.1 0-0.2 0.1-0.3 0.1-0.1 0.2-0.1 0.3-0.1h0l2.6 0 1.3 0c0.3 0 0.3-0.1 0.5-0.3 0.1-0.1 0.2-0.2 0.3-0.3 0.5-0.4 1-0.1 1.2 0.3 0.1 0.2 0.3 0.8 0.7 1.1 0.3 0.2 0.5 0.5 0.6 0.7 0 0 0 0.1 0 0.1 0 0.3 0 0.8-0.6 1.1 -0.4 0.2-0.6 0.8-0.6 1C64.4 18.7 64.2 19 63.8 19"/><path d="M63.8 12.9c-0.2 0-0.4-0.1-0.6-0.3l-0.1-0.1c-0.4-0.3-0.5-0.5-0.7-0.5 -0.4 0-3.9 0-3.9 0h0c-0.2 0-0.4-0.2-0.4-0.4l0-2.7c0-0.1 0-0.2 0.1-0.3 0.1-0.1 0.2-0.1 0.3-0.1l2.6 0 1.3 0c0.3 0 0.3-0.1 0.5-0.3 0.1-0.1 0.2-0.2 0.3-0.3 0.5-0.4 1-0.1 1.2 0.2 0.1 0.2 0.3 0.8 0.7 1.1 0.3 0.2 0.5 0.5 0.6 0.7 0 0 0 0.1 0 0.1 0 0.3 0 0.8-0.6 1.1 -0.4 0.2-0.6 0.8-0.6 1C64.4 12.7 64.2 12.9 63.8 12.9"/><path d="M38 23.7c-0.4 0-0.8 0-0.8 0l-0.4 0c0 0-0.3 0-0.7 0 -2.1 0-2.5-1-2.5-1.5 0-0.2 0-0.5 0.1-0.6l-18.1 0.3c-0.1 0-0.2 0-0.3-0.1 -0.1-0.1-0.1-0.2-0.1-0.3l0.1-14.1c0-0.2 0.1-0.3 0.3-0.3 0 0 0.2-0.1 0.6-0.5 0.6-0.6 1-0.9 1-0.9 0.1 0 0.3 0 0.4 0.1 0.1 0.1 0.2 0.2 0.2 0.3l0 0.3 0 11.5c0.3 0.3 1.4 1.5 5.3 1.5 1.4 0 3.5-0.1 5.4-0.4 1.6-0.3 3-0.4 4.2-0.4 3 0 3.5 0.5 3.6 0.7 0.1 0.1 0.1 0.3 0 0.4l-0.1 0.3c-0.1 0.1-0.3 0.5 0 1.1 0.2 0.4 0.6 0.5 0.9 0.5 0 0 0 0 0.1 0h0.3 0c0.3 0 0.7-0.1 0.9-0.5 0.3-0.7 0.1-1 0.1-1L38 19.6c-0.1-0.1 0-0.3 0-0.4 0.1-0.2 0.6-0.7 3.6-0.7 1.2 0 2.6 0.1 4.2 0.4 1.8 0.3 3.5 0.4 5 0.4 3.8 0 5.3-1.2 5.6-1.5L56.4 5.9c0-0.1 0.1-0.2 0.2-0.3 0.1-0.1 0.2-0.1 0.4-0.1 0 0 0.6 0.3 1.1 0.9C58.4 6.9 58.6 7 58.6 7c0.1 0.1 0.2 0.2 0.3 0.3l0 0.3 0.1 13.7c0 0.1 0 0.2-0.1 0.3 -0.1 0.1-0.2 0.1-0.3 0.1l-18.1-0.3c0.1 0.2 0.1 0.4 0.1 0.6C40.5 22.7 40.1 23.7 38 23.7"/><path class="st0" d="M35.2 17.7c0.1 0 0.4 0.2 1.6 0.9v-11c-1-0.4-3.5-1.8-6.6-1.8 -0.9 0-1.7 0.1-2.6 0.3 -1.3 0.3-2.5 0.5-3.7 0.5 -2.8 0-4.7-1-4.9-1.2 0 0 0 0 0 0l-0.1 11.6 0.1 0.1c0.1 0 1.2 0.6 4.2 0.6 1.3 0 2.7-0.1 4.3-0.3C31.2 16.7 33.9 16.9 35.2 17.7"/><path class="st3" d="M8.9 16.3c0 0 0 0.1 0 0.1 0 0 0 0.3 0.2 0.4 0.6 0.4 0.9 1.1 1.1 1.5l0 0c0.4-0.4 0.7-0.7 1.3-0.7 0.4 0 2.6 0 3.6 0l0-1 0-1.2 -2.2 0 -1.4 0c-0.7 0-0.9-0.3-1.2-0.6 -0.1-0.1-0.1-0.1-0.2-0.2 -0.1 0.3-0.5 1-1 1.4C9 16.2 9 16.2 8.9 16.3"/><path class="st3" d="M8.9 10.2c0 0 0 0.1 0 0.1 0 0 0 0.3 0.2 0.4 0.6 0.4 0.9 1.1 1.1 1.5l0 0c0.4-0.4 0.8-0.7 1.3-0.7 0.4 0 2.7 0 3.7 0l0-1V9.3l-2.3 0 -1.4 0c-0.7 0-0.9-0.3-1.2-0.6 -0.1-0.1-0.1-0.1-0.2-0.2 -0.1 0.3-0.5 1.1-1 1.4C9 10.1 9 10.2 8.9 10.2"/><path class="st4" d="M34.2 10.1c-1.6-0.7-3.7-1.7-6.8-0.9 -1.9 0.5-4.5 0.8-5.9 0.2l0.3-0.7c1 0.4 3.1 0.3 5.4-0.3 3.4-0.9 5.6 0.1 7.3 0.9L34.2 10.1z"/><path class="st4" d="M34.2 13.4c-1.6-0.7-3.7-1.7-6.8-0.9 -1.9 0.5-4.5 0.8-5.9 0.2l0.3-0.7c1 0.4 3.1 0.3 5.4-0.3 3.4-0.9 5.6 0.1 7.3 0.9L34.2 13.4z"/><path class="st4" d="M34.2 16.1c-1.6-0.7-3.7-1.7-6.8-0.9 -1.9 0.5-4.5 0.8-5.9 0.2l0.3-0.7c1 0.4 3.1 0.3 5.4-0.3 3.4-0.9 5.6 0.1 7.3 0.9L34.2 16.1z"/><path class="st0" d="M37.3 7.5v11c1.2-0.7 1.4-0.8 1.6-0.9 1.4-0.8 4-0.9 7.6-0.5 1.6 0.2 3.1 0.3 4.3 0.3 3 0 4.1-0.7 4.1-0.8l0.2-0.1L54.9 5.1c0 0 0 0 0 0 -0.2 0.2-2 1.4-4.8 1.4 -1.2 0-2.4-0.2-3.7-0.5 -0.8-0.2-1.7-0.3-2.6-0.3C40.3 5.7 37.3 7.5 37.3 7.5"/><path class="st3" d="M61.2 17.5c0.6 0 1.2 0 1.3 0 0.6 0 0.9 0.3 1.3 0.7l0 0c0.1-0.4 0.4-1.1 1.1-1.5 0.2-0.1 0.2-0.4 0.2-0.4 0 0 0-0.1 0-0.1 0 0-0.1-0.1-0.2-0.2 -0.6-0.4-0.9-1.1-1-1.5 -0.1 0.1-0.1 0.1-0.2 0.2 -0.3 0.3-0.5 0.6-1.2 0.6l-1.4 0 -2.2 0 0 2.2C59.5 17.5 60.3 17.5 61.2 17.5"/><path class="st3" d="M61.2 11.5c0.6 0 1.2 0 1.3 0 0.6 0 0.9 0.3 1.4 0.7l0 0c0.1-0.4 0.4-1.1 1.1-1.5 0.2-0.1 0.2-0.4 0.2-0.4 0 0 0-0.1 0-0.1 0 0-0.1-0.1-0.2-0.2 -0.5-0.4-0.9-1.1-1-1.5 -0.1 0.1-0.1 0.1-0.2 0.2 -0.3 0.3-0.5 0.6-1.2 0.6l-1.4 0 -2.3 0 0 2.2C59.4 11.5 60.3 11.5 61.2 11.5"/><path class="st0" d="M37.3 22.8c0.1 0 0.3 0 0.7 0 0.6 0 1.7-0.1 1.8-0.8 0-0.4-0.3-0.7-0.3-0.7 -0.1-0.1-0.2-0.3-0.1-0.4 0.1-0.2 0.2-0.3 0.4-0.3 0 0 0 0 0 0L58.3 21 58.3 7.6c-0.2-0.1-0.6-0.3-0.9-0.6 -0.2-0.2-0.4-0.3-0.6-0.4l0 11.4c0 0.1 0 0.1-0.1 0.2 -0.1 0.2-1.1 1.7-6 1.7 -1.5 0-3.2-0.1-5.1-0.4 -1.6-0.2-3-0.4-4.1-0.4 -1.9 0-2.7 0.3-3 0.5l0 0c0.1 0.2 0.3 0.8 0 1.6 -0.3 0.6-0.8 0.9-1.6 0.9 -0.8 0-1.4-0.3-1.7-0.9 -0.3-0.7-0.2-1.3 0-1.6 -0.3-0.2-1.1-0.5-3-0.5 -1.2 0-2.5 0.1-4.1 0.4 -1.9 0.3-3.6 0.4-5.1 0.4 -4.9 0-6-1.5-6.1-1.7 0-0.1-0.1-0.1-0.1-0.2l0-11.4c-0.2 0.1-0.3 0.3-0.4 0.4 -0.3 0.3-0.7 0.5-0.9 0.6l0 0.1L15.7 21l18.7-0.3c0 0 0 0 0 0 0.2 0 0.3 0.1 0.4 0.3 0.1 0.2 0 0.3-0.1 0.4 0 0-0.4 0.3-0.3 0.7 0.1 0.7 1.1 0.8 1.8 0.8 0.4 0 0.7 0 0.7 0L37.3 22.8z"/><path class="st4" d="M39.9 10.1l-0.3-0.7c1.7-0.8 3.9-1.8 7.3-0.9 2.3 0.6 4.4 0.7 5.4 0.3l0.3 0.7c-1.4 0.6-4 0.3-5.9-0.2C43.5 8.5 41.5 9.4 39.9 10.1"/><path class="st4" d="M39.9 13.4l-0.3-0.7c1.7-0.8 3.9-1.8 7.3-0.9 2.3 0.6 4.4 0.7 5.4 0.3l0.3 0.7c-1.4 0.6-4 0.3-5.9-0.2C43.5 11.7 41.5 12.6 39.9 13.4"/><path class="st4" d="M39.9 16.1l-0.3-0.7c1.7-0.8 3.9-1.8 7.3-0.9 2.3 0.6 4.4 0.7 5.4 0.3l0.3 0.7c-1.4 0.6-4 0.3-5.9-0.2C43.5 14.4 41.5 15.4 39.9 16.1"/><rect x="17" y="5" transform="matrix(0.6705 -0.7419 0.7419 0.6705 2.0983 15.1728)" width="2.2" height="0.5"/><rect x="55.6" y="4.1" transform="matrix(0.742 -0.6704 0.6704 0.742 10.9108 38.8014)" width="0.5" height="2.2"/><path class="st2" d="M32.3 48.2c0 0 0.8 0.3 1 0.2 0.2-0.1 0.3-0.4 0.3-0.4l0-0.4c0 0 0.2-0.2 0.3-0.3 0.2-0.1 0.4-0.2 0.6-0.2 0.2 0 0.3 0 0.4-0.1 0.2-0.1 0.5-1.1-0.2-1.6 -0.7-0.5-1.2-0.8-1.7-0.5 -0.5 0.3-1 1-1.2 1.1 -0.1 0.1-0.4 0.9-0.6 0.9 0 0.2-1 0.3-1.2 0.4 -0.1 0.1-0.9 0.5-1.3 0.9 -0.4 0.4-0.2 1 0.1 1.8 0.3 0.8 1.4 0.7 1.5 0.5 0.2-0.1 0.1-0.2 0.2-0.4 0.1-0.2 0.2-0.4 0.3-0.6 0.1-0.1 0.4-0.2 0.4-0.2l0.4 0c0 0 0.3 0 0.5-0.2C32.4 48.9 32.3 48.2 32.3 48.2"/><path class="st2" d="M41.1 48.3c0 0-0.1 0.8 0.1 1 0.1 0.2 0.5 0.2 0.5 0.2l0.4-0.1c0 0 0.3 0.1 0.4 0.2 0.1 0.1 0.3 0.3 0.4 0.5 0.1 0.2 0.1 0.2 0.3 0.4 0.2 0.1 1.2 0.1 1.5-0.7 0.3-0.8 0.4-1.4-0.1-1.8 -0.5-0.4-1.3-0.7-1.4-0.8 -0.2-0.1-1-0.1-1.1-0.3 -0.2 0-0.6-0.9-0.8-1 -0.1-0.1-0.7-0.7-1.3-1 -0.5-0.3-1 0.1-1.7 0.6 -0.7 0.6-0.2 1.5-0.1 1.6 0.2 0.1 0.2 0.1 0.4 0.1 0.2 0 0.5 0.1 0.6 0.2 0.2 0.1 0.3 0.3 0.3 0.3l0.1 0.4c0 0 0.1 0.3 0.3 0.4C40.4 48.6 41.1 48.3 41.1 48.3"/><path class="st2" d="M29.5 56.4c0 0 0.5-0.7 0.6-0.9 0-0.2-0.3-0.4-0.3-0.4L29.4 55c0 0-0.2-0.2-0.2-0.4 0-0.2 0-0.5 0-0.7 0-0.2 0.1-0.2 0-0.4 -0.1-0.2-0.9-0.8-1.6-0.3 -0.7 0.5-1.1 0.9-1 1.5 0.1 0.6 0.6 1.3 0.7 1.4 0.1 0.2 0.7 0.7 0.7 0.8 0.1 0.1 0 1.1 0 1.3 0 0.2 0.2 1 0.4 1.5 0.3 0.5 0.9 0.5 1.7 0.5 0.8-0.1 1.1-1.1 1-1.3 -0.1-0.2-0.1-0.2-0.3-0.3 -0.1-0.1-0.3-0.4-0.4-0.5 -0.1-0.2-0.1-0.5-0.1-0.5l0.2-0.3c0 0 0.1-0.3-0.1-0.5C30.3 56.5 29.5 56.4 29.5 56.4"/><path class="st2" d="M36.6 61.5c0 0-0.5-0.7-0.7-0.8 -0.2-0.1-0.5 0.1-0.5 0.1l-0.3 0.3c0 0-0.3 0.1-0.5 0.1 -0.2 0-0.5-0.1-0.6-0.2 -0.2-0.1-0.2-0.1-0.4-0.1 -0.2 0-1.1 0.6-0.8 1.4 0.2 0.8 0.5 1.4 1.1 1.4 0.6 0 1.4-0.2 1.6-0.2 0.2 0 0.9-0.5 1-0.4 0.1-0.1 1.1 0.3 1.2 0.3 0.2 0 1 0.2 1.6 0.1 0.6-0.1 0.8-0.7 1-1.5 0.2-0.8-0.7-1.4-0.9-1.3 -0.2 0-0.2 0.1-0.4 0.2 -0.2 0.1-0.4 0.2-0.6 0.2 -0.2 0-0.5 0-0.5 0l-0.3-0.3c0 0-0.3-0.2-0.5-0.1C37 60.8 36.6 61.5 36.6 61.5"/><path class="st2" d="M43.8 56.6c0 0-0.8 0.2-1 0.4 -0.1 0.2 0 0.5 0 0.5l0.2 0.3c0 0 0 0.3 0 0.5 -0.1 0.2-0.2 0.4-0.4 0.5 -0.1 0.1-0.2 0.1-0.3 0.3 -0.1 0.2 0.3 1.2 1.1 1.2 0.8 0 1.5-0.1 1.7-0.6 0.2-0.5 0.3-1.4 0.3-1.6 0-0.2-0.2-1-0.1-1.1 -0.1-0.1 0.6-0.9 0.7-1 0.1-0.2 0.5-0.9 0.6-1.5 0.1-0.6-0.4-1-1.1-1.4 -0.7-0.4-1.5 0.3-1.6 0.5 -0.1 0.2 0 0.2 0 0.4 0 0.2 0.1 0.5 0 0.7 0 0.2-0.2 0.4-0.2 0.4l-0.3 0.2c0 0-0.3 0.2-0.2 0.5C43.2 56 43.8 56.6 43.8 56.6"/><path class="st2" d="M32 42.5c-0.1-0.3 0.2-0.7 0.6-0.9 0.5-0.2 0.9-0.1 1.1 0.2 0.1 0.3-0.2 0.7-0.6 0.9C32.6 42.8 32.1 42.8 32 42.5"/><path class="st2" d="M36 40.7c0-0.3 0.4-0.5 0.9-0.5 0.5 0 0.9 0.2 0.9 0.5 0 0.3-0.4 0.5-0.9 0.5C36.4 41.2 36 41 36 40.7"/><path class="st2" d="M39.3 41.6c0.1-0.3 0.6-0.3 1.1-0.1 0.5 0.2 0.7 0.6 0.6 0.9 -0.1 0.3-0.6 0.3-1.1 0.1C39.4 42.2 39.1 41.9 39.3 41.6"/><path class="st0" d="M132.4 3.2v15.7L120.7 3.2h-5.1v24.2h5V11.2l12 16.2h4.7V3.2H132.4z"/><path class="st0" d="M200.4 40v15.7L188.7 40h-5.1v24.2h5V48l12 16.2h4.7V40H200.4z"/><rect x="141.6" y="3.2" class="st0" width="5" height="24.2"/><path class="st0" d="M167.6 3.2l-6.8 17.4 -6.6-17.4h-5.5l9.9 24.4h3.8l10.4-24.4H167.6z"/><rect x="231.2" y="3.2" class="st0" width="5" height="24.2"/><path class="st0" d="M217.8 9.2c0-1.4 1.4-2.2 3.2-2.2 2 0 3.7 0.7 5.8 1.8V4.4c-1.4-0.8-3.5-1.5-6.1-1.5 -5.3 0-8.2 3.2-8.2 6.9 0 1.9 0.6 3.2 1.5 4.3 2.9 3.3 8.8 3.9 8.8 7.1 0 1.8-1.7 2.4-3.5 2.4 -2.1 0-5.1-1.1-6.8-2.2v4.7c1.7 1 4.1 1.6 7.1 1.6 5 0 8.6-2.8 8.6-7.2C228.2 13 217.8 13.4 217.8 9.2z"/><polygon class="st0" points="256.4 7.3 250.4 7.3 250.4 27.4 245.3 27.4 245.3 7.3 238.7 7.3 238.7 3.2 257.6 3.2 "/><path class="st0" d="M102.1 43.8c-4.2 0-7.2 3-7.2 8.3 0 5.3 3.1 8.3 7.2 8.3 4.1 0 7.2-3 7.2-8.3C109.2 46.9 106.3 43.8 102.1 43.8M102.1 64.5c-7.8 0-12.5-5.1-12.5-12.2 0-7.3 5.2-12.6 12.5-12.6 7.9 0 12.5 5.3 12.5 12.3C114.6 59.1 109.5 64.5 102.1 64.5z"/><path class="st0" d="M245.8 43.8c-4.2 0-7.2 3-7.2 8.3 0 5.3 3.1 8.3 7.2 8.3 4.1 0 7.2-3 7.2-8.3C252.9 46.9 250 43.8 245.8 43.8M245.8 64.5c-7.8 0-12.5-5.1-12.5-12.2 0-7.3 5.2-12.6 12.5-12.6 7.9 0 12.5 5.3 12.5 12.3C258.3 59.1 253.2 64.5 245.8 64.5z"/><path class="st0" d="M168 43.8c-4.2 0-7.2 3-7.2 8.3 0 5.3 3.1 8.3 7.2 8.3 4.1 0 7.2-3 7.2-8.3C175.2 46.9 172.2 43.8 168 43.8M168 64.5c-7.8 0-12.5-5.1-12.5-12.2 0-7.3 5.2-12.6 12.5-12.6 7.9 0 12.5 5.3 12.5 12.3C180.5 59.1 175.5 64.5 168 64.5z"/><polygon class="st0" points="141.6 64.2 141.6 40 146.6 40 146.6 60 155.1 60 155.1 64.2 "/><path class="st0" d="M278.1 40v15.7L266.5 40h-5.1v24.2h5V48l12 16.2h4.7V40H278.1z"/><path class="st0" d="M217.3 44.1h-2.7V60h2.8c6 0 8.3-3.8 8.3-8C225.7 47.2 222.9 44.1 217.3 44.1M217.2 64.2h-7.6V40h8c8.6 0 13.5 4.7 13.5 11.9C231.1 59.3 225.6 64.2 217.2 64.2"/><path class="st0" d="M205.4 27.4h5.6l-6.2-10.5c2.6-1.3 4-3.7 4-6.4 0-4.5-2.4-7.3-8.8-7.3h-7.5v24.2h5v-9.3h2.5L205.4 27.4zM200 7.4c2.3 0 3.7 1.4 3.7 3.3 0 2-1.4 3.5-3.7 3.5h-2.6V7.4H200z"/><path class="st0" d="M274.6 3.2l-5 10.3 -5.1-10.3h-5.6l7.9 14.6v9.6h5v-9.5l8-14.7H274.6z"/><path class="st0" d="M106.5 3.2v14.7c0 4.1-2.2 5.7-5.4 5.7 -3.2 0-5.4-1.6-5.4-5.7V3.2h-5v15c0 7.1 4.4 9.6 10.4 9.6 6 0 10.4-2.5 10.4-9.6v-15H106.5z"/><polygon class="st0" points="174.8 27.4 174.8 3.2 188.8 3.2 187.5 7.3 179.8 7.3 179.8 12.9 187.5 12.9 187.5 17.1 179.8 17.1 179.8 23.3 188.8 23.3 188.8 27.4 "/><polygon class="st0" points="130.2 49.8 122.5 49.8 122.5 44.1 130.3 44.1 131.6 40 117.5 40 117.5 64.2 122.5 64.2 122.5 54 130.2 54 "/></svg>