<svg width="42" height="42" viewBox="0 0 42 42" fill="none" xmlns="http://www.w3.org/2000/svg">
<path fill-rule="evenodd" clip-rule="evenodd" d="M42 20.2588C42 31.4475 32.598 40.5177 21 40.5177C9.40202 40.5177 0 31.4475 0 20.2588C0 9.07019 9.40202 0 21 0C32.598 0 42 9.07019 42 20.2588ZM33.1154 12.9238L21 23.0532L8.88461 12.9238H33.1154ZM21 24.5231L17.7276 21.9319L8.88461 29.2867H33.1154L24.2211 21.9319L21 24.5231ZM16.9615 21.1052L8.07692 13.703V28.5075L16.9615 21.1052ZM25.0385 21.1052L33.9231 13.703V28.5075L25.0385 21.1052Z" fill="white"/>
</svg>
