<?xml version="1.0" encoding="utf-8"?>
<!-- Generator: Adobe Illustrator 17.0.0, SVG Export Plug-In . SVG Version: 6.00 Build 0)  -->
<!DOCTYPE svg PUBLIC "-//W3C//DTD SVG 1.1//EN" "http://www.w3.org/Graphics/SVG/1.1/DTD/svg11.dtd">
<svg version="1.1" id="Слой_1" xmlns="http://www.w3.org/2000/svg" xmlns:xlink="http://www.w3.org/1999/xlink" x="0px" y="0px"
	 width="485.751px" height="53.753px" viewBox="4.164 1.364 485.751 53.753" enable-background="new 4.164 1.364 485.751 53.753"
	 xml:space="preserve">
<g>
	<g>
		<path id="path2998" fill="#4885ED" d="M44.468,20.348H25.339v5.676h13.567c-0.67,7.96-7.293,11.354-13.544,11.354
			c-7.998,0-14.976-6.293-14.976-15.112c0-8.592,6.653-15.209,14.994-15.209c6.436,0,10.228,4.102,10.228,4.102l3.974-4.116
			c0,0-5.101-5.679-14.405-5.679c-11.848,0-21.013,9.999-21.013,20.8c0,10.583,8.622,20.903,21.315,20.903
			c11.164,0,19.336-7.648,19.336-18.957c0-2.386-0.346-3.765-0.346-3.765L44.468,20.348z"/>
		<path id="path3000" fill="#DB3236" d="M60.138,16.237c-7.849,0-13.474,6.137-13.474,13.293c0,7.263,5.456,13.513,13.567,13.513
			c7.342,0,13.357-5.612,13.357-13.357C73.588,20.809,66.591,16.237,60.138,16.237L60.138,16.237z M60.216,21.502
			c3.86,0,7.518,3.121,7.518,8.149c0,4.922-3.642,8.131-7.535,8.131c-4.278,0-7.652-3.426-7.652-8.171
			C52.546,24.969,55.879,21.502,60.216,21.502L60.216,21.502z"/>
		<path id="path3005" fill="#F4C20D" d="M89.443,16.237c-7.849,0-13.474,6.137-13.474,13.293c0,7.263,5.456,13.513,13.567,13.513
			c7.342,0,13.357-5.612,13.357-13.357C102.893,20.809,95.896,16.237,89.443,16.237L89.443,16.237z M89.521,21.502
			c3.86,0,7.518,3.121,7.518,8.149c0,4.922-3.642,8.131-7.535,8.131c-4.278,0-7.652-3.426-7.652-8.171
			C81.851,24.969,85.184,21.502,89.521,21.502L89.521,21.502z"/>
		<path id="path3007" fill="#4885ED" d="M118.187,16.251c-7.205,0-12.868,6.31-12.868,13.393c0,8.068,6.565,13.418,12.743,13.418
			c3.82,0,5.851-1.516,7.351-3.257v2.643c0,4.624-2.808,7.394-7.046,7.394c-4.094,0-6.148-3.044-6.861-4.772l-5.151,2.153
			c1.827,3.864,5.506,7.894,12.055,7.894c7.163,0,12.623-4.512,12.623-13.975V17.057h-5.62v2.27
			C123.686,17.465,121.323,16.251,118.187,16.251L118.187,16.251z M118.708,21.505c3.532,0,7.159,3.016,7.159,8.167
			c0,5.235-3.619,8.121-7.237,8.121c-3.841,0-7.415-3.119-7.415-8.071C111.215,24.576,114.927,21.505,118.708,21.505L118.708,21.505
			z"/>
		<path id="path3011" fill="#DB3236" d="M156.02,16.219c-6.796,0-12.502,5.407-12.502,13.386c0,8.442,6.36,13.449,13.155,13.449
			c5.671,0,9.152-3.102,11.229-5.882l-4.633-3.083c-1.202,1.866-3.212,3.69-6.567,3.69c-3.768,0-5.501-2.063-6.574-4.062
			L168.1,26.26l-0.933-2.185C165.43,19.794,161.38,16.22,156.02,16.219L156.02,16.219z M156.254,21.374
			c2.449,0,4.211,1.302,4.96,2.863l-12.002,5.017C148.694,25.37,152.374,21.374,156.254,21.374L156.254,21.374z"/>
		<path id="path3015" fill="#3CBA54" d="M134.95,42.258h5.903V2.751h-5.903V42.258z"/>
	</g>
	<line fill="none" stroke="#646464" stroke-miterlimit="10" x1="188.775" y1="2.751" x2="188.775" y2="42.258"/>
	<path fill="#646464" d="M218.837,29.066h-7.548v6.172h8.768v1.878h-11.064V19.7h10.944v1.891h-8.648v5.598h7.548V29.066z"/>
	<path fill="#646464" d="M227.174,30.621h-5.837v-1.806h5.837V30.621z"/>
	<path fill="#646464" d="M242.485,31.589c-0.096,0.821-0.297,1.585-0.604,2.291c-0.307,0.705-0.732,1.315-1.274,1.83
		c-0.542,0.515-1.204,0.917-1.986,1.208c-0.781,0.291-1.694,0.437-2.739,0.437c-1.029,0-1.962-0.191-2.799-0.574
		c-0.837-0.383-1.553-0.927-2.147-1.633c-0.594-0.705-1.052-1.553-1.375-2.542c-0.323-0.988-0.484-2.093-0.484-3.313v-1.747
		c0-1.22,0.164-2.326,0.49-3.319c0.327-0.992,0.793-1.842,1.4-2.547c0.605-0.706,1.341-1.252,2.207-1.639s1.836-0.581,2.913-0.581
		c0.981,0,1.85,0.144,2.607,0.431c0.758,0.287,1.401,0.688,1.932,1.202c0.53,0.515,0.951,1.129,1.262,1.843
		c0.311,0.713,0.51,1.501,0.598,2.362h-2.309c-0.088-0.606-0.223-1.152-0.407-1.639s-0.437-0.901-0.759-1.244
		c-0.323-0.343-0.724-0.606-1.202-0.79c-0.479-0.183-1.053-0.274-1.723-0.274c-0.773,0-1.453,0.149-2.04,0.448
		c-0.586,0.299-1.076,0.718-1.471,1.256c-0.395,0.538-0.692,1.188-0.891,1.95c-0.199,0.761-0.299,1.601-0.299,2.518v1.771
		c0,0.853,0.09,1.654,0.269,2.404c0.18,0.749,0.453,1.405,0.819,1.967c0.367,0.563,0.833,1.005,1.399,1.328s1.236,0.484,2.01,0.484
		c0.733,0,1.352-0.088,1.854-0.263c0.502-0.176,0.919-0.429,1.25-0.76c0.331-0.331,0.588-0.737,0.771-1.221
		c0.183-0.482,0.323-1.03,0.418-1.645H242.485z"/>
	<path fill="#646464" d="M259.014,28.97c0,1.308-0.165,2.478-0.496,3.511c-0.331,1.032-0.8,1.912-1.405,2.638
		c-0.606,0.726-1.34,1.279-2.201,1.662s-1.822,0.574-2.883,0.574c-1.028,0-1.974-0.191-2.835-0.574s-1.603-0.937-2.225-1.662
		s-1.104-1.605-1.447-2.638c-0.343-1.033-0.515-2.203-0.515-3.511V27.87c0-1.3,0.172-2.47,0.515-3.511
		c0.343-1.04,0.821-1.924,1.436-2.649c0.613-0.726,1.352-1.281,2.213-1.668s1.806-0.581,2.835-0.581c1.06,0,2.022,0.194,2.889,0.581
		c0.864,0.387,1.603,0.942,2.212,1.668c0.61,0.726,1.081,1.609,1.412,2.649c0.331,1.041,0.496,2.211,0.496,3.511V28.97z
		 M256.73,27.846c0-1.037-0.106-1.954-0.317-2.752c-0.211-0.797-0.521-1.467-0.927-2.009c-0.407-0.542-0.903-0.953-1.489-1.232
		s-1.25-0.419-1.991-0.419c-0.71,0-1.356,0.14-1.938,0.419s-1.078,0.69-1.489,1.232c-0.41,0.542-0.728,1.212-0.95,2.009
		c-0.224,0.798-0.335,1.715-0.335,2.752v1.124c0,1.045,0.113,1.966,0.341,2.763c0.228,0.798,0.548,1.47,0.963,2.016
		c0.414,0.547,0.913,0.959,1.495,1.238s1.228,0.418,1.938,0.418c0.749,0,1.415-0.139,1.998-0.418
		c0.581-0.279,1.074-0.691,1.477-1.238c0.402-0.546,0.708-1.218,0.915-2.016c0.207-0.797,0.312-1.718,0.312-2.763V27.846z"/>
	<path fill="#646464" d="M265.427,19.7l5.693,14.21l5.693-14.21h2.979v17.416h-2.297v-6.782l0.216-7.32l-5.718,14.103h-1.759
		l-5.705-14.066l0.228,7.284v6.782h-2.297V19.7H265.427z"/>
	<path fill="#646464" d="M286.813,19.7l5.693,14.21L298.2,19.7h2.979v17.416h-2.297v-6.782l0.216-7.32l-5.718,14.103h-1.759
		l-5.705-14.066l0.228,7.284v6.782h-2.297V19.7H286.813z"/>
	<path fill="#646464" d="M315.077,29.066h-7.547v6.172h8.768v1.878h-11.064V19.7h10.944v1.891h-8.647v5.598h7.547V29.066z"/>
	<path fill="#646464" d="M325.544,30.071h-4.091v7.045h-2.309V19.7h5.765c1.962,0,3.471,0.447,4.527,1.34
		c1.057,0.894,1.585,2.193,1.585,3.899c0,1.085-0.293,2.029-0.879,2.835s-1.401,1.407-2.446,1.807l4.091,7.392v0.144h-2.464
		L325.544,30.071z M321.453,28.193h3.528c0.622,0,1.166-0.086,1.633-0.258c0.466-0.171,0.855-0.402,1.166-0.693
		s0.544-0.634,0.7-1.028c0.155-0.396,0.232-0.819,0.232-1.274c0-0.502-0.073-0.959-0.221-1.369
		c-0.147-0.411-0.377-0.764-0.688-1.059c-0.312-0.295-0.706-0.522-1.185-0.682c-0.479-0.16-1.049-0.239-1.711-0.239h-3.456V28.193z"
		/>
	<path fill="#646464" d="M347.05,31.589c-0.096,0.821-0.297,1.585-0.604,2.291c-0.307,0.705-0.731,1.315-1.273,1.83
		s-1.204,0.917-1.985,1.208c-0.782,0.291-1.695,0.437-2.739,0.437c-1.029,0-1.962-0.191-2.799-0.574
		c-0.838-0.383-1.554-0.927-2.147-1.633c-0.594-0.705-1.053-1.553-1.375-2.542c-0.323-0.988-0.484-2.093-0.484-3.313v-1.747
		c0-1.22,0.163-2.326,0.49-3.319c0.326-0.992,0.793-1.842,1.399-2.547c0.605-0.706,1.342-1.252,2.207-1.639
		c0.864-0.387,1.836-0.581,2.912-0.581c0.98,0,1.85,0.144,2.607,0.431s1.401,0.688,1.932,1.202c0.53,0.515,0.951,1.129,1.263,1.843
		c0.311,0.713,0.51,1.501,0.598,2.362h-2.309c-0.088-0.606-0.224-1.152-0.406-1.639c-0.184-0.486-0.438-0.901-0.76-1.244
		c-0.323-0.343-0.724-0.606-1.202-0.79c-0.479-0.183-1.053-0.274-1.723-0.274c-0.773,0-1.453,0.149-2.039,0.448
		s-1.077,0.718-1.472,1.256s-0.691,1.188-0.891,1.95c-0.2,0.761-0.3,1.601-0.3,2.518v1.771c0,0.853,0.09,1.654,0.27,2.404
		c0.18,0.749,0.452,1.405,0.819,1.967c0.367,0.563,0.833,1.005,1.399,1.328s1.236,0.484,2.01,0.484c0.733,0,1.352-0.088,1.854-0.263
		c0.503-0.176,0.919-0.429,1.25-0.76s0.588-0.737,0.771-1.221c0.184-0.482,0.323-1.03,0.419-1.645H347.05z"/>
	<path fill="#646464" d="M360.027,29.066h-7.547v6.172h8.768v1.878h-11.064V19.7h10.944v1.891h-8.647v5.598h7.547V29.066z"/>
	<path fill="#646464" d="M379.788,32.571h-7.297l-1.639,4.545h-2.368l6.65-17.416h2.01l6.662,17.416h-2.356L379.788,32.571z
		 M373.185,30.68h5.92l-2.966-8.146L373.185,30.68z"/>
	<path fill="#646464" d="M390.673,29.293h-2.117v7.822h-2.297V19.7h2.297v7.68h1.794l6.089-7.68h2.858l-6.65,8.445l7.141,8.971
		h-2.811L390.673,29.293z"/>
	<path fill="#646464" d="M411.51,32.571h-7.297l-1.639,4.545h-2.368l6.65-17.416h2.01l6.662,17.416h-2.356L411.51,32.571z
		 M404.907,30.68h5.92l-2.966-8.146L404.907,30.68z"/>
	<path fill="#646464" d="M433.768,41.386h-2.284v-4.271h-12.5v4.282h-2.296l-0.013-6.16h1.424c0.199-0.223,0.442-0.544,0.729-0.963
		s0.564-0.967,0.831-1.645c0.268-0.678,0.501-1.501,0.7-2.47c0.199-0.97,0.318-2.119,0.358-3.451l0.383-7.01h10.419v15.538h2.272
		L433.768,41.386z M423.04,26.71c-0.08,1.993-0.334,3.7-0.76,5.119c-0.427,1.42-0.943,2.556-1.549,3.409h8.48V21.59h-5.909
		L423.04,26.71z"/>
	<path fill="#646464" d="M446.363,29.066h-7.547v6.172h8.768v1.878h-11.064V19.7h10.944v1.891h-8.647v5.598h7.547V29.066z"/>
	<path fill="#646464" d="M453.409,19.7l5.693,14.21l5.693-14.21h2.979v17.416h-2.297v-6.782l0.216-7.32l-5.718,14.103h-1.759
		l-5.705-14.066l0.228,7.284v6.782h-2.297V19.7H453.409z"/>
	<path fill="#646464" d="M474.293,37.116h-2.297V19.7h2.297V37.116z"/>
	<path fill="#646464" d="M487.606,37.116v-6.782h-4.019l-3.601,6.782h-2.452l4.043-7.416c-1.093-0.431-1.928-1.041-2.506-1.83
		s-0.867-1.762-0.867-2.919c0-0.845,0.142-1.592,0.425-2.242s0.691-1.198,1.226-1.645s1.179-0.785,1.932-1.017
		c0.754-0.231,1.605-0.348,2.554-0.348h5.574v17.416H487.606z M480.502,24.951c0,0.503,0.079,0.968,0.239,1.394
		c0.159,0.427,0.396,0.798,0.711,1.112c0.315,0.315,0.708,0.561,1.179,0.736c0.471,0.175,1.017,0.263,1.639,0.263h3.337V21.59
		h-3.266c-0.638,0-1.198,0.077-1.68,0.233c-0.483,0.155-0.884,0.381-1.202,0.676c-0.319,0.295-0.559,0.649-0.718,1.064
		C480.581,23.978,480.502,24.441,480.502,24.951z"/>
</g>
</svg>
