<?xml version="1.0" encoding="utf-8"?>
<!-- Generator: Adobe Illustrator 16.0.0, SVG Export Plug-In . SVG Version: 6.00 Build 0)  -->
<!DOCTYPE svg PUBLIC "-//W3C//DTD SVG 1.1//EN" "http://www.w3.org/Graphics/SVG/1.1/DTD/svg11.dtd">
<svg version="1.1" id="Layer_1" xmlns="http://www.w3.org/2000/svg" xmlns:xlink="http://www.w3.org/1999/xlink" x="0px" y="0px"
	 width="60px" height="60px" viewBox="0 0 60 60" enable-background="new 0 0 60 60" xml:space="preserve">
<g>
	<path fill="#0072C6" d="M14.926,1.079v7.464H2.051v39.928h11.381v10.451l13.994-10.451h19.963v-7.465h10.561V1.079H14.926z
		 M45.337,46.604H26.68l-11.381,8.586v-8.586H3.917V10.408h41.42V46.604z M55.972,39.141h-8.769V8.542H16.792V2.944h39.18V39.141z"
		/>
	<path fill="#0072C6" d="M23.59,36.439c-1.073,0-2.149,1.076-2.149,2.15s1.076,2.148,2.149,2.148c1.075,0,2.147-1.074,2.147-2.148
		S24.933,36.439,23.59,36.439z"/>
	<path fill="#0072C6" d="M23.59,20.33c3.491,0,5.64,1.346,5.64,3.762s-1.882,4.026-5.64,4.026h-1.073v5.103h2.148v-2.687
		c4.564-0.536,7.249-2.952,7.249-6.713c0-4.028-3.222-6.444-8.324-6.444c-0.807,0-1.88,0.267-2.686,0.267l0.269,2.685
		C21.979,20.33,22.784,20.33,23.59,20.33z"/>
</g>
</svg>
