<svg xmlns="http://www.w3.org/2000/svg" width="60" height="60" fill="#C21A35"><path d="M14.926 1.08v7.464H2.05V48.47h11.38v10.45l13.994-10.45H47.4v-7.465h10.56V1.08H14.926zm30.4 45.525H26.68L15.3 55.2v-8.586H3.917V10.408h41.42v36.196zm10.635-7.463H47.2v-30.6h-30.4V2.944h39.18V39.14zM23.6 36.44c-1.073 0-2.15 1.076-2.15 2.15s1.076 2.148 2.15 2.148 2.147-1.074 2.147-2.148-.804-2.15-2.147-2.15zm0-16.1c3.5 0 5.64 1.346 5.64 3.762s-1.882 4.026-5.64 4.026h-1.073v5.103h2.148v-2.687c4.564-.536 7.25-2.952 7.25-6.713 0-4.028-3.222-6.444-8.324-6.444-.807 0-1.88.267-2.686.267l.27 2.685H23.6z"/></svg>
