<?xml version="1.0" encoding="UTF-8"?>
<svg width="16px" height="16px" viewBox="0 0 16 16" version="1.1" xmlns="http://www.w3.org/2000/svg" xmlns:xlink="http://www.w3.org/1999/xlink">
    <!-- Generator: Sketch 47 (45396) - http://www.bohemiancoding.com/sketch -->
    <title>Иконка региона@svg</title>
    <desc>Created with Sketch.</desc>
    <defs></defs>
    <g id="Дизайн-макет" stroke="none" stroke-width="1" fill="none" fill-rule="evenodd">
        <g id="Desktop-Информация-об-аккаунте-1440" transform="translate(-553.000000, -407.000000)" fill="#B3B3B3">
            <g id="Основная-информация" transform="translate(120.000000, 230.000000)">
                <path d="M448.555556,177 L448.413333,177.026667 L443.666667,178.866667 L438.333333,177 L433.32,178.688889 C433.133333,178.751111 433,178.911111 433,179.115556 L433,192.555556 C433,192.804444 433.195556,193 433.444444,193 L433.586667,192.973333 L438.333333,191.133333 L443.666667,193 L448.68,191.311111 C448.866667,191.248889 449,191.088889 449,190.884444 L449,177.444444 C449,177.195556 448.804444,177 448.555556,177 L448.555556,177 Z M443.666667,191.222222 L438.333333,189.346667 L438.333333,178.777778 L443.666667,180.653333 L443.666667,191.222222 L443.666667,191.222222 Z" id="Иконка-региона"></path>
            </g>
        </g>
    </g>
</svg>