<?xml version="1.0" encoding="utf-8"?>
<!-- Generator: Adobe Illustrator 17.0.0, SVG Export Plug-In . SVG Version: 6.00 Build 0)  -->
<!DOCTYPE svg PUBLIC "-//W3C//DTD SVG 1.1//EN" "http://www.w3.org/Graphics/SVG/1.1/DTD/svg11.dtd">
<svg version="1.1" id="Capa_1" xmlns="http://www.w3.org/2000/svg" xmlns:xlink="http://www.w3.org/1999/xlink" x="0px" y="0px"
	 width="35px" height="35px" viewBox="0 0 35 35" enable-background="new 0 0 35 35" xml:space="preserve">
<g>
	<g>
		<path fill="#FFFFFF" d="M17.516,14.504c1.671-0.006,3.002-1.348,2.996-3.023s-1.34-3.008-3.012-3.01
			c-1.686-0.002-3.032,1.356-3.019,3.046C14.494,13.186,15.84,14.51,17.516,14.504z"/>
		<path fill="#FFFFFF" d="M17.5,0C7.835,0,0,7.835,0,17.5S7.835,35,17.5,35S35,27.165,35,17.5S27.165,0,17.5,0z M17.525,5.322
			c3.409,0.009,6.145,2.797,6.127,6.244c-0.017,3.367-2.798,6.096-6.201,6.084c-3.368-0.011-6.131-2.804-6.111-6.178
			C11.36,8.062,14.124,5.312,17.525,5.322z M24.429,20.072c-0.754,0.774-1.661,1.334-2.669,1.724
			c-0.952,0.369-1.996,0.555-3.03,0.679c0.156,0.17,0.23,0.253,0.327,0.351c1.402,1.41,2.811,2.812,4.209,4.226
			c0.476,0.482,0.575,1.079,0.313,1.639c-0.286,0.612-0.928,1.015-1.558,0.971c-0.399-0.028-0.71-0.226-0.986-0.504
			c-1.058-1.065-2.137-2.111-3.173-3.196c-0.303-0.316-0.447-0.256-0.714,0.019c-1.065,1.096-2.147,2.175-3.235,3.248
			c-0.489,0.482-1.07,0.569-1.637,0.294c-0.603-0.291-0.986-0.907-0.956-1.526c0.021-0.417,0.226-0.738,0.513-1.023
			c1.388-1.385,2.772-2.775,4.156-4.163c0.092-0.092,0.177-0.19,0.311-0.333c-1.888-0.197-3.591-0.662-5.048-1.802
			c-0.181-0.142-0.368-0.279-0.532-0.438c-0.638-0.613-0.703-1.315-0.198-2.037c0.432-0.619,1.157-0.784,1.911-0.429
			c0.146,0.068,0.285,0.155,0.418,0.247c2.716,1.867,6.448,1.918,9.175,0.083c0.27-0.206,0.559-0.376,0.894-0.462
			c0.65-0.168,1.257,0.072,1.606,0.641C24.925,18.932,24.921,19.566,24.429,20.072z"/>
	</g>
</g>
</svg>
