<svg id="Capa_1" data-name="Capa 1" xmlns="http://www.w3.org/2000/svg" viewBox="0 0 35 35"><defs><style>.cls-1{fill:#fff;}</style></defs><title>ico-vimeo</title><path class="cls-1" d="M17.5,0A17.5,17.5,0,1,0,35,17.5,17.5,17.5,0,0,0,17.5,0ZM29.87,11.74q-.17,3.62-5.05,9.91-5,6.57-8.55,6.57-2.16,0-3.66-4l-2-7.33q-1.11-4-2.39-4A7.7,7.7,0,0,0,6.28,14l-1.16-1.5q1.83-1.61,3.61-3.23Q11.18,7.21,12.4,7.1q2.89-.28,3.56,4,.72,4.57,1,5.68.83,3.79,1.83,3.79.78,0,2.34-2.46a9.68,9.68,0,0,0,1.67-3.74Q23,12.2,21.13,12.2a4.61,4.61,0,0,0-1.83.41q1.83-6,7-5.82Q30.09,6.9,29.87,11.74Z"/></svg>