<?xml version="1.0" encoding="utf-8"?>
<!-- Generator: Adobe Illustrator 17.0.0, SVG Export Plug-In . SVG Version: 6.00 Build 0)  -->
<!DOCTYPE svg PUBLIC "-//W3C//DTD SVG 1.1//EN" "http://www.w3.org/Graphics/SVG/1.1/DTD/svg11.dtd">
<svg version="1.1" id="Capa_1" xmlns="http://www.w3.org/2000/svg" xmlns:xlink="http://www.w3.org/1999/xlink" x="0px" y="0px"
	 width="35px" height="35px" viewBox="0 0 35 35" enable-background="new 0 0 35 35" xml:space="preserve">
<g>
	<path fill="#FFFFFF" d="M17.5,0C7.835,0,0,7.835,0,17.5S7.835,35,17.5,35S35,27.165,35,17.5S27.165,0,17.5,0z M26.377,19.393
		c0.816,0.797,1.679,1.546,2.411,2.425c0.324,0.389,0.63,0.791,0.863,1.243c0.332,0.645,0.032,1.352-0.545,1.39l-3.585-0.001
		c-0.926,0.077-1.663-0.297-2.284-0.93c-0.496-0.505-0.956-1.043-1.434-1.565c-0.195-0.214-0.401-0.416-0.646-0.574
		c-0.489-0.318-0.913-0.221-1.193,0.29c-0.285,0.52-0.351,1.095-0.378,1.674c-0.039,0.845-0.294,1.066-1.142,1.106
		c-1.812,0.085-3.532-0.19-5.131-1.104c-1.41-0.806-2.501-1.944-3.452-3.231c-1.852-2.511-3.27-5.266-4.544-8.101
		c-0.287-0.638-0.077-0.98,0.627-0.993c1.17-0.023,2.34-0.02,3.51-0.001c0.476,0.008,0.791,0.28,0.974,0.729
		c0.632,1.556,1.408,3.036,2.379,4.409c0.259,0.366,0.523,0.73,0.899,0.988c0.415,0.285,0.732,0.191,0.928-0.273
		c0.125-0.295,0.179-0.61,0.207-0.926c0.093-1.082,0.104-2.163-0.057-3.24c-0.1-0.674-0.479-1.11-1.152-1.237
		c-0.342-0.065-0.292-0.192-0.126-0.387c0.289-0.338,0.56-0.547,1.101-0.547l4.051-0.001c0.638,0.125,0.782,0.412,0.868,1.055
		l0.004,4.501c-0.008,0.249,0.125,0.986,0.572,1.149c0.358,0.118,0.594-0.169,0.808-0.396c0.971-1.031,1.664-2.248,2.283-3.507
		c0.274-0.555,0.51-1.13,0.739-1.706c0.17-0.426,0.435-0.635,0.916-0.628l3.901,0.005c0.115,0,0.232,0.001,0.346,0.021
		c0.657,0.112,0.837,0.395,0.634,1.037c-0.32,1.008-0.942,1.847-1.55,2.688c-0.652,0.901-1.347,1.77-1.992,2.675
		C25.594,18.258,25.641,18.674,26.377,19.393z"/>
</g>
</svg>
