<?xml version="1.0" encoding="UTF-8"?>
<svg width="14px" height="16px" viewBox="0 0 14 16" version="1.1" xmlns="http://www.w3.org/2000/svg" xmlns:xlink="http://www.w3.org/1999/xlink">
    <!-- Generator: Sketch 47 (45396) - http://www.bohemiancoding.com/sketch -->
    <title>Иконка пола@svg</title>
    <desc>Created with Sketch.</desc>
    <defs></defs>
    <g id="Дизайн-макет" stroke="none" stroke-width="1" fill="none" fill-rule="evenodd">
        <g id="Desktop-Информация-об-аккаунте-1440" transform="translate(-970.000000, -354.000000)" fill="#B3B3B3">
            <g id="Дополнительно" transform="translate(954.000000, 230.000000)">
                <path d="M23,124 C23.8555556,124 24.5555556,124.72 24.5555556,125.6 C24.5555556,126.48 23.8555556,127.2 23,127.2 C22.1444444,127.2 21.4444444,126.48 21.4444444,125.6 C21.4444444,124.72 22.1444444,124 23,124 L23,124 Z M30,129.6 L25.3333333,129.6 L25.3333333,140 L23.7777778,140 L23.7777778,135.2 L22.2222222,135.2 L22.2222222,140 L20.6666667,140 L20.6666667,129.6 L16,129.6 L16,128 L30,128 L30,129.6 L30,129.6 Z" id="Иконка-пола"></path>
            </g>
        </g>
    </g>
</svg>