<?xml version="1.0" encoding="UTF-8"?>
<svg width="18px" height="12px" viewBox="0 0 18 12" version="1.1" xmlns="http://www.w3.org/2000/svg" xmlns:xlink="http://www.w3.org/1999/xlink">
    <!-- Generator: Sketch 47 (45396) - http://www.bohemiancoding.com/sketch -->
    <title>Иконка видимости профиля@svg</title>
    <desc>Created with Sketch.</desc>
    <defs></defs>
    <g id="Дизайн-макет" stroke="none" stroke-width="1" fill="none" fill-rule="evenodd">
        <g id="Desktop-Информация-об-аккаунте-1440" transform="translate(-970.000000, -524.000000)" fill="#B3B3B3">
            <g id="Дополнительно" transform="translate(954.000000, 230.000000)">
                <path d="M25,294 C20.9090909,294 17.4154545,296.488 16,300 C17.4154545,303.512 20.9090909,306 25,306 C29.0909091,306 32.5845455,303.512 34,300 C32.5845455,296.488 29.0909091,294 25,294 L25,294 Z M25,304 C22.7418182,304 20.9090909,302.208 20.9090909,300 C20.9090909,297.792 22.7418182,296 25,296 C27.2581818,296 29.0909091,297.792 29.0909091,300 C29.0909091,302.208 27.2581818,304 25,304 L25,304 Z M25,297.6 C23.6418182,297.6 22.5454545,298.672 22.5454545,300 C22.5454545,301.328 23.6418182,302.4 25,302.4 C26.3581818,302.4 27.4545455,301.328 27.4545455,300 C27.4545455,298.672 26.3581818,297.6 25,297.6 L25,297.6 Z" id="Иконка-видимости-профиля"></path>
            </g>
        </g>
    </g>
</svg>