<?xml version="1.0" encoding="UTF-8"?>
<svg width="14px" height="16px" viewBox="0 0 14 16" version="1.1" xmlns="http://www.w3.org/2000/svg" xmlns:xlink="http://www.w3.org/1999/xlink">
    <!-- Generator: Sketch 47 (45396) - http://www.bohemiancoding.com/sketch -->
    <title>Иконка образования@svg</title>
    <desc>Created with Sketch.</desc>
    <defs></defs>
    <g id="Дизайн-макет" stroke="none" stroke-width="1" fill="none" fill-rule="evenodd">
        <g id="Desktop-Информация-об-аккаунте-1440" transform="translate(-970.000000, -298.000000)" fill="#B3B3B3">
            <g id="Дополнительно" transform="translate(954.000000, 230.000000)">
                <path d="M17.4736842,74.8571429 L17.4736842,80.1904762 L19.6842105,80.1904762 L19.6842105,74.8571429 L17.4736842,74.8571429 L17.4736842,74.8571429 Z M21.8947368,74.8571429 L21.8947368,80.1904762 L24.1052632,80.1904762 L24.1052632,74.8571429 L21.8947368,74.8571429 L21.8947368,74.8571429 Z M16,84 L30,84 L30,81.7142857 L16,81.7142857 L16,84 L16,84 Z M26.3157895,74.8571429 L26.3157895,80.1904762 L28.5263158,80.1904762 L28.5263158,74.8571429 L26.3157895,74.8571429 L26.3157895,74.8571429 Z M23,68 L16,71.8095238 L16,73.3333333 L30,73.3333333 L30,71.8095238 L23,68 L23,68 Z" id="Иконка-образования"></path>
            </g>
        </g>
    </g>
</svg>