<?xml version="1.0" encoding="utf-8"?>
<!-- Generator: Adobe Illustrator 17.0.0, SVG Export Plug-In . SVG Version: 6.00 Build 0)  -->
<!DOCTYPE svg PUBLIC "-//W3C//DTD SVG 1.1//EN" "http://www.w3.org/Graphics/SVG/1.1/DTD/svg11.dtd">
<svg version="1.1" id="Capa_1" xmlns="http://www.w3.org/2000/svg" xmlns:xlink="http://www.w3.org/1999/xlink" x="0px" y="0px"
	 width="35px" height="35px" viewBox="0 0 35 35" enable-background="new 0 0 35 35" xml:space="preserve">
<g>
	<g>
		<g>
			<path fill="#78a93e" d="M17.499,21.003c1.931,0,3.505-1.571,3.505-3.503c0-0.763-0.25-1.467-0.663-2.042
				c-0.637-0.883-1.671-1.461-2.84-1.461s-2.204,0.578-2.841,1.461c-0.414,0.575-0.662,1.279-0.663,2.042
				C13.995,19.431,15.568,21.003,17.499,21.003z"/>
			<polygon fill="#78a93e" points="25.15,13.214 25.15,10.278 25.15,9.84 24.71,9.842 21.775,9.851 21.787,13.225 			"/>
			<path fill="#78a93e" d="M17.5,0C7.851,0,0,7.851,0,17.5S7.851,35,17.5,35S35,27.149,35,17.5S27.15,0,17.5,0z M27.453,15.458
				v8.149c0,2.122-1.726,3.847-3.847,3.847H11.394c-2.122,0-3.847-1.725-3.847-3.847v-8.149v-4.063c0-2.122,1.725-3.847,3.847-3.847
				h12.211c2.122,0,3.847,1.725,3.847,3.847L27.453,15.458L27.453,15.458z"/>
			<path fill="#78a93e" d="M22.944,17.5c0,3.001-2.442,5.444-5.444,5.444s-5.443-2.443-5.443-5.444c0-0.722,0.144-1.412,0.4-2.042
				H9.486v8.149c0,1.053,0.855,1.906,1.907,1.906h12.211c1.051,0,1.907-0.853,1.907-1.906v-8.149h-2.973
				C22.798,16.088,22.944,16.778,22.944,17.5z"/>
		</g>
	</g>
</g>
</svg>
