<?xml version="1.0" encoding="utf-8"?>
<!-- Generator: Adobe Illustrator 17.0.0, SVG Export Plug-In . SVG Version: 6.00 Build 0)  -->
<!DOCTYPE svg PUBLIC "-//W3C//DTD SVG 1.1//EN" "http://www.w3.org/Graphics/SVG/1.1/DTD/svg11.dtd">
<svg version="1.1" id="Слой_1" xmlns="http://www.w3.org/2000/svg" xmlns:xlink="http://www.w3.org/1999/xlink" x="0px" y="0px"
	 width="35px" height="35px" viewBox="0 0 35 35" enable-background="new 0 0 35 35" xml:space="preserve">
<path fill="#FFFFFF" d="M17.5,0C7.835,0,0,7.835,0,17.5S7.835,35,17.5,35S35,27.165,35,17.5C35,7.835,27.165,0,17.5,0z M23.621,9.62
	h-2.226c-0.813,0-1.36,0.171-1.643,0.51c-0.284,0.34-0.428,0.85-0.428,1.531v2.679h4.152l-0.549,4.194h-3.601v10.759h-4.337V18.534
	h-3.613V14.34h3.613v-3.091c0-1.758,0.492-3.12,1.474-4.088c0.984-0.968,2.292-1.453,3.928-1.453c1.389,0,2.466,0.057,3.231,0.171
	C23.621,5.878,23.621,9.62,23.621,9.62z"/>
</svg>
