<svg id="Capa_1" data-name="Capa 1" xmlns="http://www.w3.org/2000/svg" viewBox="0 0 35 35"><defs><style>.cls-1{fill:#fff;}</style></defs><title>ico-vk</title><path class="cls-1" d="M17.5,0A17.5,17.5,0,1,0,35,17.5,17.5,17.5,0,0,0,17.5,0Zm8.88,19.39a33.23,33.23,0,0,1,2.41,2.42,6.92,6.92,0,0,1,.86,1.24c.33.65,0,1.35-.55,1.39H25.52a2.77,2.77,0,0,1-2.28-.93c-.5-.5-1-1-1.43-1.57a3.33,3.33,0,0,0-.65-.57.75.75,0,0,0-1.19.29,3.76,3.76,0,0,0-.38,1.67c0,.84-.29,1.07-1.14,1.11a9.18,9.18,0,0,1-5.13-1.1,11.33,11.33,0,0,1-3.45-3.23A43.52,43.52,0,0,1,5.32,12c-.29-.64-.08-1,.63-1,1.17,0,2.34,0,3.51,0a1,1,0,0,1,1,.73,21.79,21.79,0,0,0,2.38,4.41,3.77,3.77,0,0,0,.9,1,.55.55,0,0,0,.93-.27,3,3,0,0,0,.21-.93,13.83,13.83,0,0,0-.06-3.24,1.35,1.35,0,0,0-1.15-1.24c-.34-.06-.29-.19-.13-.39a1.29,1.29,0,0,1,1.1-.55h4.05c.64.13.78.41.87,1.06v4.5c0,.25.13,1,.57,1.15s.59-.17.81-.4a14,14,0,0,0,2.28-3.51c.27-.56.51-1.13.74-1.71a.87.87,0,0,1,.92-.63h3.9a2,2,0,0,1,.35,0c.66.11.84.4.63,1a9.7,9.7,0,0,1-1.55,2.69c-.65.9-1.35,1.77-2,2.68S25.64,18.67,26.38,19.39Z"/></svg>