<?xml version="1.0" encoding="utf-8"?>
<!-- Generator: Adobe Illustrator 17.0.0, SVG Export Plug-In . SVG Version: 6.00 Build 0)  -->
<!DOCTYPE svg PUBLIC "-//W3C//DTD SVG 1.1//EN" "http://www.w3.org/Graphics/SVG/1.1/DTD/svg11.dtd">
<svg version="1.1" id="Capa_1" xmlns="http://www.w3.org/2000/svg" xmlns:xlink="http://www.w3.org/1999/xlink" x="0px" y="0px"
	 width="35px" height="35px" viewBox="0 0 35 35" enable-background="new 0 0 35 35" xml:space="preserve">
<g>
	<path fill="#78a93e" d="M15.229,24.515c0,0.277,0.001,0.491,0.011,0.638c0.01,0.15-0.01,0.246-0.063,0.287
		c-0.042,0.165-0.164,0.284-0.367,0.365c-0.196,0.076-0.35-0.032-0.455-0.333c-0.02-0.041-0.025-0.141-0.011-0.3
		c0.01-0.161,0.011-0.37,0.011-0.629l-0.029-3.85h-1.422l0.034,3.791c0,0.297-0.007,0.546-0.017,0.748s-0.007,0.351,0.017,0.456
		c0.018,0.168,0.038,0.343,0.06,0.533c0.018,0.189,0.116,0.343,0.295,0.456c0.165,0.104,0.358,0.157,0.578,0.157
		c0.225,0,0.441-0.038,0.651-0.112c0.213-0.073,0.406-0.172,0.587-0.3c0.181-0.129,0.312-0.269,0.393-0.41l-0.027,0.756L16.65,26.8
		v-6.111h-1.421L15.229,24.515L15.229,24.515z"/>
	<path fill="#78a93e" d="M20.1,20.462c-0.342,0-0.734,0.158-1.175,0.48V18.56h-1.422v8.182l1.176-0.032l0.091-0.511
		c0.381,0.321,0.727,0.517,1.028,0.588c0.305,0.071,0.561,0.042,0.773-0.087c0.211-0.129,0.377-0.336,0.493-0.634
		c0.116-0.291,0.178-0.631,0.178-1.011v-3.17c0-0.606-0.217-1.043-0.647-1.298C20.451,20.506,20.283,20.462,20.1,20.462z
		 M20.16,25.32c0,0.123-0.064,0.23-0.193,0.323c-0.13,0.092-0.277,0.14-0.44,0.14c-0.168,0-0.312-0.049-0.444-0.14
		c-0.129-0.092-0.189-0.202-0.189-0.323v-3.59c0-0.123,0.063-0.231,0.189-0.332c0.132-0.098,0.276-0.147,0.444-0.147
		c0.165,0,0.308,0.049,0.44,0.148c0.129,0.098,0.193,0.21,0.193,0.332V25.32z"/>
	<polygon fill="#78a93e" points="13.187,18.56 8.592,18.56 8.592,19.611 10.065,19.611 10.065,26.802 11.486,26.802 11.486,19.642 
		13.187,19.642 	"/>
	<path fill="#78a93e" d="M17.5,0C7.834,0,0,7.834,0,17.5S7.834,35,17.5,35S35,27.166,35,17.5C35.001,7.836,27.166,0,17.5,0z
		 M20.038,12.747V8.494h1.329v4.918c0,0.125,0.046,0.23,0.139,0.326c0.097,0.092,0.218,0.139,0.372,0.139
		c0.144,0,0.269-0.049,0.37-0.139c0.105-0.095,0.158-0.202,0.158-0.326V8.494h1.233v6.308h-1.574l0.027-0.511
		c-0.144,0.204-0.283,0.367-0.416,0.476c-0.165,0.104-0.343,0.155-0.542,0.155c-0.235,0-0.433-0.052-0.588-0.155
		c-0.137-0.09-0.253-0.23-0.357-0.417c-0.035-0.084-0.064-0.172-0.076-0.255c-0.011-0.087-0.025-0.174-0.048-0.255
		c-0.018-0.105-0.029-0.244-0.029-0.419L20.038,12.747L20.038,12.747z M16.11,8.554c0.279-0.204,0.634-0.309,1.068-0.309
		c0.381,0,0.696,0.063,0.958,0.186c0.255,0.105,0.468,0.283,0.631,0.542c0.123,0.188,0.218,0.395,0.279,0.637
		c0.059,0.256,0.092,0.603,0.092,1.036v1.623c0,0.588-0.034,1.011-0.092,1.271c-0.025,0.235-0.123,0.498-0.312,0.788
		c-0.185,0.255-0.385,0.427-0.602,0.511c-0.262,0.123-0.552,0.185-0.883,0.185c-0.336,0-0.651-0.05-0.924-0.155
		c-0.26-0.081-0.454-0.234-0.571-0.447c-0.123-0.168-0.228-0.398-0.312-0.696c-0.06-0.28-0.092-0.7-0.092-1.27
		c0-0.001,0-1.673,0-1.673c0-0.568,0.055-1.037,0.155-1.404C15.632,8.995,15.833,8.719,16.11,8.554z M11.934,5.988l0.946,3.108
		l0.941-3.108h1.655l-1.781,4.159v4.844H12.18v-4.844l-1.903-4.159H11.934z M27.829,26.046c0,0.424-0.09,0.813-0.27,1.166
		c-0.181,0.358-0.424,0.669-0.735,0.938c-0.309,0.27-0.668,0.476-1.074,0.631c-0.409,0.153-0.848,0.234-1.322,0.234H10.553
		c-0.463,0-0.897-0.078-1.306-0.234c-0.409-0.155-0.766-0.365-1.074-0.631c-0.308-0.269-0.554-0.58-0.736-0.938
		c-0.181-0.357-0.269-0.741-0.269-1.166v-6.789c0-0.402,0.09-0.788,0.27-1.151c0.181-0.367,0.43-0.683,0.736-0.941
		c0.308-0.262,0.668-0.475,1.074-0.634c0.409-0.158,0.843-0.238,1.306-0.238H24.43c0.463,0,0.9,0.08,1.313,0.238
		s0.773,0.372,1.082,0.634c0.312,0.262,0.554,0.578,0.735,0.941c0.181,0.365,0.269,0.749,0.269,1.151V26.046z"/>
	<path fill="#78a93e" d="M17.249,13.934c0.164,0,0.312-0.06,0.441-0.186c0.13-0.122,0.19-0.274,0.19-0.448V9.944
		c0-0.186-0.063-0.342-0.19-0.468c-0.129-0.13-0.279-0.195-0.44-0.195c-0.165,0-0.312,0.064-0.44,0.195
		c-0.129,0.13-0.193,0.284-0.193,0.468v3.359c0,0.165,0.063,0.312,0.186,0.441C16.926,13.873,17.079,13.934,17.249,13.934z"/>
	<path fill="#78a93e" d="M24.662,24.655v0.153v0.54c0,0.165-0.06,0.293-0.178,0.385c-0.12,0.095-0.26,0.139-0.423,0.139h-0.22
		c-0.164,0-0.297-0.043-0.409-0.139c-0.108-0.092-0.165-0.22-0.165-0.385v-0.06v-0.603v-0.806h2.458v-0.85
		c0-0.318-0.003-0.626-0.017-0.92c-0.01-0.295-0.034-0.525-0.076-0.686c-0.042-0.28-0.165-0.505-0.381-0.675
		c-0.21-0.169-0.456-0.284-0.741-0.349c-0.283-0.064-0.571-0.076-0.867-0.032c-0.293,0.042-0.546,0.139-0.766,0.293
		c-0.277,0.186-0.475,0.44-0.602,0.76c-0.123,0.318-0.186,0.762-0.186,1.33v1.903c0,0.801,0.213,1.376,0.637,1.714
		c0.389,0.318,0.801,0.48,1.235,0.48c0.042,0,0.084,0,0.129,0c0.484-0.029,0.913-0.237,1.284-0.617
		c0.279-0.279,0.417-0.644,0.417-1.096c-0.018-0.147-0.035-0.308-0.069-0.48H24.66v0.003h0.002V24.655z M23.3,22.088
		c0-0.165,0.063-0.3,0.186-0.41c0.123-0.108,0.272-0.164,0.449-0.164h0.063c0.182,0,0.342,0.052,0.472,0.155
		c0.129,0.105,0.195,0.244,0.195,0.419l-0.035,0.756h-1.361L23.3,22.088z"/>
</g>
</svg>
