<?xml version="1.0" encoding="utf-8"?>
<!-- Generator: Adobe Illustrator 17.0.0, SVG Export Plug-In . SVG Version: 6.00 Build 0)  -->
<!DOCTYPE svg PUBLIC "-//W3C//DTD SVG 1.1//EN" "http://www.w3.org/Graphics/SVG/1.1/DTD/svg11.dtd">
<svg version="1.1" id="Capa_1" xmlns="http://www.w3.org/2000/svg" xmlns:xlink="http://www.w3.org/1999/xlink" x="0px" y="0px"
	 width="35px" height="35px" viewBox="0 0 35 35" enable-background="new 0 0 35 35" xml:space="preserve">
<g>
	<g>
		<g>
			<path fill="#FFFFFF" d="M17.5,0C7.836,0,0,7.836,0,17.5S7.836,35,17.5,35S35,27.164,35,17.5C35,7.833,27.164,0,17.5,0z
				 M13.125,25.977H8.75V10.664h4.375V25.977z M11.073,9.726c-1.133,0-2.05-0.919-2.05-2.052s0.919-2.052,2.05-2.052
				c1.133,0.002,2.052,0.921,2.052,2.052C13.125,8.807,12.206,9.726,11.073,9.726z M28.437,25.977h-4.375V16.51
				c0-1.109-0.317-1.886-1.68-1.886c-2.26,0-2.695,1.886-2.695,1.886v9.467h-4.375V10.664h4.375v1.463
				c0.626-0.479,2.187-1.461,4.375-1.461c1.418,0,4.375,0.849,4.375,5.976V25.977z"/>
		</g>
	</g>
</g>
</svg>
