<?xml version="1.0" encoding="utf-8"?>
<!-- Generator: Adobe Illustrator 21.1.0, SVG Export Plug-In . SVG Version: 6.00 Build 0)  -->
<svg version="1.1" id="Слой_1" xmlns="http://www.w3.org/2000/svg" xmlns:xlink="http://www.w3.org/1999/xlink" x="0px" y="0px"
	 viewBox="0 0 2128 2500" style="enable-background:new 0 0 2128 2500;" xml:space="preserve">
<style type="text/css">
	.st0{fill:#FFFFFF;}
</style>
<path class="st0" d="M193.9,493.8c-21.7,0-40,7.6-49.2,22.5c-9.5,15.4-8.1,35.2,2.1,55.3l243.8,422c0.4,0.8,0.4,1.3,0,2L7.5,1671.7
	c-10,19.9-9.5,39.9,0,55.3c9.2,14.8,25.4,24.6,47.1,24.6h360.5c53.9,0,79.9-36.4,98.3-69.6c0,0,374.7-662.6,389.2-688.4
	c-1.5-2.4-247.9-432.2-247.9-432.2c-18-32-45.1-67.6-100.4-67.6L193.9,493.8L193.9,493.8z"/>
<path class="st0" d="M1708.7,0c-53.9,0-77.2,33.9-96.5,68.7c0,0-776.8,1377.5-802.3,1422.7c1.3,2.4,512.3,939.9,512.3,939.9
	c17.9,32,45.5,68.7,100.8,68.7H1783c21.7,0,38.7-8.2,47.8-23c9.6-15.4,9.3-35.7-0.7-55.7l-508.3-928.7c-0.5-0.7-0.5-1.7,0-2.4
	L2120.1,78.7c10-19.9,10.2-40.3,0.8-55.7c-9.2-14.9-26.2-23-47.9-23L1708.7,0L1708.7,0L1708.7,0L1708.7,0z"/>
</svg>
