<svg id="Слой_1" data-name="Слой 1" xmlns="http://www.w3.org/2000/svg" viewBox="0 0 98.16 79.64"><defs><style>.cls-1{fill:#fff;}</style></defs><title>ico-raccoon</title><path class="cls-1" d="M68.57,10.19V22.74L57.26,20.29h0l-7.25,0h0l-7.25,0h0L31.43,22.73V10.18L12.76,28.88.93,40.75h0l9.17,9.16L23.55,63.37l9.31,9.3L50,89.81h0L67.14,72.68l9.31-9.3L89.91,49.93l9.17-9.17L87.24,28.9ZM64.35,71.85h0L50,66.67h0l-14.33,5.2v0L26,62l9.64-5.94L50,53h0l14.41,3.07L74,62.06ZM95.27,40.65l-7.54,7.61h0l-9.54-7.49-9.62-3.87-7.88,3.87L50,46h0L39.32,40.76l-7.89-3.88-9.62,3.88-9.54,7.49h0L4.73,40.64h0L17.28,28,28.85,16.46v9.86l.08,0,14.69-3.56H56.37l14.69,3.56.08,0V16.47L82.72,28.06,95.27,40.65Z" transform="translate(-0.92 -10.18)"/></svg>