<svg id="Слой_1" data-name="Слой 1" xmlns="http://www.w3.org/2000/svg" viewBox="0 0 94.21 19.3"><defs><style>.cls-1,.cls-4{fill:#fff;}.cls-2{fill:#ededed;}.cls-2,.cls-3,.cls-4,.cls-5,.cls-6{fill-rule:evenodd;}.cls-3{fill:#ddd;}.cls-5{fill:#c8c8c8;}.cls-6{fill:#e2e2e2;}</style></defs><title>ico-edx</title><path class="cls-1" d="M16.92,19.06V4.53h3.84a12.3,12.3,0,0,1,2.05.13,4.06,4.06,0,0,1,1.66.63,3.31,3.31,0,0,1,1.08,1.3A4.13,4.13,0,0,1,26,8.43a4.15,4.15,0,0,1-1.09,2.91q-1.09,1.19-4,1.19H18.71v6.52Zm1.78-8.11h2.24a3.7,3.7,0,0,0,2.46-.64,2.29,2.29,0,0,0,.73-1.81A2.44,2.44,0,0,0,23.7,7a2,2,0,0,0-1.13-.8,7.63,7.63,0,0,0-1.66-.12h-2.2Z"/><path class="cls-1" d="M28.12,19.06V4.53h9.12V6.13H29.9v4.55h7v1.58h-7v5.21h7.65v1.59Z"/><path class="cls-1" d="M39.75,19.06V4.53h1.83L49.7,16.16V4.53h1.71V19.06H49.58L41.46,7.42V19.06Z"/><path class="cls-1" d="M12.71,6.33a7.4,7.4,0,0,1,2.18,5.37,7.4,7.4,0,0,1-2.18,5.37A7.1,7.1,0,0,1,7.44,19.3a7.1,7.1,0,0,1-5.26-2.23A7.4,7.4,0,0,1,0,11.7,7.4,7.4,0,0,1,2.18,6.33,7.1,7.1,0,0,1,7.44,4.1,7.1,7.1,0,0,1,12.71,6.33ZM7.44,6A5.29,5.29,0,0,0,3.52,7.7a5.52,5.52,0,0,0-1.62,4,5.52,5.52,0,0,0,1.63,4,5.28,5.28,0,0,0,3.92,1.66,5.28,5.28,0,0,0,3.92-1.66,5.53,5.53,0,0,0,1.62-4,5.52,5.52,0,0,0-1.62-4A5.29,5.29,0,0,0,7.44,6Z"/><path class="cls-2" d="M76.61,0V3L78.2,3s.21.26.33.38h0V15.24c-.18.2-.32.42-.51.61-.49,0-.91,0-1.4,0V18.9H75.5V17.62a7.62,7.62,0,0,1-3.66,1.28H70.9A7.51,7.51,0,0,1,66,16.54v0a6.61,6.61,0,0,0,1.3-2.1H64.61a7.25,7.25,0,0,1-.47-1.65v0c1,0,2,0,3.08,0h0a4.22,4.22,0,0,0,4.78,3,4.14,4.14,0,0,0,3.47-3.87,4.15,4.15,0,0,0-1.19-3.36,3.91,3.91,0,0,0-2.59-1.26,4.16,4.16,0,0,0-4.15,2.26h0A7,7,0,0,0,66,6.64v0A7.29,7.29,0,0,1,75.5,5.55V3c-.61-.05-1.33,0-2,0V0Z"/><path class="cls-3" d="M76.61,0h1.91V3.39C78.41,3.27,78.2,3,78.2,3L76.61,3Z"/><path class="cls-4" d="M78.52,0h5.57V3c-.55,0-1.17,0-1.68,0q1.49,1.86,3,3.7L88.4,3s0,0,0,0H86.75V0h7.46V3c-.52,0-1.1,0-1.58,0-1.73,2.06-3.4,4.18-5.1,6.27,1.73,2.21,3.53,4.36,5.29,6.55h1.4V18.9H86.75V15.82h1.86c-1-1.29-2.14-2.65-3.19-4l-3.22,4h1.89V18.9H80.83V15.85l-2.31,0v-.61q2.41-3,4.8-5.92-2.37-3-4.8-5.92V0Z"/><path class="cls-5" d="M82.42,3c.51-.05,1.13,0,1.68,0C83.58,3,83,3,82.42,3Z"/><path class="cls-5" d="M86.75,3h1.68s0,0,0,0C87.91,3,87.25,3.05,86.75,3Z"/><path class="cls-5" d="M92.62,3c.48-.05,1.06,0,1.58,0C93.72,3,93.14,3,92.62,3Z"/><path class="cls-5" d="M60.37,4.26a1.47,1.47,0,0,1,.58,0Z"/><path class="cls-2" d="M55.71,6.17a7.28,7.28,0,0,1,4.66-1.91H61a7,7,0,0,1,4.57,1.89,2.57,2.57,0,0,0,.33.33.47.47,0,0,0,.14.14v0a6.91,6.91,0,0,0-1.65,2.91h0a4,4,0,0,0-3.47-2.24,3.55,3.55,0,0,0-.4,0,4.09,4.09,0,0,0-2.66,1.07,3,3,0,0,0-.35.35,4.3,4.3,0,0,0-.89,1.56c2.53,0,5.07,0,7.6,0a7.77,7.77,0,0,0,0,2.42v0h-7.6a4.08,4.08,0,0,0,2.94,2.91,4.24,4.24,0,0,0,3.91-.91c.11-.09.35-.29.4-.35.24,0,.59,0,.82,0h0A7.35,7.35,0,0,0,66,16.52v0A7.14,7.14,0,0,1,61,18.9H60.3a7.47,7.47,0,0,1-4.82-2.14,7.28,7.28,0,0,1-2.12-4.87v-.61a7.28,7.28,0,0,1,1.91-4.66A4.76,4.76,0,0,0,55.71,6.17Z"/><path class="cls-3" d="M66,6.64a7,7,0,0,1,1.56,2.94,4.53,4.53,0,0,0-.33,3.19c-1,0-2.08,0-3.08,0a7.77,7.77,0,0,1,0-2.42h.47a2.91,2.91,0,0,0-.28-.77A6.91,6.91,0,0,1,66,6.64Z"/><path class="cls-5" d="M64.31,9.55h0a2.91,2.91,0,0,1,.28.77h-.47C64.19,10.06,64.27,9.82,64.31,9.55Z"/><path class="cls-6" d="M67.55,9.58h0a7.82,7.82,0,0,1,.14,3.19h-.49A4.53,4.53,0,0,1,67.55,9.58Z"/><path class="cls-3" d="M64.64,14.42h2.63a6.61,6.61,0,0,1-1.3,2.1A7.35,7.35,0,0,1,64.64,14.42Z"/><path class="cls-3" d="M78.52,15.24v.58c.77,0,1.6,0,2.31,0V18.9H76.61V15.82c.48,0,.91,0,1.4,0C78.2,15.66,78.35,15.44,78.52,15.24Z"/><path class="cls-5" d="M65.52,6.15a2.58,2.58,0,0,1,.33.33A2.57,2.57,0,0,1,65.52,6.15Z"/><path class="cls-5" d="M57.44,8.74a3,3,0,0,1,.35-.35A3,3,0,0,1,57.44,8.74Z"/></svg>