<?xml version="1.0" encoding="utf-8"?>
<!-- Generator: Adobe Illustrator 21.1.0, SVG Export Plug-In . SVG Version: 6.00 Build 0)  -->
<svg version="1.1" id="Слой_1" xmlns="http://www.w3.org/2000/svg" xmlns:xlink="http://www.w3.org/1999/xlink" x="0px" y="0px"
	  width="35px" height="35px" viewBox="0 0 35 35" enable-background="new 0 0 35 35" xml:space="preserve">
<style type="text/css">

</style>
<path fill="#c5c6c8" class="st0" d="M17.5,0C7.8,0,0,7.8,0,17.5S7.8,35,17.5,35C27.2,35,35,27.2,35,17.5S27.2,0,17.5,0z M26,19.4
	c-0.9,4.4-5,7.7-9.6,7.7c-5.3,0-9.6-4.3-9.6-9.6c0-5.3,4.3-9.6,9.6-9.6c2.6,0,5,1.1,6.8,2.7L21,13c-1.1-1.2-2.7-1.9-4.5-1.9
	c-3.6,0-6.4,2.8-6.4,6.4s2.8,6.4,6.4,6.4c2.8,0,5.2-1.9,6-4.5h-5.5v-3H26V19.4z M30,18v1.9h-1.5V18h-1.9v-1.5h1.9v-1.8H30v1.8h1.8
	V18H30z"/>
</svg>
