<?xml version="1.0" encoding="UTF-8"?>
<svg width="16px" height="16px" viewBox="0 0 16 16" version="1.1" xmlns="http://www.w3.org/2000/svg" xmlns:xlink="http://www.w3.org/1999/xlink">
    <!-- Generator: Sketch 47 (45396) - http://www.bohemiancoding.com/sketch -->
    <title>Иконка предпочтения языка@svg</title>
    <desc>Created with Sketch.</desc>
    <defs></defs>
    <g id="Дизайн-макет" stroke="none" stroke-width="1" fill="none" fill-rule="evenodd">
        <g id="Desktop-Информация-об-аккаунте-1440" transform="translate(-970.000000, -466.000000)" fill="#B3B3B3">
            <g id="Дополнительно" transform="translate(954.000000, 230.000000)">
                <path d="M23.992,236 C19.576,236 16,239.584 16,244 C16,248.416 19.576,252 23.992,252 C28.416,252 32,248.416 32,244 C32,239.584 28.416,236 23.992,236 L23.992,236 Z M29.536,240.8 L27.176,240.8 C26.92,239.8 26.552,238.84 26.072,237.952 C27.544,238.456 28.768,239.48 29.536,240.8 L29.536,240.8 Z M24,237.632 C24.664,238.592 25.184,239.656 25.528,240.8 L22.472,240.8 C22.816,239.656 23.336,238.592 24,237.632 L24,237.632 Z M17.808,245.6 C17.68,245.088 17.6,244.552 17.6,244 C17.6,243.448 17.68,242.912 17.808,242.4 L20.512,242.4 C20.448,242.928 20.4,243.456 20.4,244 C20.4,244.544 20.448,245.072 20.512,245.6 L17.808,245.6 L17.808,245.6 Z M18.464,247.2 L20.824,247.2 C21.08,248.2 21.448,249.16 21.928,250.048 C20.456,249.544 19.232,248.528 18.464,247.2 L18.464,247.2 Z M20.824,240.8 L18.464,240.8 C19.232,239.472 20.456,238.456 21.928,237.952 C21.448,238.84 21.08,239.8 20.824,240.8 L20.824,240.8 Z M24,250.368 C23.336,249.408 22.816,248.344 22.472,247.2 L25.528,247.2 C25.184,248.344 24.664,249.408 24,250.368 L24,250.368 Z M25.872,245.6 L22.128,245.6 C22.056,245.072 22,244.544 22,244 C22,243.456 22.056,242.92 22.128,242.4 L25.872,242.4 C25.944,242.92 26,243.456 26,244 C26,244.544 25.944,245.072 25.872,245.6 L25.872,245.6 Z M26.072,250.048 C26.552,249.16 26.92,248.2 27.176,247.2 L29.536,247.2 C28.768,248.52 27.544,249.544 26.072,250.048 L26.072,250.048 Z M27.488,245.6 C27.552,245.072 27.6,244.544 27.6,244 C27.6,243.456 27.552,242.928 27.488,242.4 L30.192,242.4 C30.32,242.912 30.4,243.448 30.4,244 C30.4,244.552 30.32,245.088 30.192,245.6 L27.488,245.6 L27.488,245.6 Z" id="Иконка-предпочтения-языка"></path>
            </g>
        </g>
    </g>
</svg>