<svg id="Capa_1" data-name="Capa 1" xmlns="http://www.w3.org/2000/svg" viewBox="0 0 35 35"><defs><style>.cls-1{fill:#fff;}</style></defs><title>ico-behance</title><path class="cls-1" d="M14.09,13.87c0-1.65-1.12-1.65-1.12-1.65H8.34v3.54h4.34C13.42,15.76,14.09,15.52,14.09,13.87Z"/><path class="cls-1" d="M13,18.21H8.34v4.24h4.41c.66,0,1.89-.23,1.89-2.06C14.64,18.18,13,18.21,13,18.21Z"/><path class="cls-1" d="M24.79,15.76A2.84,2.84,0,0,0,22,18.2h5.22A2.36,2.36,0,0,0,24.79,15.76Z"/><path class="cls-1" d="M17.5,0A17.5,17.5,0,1,0,35,17.5,17.5,17.5,0,0,0,17.5,0Zm3.82,10.33h6.55v2H21.32ZM18,20.58c0,4.85-5,4.69-5,4.69H4.7V9.39H13c2.51,0,4.49,1.39,4.49,4.23a2.76,2.76,0,0,1-2.42,3C18.23,16.64,18,20.58,18,20.58Zm6.82,2.5c2.64,0,2.55-1.71,2.55-1.71h2.79c0,4.53-5.43,4.22-5.43,4.22a5.63,5.63,0,0,1-6.1-6.07s0-6.1,6.1-6.1c6.43,0,5.53,6.89,5.53,6.89H22A2.58,2.58,0,0,0,24.82,23.09Z"/></svg>