<?xml version="1.0" encoding="utf-8"?>
<!-- Generator: Adobe Illustrator 17.0.0, SVG Export Plug-In . SVG Version: 6.00 Build 0)  -->
<!DOCTYPE svg PUBLIC "-//W3C//DTD SVG 1.1//EN" "http://www.w3.org/Graphics/SVG/1.1/DTD/svg11.dtd">
<svg version="1.1" id="Capa_1" xmlns="http://www.w3.org/2000/svg" xmlns:xlink="http://www.w3.org/1999/xlink" x="0px" y="0px"
	 width="35px" height="35px" viewBox="0 0 35 35" enable-background="new 0 0 35 35" xml:space="preserve">
<g>
	<g>
		<path fill="#FFFFFF" d="M14.085,13.867c0-1.651-1.123-1.651-1.123-1.651h-0.595H8.341v3.543h4.335
			C13.424,15.758,14.085,15.519,14.085,13.867z"/>
		<path fill="#FFFFFF" d="M12.962,18.206H8.341v4.243h4.408c0.663-0.019,1.887-0.227,1.887-2.062
			C14.636,18.184,12.962,18.206,12.962,18.206z"/>
		<path fill="#FFFFFF" d="M24.793,15.758c-2.452,0-2.794,2.447-2.794,2.447h5.215C27.214,18.206,27.245,15.758,24.793,15.758z"/>
		<path fill="#FFFFFF" d="M17.5,0C7.835,0,0,7.835,0,17.5S7.835,35,17.5,35S35,27.165,35,17.5S27.165,0,17.5,0z M21.315,10.329h6.55
			v1.955h-6.55V10.329z M18.005,20.583c0,4.846-5.043,4.686-5.043,4.686H8.341H8.205H4.701V9.394h3.504h0.136h4.621
			c2.511,0,4.493,1.386,4.493,4.227s-2.423,3.021-2.423,3.021C18.225,16.642,18.005,20.583,18.005,20.583z M24.824,23.087
			c2.639,0,2.545-1.708,2.545-1.708h2.794c0,4.533-5.432,4.222-5.432,4.222c-6.519,0-6.1-6.069-6.1-6.069s-0.005-6.099,6.099-6.099
			c6.426,0,5.526,6.891,5.526,6.891H22.03C22.03,23.274,24.824,23.087,24.824,23.087z"/>
	</g>
</g>
</svg>
