<?xml version="1.0" encoding="utf-8"?>
<svg version="1.1" id="Capa_1" xmlns="http://www.w3.org/2000/svg" xmlns:xlink="http://www.w3.org/1999/xlink" x="0px" y="0px"
	 width="35px" height="35px" viewBox="0 0 35 35" enable-background="new 0 0 35 35" xml:space="preserve">
<g>
	<g>
		<path fill="#fff" d="M17.5,0C7.836,0,0,7.836,0,17.5S7.836,35,17.5,35S35,27.164,35,17.5C35,7.833,27.164,0,17.5,0z
			 M26.206,13.571l0.013,0.558c0,5.696-4.333,12.259-12.259,12.259c-2.432,0-4.697-0.713-6.604-1.936
			c0.337,0.039,0.68,0.061,1.028,0.061c2.019,0,3.876-0.689,5.351-1.844c-1.886-0.035-3.476-1.282-4.025-2.992
			c0.265,0.05,0.532,0.074,0.812,0.074c0.394,0,0.774-0.05,1.135-0.149c-1.971-0.398-3.456-2.137-3.456-4.224v-0.055
			c0.582,0.324,1.245,0.516,1.951,0.54c-1.155-0.772-1.916-2.091-1.916-3.585c0-0.79,0.212-1.529,0.582-2.166
			c2.124,2.607,5.3,4.322,8.881,4.502c-0.074-0.315-0.112-0.645-0.112-0.982c0-2.378,1.929-4.307,4.309-4.307
			c1.238,0,2.358,0.523,3.146,1.361c0.98-0.195,1.903-0.553,2.737-1.046c-0.322,1.006-1.004,1.851-1.894,2.384
			c0.868-0.103,1.702-0.337,2.474-0.678C27.781,12.208,27.048,12.967,26.206,13.571z"/>
	</g>
</g>
</svg>
