<svg id="Capa_1" data-name="Capa 1" xmlns="http://www.w3.org/2000/svg" viewBox="0 0 35 35"><defs><style>.cls-1{fill:#fff;}</style></defs><title>ico-ok</title><path class="cls-1" d="M17.52,14.5a3,3,0,1,0-3-3A3,3,0,0,0,17.52,14.5Z"/><path class="cls-1" d="M17.5,0A17.5,17.5,0,1,0,35,17.5,17.5,17.5,0,0,0,17.5,0Zm0,5.32a6.16,6.16,0,1,1-6.18,6.15A6.17,6.17,0,0,1,17.52,5.32Zm6.9,14.75a7.4,7.4,0,0,1-2.67,1.72,12.55,12.55,0,0,1-3,.68l.33.35c1.4,1.41,2.81,2.81,4.21,4.23a1.39,1.39,0,0,1,.31,1.64,1.66,1.66,0,0,1-1.56,1,1.52,1.52,0,0,1-1-.5C20,28.09,18.9,27,17.86,26c-.3-.32-.45-.26-.71,0-1.07,1.1-2.15,2.17-3.23,3.25a1.36,1.36,0,0,1-1.64.29,1.65,1.65,0,0,1-1-1.53,1.53,1.53,0,0,1,.51-1L16,22.81l.31-.33a9.46,9.46,0,0,1-5-1.8,6.62,6.62,0,0,1-.53-.44,1.51,1.51,0,0,1,1.71-2.47,2.89,2.89,0,0,1,.42.25A8.27,8.27,0,0,0,22,18.1a2.5,2.5,0,0,1,.89-.46,1.4,1.4,0,0,1,1.61.64A1.36,1.36,0,0,1,24.43,20.07Z"/></svg>