<?xml version="1.0" encoding="UTF-8"?>
<svg width="16px" height="16px" viewBox="0 0 16 16" version="1.1" xmlns="http://www.w3.org/2000/svg" xmlns:xlink="http://www.w3.org/1999/xlink">
    <!-- Generator: Sketch 47 (45396) - http://www.bohemiancoding.com/sketch -->
    <title>Иконка часового пояса@svg</title>
    <desc>Created with Sketch.</desc>
    <defs></defs>
    <g id="Дизайн-макет" stroke="none" stroke-width="1" fill="none" fill-rule="evenodd">
        <g id="Desktop-Информация-об-аккаунте-1440" transform="translate(-553.000000, -463.000000)" fill="#B3B3B3">
            <g id="Основная-информация" transform="translate(120.000000, 230.000000)">
                <path d="M440.111111,236.555556 L440.111111,241.888889 L444.333333,244.422222 L445,243.328889 L441.444444,241.222222 L441.444444,236.555556 L440.111111,236.555556 Z M433,241 C433,245.417778 436.573333,249 441,249 C445.417778,249 449,245.417778 449,241 C449,236.582222 445.417778,233 441,233 C436.582222,233 433,236.582222 433,241 Z M434.777778,241 C434.777778,237.56 437.56,234.777778 441,234.777778 C444.44,234.777778 447.222222,237.56 447.222222,241 C447.222222,244.44 444.44,247.222222 441,247.222222 C437.56,247.222222 434.777778,244.44 434.777778,241 Z" id="Иконка-часового-пояса"></path>
            </g>
        </g>
    </g>
</svg>