<?xml version="1.0" encoding="utf-8"?>
<!-- Generator: Adobe Illustrator 17.0.0, SVG Export Plug-In . SVG Version: 6.00 Build 0)  -->
<!DOCTYPE svg PUBLIC "-//W3C//DTD SVG 1.1//EN" "http://www.w3.org/Graphics/SVG/1.1/DTD/svg11.dtd">
<svg version="1.1" id="Capa_1" xmlns="http://www.w3.org/2000/svg" xmlns:xlink="http://www.w3.org/1999/xlink" x="0px" y="0px"
	 width="35px" height="35px" viewBox="0 0 35 35" enable-background="new 0 0 35 35" xml:space="preserve">
<g>
	<path fill="#FFFFFF" d="M17.5,0C7.835,0,0,7.835,0,17.5S7.835,35,17.5,35S35,27.165,35,17.5S27.165,0,17.5,0z M29.872,11.742
		c-0.11,2.411-1.795,5.714-5.052,9.906c-3.366,4.379-6.216,6.568-8.548,6.568c-1.443,0-2.664-1.333-3.663-4.001
		c-0.666-2.444-1.333-4.888-1.999-7.333c-0.74-2.666-1.535-4.001-2.386-4.001c-0.185,0-0.834,0.391-1.945,1.168l-1.164-1.502
		c1.221-1.073,2.428-2.148,3.614-3.225c1.631-1.408,2.854-2.15,3.671-2.225c1.927-0.185,3.114,1.134,3.559,3.954
		c0.481,3.045,0.814,4.939,1.001,5.679c0.555,2.526,1.167,3.788,1.834,3.788c0.519,0,1.299-0.82,2.336-2.457
		c1.037-1.639,1.593-2.886,1.667-3.741c0.148-1.415-0.408-2.123-1.667-2.123c-0.594,0-1.206,0.135-1.834,0.406
		c1.217-3.988,3.543-5.926,6.976-5.817C28.819,6.863,30.018,8.514,29.872,11.742z"/>
</g>
</svg>
