<?xml version="1.0" encoding="UTF-8"?>
<svg width="16px" height="16px" viewBox="0 0 16 16" version="1.1" xmlns="http://www.w3.org/2000/svg" xmlns:xlink="http://www.w3.org/1999/xlink">
    <!-- Generator: Sketch 47 (45396) - http://www.bohemiancoding.com/sketch -->
    <title>Иконка рождения@svg</title>
    <desc>Created with Sketch.</desc>
    <defs></defs>
    <g id="Дизайн-макет" stroke="none" stroke-width="1" fill="none" fill-rule="evenodd">
        <g id="Desktop-Информация-об-аккаунте-1440" transform="translate(-970.000000, -410.000000)" fill="#B3B3B3">
            <g id="Дополнительно" transform="translate(954.000000, 230.000000)">
                <path d="M24,184.363636 C24.8,184.363636 25.4545455,183.709091 25.4545455,182.909091 C25.4545455,182.632727 25.3818182,182.378182 25.2436364,182.16 L24,180 L22.7563636,182.16 C22.6181818,182.378182 22.5454545,182.632727 22.5454545,182.909091 C22.5454545,183.709091 23.2,184.363636 24,184.363636 L24,184.363636 Z M30.5454545,194.545455 L30.5454545,191.636364 C30.5454545,190.836364 29.8909091,190.181818 29.0909091,190.181818 L28.3636364,190.181818 L28.3636364,188 C28.3636364,187.2 27.7090909,186.545455 26.9090909,186.545455 L24.7272727,186.545455 L24.7272727,185.090909 L23.2727273,185.090909 L23.2727273,186.545455 L21.0909091,186.545455 C20.2909091,186.545455 19.6363636,187.2 19.6363636,188 L19.6363636,190.181818 L18.9090909,190.181818 C18.1090909,190.181818 17.4545455,190.836364 17.4545455,191.636364 L17.4545455,194.545455 L16,194.545455 L16,196 L32,196 L32,194.545455 L30.5454545,194.545455 L30.5454545,194.545455 Z" id="Иконка-рождения"></path>
            </g>
        </g>
    </g>
</svg>