<?xml version="1.0" encoding="UTF-8"?>
<svg width="48px" height="44px" viewBox="0 0 48 44" version="1.1" xmlns="http://www.w3.org/2000/svg" xmlns:xlink="http://www.w3.org/1999/xlink">
    <!-- Generator: Sketch 47.1 (45422) - http://www.bohemiancoding.com/sketch -->
    <title>Иконки</title>
    <desc>Created with Sketch.</desc>
    <defs></defs>
    <g id="Дизайн-макет" stroke="none" stroke-width="1" fill="none" fill-rule="evenodd">
        <g id="Desktop-Главная-страница-1440" transform="translate(-324.000000, -2437.000000)" fill="#CE3BC8">
            <g id="Преимущества-сервиса" transform="translate(298.000000, 2293.000000)">
                <g id="Материалы-курса" transform="translate(0.000000, 116.000000)">
                    <g id="Материалы-курса-иконка">
                        <path d="M69.6363636,28 L30.3636364,28 C27.9636364,28 26,29.98 26,32.4 L26,58.8 C26,61.22 27.9636364,63.2 30.3636364,63.2 L45.6363636,63.2 L41.2727273,69.8 L41.2727273,72 L58.7272727,72 L58.7272727,69.8 L54.3636364,63.2 L69.6363636,63.2 C72.0363636,63.2 74,61.22 74,58.8 L74,32.4 C74,29.98 72.0363636,28 69.6363636,28 L69.6363636,28 Z M69.6363636,54.4 L30.3636364,54.4 L30.3636364,32.4 L69.6363636,32.4 L69.6363636,54.4 L69.6363636,54.4 Z" id="Иконки"></path>
                    </g>
                </g>
            </g>
        </g>
    </g>
</svg>