<?xml version="1.0" encoding="UTF-8"?>
<svg width="48px" height="48px" viewBox="0 0 48 48" version="1.1" xmlns="http://www.w3.org/2000/svg" xmlns:xlink="http://www.w3.org/1999/xlink">
    <!-- Generator: Sketch 47.1 (45422) - http://www.bohemiancoding.com/sketch -->
    <title>Иконка</title>
    <desc>Created with Sketch.</desc>
    <defs></defs>
    <g id="Дизайн-макет" stroke="none" stroke-width="1" fill="none" fill-rule="evenodd">
        <g id="Desktop-Главная-страница-1440" transform="translate(-762.000000, -2720.000000)" fill="#57C4BD">
            <g id="Преимущества-сервиса" transform="translate(298.000000, 2293.000000)">
                <g id="Помощь" transform="translate(0.000000, 400.000000)">
                    <g id="Помощь-иконка" transform="translate(438.000000, 0.000000)">
                        <path d="M71.6,36.6 L66.8,36.6 L66.8,58.2 L35.6,58.2 L35.6,63 C35.6,64.32 36.68,65.4 38,65.4 L64.4,65.4 L74,75 L74,39 C74,37.68 72.92,36.6 71.6,36.6 L71.6,36.6 Z M62,51 L62,29.4 C62,28.08 60.92,27 59.6,27 L28.4,27 C27.08,27 26,28.08 26,29.4 L26,63 L35.6,53.4 L59.6,53.4 C60.92,53.4 62,52.32 62,51 L62,51 Z" id="Иконка"></path>
                    </g>
                </g>
            </g>
        </g>
    </g>
</svg>