<svg width="16" height="16" viewBox="0 0 16 16" fill="none" xmlns="http://www.w3.org/2000/svg">
<circle cx="8" cy="8" r="7.5" stroke="#00796B"/>
<path d="M6.61133 6.30957L5 5.4209C5.0651 5.31673 5.13835 5.21419 5.21973 5.11328C5.30436 5.01237 5.43132 4.8903 5.60059 4.74707C5.76986 4.60384 5.95378 4.48177 6.15234 4.38086C6.35417 4.27669 6.60807 4.18717 6.91406 4.1123C7.22005 4.03743 7.5472 4 7.89551 4C8.7972 4 9.50358 4.20508 10.0146 4.61523C10.5257 5.02214 10.7812 5.54297 10.7812 6.17773C10.7812 6.38281 10.7503 6.57812 10.6885 6.76367C10.6299 6.94596 10.5306 7.12663 10.3906 7.30566C10.2539 7.4847 10.0521 7.64258 9.78516 7.7793C9.52148 7.91276 9.2041 8.01204 8.83301 8.07715V8.84375H6.76758V7.07617C7.39909 7.06966 7.88086 7.00456 8.21289 6.88086C8.54818 6.75391 8.71582 6.55208 8.71582 6.27539C8.71582 6.10286 8.64258 5.96777 8.49609 5.87012C8.34961 5.76921 8.14941 5.71875 7.89551 5.71875C7.40397 5.71875 6.97591 5.91569 6.61133 6.30957ZM7.07031 10.9971C6.87174 10.7952 6.77246 10.5527 6.77246 10.2695C6.77246 9.98633 6.87174 9.74544 7.07031 9.54688C7.27214 9.34505 7.51465 9.24414 7.79785 9.24414C8.08105 9.24414 8.32194 9.34505 8.52051 9.54688C8.72233 9.74544 8.82324 9.98633 8.82324 10.2695C8.82324 10.5527 8.72233 10.7952 8.52051 10.9971C8.32194 11.1956 8.08105 11.2949 7.79785 11.2949C7.51465 11.2949 7.27214 11.1956 7.07031 10.9971Z" fill="#009688"/>
</svg>
