<svg width="34" height="44" viewBox="0 0 34 44" fill="none" xmlns="http://www.w3.org/2000/svg"> <path fill-rule="evenodd" clip-rule="evenodd" d="M16 30.2416V34.2953C16 34.719 16.3624 35.0625 16.7812 35.0625C17.2127 35.0625 17.5625 34.7064 17.5625 34.2953V30.2416C18.4728 29.9199 19.125 29.0517 19.125 28.0312C19.125 26.7368 18.0757 25.6875 16.7812 25.6875C15.4868 25.6875 14.4375 26.7368 14.4375 28.0312C14.4375 29.0517 15.0897 29.9199 16 30.2416ZM14.4375 31.1565V34.2786C14.4375 35.5745 15.4778 36.625 16.7812 36.625C18.0757 36.625 19.125 35.5763 19.125 34.2786V31.1565C20.0738 30.4439 20.6875 29.3092 20.6875 28.0312C20.6875 25.8739 18.9386 24.125 16.7812 24.125C14.6239 24.125 12.875 25.8739 12.875 28.0312C12.875 29.3092 13.4887 30.4439 14.4375 31.1565ZM5.0625 17.875V12.4051C5.0625 5.93235 10.3092 0.6875 16.7812 0.6875C23.2402 0.6875 28.5 5.93363 28.5 12.4051V17.875C31.0924 17.8824 33.1875 19.9849 33.1875 22.5773V38.1727C33.1875 40.7865 31.0827 42.875 28.4863 42.875H5.07623C2.47748 42.875 0.375 40.7697 0.375 38.1727V22.5773C0.375 19.9681 2.4724 17.8824 5.0625 17.875ZM6.625 17.875V12.396C6.625 6.79402 11.1721 2.25 16.7812 2.25C22.379 2.25 26.9375 6.79251 26.9375 12.396V17.875H25.375V12.4204C25.375 7.6664 21.5178 3.8125 16.7812 3.8125C12.0351 3.8125 8.1875 7.65844 8.1875 12.4204V17.875H6.625ZM9.75 17.875V12.4076C9.75 8.51445 12.898 5.375 16.7812 5.375C20.6566 5.375 23.8125 8.52359 23.8125 12.4076V17.875H9.75ZM5.05847 19.4375C3.33481 19.4375 1.9375 20.8392 1.9375 22.5717V38.1783C1.9375 39.9093 3.32957 41.3125 5.05847 41.3125H28.504C30.2277 41.3125 31.625 39.9108 31.625 38.1783V22.5717C31.625 20.8407 30.2329 19.4375 28.504 19.4375H5.05847Z" fill="white"/> <path fill-rule="evenodd" clip-rule="evenodd" d="M16.3125 30.0206V34.2953C16.3125 34.5379 16.5263 34.75 16.7812 34.75C17.0422 34.75 17.25 34.5318 17.25 34.2953V30.0206L17.4584 29.947C18.2477 29.668 18.8125 28.9152 18.8125 28.0312C18.8125 26.9094 17.9031 26 16.7812 26C15.6594 26 14.75 26.9094 14.75 28.0312C14.75 28.9152 15.3148 29.668 16.1041 29.947L16.3125 30.0206ZM14.125 31.3089C13.1723 30.5359 12.5625 29.3547 12.5625 28.0312C12.5625 25.7013 14.4513 23.8125 16.7812 23.8125C19.1112 23.8125 21 25.7013 21 28.0312C21 29.3547 20.3902 30.5359 19.4375 31.3089V34.2786C19.4375 35.7487 18.2484 36.9375 16.7812 36.9375C15.3041 36.9375 14.125 35.746 14.125 34.2786V31.3089ZM19.125 31.1565V34.2786C19.125 35.5763 18.0757 36.625 16.7812 36.625C15.4778 36.625 14.4375 35.5745 14.4375 34.2786V31.1565C13.4887 30.4439 12.875 29.3092 12.875 28.0312C12.875 25.8739 14.6239 24.125 16.7812 24.125C18.9386 24.125 20.6875 25.8739 20.6875 28.0312C20.6875 29.3092 20.0738 30.4439 19.125 31.1565ZM4.75 17.5729V12.4051C4.75 5.75971 10.1366 0.375 16.7812 0.375C23.4125 0.375 28.8125 5.76078 28.8125 12.4051V17.5729C31.4316 17.7409 33.5 19.9174 33.5 22.5773V38.1727C33.5 40.9598 31.2546 43.1875 28.4863 43.1875H5.07623C2.30473 43.1875 0.0625 40.9421 0.0625 38.1727V22.5773C0.0625 19.9006 2.1336 17.7398 4.75 17.5729ZM5.0625 17.875C2.4724 17.8824 0.375 19.9681 0.375 22.5773V38.1727C0.375 40.7697 2.47748 42.875 5.07623 42.875H28.4863C31.0827 42.875 33.1875 40.7865 33.1875 38.1727V22.5773C33.1875 19.9849 31.0924 17.8824 28.5 17.875V12.4051C28.5 5.93363 23.2402 0.6875 16.7812 0.6875C10.3092 0.6875 5.0625 5.93235 5.0625 12.4051V17.875ZM6.9375 12.396V17.5625H7.875V12.4204C7.875 7.48615 11.8622 3.5 16.7812 3.5C21.6906 3.5 25.6875 7.49407 25.6875 12.4204V17.5625H26.625V12.396C26.625 6.96563 22.2069 2.5625 16.7812 2.5625C11.3444 2.5625 6.9375 6.96688 6.9375 12.396ZM10.0625 12.4076V17.5625H23.5V12.4076C23.5 8.69636 20.4842 5.6875 16.7812 5.6875C13.0704 5.6875 10.0625 8.68725 10.0625 12.4076ZM5.05847 19.75C3.50854 19.75 2.25 21.0106 2.25 22.5717V38.1783C2.25 39.7383 3.50374 41 5.05847 41H28.504C30.054 41 31.3125 39.7394 31.3125 38.1783V22.5717C31.3125 21.0117 30.0588 19.75 28.504 19.75H5.05847ZM16 34.2953V30.2416C15.0897 29.9199 14.4375 29.0517 14.4375 28.0312C14.4375 26.7368 15.4868 25.6875 16.7812 25.6875C18.0757 25.6875 19.125 26.7368 19.125 28.0312C19.125 29.0517 18.4728 29.9199 17.5625 30.2416V34.2953C17.5625 34.7064 17.2127 35.0625 16.7812 35.0625C16.3624 35.0625 16 34.719 16 34.2953ZM6.625 17.875H8.1875V12.4204C8.1875 7.65844 12.0351 3.8125 16.7812 3.8125C21.5178 3.8125 25.375 7.6664 25.375 12.4204V17.875H26.9375V12.396C26.9375 6.79251 22.379 2.25 16.7812 2.25C11.1721 2.25 6.625 6.79402 6.625 12.396V17.875ZM9.75 17.875H23.8125V12.4076C23.8125 8.52359 20.6566 5.375 16.7812 5.375C12.898 5.375 9.75 8.51445 9.75 12.4076V17.875ZM1.9375 22.5717C1.9375 20.8392 3.33481 19.4375 5.05847 19.4375H28.504C30.2329 19.4375 31.625 20.8407 31.625 22.5717V38.1783C31.625 39.9108 30.2277 41.3125 28.504 41.3125H5.05847C3.32957 41.3125 1.9375 39.9093 1.9375 38.1783V22.5717Z" fill="white"/> </svg>
