<?xml version="1.0"?>
<!--Icons from directory ""-->
<svg xmlns="http://www.w3.org/2000/svg" width="33" height="107" viewBox="0 0 33 107"><svg xmlns:xlink="http://www.w3.org/1999/xlink" id="facebook" xml:space="preserve" height="21" viewBox="-27.783 -5 20.711 20.711" width="21" version="1.1" y="0" x="0px" enable-background="new -27.783 -5 20.711 20.711"><path d="m-17.427-5c-5.719 0-10.355 4.636-10.355 10.355s4.636 10.355 10.355 10.355 10.355-4.636 10.355-10.355-4.636-10.355-10.355-10.355zm3.622 5.692h-1.317c-0.481 0-0.805 0.101-0.972 0.302-0.168 0.201-0.253 0.503-0.253 0.906v1.585h2.457l-0.326 2.482h-2.131v6.366h-2.566v-6.366h-2.138v-2.482h2.138v-1.829c0-1.04 0.291-1.846 0.872-2.419 0.582-0.573 1.356-0.86 2.324-0.86 0.822 0 1.459 0.034 1.912 0.101v2.214z" fill="#fff"/></svg><svg xmlns:xlink="http://www.w3.org/1999/xlink" id="itunes" xml:space="preserve" height="32" viewBox="0 -0.417 32.417 32.417" width="32" version="1.1" y="21" x="0px" enable-background="new 0 -0.417 32.417 32.417"><path d="m16.208-0.417c-8.951 0-16.208 7.257-16.208 16.209 0 8.951 7.257 16.208 16.208 16.208 8.952 0 16.208-7.257 16.208-16.208 0.001-8.952-7.256-16.209-16.208-16.209zm5.486 8.308v11.969c0 0.014-0.001 0.027-0.003 0.04 0 0.003 0 0.005 0.001 0.008 0.111 1.472-0.999 2.819-2.475 3.003-0.112 0.014-0.226 0.021-0.338 0.021-1.362 0-2.466-1.024-2.569-2.383-0.113-1.473 0.997-2.821 2.475-3.004 0.325-0.041 0.653-0.022 0.962 0.053v-5.898l-5.77 1.074v7.994c0 0.016-0.001 0.031-0.004 0.047v0.007c0.109 1.469-0.999 2.813-2.473 2.997-0.112 0.014-0.225 0.021-0.336 0.021-1.362 0-2.467-1.024-2.571-2.382-0.114-1.474 0.995-2.822 2.473-3.004 0.324-0.041 0.652-0.022 0.961 0.055v-9.107c0-0.128 0.092-0.237 0.218-0.258l9.126-1.558c0.001 0 0.003-0.001 0.004-0.001 0.069-0.015 0.143-0.003 0.203 0.037 0.079 0.053 0.125 0.144 0.117 0.239l-0.001 0.03z" fill="#fff"/></svg><svg xmlns:xlink="http://www.w3.org/1999/xlink" id="se_2" xml:space="preserve" height="33" viewBox="0 0 33.484 33.484" width="33" version="1.1" y="53" x="0px" enable-background="new 0 0 33.484 33.484"><path d="m16.742 0c-9.246 0-16.742 7.496-16.742 16.742s7.496 16.742 16.742 16.742 16.742-7.496 16.742-16.742-7.496-16.742-16.742-16.742zm11.699 17.123c-0.272 0.193-0.579 0.34-0.845 0.541-1.421 1.077-2.336 2.523-2.973 4.161-0.385 0.99-0.375 0.994-1.386 0.994h-13.191c-0.825 0-0.899 0.017-1.113-0.738-0.404-1.426-1.361-2.51-2.171-3.678-0.292-0.421-0.839-0.667-1.274-0.986-0.145-0.107-0.309-0.187-0.459-0.289-0.249-0.169-0.217-0.392 0.031-0.46 0.402-0.111 0.747-0.421 1.247-0.265 0.241 0.075 0.586-0.104 0.857-0.229 0.409-0.189 0.898-0.192 1.204 0.105 0.096 0.093 0.128 0.299 0.116 0.448-0.034 0.427-0.175 0.855-0.147 1.275 0.057 0.865 0.788 1.468 1.756 1.539 0.655 0.048 1.3-0.407 1.484-1.117 0.065-0.251-0.01-0.544-0.047-0.814-0.04-0.292-0.09-0.576 0.239-0.739 0.248-0.123 0.579 0.027 0.74 0.378 0.093 0.203 0.131 0.441 0.152 0.667 0.076 0.825 0.895 1.249 1.623 0.84 0.378-0.212 0.593-0.535 0.794-0.912 0.483-0.907 0.725-1.859 0.669-2.882-0.008-0.148-0.137-0.29-0.21-0.435-0.118 0.114-0.276 0.209-0.345 0.348-0.086 0.17-0.098 0.377-0.142 0.568-0.071 0.013-0.142 0.025-0.214 0.038-0.151-0.317-0.35-0.62-0.443-0.953-0.171-0.615 0.072-1.228 0.675-1.371 0.755-0.178 0.792-0.734 0.946-1.28 0.082-0.291 0.163-0.591 0.302-0.857 0.237-0.45 0.612-0.485 0.857-0.035 0.227 0.416 0.375 0.9 0.442 1.371 0.059 0.412 0.11 0.664 0.607 0.705 0.231 0.019 0.476 0.261 0.651 0.458 0.285 0.32 0.276 1.283 0.006 1.598-0.091 0.106-0.251 0.153-0.38 0.227-0.057-0.108-0.118-0.214-0.168-0.325-0.02-0.045-0.01-0.102-0.017-0.153-0.033-0.241-0.16-0.402-0.413-0.331-0.241 0.068-0.269 0.258-0.21 0.497 0.178 0.717 0.119 1.463 0.378 2.188 0.235 0.659 0.502 1.199 1.124 1.547 0.73 0.409 1.704-0.095 1.777-0.934 0.02-0.229 0.002-0.483 0.1-0.676 0.106-0.21 0.273-0.461 0.611-0.311 0.32 0.142 0.506 0.437 0.351 0.731-0.397 0.749 0.07 1.21 0.509 1.683 0.456 0.492 1.002 0.325 1.506 0.124 1.056-0.419 1.508-1.638 0.953-2.582-0.16-0.272-0.109-0.427 0.094-0.591 0.307-0.249 0.673-0.326 1.017-0.153 0.441 0.222 0.838 0.439 1.38 0.321 0.265-0.058 0.59 0.13 0.879 0.23 0.103 0.036 0.248 0.137 0.255 0.218 0.009 0.095-0.092 0.231-0.184 0.296z" fill="#fff"/></svg><svg xmlns:xlink="http://www.w3.org/1999/xlink" version="1.1" id="youtube" x="0px" y="86" width="21" height="21" viewBox="-60.149 35 20.711 20.711" enable-background="new -60.149 35 20.711 20.711" xml:space="preserve"><g>	<path fill="#FFFFFF" d="M-51.138,49.506c0,0.164,0.001,0.291,0.007,0.378c0.006,0.089-0.006,0.146-0.037,0.17   c-0.025,0.098-0.097,0.168-0.217,0.216c-0.116,0.045-0.207-0.019-0.269-0.197c-0.012-0.024-0.015-0.084-0.007-0.177   c0.006-0.095,0.007-0.219,0.007-0.372l-0.017-2.278h-0.842l0.02,2.243c0,0.176-0.004,0.323-0.01,0.442   c-0.006,0.119-0.004,0.208,0.01,0.27c0.011,0.099,0.022,0.203,0.036,0.316c0.011,0.112,0.069,0.203,0.175,0.27   c0.098,0.061,0.212,0.093,0.342,0.093c0.133,0,0.261-0.022,0.385-0.066c0.126-0.043,0.24-0.102,0.347-0.177   c0.107-0.076,0.185-0.159,0.233-0.243l-0.016,0.447l0.695,0.019v-3.616h-0.841V49.506z"/>	<path fill="#FFFFFF" d="M-48.256,47.108c-0.202,0-0.434,0.094-0.695,0.284v-1.41h-0.842v4.841l0.696-0.019l0.054-0.302   c0.225,0.19,0.43,0.306,0.608,0.348c0.181,0.042,0.332,0.025,0.457-0.051s0.223-0.199,0.292-0.375   c0.069-0.172,0.105-0.374,0.105-0.598v-1.877c0-0.359-0.128-0.617-0.383-0.768C-48.048,47.133-48.147,47.108-48.256,47.108z    M-48.22,49.982c0,0.073-0.038,0.136-0.114,0.191c-0.077,0.055-0.164,0.083-0.26,0.083c-0.099,0-0.185-0.029-0.263-0.083   c-0.076-0.055-0.112-0.119-0.112-0.191v-2.124c0-0.073,0.037-0.137,0.112-0.196c0.078-0.058,0.163-0.087,0.263-0.087   c0.098,0,0.182,0.029,0.26,0.088c0.076,0.058,0.114,0.124,0.114,0.196V49.982z"/>	<polygon fill="#FFFFFF" points="-52.346,45.982 -55.065,45.982 -55.065,46.604 -54.194,46.604 -54.194,50.859 -53.353,50.859    -53.353,46.622 -52.346,46.622  "/>	<path fill="#FFFFFF" d="M-49.794,35c-5.719,0-10.355,4.636-10.355,10.355c0,5.719,4.636,10.355,10.355,10.355   c5.719,0,10.355-4.636,10.355-10.355C-39.438,39.636-44.075,35-49.794,35z M-48.292,42.542v-2.516h0.786v2.91   c0,0.074,0.027,0.136,0.082,0.193c0.057,0.055,0.129,0.082,0.22,0.082c0.085,0,0.159-0.029,0.219-0.082   c0.062-0.056,0.094-0.119,0.094-0.193v-2.91h0.73v3.733h-0.931l0.016-0.302c-0.085,0.121-0.167,0.217-0.246,0.282   c-0.098,0.061-0.203,0.092-0.321,0.092c-0.139,0-0.256-0.031-0.348-0.092c-0.081-0.053-0.15-0.136-0.211-0.247   c-0.021-0.05-0.038-0.102-0.045-0.151c-0.007-0.051-0.015-0.103-0.028-0.151c-0.011-0.062-0.017-0.144-0.017-0.248V42.542z    M-50.617,40.061c0.165-0.121,0.375-0.183,0.632-0.183c0.225,0,0.412,0.037,0.567,0.11c0.151,0.062,0.277,0.167,0.374,0.321   c0.073,0.111,0.129,0.234,0.165,0.377c0.035,0.152,0.055,0.357,0.055,0.613v0.96c0,0.348-0.02,0.598-0.055,0.752   c-0.015,0.139-0.073,0.295-0.185,0.466c-0.109,0.151-0.228,0.253-0.356,0.302c-0.155,0.073-0.326,0.109-0.523,0.109   c-0.199,0-0.385-0.03-0.547-0.092c-0.154-0.048-0.268-0.138-0.338-0.264c-0.073-0.099-0.135-0.235-0.185-0.412   c-0.036-0.166-0.055-0.414-0.055-0.751c0-0.001,0-0.99,0-0.99c0-0.336,0.032-0.614,0.092-0.831   C-50.899,40.322-50.781,40.159-50.617,40.061z M-53.088,38.543l0.56,1.839l0.557-1.839h0.979l-1.054,2.461v2.866h-0.896v-2.866   l-1.126-2.461H-53.088z M-43.682,50.411c0,0.251-0.053,0.481-0.16,0.69c-0.107,0.212-0.251,0.396-0.435,0.555   c-0.183,0.16-0.395,0.282-0.635,0.374c-0.242,0.09-0.502,0.138-0.782,0.138h-8.21c-0.274,0-0.531-0.046-0.773-0.138   c-0.242-0.092-0.453-0.216-0.635-0.374c-0.182-0.159-0.328-0.343-0.436-0.555c-0.107-0.211-0.159-0.438-0.159-0.69v-4.017   c0-0.238,0.053-0.466,0.16-0.681c0.107-0.217,0.254-0.404,0.436-0.557c0.182-0.155,0.395-0.281,0.635-0.375   c0.242-0.094,0.499-0.141,0.773-0.141h8.21c0.274,0,0.533,0.047,0.777,0.141c0.244,0.094,0.457,0.22,0.64,0.375   c0.185,0.155,0.328,0.342,0.435,0.557c0.107,0.216,0.159,0.443,0.159,0.681V50.411z"/>	<path fill="#FFFFFF" d="M-49.942,43.245c0.097,0,0.185-0.036,0.261-0.11c0.077-0.072,0.113-0.162,0.113-0.265v-1.986   c0-0.11-0.037-0.202-0.113-0.277c-0.076-0.077-0.165-0.115-0.26-0.115c-0.098,0-0.185,0.038-0.26,0.115   c-0.077,0.077-0.115,0.168-0.115,0.277v1.987c0,0.098,0.037,0.185,0.11,0.261C-50.134,43.208-50.043,43.245-49.942,43.245z"/>	<path fill="#FFFFFF" d="M-45.556,49.589v0.09v0.32c0,0.098-0.036,0.173-0.105,0.228c-0.071,0.056-0.154,0.082-0.25,0.082h-0.13   c-0.097,0-0.176-0.026-0.242-0.082c-0.064-0.055-0.098-0.13-0.098-0.228v-0.036v-0.357v-0.477h1.455v-0.503   c0-0.188-0.002-0.37-0.01-0.544c-0.006-0.175-0.02-0.311-0.045-0.406c-0.025-0.166-0.098-0.299-0.225-0.399   c-0.124-0.1-0.27-0.168-0.438-0.206c-0.167-0.038-0.338-0.045-0.513-0.019c-0.173,0.025-0.323,0.082-0.453,0.173   c-0.164,0.11-0.281,0.26-0.356,0.45c-0.073,0.188-0.11,0.451-0.11,0.787v1.126c0,0.474,0.126,0.814,0.377,1.014   c0.23,0.188,0.474,0.284,0.731,0.284c0.025,0,0.05,0,0.076,0c0.287-0.017,0.54-0.14,0.76-0.365   c0.165-0.165,0.247-0.381,0.247-0.649c-0.011-0.087-0.021-0.182-0.041-0.284H-45.556z M-46.362,48.069   c0-0.098,0.037-0.177,0.11-0.243c0.073-0.064,0.161-0.097,0.266-0.097h0.037c0.108,0,0.202,0.031,0.279,0.092   c0.076,0.062,0.115,0.144,0.115,0.248l-0.021,0.447h-0.805L-46.362,48.069z"/></g></svg></svg>
