<svg width="328" height="259" viewBox="0 0 328 259" fill="none" xmlns="http://www.w3.org/2000/svg"> <path d="M316.82 199.95C316.82 201.68 315.42 203.08 313.69 203.08H59.78C58.05 203.08 56.65 201.68 56.65 199.95V3.13C56.65 1.4 58.05 0 59.78 0H313.7C315.43 0 316.83 1.4 316.83 3.13V199.95H316.82Z" fill="url(#paint0_linear)" /> <path d="M306.43 192.34C306.43 193.85 305.14 195.08 303.55 195.08H69.93C68.34 195.08 67.05 193.85 67.05 192.34V20.38C67.05 18.87 68.34 17.64 69.93 17.64H303.55C305.14 17.64 306.43 18.87 306.43 20.38V192.34Z" fill="white" /> <path d="M269.39 10.53C269.39 12.71 267.62 14.48 265.44 14.48C263.25 14.48 261.49 12.71 261.49 10.53C261.49 8.35 263.26 6.58 265.44 6.58C267.62 6.58 269.39 8.34 269.39 10.53Z" fill="#191A18" /> <path d="M283.46 10.53C283.46 12.71 281.69 14.48 279.51 14.48C277.33 14.48 275.56 12.71 275.56 10.53C275.56 8.35 277.32 6.58 279.51 6.58C281.7 6.58 283.46 8.34 283.46 10.53Z" fill="#191A18" /> <path d="M297.54 10.53C297.54 12.71 295.77 14.48 293.59 14.48C291.41 14.48 289.64 12.71 289.64 10.53C289.64 8.35 291.41 6.58 293.59 6.58C295.77 6.58 297.54 8.34 297.54 10.53Z" fill="#191A18" /> <path d="M260.18 227.65C260.18 229.38 258.77 230.78 257.05 230.78H3.13C1.4 230.78 0 229.38 0 227.65V30.83C0 29.1 1.4 27.7 3.13 27.7H257.04C258.77 27.7 260.17 29.1 260.17 30.83V227.65H260.18Z" fill="url(#paint1_linear)" /> <path d="M249.78 220.04C249.78 221.55 248.49 222.78 246.9 222.78H13.27C11.69 222.78 10.39 221.56 10.39 220.04V48.08C10.39 46.57 11.69 45.34 13.27 45.34H246.9C248.49 45.34 249.78 46.56 249.78 48.08V220.04Z" fill="white" /> <path d="M212.74 38.22C212.74 40.4 210.97 42.17 208.79 42.17C206.61 42.17 204.84 40.4 204.84 38.22C204.84 36.04 206.61 34.27 208.79 34.27C210.97 34.27 212.74 36.04 212.74 38.22Z" fill="#191A18" /> <path d="M226.81 38.22C226.81 40.4 225.04 42.17 222.86 42.17C220.68 42.17 218.91 40.4 218.91 38.22C218.91 36.04 220.68 34.27 222.86 34.27C225.04 34.27 226.81 36.04 226.81 38.22Z" fill="#191A18" /> <path d="M240.89 38.22C240.89 40.4 239.12 42.17 236.94 42.17C234.76 42.17 232.99 40.4 232.99 38.22C232.99 36.04 234.76 34.27 236.94 34.27C239.12 34.27 240.89 36.04 240.89 38.22Z" fill="#191A18" /> <path d="M327.22 255.35C327.22 257.08 325.82 258.48 324.09 258.48H70.18C68.45 258.48 67.05 257.08 67.05 255.35V58.53C67.05 56.8 68.45 55.4 70.18 55.4H324.09C325.82 55.4 327.22 56.8 327.22 58.53V255.35Z" fill="url(#paint2_linear)" /> <path d="M316.82 247.73C316.82 249.24 315.53 250.47 313.93 250.47H80.3201C78.7301 250.47 77.4401 249.24 77.4401 247.73V75.77C77.4401 74.26 78.7301 73.03 80.3201 73.03H313.94C315.54 73.03 316.83 74.25 316.83 75.77V247.73H316.82Z" fill="white" /> <path d="M279.78 65.92C279.78 68.1 278.01 69.87 275.83 69.87C273.64 69.87 271.88 68.1 271.88 65.92C271.88 63.74 273.65 61.97 275.83 61.97C278.01 61.97 279.78 63.74 279.78 65.92Z" fill="#191A18" /> <path d="M293.86 65.92C293.86 68.1 292.09 69.87 289.91 69.87C287.73 69.87 285.96 68.1 285.96 65.92C285.96 63.74 287.73 61.97 289.91 61.97C292.09 61.97 293.86 63.74 293.86 65.92Z" fill="#191A18" /> <path d="M307.94 65.92C307.94 68.1 306.17 69.87 303.99 69.87C301.81 69.87 300.04 68.1 300.04 65.92C300.04 63.74 301.81 61.97 303.99 61.97C306.16 61.97 307.94 63.74 307.94 65.92Z" fill="#191A18" /> <path d="M178.66 151.77V134.72C178.66 125.65 186.01 118.29 195.08 118.29H199.19C208.26 118.29 215.62 125.65 215.62 134.72L215.58 151.77H228.43V135.28C228.43 119.92 215.98 107.47 200.62 107.47H193.67C178.31 107.47 165.86 119.92 165.86 135.28V151.77H178.66Z" fill="#706F6F" /> <path d="M178.65 151.77V134.72C178.65 128.18 182.49 122.54 188.02 119.9C180.19 121.15 176.78 127.92 176.78 136.1V151.77H178.65Z" fill="#191A18" /> <path d="M197.28 109.09C212.64 109.09 225.09 121.54 225.09 136.9V151.77H228.42V135.28C228.42 119.92 215.97 107.47 200.61 107.47H193.66C189.81 107.47 186.15 108.25 182.82 109.66C184.64 109.29 186.52 109.09 188.45 109.09H197.28Z" fill="#5C5757" /> <path d="M163.12 151.77C163.8 165.19 142.95 216.04 197.13 216.04C251.31 216.04 230.46 165.19 231.14 151.77H163.12Z" fill="url(#paint3_linear)" /> <path d="M163.12 151.77C163.8 165.19 142.95 216.04 197.13 216.04C251.31 216.04 230.46 165.19 231.14 151.77H163.12Z" fill="url(#paint4_linear)" /> <path d="M203.53 178.73C203.53 175.39 200.66 172.68 197.13 172.68C193.6 172.68 190.73 175.39 190.73 178.73C190.73 180.71 191.74 183.07 193.29 184.18L191 200.8H203.25L200.96 184.18C202.52 183.07 203.53 180.71 203.53 178.73Z" fill="#FAB510" /> <path d="M168.77 201.44C161.59 186.24 169.57 164.48 169.15 156.55C169.15 156.55 220.63 154.38 220.68 153.53H165.26C165.74 162.05 155.34 187.46 168.77 201.44Z" fill="#FFCD00" /> <path d="M231.15 151.77C231.15 151.77 226.57 177.42 225.96 182.26C224.93 190.48 220.54 198.44 213.36 202.83C204.23 208.41 193.86 209.39 183.44 209.7C178.81 209.84 174.47 209.69 170.03 208.68C175.72 213.19 184.33 216.03 197.13 216.03C251.31 216.04 230.46 165.19 231.15 151.77Z" fill="#FAB510" /> <path d="M202.72 179.33C202.72 182.42 200.22 184.92 197.13 184.92C194.04 184.92 191.54 182.41 191.54 179.33C191.54 176.24 194.04 173.74 197.13 173.74C200.22 173.74 202.72 176.25 202.72 179.33Z" fill="#191A18" /> <path d="M202.49 199.73L200.29 182.19C200.29 178.76 198.88 179.33 197.14 179.33C195.4 179.33 193.99 178.77 193.99 182.19L191.79 199.73H202.49Z" fill="#191A18" /> <path d="M202.72 179.33C202.72 177.38 201.72 175.66 200.21 174.66C201.26 175.68 201.91 177.1 201.91 178.68C201.91 180.51 201.03 182.13 199.67 183.15L201.67 199.08H191.85L191.77 199.73H202.48L200.48 183.8C201.85 182.78 202.72 181.16 202.72 179.33Z" fill="#5C5757" /> <defs> <linearGradient id="paint0_linear" x1="186.74" y1="0" x2="186.74" y2="203.08" gradientUnits="userSpaceOnUse"> <stop stop-color="#0E7E82" /> <stop offset="1" stop-color="#0C8381" /> </linearGradient> <linearGradient id="paint1_linear" x1="130.09" y1="27.7" x2="130.09" y2="230.78" gradientUnits="userSpaceOnUse"> <stop stop-color="#0E7E82" /> <stop offset="1" stop-color="#0C8381" /> </linearGradient> <linearGradient id="paint2_linear" x1="197.135" y1="55.4" x2="197.135" y2="258.48" gradientUnits="userSpaceOnUse"> <stop stop-color="#0E7E82" /> <stop offset="1" stop-color="#0C8381" /> </linearGradient> <linearGradient id="paint3_linear" x1="197.13" y1="151.77" x2="197.13" y2="216.04" gradientUnits="userSpaceOnUse"> <stop stop-color="#0E7E82" /> <stop offset="1" stop-color="#0C8381" /> </linearGradient> <linearGradient id="paint4_linear" x1="197.13" y1="151.77" x2="197.13" y2="216.04" gradientUnits="userSpaceOnUse"> <stop stop-color="#FAB510" /> <stop offset="1" stop-color="#FAB510" /> </linearGradient> </defs> </svg>
