<?xml version="1.0" encoding="utf-8"?>
<!-- Generator: Adobe Illustrator 21.0.2, SVG Export Plug-In . SVG Version: 6.00 Build 0)  -->
<svg version="1.1" xmlns="http://www.w3.org/2000/svg" xmlns:xlink="http://www.w3.org/1999/xlink" x="0px" y="0px"
	 viewBox="0 0 379.4 105.2" style="enable-background:new 0 0 379.4 105.2;" xml:space="preserve">
<style type="text/css">
	.st0{fill:#8C0B42;}
	.st1{fill:#FFCA38;}
</style>
<g id="Artwork">
	<g>
		<path class="st0" d="M175.2,26.4l8.3,22.6h-6l-1.1-3.6h-8.3L167,49h-6l8.4-22.6H175.2z M172.2,31.8c-0.3,1.2-0.6,2.3-0.9,3.5
			c-0.5,1.7-1.3,4.4-1.9,6h5.7L172.2,31.8z"/>
		<path class="st0" d="M189.6,34.1c1.1-0.9,2.3-1.7,4.8-1.9v4.4l-1.6,0.3c-2.4,0.4-3.1,0.8-3.1,2.9V49h-4.9V32.3h4.8V34.1z"/>
		<path class="st0" d="M196.1,26.4h4.9v3.8h-4.9V26.4z M196.1,32.3h4.9V49h-4.9V32.3z"/>
		<path class="st0" d="M204,32.3h14.3v3.8l-8.9,9.1h8.9V49H203v-3.7l9-9.2H204V32.3z"/>
		<path class="st0" d="M237.2,40.6c0,4.2-2.4,8.9-9,8.9c-4.7,0-9-2.7-9-8.9c0-5.1,3.2-9.2,9.6-8.8C235.7,32.2,237.2,37.6,237.2,40.6
			z M225,37.4c-0.6,1-0.8,2.1-0.8,3.3c0,2.7,1.3,5,4,5c2.7,0,4-2.1,4-4.8c0-1.9-0.4-3.3-1.4-4.2c-1-1-2.2-1-2.9-0.9
			C226.5,35.8,225.7,36.3,225,37.4z"/>
		<path class="st0" d="M243.8,33.8c0.5-0.5,0.8-0.9,1.7-1.3c0.8-0.3,1.9-0.6,3-0.6c1,0,2.1,0.2,3,0.7c1.8,0.9,2.2,2.4,2.2,5V49h-4.9
			v-9.4c0-1.5,0-2-0.2-2.5c-0.4-0.9-1.2-1.3-2.2-1.3c-2.6,0-2.6,2.1-2.6,4.2v9h-4.9V32.4h5V33.8z"/>
		<path class="st0" d="M256.1,37.1c0.1-1.2,0.3-2.5,1.8-3.7c1.5-1.2,3.5-1.5,5.5-1.5c2,0,7,0.5,7,4.8v9.7c0,1.8,0.1,2,0.5,2.6H266
			v-1.5c-1.2,0.9-2.7,2-5.1,2c-3.8,0-5.5-2.8-5.5-5.1c0-2.7,2.1-4.2,3.5-4.8c1.3-0.6,4.5-1.2,6.6-1.5v-0.9c-0.1-0.8-0.1-2-1.9-2
			c-2.2,0-2.5,1.3-2.6,2H256.1z M262.3,42.1c-0.8,0.3-2.1,0.8-2.1,2.1c0,0.8,0.7,1.7,1.9,1.7c0.6,0,1.2-0.2,1.7-0.5
			c1.6-1,1.7-2.6,1.7-4.3L262.3,42.1z"/>
		<path class="st0" d="M281.3,42.2c0.6,0.6,1.1,1.2,2.2,1.8c1.5,0.8,3,1.1,4.4,1.1c2.2,0,4.2-1.1,4.2-2.6c0-1.8-2.3-2.1-3.9-2.3
			c-1.2-0.2-2.5-0.3-3.7-0.6c-1.4-0.3-6.1-1.3-6.1-6.1c0-5.8,5.2-7.6,9.1-7.6c5.2,0,8,2.5,10,4.3l-4.2,3c-0.7-0.7-1.3-1.3-2.2-1.8
			c-0.8-0.4-2.2-1-3.7-1c-2.2,0-3.4,1.3-3.4,2.4c0,1.7,1.9,2,2.9,2.1c2.4,0.3,5.6,0.9,6.9,1.3c2.6,1,3.9,3,3.9,5.5
			c0,1.6-0.6,3.4-1.8,4.8c-2,2.4-5.3,3-8.5,3c-6.4,0-8.9-2.9-10.3-4.6L281.3,42.2z"/>
		<path class="st0" d="M300,27.5h4.9v5.2h3.2v3h-3.3v7.5c0,1,0,1.9,1.3,1.9l1.8-0.1v3.8c-1.1,0.2-1.7,0.3-2.6,0.3
			c-1.7,0-3.6-0.1-4.6-1.6c-0.7-1-0.7-2.2-0.7-3.8v-8.1h-2.4v-3h2.4V27.5z"/>
		<path class="st0" d="M309.6,37.1c0.1-1.2,0.3-2.5,1.8-3.7c1.5-1.2,3.5-1.5,5.5-1.5c2,0,7,0.5,7,4.8v9.7c0,1.8,0.1,2,0.5,2.6h-4.8
			v-1.5c-1.2,0.9-2.7,2-5.1,2c-3.8,0-5.5-2.8-5.5-5.1c0-2.7,2.1-4.2,3.5-4.8c1.3-0.6,4.5-1.2,6.6-1.5v-0.9c-0.1-0.8-0.1-2-1.9-2
			c-2.2,0-2.5,1.3-2.6,2H309.6z M315.8,42.1c-0.8,0.3-2.1,0.8-2.1,2.1c0,0.8,0.7,1.7,1.9,1.7c0.6,0,1.2-0.2,1.7-0.5
			c1.6-1,1.7-2.6,1.7-4.3L315.8,42.1z"/>
		<path class="st0" d="M327.3,27.5h4.9v5.2h3.2v3h-3.3v7.5c0,1,0,1.9,1.3,1.9l1.8-0.1v3.8c-1.1,0.2-1.7,0.3-2.6,0.3
			c-1.7,0-3.6-0.1-4.6-1.6c-0.7-1-0.7-2.2-0.7-3.8v-8.1h-2.4v-3h2.4V27.5z"/>
		<path class="st0" d="M352.8,44.8c-0.6,0.9-1.2,1.7-2,2.5c-1.4,1.3-3.6,2.4-6.3,2.4c-5,0-8.4-3.2-8.4-8.6c0-4,2-9.2,8.6-9.2
			c1,0,3.9,0.1,6,2.4c2.2,2.3,2.3,5.6,2.4,7.5h-11.9c0,2.1,1.2,4.2,3.8,4.2c2.7,0,3.6-1.8,4.2-2.9L352.8,44.8z M347.9,38.6
			c-0.1-0.7-0.2-1.6-0.9-2.4c-0.6-0.6-1.5-0.9-2.4-0.9c-1.2,0-2,0.6-2.5,1.1c-0.7,0.7-0.8,1.5-1,2.2H347.9z"/>
		<path class="st0" d="M181,56.4V69c0,2.2-0.1,4.4-1.3,6.4c-2.4,3.9-7.5,4.1-8.4,4.1c-1.7,0-3.7-0.4-5.2-1.2
			c-4.4-2.2-4.4-6.2-4.3-9.3V56.4h5.7v14.1c0,1.2,0,2.1,0.4,2.8c0.7,1.2,2.2,1.5,3.6,1.5c3.8,0,3.8-2.6,3.9-4.4v-14H181z"/>
		<path class="st0" d="M188.5,63.8c0.5-0.5,0.8-0.9,1.7-1.3c0.8-0.3,1.9-0.6,3-0.6c1,0,2.1,0.2,3,0.7c1.8,0.9,2.2,2.4,2.2,5V79h-4.9
			v-9.4c0-1.5,0-2-0.2-2.5c-0.4-0.9-1.2-1.3-2.2-1.3c-2.6,0-2.6,2.1-2.6,4.2v9h-4.9V62.4h5V63.8z"/>
		<path class="st0" d="M201,56.4h4.9v3.8H201V56.4z M201,62.3h4.9V79H201V62.3z"/>
		<path class="st0" d="M207.3,62.3h5.2c2,7.4,2.4,9,2.9,12.2c0.7-3.7,0.8-4.1,1.8-8.1l1-4.1h5.1L217.8,79h-5.2L207.3,62.3z"/>
		<path class="st0" d="M239.9,74.8c-0.6,0.9-1.2,1.7-2,2.5c-1.4,1.3-3.6,2.4-6.3,2.4c-5,0-8.4-3.2-8.4-8.6c0-4,2-9.2,8.6-9.2
			c1,0,3.9,0.1,6,2.4c2.2,2.3,2.3,5.6,2.4,7.5h-11.9c0,2.1,1.2,4.2,3.8,4.2c2.7,0,3.6-1.8,4.2-2.9L239.9,74.8z M235,68.6
			c-0.1-0.7-0.2-1.6-0.9-2.4c-0.6-0.6-1.5-0.9-2.4-0.9c-1.2,0-2,0.6-2.5,1.1c-0.7,0.7-0.8,1.5-1,2.2H235z"/>
		<path class="st0" d="M246.9,64.1c1.1-0.9,2.3-1.7,4.8-1.9v4.4l-1.6,0.3c-2.4,0.4-3.1,0.8-3.1,2.9V79h-4.9V62.3h4.8V64.1z"/>
		<path class="st0" d="M254.7,73.4c1.3,1.3,3,2.3,4.9,2.3c1.2,0,3-0.4,3-1.6c0-0.6-0.4-0.8-0.6-1c-0.7-0.4-1.9-0.5-2.8-0.6
			c-0.7-0.1-1.5-0.3-2.2-0.5c-1-0.3-2-0.7-2.8-1.4c-0.7-0.7-1.2-1.9-1.2-3.1c0-2.8,2.4-5.6,7-5.6c3.9,0,6.3,1.7,7.5,2.5l-3,2.8
			c-1.6-1.2-3-1.7-4.2-1.7c-1.9,0-2.4,0.8-2.4,1.2c0,1,1.1,1.2,2.7,1.4c3.4,0.6,7.3,1.5,7.3,5.5c0,3.9-4,5.9-7.9,5.9
			c-4.6,0-7-2.2-8.1-3.2L254.7,73.4z"/>
		<path class="st0" d="M269.1,56.4h4.9v3.8h-4.9V56.4z M269.1,62.3h4.9V79h-4.9V62.3z"/>
		<path class="st0" d="M278.2,57.5h4.9v5.2h3.2v3H283v7.5c0,1,0,1.9,1.3,1.9l1.8-0.1v3.8c-1.1,0.2-1.7,0.3-2.6,0.3
			c-1.7,0-3.6-0.1-4.6-1.6c-0.7-1-0.7-2.2-0.7-3.8v-8.1h-2.4v-3h2.4V57.5z"/>
		<path class="st0" d="M303.5,62.3l-5.9,18c-0.4,1.1-0.7,2.1-1.6,3c-1.2,1.2-2.3,1.3-3.6,1.3h-3.6v-3.9h1.7c0.8,0,2,0,2-1.2
			c0-0.4-0.1-0.8-0.2-1.2l-5-16.1h5.2l2.8,12l2.8-12H303.5z"/>
	</g>
	<g>
		<path class="st0" d="M150,78.6c0,0-0.9-1-2.3-2.5c-1.8-1.9-1.7-3.9-1.7-3.9V26.4l-17.3,0V63c-0.2,3.5-3.6,4.3-5.5,4.3
			c-2.7-0.1-4.2-1.6-4.2-4.2l0-36.7l-16.9,0c0,0-7,0-11.9,0c-9.2,0-17.9,1.4-20.9,9.1l-1.7-6.8c-0.4-1.4-1.9-2.3-3.3-2.3l-30.1,0
			c-0.4,0-0.6,0.1-0.4,0.4c0,0,0.8,0.8,2.3,2.5c2.1,2.4,1.3,5.5,1.3,5.5L26.4,79h16.1l2.3-9.7h15.5l2.4,9.7c0,0,19.8,0,21.1,0
			c8.7,0,15.7-0.9,19.2-6.3c2.6,4.9,8.2,7.3,18.1,6.4c3.4-0.3,6.8-1.9,8.3-4.5l0.7,2.1c0.6,1.3,1.8,2.2,3.4,2.2h16.2
			C150.1,79,150.3,78.9,150,78.6z M47.2,59.7l5.3-21.6l5.4,21.6H47.2z"/>
		<path class="st0" d="M150.5,30.5c-1.1,0-1.9-0.9-1.9-1.9c0-1.1,0.9-1.9,1.9-1.9c1.1,0,1.9,0.9,1.9,1.9
			C152.5,29.6,151.6,30.5,150.5,30.5z M150.5,26.4c-1.2,0-2.2,0.9-2.2,2.2c0,1.3,1.1,2.2,2.2,2.2c1.2,0,2.2-1,2.2-2.2
			C152.8,27.4,151.8,26.4,150.5,26.4z M149.7,27.3l0.8,0c0.3,0,0.5,0,0.8,0.2c0.2,0.1,0.3,0.3,0.3,0.6c0,0.5-0.3,0.6-0.5,0.7l0.5,1
			h-0.5l-0.5-0.9h-0.4v0.9h-0.5V27.3z M150.2,27.7v0.8h0.2c0.2,0,0.2,0,0.3,0c0.1,0,0.4,0,0.4-0.4c0-0.1,0-0.2-0.2-0.3
			c-0.1,0-0.2-0.1-0.5-0.1H150.2z"/>
		<g>
			<path class="st1" d="M69,37.6c-0.1,0.5-0.2,1.1-0.3,1.6l-3-2.8c-0.3-0.3,0.1-0.7,0.4-0.5L69,37.6z"/>
			<path class="st1" d="M68.6,41.7c0,0.6,0,1.5,0.1,2.2l-5.8-3.8c-0.3-0.2-0.1-0.7,0.3-0.6L68.6,41.7z"/>
			<path class="st1" d="M70,48.3c-0.4-0.8-0.8-1.8-1-2.8l-8-1.8c-0.4-0.1-0.5,0.4-0.2,0.6L70,48.3z"/>
			<path class="st1" d="M70.2,48.7c2.7,4.9,8.4,6.9,13.4,8.7c4.9,1.7,9.1,3.1,9.1,6.9c0,1-0.4,1.9-1.2,2.6C90,68.3,87.1,69,84,68.7
				c-1.8-0.2-3.6-1.1-3.6-1.1l-6.5,8c-0.3,0.3-0.8,0-0.6-0.4l4.4-8.9c0.1-0.1-0.1-0.2-0.2-0.1l-7.9,6.9c-0.3,0.3-0.7-0.1-0.5-0.5
				l6.1-8.1c0.1-0.1,0-0.2-0.1-0.1l-9.1,5.5c-0.3,0.2-0.7-0.3-0.4-0.5l7.6-7.1c0.1-0.1,0-0.2-0.1-0.2l-10.1,4.1
				c-0.4,0.1-0.6-0.4-0.3-0.6l8.9-5.8c0.1-0.1,0-0.2-0.1-0.2L61,62.1c-0.4,0.1-0.5-0.4-0.2-0.6l9.9-4.3c0.1,0,0.1-0.2,0-0.2l-11,0.7
				c-0.4,0-0.5-0.5-0.1-0.6l10.6-2.7c0.1,0,0.1-0.2,0-0.2l-11-1c-0.4,0-0.4-0.6,0-0.6l11-1c0.1,0,0.1-0.1,0-0.2l-10.6-2.7
				c-0.4-0.1-0.3-0.6,0.1-0.6L70.2,48.7z"/>
			<path class="st1" d="M104.1,70.9c0,0,0.4-0.9,0.6-1.5l2.4,3.2c0.2,0.3-0.2,0.7-0.5,0.5L104.1,70.9z"/>
			<path class="st1" d="M105.2,66.9c0,0,0.2-1.5,0.2-2.3l5.2,4.8c0.3,0.3-0.1,0.7-0.4,0.5L105.2,66.9z"/>
			<path class="st1" d="M105.5,63.1c0,0,0-1.8-0.2-2.8l8.1,5.3c0.3,0.2,0.1,0.7-0.3,0.6L105.5,63.1z"/>
			<path class="st1" d="M105.2,59.8L105.2,59.8c0,0-0.4-4.5-5.7-8.2c-2.7-1.9-6.1-3.2-9-4.3c-2.3-0.9-4.4-1.7-5.9-2.6
				c-1.7-1.1-2.5-2.3-2.5-3.7c0-1,0.3-1.9,1-2.6c1.2-1.2,3.3-1.7,6.2-1.7c3.1,0,6.4,1.4,6.4,1.4l6.6-8.2c0.3-0.3,0.8,0,0.6,0.4
				l-4.5,9c0,0.1,0.1,0.2,0.1,0.1l8-6.9c0.3-0.3,0.7,0.1,0.5,0.5l-6.2,8.2c-0.1,0.1,0,0.2,0.1,0.1l9.2-5.6c0.3-0.2,0.7,0.3,0.4,0.5
				l-7.6,7.1c-0.1,0.1,0,0.2,0.1,0.1l10.1-4.1c0.4-0.1,0.6,0.4,0.3,0.6l-8.9,5.8c-0.1,0.1,0,0.2,0.1,0.2l10.7-2.4
				c0.4-0.1,0.5,0.4,0.2,0.6l-9.9,4.3c-0.1,0-0.1,0.2,0,0.2l11-0.7c0.4,0,0.5,0.5,0.1,0.6l-10.6,2.7c-0.1,0-0.1,0.2,0,0.2l11,1
				c0.4,0,0.4,0.6,0,0.6l-11,1c-0.1,0-0.1,0.1,0,0.2l10.6,2.7c0.4,0.1,0.3,0.6-0.1,0.6l-11-0.7c-0.1,0-0.1,0.1,0,0.2l9.9,4.3
				c0.4,0.2,0.2,0.7-0.2,0.6L105.2,59.8z"/>
		</g>
	</g>
</g>
<g id="Guides">
</g>
</svg>
