<svg xmlns="http://www.w3.org/2000/svg" width="129.204" height="70" viewBox="0 0 129.204 70"><defs><style>.a{fill:#7c7e80;}.b{fill:#737373;}.c{fill:#d65f43;}.d{fill:#80b45d;}.e{fill:#449dd7;}.f{fill:#eeb644;}.g{fill:#666;}.h{fill:none;stroke:#666;stroke-miterlimit:10;}.i{fill:#f15a22;}</style></defs><g transform="translate(0 0.004)"><path class="a" d="M236.6,209.869v-2.4h.325l.033.162a.325.325,0,0,1,.195-.162.975.975,0,0,1,.325-.065c.487,0,.747.292.747.91a.949.949,0,0,1-.227.715.812.812,0,0,1-.585.26c-.227,0-.357-.033-.422-.13v.715Zm.715-.812a.465.465,0,0,0,.39-.195.825.825,0,0,0,.13-.52c0-.422-.162-.65-.487-.65a.611.611,0,0,0-.26.065.393.393,0,0,0-.162.162v.975a.442.442,0,0,0,.39.146Z" transform="translate(-161.736 -141.872)"/><path class="a" d="M243.135,209.335a.809.809,0,0,1-.617-.227.949.949,0,0,1-.227-.715,1.011,1.011,0,0,1,.26-.715.854.854,0,0,1,1.462.715,1.01,1.01,0,0,1-.26.715,1.027,1.027,0,0,1-.617.227Zm0-.292a.539.539,0,0,0,.39-.162.783.783,0,0,0,.13-.487.728.728,0,0,0-.13-.487.439.439,0,0,0-.39-.162.539.539,0,0,0-.39.162.783.783,0,0,0-.13.487.728.728,0,0,0,.13.487A.539.539,0,0,0,243.135,209.042Z" transform="translate(-165.624 -141.906)"/><path class="a" d="M248.687,209.337l-.487-1.787h.325l.325,1.2.455-1.2h.13l.455,1.2.325-1.2h.292l-.487,1.787h-.227l-.455-1.2-.455,1.2Z" transform="translate(-169.676 -141.973)"/><path class="a" d="M256.775,209.332a.793.793,0,0,1-.65-.227,1.1,1.1,0,0,1-.227-.715,1.01,1.01,0,0,1,.26-.715.783.783,0,0,1,.585-.227.9.9,0,0,1,.292.033.975.975,0,0,1,.26.13.513.513,0,0,1,.162.26,1.212,1.212,0,0,1,.065.39v.227h-1.267a.618.618,0,0,0,.163.422.562.562,0,0,0,.422.162.7.7,0,0,0,.585-.227v.292a.913.913,0,0,1-.65.195Zm-.552-1.072h.942v-.033c0-.325-.162-.487-.455-.487a.4.4,0,0,0-.325.162.53.53,0,0,0-.162.374Z" transform="translate(-174.927 -141.903)"/><path class="a" d="M262,209.2V207.41h.292l.032.26a.325.325,0,0,1,.13-.227.37.37,0,0,1,.26-.1.351.351,0,0,1,.195.033v.292a.472.472,0,0,0-.227-.065.461.461,0,0,0-.195.065.325.325,0,0,0-.13.162v1.3H262Z" transform="translate(-179.087 -141.833)"/><path class="a" d="M266.176,209.332a.793.793,0,0,1-.65-.227,1.1,1.1,0,0,1-.227-.715,1.01,1.01,0,0,1,.26-.715.783.783,0,0,1,.585-.227.9.9,0,0,1,.292.033.975.975,0,0,1,.26.13.513.513,0,0,1,.162.26,1.212,1.212,0,0,1,.065.39v.227h-1.267a.617.617,0,0,0,.162.422.562.562,0,0,0,.422.162.7.7,0,0,0,.585-.227v.292A.975.975,0,0,1,266.176,209.332Zm-.552-1.072h.942v-.033c0-.325-.162-.487-.455-.487a.4.4,0,0,0-.325.162.53.53,0,0,0-.162.374Z" transform="translate(-181.353 -141.903)"/><path class="a" d="M271.738,208.052a.712.712,0,0,1-.552-.227,1.066,1.066,0,0,1-.195-.682.949.949,0,0,1,.227-.715.76.76,0,0,1,.585-.26c.227,0,.357.033.422.13v-.747h.325v2.437h-.325l-.032-.162a.325.325,0,0,1-.195.162A.611.611,0,0,1,271.738,208.052Zm.52-.487v-.975a.442.442,0,0,0-.39-.162.374.374,0,0,0-.357.195.825.825,0,0,0-.13.52c0,.422.162.65.487.65a.611.611,0,0,0,.26-.065.568.568,0,0,0,.13-.162Z" transform="translate(-185.24 -140.623)"/><path class="a" d="M280.58,208.052a.507.507,0,0,1-.455-.195l-.065.13h-.26V205.55h.325v.812a.325.325,0,0,1,.195-.162.975.975,0,0,1,.325-.065c.487,0,.747.292.747.91a.949.949,0,0,1-.227.715A.851.851,0,0,1,280.58,208.052Zm-.422-1.43v.975a.442.442,0,0,0,.39.162.464.464,0,0,0,.39-.195.825.825,0,0,0,.13-.52c0-.422-.162-.65-.487-.65a.61.61,0,0,0-.26.065.384.384,0,0,0-.163.162Z" transform="translate(-191.266 -140.623)"/><path class="a" d="M285.625,210.121a.4.4,0,0,1-.292-.1v-.276a.354.354,0,0,0,.292.13c.162,0,.325-.13.422-.39L285.3,207.7h.357l.52,1.365.39-1.365h.325l-.52,1.657a1.235,1.235,0,0,1-.292.585A.591.591,0,0,1,285.625,210.121Z" transform="translate(-195.026 -142.074)"/><path class="b" d="M329.311,202.609v4.354h-.747v-3.412h0l-1.365,3.412h-.487l-1.4-3.412h0v3.412H324.6v-4.354h1.072l1.267,3.217h.033l1.332-3.217Zm.617.357a.325.325,0,0,1,.13-.292.578.578,0,0,1,.325-.13.416.416,0,0,1,.325.13.4.4,0,0,1,.13.292.325.325,0,0,1-.13.292.578.578,0,0,1-.325.13.416.416,0,0,1-.325-.13A.4.4,0,0,1,329.929,202.966Zm.812.877v3.119h-.747v-3.119Zm2.242,2.6a1.675,1.675,0,0,0,.357-.065,3.53,3.53,0,0,0,.357-.195v.682a1.99,1.99,0,0,1-.39.162,2.509,2.509,0,0,1-.487.065,1.543,1.543,0,0,1-1.137-.422,1.469,1.469,0,0,1-.422-1.1,1.806,1.806,0,0,1,.455-1.235,1.592,1.592,0,0,1,1.235-.487,1.9,1.9,0,0,1,.422.065.754.754,0,0,1,.325.13v.715a.773.773,0,0,0-.357-.195,1.381,1.381,0,0,0-.357-.065.955.955,0,0,0-.715.292,1.16,1.16,0,0,0-.26.747,1.1,1.1,0,0,0,.26.747,1.549,1.549,0,0,0,.715.162Zm2.827-2.632h.162c.065,0,.1.033.13.033v.747a.247.247,0,0,0-.162-.065.649.649,0,0,0-.26-.033.526.526,0,0,0-.455.227,1.1,1.1,0,0,0-.195.715v1.592h-.747v-3.119h.747v.487h0a.887.887,0,0,1,.292-.39.559.559,0,0,1,.487-.179Zm.292,1.657a1.68,1.68,0,0,1,.422-1.235,1.625,1.625,0,0,1,1.2-.455,1.449,1.449,0,0,1,1.137.422,1.712,1.712,0,0,1,.422,1.17,1.6,1.6,0,0,1-.422,1.2,1.624,1.624,0,0,1-1.2.455,1.573,1.573,0,0,1-1.17-.422A1.709,1.709,0,0,1,336.1,205.468Zm.78-.032a1.03,1.03,0,0,0,.227.747.854.854,0,0,0,.65.26.783.783,0,0,0,.617-.26,1.248,1.248,0,0,0,.195-.78,1.03,1.03,0,0,0-.227-.747.864.864,0,0,0-1.235,0,1.173,1.173,0,0,0-.227.8Zm3.542-.747a.37.37,0,0,0,.1.26,1.877,1.877,0,0,0,.455.227,2.024,2.024,0,0,1,.617.39.764.764,0,0,1,.163.52.877.877,0,0,1-.325.715,1.511,1.511,0,0,1-.91.26,2,2,0,0,1-.422-.032,1.1,1.1,0,0,1-.39-.13v-.715a2.685,2.685,0,0,0,.422.227,1.121,1.121,0,0,0,.422.1.871.871,0,0,0,.357-.065.273.273,0,0,0,.13-.227.3.3,0,0,0-.13-.26,1.453,1.453,0,0,0-.455-.227,1.322,1.322,0,0,1-.585-.39.929.929,0,0,1-.162-.552.777.777,0,0,1,.325-.682,1.3,1.3,0,0,1,.877-.26,1.456,1.456,0,0,1,.357.032,2.02,2.02,0,0,1,.325.1v.715a1.017,1.017,0,0,0-.325-.162,1.622,1.622,0,0,0-.39-.065.484.484,0,0,0-.325.1C340.456,204.526,340.423,204.591,340.423,204.688Zm1.657.78a1.68,1.68,0,0,1,.422-1.235,1.625,1.625,0,0,1,1.2-.455,1.449,1.449,0,0,1,1.137.422,1.712,1.712,0,0,1,.422,1.17,1.6,1.6,0,0,1-.422,1.2,1.625,1.625,0,0,1-1.2.455,1.413,1.413,0,0,1-1.56-1.56Zm.78-.032a1.03,1.03,0,0,0,.227.747.854.854,0,0,0,.65.26.783.783,0,0,0,.617-.26,1.248,1.248,0,0,0,.195-.78,1.03,1.03,0,0,0-.227-.747.864.864,0,0,0-1.235,0,1.173,1.173,0,0,0-.227.8Zm4.874-.975h-1.1v2.534h-.747v-2.518h-.52v-.617h.52v-.422a1.079,1.079,0,0,1,.325-.812,1.215,1.215,0,0,1,.812-.325h.227c.065,0,.13.032.195.032v.65c-.032,0-.065-.033-.13-.065a.413.413,0,0,0-.195-.032.445.445,0,0,0-.357.13.552.552,0,0,0-.13.422v.39h1.1v-.715l.747-.227v.942h.747v.617h-.747v1.462a.737.737,0,0,0,.1.422.5.5,0,0,0,.325.13.354.354,0,0,0,.162-.033c.065-.033.1-.033.162-.065v.617a.38.38,0,0,1-.227.065,1.1,1.1,0,0,1-.325.032.832.832,0,0,1-.682-.26,1.03,1.03,0,0,1-.227-.747v-1.592Z" transform="translate(-222.559 -138.429)"/><rect class="c" width="3.444" height="3.444" transform="translate(93.466 62.75)"/><rect class="d" width="3.444" height="3.444" transform="translate(97.167 62.75)"/><rect class="e" width="3.444" height="3.444" transform="translate(93.466 66.552)"/><rect class="f" width="3.444" height="3.444" transform="translate(97.167 66.552)"/><g transform="translate(69.48 3.116)"><path class="g" d="M219.76,65.232V9.6h5.446V65.232Z" transform="translate(-219.76 -9.6)"/></g><line class="h" x2="127.904" transform="translate(0 59.192)"/><path class="i" d="M90.3,65.225l9.228-.032,20.015-30.184V65.193h7.668V9.6Z" transform="translate(-62.01 -6.484)"/><path class="g" d="M1.6,166.091V160.6H5.466l-.357,1.1H2.932v1.04h1.56v1.072H2.932v1.17H5.109l.357,1.1Z" transform="translate(-1.08 -109.881)"/><path class="g" d="M16.127,166.091v-4.354H14.6V160.6h4.516l-.357,1.137h-1.3v4.354Z" transform="translate(-9.856 -109.881)"/><path class="g" d="M30.2,166.091V160.6h1.332v5.491Z" transform="translate(-20.388 -109.881)"/><path class="g" d="M37.6,166.091V160.6h1.332v5.491Zm3.379,0v-2.242H39.647L39,162.712h2.014V160.6h1.332v5.491Z" transform="translate(-25.383 -109.881)"/><path class="g" d="M53.8,166.091l2.242-5.491h.942c.877,2.112,1.592,3.931,2.209,5.491H57.8l-.39-.975H56.172l-.357-.942-.715,1.917Zm2.5-3.152-.455,1.235h1.235l-.455-1.235-.162-.455Z" transform="translate(-36.32 -109.881)"/><path class="g" d="M72.2,166.078v-5.491h1.787a3.477,3.477,0,0,1,2.242.65,2.609,2.609,0,0,1,.747,2.079,3.311,3.311,0,0,1-.227,1.3,1.911,1.911,0,0,1-.65.845,3.164,3.164,0,0,1-.942.455,4.421,4.421,0,0,1-1.17.162Zm1.332-1.1h.422a1.748,1.748,0,0,0,1.235-.357,2.31,2.31,0,0,0,0-2.469,1.605,1.605,0,0,0-1.235-.39h-.422Z" transform="translate(-49.37 -109.868)"/><path class="g" d="M258.865,1.687a5.264,5.264,0,0,1,.715.032c.1,0,.162.032.26.032.162.032.292.032.422.065s.195.032.292.065l.39.1.292.1c.13.032.227.1.357.13a1.153,1.153,0,0,1,.292.13c.13.065.227.1.357.162a1.916,1.916,0,0,0,.26.13c.1.032.26.162.39.227.065.032.1.065.162.1a7.013,7.013,0,0,1,1.072.877l.033.032a5.644,5.644,0,0,1,.422.487c.032.032.032.065.065.1l.357.455c.033.032.065.1.1.13.1.162.195.292.292.455.033.065.065.1.065.162.065.162.162.292.227.455.033.065.065.1.065.162a2.86,2.86,0,0,1,.162.487c.033.065.033.13.065.195a2.436,2.436,0,0,1,.13.52c0,.065.033.1.033.162a7.343,7.343,0,0,1-1.332,5.881.812.812,0,1,0,1.3.975,9.013,9.013,0,0,0,1.82-5.426,2.459,2.459,0,0,0-.032-.487,6.134,6.134,0,0,1,4.126,5.816,5.291,5.291,0,0,1-.1,1.007c0,.032-.032.065-.032.1a6.031,6.031,0,0,1-1.17,2.632v.032a6.079,6.079,0,0,1-3.054,2.112.841.841,0,0,0-.552,1.04.816.816,0,0,0,1.04.552,7.924,7.924,0,0,0,3.347-2.047,6.745,6.745,0,0,1,2.177,4.874,6.84,6.84,0,0,1-.065.812c0,.1-.032.162-.032.26a3.4,3.4,0,0,1-.13.552c-.032.1-.032.195-.065.26-.065.227-.162.455-.227.65a3.169,3.169,0,0,0-.162.357c-.065.1-.1.195-.163.292a4.149,4.149,0,0,0-.227.39c-.032.065-.1.13-.162.227a4.752,4.752,0,0,1-.52.617,1.5,1.5,0,0,1-.227.227,2.922,2.922,0,0,1-.325.292c-.13.1-.227.195-.357.292s-.195.162-.292.227c-.195.13-.39.227-.585.357a6.5,6.5,0,0,1-3.022.747.812.812,0,1,0,0,1.625,8.558,8.558,0,0,0,2.859-.52,5.524,5.524,0,0,1,.422,2.177,5.751,5.751,0,0,1-10.722,2.892.816.816,0,0,0-1.43,0,.806.806,0,0,0,0,.812,7.424,7.424,0,0,0,5.556,3.639,6.173,6.173,0,0,1-12.314-.357V36.452l3.574-4.971,3.022,1.332v.13a2.5,2.5,0,1,0,.65-1.625l-2.989-1.3a1.456,1.456,0,0,0-.65-.13,1.647,1.647,0,0,0-1.332.682l-2.242,3.119V27.225h6.726a2.411,2.411,0,0,0,2.729,1.592,2.476,2.476,0,0,0,2.047-2.437,2.5,2.5,0,0,0-2.047-2.437,2.447,2.447,0,0,0-2.729,1.592h-6.726V22.189h1.787a2.411,2.411,0,0,0,2.729,1.592,2.469,2.469,0,1,0-2.729-3.282h-1.787V17.283h6.726a1.667,1.667,0,0,0,1.625-1.332l.585-2.892a2.473,2.473,0,0,0,1.722-2.632,2.443,2.443,0,1,0-3.379,2.534l-.52,2.664h-6.726V9.062a7.275,7.275,0,0,1,7.311-7.376Zm.812,31.159a.812.812,0,1,1,.812.812.825.825,0,0,1-.812-.812Zm0-6.563a.812.812,0,1,1,.812.812.825.825,0,0,1-.812-.812Zm-4.906-4.906a.806.806,0,1,1,.236.576A.812.812,0,0,1,254.771,21.376Zm4.094-10.657a.806.806,0,1,1,.236.576A.812.812,0,0,1,258.865,10.719Zm-9.033,19.592V41.424a7.8,7.8,0,0,0,2.892,6.043l2.339,1.3A7.8,7.8,0,0,0,265.4,41.781l.585-.1a.12.12,0,0,0,.1-.032,5.2,5.2,0,0,0,.682-.162.461.461,0,0,1,.195-.065c.162-.065.292-.1.455-.162.1-.032.162-.065.26-.1l.39-.195c.1-.032.162-.1.26-.13s.227-.13.357-.195a1.376,1.376,0,0,0,.227-.162l.325-.227c.065-.065.162-.13.227-.195s.195-.162.292-.26l.227-.227c.1-.1.162-.195.26-.292s.13-.162.195-.227a2.291,2.291,0,0,0,.227-.292,1.141,1.141,0,0,0,.162-.26c.065-.1.13-.227.195-.325s.1-.162.162-.26a1.741,1.741,0,0,0,.162-.357,1.934,1.934,0,0,1,.13-.26,1.834,1.834,0,0,0,.13-.39l.1-.292c.032-.13.065-.26.1-.422.032-.1.032-.195.065-.26a2.508,2.508,0,0,0,.065-.487c0-.065.032-.162.032-.227a5.257,5.257,0,0,0,.033-.715,7.417,7.417,0,0,0-.585-2.892c.065-.032.1-.065.163-.1l.39-.292a8.925,8.925,0,0,0,.845-.715l.1-.1a5.661,5.661,0,0,0,.422-.487c.032-.065.1-.1.13-.162.13-.162.26-.357.39-.52.033-.065.065-.1.1-.162a7.275,7.275,0,0,0,.845-1.755,1.863,1.863,0,0,0,.13-.455c.032-.13.065-.26.1-.422l.1-.585c.032-.1.032-.227.065-.325a.9.9,0,0,0,.033-.292V25.21a3.939,3.939,0,0,0,.032-.617,8.048,8.048,0,0,0-2.794-6.141,8.165,8.165,0,0,0,.845-1.885c0-.032.033-.065.033-.1a4.409,4.409,0,0,0,.195-.942.293.293,0,0,1,.033-.162c.032-.325.065-.65.065-.975a7.8,7.8,0,0,0-6.043-7.6c-.033-.1-.065-.162-.1-.26a.761.761,0,0,1-.065-.26,4.339,4.339,0,0,0-.227-.585c-.032-.065-.032-.13-.065-.195a9,9,0,0,0-1.3-2.144.448.448,0,0,1-.1-.13,6.24,6.24,0,0,0-.455-.487l-.162-.162a5.654,5.654,0,0,0-.455-.39c-.065-.065-.13-.1-.195-.162-.162-.13-.325-.227-.487-.357-.065-.032-.13-.1-.195-.13a7.766,7.766,0,0,0-.682-.422c-.033-.032-.1-.032-.13-.065l-.585-.292a1.153,1.153,0,0,1-.292-.13,2.547,2.547,0,0,0-.455-.162c-.1-.032-.227-.065-.325-.1-.162-.032-.325-.1-.455-.13a1.153,1.153,0,0,0-.325-.065c-.162-.032-.357-.065-.552-.1-.1,0-.195-.032-.292-.032A7.343,7.343,0,0,0,258.833,0a8.8,8.8,0,0,0-3.444.682l-1.982,1.137A8.942,8.942,0,0,0,249.8,9V30.312Zm0-9.682v8.025" transform="translate(-171.231 0)"/><path class="g" d="M242.3,164.463l3.217-7.863h1.365c1.235,3.022,2.307,5.653,3.152,7.863h-2.014l-.552-1.4h-1.787l-.52-1.365-1.04,2.762Zm3.542-4.549-.682,1.755h1.787l-.682-1.755-.227-.682Z" transform="translate(-165.733 -107.197)"/><path class="g" d="M271.334,164.316a3.778,3.778,0,0,1-2.827-1.04,4.35,4.35,0,0,1-1.007-3.087,4.086,4.086,0,0,1,1.072-3.022,4.29,4.29,0,0,1,5-.487V158.6a2.5,2.5,0,0,0-2.014-.877,1.92,1.92,0,0,0-1.56.617,2.671,2.671,0,0,0-.552,1.787,2.924,2.924,0,0,0,.552,1.852,1.842,1.842,0,0,0,1.56.65,2.547,2.547,0,0,0,2.014-.78V163.6a2.68,2.68,0,0,1-.91.52A4.4,4.4,0,0,1,271.334,164.316Z" transform="translate(-182.938 -106.859)"/><path class="g" d="M287.7,164.463l3.217-7.863h1.365c1.235,3.022,2.307,5.653,3.152,7.863h-1.982l-.552-1.4h-1.787l-.52-1.365-1.04,2.762Zm3.574-4.549-.682,1.755h1.787l-.682-1.755-.227-.682Z" transform="translate(-196.786 -107.197)"/><path class="g" d="M314,164.463V156.6h2.534a4.9,4.9,0,0,1,3.184.91,3.678,3.678,0,0,1,1.072,2.989,4.6,4.6,0,0,1-.325,1.852,3,3,0,0,1-.91,1.235,3.9,3.9,0,0,1-1.332.65,6.641,6.641,0,0,1-1.69.227Zm1.949-1.592h.617a2.4,2.4,0,0,0,1.787-.52,2.613,2.613,0,0,0,.487-1.787,1.968,1.968,0,0,0-2.307-2.339h-.617v4.646Z" transform="translate(-214.755 -107.197)"/><path class="g" d="M338.6,164.463V156.6h5.524l-.487,1.592h-3.087v1.462h2.242v1.527h-2.242v1.69h3.087l.487,1.592Z" transform="translate(-232.01 -107.197)"/><path class="g" d="M358.9,164.463V156.6h1.722l2.4,3.379,2.242-3.379h1.722v7.863h-1.949v-4.874l-2.014,2.989h-.1l-2.079-2.989v4.874Z" transform="translate(-245.714 -107.197)"/><path class="g" d="M388.632,164.463v-3.184L386,156.6h2.177l1.527,2.957,1.56-2.957h1.95l-2.632,4.679v3.184Z" transform="translate(-264.009 -107.197)"/></g></svg>