<svg xmlns="http://www.w3.org/2000/svg" viewBox="0 0 269.44 85.5"><defs><style>.cls-1{fill:#ea5c75;}.cls-2{fill:#9c9b9b;}</style></defs><title>Asset 1</title><g id="Layer_2" data-name="Layer 2"><g id="Layer_1-2" data-name="Layer 1"><path class="cls-1" d="M72.73,28.35l-46.6-27v0A9.68,9.68,0,0,0,19,.26h0C15.45,1,4.76,7,4.76,7h0A8.9,8.9,0,0,0,0,14.81H0L0,68.38H0A9.67,9.67,0,0,0,2.6,75.05h0c2.35,2.73,12.88,9,12.88,9h0a8.89,8.89,0,0,0,9.21.21h0L71,57.63l.16-.09h0a9.68,9.68,0,0,0,4.31-5.39h0c1.23-3.39,1.59-15.66,1.59-15.66h0A8.89,8.89,0,0,0,72.73,28.35ZM11.29,24V76.39a8.81,8.81,0,0,0,.47,2.83c-5.23-3.4-6.89-4.9-7.33-5.35h0a7.22,7.22,0,0,1-2.32-5.38L2.2,14.95v0a1.31,1.31,0,0,1,0-.15A6.89,6.89,0,0,1,9,8a6.66,6.66,0,0,1,3.18.77l.21.11L55.61,34l2.17,1.27h0a.55.55,0,0,1,.26.5.67.67,0,0,1-.25.48h0l0,0-1.86,1.07-.48.27-6.18,3.55L15.61,21.56a2.79,2.79,0,0,0-1.29-.42,3.11,3.11,0,0,0-1.47.27A2.86,2.86,0,0,0,11.29,24ZM73.57,51.14h0a7.25,7.25,0,0,1-3.85,4.81L65,58.58l-.3.17h0l-36,20.78h0l-5,2.89-.14.08A6.76,6.76,0,0,1,14.38,80a6.64,6.64,0,0,1-.85-3.14,1,1,0,0,1,0-.23V23.89h0a.53.53,0,0,1,.3-.47.55.55,0,0,1,.49,0h.05l1.36.79h0l1,.61h0l6.07,3.5V67.91A2.7,2.7,0,0,0,24,69.72a2.75,2.75,0,0,0,2.84.19L72.55,43.69h0l.11-.06a14.06,14.06,0,0,0,2-1.49C74.24,48.35,73.74,50.54,73.57,51.14ZM74,39.48a6.53,6.53,0,0,1-2.32,2.25,1.16,1.16,0,0,1-.2.12l-1.06.62L25.67,68.14h0a.44.44,0,0,1-.5,0,.51.51,0,0,1-.22-.41v0h0a.05.05,0,0,1,0,0v-10L58.88,38.22l0,0a2.77,2.77,0,0,0,.91-.9A3,3,0,0,0,60.17,36a2.74,2.74,0,0,0-1.28-2.5L13.83,7.3h0a9.1,9.1,0,0,0-3-1.14c5.53-2.87,7.66-3.59,8.26-3.75h0a7.23,7.23,0,0,1,6.1.8l3.58,2L71.52,30.14l.11.06.13.08A6.76,6.76,0,0,1,74,39.48Z"/><path class="cls-2" d="M104.1,26.62h7.23v-4h-7.38q-7.34,0-7.34,7.87V58.64h4V38.13h7.71v-4h-7.71V30.7C100.57,28,101.75,26.62,104.1,26.62Z"/><path class="cls-2" d="M218.41,36.83V58.78h4.18V37q0-4.3,3.72-4.31h5.39V28.55h-5.56Q218.41,28.55,218.41,36.83Z"/><path class="cls-2" d="M163.5,20.94h-1.13a3,3,0,0,0-3.12,2.54h0v27q0,8.28,7.72,8.28h3V54.63h-2.74c-2.48,0-3.71-2.18-3.71-5V32.69h8V28.48h-8Z"/><path class="cls-2" d="M134.34,58.64A13.69,13.69,0,0,0,148,44.95V28.56h-4.25V44.95a9.44,9.44,0,0,1-18.88,0V28.56h-4.25V44.95A13.69,13.69,0,0,0,134.34,58.64Z"/><path class="cls-2" d="M195,58.45a13.61,13.61,0,0,0,13.61-13.61V28.56h-4.22V44.85a9.39,9.39,0,0,1-18.77,0V28.56h-4.22V44.85A13.61,13.61,0,0,0,195,58.45Z"/><path class="cls-2" d="M255.76,58.61a13.68,13.68,0,0,0,13.68-13.68V28.56h-4.25V44.93a9.43,9.43,0,0,1-18.87,0V28.56h-4.24V44.93A13.68,13.68,0,0,0,255.76,58.61Z"/></g></g></svg>