<svg xmlns="http://www.w3.org/2000/svg" width="150.376" height="31.328" viewBox="0 0 150.376 31.328"><defs><style>.a{fill:#e65100;}.a,.b,.c{fill-rule:evenodd;}.c{fill:#fb8c00;}</style></defs><g transform="translate(-10 -10)"><g transform="translate(10 10)"><path class="a" d="M310.427,42.012a3.04,3.04,0,1,1-3.04,3.04,3.042,3.042,0,0,1,3.04-3.04Z" transform="translate(-179.128 -24.49)"/><path class="b" d="M130.127,30.271a6.97,6.97,0,0,1-.423,2.524,5.415,5.415,0,0,1-1.124,1.824,4.722,4.722,0,0,1-1.62,1.109,4.964,4.964,0,0,1-1.912.379h-3.035v9.222H120V24.667h4.874a6.77,6.77,0,0,1,1.839.263,4.37,4.37,0,0,1,1.693.919,4.878,4.878,0,0,1,1.24,1.736,6.6,6.6,0,0,1,.482,2.685Zm-2.014.029a5.315,5.315,0,0,0-.263-1.766,3.176,3.176,0,0,0-.73-1.211,2.9,2.9,0,0,0-1.065-.686,3.752,3.752,0,0,0-1.3-.219h-2.743v7.967h2.772a3.158,3.158,0,0,0,2.349-1.007,4.269,4.269,0,0,0,.978-3.079Z" transform="translate(-69.898 -14.497)"/><path class="b" d="M161.887,45.329V35.524h-7.909v9.806h-2.043V24.667h2.043v9.047h7.909V24.667h2.042V45.329Z" transform="translate(-88.505 -14.497)"/><path class="b" d="M193.212,36.837v8.492h-1.984V36.837l-5.136-12.17h2.218l3.911,10.068,4-10.068h2.189Z" transform="translate(-108.403 -14.497)"/><path class="b" d="M228.121,39.363a6.784,6.784,0,0,1-.408,2.437,5.329,5.329,0,0,1-1.124,1.809,4.842,4.842,0,0,1-1.679,1.138,5.342,5.342,0,0,1-2.042.394,6.345,6.345,0,0,1-2.9-.671,5.939,5.939,0,0,1-2.144-1.78l1.255-1.43a4.6,4.6,0,0,0,1.692,1.488,4.486,4.486,0,0,0,2.072.525,3.12,3.12,0,0,0,2.349-.992,3.936,3.936,0,0,0,.948-2.831,3.844,3.844,0,0,0-.292-1.547,4.122,4.122,0,0,0-.788-1.2,6.185,6.185,0,0,0-1.124-.934,13.484,13.484,0,0,0-1.328-.759A12.984,12.984,0,0,1,221,34.1a6.442,6.442,0,0,1-1.327-1.182,5.406,5.406,0,0,1-.919-1.591,6,6,0,0,1-.351-2.145,6.532,6.532,0,0,1,.438-2.5,5.128,5.128,0,0,1,1.182-1.78,4.875,4.875,0,0,1,1.678-1.065,5.524,5.524,0,0,1,1.955-.35,6.349,6.349,0,0,1,2.525.482,4.546,4.546,0,0,1,1.882,1.5l-1.255,1.43a3.426,3.426,0,0,0-1.372-1.211,4.048,4.048,0,0,0-1.721-.365,3.5,3.5,0,0,0-1.211.219,2.9,2.9,0,0,0-1.065.686,3.509,3.509,0,0,0-.759,1.2,4.631,4.631,0,0,0-.291,1.722,3.992,3.992,0,0,0,.262,1.518,3.828,3.828,0,0,0,.715,1.138,5.131,5.131,0,0,0,1.05.876,14.057,14.057,0,0,0,1.24.7,16.169,16.169,0,0,1,1.62.934,7.606,7.606,0,0,1,1.445,1.226,5.4,5.4,0,0,1,1.021,1.634,5.793,5.793,0,0,1,.379,2.189Z" transform="translate(-126.876 -13.813)"/><path class="b" d="M251.142,45.329h2.043V24.667h-2.043Z" transform="translate(-146.247 -14.497)"/><path class="b" d="M278.825,34.285a19.442,19.442,0,0,1-.467,4.421,11.558,11.558,0,0,1-1.342,3.429,6.66,6.66,0,0,1-2.13,2.218,5.266,5.266,0,0,1-2.86.788,5.338,5.338,0,0,1-2.875-.788,6.742,6.742,0,0,1-2.16-2.218,11.333,11.333,0,0,1-1.357-3.429,19.445,19.445,0,0,1-.467-4.421,19.922,19.922,0,0,1,.452-4.392,11.111,11.111,0,0,1,1.328-3.414,6.643,6.643,0,0,1,2.145-2.2,5.444,5.444,0,0,1,2.933-.788,5.266,5.266,0,0,1,2.86.788,6.7,6.7,0,0,1,2.13,2.2,11.359,11.359,0,0,1,1.342,3.414,19.3,19.3,0,0,1,.467,4.392Zm-2.131,0a19.9,19.9,0,0,0-.292-3.5,10.413,10.413,0,0,0-.89-2.831,5.575,5.575,0,0,0-1.474-1.9,3.134,3.134,0,0,0-2.014-.7,3.275,3.275,0,0,0-2.086.7,5.34,5.34,0,0,0-1.474,1.9,10.764,10.764,0,0,0-.876,2.831,21.151,21.151,0,0,0,0,7,11.231,11.231,0,0,0,.876,2.86,5.286,5.286,0,0,0,1.474,1.926,3.275,3.275,0,0,0,2.086.7,3.175,3.175,0,0,0,2.043-.7,5.368,5.368,0,0,0,1.459-1.926,11.228,11.228,0,0,0,.875-2.86,19.9,19.9,0,0,0,.292-3.5Z" transform="translate(-154.474 -13.813)"/><path class="b" d="M343.743,38.092a14.253,14.253,0,0,1-.306,3.021,7.278,7.278,0,0,1-.992,2.466,4.81,4.81,0,0,1-1.824,1.649,5.969,5.969,0,0,1-2.8.6,5.876,5.876,0,0,1-2.787-.6,4.841,4.841,0,0,1-1.81-1.649,7.075,7.075,0,0,1-.977-2.466,14.918,14.918,0,0,1-.292-3.021V24.667H334V37.829a15.643,15.643,0,0,0,.16,2.247,6.573,6.573,0,0,0,.584,1.97,3.61,3.61,0,0,0,1.167,1.386,3.821,3.821,0,0,0,3.867,0,3.564,3.564,0,0,0,1.182-1.386,6.581,6.581,0,0,0,.584-1.955,15.63,15.63,0,0,0,.16-2.262V24.667h2.043Z" transform="translate(-193.367 -14.497)"/><path class="c" d="M51.305,0,63.916,12.611V25.222L45,6.305Z" transform="translate(-26.084)"/><path class="a" d="M64.045,30V42.611L57.74,48.916l-12.518-.093Z" transform="translate(-26.212 -17.588)"/><path class="c" d="M40.222,57.611,27.7,57.518,15,45H27.611Z" transform="translate(-8.695 -26.283)"/><path class="a" d="M18.916,44.871,6.4,44.778,0,51.177l6.305,6.305Z" transform="translate(0 -26.154)"/></g></g></svg>
