<svg xmlns="http://www.w3.org/2000/svg" width="234.837" height="42.514" viewBox="0 0 234.837 42.514"><defs><style>.a{fill:#232020;}.b{fill:#217ac0;}.c{fill:#217bc0;}</style></defs><path class="a" d="M23.821,36.4a9.629,9.629,0,0,0-6.242-2.227A7.714,7.714,0,0,0,9.65,41.831c0,4.96,3.1,8.908,8.1,8.908a8.828,8.828,0,0,0,6.141-2.294l5.264,6.883c-2.531,2.733-8.064,4.083-11.573,4.083C6.613,59.41,0,51.548,0,43.012,0,32.552,7.288,25.5,17.579,25.5a18.082,18.082,0,0,1,11.269,3.914Z" transform="translate(0 -16.896)"/><path class="a" d="M114.521,36.4a9.629,9.629,0,0,0-6.242-2.227,7.714,7.714,0,0,0-7.929,7.659c0,4.96,3.1,8.908,8.1,8.908a8.828,8.828,0,0,0,6.141-2.294l5.264,6.883c-2.531,2.733-8.03,4.083-11.573,4.083-10.966,0-17.579-7.862-17.579-16.4,0-10.46,7.288-17.512,17.579-17.512a18.082,18.082,0,0,1,11.269,3.914Z" transform="translate(-60.097 -16.896)"/><path class="a" d="M180.1,18.051l2.058-8.03h3.037V3.712L194.845,0V10.021h5.5v8.03h-5.5V29.186c0,3.172,2.429,4.015,5.129,4.015a9.365,9.365,0,0,0,2.531-.371l-2.8,9.515a10.108,10.108,0,0,1-1.485.135c-8.536,0-13.058-4.083-13.058-12.552V18.051Z" transform="translate(-119.333)"/><g transform="translate(115.529 7.153)"><path class="a" d="M351.173,32.9a4.562,4.562,0,0,1,.506,1.485,8.246,8.246,0,0,1-1.552.472,9.366,9.366,0,0,1-1.721.135,6.633,6.633,0,0,1-2.531-.472,5.024,5.024,0,0,1-1.89-1.316,6.034,6.034,0,0,1-1.181-2.092,8.833,8.833,0,0,1-.4-2.767,9.052,9.052,0,0,1,.4-2.8,5.9,5.9,0,0,1,1.181-2.126,5.1,5.1,0,0,1,1.89-1.35,6.583,6.583,0,0,1,2.5-.472,8.825,8.825,0,0,1,1.755.135,9.262,9.262,0,0,1,1.316.337,2.888,2.888,0,0,1-.169.776c-.067.236-.169.472-.27.742-.169-.067-.371-.1-.54-.169-.169-.034-.337-.1-.54-.135a3.737,3.737,0,0,0-.641-.067,5.981,5.981,0,0,0-.81-.034,3.717,3.717,0,0,0-3.07,1.35,5.811,5.811,0,0,0-1.08,3.846,7.406,7.406,0,0,0,.3,2.227,4.066,4.066,0,0,0,.877,1.552,3.42,3.42,0,0,0,1.35.911,4.913,4.913,0,0,0,1.755.3,5.831,5.831,0,0,0,1.383-.135A4.359,4.359,0,0,0,351.173,32.9Z" transform="translate(-342.4 -21.465)"/><path class="a" d="M378.319,42.45a4.716,4.716,0,0,1-1.889-.371,3.654,3.654,0,0,1-1.35-1.012,4.121,4.121,0,0,1-.81-1.518,6.788,6.788,0,0,1-.27-1.923,7.157,7.157,0,0,1,.27-1.923,3.872,3.872,0,0,1,.81-1.518,3.654,3.654,0,0,1,1.35-1.012,5,5,0,0,1,3.779,0,4.06,4.06,0,0,1,1.35,1.012,4.121,4.121,0,0,1,.81,1.518,6.788,6.788,0,0,1,.27,1.923,7.157,7.157,0,0,1-.27,1.923,3.872,3.872,0,0,1-.81,1.518,3.654,3.654,0,0,1-1.35,1.012A4.716,4.716,0,0,1,378.319,42.45Zm0-1.451a2.064,2.064,0,0,0,1.856-.911,4.482,4.482,0,0,0,.607-2.5,4.406,4.406,0,0,0-.607-2.5,2.041,2.041,0,0,0-1.856-.877,2.017,2.017,0,0,0-1.822.877,4.63,4.63,0,0,0-.574,2.5,4.63,4.63,0,0,0,.574,2.5A1.906,1.906,0,0,0,378.319,41Z" transform="translate(-363.338 -28.886)"/><path class="a" d="M406.334,21.3c.135-.034.27-.034.439-.067.169,0,.3-.034.439-.034a2.076,2.076,0,0,1,.439.034,1.709,1.709,0,0,1,.439.067V31.727a2.632,2.632,0,0,0,.1.81,1.066,1.066,0,0,0,.236.439.8.8,0,0,0,.371.2,1.782,1.782,0,0,0,.439.034,1.513,1.513,0,0,0,.371-.034.847.847,0,0,0,.337-.067,5.752,5.752,0,0,1,.169,1.383,1.634,1.634,0,0,1-.607.1,4.752,4.752,0,0,1-.675.034,3.119,3.119,0,0,1-.978-.135,3.033,3.033,0,0,1-.81-.4,1.887,1.887,0,0,1-.54-.776,3.269,3.269,0,0,1-.2-1.215V21.3h.034Z" transform="translate(-384.74 -21.2)"/><path class="a" d="M422.234,21.3c.135-.034.27-.034.439-.067.169,0,.3-.034.439-.034a2.076,2.076,0,0,1,.439.034,1.709,1.709,0,0,1,.439.067V31.727a2.633,2.633,0,0,0,.1.81,1.067,1.067,0,0,0,.236.439.8.8,0,0,0,.371.2,1.783,1.783,0,0,0,.439.034,1.513,1.513,0,0,0,.371-.034.847.847,0,0,0,.337-.067,5.752,5.752,0,0,1,.169,1.383,1.634,1.634,0,0,1-.607.1,4.752,4.752,0,0,1-.675.034,3.119,3.119,0,0,1-.978-.135,3.033,3.033,0,0,1-.81-.4,1.887,1.887,0,0,1-.54-.776,3.269,3.269,0,0,1-.2-1.215V21.3h.034Z" transform="translate(-395.275 -21.2)"/><path class="a" d="M438.523,38.1a3.054,3.054,0,0,0,.776,2.227,3.118,3.118,0,0,0,2.193.709,6.594,6.594,0,0,0,2.429-.439,2.6,2.6,0,0,1,.236.675,3.062,3.062,0,0,1,.1.776,5.4,5.4,0,0,1-1.316.371,11.128,11.128,0,0,1-1.586.135,5.925,5.925,0,0,1-2.159-.337,3.934,3.934,0,0,1-1.485-.978,3.748,3.748,0,0,1-.844-1.518,6.788,6.788,0,0,1-.27-1.923,7.156,7.156,0,0,1,.27-1.923,4.013,4.013,0,0,1,.81-1.552,4.15,4.15,0,0,1,1.35-1.046,4.259,4.259,0,0,1,1.923-.371,3.866,3.866,0,0,1,1.687.337,3.508,3.508,0,0,1,1.215.877,3.754,3.754,0,0,1,.742,1.35,5.587,5.587,0,0,1,.236,1.721,3.089,3.089,0,0,1-.034.54c0,.2-.034.337-.034.472h-6.242v-.1Zm4.589-1.316a3.12,3.12,0,0,0-.135-.978,3.034,3.034,0,0,0-.4-.81,1.776,1.776,0,0,0-.675-.54,2.2,2.2,0,0,0-.979-.2,2.159,2.159,0,0,0-1.687.675,3.086,3.086,0,0,0-.709,1.856Z" transform="translate(-404.816 -28.952)"/><path class="a" d="M471.17,40.9a3.545,3.545,0,0,1,2.328.675,2.289,2.289,0,0,1,.709,1.788,2.407,2.407,0,0,1-.371,1.316,3.012,3.012,0,0,1-1.046,1.012,5.2,5.2,0,0,1-1.586.641,9.2,9.2,0,0,1-1.991.236A5.745,5.745,0,0,1,466.378,46a1.954,1.954,0,0,1-.978-1.822,2.177,2.177,0,0,1,.4-1.316,3.007,3.007,0,0,1,1.012-.945,2.457,2.457,0,0,1-.607-.574,1.487,1.487,0,0,1-.236-.877,2.077,2.077,0,0,1,.3-1.147,3.3,3.3,0,0,1,.81-.877,2.926,2.926,0,0,1-.945-1.08,3.124,3.124,0,0,1-.371-1.485,3.213,3.213,0,0,1,.236-1.282,2.832,2.832,0,0,1,.742-1.046,3.154,3.154,0,0,1,1.181-.709,4.813,4.813,0,0,1,1.62-.236,4.156,4.156,0,0,1,1.485.236,4.341,4.341,0,0,1,1.113.607,2.939,2.939,0,0,1,.978-.472,4.2,4.2,0,0,1,1.35-.2,5.057,5.057,0,0,1,.067.742,1.644,1.644,0,0,1-.034.4c-.034.135-.034.3-.067.439h-1.62a2.435,2.435,0,0,1,.3.675,3.037,3.037,0,0,1,.1.844,3.439,3.439,0,0,1-.27,1.35,2.551,2.551,0,0,1-.776,1.012,3.32,3.32,0,0,1-1.181.641,5.259,5.259,0,0,1-1.485.236,5.466,5.466,0,0,1-1.35-.169,1.958,1.958,0,0,0-.506.439.947.947,0,0,0-.236.641.79.79,0,0,0,.236.574,1.7,1.7,0,0,0,1.046.27Zm-2.429,1.417a1.534,1.534,0,0,0-1.215.439,1.592,1.592,0,0,0-.4,1.08,1.2,1.2,0,0,0,.169.641,1.122,1.122,0,0,0,.472.4,2.181,2.181,0,0,0,.709.2,7.124,7.124,0,0,0,.877.067,4.6,4.6,0,0,0,2.261-.472,1.366,1.366,0,0,0,.81-1.215,1.026,1.026,0,0,0-.337-.844,1.927,1.927,0,0,0-1.248-.3Zm.844-4.488a1.791,1.791,0,0,0,1.451-.54,2.081,2.081,0,0,0,.472-1.383,2.174,2.174,0,0,0-.472-1.417,1.791,1.791,0,0,0-1.451-.54,1.837,1.837,0,0,0-1.451.54,2.174,2.174,0,0,0-.472,1.417,2.081,2.081,0,0,0,.472,1.383A1.907,1.907,0,0,0,469.584,37.83Z" transform="translate(-423.899 -28.754)"/><path class="a" d="M497.023,38.1a3.054,3.054,0,0,0,.776,2.227,3.118,3.118,0,0,0,2.193.709,6.593,6.593,0,0,0,2.429-.439,2.6,2.6,0,0,1,.236.675,3.062,3.062,0,0,1,.1.776,5.4,5.4,0,0,1-1.316.371,11.128,11.128,0,0,1-1.586.135,5.925,5.925,0,0,1-2.159-.337,3.934,3.934,0,0,1-1.485-.978,3.748,3.748,0,0,1-.844-1.518,6.788,6.788,0,0,1-.27-1.923,7.156,7.156,0,0,1,.27-1.923,4.013,4.013,0,0,1,.81-1.552,4.15,4.15,0,0,1,1.35-1.046,4.259,4.259,0,0,1,1.923-.371,3.866,3.866,0,0,1,1.687.337,3.509,3.509,0,0,1,1.215.877,3.754,3.754,0,0,1,.742,1.35,5.586,5.586,0,0,1,.236,1.721,3.092,3.092,0,0,1-.034.54c0,.2-.034.337-.034.472h-6.242v-.1Zm4.589-1.316a3.12,3.12,0,0,0-.135-.978,3.034,3.034,0,0,0-.4-.81,1.776,1.776,0,0,0-.675-.54,2.2,2.2,0,0,0-.979-.2,2.159,2.159,0,0,0-1.687.675,3.086,3.086,0,0,0-.709,1.856Z" transform="translate(-443.578 -28.952)"/><path class="a" d="M539.8,21.9c.4-.034.911-.1,1.485-.135s1.147-.067,1.687-.067a6.841,6.841,0,0,1,5.095,1.721,6.875,6.875,0,0,1,1.687,4.994c0,2.261-.574,3.948-1.721,5.027A7.258,7.258,0,0,1,542.9,35.1c-.574,0-1.113-.034-1.687-.067a13.672,13.672,0,0,1-1.417-.169Zm1.822,11.438c.169.034.371.034.607.067a5.718,5.718,0,0,0,.776.034,6.827,6.827,0,0,0,1.923-.236,4.121,4.121,0,0,0,1.518-.81,3.956,3.956,0,0,0,.978-1.552,7.355,7.355,0,0,0,.337-2.463,6.457,6.457,0,0,0-.337-2.294,3.825,3.825,0,0,0-.978-1.552,3.482,3.482,0,0,0-1.485-.877,6.788,6.788,0,0,0-1.923-.27H542.3a4.211,4.211,0,0,0-.709.067v9.886Z" transform="translate(-473.195 -21.531)"/><path class="a" d="M576.234,33.1c.135-.034.27-.034.439-.067.169,0,.3-.034.439-.034a2.075,2.075,0,0,1,.439.034,1.71,1.71,0,0,1,.439.067v5.061a5.908,5.908,0,0,0,.169,1.451,1.978,1.978,0,0,0,.472.877,1.577,1.577,0,0,0,.81.439,4.959,4.959,0,0,0,1.08.135,5.49,5.49,0,0,0,1.586-.2V33.1c.135-.034.27-.034.439-.067.169,0,.3-.034.439-.034a2.076,2.076,0,0,1,.439.034,1.709,1.709,0,0,1,.439.067v8.975a13.405,13.405,0,0,1-3.34.506,8.575,8.575,0,0,1-1.653-.169,3.219,3.219,0,0,1-1.383-.607,3.017,3.017,0,0,1-.945-1.316,5.948,5.948,0,0,1-.337-2.227V33.1Z" transform="translate(-497.314 -29.019)"/><path class="a" d="M607.167,21.3c.135-.034.27-.034.439-.067.169,0,.3-.034.439-.034a2.075,2.075,0,0,1,.439.034,1.71,1.71,0,0,1,.439.067V26.4a2.512,2.512,0,0,1,1.012-.945,3.246,3.246,0,0,1,1.653-.4,4.342,4.342,0,0,1,1.518.27,3.043,3.043,0,0,1,1.215.844,3.506,3.506,0,0,1,.776,1.451,6.344,6.344,0,0,1,.27,2.058,4.92,4.92,0,0,1-1.35,3.711,5.224,5.224,0,0,1-3.88,1.35,11.878,11.878,0,0,1-3.037-.506V21.3Zm1.788,11.742a3.644,3.644,0,0,0,.709.169,5.718,5.718,0,0,0,.776.034,3.872,3.872,0,0,0,1.248-.2,2.358,2.358,0,0,0,.978-.641,3.107,3.107,0,0,0,.675-1.08,4.292,4.292,0,0,0,.236-1.552,4.1,4.1,0,0,0-.54-2.328,1.889,1.889,0,0,0-1.721-.844,2.268,2.268,0,0,0-.81.135,2.394,2.394,0,0,0-.742.439,2.011,2.011,0,0,0-.54.81,3.269,3.269,0,0,0-.2,1.215v3.846Z" transform="translate(-517.788 -21.2)"/><path class="a" d="M638.734,21.3c.135-.034.27-.034.439-.067.169,0,.3-.034.439-.034a2.075,2.075,0,0,1,.439.034,1.709,1.709,0,0,1,.439.067V31.727a2.632,2.632,0,0,0,.1.81,1.067,1.067,0,0,0,.236.439.8.8,0,0,0,.371.2,1.783,1.783,0,0,0,.439.034,1.512,1.512,0,0,0,.371-.034.847.847,0,0,0,.337-.067,5.752,5.752,0,0,1,.169,1.383,1.635,1.635,0,0,1-.607.1,4.752,4.752,0,0,1-.675.034,3.12,3.12,0,0,1-.979-.135,3.033,3.033,0,0,1-.81-.4,1.886,1.886,0,0,1-.54-.776,3.269,3.269,0,0,1-.2-1.215V21.3h.034Z" transform="translate(-538.726 -21.2)"/><path class="a" d="M653.948,27.031H652.8c-.034-.1-.034-.2-.068-.337,0-.135-.034-.236-.034-.371a1.384,1.384,0,0,1,.034-.371,1,1,0,0,1,.068-.337h2.935v9.245c-.135.034-.27.034-.439.067-.169,0-.3.034-.439.034a2.075,2.075,0,0,1-.439-.034,1.71,1.71,0,0,1-.439-.067V27.031Zm-.371-3.442a2.078,2.078,0,0,1-.034-.472V22.24c0-.169.034-.3.034-.439.169-.034.337-.034.506-.067.169,0,.337-.034.472-.034a2.391,2.391,0,0,1,.472.034,1.991,1.991,0,0,1,.472.067,1.782,1.782,0,0,1,.034.439v.877c0,.169-.034.337-.034.472-.135.034-.3.034-.472.067-.169,0-.337.034-.472.034a2.39,2.39,0,0,1-.472-.034A3.507,3.507,0,0,0,653.577,23.589Z" transform="translate(-548.002 -21.531)"/><path class="a" d="M670.2,32.9c.135-.034.27-.034.371-.067.135,0,.27-.034.371-.034a1.265,1.265,0,0,1,.371.034,1.74,1.74,0,0,1,.371.067c.034.169.068.439.1.742s.067.574.067.776a3.711,3.711,0,0,1,.472-.607,4.933,4.933,0,0,1,.641-.54,2.8,2.8,0,0,1,.844-.4,3.18,3.18,0,0,1,1.012-.169,2.932,2.932,0,0,1,2.362.911,4.153,4.153,0,0,1,.742,2.7v5.871c-.135.034-.27.034-.439.067-.169,0-.3.034-.439.034a2.075,2.075,0,0,1-.439-.034,1.709,1.709,0,0,1-.439-.067v-5.4a3.494,3.494,0,0,0-.4-1.889,1.383,1.383,0,0,0-1.248-.607,2.928,2.928,0,0,0-.945.169,2.228,2.228,0,0,0-.81.574,2.468,2.468,0,0,0-.54.978,4.559,4.559,0,0,0-.2,1.451v4.69c-.135.034-.27.034-.439.067-.169,0-.3.034-.439.034a2.075,2.075,0,0,1-.439-.034,1.71,1.71,0,0,1-.439-.067V32.9Z" transform="translate(-559.597 -28.82)"/></g><path class="b" d="M296.046,45.031h0A1.051,1.051,0,0,1,295,43.985V4.846A1.051,1.051,0,0,1,296.046,3.8h0a1.051,1.051,0,0,1,1.046,1.046V43.952A1.059,1.059,0,0,1,296.046,45.031Z" transform="translate(-195.464 -2.518)"/><g transform="translate(115.563 30.805)"><path class="a" d="M347.494,97.711a3.044,3.044,0,0,1,.27.844,3.787,3.787,0,0,1-.877.27,4.46,4.46,0,0,1-.978.067,3.658,3.658,0,0,1-1.417-.27,2.7,2.7,0,0,1-1.08-.742,3.381,3.381,0,0,1-.675-1.181,4.542,4.542,0,0,1-.236-1.552,4.742,4.742,0,0,1,.236-1.586,3.539,3.539,0,0,1,.675-1.215,3.163,3.163,0,0,1,1.08-.776,3.658,3.658,0,0,1,1.417-.27,8.977,8.977,0,0,1,1.012.067c.27.067.54.135.742.2a.934.934,0,0,1-.1.439,2.065,2.065,0,0,1-.169.4l-.3-.1a.985.985,0,0,0-.3-.067,1.265,1.265,0,0,0-.371-.034h-.439a2.065,2.065,0,0,0-1.721.742,3.36,3.36,0,0,0-.607,2.159,4.469,4.469,0,0,0,.169,1.248,2.437,2.437,0,0,0,.472.877,1.827,1.827,0,0,0,.742.506,3.135,3.135,0,0,0,.978.169,5.539,5.539,0,0,0,.776-.067A1.166,1.166,0,0,0,347.494,97.711Z" transform="translate(-342.5 -91.3)"/><path class="a" d="M362.929,103.166a2.68,2.68,0,0,1-1.08-.2,2.219,2.219,0,0,1-.776-.574,2.384,2.384,0,0,1-.439-.877,3.642,3.642,0,0,1-.135-1.08,3.791,3.791,0,0,1,.135-1.08,2.679,2.679,0,0,1,.439-.877,2.219,2.219,0,0,1,.776-.574,2.98,2.98,0,0,1,2.159,0,2.219,2.219,0,0,1,.776.574,2.384,2.384,0,0,1,.439.877,3.643,3.643,0,0,1,.135,1.08,3.792,3.792,0,0,1-.135,1.08,2.679,2.679,0,0,1-.439.877,2.219,2.219,0,0,1-.776.574A2.8,2.8,0,0,1,362.929,103.166Zm0-.81a1.181,1.181,0,0,0,1.046-.506,3.145,3.145,0,0,0,0-2.834,1.334,1.334,0,0,0-2.092,0,3.145,3.145,0,0,0,0,2.834A1.181,1.181,0,0,0,362.929,102.356Z" transform="translate(-354.427 -95.541)"/><path class="a" d="M378.8,97.9c.068,0,.135-.034.2-.034h.4c.067,0,.135.034.2.034.034.1.034.236.067.4a1.936,1.936,0,0,1,.034.4,1.212,1.212,0,0,1,.236-.337,3.04,3.04,0,0,1,.337-.3,1.046,1.046,0,0,1,.439-.2,1.4,1.4,0,0,1,.54-.067,1.57,1.57,0,0,1,.945.236,1.6,1.6,0,0,1,.506.709,2.05,2.05,0,0,1,.236-.337,3.044,3.044,0,0,1,.337-.3,1.14,1.14,0,0,1,.4-.2,1.4,1.4,0,0,1,.54-.067,1.587,1.587,0,0,1,1.316.506,2.4,2.4,0,0,1,.4,1.518v3.307c-.067,0-.169.034-.27.034h-.506c-.1,0-.169-.034-.236-.034v-3.037a2.123,2.123,0,0,0-.2-1.046.736.736,0,0,0-.709-.337,1.1,1.1,0,0,0-.844.371,1.689,1.689,0,0,0-.3,1.113v2.935c-.067,0-.169.034-.236.034h-.472c-.1,0-.169-.034-.236-.034v-3.1a1.979,1.979,0,0,0-.2-1.012.661.661,0,0,0-.641-.337,1.078,1.078,0,0,0-.472.1,1.79,1.79,0,0,0-.4.337,1.818,1.818,0,0,0-.27.574,2.875,2.875,0,0,0-.1.776v2.666c-.067,0-.169.034-.236.034H379.1c-.1,0-.169-.034-.27-.034V97.9Z" transform="translate(-366.552 -95.607)"/><path class="a" d="M404.367,97.9c.067,0,.135-.034.2-.034h.4c.068,0,.135.034.2.034a.336.336,0,0,0,.034.135c0,.067.034.135.034.236,0,.067.034.169.034.236v.135a1.852,1.852,0,0,1,.236-.3,1.321,1.321,0,0,1,.337-.27c.135-.067.27-.135.439-.2a2.623,2.623,0,0,1,.54-.067,2.349,2.349,0,0,1,.844.169,1.9,1.9,0,0,1,1.113,1.282,3.912,3.912,0,0,1,.169,1.147,2.784,2.784,0,0,1-.742,2.092,2.7,2.7,0,0,1-2.058.742,2.391,2.391,0,0,1-.472-.034c-.169-.034-.3-.034-.4-.067v2.4c-.067,0-.169.034-.27.034h-.472c-.1,0-.169-.034-.236-.034V97.9Zm.978,4.353.4.1a2.4,2.4,0,0,0,.54.034,2.175,2.175,0,0,0,.675-.1,1.413,1.413,0,0,0,.54-.371,1.769,1.769,0,0,0,.337-.607,2.285,2.285,0,0,0,.135-.877,2.325,2.325,0,0,0-.3-1.282,1.114,1.114,0,0,0-.978-.472,1.078,1.078,0,0,0-.472.1,1.213,1.213,0,0,0-.4.27,1.144,1.144,0,0,0-.3.472,2.029,2.029,0,0,0-.1.675v2.058Z" transform="translate(-383.448 -95.607)"/><path class="a" d="M422.034,98.034c.067,0,.169-.034.27-.034h.506c.1,0,.169.034.27.034V100.9a2.634,2.634,0,0,0,.1.81,1.789,1.789,0,0,0,.27.506,1.191,1.191,0,0,0,.439.27,3.027,3.027,0,0,0,.607.067,3.3,3.3,0,0,0,.877-.1V98.067c.067,0,.169-.034.236-.034h.472c.1,0,.169.034.236.034v5.061c-.236.067-.506.135-.844.2a5.151,5.151,0,0,1-1.012.1,4.269,4.269,0,0,1-.945-.1,2.015,2.015,0,0,1-.776-.337,1.769,1.769,0,0,1-.54-.742A3.215,3.215,0,0,1,422,101V98.034Z" transform="translate(-395.176 -95.739)"/><path class="a" d="M438.51,96.292h-.776l-.034-.135,1.755-1.957h.068v1.282h1.316a1.266,1.266,0,0,1,.034.371v.2c0,.067-.034.135-.034.2h-1.316V98.62a3.885,3.885,0,0,0,.034.675,1.138,1.138,0,0,0,.135.4c.067.1.135.169.236.169a1.265,1.265,0,0,0,.371.034,1.148,1.148,0,0,0,.337-.034.636.636,0,0,0,.27-.067l.1.4v.371a1.71,1.71,0,0,1-.439.067,2.074,2.074,0,0,1-.472.034,1.733,1.733,0,0,1-1.147-.371,1.515,1.515,0,0,1-.4-1.181V96.292Z" transform="translate(-405.579 -93.222)"/><path class="a" d="M449.809,94.437h-.675c0-.067-.034-.1-.034-.2v-.4a.428.428,0,0,1,.034-.2h1.653v5.2c-.067,0-.169.034-.236.034h-.472c-.1,0-.169-.034-.236-.034l-.034-4.386Zm-.2-1.923c0-.067-.034-.169-.034-.27V91.7a.743.743,0,0,1,.034-.27c.1,0,.169-.034.27-.034h.54c.1,0,.2.034.27.034,0,.067.034.169.034.27v.54a.743.743,0,0,1-.034.27c-.068,0-.169.034-.27.034h-.54A.839.839,0,0,0,449.606,92.513Z" transform="translate(-413.132 -91.366)"/><path class="a" d="M459,97.835c.068,0,.135-.034.2-.034h.4c.067,0,.135.034.2.034.034.1.034.236.067.4a2.076,2.076,0,0,1,.034.439,2.363,2.363,0,0,1,.27-.337,3.585,3.585,0,0,1,.371-.3,2.062,2.062,0,0,1,.472-.236,1.873,1.873,0,0,1,1.889.4,2.394,2.394,0,0,1,.439,1.518v3.307c-.068,0-.169.034-.27.034h-.506c-.1,0-.169-.034-.236-.034V99.994a1.712,1.712,0,0,0-.236-1.046.737.737,0,0,0-.709-.337,1.4,1.4,0,0,0-.54.1,1.284,1.284,0,0,0-.439.3,1.408,1.408,0,0,0-.3.54,2.952,2.952,0,0,0-.1.81V103c-.067,0-.169.034-.236.034h-.506c-.1,0-.169-.034-.27-.034V97.835Z" transform="translate(-419.692 -95.541)"/><path class="a" d="M478.472,102.356a1.976,1.976,0,0,1,1.316.371,1.273,1.273,0,0,1,.4,1.012,1.36,1.36,0,0,1-.2.742,1.86,1.86,0,0,1-.574.574,2.988,2.988,0,0,1-.877.371,3.876,3.876,0,0,1-1.113.135,2.918,2.918,0,0,1-1.586-.337,1.082,1.082,0,0,1-.54-1.012,1.15,1.15,0,0,1,.236-.742,1.472,1.472,0,0,1,.574-.54,1.6,1.6,0,0,1-.337-.337.813.813,0,0,1-.135-.506,1.292,1.292,0,0,1,.169-.641,1.926,1.926,0,0,1,.439-.472,1.849,1.849,0,0,1-.54-.607,1.733,1.733,0,0,1-.2-.844,1.565,1.565,0,0,1,.135-.709,1.765,1.765,0,0,1,.4-.574,1.894,1.894,0,0,1,.675-.4,2.586,2.586,0,0,1,.911-.135,2.33,2.33,0,0,1,.844.135,2.861,2.861,0,0,1,.641.337,1.61,1.61,0,0,1,.54-.27,2.705,2.705,0,0,1,.776-.1,1.782,1.782,0,0,1,.034.439v.236c0,.067-.034.169-.034.236h-.911a1.249,1.249,0,0,1,.169.371,1.992,1.992,0,0,1,.067.472,1.717,1.717,0,0,1-.169.742,1.454,1.454,0,0,1-.439.574,2.173,2.173,0,0,1-.675.371,2.33,2.33,0,0,1-.844.135,2.468,2.468,0,0,1-.742-.1.909.909,0,0,0-.27.236.508.508,0,0,0-.135.371.329.329,0,0,0,.135.3c.1.1.27.135.574.135Zm-1.383.81a.824.824,0,0,0-.675.236.813.813,0,0,0-.236.607.68.68,0,0,0,.1.371.625.625,0,0,0,.27.236,1.138,1.138,0,0,0,.4.135,2.39,2.39,0,0,0,.506.034,2.685,2.685,0,0,0,1.282-.27.79.79,0,0,0,.472-.675.566.566,0,0,0-.2-.472,1.207,1.207,0,0,0-.709-.169Zm.472-2.531a1,1,0,0,0,.81-.3,1.2,1.2,0,0,0,.27-.776,1.231,1.231,0,0,0-.27-.81,1.232,1.232,0,0,0-1.62,0,1.231,1.231,0,0,0-.27.81,1.2,1.2,0,0,0,.27.776A1,1,0,0,0,477.561,100.635Z" transform="translate(-430.492 -95.541)"/></g><g transform="translate(177.646 30.974)"><path class="a" d="M526.5,91.834c.068,0,.169-.034.27-.034h.54c.1,0,.169.034.27.034v7.389c-.068,0-.169.034-.236.034h-.54c-.1,0-.169-.034-.236-.034V91.834Z" transform="translate(-526.5 -91.8)"/><path class="a" d="M534.857,92.745h-1.923c0-.067-.034-.135-.034-.236v-.472a.574.574,0,0,1,.034-.236h4.892c0,.067.034.135.034.2v.472c0,.1-.034.169-.034.236H535.9v6.445a2.553,2.553,0,0,1-.506.034,2.727,2.727,0,0,1-.54-.034Z" transform="translate(-530.741 -91.8)"/></g><g transform="translate(196.271 30.907)"><path class="a" d="M581.734,91.9a3.581,3.581,0,0,1,.709-.067,8.223,8.223,0,0,1,.911-.034,5,5,0,0,1,1.046.1,1.958,1.958,0,0,1,.81.337,1.746,1.746,0,0,1,.54.574,1.775,1.775,0,0,1,.2.877,1.576,1.576,0,0,1-.1.574,1.324,1.324,0,0,1-.27.472,1.167,1.167,0,0,1-.371.337,1.279,1.279,0,0,1-.439.2,1.852,1.852,0,0,1,.574.169,1.813,1.813,0,0,1,.54.337,1.411,1.411,0,0,1,.371.574,2.109,2.109,0,0,1,.135.844,1.876,1.876,0,0,1-.236,1.012,2.045,2.045,0,0,1-.641.675,2.637,2.637,0,0,1-.945.371,6.311,6.311,0,0,1-1.147.1,7.338,7.338,0,0,1-.844-.034c-.3-.034-.607-.067-.877-.1V91.9Zm1.755,3.037a1.548,1.548,0,0,0,1.046-.3,1.143,1.143,0,0,0,.371-.911,1.044,1.044,0,0,0-.4-.877,1.668,1.668,0,0,0-1.046-.27h-.4c-.135,0-.236.034-.3.034V94.9l.742.034Zm-.742,3.442c.1,0,.2.034.371.034h.439a4.154,4.154,0,0,0,.675-.067,1.661,1.661,0,0,0,.574-.2.859.859,0,0,0,.371-.4,1.207,1.207,0,0,0,.135-.641,1.285,1.285,0,0,0-.135-.641,1.073,1.073,0,0,0-.371-.4,2.612,2.612,0,0,0-.54-.236,4.154,4.154,0,0,0-.675-.067h-.844Z" transform="translate(-581.7 -91.733)"/><path class="a" d="M599.234,98.234c.068,0,.169-.034.27-.034h.506c.1,0,.169.034.27.034V101.1a2.632,2.632,0,0,0,.1.81,1.788,1.788,0,0,0,.27.506,1.19,1.19,0,0,0,.439.27,3.026,3.026,0,0,0,.607.067,3.3,3.3,0,0,0,.877-.1V98.267c.068,0,.169-.034.236-.034h.472c.1,0,.169.034.236.034v5.061c-.236.067-.506.135-.844.2a5.149,5.149,0,0,1-1.012.1,4.267,4.267,0,0,1-.945-.1,2.015,2.015,0,0,1-.776-.337,1.769,1.769,0,0,1-.54-.742,3.215,3.215,0,0,1-.2-1.248l.034-2.969Z" transform="translate(-593.295 -95.973)"/><path class="a" d="M615.97,102.154a2.617,2.617,0,0,0,.607.169,4.61,4.61,0,0,0,.641.067.926.926,0,0,0,.439-.067,1.248,1.248,0,0,0,.371-.169.91.91,0,0,0,.27-.236.57.57,0,0,0,.1-.337,1,1,0,0,0-.068-.337,1.468,1.468,0,0,0-.2-.236,2.444,2.444,0,0,0-.3-.169c-.1-.034-.236-.1-.371-.135l-.371-.135a2.677,2.677,0,0,1-.945-.54,1.1,1.1,0,0,1-.3-.81,1.393,1.393,0,0,1,.506-1.113,2.253,2.253,0,0,1,1.451-.4,5.539,5.539,0,0,1,.776.067c.27.067.472.1.675.169a1.693,1.693,0,0,1-.067.4,1.21,1.21,0,0,1-.135.371,5.269,5.269,0,0,0-.54-.169,2.186,2.186,0,0,0-.675-.067,1.511,1.511,0,0,0-.675.135.478.478,0,0,0-.3.472.987.987,0,0,0,.067.3.573.573,0,0,0,.2.2.678.678,0,0,0,.27.135,2.33,2.33,0,0,1,.337.135l.439.169c.169.067.3.135.472.2a1.5,1.5,0,0,1,.371.27,1.213,1.213,0,0,1,.27.4,1.455,1.455,0,0,1,.1.574,1.535,1.535,0,0,1-.169.675,1.631,1.631,0,0,1-.439.54,2.111,2.111,0,0,1-.675.337,3.418,3.418,0,0,1-.877.135,5.689,5.689,0,0,1-.844-.067,3.948,3.948,0,0,1-.675-.169.9.9,0,0,1,.1-.4A3.959,3.959,0,0,0,615.97,102.154Z" transform="translate(-604.228 -95.642)"/><path class="a" d="M629.909,94.637h-.675c0-.067-.034-.1-.034-.2v-.4a.428.428,0,0,1,.034-.2h1.653v5.23c-.068,0-.169.034-.236.034h-.472c-.1,0-.169-.034-.236-.034l-.034-4.42Zm-.2-1.923c0-.067-.034-.169-.034-.27V91.9a.743.743,0,0,1,.034-.27c.1,0,.169-.034.27-.034h.54c.1,0,.2.034.27.034,0,.067.034.169.034.27v.54a.743.743,0,0,1-.034.27c-.067,0-.169.034-.27.034h-.54A.838.838,0,0,0,629.706,92.713Z" transform="translate(-613.173 -91.6)"/><path class="a" d="M639.1,98.035c.068,0,.135-.034.2-.034h.4c.067,0,.135.034.2.034.034.1.034.236.068.4a2.078,2.078,0,0,1,.034.439,2.368,2.368,0,0,1,.27-.337,3.591,3.591,0,0,1,.371-.3,2.061,2.061,0,0,1,.472-.236,1.874,1.874,0,0,1,1.89.4,2.394,2.394,0,0,1,.439,1.518v3.307c-.068,0-.169.034-.27.034h-.506c-.1,0-.169-.034-.236-.034v-3.037a1.712,1.712,0,0,0-.236-1.046.737.737,0,0,0-.709-.337,1.4,1.4,0,0,0-.54.1,1.284,1.284,0,0,0-.439.3,1.407,1.407,0,0,0-.3.54,2.952,2.952,0,0,0-.1.81V103.2c-.067,0-.169.034-.236.034h-.506c-.1,0-.169-.034-.27-.034V98.035Z" transform="translate(-619.733 -95.774)"/><path class="a" d="M656.746,100.869a1.69,1.69,0,0,0,.439,1.248,1.737,1.737,0,0,0,1.248.4,3.881,3.881,0,0,0,1.383-.27,1.208,1.208,0,0,1,.135.371,1.974,1.974,0,0,1,.068.439,2.681,2.681,0,0,1-.742.2,7.126,7.126,0,0,1-.877.067,3.269,3.269,0,0,1-1.215-.2,2.165,2.165,0,0,1-1.316-1.417,3.622,3.622,0,0,1-.169-1.08,3.792,3.792,0,0,1,.135-1.08,2.384,2.384,0,0,1,.439-.877,2.218,2.218,0,0,1,.776-.574,2.68,2.68,0,0,1,1.08-.2,2.625,2.625,0,0,1,.945.169,2.086,2.086,0,0,1,.675.506,1.894,1.894,0,0,1,.4.776,2.91,2.91,0,0,1,.135.945v.3a.658.658,0,0,1-.034.27Zm2.564-.742a2.621,2.621,0,0,0-.068-.54,1.345,1.345,0,0,0-.236-.439,1.055,1.055,0,0,0-.371-.3,1.4,1.4,0,0,0-.54-.1,1.218,1.218,0,0,0-.945.371,1.85,1.85,0,0,0-.4,1.046l2.564-.034Z" transform="translate(-630.732 -95.774)"/><path class="a" d="M672.47,102.154a2.617,2.617,0,0,0,.607.169,4.612,4.612,0,0,0,.641.067.926.926,0,0,0,.439-.067,1.247,1.247,0,0,0,.371-.169.91.91,0,0,0,.27-.236.57.57,0,0,0,.1-.337,1,1,0,0,0-.067-.337,1.468,1.468,0,0,0-.2-.236,2.448,2.448,0,0,0-.3-.169c-.1-.034-.236-.1-.371-.135l-.371-.135a2.678,2.678,0,0,1-.945-.54,1.1,1.1,0,0,1-.3-.81,1.393,1.393,0,0,1,.506-1.113,2.253,2.253,0,0,1,1.451-.4,5.538,5.538,0,0,1,.776.067c.27.067.472.1.675.169a1.693,1.693,0,0,1-.068.4,1.208,1.208,0,0,1-.135.371,5.264,5.264,0,0,0-.54-.169,2.186,2.186,0,0,0-.675-.067,1.511,1.511,0,0,0-.675.135.478.478,0,0,0-.3.472.985.985,0,0,0,.068.3.573.573,0,0,0,.2.2.678.678,0,0,0,.27.135,2.33,2.33,0,0,1,.337.135l.439.169c.169.067.3.135.472.2a1.5,1.5,0,0,1,.371.27,1.213,1.213,0,0,1,.27.4,1.454,1.454,0,0,1,.1.574,1.536,1.536,0,0,1-.169.675,1.632,1.632,0,0,1-.439.54,2.111,2.111,0,0,1-.675.337,3.419,3.419,0,0,1-.877.135,5.688,5.688,0,0,1-.844-.067,3.947,3.947,0,0,1-.675-.169.9.9,0,0,1,.1-.4A3.943,3.943,0,0,0,672.47,102.154Z" transform="translate(-641.664 -95.642)"/><path class="a" d="M685.37,102.154a2.617,2.617,0,0,0,.607.169,4.61,4.61,0,0,0,.641.067.926.926,0,0,0,.439-.067,1.248,1.248,0,0,0,.371-.169.91.91,0,0,0,.27-.236.57.57,0,0,0,.1-.337,1,1,0,0,0-.067-.337,1.471,1.471,0,0,0-.2-.236,2.444,2.444,0,0,0-.3-.169c-.1-.034-.236-.1-.371-.135l-.371-.135a2.677,2.677,0,0,1-.945-.54,1.1,1.1,0,0,1-.3-.81,1.393,1.393,0,0,1,.506-1.113,2.253,2.253,0,0,1,1.451-.4,5.538,5.538,0,0,1,.776.067c.27.067.472.1.675.169a1.693,1.693,0,0,1-.067.4,1.21,1.21,0,0,1-.135.371,5.264,5.264,0,0,0-.54-.169,2.186,2.186,0,0,0-.675-.067,1.511,1.511,0,0,0-.675.135.478.478,0,0,0-.3.472.987.987,0,0,0,.067.3.573.573,0,0,0,.2.2.678.678,0,0,0,.27.135,2.33,2.33,0,0,1,.337.135l.439.169c.169.067.3.135.472.2a1.5,1.5,0,0,1,.371.27,1.213,1.213,0,0,1,.27.4,1.454,1.454,0,0,1,.1.574,1.535,1.535,0,0,1-.169.675,1.631,1.631,0,0,1-.439.54,2.111,2.111,0,0,1-.675.337,3.418,3.418,0,0,1-.877.135,5.689,5.689,0,0,1-.844-.067,3.948,3.948,0,0,1-.675-.169.9.9,0,0,1,.1-.4A1.247,1.247,0,0,0,685.37,102.154Z" transform="translate(-650.212 -95.642)"/></g><circle class="c" cx="1.721" cy="1.721" r="1.721" transform="translate(168.974 33.505)"/><circle class="c" cx="1.721" cy="1.721" r="1.721" transform="translate(187.768 33.505)"/></svg>