<?xml version="1.0" encoding="utf-8"?>
<!-- Generator: Adobe Illustrator 21.1.0, SVG Export Plug-In . SVG Version: 6.00 Build 0)  -->
<svg version="1.1" id="Слой_1" xmlns="http://www.w3.org/2000/svg" xmlns:xlink="http://www.w3.org/1999/xlink" x="0px" y="0px"
	 viewBox="0 0 2394.5 513.6" style="enable-background:new 0 0 2394.5 513.6;" xml:space="preserve">
<style type="text/css">
	.st0{fill:#00599F;}
</style>
<path class="st0" d="M1168.5,250.2h-19.6V137.7c0-8.9,0.5-19.7,1.6-32.5h-0.5c-1.9,7.6-3.5,13-5,16.2l-57.1,128.7h-9.6l-57.2-127.8
	c-1.6-3.4-3.2-9.1-5-17.2h-0.5c0.6,6.7,0.9,17.6,0.9,32.7v112.2h-18.9V82.7h25.9l51.4,116.8c3.9,8.9,6.4,15.6,7.6,20.1h0.8
	c3.9-10.7,6.6-17.6,8.1-20.6l52.4-116.3h24.6V250.2z"/>
<path class="st0" d="M1232.3,87.7c0,3.6-1.2,6.6-3.7,8.9c-2.5,2.4-5.4,3.6-8.9,3.6c-3.5,0-6.5-1.1-8.9-3.4s-3.6-5.3-3.6-9.1
	c0-3.3,1.2-6.2,3.6-8.7c2.4-2.5,5.4-3.7,8.9-3.7c3.6,0,6.6,1.2,9,3.6C1231.1,81.4,1232.3,84.3,1232.3,87.7 M1229,250.2h-19.2V130.6
	h19.2V250.2z"/>
<path class="st0" d="M1348.4,244.7c-9.3,5.6-20.2,8.4-32.8,8.4c-10.9,0-20.7-2.5-29.4-7.5c-8.7-5-15.4-12.1-20.3-21.3
	c-4.8-9.2-7.2-19.5-7.2-30.9c0-19.8,5.7-35.7,17-47.7c11.3-12,26.4-18,45.3-18c10.4,0,19.7,2,27.7,6.1v19.6
	c-9-6.2-18.5-9.3-28.5-9.3c-12.4,0-22.4,4.4-30.2,13.3c-7.7,8.8-11.6,20.3-11.6,34.3c0,13.9,3.7,25,11,33.1
	c7.4,8.1,17.2,12.1,29.6,12.1c10.4,0,20.2-3.4,29.4-10.3V244.7z"/>
<path class="st0" d="M1439.7,149.9c-3.4-2.6-8.3-3.9-14.6-3.9c-8.5,0-15.4,4-20.7,12c-5.3,8-7.9,18.4-7.9,31.1v61h-19.2V130.6h19.2
	v24.6h0.5c2.6-8.3,6.7-14.8,12.3-19.6c5.5-4.8,11.9-7.2,19-7.2c5,0,8.8,0.5,11.4,1.6V149.9z"/>
<path class="st0" d="M1566.1,189.9c0,19-5.4,34.3-16.2,45.8c-10.8,11.6-25.2,17.3-43.4,17.3c-17.7,0-31.8-5.6-42.3-16.9
	c-10.6-11.3-15.8-26.1-15.8-44.4c0-19.8,5.4-35.4,16.2-46.9c10.8-11.5,25.7-17.2,44.7-17.2c17.8,0,31.7,5.5,41.7,16.6
	C1561,155.4,1566.1,170.6,1566.1,189.9 M1546.4,190.6c0-15-3.3-26.5-10-34.6c-6.7-8-16.2-12-28.6-12c-12.3,0-22,4.1-29.2,12.3
	c-7.2,8.2-10.7,19.8-10.7,34.7c0,14.3,3.6,25.5,10.8,33.6c7.2,8.1,16.9,12.1,29.1,12.1c12.5,0,22-4,28.6-11.9
	C1543.1,216.9,1546.4,205.5,1546.4,190.6"/>
<path class="st0" d="M1661,218.2c0,10.4-4,18.8-12,25.2c-8,6.5-18.6,9.7-31.8,9.7c-11.3,0-21.2-2.4-29.7-7.2v-20.6
	c9.4,7.6,19.8,11.4,31.1,11.4c15.2,0,22.8-5.6,22.8-16.7c0-4.5-1.5-8.2-4.4-11s-9.7-6.7-20.2-11.5c-10.6-4.5-18.1-9.4-22.4-14.5
	c-4.4-5.2-6.5-12-6.5-20.6c0-9.9,4-18.1,11.9-24.8c7.9-6.6,18-9.9,30.2-9.9c9.4,0,17.9,1.9,25.6,5.6v19.3
	c-7.8-5.7-16.8-8.5-27.1-8.5c-6.3,0-11.4,1.6-15.2,4.7c-3.9,3.1-5.8,7.1-5.8,12c0,5.3,1.5,9.4,4.4,12.2c3,2.8,9.1,6.2,18.3,10.1
	c11.4,4.8,19.3,9.9,23.9,15.2C1658.7,203.5,1661,210.1,1661,218.2"/>
<path class="st0" d="M1797.7,189.9c0,19-5.4,34.3-16.2,45.8c-10.8,11.6-25.2,17.3-43.4,17.3c-17.7,0-31.8-5.6-42.3-16.9
	c-10.6-11.3-15.8-26.1-15.8-44.4c0-19.8,5.4-35.4,16.2-46.9c10.8-11.5,25.7-17.2,44.7-17.2c17.8,0,31.7,5.5,41.7,16.6
	C1792.6,155.4,1797.7,170.6,1797.7,189.9 M1778,190.6c0-15-3.3-26.5-10-34.6c-6.7-8-16.2-12-28.6-12c-12.3,0-22,4.1-29.2,12.3
	c-7.2,8.2-10.7,19.8-10.7,34.7c0,14.3,3.6,25.5,10.8,33.6c7.2,8.1,16.9,12.1,29.1,12.1c12.5,0,22-4,28.6-11.9
	C1774.7,216.9,1778,205.5,1778,190.6"/>
<path class="st0" d="M1882.1,89.9c-3.7-2.1-8-3.2-12.7-3.2c-13.4,0-20.1,8.4-20.1,25.3v18.5h28v16.2h-28v103.4h-19.2V146.8h-20.3
	v-16.2h20.3v-19.4c0-12.1,3.6-22,10.7-29.4c7.2-7.5,16.3-11.2,27.3-11.2c5.8,0,10.5,0.7,13.9,2.1V89.9z"/>
<path class="st0" d="M1957.7,249c-4.6,2.6-10.6,3.9-18,3.9c-20.9,0-31.3-11.8-31.3-35.3v-70.8h-20.6v-16.2h20.6v-29.2l19.2-6.2v35.4
	h30.1v16.2h-30.1v67.5c0,8,1.4,13.7,4.1,17.1c2.7,3.4,7.3,5.1,13.7,5.1c4.7,0,8.9-1.3,12.4-3.9V249z"/>
<path class="st0" d="M1111.5,450.5c-12.3,6.5-27.7,9.8-46.1,9.8c-15.5,0-29.2-3.5-41.2-10.4c-12-6.9-21.2-16.8-27.7-29.5
	c-6.5-12.7-9.8-27.3-9.8-43.6c0-17.1,3.6-32.4,10.9-46.2s17.4-24.4,30.5-32.1c13.1-7.6,27.8-11.4,44-11.4c15.8,0,29,2.3,39.5,6.9
	v20.8c-12-6.7-25.2-10-39.7-10c-12.6,0-23.8,2.9-33.6,8.8c-9.8,5.8-17.4,14.2-22.8,25c-5.4,10.8-8.1,23.2-8.1,37.1
	c0,13.2,2.5,25,7.6,35.2c5.1,10.2,12.2,18,21.5,23.5c9.3,5.5,19.9,8.2,31.8,8.2c16.8,0,31.3-3.7,43.4-11.2V450.5z"/>
<rect x="1143.2" y="280.4" class="st0" width="19.2" height="177.1"/>
<path class="st0" d="M1309.7,397.2c0,19-5.4,34.3-16.2,45.8c-10.8,11.6-25.2,17.3-43.4,17.3c-17.7,0-31.8-5.6-42.3-16.9
	c-10.6-11.3-15.8-26.1-15.8-44.4c0-19.8,5.4-35.4,16.2-46.9c10.8-11.5,25.7-17.2,44.7-17.2c17.8,0,31.7,5.5,41.7,16.6
	C1304.7,362.7,1309.7,377.9,1309.7,397.2 M1290.1,397.9c0-15-3.3-26.5-10-34.6c-6.7-8-16.2-12-28.6-12c-12.3,0-22,4.1-29.2,12.3
	c-7.2,8.2-10.7,19.8-10.7,34.7c0,14.3,3.6,25.5,10.8,33.6c7.2,8.1,16.9,12.1,29.1,12.1c12.5,0,22-4,28.6-11.9
	C1286.8,424.1,1290.1,412.7,1290.1,397.9"/>
<path class="st0" d="M1436,457.4h-19.2v-18.9h-0.5c-7.9,14.6-20.2,21.8-36.8,21.8c-28.6,0-42.9-17-42.9-51v-71.5h19.2v68.4
	c0,25.1,9.7,37.7,29,37.7c9.5,0,17.2-3.4,23.1-10.3c5.9-6.9,8.9-15.9,8.9-26.9v-68.9h19.2V457.4z"/>
<path class="st0" d="M1575.9,457.4h-19.2v-20.3h-0.5c-8.9,15.5-22.6,23.2-41.1,23.2c-15.1,0-27.1-5.4-36.1-16.3
	c-9-10.9-13.4-25.4-13.4-43.5c0-19.8,5-35.7,14.9-47.6c9.9-12,23.2-18,39.9-18c16.3,0,28.3,6.5,35.9,19.4h0.5v-73.9h19.2V457.4z
	 M1556.7,403.4v-17.6c0-9.9-3.3-18.1-9.9-24.6c-6.6-6.5-14.6-9.8-24-9.8c-11.5,0-20.7,4.3-27.4,12.8c-6.8,8.5-10.2,20.3-10.2,35.4
	c0,13.7,3.2,24.5,9.6,32.5c6.4,8,15,12,25.8,12c10.5,0,19.2-3.8,25.9-11.4C1553.3,424.9,1556.7,415.2,1556.7,403.4"/>
<path class="st0" d="M1758.4,415.2c0,14.1-5,25.1-14.9,33.2c-10,8-23.5,12-40.6,12c-6.2,0-13.3-1-21.1-3.1
	c-7.8-2.1-13.4-4.2-16.6-6.5v-23.2c4.7,4.3,11,7.9,18.7,10.7s15,4.3,21.7,4.3c21.5,0,32.2-8.4,32.2-25.1c0-7-2.3-13-6.9-18
	c-4.6-5-14-11.6-28.3-19.8c-13.8-7.8-23.4-15.2-29-22.2c-5.5-7-8.3-15.5-8.3-25.6c0-13.2,4.9-24,14.8-32.3
	c9.9-8.3,22.7-12.4,38.3-12.4c15,0,26,2,32.9,6v22c-8.7-6.9-20-10.3-34-10.3c-9.3,0-16.8,2.3-22.7,6.9c-5.9,4.6-8.8,10.8-8.8,18.4
	c0,5.5,0.9,10,2.6,13.3c1.8,3.3,4.7,6.7,8.9,9.9c4.2,3.3,11.2,7.7,21.1,13.2c14.8,8.3,25.1,16,31.1,23.4
	C1755.5,397.2,1758.4,405.7,1758.4,415.2"/>
<path class="st0" d="M1897.9,397.2c0,19-5.4,34.3-16.2,45.8c-10.8,11.6-25.2,17.3-43.4,17.3c-17.7,0-31.8-5.6-42.3-16.9
	c-10.5-11.3-15.8-26.1-15.8-44.4c0-19.8,5.4-35.4,16.2-46.9c10.8-11.5,25.7-17.2,44.7-17.2c17.8,0,31.7,5.5,41.7,16.6
	C1892.8,362.7,1897.9,377.9,1897.9,397.2 M1878.2,397.9c0-15-3.3-26.5-10-34.6c-6.7-8-16.2-12-28.6-12c-12.3,0-22,4.1-29.2,12.3
	c-7.2,8.2-10.7,19.8-10.7,34.7c0,14.3,3.6,25.5,10.8,33.6c7.2,8.1,16.9,12.1,29.1,12.1c12.5,0,22-4,28.6-11.9
	C1874.9,424.1,1878.2,412.7,1878.2,397.9"/>
<path class="st0" d="M2008.1,451.9c-9.3,5.6-20.2,8.4-32.8,8.4c-10.9,0-20.7-2.5-29.4-7.5c-8.7-5-15.4-12.1-20.3-21.3
	c-4.8-9.2-7.2-19.5-7.2-31c0-19.8,5.7-35.7,17-47.7c11.3-12,26.4-18,45.3-18c10.4,0,19.7,2,27.7,6.1v19.6c-9-6.2-18.5-9.3-28.5-9.3
	c-12.4,0-22.4,4.4-30.2,13.3c-7.7,8.8-11.6,20.3-11.6,34.3c0,13.9,3.7,25,11,33.1c7.4,8.1,17.2,12.1,29.6,12.1
	c10.4,0,20.2-3.4,29.4-10.3V451.9z"/>
<path class="st0" d="M2059.5,295c0,3.6-1.2,6.6-3.7,8.9c-2.5,2.4-5.5,3.6-8.9,3.6c-3.5,0-6.5-1.1-8.9-3.4c-2.4-2.3-3.6-5.3-3.6-9.1
	c0-3.3,1.2-6.2,3.6-8.7c2.4-2.5,5.4-3.7,8.9-3.7c3.6,0,6.6,1.2,9,3.6C2058.3,288.6,2059.5,291.6,2059.5,295 M2056.2,457.4h-19.2
	V337.8h19.2V457.4z"/>
<path class="st0" d="M2190.2,402.4h-84.4c0.3,13.5,3.9,23.8,10.7,30.9c6.8,7.1,16.3,10.7,28.3,10.7c13.5,0,25.9-4.4,37-13.1v17.9
	c-10.4,7.7-24.3,11.6-41.6,11.6c-17.1,0-30.4-5.5-39.9-16.5c-9.6-11-14.4-26.3-14.4-45.7c0-11.8,2.4-22.6,7.2-32.4
	c4.8-9.8,11.4-17.3,19.8-22.7c8.4-5.4,17.8-8.1,28-8.1c15.5,0,27.6,5,36.3,15.1c8.7,10.1,13,24.2,13,42.3V402.4z M2170.6,386.2
	c-0.2-11.1-2.8-19.6-8-25.8c-5.2-6.1-12.5-9.2-21.9-9.2c-8.9,0-16.5,3.2-22.8,9.6c-6.3,6.4-10.3,14.8-11.9,25.3H2170.6z"/>
<path class="st0" d="M2273.7,456.3c-4.6,2.6-10.6,3.9-18,3.9c-20.9,0-31.3-11.8-31.3-35.3v-70.8h-20.6v-16.2h20.6v-29.2l19.2-6.2
	v35.4h30.1v16.2h-30.1v67.5c0,8,1.4,13.7,4.1,17.1c2.7,3.4,7.3,5.1,13.7,5.1c4.8,0,8.9-1.3,12.4-3.9V456.3z"/>
<path class="st0" d="M2394.5,337.8l-55,138.7c-9.8,24.7-23.6,37-41.3,37c-5,0-9.1-0.5-12.5-1.4V495c4,1.4,7.8,2.1,11.2,2.1
	c9.7,0,17-5.7,21.8-17.2l9.6-22.8l-46.7-119.4h21.4l32.2,92l2.5,9.1h0.7c0.3-1.7,1.1-4.6,2.3-8.8l34-92.4H2394.5z"/>
<path class="st0" d="M109.7,480.1c-12.3,0-24.8-7.2-24.8-20.9l11-77.6c-4.5-4.3-7-10.3-7-16.8c0-7.6,3.4-14.4,9-18.6V241.1
	c0-1.6,0.8-3.1,2.1-4c0.9-0.6,1.9-0.9,2.9-0.9c0.5,0,1.1,0.1,1.6,0.3l12.7,4.2c2,0.7,3.4,2.6,3.4,4.7v100.1
	c6.2,4,10.1,11.3,10.1,19.3c0,6.5-2.6,12.6-7,16.9l11,76.9C134.6,472.9,122.1,480.1,109.7,480.1"/>
<path class="st0" d="M739.7,308.7l190.7-71.9L468.8,2.3L464.3,0L0,234.2l88.8,33.9v-21.3l-39.6-15.1l415-209.3l416.9,211.8
	l-168.9,63.7c-2.1-0.5-4.2-0.9-6.3-1.2c0.5-3.7,0.8-7.6,0.8-11.2c0-65.6-53.4-118.9-119-118.9c-22.2,0-43.4,5.9-62.1,17.2
	c-26.4-39.4-71.7-63.5-120.8-63.5c-75.6,0-138.6,58.9-144.8,133.1c-27.8,1.9-53,13.4-72.3,31.2l-58.1-22.2v21.3l43.7,16.7
	c-15.1,20-24,44.8-24,71.7c0,64.9,53.4,117.7,118.9,117.7h423.6c53.1,0,96.4-43.3,96.4-96.4C788.2,357.5,768.6,325.7,739.7,308.7
	 M691.8,469.8H268.2c-54.6,0-99-43.9-99-97.8c0-24.5,8.9-46.9,23.8-64.2c2.4-2.8,4.9-5.4,7.6-7.9c0.1-0.1,0.2-0.2,0.3-0.3
	c0.5-0.5,1.1-1,1.7-1.5c0.2-0.1,0.3-0.3,0.5-0.4c0.5-0.4,1-0.9,1.5-1.3c0.2-0.1,0.4-0.3,0.5-0.4c0.5-0.4,1.1-0.9,1.6-1.3
	c0.2-0.1,0.3-0.3,0.5-0.4c0.7-0.5,1.4-1.1,2.1-1.6c16.7-12.4,37.6-19.8,60.3-19.8h9.8l0.2-9.8c1.1-69,56.2-123,125.4-123
	c45.6,0,87.4,24,109.1,62.5l5.5,9.8l9.1-6.7c17.2-12.7,37.7-19.3,59.3-19.3c54.6,0,99,44.4,99,99c0,5.8-1.3,13.2-2.3,18.2l-1,5
	l-1.3,6.6l11.8,0.3c1.1,0,2.2,0.1,3.3,0.2c0.3,0,0.6,0,0.9,0.1c1,0.1,2,0.2,3,0.3c0.3,0,0.7,0.1,1,0.1c0.7,0.1,1.4,0.2,2.1,0.3
	c0.5,0.1,1,0.2,1.5,0.3c0.5,0.1,1.1,0.2,1.6,0.3c0.9,0.2,1.9,0.4,2.8,0.7c0.3,0.1,0.7,0.2,1,0.3c0.7,0.2,1.3,0.4,2,0.6
	c31.6,9.6,54.9,39.7,54.9,74.6C768.2,435.5,733.9,469.8,691.8,469.8"/>
</svg>
