<?xml version="1.0" encoding="utf-8"?>
<!-- Generator: Adobe Illustrator 22.0.1, SVG Export Plug-In . SVG Version: 6.00 Build 0)  -->
<svg version="1.1" id="Layer_1" xmlns="http://www.w3.org/2000/svg" xmlns:xlink="http://www.w3.org/1999/xlink" x="0px" y="0px"
	 viewBox="0 0 201.9 58.8" style="enable-background:new 0 0 201.9 58.8;" xml:space="preserve">
<path fill="#fc8019" d="M19.9,58.8c0,0-0.1-0.1-0.1-0.1c-0.7-0.9-5.1-6.4-9.5-13.4c-1.3-2.2-2.2-4-2-4.4c0.4-1.2,8.2-1.8,10.6-0.8
	c0.7,0.3,0.7,0.8,0.7,1c0,1.1-0.1,4-0.1,4c0,0.6,0.5,1.1,1.1,1.1c0.6,0,1.1-0.5,1.1-1.1l0-7.2h0c0-0.6-0.7-0.8-0.8-0.8
	c-1.3,0-3.8,0-6.5,0c-6,0-7.4,0.2-8.4-0.4C3.7,35.1,0.1,25.4,0,19.9C-0.1,12.2,4.5,5.4,10.9,2.1c2.7-1.4,5.7-2.1,9-2.1
	c10.2,0,18.7,7.7,19.8,17.7c0,0,0,0,0,0c0.2,2.4-13,2.9-15.6,2.2c-0.4-0.1-0.5-0.5-0.5-0.7c0-1.8,0-7,0-7c0-0.6-0.5-1.1-1.1-1.1h0
	c-0.6,0-1.1,0.5-1.1,1.1l0,9.5c0,0.6,0.5,0.8,0.7,0.8c1.5,0,5,0,8.2,0c4.4,0,6.2,0.5,7.4,1.4c0.8,0.6,1.1,1.8,0.9,3.4
	C36.1,41,20.5,58.1,19.9,58.8z M62.2,26.7c3.9,1.7,6.4,3.6,6.4,7.7c0,4.2-3.2,6.9-8.1,6.9c-4,0-7.2-1.8-8.8-4.9l-0.3-0.5l4.7-2.7
	l0.3,0.5c1.1,1.7,2.2,2.5,3.9,2.5c1.5,0,2.5-0.7,2.5-1.6c0-1.1-0.7-1.5-2.9-2.4l-1.1-0.5c-3-1.3-5.8-3.1-5.8-7.4
	c0-3.9,3-6.6,7.2-6.6c3.2,0,5.4,1.2,6.9,3.9l0.3,0.5l-4.5,2.9l-0.3-0.6c-0.8-1.4-1.5-1.6-2.4-1.6c-0.9,0-1.6,0.5-1.6,1.3
	c0,0.9,0.4,1.3,2.4,2.2L62.2,26.7z M95.3,27.5l3.3-9.2h5.7l-8.4,23.3h-1.3l-5.1-10.9c-0.2-0.5-0.5-1.1-0.7-1.7
	c-0.2,0.6-0.5,1.2-0.7,1.7l-5.3,10.9h-1.3L73,18.3h6.1l3.3,9.2c0.2,0.6,0.4,1.3,0.6,2c0.2-0.7,0.5-1.4,0.8-2l4.4-9.3h1.2l4.5,9.3
	c0.3,0.6,0.6,1.3,0.8,2C94.8,28.8,95.1,28.1,95.3,27.5z M110.8,40.9V17.8h5.7v23.1H110.8z M135.3,33.2V28h10.6v10.4l-0.2,0.2
	c-1.2,1-4.4,2.7-8.8,2.7c-7.4,0-12.5-4.9-12.5-11.9c0-6.9,5-11.8,11.8-11.8c3.8,0,6.5,1.1,8.4,3.2l0.4,0.4l-3.9,3.9l-0.4-0.4
	c-1.1-1.1-2.2-1.8-4.5-1.8c-3.5,0-5.9,2.7-5.9,6.6c0,4,2.6,6.6,6.7,6.6c1.3,0,2.7-0.2,3.7-0.6v-2.2H135.3z M164.3,33.2V28h10.6v10.4
	l-0.2,0.2c-1.2,1-4.4,2.7-8.8,2.7c-7.4,0-12.5-4.9-12.5-11.9c0-6.9,5-11.8,11.8-11.8c3.8,0,6.5,1.1,8.4,3.2l0.4,0.4l-3.9,3.9
	l-0.4-0.4c-1.1-1.1-2.2-1.8-4.5-1.8c-3.5,0-5.9,2.7-5.9,6.6c0,4,2.6,6.6,6.7,6.6c1.3,0,2.7-0.2,3.7-0.6v-2.2H164.3z M195.9,17.8h6
	l-8.2,15.4v7.7h-5.8v-7.4l-8.7-15.7h6.4l4,7.4c0.4,0.8,0.9,1.9,1.2,2.7c0.3-0.9,0.8-1.9,1.2-2.7L195.9,17.8z"/>
</svg>
