<svg xmlns="http://www.w3.org/2000/svg" width="129.246" height="70.026" viewBox="0 0 129.246 70.026"><defs><style>.a,.f{fill:#fff;}.b{fill:#d65f43;}.c{fill:#80b45d;}.d{fill:#449dd7;}.e{fill:#eeb644;}.f{stroke:#fff;stroke-miterlimit:10;}.g{fill:#f15a22;}</style></defs><g transform="translate(-1592 1544.143)"><g transform="translate(1592 -1544.143)"><path class="a" d="M236.6,209.806v-2.343h.317l.032.158a.317.317,0,0,1,.19-.158.95.95,0,0,1,.317-.063c.475,0,.728.285.728.887a.925.925,0,0,1-.222.7.792.792,0,0,1-.57.253c-.222,0-.348-.032-.412-.127v.7Zm.7-.792a.453.453,0,0,0,.38-.19.8.8,0,0,0,.127-.507c0-.412-.158-.633-.475-.633a.6.6,0,0,0-.253.063.383.383,0,0,0-.158.158v.95a.431.431,0,0,0,.38.142Z" transform="translate(-161.687 -141.728)"/><path class="a" d="M243.114,209.287a.788.788,0,0,1-.6-.222.925.925,0,0,1-.222-.7.985.985,0,0,1,.253-.7.832.832,0,0,1,1.425.7.985.985,0,0,1-.253.7,1,1,0,0,1-.6.222Zm0-.285a.525.525,0,0,0,.38-.158.763.763,0,0,0,.127-.475.709.709,0,0,0-.127-.475.427.427,0,0,0-.38-.158.526.526,0,0,0-.38.158.763.763,0,0,0-.127.475.709.709,0,0,0,.127.475A.526.526,0,0,0,243.114,209Z" transform="translate(-165.573 -141.762)"/><path class="a" d="M248.675,209.291l-.475-1.741h.317l.317,1.172.443-1.172h.127l.443,1.172.317-1.172h.285l-.475,1.741h-.222l-.443-1.171-.443,1.171Z" transform="translate(-169.614 -141.83)"/><path class="a" d="M256.753,209.284a.773.773,0,0,1-.633-.222,1.073,1.073,0,0,1-.222-.7.985.985,0,0,1,.253-.7.763.763,0,0,1,.57-.222.877.877,0,0,1,.285.032.95.95,0,0,1,.253.127.5.5,0,0,1,.158.253,1.181,1.181,0,0,1,.063.38v.222h-1.235a.6.6,0,0,0,.158.412.548.548,0,0,0,.412.158.678.678,0,0,0,.57-.222v.285a.89.89,0,0,1-.633.19Zm-.538-1.045h.918v-.032c0-.317-.158-.475-.443-.475a.389.389,0,0,0-.317.158.516.516,0,0,0-.158.364Z" transform="translate(-174.874 -141.759)"/><path class="a" d="M262,209.149v-1.741h.285l.032.253a.317.317,0,0,1,.127-.222.361.361,0,0,1,.253-.1.342.342,0,0,1,.19.032v.285a.46.46,0,0,0-.222-.063.45.45,0,0,0-.19.063.317.317,0,0,0-.127.158v1.267H262Z" transform="translate(-179.045 -141.688)"/><path class="a" d="M266.153,209.284a.773.773,0,0,1-.633-.222,1.073,1.073,0,0,1-.222-.7.985.985,0,0,1,.253-.7.763.763,0,0,1,.57-.222.876.876,0,0,1,.285.032.949.949,0,0,1,.253.127.5.5,0,0,1,.158.253,1.181,1.181,0,0,1,.063.38v.222h-1.235a.6.6,0,0,0,.158.412.548.548,0,0,0,.412.158.678.678,0,0,0,.57-.222v.285A.95.95,0,0,1,266.153,209.284Zm-.538-1.045h.918v-.032c0-.317-.158-.475-.443-.475a.389.389,0,0,0-.317.158.516.516,0,0,0-.158.364Z" transform="translate(-181.298 -141.759)"/><path class="a" d="M271.719,207.988a.693.693,0,0,1-.538-.222,1.039,1.039,0,0,1-.19-.665.925.925,0,0,1,.222-.7.741.741,0,0,1,.57-.253c.222,0,.348.032.412.127v-.728h.317v2.375h-.317l-.032-.158a.317.317,0,0,1-.19.158A.6.6,0,0,1,271.719,207.988Zm.507-.475v-.95a.431.431,0,0,0-.38-.158.364.364,0,0,0-.348.19.8.8,0,0,0-.127.507c0,.412.158.633.475.633a.6.6,0,0,0,.253-.063.554.554,0,0,0,.127-.158Z" transform="translate(-185.186 -140.463)"/><path class="a" d="M280.56,207.988a.494.494,0,0,1-.443-.19l-.063.127H279.8V205.55h.317v.792a.317.317,0,0,1,.19-.158.95.95,0,0,1,.317-.063c.475,0,.728.285.728.887a.924.924,0,0,1-.222.7A.83.83,0,0,1,280.56,207.988Zm-.412-1.393v.95a.431.431,0,0,0,.38.158.453.453,0,0,0,.38-.19.8.8,0,0,0,.127-.507c0-.412-.158-.633-.475-.633a.6.6,0,0,0-.253.063.374.374,0,0,0-.158.158Z" transform="translate(-191.209 -140.463)"/><path class="a" d="M285.617,210.059a.386.386,0,0,1-.285-.095v-.269a.345.345,0,0,0,.285.127c.158,0,.317-.127.412-.38L285.3,207.7h.348l.507,1.33.38-1.33h.317l-.507,1.615a1.2,1.2,0,0,1-.285.57A.576.576,0,0,1,285.617,210.059Z" transform="translate(-194.967 -141.933)"/><path class="a" d="M329.191,202.6v4.243h-.728v-3.325h0l-1.33,3.325h-.475l-1.362-3.325h0v3.325h-.7V202.6h1.045l1.235,3.135h.032l1.3-3.135Zm.6.348a.317.317,0,0,1,.127-.285.563.563,0,0,1,.317-.127.405.405,0,0,1,.317.127.386.386,0,0,1,.127.285.317.317,0,0,1-.127.285.564.564,0,0,1-.317.127.405.405,0,0,1-.317-.127A.387.387,0,0,1,329.793,202.949Zm.792.855v3.04h-.728V203.8Zm2.185,2.533a1.633,1.633,0,0,0,.348-.063,3.452,3.452,0,0,0,.348-.19v.665a1.936,1.936,0,0,1-.38.158,2.446,2.446,0,0,1-.475.063,1.5,1.5,0,0,1-1.108-.412,1.431,1.431,0,0,1-.412-1.077,1.76,1.76,0,0,1,.443-1.2,1.552,1.552,0,0,1,1.2-.475,1.854,1.854,0,0,1,.412.063.735.735,0,0,1,.317.127v.7a.754.754,0,0,0-.348-.19,1.346,1.346,0,0,0-.348-.063.931.931,0,0,0-.7.285,1.131,1.131,0,0,0-.253.728,1.067,1.067,0,0,0,.253.728,1.51,1.51,0,0,0,.7.158Zm2.755-2.565h.158c.063,0,.095.032.127.032v.728a.241.241,0,0,0-.158-.063.633.633,0,0,0-.253-.032.513.513,0,0,0-.443.222,1.077,1.077,0,0,0-.19.7v1.551h-.728v-3.04h.728v.475h0a.864.864,0,0,1,.285-.38.545.545,0,0,1,.475-.174Zm.285,1.615a1.637,1.637,0,0,1,.412-1.2,1.583,1.583,0,0,1,1.172-.443,1.412,1.412,0,0,1,1.108.412,1.668,1.668,0,0,1,.412,1.14,1.558,1.558,0,0,1-.412,1.172,1.583,1.583,0,0,1-1.171.443,1.533,1.533,0,0,1-1.14-.412A1.665,1.665,0,0,1,335.808,205.387Zm.76-.032a1,1,0,0,0,.222.728.833.833,0,0,0,.633.253.763.763,0,0,0,.6-.253,1.216,1.216,0,0,0,.19-.76,1,1,0,0,0-.222-.728.842.842,0,0,0-1.2,0,1.143,1.143,0,0,0-.222.776Zm3.451-.728a.361.361,0,0,0,.1.253,1.828,1.828,0,0,0,.443.222,1.972,1.972,0,0,1,.6.38.744.744,0,0,1,.158.507.855.855,0,0,1-.317.7,1.472,1.472,0,0,1-.887.253,1.949,1.949,0,0,1-.412-.032,1.068,1.068,0,0,1-.38-.127v-.7a2.616,2.616,0,0,0,.412.222,1.093,1.093,0,0,0,.412.1.849.849,0,0,0,.348-.063.266.266,0,0,0,.127-.222.288.288,0,0,0-.127-.253,1.416,1.416,0,0,0-.443-.222,1.288,1.288,0,0,1-.57-.38.905.905,0,0,1-.158-.538.757.757,0,0,1,.317-.665,1.266,1.266,0,0,1,.855-.253,1.418,1.418,0,0,1,.348.032,1.966,1.966,0,0,1,.317.095v.7a.991.991,0,0,0-.317-.158,1.581,1.581,0,0,0-.38-.063.472.472,0,0,0-.317.095C340.051,204.469,340.02,204.532,340.02,204.627Zm1.615.76a1.637,1.637,0,0,1,.412-1.2,1.583,1.583,0,0,1,1.171-.443,1.412,1.412,0,0,1,1.108.412,1.669,1.669,0,0,1,.412,1.14,1.558,1.558,0,0,1-.412,1.172,1.583,1.583,0,0,1-1.172.443,1.377,1.377,0,0,1-1.52-1.52Zm.76-.032a1,1,0,0,0,.222.728.833.833,0,0,0,.633.253.763.763,0,0,0,.6-.253,1.216,1.216,0,0,0,.19-.76,1,1,0,0,0-.222-.728.842.842,0,0,0-1.2,0,1.143,1.143,0,0,0-.222.776Zm4.749-.95h-1.077v2.47h-.728v-2.454h-.507v-.6h.507v-.412a1.051,1.051,0,0,1,.317-.792,1.184,1.184,0,0,1,.792-.317h.222c.063,0,.127.032.19.032v.633c-.032,0-.063-.032-.127-.063a.4.4,0,0,0-.19-.032.434.434,0,0,0-.348.127.538.538,0,0,0-.127.412v.38h1.077v-.7l.728-.222v.918h.728v.6h-.728v1.425a.718.718,0,0,0,.095.412.484.484,0,0,0,.317.127.345.345,0,0,0,.158-.032c.063-.032.1-.032.158-.063v.6a.37.37,0,0,1-.222.063,1.076,1.076,0,0,1-.317.032.811.811,0,0,1-.665-.253,1,1,0,0,1-.222-.728v-1.551Z" transform="translate(-221.824 -138.242)"/><rect class="b" width="3.356" height="3.356" transform="translate(93.562 62.965)"/><rect class="c" width="3.356" height="3.356" transform="translate(97.267 62.965)"/><rect class="d" width="3.356" height="3.356" transform="translate(93.562 66.67)"/><rect class="e" width="3.356" height="3.356" transform="translate(97.267 66.67)"/><g transform="translate(69.581 3.041)"><path class="a" d="M219.76,63.812V9.6h5.307V63.812Z" transform="translate(-219.76 -9.6)"/></g><line class="f" x2="127.979" transform="translate(0 59.498)"/><path class="g" d="M90.3,63.806l8.992-.032L118.8,34.36V63.774h7.472V9.6Z" transform="translate(-61.709 -6.559)"/><path class="a" d="M1.6,165.951V160.6H5.368l-.348,1.077H2.9v1.013h1.52v1.045H2.9v1.14H5.02l.348,1.077Z" transform="translate(-1.093 -109.746)"/><path class="a" d="M16.088,165.951v-4.243H14.6V160.6H19l-.348,1.108H17.386v4.243Z" transform="translate(-9.977 -109.746)"/><path class="a" d="M30.2,165.951V160.6h1.3v5.351Z" transform="translate(-20.638 -109.746)"/><path class="a" d="M37.6,165.951V160.6h1.3v5.351Zm3.293,0v-2.185h-1.3l-.633-1.108h1.963V160.6h1.3v5.351Z" transform="translate(-25.695 -109.746)"/><path class="a" d="M53.8,165.951l2.185-5.351H56.9c.855,2.058,1.551,3.831,2.153,5.351H57.694l-.38-.95h-1.2l-.348-.918-.7,1.868Zm2.438-3.071-.443,1.2H57l-.443-1.2-.158-.443Z" transform="translate(-36.766 -109.746)"/><path class="a" d="M72.2,165.938v-5.351h1.741a3.388,3.388,0,0,1,2.185.633,2.543,2.543,0,0,1,.728,2.026,3.226,3.226,0,0,1-.222,1.266,1.862,1.862,0,0,1-.633.823,3.084,3.084,0,0,1-.918.443,4.31,4.31,0,0,1-1.14.158Zm1.3-1.077h.412a1.7,1.7,0,0,0,1.2-.348,2.251,2.251,0,0,0,0-2.406,1.564,1.564,0,0,0-1.2-.38H73.5Z" transform="translate(-49.34 -109.733)"/><path class="a" d="M258.634,1.644a5.13,5.13,0,0,1,.7.032c.095,0,.158.032.253.032.158.032.285.032.412.063s.19.032.285.063l.38.095.285.095c.127.032.222.095.348.127a1.124,1.124,0,0,1,.285.127c.127.063.222.095.348.158a1.866,1.866,0,0,0,.253.127c.095.032.253.158.38.222.063.032.095.063.158.095a6.832,6.832,0,0,1,1.045.855l.032.032a5.5,5.5,0,0,1,.412.475c.032.032.032.063.063.095l.348.443c.032.032.063.095.095.127.1.158.19.285.285.443.032.063.063.095.063.158.063.158.158.285.222.443.032.063.063.095.063.158a2.786,2.786,0,0,1,.158.475c.032.063.032.127.063.19a2.374,2.374,0,0,1,.127.507c0,.063.032.095.032.158a7.156,7.156,0,0,1-1.3,5.731.792.792,0,1,0,1.266.95,8.783,8.783,0,0,0,1.773-5.288,2.394,2.394,0,0,0-.032-.475,5.978,5.978,0,0,1,4.021,5.668,5.151,5.151,0,0,1-.1.982c0,.032-.032.063-.032.095a5.877,5.877,0,0,1-1.14,2.565V17.7a5.924,5.924,0,0,1-2.976,2.058.82.82,0,0,0-.538,1.013.795.795,0,0,0,1.013.538,7.722,7.722,0,0,0,3.261-1.995,6.573,6.573,0,0,1,2.121,4.749,6.672,6.672,0,0,1-.063.792c0,.095-.032.158-.032.253a3.31,3.31,0,0,1-.127.538c-.032.095-.032.19-.063.253-.063.222-.158.443-.222.633a3.086,3.086,0,0,0-.158.348c-.063.095-.1.19-.158.285a4.037,4.037,0,0,0-.222.38c-.032.063-.095.127-.158.222a4.63,4.63,0,0,1-.507.6,1.461,1.461,0,0,1-.222.222,2.846,2.846,0,0,1-.317.285c-.127.095-.222.19-.348.285s-.19.158-.285.222c-.19.127-.38.222-.57.348a6.333,6.333,0,0,1-2.945.728.792.792,0,1,0,0,1.583,8.34,8.34,0,0,0,2.786-.507,5.382,5.382,0,0,1,.412,2.121,5.6,5.6,0,0,1-10.449,2.818.795.795,0,0,0-1.393,0,.785.785,0,0,0,0,.792,7.235,7.235,0,0,0,5.414,3.546,6.016,6.016,0,0,1-12-.348V35.522l3.483-4.844,2.945,1.3V32.1a2.438,2.438,0,1,0,.633-1.583l-2.913-1.266a1.419,1.419,0,0,0-.633-.127,1.605,1.605,0,0,0-1.3.665l-2.185,3.04v-6.3h6.554a2.349,2.349,0,0,0,2.66,1.551,2.413,2.413,0,0,0,1.995-2.375,2.438,2.438,0,0,0-1.995-2.375,2.384,2.384,0,0,0-2.66,1.551h-6.554V21.622h1.741a2.349,2.349,0,0,0,2.66,1.551,2.406,2.406,0,1,0-2.66-3.2h-1.741V16.841h6.554a1.624,1.624,0,0,0,1.583-1.3l.57-2.818a2.409,2.409,0,0,0,1.678-2.565,2.381,2.381,0,1,0-3.293,2.47l-.507,2.6H251.51v-6.4a7.089,7.089,0,0,1,7.124-7.187Zm.792,30.364a.792.792,0,1,1,.792.792A.8.8,0,0,1,259.425,32.008Zm0-6.4a.792.792,0,1,1,.792.792.8.8,0,0,1-.792-.792Zm-4.781-4.781a.785.785,0,1,1,.23.562A.792.792,0,0,1,254.644,20.831Zm3.989-10.385a.785.785,0,1,1,.23.562A.792.792,0,0,1,258.634,10.446Zm-8.8,19.092V40.367a7.6,7.6,0,0,0,2.818,5.889l2.28,1.266A7.6,7.6,0,0,0,265,40.715l.57-.095a.117.117,0,0,0,.095-.032,5.064,5.064,0,0,0,.665-.158.45.45,0,0,1,.19-.063c.158-.063.285-.095.443-.158.1-.032.158-.063.253-.095l.38-.19c.1-.032.158-.095.253-.127s.222-.127.348-.19a1.342,1.342,0,0,0,.222-.158l.317-.222c.063-.063.158-.127.222-.19s.19-.158.285-.253l.222-.222c.1-.095.158-.19.253-.285s.127-.158.19-.222a2.232,2.232,0,0,0,.222-.285,1.111,1.111,0,0,0,.158-.253c.063-.095.127-.222.19-.317s.095-.158.158-.253a1.7,1.7,0,0,0,.158-.348,1.878,1.878,0,0,1,.127-.253,1.789,1.789,0,0,0,.127-.38l.1-.285c.032-.127.063-.253.095-.412.032-.095.032-.19.063-.253a2.443,2.443,0,0,0,.063-.475c0-.063.032-.158.032-.222a5.127,5.127,0,0,0,.032-.7,7.229,7.229,0,0,0-.57-2.818c.063-.032.095-.063.158-.095l.38-.285a8.7,8.7,0,0,0,.823-.7l.1-.095a5.514,5.514,0,0,0,.412-.475c.032-.063.095-.095.127-.158.127-.158.253-.348.38-.507.032-.063.063-.095.095-.158a7.09,7.09,0,0,0,.823-1.71,1.815,1.815,0,0,0,.127-.443c.032-.127.063-.253.1-.412l.095-.57c.032-.095.032-.222.063-.317a.876.876,0,0,0,.032-.285v-.032a3.834,3.834,0,0,0,.032-.6,7.843,7.843,0,0,0-2.723-5.984,7.958,7.958,0,0,0,.823-1.836c0-.032.032-.063.032-.095a4.3,4.3,0,0,0,.19-.918.286.286,0,0,1,.032-.158c.032-.317.063-.633.063-.95a7.6,7.6,0,0,0-5.889-7.409c-.032-.095-.063-.158-.095-.253a.742.742,0,0,1-.063-.253,4.234,4.234,0,0,0-.222-.57c-.032-.063-.032-.127-.063-.19a8.768,8.768,0,0,0-1.266-2.09.437.437,0,0,1-.1-.127,6.084,6.084,0,0,0-.443-.475l-.158-.158a5.512,5.512,0,0,0-.443-.38c-.063-.063-.127-.095-.19-.158-.158-.127-.317-.222-.475-.348-.063-.032-.127-.095-.19-.127a7.563,7.563,0,0,0-.665-.412c-.032-.032-.095-.032-.127-.063l-.57-.285A1.124,1.124,0,0,1,261.768.6a2.481,2.481,0,0,0-.443-.158c-.095-.032-.222-.063-.317-.095-.158-.032-.317-.095-.443-.127a1.124,1.124,0,0,0-.317-.063C260.09.124,259.9.092,259.71.06c-.095,0-.19-.032-.285-.032A7.155,7.155,0,0,0,258.6,0a8.577,8.577,0,0,0-3.356.665L253.314,1.77a8.713,8.713,0,0,0-3.514,7v20.77Zm0-9.435v7.821" transform="translate(-170.708 0.004)"/><path class="a" d="M242.3,164.262l3.135-7.662h1.33c1.2,2.945,2.248,5.509,3.071,7.662h-1.963l-.538-1.361h-1.741l-.507-1.33-1.013,2.691Zm3.451-4.433-.665,1.71h1.741l-.665-1.71-.222-.665Z" transform="translate(-165.582 -107.013)"/><path class="a" d="M271.236,164.106a3.681,3.681,0,0,1-2.755-1.013,4.239,4.239,0,0,1-.982-3.008,3.981,3.981,0,0,1,1.045-2.945,4.181,4.181,0,0,1,4.876-.475v1.868a2.432,2.432,0,0,0-1.963-.855,1.871,1.871,0,0,0-1.52.6,2.6,2.6,0,0,0-.538,1.741,2.85,2.85,0,0,0,.538,1.8,1.8,1.8,0,0,0,1.52.633,2.482,2.482,0,0,0,1.963-.76v1.71a2.612,2.612,0,0,1-.887.507A4.29,4.29,0,0,1,271.236,164.106Z" transform="translate(-182.803 -106.667)"/><path class="a" d="M287.7,164.262l3.135-7.662h1.33c1.2,2.945,2.248,5.509,3.071,7.662H293.3l-.538-1.361h-1.741l-.507-1.33-1.013,2.691Zm3.483-4.433-.665,1.71h1.741l-.665-1.71-.222-.665Z" transform="translate(-196.608 -107.013)"/><path class="a" d="M314,164.262V156.6h2.47a4.771,4.771,0,0,1,3.1.887,3.584,3.584,0,0,1,1.045,2.913,4.486,4.486,0,0,1-.317,1.8,2.919,2.919,0,0,1-.887,1.2,3.8,3.8,0,0,1-1.3.633,6.472,6.472,0,0,1-1.646.222Zm1.9-1.551h.6a2.338,2.338,0,0,0,1.741-.507,2.547,2.547,0,0,0,.475-1.741,1.917,1.917,0,0,0-2.248-2.28h-.6v4.528Z" transform="translate(-214.58 -107.013)"/><path class="a" d="M338.6,164.262V156.6h5.383l-.475,1.551H340.5v1.425h2.185v1.488H340.5v1.646h3.008l.475,1.551Z" transform="translate(-231.391 -107.013)"/><path class="a" d="M358.9,164.262V156.6h1.678l2.343,3.293,2.185-3.293h1.678v7.662h-1.9v-4.749l-1.963,2.913h-.095l-2.026-2.913v4.749Z" transform="translate(-245.264 -107.013)"/><path class="a" d="M388.565,164.262v-3.1L386,156.6h2.121l1.488,2.881,1.52-2.881h1.9l-2.565,4.559v3.1Z" transform="translate(-263.784 -107.013)"/></g></g></svg>