<svg xmlns="http://www.w3.org/2000/svg" width="85.072" height="65.275" viewBox="0 0 85.072 65.275"><defs><style>.a{fill:#e23f24;}.b{fill:#ab2524;}.c{fill:#f37e2f;}.d{fill:#f4a071;}.e{fill:#eb5626;}.f{fill:#f6a52a;}.g{fill:#ef6f26;}.h{fill:#dd4f99;}.i{fill:#e93425;}.j{fill:#db2b26;}.k{fill:#c82828;}.l{fill:#c53427;}</style></defs><g transform="translate(954 1351.735)"><path class="a" d="M-908.754-1247.735v27.924h30.826v-7.705h-4.324V-1238.6h-7.991v-4.807h-2.806v-4.33Z" transform="translate(9 -104)"/><g transform="translate(-954 -1351.735)"><path d="M.065,277.26l1.873-.162.362-.427V258.643H0v-1.575l6.074-1.946H7.784v2.2c3.019-1.774,4.2-2.233,5.747-2.233,3.611,0,6.368,3.415,6.368,7.915,0,5.259-3.775,8.773-9.358,8.773-.649,0-1.708-.066-2.757-.162v5.058l.426.426,2.168.162L10.312,279H.065Zm7.719-7.522a4.735,4.735,0,0,0,.887.066c3.383,0,5.189-2.108,5.189-6.042,0-3.35-1.476-5.124-4.2-5.124a12.862,12.862,0,0,0-1.875.167Z" transform="translate(0 -213.725)"/><path d="M127.6,255.2a16.649,16.649,0,0,1,.428,2.789l.362,8.015,4.8-9.066v-.95l4.956-.394.628,12.476,4.236-5.878-.919-6.042a3.358,3.358,0,0,1,2.528-1.051,2.483,2.483,0,0,1,2.692,2.562c0,1.609-.884,3.512-3.081,6.566-.691.952-2.726,3.48-6.078,7.553h-3.877l-.756-11.3-6.141,11.3H123.2l.324-1.479L123,258.421l-3.243-.524v-1.312L125.7,255.2Z" transform="translate(-100.34 -213.734)"/><path d="M299.621,256.767c-2.791.426-4.236,2.5-4.236,6.076,0,3.611,1.935,6,4.827,6,1.377,0,2.627-.425,5.189-1.675v2.919a16.084,16.084,0,0,1-7.459,1.839,8.088,8.088,0,0,1-6.2-2.3,8.263,8.263,0,0,1-2.4-5.976c0-5.157,3.872-8.669,9.556-8.669,3.775,0,6.368,1.708,6.368,4.171a2.723,2.723,0,0,1-3.021,2.724,4.862,4.862,0,0,1-2.625-.786Z" transform="translate(-242.421 -213.633)"/><rect class="b" width="16.067" height="4.236" transform="translate(38.169 27.893)"/><rect class="c" width="15.713" height="3.355" transform="translate(54.232)"/><rect class="d" width="2.914" height="4.853" transform="translate(69.945 3.355)"/><rect class="e" width="15.713" height="4.853" transform="translate(54.232 3.355)"/><rect class="f" width="7.942" height="12.003" transform="translate(72.857 8.208)"/><rect class="g" width="2.914" height="12.003" transform="translate(69.945 8.208)"/><path class="a" d="M344.15,62.633h6v-12H334.44v8.032h9.71Z" transform="translate(-280.208 -42.42)"/><rect class="h" width="4.236" height="7.681" transform="translate(80.802 20.211)"/><rect class="i" width="7.942" height="7.681" transform="translate(72.857 20.211)"/><rect class="j" width="2.914" height="7.681" transform="translate(69.945 20.211)"/><rect class="k" width="6.003" height="7.681" transform="translate(63.942 20.211)"/><rect class="l" width="9.71" height="3.973" transform="translate(54.232 16.242)"/><rect class="b" width="9.71" height="7.681" transform="translate(54.232 20.211)"/></g></g></svg>