<?xml version="1.0" encoding="utf-8"?>
<!-- Generator: Adobe Illustrator 17.0.0, SVG Export Plug-In . SVG Version: 6.00 Build 0)  -->
<!DOCTYPE svg PUBLIC "-//W3C//DTD SVG 1.1//EN" "http://www.w3.org/Graphics/SVG/1.1/DTD/svg11.dtd">
<svg version="1.1" id="Слой_1" xmlns="http://www.w3.org/2000/svg" xmlns:xlink="http://www.w3.org/1999/xlink" x="0px" y="0px"
	 width="277.256px" height="80.25px" viewBox="0 0 277.256 80.25" enable-background="new 0 0 277.256 80.25" xml:space="preserve">
<g>
	<rect id="XMLID_74_" x="0.125" y="0.125" fill="#75B35F" width="80.957" height="80"/>
	<g id="XMLID_98_">
		<polygon id="XMLID_73_" fill="#F2F3F4" points="26.404,24.688 28.259,31.793 33.229,34.317 40.546,37.803 36.353,22.274 		"/>
		<polygon id="XMLID_72_" fill="#B7B7B7" points="22.782,34.377 28.259,31.793 26.404,24.688 		"/>
		<polygon id="XMLID_71_" fill="#D1D1D1" points="15.307,39.559 22.782,34.377 10.192,34.291 		"/>
		<polygon id="XMLID_70_" fill="#B9B9B9" points="44.853,22.274 40.546,37.803 47.729,34.317 52.865,31.719 54.723,24.668 		"/>
		<polygon id="XMLID_69_" fill="#F2F3F4" points="52.865,31.719 59.42,34.317 54.723,24.668 		"/>
		<polygon id="XMLID_68_" fill="#E4E4E5" points="36.353,22.274 40.546,37.803 44.853,22.274 		"/>
		<polygon id="XMLID_67_" fill="#D1D1D1" points="59.42,34.317 65.793,39.328 70.844,34.232 		"/>
		<polygon id="XMLID_66_" fill="#E4E4E5" points="30.788,44.536 40.554,51.59 40.619,42.44 		"/>
		<polygon id="XMLID_65_" fill="#B9B9B9" points="24.339,48.509 30.91,55.16 40.554,51.59 30.788,44.536 		"/>
		<polygon id="XMLID_64_" fill="#E4E4E5" points="40.619,42.44 40.554,51.59 50.292,44.501 		"/>
		<polygon id="XMLID_63_" fill="#F2F3F4" points="50.292,44.501 40.554,51.59 50.18,55.079 56.836,48.548 		"/>
		<polygon id="XMLID_62_" fill="#3F3F3F" points="59.43,34.312 50.229,44.569 56.675,48.543 65.858,39.361 		"/>
		<polygon id="XMLID_61_" fill="#494949" points="33.239,34.312 28.269,31.787 30.724,44.605 40.555,42.509 40.556,37.798 		"/>
		<polygon id="XMLID_60_" fill="#2B2E2E" points="15.317,39.555 24.323,48.57 30.724,44.605 22.792,34.372 		"/>
		<polygon id="XMLID_59_" fill="#1C1F1E" points="22.792,34.372 30.724,44.605 28.269,31.787 		"/>
		<polygon id="XMLID_58_" fill="#494949" points="52.875,31.714 50.229,44.569 59.43,34.312 		"/>
		<polygon id="XMLID_57_" fill="#1C1F1E" points="47.739,34.312 40.556,37.798 40.555,42.509 50.229,44.569 52.875,31.714 		"/>
		<polygon id="XMLID_56_" fill="#1C1F1E" points="30.793,55.144 40.555,64.977 40.554,51.59 		"/>
		<polygon id="XMLID_55_" fill="#55565A" points="40.554,51.59 40.555,64.977 50.317,55.129 		"/>
		<polygon id="XMLID_54_" fill="none" points="62.457,25.823 62.107,25.758 62.457,25.823 54.734,18.081 54.723,24.668 
			54.671,24.655 54.83,24.887 54.671,24.655 44.861,22.275 44.824,22.377 44.861,22.275 44.853,22.274 36.353,22.274 36.303,22.286 
			36.441,22.596 36.303,22.286 26.526,24.659 26.289,24.996 26.526,24.659 26.416,24.686 26.402,18.027 18.528,25.927 
			18.813,25.881 18.528,25.927 10.192,34.291 10.203,34.301 10.593,34.291 10.203,34.301 15.388,39.524 15.571,39.379 
			15.388,39.524 24.312,48.514 24.593,48.353 24.312,48.514 30.891,55.141 31.278,55.024 30.891,55.141 40.512,64.833 
			40.554,64.791 40.554,64.71 40.554,64.791 50.188,55.071 50.027,55.024 50.188,55.071 56.725,48.477 56.52,48.353 56.725,48.477 
			65.805,39.316 65.591,39.152 65.805,39.316 70.842,34.235 70.739,34.232 70.842,34.235 70.844,34.232 		"/>
		<polygon id="XMLID_53_" fill="#D1D1D1" points="26.402,18.027 18.527,25.928 26.404,24.643 		"/>
		<polygon id="XMLID_52_" fill="#E4E4E5" points="18.527,25.928 10.192,34.291 22.782,34.377 26.404,24.688 26.404,24.643 		"/>
		<polygon id="XMLID_51_" fill="#D1D1D1" points="54.734,18.081 54.723,24.648 62.474,25.84 		"/>
		<polygon id="XMLID_50_" fill="#E4E4E5" points="62.474,25.84 54.723,24.648 54.723,24.668 59.42,34.317 70.844,34.232 		"/>
		<polygon id="XMLID_49_" fill="#FFFFFF" points="26.404,24.329 28.259,31.433 33.229,33.958 40.546,37.444 36.353,21.914 		"/>
		<polygon id="XMLID_48_" fill="#B7B7B7" points="22.782,34.018 28.259,31.433 26.404,24.329 		"/>
		<polygon id="XMLID_47_" fill="#C6C6C6" points="15.307,39.2 22.782,34.018 10.192,33.932 		"/>
		<polygon id="XMLID_46_" fill="#B9B9B9" points="44.853,21.914 40.546,37.444 47.729,33.958 52.865,31.359 54.723,24.309 		"/>
		<polygon id="XMLID_45_" fill="#FFFFFF" points="52.865,31.359 59.42,33.958 54.723,24.309 		"/>
		<polygon id="XMLID_44_" fill="#E4E4E5" points="36.353,21.914 40.546,37.444 44.853,21.914 		"/>
		<polygon id="XMLID_43_" fill="#C6C6C6" points="59.42,33.958 65.793,38.969 70.844,33.873 		"/>
		<polygon id="XMLID_42_" fill="#E4E4E5" points="30.788,44.177 40.554,51.231 40.619,42.081 		"/>
		<polygon id="XMLID_41_" fill="#B9B9B9" points="24.339,48.15 30.91,54.801 40.554,51.231 30.788,44.177 		"/>
		<polygon id="XMLID_40_" fill="#E4E4E5" points="40.619,42.081 40.554,51.231 50.292,44.142 		"/>
		<polygon id="XMLID_39_" fill="#FFFFFF" points="50.292,44.142 40.554,51.231 50.18,54.72 56.836,48.189 		"/>
		<polygon id="XMLID_38_" fill="#46474A" points="59.43,33.953 50.229,44.21 56.675,48.183 65.858,39.002 		"/>
		<polygon id="XMLID_37_" fill="#464749" points="33.239,33.953 28.269,31.428 30.724,44.245 40.555,42.15 40.556,37.439 		"/>
		<polygon id="XMLID_36_" fill="#191C1A" points="15.317,39.196 24.323,48.211 30.724,44.245 22.792,34.013 		"/>
		<polygon id="XMLID_35_" fill="#181A19" points="22.792,34.013 30.724,44.245 28.269,31.428 		"/>
		<polygon id="XMLID_34_" fill="#393B3C" points="52.875,31.354 50.229,44.21 59.43,33.953 		"/>
		<polygon id="XMLID_33_" fill="#181A19" points="47.739,33.953 40.556,37.439 40.555,42.15 50.229,44.21 52.875,31.354 		"/>
		<polygon id="XMLID_32_" fill="#181A19" points="30.793,54.784 40.555,64.618 40.554,51.231 		"/>
		<polygon id="XMLID_31_" fill="#46474A" points="40.554,51.231 40.555,64.618 50.317,54.769 		"/>
		<polygon id="XMLID_30_" fill="none" points="62.457,25.464 62.107,25.399 62.457,25.464 54.734,17.722 54.723,24.309 
			54.671,24.296 54.83,24.528 54.671,24.296 44.861,21.916 44.824,22.018 44.861,21.916 44.853,21.914 36.353,21.914 36.303,21.927 
			36.441,22.237 36.303,21.927 26.526,24.3 26.289,24.636 26.526,24.3 26.416,24.327 26.402,17.667 18.528,25.568 18.813,25.522 
			18.528,25.568 10.192,33.932 10.203,33.942 10.593,33.932 10.203,33.942 15.388,39.165 15.571,39.02 15.388,39.165 24.312,48.155 
			24.593,47.994 24.312,48.155 30.891,54.782 31.278,54.664 30.891,54.782 40.512,64.473 40.554,64.431 40.554,64.351 
			40.554,64.431 50.188,54.712 50.027,54.664 50.188,54.712 56.725,48.117 56.52,47.994 56.725,48.117 65.805,38.957 65.591,38.792 
			65.805,38.957 70.842,33.875 70.739,33.873 70.842,33.875 70.844,33.873 		"/>
		<polygon id="XMLID_29_" fill="#393B3C" points="36.353,21.914 44.853,21.914 44.861,21.916 45.451,20.273 45.447,20.272 
			35.583,20.303 36.303,21.927 		"/>
		<polygon id="XMLID_28_" fill="#464749" points="70.844,33.873 70.842,33.875 73.383,33.948 65.475,26.024 62.457,25.464 		"/>
		<polygon id="XMLID_27_" fill="#464749" points="54.671,24.296 53.009,21.874 53.009,21.914 45.451,20.273 44.861,21.916 		"/>
		<polygon id="XMLID_26_" fill="#181A19" points="54.723,24.309 54.734,17.722 62.457,25.464 65.475,26.024 53.008,13.531 
			53.009,21.874 54.671,24.296 		"/>
		<polygon id="XMLID_25_" fill="#46474A" points="40.554,64.431 40.554,66.746 40.564,66.756 52.055,55.27 50.188,54.712 		"/>
		<polygon id="XMLID_24_" fill="#46474A" points="73.383,33.948 70.842,33.875 65.805,38.957 56.725,48.117 50.188,54.712 
			52.055,55.27 58.273,49.054 67.259,40.072 73.384,33.949 		"/>
		<polygon id="XMLID_23_" fill="#181A19" points="40.554,64.431 40.512,64.473 30.891,54.782 24.312,48.155 15.388,39.165 
			10.192,33.932 7.823,34.006 14.041,40.234 22.82,49.013 29.124,55.317 40.554,66.746 		"/>
		<polygon id="XMLID_22_" fill="#C6C6C6" points="26.475,17.714 18.56,25.6 26.436,24.316 		"/>
		<polygon id="XMLID_21_" fill="#DBDADB" points="18.527,25.568 10.192,33.932 22.782,34.018 26.404,24.329 26.404,24.284 		"/>
		<polygon id="XMLID_20_" fill="#C6C6C6" points="54.734,17.722 54.723,24.288 62.474,25.481 		"/>
		<polygon id="XMLID_19_" fill="#E9E8E9" points="62.474,25.481 54.723,24.288 54.723,24.309 59.42,33.958 70.844,33.873 		"/>
		<polygon id="XMLID_18_" fill="#464749" points="10.192,33.932 18.562,25.563 15.817,26.012 7.823,34.006 10.203,33.942 		"/>
		<polygon id="XMLID_17_" fill="#181A19" points="35.583,20.303 35.475,20.303 28.225,21.914 28.225,21.891 28.332,13.494 
			15.817,26.012 18.562,25.563 26.43,17.695 26.416,24.327 26.526,24.3 36.303,21.927 		"/>
	</g>
	<g id="XMLID_76_">
		<path id="XMLID_95_" fill="#393B3C" d="M96.757,26.12c0.455-0.11,1.113-0.595,1.975-1.458c1.246-1.254,1.869-2.767,1.869-4.538
			c0-1.756-0.623-3.26-1.869-4.515c-1.042-1.042-2.32-1.665-3.833-1.869h-5.338v18.811h2.434v-6.02h2.222l2.741,4.385
			c0.661-0.496,1.345-0.938,2.05-1.328L96.757,26.12z M91.995,24.086v-7.9h2.222c1.082,0,2.008,0.384,2.781,1.152
			c0.772,0.768,1.158,1.697,1.158,2.786c0,1.097-0.386,2.032-1.158,2.804c-0.772,0.772-1.699,1.158-2.781,1.158
			C94.217,24.086,91.995,24.086,91.995,24.086z"/>
		<path id="XMLID_92_" fill="#393B3C" d="M117.084,13.74l-5.188,14.261c0.777,0.203,1.546,0.466,2.308,0.782l1.046-2.887h4.985
			l2.422,6.654h2.587L118.4,13.74H117.084z M116.143,23.463l1.599-4.409l1.611,4.409H116.143z"/>
		<path id="XMLID_12_" fill="#393B3C" d="M150.473,28.072c-1.677,1.489-3.425,2.234-5.243,2.234c-1.968,0-3.651-0.697-5.049-2.092
			c-1.399-1.395-2.099-3.084-2.099-5.067c0-1.975,0.7-3.66,2.099-5.055s3.082-2.093,5.049-2.093c1.818,0,3.566,0.745,5.243,2.234
			l1.822-1.658c-2.226-2.03-4.581-3.045-7.066-3.045c-2.657,0-4.922,0.941-6.796,2.822c-1.873,1.881-2.81,4.146-2.81,6.796
			c0,2.657,0.937,4.922,2.81,6.795c1.873,1.873,4.138,2.81,6.796,2.81c2.424,0,4.723-0.973,6.901-2.905l0.079-0.217L150.473,28.072z
			"/>
		<path id="XMLID_11_" fill="#393B3C" d="M172.857,15.997c1.818,0,3.566,0.745,5.244,2.234l1.822-1.658
			c-2.227-2.03-4.581-3.045-7.066-3.045c-2.657,0-4.922,0.941-6.796,2.822c-1.873,1.881-2.81,4.146-2.81,6.796
			c0,2.657,0.937,4.922,2.81,6.795c1.873,1.873,4.138,2.81,6.796,2.81c2.484,0,4.839-1.015,7.066-3.045l-1.822-1.634
			c-1.678,1.489-3.426,2.234-5.244,2.234c-1.968,0-3.651-0.697-5.049-2.092c-1.399-1.395-2.099-3.084-2.099-5.067
			c0-1.975,0.7-3.66,2.099-5.055C169.207,16.695,170.89,15.997,172.857,15.997z"/>
		<path id="XMLID_87_" fill="#393B3C" d="M240.669,23.122c0-2.657-0.941-4.926-2.822-6.808c-1.881-1.881-4.15-2.821-6.807-2.821
			c-2.657,0-4.926,0.941-6.807,2.821c-1.881,1.881-2.821,4.15-2.821,6.808c0,2.657,0.941,4.926,2.821,6.807
			c1.881,1.881,4.15,2.821,6.807,2.821c2.657,0,4.926-0.941,6.807-2.821C239.728,28.048,240.669,25.779,240.669,23.122z
			 M231.04,30.305c-1.975,0-3.664-0.701-5.067-2.104s-2.104-3.096-2.104-5.078s0.7-3.674,2.098-5.073
			c1.399-1.399,3.09-2.099,5.073-2.099s3.674,0.7,5.073,2.099s2.099,3.09,2.099,5.073s-0.7,3.676-2.099,5.078
			C234.715,29.604,233.023,30.305,231.04,30.305z"/>
		<path id="XMLID_84_" fill="#393B3C" d="M210.137,23.122c0-2.657-0.941-4.926-2.822-6.808c-1.881-1.881-4.15-2.821-6.807-2.821
			c-2.657,0-4.926,0.941-6.807,2.821c-1.881,1.881-2.821,4.15-2.821,6.808c0,2.657,0.941,4.926,2.821,6.807
			c1.881,1.881,4.15,2.821,6.807,2.821c2.657,0,4.926-0.941,6.807-2.821C209.197,28.048,210.137,25.779,210.137,23.122z
			 M200.508,30.305c-1.975,0-3.664-0.701-5.067-2.104s-2.104-3.096-2.104-5.078s0.7-3.674,2.098-5.073
			c1.399-1.399,3.09-2.099,5.073-2.099s3.674,0.7,5.073,2.099s2.099,3.09,2.099,5.073s-0.7,3.676-2.099,5.078
			C204.183,29.604,202.491,30.305,200.508,30.305z"/>
		<path id="XMLID_6_" fill="#393B3C" d="M254.671,18.96l6.728,11.626c0.88,0.576,1.749,1.23,2.608,1.964h0.656V13.74h-2.445v13.426
			L254.46,13.74h-2.222v13.732c0.819,0.039,1.63,0.14,2.433,0.297V18.96z"/>
		<path id="XMLID_5_" fill="#393B3C" d="M107.623,30.847c-3.169,0-6.041,0.714-8.617,2.137c-0.705,0.39-1.389,0.831-2.05,1.328
			c-0.731,0.549-1.435,1.161-2.111,1.84c-3.523,3.537-5.283,7.797-5.283,12.778c0,4.996,1.761,9.256,5.283,12.778
			c3.522,3.523,7.782,5.284,12.778,5.284c4.687,0,8.85-1.739,12.491-5.218V49.196h-4.576v10.678c-2.093,1.68-4.731,2.52-7.914,2.52
			c-3.7,0-6.864-1.312-9.495-3.935c-2.631-2.623-3.946-5.799-3.946-9.528c0-3.714,1.316-6.883,3.946-9.506
			c2.631-2.623,5.796-3.935,9.495-3.935c0.901,0,1.793,0.1,2.676,0.295c0.218,0.048,0.436,0.102,0.652,0.162
			c2.237,0.618,4.414,1.864,6.532,3.743l3.427-3.117c-2.17-1.979-4.406-3.44-6.707-4.393c-0.762-0.316-1.531-0.579-2.308-0.782
			C110.494,31.031,109.07,30.847,107.623,30.847z"/>
		<path id="XMLID_79_" fill="#393B3C" d="M152.854,31.245l-0.647,1.779l-0.079,0.217l-12.14,33.376h4.886l4.532-12.513h9.373
			l4.554,12.513h4.864l-12.866-35.372C155.331,31.245,152.854,31.245,152.854,31.245z M151.086,49.527l3.007-8.29l3.029,8.29
			H151.086z"/>
		<polygon id="XMLID_2_" fill="#393B3C" points="207.04,31.245 207.04,33.575 207.04,56.491 193.568,33.18 192.449,31.245 
			192.102,31.245 188.271,31.245 188.271,66.616 192.847,66.616 192.847,41.06 207.637,66.616 211.638,66.616 211.638,31.245 
			208.911,31.245 		"/>
		<path id="XMLID_75_" fill="#393B3C" d="M259.345,59.873c-2.093,1.68-4.731,2.52-7.914,2.52c-3.699,0-6.864-1.312-9.495-3.935
			s-3.946-5.799-3.946-9.528c0-3.714,1.316-6.883,3.946-9.506c2.631-2.623,5.796-3.935,9.495-3.935c0.269,0,0.537,0.012,0.805,0.029
			c0.819,0.053,1.63,0.186,2.433,0.402c2.268,0.609,4.476,1.865,6.621,3.769l3.427-3.117c-0.236-0.215-0.474-0.423-0.711-0.626
			c-0.859-0.735-1.729-1.389-2.608-1.964c-2.181-1.428-4.424-2.366-6.728-2.818c-0.804-0.157-1.615-0.258-2.433-0.297
			c-0.268-0.013-0.536-0.021-0.805-0.021c-4.996,0-9.256,1.769-12.778,5.306c-3.523,3.537-5.284,7.797-5.284,12.778
			c0,4.996,1.761,9.256,5.284,12.778c3.522,3.523,7.782,5.284,12.778,5.284c4.687,0,8.85-1.739,12.491-5.218V49.196h-4.576v10.677
			H259.345z"/>
	</g>
	
		<rect id="XMLID_77_" x="0.125" y="0.125" fill="none" stroke="#9A9A9C" stroke-width="0.25" stroke-miterlimit="10" stroke-opacity="0" width="277.006" height="80"/>
</g>
</svg>
