<?xml version="1.0" encoding="utf-8"?>
<!-- Generator: Adobe Illustrator 17.0.0, SVG Export Plug-In . SVG Version: 6.00 Build 0)  -->
<!DOCTYPE svg PUBLIC "-//W3C//DTD SVG 1.1//EN" "http://www.w3.org/Graphics/SVG/1.1/DTD/svg11.dtd">
<svg version="1.1" id="Слой_1" xmlns="http://www.w3.org/2000/svg" xmlns:xlink="http://www.w3.org/1999/xlink" x="0px" y="0px"
	 width="157.714px" height="39.047px" viewBox="0 0 157.714 39.047" enable-background="new 0 0 157.714 39.047"
	 xml:space="preserve">
<g>
	<path fill="#FFFFFF" d="M16.222,0.413c0.605,0.22,1.321,0.536,2.146,0.949c0.413,0.138,0.743,0.289,0.991,0.454
		c0.247,0.165,0.454,0.385,0.619,0.66c0.165,0.275,0.31,0.599,0.433,0.971c0.124,0.371,0.254,0.805,0.392,1.3
		c0.138,0.44,0.303,1.046,0.496,1.817c0.192,0.77,0.413,1.61,0.66,2.518c0.248,0.908,0.529,1.844,0.846,2.806
		c0.316,0.964,0.64,1.885,0.97,2.766c0.33,0.881,0.674,1.678,1.032,2.394c0.357,0.716,0.729,1.252,1.115,1.61l1.073-0.331
		c0.165,0,0.336,0.062,0.516,0.186c0.179,0.124,0.413,0.309,0.702,0.557c0.289,0.248,0.646,0.565,1.073,0.949
		c0.426,0.386,0.983,0.84,1.672,1.362c-0.165,0.165-0.468,0.247-0.908,0.247c-0.083,0-0.165,0-0.248,0
		c-0.056,0-0.165-0.006-0.33-0.021c-0.165-0.013-0.406-0.026-0.722-0.041c-0.317-0.013-0.736-0.047-1.259-0.103
		c-0.055,0-0.159,0.035-0.31,0.103c-0.151,0.069-0.227,0.228-0.227,0.475c0,0.468,0.151,1.018,0.454,1.651
		c0.303,0.633,0.64,1.266,1.011,1.898c0.371,0.633,0.708,1.218,1.011,1.755c0.303,0.536,0.454,0.943,0.454,1.217
		c0,0.551-0.372,0.825-1.115,0.825c-3.88-0.604-7.258-1.252-10.133-1.94c-2.876-0.688-5.359-1.431-7.45-2.229
		c-0.165,0-0.516-0.021-1.052-0.062c-0.537-0.041-0.998-0.062-1.383-0.062c0,0.138-0.089,0.42-0.268,0.846
		c-0.179,0.427-0.406,0.867-0.681,1.321c-0.275,0.454-0.592,0.86-0.95,1.217c-0.358,0.358-0.701,0.537-1.032,0.537
		c-0.275,0-0.599-0.055-0.97-0.165c-0.372-0.11-0.722-0.255-1.052-0.434c-0.33-0.179-0.613-0.378-0.847-0.599
		c-0.234-0.219-0.35-0.44-0.35-0.661c0-0.384,0.103-0.859,0.309-1.423c0.207-0.564,0.31-1.163,0.31-1.796
		c-0.66-0.137-1.3-0.481-1.919-1.032c-0.619-0.55-1.052-1.141-1.3-1.775c0-0.192,0.22-0.344,0.661-0.454
		c0.44-0.11,0.949-0.192,1.527-0.247c0.578-0.054,1.162-0.089,1.754-0.103c0.591-0.014,1.038-0.035,1.341-0.062
		c0.275-0.688,0.633-1.554,1.073-2.6c0.44-1.046,0.929-2.174,1.465-3.385c0.536-1.211,1.107-2.476,1.713-3.798
		c0.605-1.32,1.211-2.621,1.816-3.9c0.605-1.28,1.197-2.483,1.775-3.612c0.578-1.128,1.1-2.119,1.569-2.972
		C15.107,0.056,15.616,0.193,16.222,0.413z M24.27,24.312c0-0.523-0.255-0.935-0.764-1.239c-0.509-0.302-1.108-0.454-1.795-0.454
		c-1.046,0-1.968,0.068-2.766,0.206c-0.799,0.138-1.61,0.303-2.435,0.496c-0.825,0.192-1.707,0.371-2.642,0.536
		c-0.936,0.166-2.037,0.289-3.302,0.372V24.6c0,0.055,0.233,0.139,0.701,0.248c0.468,0.11,1.08,0.241,1.837,0.392
		c0.757,0.152,1.616,0.296,2.58,0.434c0.963,0.138,1.926,0.268,2.889,0.392c0.963,0.124,1.891,0.227,2.786,0.309
		c0.894,0.083,1.658,0.125,2.291,0.125c0.027,0,0.089,0.014,0.186,0.041c0.096,0.027,0.295,0.041,0.599,0.041
		c0.44,0,0.66-0.22,0.66-0.661C24.738,25.565,24.462,25.028,24.27,24.312z M16.717,7.843h-0.33
		c-0.221,0.331-0.461,0.743-0.722,1.239c-0.262,0.495-0.564,1.108-0.908,1.837c-0.344,0.73-0.736,1.61-1.176,2.641
		c-0.44,1.032-0.949,2.264-1.527,3.694c-0.165,0.413-0.337,0.819-0.516,1.218c-0.179,0.399-0.365,0.791-0.557,1.176
		c0.495-0.138,1.176-0.241,2.043-0.309c0.867-0.068,1.775-0.138,2.724-0.207c0.949-0.068,1.85-0.144,2.703-0.227
		c0.853-0.082,1.486-0.206,1.899-0.371c0.137,0,0.207-0.151,0.207-0.454c0-0.303-0.076-0.743-0.227-1.321
		c-0.151-0.577-0.351-1.217-0.598-1.919c-0.248-0.702-0.516-1.424-0.805-2.167c-0.289-0.743-0.578-1.437-0.867-2.084
		c-0.289-0.647-0.55-1.211-0.784-1.693c-0.234-0.481-0.42-0.818-0.557-1.011V7.843z"/>
	<path fill="#FFFFFF" d="M44.578,11.805c0.385,0,0.839,0.221,1.362,0.661c0.522,0.44,1.025,0.998,1.506,1.672
		c0.481,0.675,0.894,1.41,1.239,2.208c0.343,0.798,0.516,1.541,0.516,2.229c0,0.605-0.234,0.908-0.702,0.908
		c-0.551,0-1.011-0.186-1.383-0.557c-0.372-0.371-0.722-0.77-1.053-1.197s-0.688-0.825-1.073-1.197
		c-0.386-0.371-0.867-0.557-1.444-0.557c-1.459,0-2.724,0.255-3.798,0.764c-1.073,0.51-1.961,1.142-2.662,1.899
		c-0.701,0.757-1.225,1.569-1.569,2.435c-0.344,0.867-0.516,1.658-0.516,2.373c0,0.385,0.124,0.722,0.372,1.011
		c0.248,0.289,0.55,0.537,0.908,0.743c0.357,0.206,0.736,0.365,1.135,0.475c0.399,0.11,0.75,0.165,1.053,0.165
		c0.605,0,1.389-0.068,2.353-0.206c0.963-0.138,1.953-0.372,2.972-0.702c1.018-0.331,2.002-0.764,2.951-1.3
		c0.949-0.537,1.713-1.203,2.291-2.002c0.22,0,0.33,0.234,0.33,0.702c0,0.275-0.076,0.647-0.227,1.115
		c-0.152,0.468-0.268,0.908-0.351,1.32c-0.495,0.909-1.087,1.666-1.775,2.27c-0.688,0.606-1.452,1.088-2.291,1.445
		c-0.84,0.358-1.748,0.613-2.724,0.764c-0.977,0.151-2.002,0.227-3.075,0.227c-1.046,0-1.961-0.206-2.745-0.618
		c-0.784-0.413-1.445-0.963-1.981-1.652c-0.536-0.687-0.936-1.479-1.197-2.373c-0.262-0.894-0.392-1.823-0.392-2.787
		c0-1.431,0.261-2.724,0.784-3.88c0.522-1.155,1.245-2.147,2.167-2.972c0.922-0.825,2.015-1.458,3.282-1.898
		c1.265-0.44,2.627-0.661,4.086-0.661L44.578,11.805z"/>
	<path fill="#FFFFFF" d="M66.248,12.982c0.303,0.206,0.605,0.42,0.908,0.639c0.302,0.221,0.605,0.413,0.908,0.578
		c0.303,0.165,0.605,0.247,0.908,0.247c0.55,0,0.894,0.31,1.032,0.929c0.137,0.618,0.206,1.713,0.206,3.281
		c0,0.385,0.048,1.06,0.145,2.022c0.096,0.964,0.144,2.037,0.144,3.219c0.11,0.111,0.24,0.214,0.392,0.31
		c0.151,0.096,0.295,0.144,0.433,0.144c0.11,0,0.248-0.041,0.413-0.124c0,0.22-0.062,0.695-0.186,1.424
		c-0.124,0.729-0.33,1.5-0.619,2.311c-0.289,0.812-0.668,1.534-1.135,2.167c-0.468,0.633-1.032,0.949-1.692,0.949
		c-0.495,0-0.894-0.103-1.197-0.309c-0.303-0.206-0.536-0.496-0.702-0.867c-0.165-0.372-0.275-0.811-0.33-1.321
		c-0.055-0.509-0.082-1.066-0.082-1.672c0-0.247,0.014-0.591,0.041-1.032c0.027-0.44,0.055-0.894,0.083-1.362
		c0.027-0.468,0.062-0.901,0.103-1.3c0.041-0.398,0.075-0.68,0.103-0.846c-0.028-0.33-0.124-0.495-0.289-0.495
		c-0.221,0-0.379,0.021-0.475,0.062c-0.096,0.041-0.2,0.117-0.31,0.227c-3.054,4.266-6.288,6.398-9.7,6.398
		c-0.495,0-0.998-0.034-1.507-0.103c-0.509-0.068-0.97-0.261-1.383-0.578c-0.413-0.316-0.757-0.797-1.032-1.444
		c-0.275-0.647-0.413-1.534-0.413-2.663c0-0.797,0.186-1.63,0.557-2.497c0.372-0.867,0.873-1.727,1.507-2.58
		c0.633-0.853,1.376-1.658,2.229-2.415c0.853-0.757,1.747-1.424,2.683-2.002c0.935-0.577,1.898-1.038,2.889-1.382
		c0.99-0.344,1.94-0.516,2.848-0.516c0.248,0,0.502,0.014,0.764,0.041c0.261,0.028,0.529,0.069,0.805,0.124
		C65.629,12.631,65.945,12.775,66.248,12.982z M66.743,14.983h-1.197c-0.743,0-1.665,0.296-2.766,0.887
		c-1.101,0.592-2.174,1.329-3.219,2.208c-1.046,0.881-1.94,1.831-2.683,2.848c-0.743,1.018-1.115,1.968-1.115,2.848
		c0,0.523,0.316,0.784,0.949,0.784c0.468,0,1.066-0.137,1.796-0.412c0.729-0.275,1.472-0.613,2.229-1.012
		c0.756-0.398,1.486-0.825,2.187-1.279c0.702-0.454,1.259-0.86,1.672-1.218c0.908-0.908,1.493-1.85,1.754-2.827
		c0.261-0.976,0.392-1.906,0.392-2.787V14.983z"/>
	<path fill="#FFFFFF" d="M87.504,3.385c0.302,0.11,0.605,0.254,0.908,0.433c0.302,0.18,0.798,0.448,1.486,0.805
		c0.192,0.138,0.364,0.331,0.516,0.578c0.151,0.247,0.227,0.619,0.227,1.114c0,0.331-0.082,0.784-0.247,1.362
		c-0.165,0.578-0.344,1.191-0.537,1.837c-0.193,0.647-0.371,1.28-0.536,1.899c-0.165,0.618-0.247,1.135-0.247,1.548
		c0,1.238,0.027,2.607,0.082,4.107c0.055,1.5,0.13,2.979,0.227,4.437c0.096,1.459,0.22,2.814,0.372,4.066
		c0.151,1.253,0.337,2.25,0.557,2.993c0.137,0.055,0.254,0.139,0.351,0.248c0.096,0.11,0.144,0.22,0.144,0.33
		c0,0.22-0.124,0.398-0.372,0.537c-0.248,0.137-0.551,0.206-0.908,0.206c-0.743,0-1.356-0.165-1.837-0.496
		c-0.482-0.33-0.867-0.777-1.156-1.341c-0.289-0.564-0.489-1.197-0.598-1.899c-0.111-0.702-0.165-1.424-0.165-2.167
		c0-0.247-0.007-0.543-0.021-0.887c-0.014-0.344-0.028-0.666-0.041-0.97c-0.014-0.303-0.041-0.557-0.082-0.764
		c-0.041-0.206-0.076-0.309-0.103-0.309l-0.33-0.041c-0.523,0.798-1.087,1.672-1.692,2.621c-0.606,0.949-1.253,1.837-1.94,2.662
		c-0.688,0.825-1.411,1.514-2.167,2.064c-0.757,0.551-1.521,0.825-2.291,0.825c-0.688,0-1.273-0.138-1.754-0.413
		c-0.482-0.275-0.867-0.639-1.156-1.094c-0.289-0.454-0.495-0.99-0.619-1.61c-0.124-0.619-0.186-1.259-0.186-1.919
		c0-1.156,0.24-2.353,0.722-3.591c0.481-1.238,1.135-2.359,1.961-3.364c0.825-1.004,1.768-1.83,2.827-2.476
		c1.059-0.647,2.167-0.97,3.323-0.97c0.22,0,0.461,0.103,0.722,0.309c0.261,0.206,0.529,0.44,0.805,0.702
		c0.275,0.261,0.557,0.495,0.846,0.702c0.289,0.206,0.571,0.309,0.846,0.309c0.275,0,0.413-0.247,0.413-0.743
		c0-0.082-0.028-0.247-0.082-0.495c-0.055-0.248-0.11-0.647-0.165-1.197c0-0.138,0.055-0.261,0.165-0.371
		c0.055-0.743,0.13-1.521,0.227-2.332c0.096-0.811,0.213-1.686,0.351-2.622c0.302-1.788,0.687-3.302,1.156-4.54V3.385z
		 M85.771,17.997c-0.055-0.303-0.193-0.502-0.413-0.599c-0.221-0.096-0.509-0.144-0.867-0.144c-0.771,0-1.569,0.283-2.394,0.846
		c-0.825,0.564-1.576,1.218-2.25,1.961c-0.675,0.742-1.232,1.472-1.672,2.187c-0.44,0.716-0.661,1.239-0.661,1.569
		c0.055,0.303,0.22,0.454,0.496,0.454c0.578,0,1.279-0.254,2.105-0.764c0.825-0.509,1.644-1.108,2.456-1.795
		c0.811-0.688,1.52-1.376,2.126-2.064c0.605-0.688,0.963-1.211,1.073-1.569V17.997z"/>
	<path fill="#FFFFFF" d="M101.992,11.846c0.88,0,1.768,0.193,2.662,0.578c0.894,0.386,1.693,0.895,2.394,1.527
		c0.702,0.633,1.272,1.376,1.713,2.229c0.44,0.853,0.66,1.733,0.66,2.641c0,0.22-0.035,0.454-0.103,0.702
		c-0.069,0.247-0.165,0.489-0.289,0.722c-0.124,0.234-0.296,0.426-0.516,0.577c-0.221,0.152-0.468,0.228-0.743,0.228
		c-0.165-0.275-0.337-0.461-0.516-0.557c-0.179-0.096-0.392-0.144-0.64-0.144c-0.11,0-0.303,0.041-0.578,0.124
		c-0.275,0.082-0.564,0.172-0.867,0.268c-0.303,0.097-0.592,0.186-0.867,0.269c-0.275,0.082-0.454,0.124-0.537,0.124
		s-0.159-0.027-0.227-0.082c-0.069-0.055-0.131-0.082-0.186-0.082c-0.413,0.055-0.846,0.096-1.3,0.124
		c-0.454,0.027-1.191,0.041-2.208,0.041c-0.468,0-0.949-0.048-1.444-0.144c-0.496-0.096-0.95-0.144-1.362-0.144
		c-0.303,0-0.564,0.055-0.784,0.165c-0.221,0.11-0.344,0.314-0.372,0.614l-0.082,1.103c0,0.926,0.413,1.531,1.238,1.818
		s2.022,0.429,3.591,0.429c1.678,0,3.378-0.228,5.098-0.681c1.719-0.454,3.323-0.984,4.809-1.589l0.248,0.206
		c-0.578,1.156-1.163,2.147-1.754,2.972c-0.592,0.825-1.238,1.493-1.94,2.001c-0.702,0.51-1.493,0.887-2.373,1.136
		c-0.881,0.247-1.899,0.371-3.055,0.371c-1.321,0-2.58-0.116-3.777-0.35c-1.197-0.233-2.243-0.638-3.137-1.215
		c-0.894-0.576-1.61-1.345-2.146-2.307c-0.536-0.961-0.805-2.169-0.805-3.624c0-2.142,0.612-3.822,1.837-5.044
		c1.224-1.221,3.075-2.285,5.552-3.191c0.192-0.466,0.522-0.885,0.99-1.256c0.468-0.37,1.059-0.556,1.775-0.556H101.992z
		 M102.756,15.189c-0.977-0.384-1.975-0.577-2.993-0.577c-0.468,0-0.894,0.144-1.279,0.433c-0.386,0.289-0.729,0.75-1.032,1.383
		c-0.082,0.165-0.144,0.282-0.186,0.35c-0.041,0.069-0.062,0.172-0.062,0.31c0,0.165,0.082,0.33,0.247,0.495l6.687,0.248
		c0.495,0,0.743-0.316,0.743-0.949C104.441,16.139,103.732,15.575,102.756,15.189z"/>
	<path fill="#FFFFFF" d="M112.6,10.319c1.954,0.303,3.344,1.129,4.169,2.476c0.192,0.964,0.357,2.326,0.495,4.087
		c0,0.247,0.007,0.482,0.021,0.701c0.014,0.221,0.027,0.468,0.041,0.743c0.014,0.275,0.021,0.606,0.021,0.991
		c0,0.358,0,0.811,0,1.362c0,0.082,0.034,0.139,0.104,0.166c0.068,0.027,0.117,0.041,0.144,0.041l0.124-0.041h0.165
		c0.715-1.926,1.582-3.701,2.6-5.325c1.018-1.624,2.339-2.985,3.963-4.086c0.027,0,0.082,0.007,0.165,0.021
		c0.082,0.014,0.22,0.021,0.413,0.021c0.605,0,1.094,0.055,1.465,0.165c0.372,0.111,0.647,0.317,0.825,0.619
		c0.179,0.303,0.303,0.708,0.372,1.217c0.068,0.51,0.117,1.15,0.145,1.92c0.082,1.513,0.261,2.6,0.536,3.261
		c0.578-0.468,1.204-0.949,1.878-1.445c0.674-0.496,1.362-0.943,2.064-1.342c0.702-0.398,1.417-0.722,2.146-0.97
		c0.729-0.247,1.438-0.371,2.126-0.371c0.495,0,0.873,0.172,1.135,0.515c0.261,0.345,0.46,0.819,0.598,1.424
		c0.137,0.605,0.233,1.328,0.289,2.167c0.055,0.84,0.124,1.754,0.206,2.744c-0.028,0.247-0.041,0.523-0.041,0.825
		c0,0.275,0,0.551,0,0.825c0,0.358,0.014,0.778,0.041,1.259c0.027,0.482,0.068,0.977,0.124,1.486
		c0.055,0.51,0.124,1.004,0.206,1.486c0.082,0.482,0.165,0.887,0.248,1.217c-0.551,1.046-1.775,1.857-3.673,2.435
		c-0.633,0-1.122-0.144-1.465-0.433c-0.344-0.289-0.592-0.668-0.743-1.136c-0.152-0.468-0.241-0.997-0.268-1.589
		c-0.028-0.591-0.041-1.19-0.041-1.795c0-0.797,0.021-1.616,0.062-2.456c0.042-0.84,0.062-1.754,0.062-2.745
		c0-0.165-0.049-0.378-0.145-0.639c-0.096-0.261-0.255-0.393-0.475-0.393c-0.825,0.578-1.486,1.163-1.981,1.754
		c-0.495,0.592-1.073,1.245-1.733,1.961c-0.496,0.33-0.936,0.743-1.321,1.238c-0.386,0.496-0.743,0.971-1.073,1.424
		c-0.33,0.454-0.64,0.846-0.929,1.177c-0.289,0.33-0.585,0.495-0.887,0.495c-0.028,0-0.118-0.007-0.268-0.021
		c-0.151-0.013-0.254-0.048-0.309-0.103h-0.165c-0.358,0-0.64-0.206-0.846-0.619c-0.206-0.412-0.365-0.929-0.475-1.548
		c-0.111-0.618-0.179-1.286-0.207-2.001c-0.028-0.715-0.041-1.362-0.041-1.94c0-0.11,0.007-0.281,0.021-0.515
		c0.014-0.233,0.034-0.75,0.062-1.548c0-0.661-0.303-0.99-0.908-0.99c-0.468,0.523-0.977,1.272-1.527,2.249
		c-0.55,0.977-1.108,2.016-1.672,3.116c-0.564,1.101-1.101,2.154-1.61,3.158c-0.51,1.005-0.943,1.782-1.3,2.332
		c-0.165,0.275-0.386,0.413-0.661,0.413c-0.33,0-0.633-0.139-0.908-0.413l-1.527-1.94c0-0.192-0.007-0.571-0.021-1.136
		c-0.014-0.563-0.035-1.231-0.062-2.001c-0.028-0.77-0.056-1.603-0.082-2.497c-0.028-0.894-0.056-1.755-0.083-2.58
		c-0.028-0.825-0.048-1.561-0.062-2.208c-0.014-0.647-0.021-1.122-0.021-1.424c0-0.22,0.027-0.585,0.082-1.094
		c0.055-0.509,0.11-1.032,0.165-1.568c0.055-0.537,0.11-1.046,0.165-1.527c0.055-0.482,0.082-0.819,0.082-1.012V10.319z"/>
	<path fill="#FFFFFF" d="M140.523,14.199c0.041-0.275,0.124-0.529,0.248-0.764c0.124-0.233,0.295-0.426,0.516-0.578
		c0.22-0.151,0.509-0.227,0.867-0.227c0.688,0.468,1.19,1.108,1.507,1.92c0.316,0.811,0.633,1.672,0.949,2.58
		c0.316,0.908,0.729,1.795,1.239,2.662c0.509,0.867,1.314,1.589,2.415,2.167c0.302-0.303,0.633-0.75,0.99-1.342
		c0.357-0.591,0.722-1.244,1.094-1.96c0.372-0.716,0.764-1.458,1.176-2.229c0.413-0.77,0.825-1.493,1.238-2.167
		c0.413-0.674,0.825-1.258,1.238-1.754c0.413-0.496,0.825-0.825,1.238-0.99h0.041c0.88,0.138,1.507,0.371,1.878,0.702
		c0.372,0.33,0.557,0.729,0.557,1.197c-0.468,1.211-0.867,2.504-1.197,3.88c-0.33,1.376-0.598,2.718-0.805,4.024
		c-0.206,1.307-0.365,2.518-0.475,3.633c-0.11,1.114-0.179,2.015-0.206,2.703c-0.165,0.221-0.42,0.557-0.764,1.011
		c-0.345,0.454-0.729,0.908-1.156,1.362c-0.427,0.454-0.887,0.846-1.383,1.177c-0.495,0.33-0.99,0.495-1.486,0.495
		c-0.275,0-0.585,0.13-0.929,0.393c-0.344,0.261-0.668,0.584-0.97,0.97c-0.303,0.385-0.557,0.811-0.764,1.279
		c-0.207,0.468-0.31,0.909-0.31,1.321c0,0.44,0.137,0.84,0.413,1.197l-0.206,0.618c-0.165,0.083-0.454,0.214-0.867,0.393
		c-0.413,0.179-0.853,0.35-1.321,0.516c-0.468,0.165-0.936,0.316-1.403,0.454c-0.468,0.138-0.825,0.206-1.073,0.206
		c-0.716,0-1.349-0.233-1.899-0.701c-0.551-0.468-0.825-1.005-0.825-1.611c0-0.468,0.495-1.438,1.486-2.909
		c0.99-1.473,2.256-3.433,3.797-5.882c-0.082-0.687-0.647-1.636-1.692-2.848c-0.688-0.77-1.232-1.562-1.63-2.373
		c-0.399-0.811-0.716-1.644-0.949-2.497c-0.234-0.853-0.392-1.719-0.475-2.601c-0.082-0.88-0.138-1.775-0.165-2.683
		C140.461,14.722,140.482,14.474,140.523,14.199z M154.784,23.672c0.33-1.197,0.55-2.456,0.661-3.777
		c-0.248,0.386-0.537,0.846-0.867,1.383c-0.33,0.537-0.633,1.088-0.908,1.651c-0.275,0.564-0.509,1.122-0.702,1.672
		c-0.193,0.551-0.289,1.046-0.289,1.486c0,0.386,0.179,0.578,0.536,0.578l0.248-0.082C154.013,25.839,154.453,24.869,154.784,23.672
		z"/>
</g>
</svg>
