<?xml version="1.0" encoding="utf-8"?>
<!-- Generator: Adobe Illustrator 17.0.0, SVG Export Plug-In . SVG Version: 6.00 Build 0)  -->
<!DOCTYPE svg PUBLIC "-//W3C//DTD SVG 1.1//EN" "http://www.w3.org/Graphics/SVG/1.1/DTD/svg11.dtd">
<svg version="1.1" id="Слой_1" xmlns="http://www.w3.org/2000/svg" xmlns:xlink="http://www.w3.org/1999/xlink" x="0px" y="0px"
	 width="114.352px" height="50.312px" viewBox="0 0 114.352 50.312" enable-background="new 0 0 114.352 50.312"
	 xml:space="preserve">
<g>
	<path fill="#FFFFFF" d="M19.761,17.262c-0.709-1.324-1.615-2.317-2.71-2.978c-1.103-0.662-2.403-0.993-3.916-0.993
		c-1.994,0-3.672,0.724-5.02,2.167c-1.347,1.449-2.017,3.262-2.017,5.445c0,2.15,0.686,3.938,2.065,5.373
		c1.379,1.426,3.104,2.143,5.184,2.143c1.6,0,2.932-0.347,3.988-1.032c1.064-0.686,1.859-1.71,2.379-3.081h6.288
		c-0.773,3.113-2.27,5.547-4.5,7.319c-2.229,1.773-4.94,2.657-8.123,2.657c-1.875,0-3.609-0.332-5.208-1.001
		c-1.599-0.671-3.049-1.662-4.342-2.971c-1.197-1.229-2.134-2.671-2.813-4.325C0.339,24.338,0,22.651,0,20.95
		c0-1.79,0.307-3.452,0.922-5.012c0.614-1.552,1.52-2.946,2.726-4.191c1.323-1.403,2.813-2.467,4.476-3.184
		c1.662-0.725,3.443-1.087,5.35-1.087c3.104,0,5.799,0.883,8.076,2.655c2.276,1.765,3.773,4.144,4.499,7.131H19.761z"/>
	<path fill="#FFFFFF" d="M78.659,10.243V0h5.815v33.613h-5.815v-2.08c-1.167,0.922-2.396,1.607-3.688,2.064
		c-1.292,0.449-2.694,0.678-4.199,0.678c-1.599,0-3.104-0.252-4.523-0.765c-1.418-0.503-2.687-1.244-3.805-2.213
		c-1.537-1.324-2.719-2.892-3.538-4.697c-0.828-1.811-1.237-3.727-1.237-5.759c0-1.876,0.378-3.68,1.142-5.406
		c0.757-1.725,1.836-3.215,3.215-4.475c1.158-1.096,2.482-1.922,3.971-2.498c1.489-0.567,3.081-0.85,4.775-0.85
		c1.631,0,3.073,0.212,4.333,0.637C76.366,8.667,77.555,9.337,78.659,10.243 M78.407,21.022c0-2.167-0.693-3.979-2.064-5.429
		c-1.379-1.442-3.105-2.166-5.162-2.166c-2.033,0-3.766,0.74-5.208,2.213c-1.441,1.482-2.159,3.246-2.159,5.287
		c0,2.143,0.725,3.924,2.168,5.35c1.449,1.426,3.278,2.136,5.475,2.136c1.939,0,3.577-0.717,4.925-2.151
		C77.729,24.836,78.407,23.086,78.407,21.022"/>
	<path fill="#FFFFFF" d="M93.976,22.792c0.197,1.829,0.93,3.278,2.183,4.326c1.245,1.056,2.868,1.584,4.846,1.584
		c1.323,0,2.513-0.276,3.569-0.835c1.047-0.552,1.883-1.332,2.498-2.333h6.381c-1.079,2.766-2.686,4.917-4.837,6.453
		c-2.143,1.529-4.625,2.293-7.446,2.293c-1.89,0-3.633-0.33-5.224-1c-1.591-0.671-3.018-1.663-4.287-2.971
		c-1.197-1.245-2.126-2.687-2.789-4.326c-0.662-1.631-0.992-3.317-0.992-5.035c0-1.772,0.307-3.435,0.913-4.995
		c0.608-1.56,1.506-2.963,2.688-4.208c1.292-1.371,2.757-2.426,4.389-3.159c1.63-0.741,3.309-1.111,5.05-1.111
		c2.198,0,4.255,0.496,6.161,1.496c1.907,1.001,3.531,2.412,4.87,4.224c0.82,1.096,1.418,2.317,1.813,3.672
		c0.393,1.347,0.59,2.899,0.59,4.657c0,0.133-0.008,0.346-0.024,0.63c-0.016,0.291-0.024,0.497-0.024,0.638H93.976z M107.97,18.112
		c-0.504-1.694-1.355-2.987-2.545-3.869c-1.189-0.89-2.694-1.332-4.507-1.332c-1.568,0-2.978,0.481-4.223,1.434
		c-1.246,0.954-2.08,2.207-2.514,3.767H107.97z"/>
	<path fill="#E54725" d="M28.602,20.809c0-1.781,0.33-3.475,0.985-5.082c0.654-1.607,1.599-3.033,2.844-4.279
		c1.277-1.276,2.718-2.261,4.317-2.946c1.6-0.686,3.263-1.025,4.988-1.025c1.828,0,3.522,0.308,5.067,0.915
		c1.544,0.606,2.97,1.513,4.262,2.734c1.324,1.276,2.341,2.741,3.066,4.412c0.725,1.67,1.087,3.38,1.087,5.137
		c0,1.938-0.315,3.703-0.946,5.303c-0.63,1.6-1.575,3.041-2.837,4.333c-1.268,1.308-2.702,2.301-4.317,2.971
		c-1.615,0.67-3.372,1.001-5.264,1.001c-1.906,0-3.647-0.339-5.216-1.017c-1.575-0.678-3.001-1.694-4.294-3.041
		c-1.237-1.324-2.166-2.781-2.796-4.373C28.917,24.26,28.602,22.582,28.602,20.809 M34.7,20.762c0,2.356,0.646,4.215,1.938,5.594
		c1.293,1.379,3.042,2.065,5.264,2.065c2.183,0,3.924-0.702,5.224-2.112c1.3-1.403,1.946-3.301,1.946-5.681
		c0-2.144-0.678-3.892-2.04-5.271c-1.364-1.38-3.073-2.065-5.13-2.065c-2.127,0-3.853,0.694-5.192,2.088
		C35.37,16.767,34.7,18.563,34.7,20.762"/>
	<path fill="#E54725" d="M57.668,39.122h1.26v1.26h-1.26V39.122z M57.73,42.562h1.121v7.656H57.73V42.562z"/>
	<path fill="#E54725" d="M66.879,50.212v-4.715c0-1.354-0.731-2.038-1.883-2.038c-1.152,0-1.898,0.7-1.898,2.038v4.715h-1.121
		v-7.656h1.121v0.84c0.544-0.622,1.291-0.933,2.147-0.933c0.825,0,1.494,0.249,1.961,0.716c0.544,0.529,0.793,1.244,0.793,2.131
		v4.902H66.879z"/>
	<path fill="#E54725" d="M73.431,50.312c-1.292,0-2.303-0.296-3.144-1.105l0.748-0.747c0.606,0.638,1.431,0.887,2.38,0.887
		c1.261,0,2.038-0.451,2.038-1.354c0-0.669-0.388-1.042-1.275-1.12l-1.261-0.109c-1.494-0.124-2.287-0.793-2.287-2.054
		c0-1.4,1.182-2.241,2.816-2.241c1.089,0,2.07,0.265,2.755,0.825l-0.732,0.731c-0.544-0.42-1.245-0.606-2.038-0.606
		c-1.121,0-1.712,0.482-1.712,1.26c0,0.654,0.374,1.043,1.338,1.12l1.229,0.109c1.339,0.125,2.257,0.638,2.257,2.07
		C76.543,49.456,75.283,50.312,73.431,50.312"/>
	<path fill="#E54725" d="M81.024,50.212c-1.307,0-1.96-0.918-1.96-2.054v-4.699h-0.965v-0.856h0.965v-2.397h1.12v2.397h1.633v0.856
		h-1.633v4.668c0,0.7,0.326,1.12,1.042,1.12h0.591v0.965H81.024z"/>
	<path fill="#E54725" d="M84.292,39.122h1.261v1.26h-1.261V39.122z M84.354,42.562h1.12v7.656h-1.12V42.562z"/>
	<path fill="#E54725" d="M90.75,50.212c-1.307,0-1.961-0.918-1.961-2.054v-4.699h-0.965v-0.856h0.965v-2.397h1.121v2.397h1.633
		v0.856H89.91v4.668c0,0.7,0.326,1.12,1.042,1.12h0.591v0.965H90.75z"/>
	<path fill="#E54725" d="M98.918,50.212v-0.856c-0.544,0.623-1.307,0.949-2.163,0.949c-0.825,0-1.509-0.249-1.976-0.715
		c-0.545-0.529-0.778-1.261-0.778-2.148v-4.886h1.12v4.715c0,1.354,0.716,2.038,1.867,2.038c1.152,0,1.914-0.7,1.914-2.038v-4.715
		h1.121v7.656H98.918z"/>
	<path fill="#E54725" d="M105.268,50.212c-1.307,0-1.961-0.918-1.961-2.054v-4.699h-0.965v-0.856h0.965v-2.397h1.121v2.397h1.633
		v0.856h-1.633v4.668c0,0.7,0.326,1.12,1.042,1.12h0.591v0.965H105.268z"/>
	<path fill="#E54725" d="M109.158,46.678c0,1.681,0.793,2.646,2.256,2.646c0.887,0,1.401-0.265,2.008-0.872l0.762,0.669
		c-0.778,0.778-1.494,1.183-2.801,1.183c-2.023,0-3.346-1.214-3.346-3.921c0-2.475,1.199-3.922,3.144-3.922
		c1.976,0,3.143,1.432,3.143,3.704v0.513H109.158z M112.97,44.562c-0.295-0.7-0.98-1.151-1.789-1.151
		c-0.81,0-1.494,0.451-1.79,1.151c-0.171,0.42-0.202,0.654-0.233,1.276h4.045C113.173,45.216,113.141,44.982,112.97,44.562"/>
</g>
</svg>
