<svg xmlns="http://www.w3.org/2000/svg" width="212" height="50" viewBox="0 0 212 50"><defs><style>.a{fill:#161616;}.b{fill:#0068ac;}.c{fill:#e67413;}.d{fill:#3e702d;}.e{fill:#ca251b;}</style></defs><g transform="translate(1.35 1.352)"><path class="a" d="M48.572,11.141c1.347-.135,4.715-.27,8.152-.27,3.368,0,6.738.135,8.085.27,1.415.135,2.088.742,2.157,2.425.2,5.458.2,13,.2,20.887,0,8.018,0,15.43-.2,20.887-.068,1.685-.742,2.29-2.157,2.425-1.347.135-4.717.27-8.085.27-3.437,0-6.805-.135-8.152-.27-1.415-.135-2.022-.74-2.022-2.425V40.854h-5.93V55.339c0,1.685-.6,2.29-2.02,2.425-1.348.135-4.717.27-8.153.27-3.368,0-6.737-.135-8.085-.27-1.415-.135-2.088-.74-2.155-2.425C20,49.883,20,42.471,20,34.453c0-7.883,0-15.428.2-20.887.067-1.683.74-2.29,2.155-2.425,1.348-.135,4.717-.27,8.085-.27,3.437,0,6.805.135,8.153.27,1.415.135,2.02.742,2.02,2.425V27.379h5.93V13.566C46.551,11.883,47.157,11.276,48.572,11.141Z" transform="translate(-20.004 -10.804)"/><path class="a" d="M94.454,46.783c.067,1.347.067,2.695.067,4.177s0,3.032-.067,4.38A2.246,2.246,0,0,1,92.1,57.764c-2.022.2-15.025.27-18.6.27-3.705,0-15.63,0-18.8-.27-1.415-.135-2.088-.74-2.157-2.425-.2-5.457-.2-13-.2-20.887s0-15.428.2-20.887c.068-1.683.742-2.29,2.157-2.425,3.167-.27,15.092-.27,18.8-.27,3.572,0,16.575.068,18.6.27a2.247,2.247,0,0,1,2.358,2.425c.067,1.348.067,2.9.067,4.38s0,2.83-.067,4.177c-.068,1.415-.472,1.887-1.685,1.887H73.162c-.607,0-.808.27-.808,1.213v2.56c0,.943.2,1.078.808,1.078H91.421c1.147,0,1.618.2,1.685,1.347.068,1.348.068,2.9.068,4.245s0,2.9-.068,4.245c-.067,1.145-.538,1.347-1.685,1.347H73.162c-.607,0-.808.27-.808,1.213v2.56c0,.943.2,1.078.808,1.078H92.769C93.982,44.9,94.386,45.368,94.454,46.783Z" transform="translate(1.355 -10.804)"/><path class="a" d="M129.056,56.241a1.323,1.323,0,0,1-.337,1.012,2.8,2.8,0,0,1-1.887.607c-1.887.135-4.918.2-7.545.2s-5.525,0-7.615-.2c-2.56-.27-3.3-.877-4.177-3.3l-3.908-10.982h-2.357V55.3c0,1.683-.675,2.29-2.09,2.425-1.347.135-4.447.27-7.882.27-3.3,0-6.267-.135-7.613-.27-1.415-.135-2.09-.742-2.157-2.425-.2-5.458-.2-12.87-.2-20.887,0-7.883,0-15.362.2-20.82.067-1.683.742-2.29,2.157-2.425,3.1-.27,13-.337,20.548-.337,5.188,0,11.05.135,14.89.472,7.95.673,9.365,3.437,9.365,14.957,0,10.308-1.28,12.6-6.467,13.745l6.332,13.542A6.042,6.042,0,0,1,129.056,56.241Zm-21.02-26.007a13.6,13.6,0,0,0,.268-3.1,13.611,13.611,0,0,0-.268-3.1c-.2-1.077-.4-1.347-1.415-1.347h-4.785c-.472,0-.673.4-.673,1.347v6.2c0,1.012.2,1.348.673,1.348h4.785C107.631,31.583,107.833,31.313,108.036,30.234Z" transform="translate(20.456 -10.831)"/><ellipse class="a" cx="4.159" cy="5.257" rx="4.159" ry="5.257" transform="translate(150.296 26.191)"/><ellipse class="a" cx="16.793" cy="5.257" rx="16.793" ry="5.257" transform="translate(77.353 9.871)"/><ellipse class="a" cx="16.793" cy="5.257" rx="16.793" ry="5.257" transform="translate(77.353 26.191)"/><path class="a" d="M160.911,55.838c0,1.213-.607,1.887-1.953,2.022s-5.122.268-8.22.268-6.132-.067-7.478-.2c-2.223-.2-2.562-.538-2.965-3.167l-.607-3.908h-7.142l-.607,3.908c-.4,2.628-.74,2.965-2.965,3.167-1.347.135-4.378.2-7.478.2s-6.872-.133-8.22-.268-1.953-.808-1.953-2.022a22.387,22.387,0,0,1,.742-4.447l8.893-38.2c.337-1.55,1.213-2.088,2.83-2.157s8.287-.2,12.33-.2,10.712.135,12.328.2,2.493.607,2.83,2.157l8.893,38.2A22.387,22.387,0,0,1,160.911,55.838Zm-27.22-16.1h4.852l-2.292-15.495h-.268Z" transform="translate(40.279 -10.831)"/></g><path class="a" d="M57.264,59.926c-3.588,0-6.948-.143-8.287-.277-2.177-.207-3.238-1.44-3.238-3.77V42.744H42.512V55.879c0,2.33-1.062,3.563-3.243,3.77-1.333.133-4.693.277-8.282.277-3.545,0-6.88-.143-8.218-.277-2.177-.207-3.28-1.423-3.373-3.717-.2-5.485-.2-12.992-.2-20.94s0-15.453.2-20.937c.093-2.3,1.2-3.512,3.378-3.72,1.333-.133,4.668-.275,8.213-.275,3.588,0,6.948.142,8.287.275,2.177.208,3.238,1.442,3.238,3.77V26.568h3.227V14.106c0-2.327,1.06-3.56,3.242-3.77,1.34-.133,4.7-.275,8.283-.275,3.545,0,6.88.142,8.22.275,2.175.208,3.28,1.423,3.372,3.717.2,5.487.2,12.993.2,20.94s0,15.455-.2,20.937c-.092,2.3-1.2,3.513-3.378,3.72C64.144,59.783,60.809,59.926,57.264,59.926ZM39.811,40.043h8.632V55.879c0,1.005.122,1.015.8,1.08,1.3.13,4.652.263,8.025.263,3.332,0,6.658-.133,7.95-.262a1.342,1.342,0,0,0,.73-.21c.043-.045.183-.247.21-.925.2-5.428.2-12.912.2-20.833s0-15.4-.2-20.837c-.027-.675-.167-.875-.21-.922a1.323,1.323,0,0,0-.723-.208c-1.3-.13-4.625-.263-7.957-.263-3.373,0-6.727.133-8.018.263h-.007c-.675.065-.8.077-.8,1.08V29.269H39.811V14.106c0-1-.122-1.015-.8-1.08-1.3-.13-4.65-.263-8.025-.263-3.332,0-6.658.133-7.95.263a1.341,1.341,0,0,0-.73.208c-.042.047-.183.247-.21.927-.2,5.428-.2,12.91-.2,20.832s0,15.405.2,20.837c.027.675.168.877.21.922a1.334,1.334,0,0,0,.723.208c1.3.13,4.625.263,7.957.263,3.375,0,6.727-.133,8.018-.262.683-.067.805-.077.805-1.082Z" transform="translate(-19.194 -9.993)"/><path class="a" d="M74.04,59.926c-3.88,0-15.688,0-18.912-.275l-.013,0c-2.182-.207-3.287-1.423-3.378-3.717-.2-5.485-.2-12.992-.2-20.94s0-15.453.2-20.937c.092-2.3,1.2-3.512,3.378-3.72l.013,0c3.223-.273,15.032-.273,18.912-.273,3.522,0,16.63.065,18.73.275a3.566,3.566,0,0,1,3.575,3.717c.068,1.368.068,2.927.068,4.433,0,1.473,0,2.863-.07,4.245-.037.782-.15,3.17-3.033,3.17H74.246v2.148H91.961c.788,0,2.88,0,3.035,2.62.068,1.393.068,2.95.068,4.323s0,2.932-.068,4.312a2.61,2.61,0,0,1-3.035,2.632H74.246v2.148H93.31c2.88,0,3,2.383,3.033,3.172.07,1.38.07,2.772.07,4.243,0,1.508,0,3.067-.07,4.447a3.56,3.56,0,0,1-3.578,3.7C90.67,59.859,77.561,59.926,74.04,59.926ZM55.365,56.959c2.07.175,8.353.263,18.675.263,4.507,0,16.615-.078,18.462-.262.917-.088,1.108-.278,1.142-1.135.067-1.328.067-2.852.067-4.327,0-1.5,0-2.795-.065-4.11v0a2.924,2.924,0,0,0-.072-.585,1.869,1.869,0,0,0-.263-.015H73.7c-1.433,0-2.16-.817-2.16-2.43V41.8a3,3,0,0,1,.412-1.722,1.992,1.992,0,0,1,1.748-.842H91.961c.143,0,.252,0,.332-.01l0-.067c.065-1.3.065-2.822.065-4.165s0-2.863-.067-4.177l0-.055c-.08,0-.188-.008-.332-.008H73.7c-1.433,0-2.16-.818-2.16-2.43v-2.56a2.993,2.993,0,0,1,.412-1.722A1.992,1.992,0,0,1,73.7,23.2H93.31a2.168,2.168,0,0,0,.263-.015,2.944,2.944,0,0,0,.072-.585c.065-1.317.065-2.613.065-4.113,0-1.473,0-3-.065-4.312-.035-.87-.227-1.062-1.137-1.148-1.853-.185-13.962-.263-18.468-.263-10.322,0-16.6.09-18.675.265a1.308,1.308,0,0,0-.717.207c-.043.047-.183.247-.212.927-.2,5.428-.2,12.91-.2,20.832s0,15.405.2,20.837c.028.675.168.877.212.922A1.3,1.3,0,0,0,55.365,56.959Zm18.9-15.522Z" transform="translate(2.164 -9.993)"/><path class="a" d="M119.829,59.953c-2.622,0-5.59,0-7.745-.208-3.072-.323-4.262-1.263-5.317-4.188l-3.592-10.09h-.053V55.84c0,2.292-1.113,3.56-3.312,3.77-1.323.132-4.4.275-8.01.275-3.427,0-6.418-.143-7.748-.275-2.175-.208-3.28-1.423-3.372-3.717-.2-5.487-.2-12.993-.2-20.94,0-7.913,0-15.387.2-20.87.092-2.3,1.2-3.512,3.378-3.72,3.432-.3,14.428-.343,20.677-.343,6.085,0,11.555.173,15.008.477,3.412.29,6.83.982,8.7,4.055,1.582,2.6,1.9,6.613,1.9,12.248,0,9.152-.9,12.945-5.915,14.625l5.66,12.1a7.392,7.392,0,0,1,.862,3.255,2.688,2.688,0,0,1-.733,1.965,4.161,4.161,0,0,1-2.752,1C125.349,59.9,122.13,59.953,119.829,59.953ZM100.42,42.765h4.663l4.227,11.88c.7,1.948,1.017,2.2,3.045,2.41,2.013.195,4.913.195,7.473.195,2.835,0,5.758-.078,7.448-.2a2.79,2.79,0,0,0,.967-.177c0-.023,0-.055,0-.092a4.722,4.722,0,0,0-.617-2.13L120.584,39.59l1.648-.365c4.087-.9,5.407-2.065,5.407-12.425,0-11.73-1.54-13.052-8.127-13.61-3.383-.3-8.768-.467-14.777-.467-4.995,0-16.988.032-20.432.332a1.311,1.311,0,0,0-.713.207c-.042.047-.182.247-.21.927-.2,5.428-.2,12.878-.2,20.765,0,7.922,0,15.4.2,20.837.028.675.168.875.21.922a1.336,1.336,0,0,0,.725.208c1.272.127,4.152.263,7.485.263,3.362,0,6.442-.133,7.748-.263.705-.067.872-.083.872-1.08Zm6.742-9.29h-4.785c-.755,0-2.025-.352-2.025-2.7v-6.2c0-2.435,1.417-2.7,2.025-2.7h4.785c1.878,0,2.457.962,2.735,2.41a14.63,14.63,0,0,1,.3,3.388,14.6,14.6,0,0,1-.3,3.387C109.619,32.512,109.04,33.475,107.162,33.475Zm-4.107-2.7H107.2c.013-.065.03-.145.05-.245l.017-.078a12.289,12.289,0,0,0,.228-2.772,12.289,12.289,0,0,0-.228-2.772l-.017-.078q-.03-.15-.05-.245h-4.143Z" transform="translate(21.266 -10.02)"/><path class="a" d="M151.279,60.02c-3.46,0-6.307-.078-7.613-.208a4.422,4.422,0,0,1-3.013-1.092,5.777,5.777,0,0,1-1.153-3.215l-.428-2.762h-4.825l-.43,2.763a5.763,5.763,0,0,1-1.152,3.213,4.441,4.441,0,0,1-3.025,1.093c-1.295.128-4.142.207-7.6.207-2.978,0-6.882-.128-8.353-.277a3.18,3.18,0,0,1-3.172-3.365,22.464,22.464,0,0,1,.778-4.762l8.89-38.183c.452-2.063,1.79-3.113,4.092-3.21,1.648-.068,8.278-.2,12.387-.2s10.737.135,12.385.2c2.3.1,3.64,1.147,4.092,3.21l8.892,38.192a22.424,22.424,0,0,1,.777,4.753,3.18,3.18,0,0,1-3.172,3.365C158.16,59.892,154.257,60.02,151.279,60.02Zm-19.35-9.978h9.458l.783,5.052a6.046,6.046,0,0,0,.448,1.773c.053.055.292.162,1.3.255,1.217.122,4.032.2,7.357.2,3.123,0,6.845-.14,8.085-.263.737-.073.737-.238.737-.677a20.967,20.967,0,0,0-.7-4.132l-8.9-38.23c-.163-.752-.342-1.042-1.565-1.093-1.588-.065-8.272-.2-12.273-.2s-10.687.135-12.273.2c-1.225.052-1.4.342-1.567,1.093l0,.02-8.893,38.2a20.9,20.9,0,0,0-.707,4.14c0,.438,0,.6.737.677,1.24.123,4.962.263,8.085.263,3.325,0,6.14-.075,7.345-.2,1.023-.093,1.263-.2,1.315-.255a6.048,6.048,0,0,0,.448-1.772Zm8.72-8.415h-7.982l2.69-18.2h2.6Zm-4.85-2.7h1.718l-.858-5.817Z" transform="translate(41.088 -10.02)"/><g transform="translate(9.458 1.352)"><path class="b" d="M53.436,11.141c1.348-.135,4.717-.27,8.153-.27,3.368,0,6.737.135,8.085.27,1.415.135,2.088.742,2.155,2.425.2,5.458.2,13,.2,20.887,0,8.018,0,15.43-.2,20.887-.067,1.685-.74,2.29-2.155,2.425-1.348.135-4.717.27-8.085.27-3.437,0-6.805-.135-8.153-.27-1.413-.135-2.02-.74-2.02-2.425V40.854h-5.93V55.339c0,1.685-.607,2.29-2.02,2.425-1.348.135-4.717.27-8.153.27-3.368,0-6.737-.135-8.085-.27-1.415-.135-2.088-.74-2.155-2.425-.2-5.457-.2-12.868-.2-20.887,0-7.883,0-15.428.2-20.887.067-1.683.74-2.29,2.155-2.425,1.348-.135,4.717-.27,8.085-.27,3.437,0,6.8.135,8.153.27,1.413.135,2.02.742,2.02,2.425V27.379h5.93V13.566C51.416,11.883,52.022,11.276,53.436,11.141Z" transform="translate(-24.869 -10.804)"/><path class="c" d="M99.317,46.783c.068,1.347.068,2.695.068,4.177s0,3.032-.068,4.38a2.245,2.245,0,0,1-2.357,2.425c-2.022.2-15.025.27-18.6.27-3.705,0-15.63,0-18.8-.27-1.415-.135-2.09-.74-2.157-2.425-.2-5.457-.2-13-.2-20.887s0-15.428.2-20.887c.067-1.683.742-2.29,2.157-2.425,3.167-.27,15.092-.27,18.8-.27,3.572,0,16.575.068,18.6.27a2.246,2.246,0,0,1,2.357,2.425c.068,1.348.068,2.9.068,4.38s0,2.83-.068,4.177c-.067,1.415-.472,1.887-1.683,1.887H78.027c-.607,0-.808.27-.808,1.213v2.56c0,.943.2,1.078.808,1.078H96.286c1.147,0,1.618.2,1.685,1.347.067,1.348.067,2.9.067,4.245s0,2.9-.067,4.245c-.067,1.145-.538,1.347-1.685,1.347H78.027c-.607,0-.808.27-.808,1.213v2.56c0,.943.2,1.078.808,1.078H97.634C98.846,44.9,99.251,45.368,99.317,46.783Z" transform="translate(-3.51 -10.804)"/><path class="d" d="M133.921,56.241a1.323,1.323,0,0,1-.337,1.012,2.8,2.8,0,0,1-1.887.607c-1.887.135-4.918.2-7.547.2s-5.523,0-7.613-.2c-2.56-.27-3.3-.877-4.177-3.3l-3.908-10.982h-2.358V55.3c0,1.683-.673,2.29-2.088,2.425-1.347.135-4.447.27-7.882.27-3.3,0-6.267-.135-7.613-.27-1.415-.135-2.09-.742-2.157-2.425-.2-5.458-.2-12.87-.2-20.887,0-7.883,0-15.362.2-20.82.067-1.683.742-2.29,2.157-2.425,3.1-.27,13-.337,20.548-.337,5.188,0,11.05.135,14.89.472,7.95.673,9.365,3.437,9.365,14.957,0,10.308-1.28,12.6-6.468,13.745l6.333,13.542A6.042,6.042,0,0,1,133.921,56.241ZM112.9,30.234a13.49,13.49,0,0,0,.27-3.1,13.506,13.506,0,0,0-.27-3.1c-.2-1.077-.4-1.347-1.415-1.347H106.7c-.472,0-.673.4-.673,1.347v6.2c0,1.012.2,1.348.673,1.348h4.783C112.5,31.583,112.7,31.313,112.9,30.234Z" transform="translate(15.591 -10.831)"/><path class="e" d="M165.776,55.838c0,1.213-.607,1.887-1.955,2.022s-5.12.268-8.218.268-6.132-.067-7.48-.2c-2.223-.2-2.56-.538-2.963-3.167l-.607-3.908h-7.142l-.607,3.908c-.4,2.628-.742,2.965-2.965,3.167-1.347.135-4.378.2-7.478.2s-6.872-.133-8.22-.268-1.953-.808-1.953-2.022a22.387,22.387,0,0,1,.742-4.447l8.893-38.2c.337-1.55,1.212-2.088,2.83-2.157s8.287-.2,12.328-.2,10.713.135,12.33.2,2.493.607,2.83,2.157l8.893,38.2A22.388,22.388,0,0,1,165.776,55.838Zm-27.22-16.1h4.852l-2.292-15.495h-.268Z" transform="translate(35.414 -10.831)"/></g><g transform="translate(8.107)"><path class="a" d="M62.13,59.926c-3.588,0-6.948-.143-8.287-.277-2.177-.207-3.238-1.44-3.238-3.77V42.744H47.378V55.879c0,2.33-1.062,3.563-3.245,3.77-1.332.133-4.692.277-8.28.277-3.545,0-6.88-.143-8.22-.277-2.175-.207-3.28-1.423-3.372-3.717-.2-5.485-.2-12.992-.2-20.94s0-15.453.2-20.937c.092-2.3,1.2-3.512,3.378-3.72,1.333-.133,4.668-.275,8.213-.275,3.588,0,6.948.142,8.287.275,2.177.208,3.238,1.442,3.238,3.77V26.568H50.6V14.106c0-2.327,1.06-3.56,3.242-3.77,1.34-.133,4.7-.275,8.283-.275,3.545,0,6.88.142,8.22.275,2.175.208,3.28,1.423,3.372,3.717.2,5.487.2,12.993.2,20.94s0,15.455-.2,20.937c-.092,2.3-1.2,3.513-3.378,3.72C69.01,59.783,65.675,59.926,62.13,59.926ZM44.676,40.043h8.632V55.879c0,1.005.122,1.015.8,1.08,1.3.13,4.652.263,8.025.263,3.332,0,6.658-.133,7.95-.262a1.348,1.348,0,0,0,.73-.21c.043-.045.183-.247.21-.925.2-5.428.2-12.912.2-20.833s0-15.4-.2-20.837c-.027-.675-.167-.875-.21-.922a1.328,1.328,0,0,0-.723-.208c-1.3-.13-4.625-.263-7.957-.263-3.373,0-6.727.133-8.018.263H54.1c-.675.065-.8.077-.8,1.08V29.269H44.676V14.106c0-1-.123-1.015-.8-1.08-1.3-.13-4.652-.263-8.025-.263-3.332,0-6.658.133-7.95.263a1.336,1.336,0,0,0-.73.208c-.043.047-.183.247-.21.927-.2,5.428-.2,12.91-.2,20.832s0,15.405.2,20.837c.027.675.167.877.21.922a1.328,1.328,0,0,0,.723.208c1.3.13,4.625.263,7.957.263,3.373,0,6.727-.133,8.018-.262.682-.067.805-.077.805-1.082Z" transform="translate(-24.058 -9.993)"/><path class="a" d="M78.9,59.926c-3.88,0-15.688,0-18.912-.275l-.013,0c-2.182-.207-3.287-1.423-3.378-3.717-.2-5.485-.2-12.992-.2-20.94s0-15.453.2-20.937c.092-2.3,1.2-3.512,3.378-3.72l.013,0c3.223-.273,15.032-.273,18.912-.273,3.522,0,16.63.065,18.73.275a3.568,3.568,0,0,1,3.575,3.717c.068,1.368.068,2.927.068,4.433,0,1.473,0,2.863-.07,4.245-.037.782-.15,3.17-3.033,3.17H79.111v2.148H96.826c.788,0,2.88,0,3.033,2.62.07,1.393.07,2.95.07,4.323s0,2.932-.068,4.312a2.61,2.61,0,0,1-3.035,2.632H79.111v2.148H98.175c2.878,0,3,2.383,3.033,3.172.07,1.38.07,2.772.07,4.243,0,1.508,0,3.067-.07,4.447a3.561,3.561,0,0,1-3.58,3.7C95.535,59.859,82.426,59.926,78.9,59.926ZM60.23,56.959c2.07.175,8.353.263,18.675.263,4.507,0,16.615-.078,18.462-.262.917-.088,1.108-.278,1.142-1.135.067-1.328.067-2.852.067-4.327,0-1.5,0-2.795-.065-4.11v0a2.925,2.925,0,0,0-.072-.585,1.869,1.869,0,0,0-.263-.015H78.568c-1.433,0-2.16-.817-2.16-2.43V41.8a3,3,0,0,1,.412-1.722,1.992,1.992,0,0,1,1.748-.842H96.826c.143,0,.252,0,.332-.01l.005-.067c.065-1.3.065-2.822.065-4.165s0-2.863-.067-4.177l0-.055c-.08,0-.188-.008-.332-.008H78.568c-1.433,0-2.16-.818-2.16-2.43v-2.56a2.993,2.993,0,0,1,.412-1.722,1.989,1.989,0,0,1,1.748-.842H98.175a2.168,2.168,0,0,0,.263-.015,2.945,2.945,0,0,0,.072-.585c.065-1.317.065-2.613.065-4.113,0-1.473,0-3-.065-4.312-.035-.87-.227-1.062-1.137-1.148-1.853-.185-13.962-.263-18.468-.263-10.322,0-16.6.09-18.675.265a1.32,1.32,0,0,0-.718.207c-.042.047-.182.247-.21.927-.2,5.428-.2,12.91-.2,20.832s0,15.405.2,20.837c.028.675.168.877.21.922A1.317,1.317,0,0,0,60.23,56.959Zm18.9-15.522Z" transform="translate(-2.699 -9.993)"/><path class="a" d="M124.692,59.953c-2.62,0-5.59,0-7.743-.208-3.072-.323-4.262-1.263-5.318-4.188l-3.59-10.09h-.053V55.84c0,2.292-1.113,3.56-3.312,3.77-1.323.132-4.4.275-8.01.275-3.427,0-6.418-.143-7.748-.275-2.175-.208-3.28-1.423-3.372-3.717-.2-5.487-.2-12.993-.2-20.94,0-7.913,0-15.387.2-20.87.092-2.3,1.2-3.512,3.378-3.72,3.432-.3,14.427-.343,20.677-.343,6.083,0,11.553.173,15.008.477,3.412.29,6.83.982,8.7,4.055,1.58,2.6,1.9,6.613,1.9,12.248,0,9.152-.9,12.945-5.917,14.625l5.66,12.1a7.376,7.376,0,0,1,.863,3.255,2.688,2.688,0,0,1-.733,1.965,4.164,4.164,0,0,1-2.752,1C130.214,59.9,127,59.953,124.692,59.953ZM105.285,42.765h4.662l4.228,11.88c.7,1.948,1.017,2.2,3.045,2.41,2.013.195,4.913.195,7.472.195,2.837,0,5.76-.078,7.45-.2a2.789,2.789,0,0,0,.967-.177c0-.023,0-.055,0-.092a4.722,4.722,0,0,0-.617-2.13L125.449,39.59l1.648-.365c4.087-.9,5.407-2.065,5.407-12.425,0-11.73-1.54-13.052-8.127-13.61-3.383-.3-8.768-.467-14.777-.467-5,0-16.988.032-20.432.332a1.311,1.311,0,0,0-.713.207c-.042.047-.183.247-.21.927-.2,5.428-.2,12.878-.2,20.765,0,7.922,0,15.4.2,20.837.027.675.168.875.21.922a1.334,1.334,0,0,0,.723.208c1.272.127,4.152.263,7.487.263,3.362,0,6.442-.133,7.748-.263.7-.067.872-.083.872-1.08Zm6.74-9.29h-4.783c-.757,0-2.025-.352-2.025-2.7v-6.2c0-2.435,1.417-2.7,2.025-2.7h4.783c1.88,0,2.458.962,2.737,2.41a14.63,14.63,0,0,1,.3,3.388,14.6,14.6,0,0,1-.3,3.387C114.484,32.512,113.905,33.475,112.025,33.475Zm-4.1-2.7h4.142c.015-.065.032-.145.05-.245l.018-.078a12.287,12.287,0,0,0,.228-2.772,12.287,12.287,0,0,0-.228-2.772l-.018-.078q-.027-.15-.05-.245H107.92Z" transform="translate(16.402 -10.02)"/><path class="a" d="M156.144,60.02c-3.46,0-6.307-.078-7.613-.208a4.422,4.422,0,0,1-3.013-1.092,5.777,5.777,0,0,1-1.153-3.215l-.428-2.762H139.11l-.43,2.763a5.763,5.763,0,0,1-1.152,3.213,4.441,4.441,0,0,1-3.025,1.093c-1.3.128-4.142.207-7.6.207-2.978,0-6.883-.128-8.353-.277a3.18,3.18,0,0,1-3.172-3.365,22.463,22.463,0,0,1,.778-4.762l8.89-38.183c.452-2.063,1.79-3.113,4.092-3.21,1.648-.068,8.278-.2,12.385-.2s10.738.135,12.387.2c2.3.1,3.64,1.147,4.092,3.21l8.892,38.192a22.423,22.423,0,0,1,.777,4.753,3.18,3.18,0,0,1-3.172,3.365C163.025,59.892,159.122,60.02,156.144,60.02Zm-19.35-9.978h9.458l.783,5.052a6.047,6.047,0,0,0,.448,1.773c.052.055.292.162,1.3.255,1.217.122,4.032.2,7.357.2,3.123,0,6.843-.14,8.085-.263.737-.073.737-.238.737-.677a20.966,20.966,0,0,0-.7-4.132l-8.9-38.23c-.163-.752-.342-1.042-1.567-1.093-1.587-.065-8.272-.2-12.273-.2s-10.685.135-12.273.2c-1.223.052-1.4.342-1.565,1.093l-.005.02-8.893,38.2a20.99,20.99,0,0,0-.7,4.14c0,.438,0,.6.737.677,1.24.123,4.962.263,8.085.263,3.325,0,6.138-.075,7.345-.2,1.023-.093,1.262-.2,1.315-.255a6.049,6.049,0,0,0,.448-1.772Zm8.72-8.415h-7.982l2.69-18.2h2.6Zm-4.85-2.7h1.718l-.86-5.817Z" transform="translate(36.225 -10.02)"/></g></svg>