<?xml version="1.0" encoding="utf-8"?>
<!-- Generator: Adobe Illustrator 18.0.0, SVG Export Plug-In . SVG Version: 6.00 Build 0)  -->
<!DOCTYPE svg PUBLIC "-//W3C//DTD SVG 1.1//EN" "http://www.w3.org/Graphics/SVG/1.1/DTD/svg11.dtd">
<svg version="1.1" id="Layer_1" xmlns="http://www.w3.org/2000/svg" xmlns:xlink="http://www.w3.org/1999/xlink" x="0px" y="0px"
	 viewBox="0 0 242.5 88" style="enable-background:new 0 0 242.5 88;" xml:space="preserve">
<rect x="219" y="0" style="fill:#B2282D;" width="23.4" height="45"/>
<path style="fill:#D2D0CD;" d="M207.7,88c-18.6,0-33.5-13.5-34.7-31.4l-0.1-2.2h23.3l0.3,1.7c0.9,5,5.5,8.5,11.2,8.5
	c5.7,0,10.3-3.5,11.2-8.5l0.3-1.7h23.3l-0.1,2.2C241.2,74.5,226.3,88,207.7,88"/>
<polygon style="fill:#D2D0CD;" points="99,86.5 99,54.4 122.3,54.4 122.3,63.1 165.2,63.1 165.2,86.5 "/>
<rect x="99" y="0" style="fill:#B2282D;" width="23.4" height="45"/>
<rect x="173.1" y="0" style="fill:#B2282D;" width="23.4" height="45"/>
<polygon style="fill:#D2D0CD;" points="13.4,54.4 0,86.5 25.5,86.5 30.2,74.7 59.9,74.7 64.7,86.5 89.9,86.5 76.8,54.4 "/>
<polygon style="fill:#B2282D;" points="29.5,0 47.8,45 73.4,45 55.1,0 "/>
</svg>
