<svg version="1.1" id="图层_1" xmlns="http://www.w3.org/2000/svg" x="0" y="0" viewBox="0 0 198.7 74.3" xml:space="preserve"><style>.st0{fill:#ad1d17}.st12{fill:#2d2d2d}</style><path d="M.1 72.3l2.1-.2.4-.5V51.1H0v-1.8l6.9-2.2h1.9v2.5c3.4-2 4.8-2.5 6.5-2.5 4.1 0 7.2 3.9 7.2 9 0 6-4.3 10-10.6 10-.7 0-1.9-.1-3.1-.2v5.8l.5.5 2.5.2-.1 2H.1v-2.1zm8.8-8.6c.3.1.7.1 1 .1 3.8 0 5.9-2.4 5.9-6.9 0-3.8-1.7-5.8-4.8-5.8-.7 0-1.4.1-2.1.2v12.4zM31 47.2c.3 1 .4 2.1.5 3.2l.4 9.1 5.5-10.3v-1.1l5.6-.5.7 14.2 4.8-6.7-1-6.9c.7-.8 1.8-1.2 2.9-1.2 1.6-.1 2.9 1 3 2.6v.3c0 1.8-1 4-3.5 7.5-.8 1.1-3.1 4-6.9 8.6h-4.4l-.9-12.9-7 12.9H26l.4-1.7-.6-13.5-3.7-.6v-1.5l6.8-1.6 2.1.1zM65.1 49.1c-3.2.5-4.8 2.8-4.8 6.9s2.2 6.8 5.5 6.8c1.6 0 3-.5 5.9-1.9v3.3c-2.6 1.4-5.5 2.1-8.5 2.1-2.6.2-5.2-.8-7.1-2.6-1.8-1.8-2.8-4.3-2.7-6.8 0-5.9 4.4-9.9 10.9-9.9 4.3 0 7.2 1.9 7.2 4.8 0 1.9-1.4 3.1-3.4 3.1-1.1 0-2.1-.3-3-.9v-4.9z"/><path class="st0" d="M43.4 31.8h18.3v4.8H43.4z"/><path fill="#f09d34" d="M61.7 0h17.9v3.8H61.7z"/><path fill="#f4bc87" d="M79.6 3.8h3.3v5.5h-3.3z"/><path fill="#e2721b" d="M61.7 3.8h17.9v5.5H61.7z"/><path fill="#f5bf23" d="M82.9 9.3h9V23h-9z"/><path fill="#e98c15" d="M79.6 9.3h3.3V23h-3.3z"/><path fill="#d95614" d="M72.8 23h6.8V9.3H61.7v9.2h11.1z"/><path fill="#e569a2" d="M91.9 23h4.8v8.7h-4.8z"/><path fill="#db4e18" d="M82.9 23h9v8.7h-9z"/><path fill="#d13916" d="M79.6 23h3.3v8.7h-3.3z"/><path fill="#c32617" d="M72.8 23h6.8v8.7h-6.8z"/><path fill="#c04418" d="M61.7 18.5h11.1V23H61.7z"/><path class="st0" d="M61.7 23h11.1v8.7H61.7z"/><path class="st12" d="M145.8 66h-2.1v-8.3h-9.3V66h-2.1V48.4h2.1v7.5h9.3v-7.5h2.1V66zM161.7 59.4c.1 1.8-.5 3.6-1.6 5.1-1.2 1.2-2.8 1.9-4.5 1.8-1.1 0-2.2-.3-3.1-.8-.9-.6-1.7-1.4-2.1-2.4-.5-1.1-.8-2.4-.8-3.7-.1-1.8.5-3.6 1.6-5 1.2-1.2 2.8-1.9 4.5-1.8 1.7-.1 3.3.6 4.4 1.8 1.1 1.5 1.7 3.2 1.6 5zm-10.1 0c-.1 1.4.3 2.7 1 3.9 1.5 1.7 4 1.8 5.6.4l.4-.4c.7-1.1 1.1-2.5 1-3.9.1-1.4-.3-2.7-1-3.8a3.4 3.4 0 00-3-1.3c-1.2-.1-2.3.4-3 1.3-.7 1.1-1 2.5-1 3.8zM182.1 66v-8.6c.1-.8-.2-1.7-.7-2.4-.5-.6-1.3-.9-2.1-.8-1-.1-2.1.3-2.8 1.1-.7 1-1 2.1-.9 3.3V66h-2v-8.6c.1-.8-.2-1.7-.7-2.4-.5-.6-1.3-.9-2.1-.8-1-.1-2.1.3-2.8 1.1-.7 1.1-1 2.4-.9 3.7v7h-2V52.8h1.6l.3 1.8h.1c.4-.6.9-1.2 1.6-1.5.7-.4 1.5-.6 2.3-.5 2.1 0 3.4.8 4.1 2.2h.1c.4-.7 1-1.3 1.7-1.6.8-.4 1.7-.6 2.6-.6 1.2-.1 2.4.3 3.4 1.1.8 1 1.2 2.4 1.1 3.7V66h-1.9zM193.8 66.3c-1.7.1-3.4-.6-4.6-1.8-1.2-1.4-1.8-3.2-1.7-5-.1-1.8.5-3.6 1.6-5.1 1-1.3 2.6-1.9 4.2-1.9 1.5-.1 2.9.5 3.9 1.6 1 1.2 1.5 2.7 1.4 4.3v1.3h-9.1c-.1 1.3.4 2.5 1.2 3.5.8.8 2 1.3 3.1 1.2 1.5 0 2.9-.3 4.2-.9v1.8c-.6.3-1.3.5-2 .7-.6.2-1.4.3-2.2.3zm-.5-12c-1-.1-1.9.3-2.5 1-.7.8-1.1 1.8-1.1 2.9h6.9c.1-1-.2-2.1-.9-2.9-.6-.7-1.5-1.1-2.4-1zM102.9 47.1h1.6v19h-1.6z"/></svg>