<?xml version="1.0" encoding="utf-8"?>
<!-- Generator: Adobe Illustrator 21.1.0, SVG Export Plug-In . SVG Version: 6.00 Build 0)  -->
<svg version="1.1" id="Слой_1" xmlns="http://www.w3.org/2000/svg" xmlns:xlink="http://www.w3.org/1999/xlink" x="0px" y="0px"
	 viewBox="0 0 300 74.2" style="enable-background:new 0 0 300 74.2;" xml:space="preserve">
<style type="text/css">
	.st0{fill:#FFFFFF;}
	.st1{fill:#7FE5D1;}
</style>
<g>
	<path class="st0" d="M171.9,37.1v4.7c0,2.3-0.2,4.5-0.5,6.5c-0.4,2-1,3.8-1.9,5.4c-0.9,1.6-2.1,2.8-3.6,3.7
		c-1.5,0.9-3.5,1.3-5.9,1.3c-2.4,0-4.4-0.4-5.9-1.3c-1.5-0.9-2.7-2.1-3.6-3.7c-0.9-1.6-1.5-3.4-1.9-5.4c-0.4-2-0.5-4.2-0.5-6.5V1.7
		h-18.6v43.2c0,4.8,0.7,8.9,2.2,12.4c1.5,3.5,3.5,6.3,6.2,8.6c2.7,2.3,5.9,3.9,9.7,5c3.8,1.1,7.9,1.6,12.4,1.6
		c4.5,0,8.7-0.5,12.4-1.6c3.8-1.1,7-2.8,9.7-5c0.5-0.4,0.9-0.8,1.3-1.2C176.3,57.6,171.9,47.9,171.9,37.1"/>
	<path class="st0" d="M190.4,2.5V1.7h-18.6v35.5c0-5.7,1.2-11.1,3.4-16C178.4,13.6,183.7,7.1,190.4,2.5"/>
	<polyline class="st0" points="0,1.7 49.1,1.7 49.1,14.8 18.6,14.8 18.6,29.2 47.4,29.2 47.4,42.4 18.6,42.4 18.6,58.2 50.2,58.2 
		50.2,71.4 0,71.4 0,1.7 	"/>
	<path class="st0" d="M57.9,1.7h25.4c6.1,0,11.6,0.5,16.7,1.6c5.1,1.1,9.4,2.9,13,5.5c3.6,2.6,6.5,6.2,8.5,10.6c2,4.5,3,10.1,3,16.8
		c0,6.5-1,12-3.1,16.5c-2.1,4.5-4.9,8.1-8.6,10.8c-3.7,2.8-8,4.8-13.1,6c-5.1,1.2-10.6,1.8-16.5,1.8H57.9V1.7 M76.4,57.6h7.2
		c7,0,12.4-1.8,16.1-5.3c3.7-3.5,5.6-8.8,5.6-15.8c0-7-1.9-12.3-5.7-15.8c-3.8-3.5-9.1-5.3-16-5.3h-7.2V57.6z"/>
	<path class="st1" d="M251.1,37.1C251.1,16.6,234.5,0,214,0c-20.5,0-37.1,16.6-37.1,37.1c0,20.5,16.6,37.1,37.1,37.1
		c7.1,0,13.6-2,19.3-5.4l17.2,4.2L246,55.9C249.2,50.4,251.1,44,251.1,37.1 M223.6,59.1c-2.9,1.3-6.2,2-9.6,2
		c-13.4,0-24.2-10.8-24.2-24.2c0-13.4,10.8-24.2,24.2-24.2c13.4,0,24.2,10.8,24.2,24.2c0,3.4-0.7,6.6-2,9.6l4.4,16.9L223.6,59.1z"/>
	<path class="st0" d="M268.3,58.2V42.4h28.9V29.2h-28.9V14.8h30.6V1.7h-49.1v14c0.5,0.8,0.9,1.6,1.3,2.4c3.3,5.6,5.2,12,5.2,19
		c0,6.9-1.9,13.3-5.1,18.8l4,15.5H300V58.2H268.3"/>
</g>
</svg>
