<?xml version="1.0" encoding="utf-8"?>
<!-- Generator: Adobe Illustrator 17.0.0, SVG Export Plug-In . SVG Version: 6.00 Build 0)  -->
<!DOCTYPE svg PUBLIC "-//W3C//DTD SVG 1.1//EN" "http://www.w3.org/Graphics/SVG/1.1/DTD/svg11.dtd">
<svg version="1.1" id="Слой_1" xmlns="http://www.w3.org/2000/svg" xmlns:xlink="http://www.w3.org/1999/xlink" x="0px" y="0px"
	 width="150px" height="35.753px" viewBox="0 0 150 35.753" enable-background="new 0 0 150 35.753" xml:space="preserve">
<g>
	<g>
		<g>
			<line fill="#622599" x1="16.102" y1="16.68" x2="16.096" y2="16.68"/>
			<path fill="#622599" d="M12.766,16.68"/>
			<path fill="#622599" d="M16.18,28.031c0,0-0.748-0.582-0.516-0.837"/>
			<path fill="#622599" d="M13.551,29.694c-0.703-0.27-1.657-0.346-2.187-0.14l0.134,0.239l0.355,0.49l0.409-0.042
				c0.012,0,0.32,0.011,0.546,0.124C12.808,30.364,13.48,29.667,13.551,29.694z"/>
			<g>
				<path fill="#622599" d="M15.8,0.065c0,0-0.14,0.086-0.191,0.159c-0.041,0.06-0.092,0.196-0.119,0.283
					c-0.025,0.079-0.027,0.184-0.097,0.278c0,0-0.094,0.113-0.208,0.182l0,0c0.47,0.021,0.935,0.069,1.394,0.137l-0.014-0.005
					c0.119-0.058,0.221-0.16,0.221-0.16c0.082-0.087,0.09-0.191,0.125-0.267c0.035-0.087,0.098-0.216,0.146-0.271
					c0.059-0.069,0.207-0.14,0.207-0.14h0.002c-0.479-0.093-0.966-0.159-1.457-0.202L15.8,0.065z"/>
			</g>
			<g>
				<path fill="#622599" d="M17.678,0.355c0,0-0.15,0.066-0.211,0.131c-0.05,0.057-0.118,0.185-0.156,0.268
					c-0.038,0.073-0.052,0.176-0.135,0.26c0,0-0.106,0.102-0.226,0.153l0,0c0.461,0.084,0.917,0.19,1.363,0.32l-0.014-0.009
					c0.127-0.042,0.24-0.129,0.24-0.129c0.094-0.078,0.117-0.18,0.16-0.249c0.045-0.079,0.125-0.201,0.18-0.251
					c0.067-0.059,0.223-0.114,0.223-0.114l0.001,0.004c-0.461-0.155-0.934-0.284-1.417-0.392L17.678,0.355z"/>
			</g>
			<g>
				<path fill="#622599" d="M19.501,0.886c0,0-0.157,0.047-0.227,0.105c-0.057,0.047-0.139,0.166-0.191,0.243
					c-0.045,0.069-0.073,0.17-0.166,0.243c0,0-0.116,0.085-0.245,0.121l0,0c0.448,0.141,0.884,0.307,1.308,0.495L19.972,2.08
					c0.129-0.022,0.255-0.095,0.255-0.095c0.1-0.064,0.135-0.162,0.188-0.227c0.056-0.071,0.15-0.182,0.212-0.224
					c0.074-0.051,0.235-0.082,0.235-0.082l0.002,0.002c-0.437-0.213-0.891-0.403-1.354-0.572L19.501,0.886z"/>
			</g>
			<g>
				<path fill="#622599" d="M21.238,1.652c0,0-0.162,0.026-0.237,0.073c-0.063,0.041-0.16,0.146-0.218,0.215
					c-0.057,0.065-0.096,0.16-0.199,0.222c0,0-0.13,0.067-0.259,0.087l0,0c0.426,0.201,0.836,0.42,1.232,0.66l-0.008-0.013
					c0.134-0.005,0.266-0.06,0.266-0.06c0.108-0.051,0.158-0.142,0.216-0.202c0.066-0.064,0.173-0.16,0.241-0.193
					c0.08-0.04,0.244-0.051,0.244-0.051l0.002,0.002c-0.407-0.268-0.831-0.517-1.269-0.745L21.238,1.652z"/>
			</g>
			<g>
				<path fill="#622599" d="M22.864,2.639c0,0-0.166,0.005-0.248,0.041c-0.068,0.031-0.178,0.124-0.246,0.186
					c-0.062,0.055-0.115,0.144-0.224,0.192c0,0-0.135,0.052-0.269,0.052l0,0c0.396,0.255,0.775,0.526,1.136,0.816l-0.008-0.012
					c0.132,0.01,0.273-0.028,0.273-0.028c0.113-0.037,0.172-0.12,0.241-0.171c0.072-0.055,0.192-0.137,0.263-0.16
					c0.084-0.029,0.249-0.018,0.249-0.018v0.002c-0.367-0.319-0.755-0.62-1.158-0.903L22.864,2.639z"/>
			</g>
			<g>
				<path fill="#622599" d="M24.344,3.825c0,0-0.165-0.016-0.252,0.009c-0.071,0.022-0.193,0.1-0.268,0.151
					c-0.067,0.047-0.13,0.129-0.247,0.161c0,0-0.14,0.034-0.272,0.019l0,0c0.361,0.302,0.699,0.623,1.02,0.956L24.32,5.108
					c0.13,0.028,0.271,0.009,0.271,0.009c0.118-0.021,0.193-0.097,0.263-0.137c0.08-0.044,0.21-0.111,0.282-0.126
					c0.087-0.018,0.249,0.015,0.249,0.015v0.002c-0.321-0.364-0.666-0.714-1.031-1.048L24.344,3.825z"/>
			</g>
			<g>
				<path fill="#622599" d="M25.656,5.197c0,0-0.16-0.04-0.248-0.023c-0.072,0.012-0.205,0.072-0.287,0.114
					c-0.074,0.038-0.149,0.111-0.267,0.13c0,0-0.144,0.014-0.271-0.019l0,0c0.315,0.349,0.61,0.709,0.887,1.08l-0.005-0.012
					c0.124,0.043,0.268,0.042,0.268,0.042c0.12-0.006,0.2-0.07,0.277-0.101c0.084-0.035,0.223-0.082,0.299-0.088
					c0.089-0.007,0.243,0.046,0.243,0.046v0.001c-0.272-0.402-0.568-0.792-0.885-1.171H25.656z"/>
			</g>
			<g>
				<path fill="#622599" d="M26.78,6.727c0,0-0.154-0.058-0.242-0.054c-0.077,0.003-0.216,0.046-0.303,0.076
					c-0.078,0.027-0.161,0.091-0.279,0.093c0,0-0.145-0.005-0.268-0.055l0,0c0.268,0.385,0.514,0.782,0.736,1.188V7.962
					c0.119,0.06,0.264,0.077,0.264,0.077c0.117,0.011,0.207-0.043,0.289-0.064c0.085-0.022,0.229-0.053,0.302-0.05
					c0.09,0.006,0.236,0.079,0.236,0.079l0.002,0.002c-0.218-0.435-0.46-0.86-0.725-1.277L26.78,6.727z"/>
			</g>
			<g>
				<path fill="#622599" d="M27.691,8.392c0,0-0.145-0.08-0.233-0.088c-0.076-0.006-0.218,0.018-0.306,0.037
					c-0.083,0.017-0.173,0.068-0.293,0.056c0,0-0.143-0.023-0.258-0.089l0,0c0.217,0.418,0.408,0.843,0.579,1.273V9.568
					c0.108,0.075,0.247,0.111,0.247,0.111c0.117,0.025,0.211-0.016,0.294-0.025c0.092-0.013,0.237-0.022,0.31-0.009
					c0.086,0.016,0.222,0.109,0.222,0.109v0.002c-0.158-0.459-0.342-0.916-0.552-1.362L27.691,8.392z"/>
			</g>
			<g>
				<path fill="#622599" d="M28.378,10.16c0,0-0.133-0.096-0.22-0.116c-0.073-0.016-0.217-0.011-0.309-0.002
					c-0.083,0.005-0.18,0.044-0.295,0.015c0,0-0.138-0.042-0.245-0.122l0,0c0.157,0.443,0.295,0.889,0.406,1.339v-0.015
					c0.1,0.089,0.234,0.144,0.234,0.144c0.111,0.04,0.211,0.011,0.294,0.011c0.09,0.002,0.235,0.009,0.309,0.033
					c0.083,0.027,0.207,0.139,0.207,0.139v0.002c-0.098-0.477-0.223-0.951-0.371-1.423L28.378,10.16z"/>
			</g>
			<g>
				<path fill="#622599" d="M28.828,12.004c0,0-0.117-0.113-0.201-0.144c-0.07-0.025-0.216-0.04-0.305-0.042
					c-0.083-0.007-0.185,0.02-0.297-0.024c0,0-0.132-0.06-0.227-0.151l0,0c0.102,0.459,0.175,0.918,0.227,1.378l0.002-0.013
					c0.086,0.1,0.213,0.173,0.213,0.173c0.105,0.053,0.207,0.038,0.29,0.049c0.09,0.015,0.234,0.038,0.302,0.073
					c0.081,0.038,0.189,0.162,0.189,0.162l-0.003,0.002c-0.034-0.486-0.095-0.973-0.18-1.459L28.828,12.004z"/>
			</g>
			<g>
				<path fill="#622599" d="M29.035,13.889c0,0-0.104-0.128-0.182-0.17c-0.065-0.035-0.208-0.066-0.295-0.082
					c-0.085-0.015-0.187-0.002-0.291-0.06c0,0-0.123-0.077-0.206-0.181l0,0c0.04,0.468,0.053,0.933,0.045,1.395l0.004-0.009
					c0.071,0.109,0.187,0.195,0.187,0.195c0.098,0.067,0.202,0.066,0.282,0.087c0.09,0.025,0.226,0.071,0.289,0.113
					c0.073,0.049,0.165,0.184,0.165,0.184v0.002c0.03-0.486,0.034-0.976,0.012-1.468L29.035,13.889z"/>
			</g>
			<g>
				<path fill="#622599" d="M28.991,15.787c0,0-0.084-0.14-0.157-0.191c-0.062-0.043-0.197-0.094-0.284-0.12
					c-0.08-0.026-0.185-0.029-0.28-0.098c0,0-0.114-0.093-0.179-0.206l0,0c-0.025,0.47-0.069,0.933-0.141,1.39l0.007-0.011
					c0.058,0.119,0.159,0.221,0.159,0.221c0.089,0.078,0.194,0.091,0.269,0.124c0.085,0.036,0.216,0.098,0.273,0.147
					c0.065,0.058,0.14,0.204,0.14,0.204v0.004c0.09-0.479,0.159-0.964,0.202-1.455L28.991,15.787z"/>
			</g>
			<g>
				<path fill="#622599" d="M28.702,17.662c0,0-0.066-0.15-0.132-0.21c-0.055-0.051-0.184-0.118-0.267-0.157
					c-0.073-0.037-0.18-0.051-0.264-0.135c0,0-0.099-0.104-0.15-0.226l0,0c-0.085,0.461-0.189,0.915-0.319,1.362l0.009-0.011
					c0.04,0.125,0.129,0.238,0.129,0.238c0.077,0.091,0.18,0.115,0.25,0.157c0.078,0.049,0.198,0.126,0.249,0.184
					c0.061,0.064,0.114,0.221,0.114,0.221l-0.002,0.002c0.153-0.461,0.285-0.934,0.392-1.416L28.702,17.662z"/>
			</g>
			<g>
				<path fill="#622599" d="M28.206,19.5c0,0-0.036-0.159-0.088-0.232c-0.043-0.061-0.156-0.154-0.228-0.209
					c-0.066-0.047-0.165-0.086-0.231-0.184c0,0-0.075-0.122-0.104-0.252l0,0c-0.174,0.436-0.371,0.86-0.587,1.268l0.01-0.007
					c0.016,0.131,0.08,0.259,0.08,0.259c0.056,0.105,0.15,0.15,0.211,0.205c0.069,0.062,0.172,0.162,0.209,0.228
					c0.045,0.077,0.065,0.241,0.065,0.241l0,0c0.242-0.421,0.466-0.856,0.667-1.306L28.206,19.5z"/>
			</g>
			<g>
				<path fill="#622599" d="M27.405,21.221c0,0-0.026-0.161-0.073-0.238c-0.04-0.064-0.148-0.162-0.217-0.221
					c-0.063-0.055-0.16-0.095-0.222-0.197c0,0-0.067-0.129-0.087-0.259l0,0c-0.2,0.425-0.421,0.837-0.66,1.232l0.01-0.007
					c0.007,0.129,0.064,0.266,0.064,0.266c0.052,0.104,0.143,0.157,0.201,0.215c0.063,0.066,0.16,0.172,0.195,0.24
					c0.039,0.078,0.05,0.243,0.05,0.243l-0.001,0.002c0.268-0.406,0.516-0.831,0.745-1.266L27.405,21.221z"/>
			</g>
			<g>
				<path fill="#622599" d="M26.415,22.841c0,0-0.002-0.162-0.04-0.244c-0.03-0.067-0.123-0.179-0.186-0.248
					c-0.056-0.06-0.145-0.115-0.191-0.222c0,0-0.051-0.137-0.055-0.268l0,0c-0.253,0.395-0.526,0.77-0.814,1.135l0.011-0.007
					c-0.009,0.131,0.029,0.269,0.029,0.269c0.034,0.117,0.119,0.177,0.169,0.243c0.055,0.073,0.139,0.193,0.162,0.263
					c0.029,0.086,0.018,0.248,0.018,0.248l0,0.004c0.321-0.37,0.62-0.758,0.903-1.161L26.415,22.841z"/>
			</g>
			<g>
				<path fill="#622599" d="M25.23,24.32c0,0,0.016-0.162-0.011-0.245c-0.022-0.073-0.1-0.195-0.152-0.268
					c-0.048-0.071-0.13-0.137-0.163-0.25c0,0-0.031-0.14-0.016-0.274l0,0c-0.304,0.359-0.624,0.702-0.957,1.018l0.012-0.006
					c-0.026,0.129-0.006,0.274-0.006,0.274c0.02,0.117,0.097,0.188,0.136,0.263c0.045,0.08,0.111,0.208,0.127,0.283
					c0.019,0.087-0.014,0.249-0.014,0.249l-0.002,0.002c0.364-0.325,0.713-0.67,1.048-1.035V24.32z"/>
			</g>
			<g>
				<path fill="#622599" d="M23.856,25.632c0,0,0.039-0.159,0.025-0.248c-0.015-0.073-0.075-0.204-0.116-0.284
					c-0.038-0.073-0.113-0.149-0.129-0.268c0,0-0.015-0.142,0.018-0.272l0,0c-0.348,0.315-0.707,0.61-1.083,0.885l0.015-0.004
					c-0.045,0.124-0.045,0.268-0.045,0.268c0.007,0.12,0.073,0.202,0.102,0.279c0.035,0.084,0.082,0.22,0.088,0.296
					c0.007,0.086-0.048,0.244-0.048,0.244l0,0c0.402-0.274,0.794-0.568,1.173-0.887V25.632z"/>
			</g>
			<g>
				<path fill="#622599" d="M22.324,26.754c0,0,0.059-0.153,0.053-0.241c-0.002-0.077-0.044-0.215-0.075-0.303
					c-0.029-0.077-0.09-0.16-0.092-0.278c0,0,0.003-0.146,0.052-0.27l0,0c-0.385,0.27-0.784,0.515-1.19,0.737l0.016-0.002
					c-0.062,0.119-0.08,0.263-0.08,0.263c-0.008,0.117,0.045,0.208,0.066,0.29c0.022,0.088,0.052,0.231,0.049,0.304
					c-0.005,0.088-0.078,0.235-0.078,0.235h-0.002c0.435-0.219,0.862-0.459,1.279-0.725L22.324,26.754z"/>
			</g>
			<g>
				<path fill="#622599" d="M20.657,27.666c0,0,0.078-0.146,0.087-0.233c0.006-0.073-0.019-0.217-0.039-0.308
					c-0.017-0.079-0.067-0.17-0.054-0.289c0,0,0.023-0.144,0.089-0.257l0,0c-0.42,0.215-0.843,0.407-1.276,0.575h0.014
					c-0.074,0.108-0.124,0.244-0.124,0.244c-0.03,0.133-0.027,0.199-0.015,0.297c0.011,0.095-0.022,0.237-0.036,0.312
					c-0.015,0.088-0.095,0.251-0.095,0.251l0,0c0.46-0.16,0.996-0.369,1.444-0.579L20.657,27.666z"/>
			</g>
			<g>
				<path fill="#622599" d="M18.778,28.344c0,0,0.037-0.093,0.061-0.18c0.016-0.075,0.041-0.172,0.035-0.262
					c-0.005-0.086-0.067-0.151-0.035-0.264c0,0,0.085-0.255,0.168-0.359l0,0c-0.447,0.148-1.091,0.401-1.503,0.624l0,0
					c-0.097,0.046-0.191,0.093-0.191,0.093c-0.042,0.108-0.06,0.2-0.062,0.284c-0.005,0.089-0.019,0.222-0.019,0.315
					c0.003,0.197-0.182,0.471-0.182,0.471l0,0c0.479-0.085,1.087-0.362,1.491-0.599L18.778,28.344z"/>
			</g>
			<g>
				<path fill="#622599" d="M9.553,28.143c0,0,0.158-0.046,0.224-0.103c0.06-0.047,0.144-0.164,0.195-0.241
					c0.044-0.069,0.07-0.171,0.165-0.244c0,0,0.118-0.086,0.245-0.122l0,0c-0.448-0.144-0.884-0.308-1.307-0.491l0.01,0.009
					c-0.13,0.022-0.258,0.097-0.258,0.097C8.729,27.11,8.69,27.209,8.64,27.273c-0.056,0.073-0.152,0.182-0.215,0.224
					c-0.074,0.053-0.234,0.082-0.234,0.082l-0.002-0.002c0.438,0.213,0.892,0.405,1.356,0.572L9.553,28.143z"/>
			</g>
			<g>
				<path fill="#622599" d="M7.815,27.38c0,0,0.163-0.025,0.24-0.071c0.062-0.042,0.16-0.148,0.219-0.219
					c0.054-0.061,0.095-0.161,0.197-0.22c0,0,0.129-0.069,0.258-0.089l0,0c-0.424-0.197-0.836-0.419-1.233-0.66l0.01,0.013
					c-0.132,0.006-0.267,0.062-0.267,0.062c-0.107,0.051-0.158,0.142-0.218,0.202c-0.063,0.064-0.171,0.16-0.239,0.193
					c-0.079,0.042-0.244,0.049-0.244,0.049l0,0c0.407,0.268,0.831,0.513,1.266,0.743L7.815,27.38z"/>
			</g>
			<g>
				<path fill="#622599" d="M6.192,26.393c0,0,0.164-0.002,0.243-0.04c0.07-0.031,0.18-0.124,0.25-0.186
					c0.06-0.056,0.114-0.145,0.221-0.192c0,0,0.137-0.049,0.269-0.053l0,0c-0.395-0.255-0.773-0.529-1.134-0.812l0.005,0.008
					c-0.132-0.008-0.271,0.029-0.271,0.029c-0.113,0.037-0.174,0.12-0.242,0.17c-0.074,0.055-0.192,0.137-0.263,0.16
					c-0.084,0.029-0.247,0.018-0.247,0.018L5.02,25.493c0.37,0.321,0.756,0.621,1.162,0.905L6.192,26.393z"/>
			</g>
			<g>
				<path fill="#622599" d="M4.71,25.205c0,0,0.165,0.018,0.25-0.009c0.071-0.024,0.194-0.098,0.269-0.15
					c0.069-0.047,0.134-0.129,0.247-0.162c0,0,0.143-0.035,0.274-0.018l0,0c-0.359-0.303-0.699-0.624-1.021-0.956l0.006,0.013
					c-0.13-0.027-0.274-0.007-0.274-0.007c-0.116,0.02-0.188,0.098-0.26,0.137c-0.08,0.044-0.209,0.108-0.284,0.125
					c-0.086,0.016-0.247-0.016-0.247-0.016H3.668c0.324,0.367,0.668,0.715,1.032,1.048L4.71,25.205z"/>
			</g>
			<g>
				<path fill="#622599" d="M3.399,23.832c0,0,0.16,0.037,0.249,0.022c0.074-0.009,0.205-0.073,0.287-0.115
					c0.074-0.036,0.149-0.111,0.266-0.128c0,0,0.144-0.016,0.273,0.016l0,0c-0.315-0.346-0.612-0.708-0.887-1.08l0.004,0.015
					c-0.125-0.046-0.271-0.046-0.271-0.046c-0.118,0.007-0.199,0.073-0.278,0.104c-0.084,0.035-0.221,0.082-0.294,0.087
					c-0.089,0.007-0.246-0.047-0.246-0.047l-0.002-0.002c0.275,0.403,0.57,0.792,0.885,1.173H3.399z"/>
			</g>
			<g>
				<path fill="#622599" d="M2.279,22.301c0,0,0.152,0.058,0.241,0.055c0.073-0.004,0.214-0.047,0.302-0.078
					c0.077-0.027,0.161-0.089,0.279-0.091c0,0,0.145,0.004,0.268,0.053l0,0c-0.268-0.386-0.514-0.781-0.737-1.187v0.015
					c-0.116-0.06-0.261-0.078-0.261-0.078c-0.116-0.009-0.206,0.046-0.285,0.064c-0.091,0.025-0.233,0.055-0.306,0.049
					c-0.089-0.005-0.237-0.078-0.237-0.078l-0.001-0.002c0.218,0.437,0.46,0.861,0.723,1.278L2.279,22.301z"/>
			</g>
			<g>
				<path fill="#622599" d="M1.364,20.637c0,0,0.145,0.078,0.234,0.087c0.075,0.007,0.219-0.018,0.305-0.038
					c0.085-0.018,0.174-0.069,0.294-0.055c0,0,0.141,0.024,0.257,0.088l0,0c-0.215-0.419-0.405-0.841-0.574-1.274v0.015
					c-0.11-0.075-0.251-0.111-0.251-0.111c-0.115-0.026-0.211,0.016-0.295,0.027c-0.089,0.009-0.232,0.02-0.308,0.007
					c-0.088-0.018-0.224-0.109-0.224-0.109v-0.002c0.158,0.459,0.344,0.915,0.552,1.363L1.364,20.637z"/>
			</g>
			<g>
				<path fill="#622599" d="M0.677,18.868c0,0,0.134,0.097,0.222,0.117c0.072,0.018,0.216,0.011,0.308,0.004
					c0.083-0.007,0.18-0.044,0.297-0.016c0,0,0.139,0.04,0.244,0.12l0,0c-0.16-0.443-0.294-0.89-0.406-1.337v0.013
					c-0.098-0.087-0.23-0.142-0.23-0.142c-0.115-0.04-0.214-0.009-0.299-0.013c-0.09,0-0.234-0.009-0.309-0.033
					c-0.083-0.026-0.206-0.137-0.206-0.137v-0.002c0.097,0.478,0.22,0.953,0.371,1.423L0.677,18.868z"/>
			</g>
			<g>
				<path fill="#622599" d="M0.228,17.024c0,0,0.119,0.114,0.202,0.145c0.073,0.024,0.216,0.037,0.306,0.042
					c0.083,0.004,0.184-0.022,0.297,0.022c0,0,0.132,0.058,0.226,0.153l0,0c-0.1-0.461-0.176-0.922-0.226-1.379l-0.006,0.013
					c-0.084-0.098-0.209-0.171-0.209-0.171c-0.105-0.055-0.21-0.038-0.293-0.051c-0.09-0.013-0.233-0.038-0.3-0.073
					c-0.078-0.036-0.187-0.162-0.187-0.162v-0.002c0.035,0.484,0.096,0.973,0.18,1.458L0.228,17.024z"/>
			</g>
			<g>
				<path fill="#622599" d="M0.022,15.14c0,0,0.104,0.126,0.181,0.166c0.067,0.037,0.21,0.069,0.3,0.084
					c0.081,0.015,0.184,0.004,0.289,0.062c0,0,0.121,0.075,0.203,0.178l0,0c-0.04-0.468-0.052-0.933-0.042-1.397l-0.005,0.015
					c-0.075-0.111-0.188-0.198-0.188-0.198c-0.098-0.067-0.203-0.066-0.284-0.089c-0.088-0.024-0.225-0.069-0.287-0.111
					c-0.075-0.047-0.166-0.186-0.166-0.186l0,0c-0.028,0.486-0.031,0.975-0.009,1.468L0.022,15.14z"/>
			</g>
			<g>
				<path fill="#622599" d="M0.066,13.241c0,0,0.084,0.142,0.159,0.193c0.06,0.042,0.195,0.091,0.284,0.12
					c0.078,0.024,0.184,0.027,0.277,0.096c0,0,0.114,0.093,0.181,0.206l0,0c0.023-0.47,0.07-0.931,0.139-1.39l-0.006,0.013
					c-0.058-0.12-0.16-0.221-0.16-0.221c-0.09-0.08-0.191-0.093-0.27-0.126c-0.083-0.034-0.212-0.096-0.272-0.147
					C0.33,11.929,0.258,11.78,0.258,11.78l0.002-0.002c-0.093,0.481-0.16,0.964-0.202,1.455L0.066,13.241z"/>
			</g>
			<g>
				<path fill="#622599" d="M0.355,11.366c0,0,0.067,0.15,0.131,0.21c0.057,0.053,0.183,0.12,0.268,0.158
					c0.074,0.033,0.177,0.051,0.263,0.133c0,0,0.098,0.106,0.151,0.228l0,0c0.085-0.463,0.19-0.917,0.318-1.361l-0.007,0.009
					c-0.04-0.124-0.129-0.238-0.129-0.238c-0.077-0.091-0.179-0.117-0.25-0.157c-0.078-0.047-0.201-0.128-0.251-0.182
					c-0.059-0.067-0.11-0.222-0.11-0.222V9.942c-0.154,0.463-0.282,0.934-0.391,1.417L0.355,11.366z"/>
			</g>
			<g>
				<path fill="#622599" d="M0.888,9.545c0,0,0.046,0.158,0.103,0.227c0.048,0.058,0.167,0.139,0.244,0.19
					c0.069,0.046,0.17,0.073,0.244,0.166c0,0,0.084,0.118,0.121,0.244l0,0c0.142-0.446,0.308-0.883,0.494-1.306L2.086,9.077
					C2.06,8.947,1.987,8.821,1.987,8.821c-0.062-0.1-0.163-0.14-0.226-0.189C1.689,8.578,1.575,8.481,1.533,8.419
					C1.485,8.346,1.453,8.185,1.453,8.185l0,0C1.242,8.619,1.052,9.071,0.883,9.536L0.888,9.545z"/>
			</g>
			<g>
				<path fill="#622599" d="M1.652,7.811c0,0,0.028,0.162,0.075,0.237c0.039,0.062,0.147,0.16,0.215,0.218
					c0.065,0.055,0.16,0.097,0.221,0.198c0,0,0.067,0.128,0.088,0.257l0,0c0.2-0.423,0.42-0.834,0.659-1.231l-0.01,0.009
					C2.895,7.368,2.836,7.231,2.836,7.231c-0.051-0.103-0.141-0.154-0.2-0.215C2.573,6.951,2.476,6.845,2.443,6.779
					c-0.04-0.081-0.052-0.245-0.052-0.245l0.002-0.002C2.126,6.939,1.877,7.361,1.65,7.798L1.652,7.811z"/>
			</g>
			<g>
				<path fill="#622599" d="M2.638,6.189c0,0,0.005,0.165,0.042,0.243c0.031,0.069,0.125,0.179,0.186,0.25
					c0.055,0.059,0.145,0.114,0.194,0.224c0,0,0.048,0.135,0.052,0.266l0,0c0.253-0.396,0.525-0.774,0.815-1.135L3.915,6.044
					C3.926,5.91,3.888,5.772,3.888,5.772c-0.038-0.113-0.12-0.175-0.17-0.24C3.663,5.459,3.58,5.339,3.556,5.268
					C3.526,5.184,3.54,5.02,3.54,5.02L3.54,5.018C3.222,5.386,2.919,5.772,2.635,6.177L2.638,6.189z"/>
			</g>
			<g>
				<path fill="#622599" d="M3.829,4.709c0,0-0.019,0.162,0.009,0.247c0.02,0.074,0.099,0.194,0.15,0.271
					c0.049,0.069,0.132,0.133,0.162,0.247c0,0,0.035,0.139,0.018,0.274l0,0c0.304-0.36,0.625-0.7,0.956-1.02L5.112,4.733
					c0.029-0.131,0.011-0.274,0.011-0.274C5.1,4.342,5.024,4.272,4.984,4.199c-0.045-0.078-0.11-0.21-0.126-0.282
					C4.84,3.831,4.872,3.668,4.872,3.668l0.002-0.003C4.509,3.991,4.161,4.333,3.828,4.696L3.829,4.709z"/>
			</g>
			<g>
				<path fill="#622599" d="M5.201,3.395c0,0-0.038,0.162-0.023,0.25C5.191,3.72,5.253,3.851,5.294,3.933
					c0.037,0.073,0.11,0.15,0.126,0.265c0,0,0.017,0.143-0.018,0.272l0,0c0.349-0.316,0.712-0.612,1.084-0.885L6.472,3.589
					c0.045-0.124,0.044-0.27,0.044-0.27c-0.005-0.117-0.074-0.2-0.102-0.277C6.379,2.957,6.331,2.82,6.326,2.746
					C6.319,2.66,6.373,2.501,6.373,2.501l0,0C5.972,2.774,5.579,3.069,5.201,3.386V3.395z"/>
			</g>
			<g>
				<path fill="#622599" d="M6.732,2.277c0,0-0.058,0.153-0.056,0.241C6.682,2.594,6.723,2.733,6.754,2.82
					c0.028,0.077,0.092,0.16,0.093,0.279c0,0-0.005,0.144-0.053,0.266l0,0c0.386-0.266,0.782-0.51,1.187-0.735L7.969,2.632
					C8.028,2.514,8.048,2.37,8.048,2.37c0.008-0.117-0.046-0.207-0.067-0.288c-0.023-0.088-0.05-0.232-0.048-0.304
					c0.005-0.089,0.08-0.237,0.08-0.237l0.001-0.002C7.578,1.76,7.151,1.999,6.735,2.266L6.732,2.277z"/>
			</g>
			<g>
				<path fill="#622599" d="M8.4,1.364c0,0-0.079,0.145-0.088,0.234C8.305,1.671,8.331,1.816,8.35,1.904
					c0.019,0.081,0.069,0.17,0.055,0.291c0,0-0.022,0.144-0.088,0.259l0,0c0.417-0.216,0.845-0.409,1.275-0.576H9.576
					C9.652,1.769,9.69,1.63,9.69,1.63c0.026-0.117-0.018-0.212-0.028-0.297C9.652,1.244,9.64,1.1,9.653,1.026
					C9.67,0.938,9.762,0.804,9.762,0.804h0.002C9.305,0.963,8.848,1.146,8.403,1.355L8.4,1.364z"/>
			</g>
			<g>
				<path fill="#622599" d="M10.17,0.68c0,0-0.097,0.133-0.116,0.218c-0.017,0.073-0.011,0.219-0.002,0.31
					c0.005,0.082,0.045,0.178,0.016,0.293c0,0-0.044,0.14-0.122,0.245l0,0c0.441-0.158,0.887-0.293,1.337-0.406h-0.012
					c0.088-0.098,0.142-0.233,0.142-0.233c0.041-0.111,0.012-0.212,0.012-0.294c0.002-0.09,0.009-0.237,0.033-0.306
					c0.028-0.085,0.135-0.208,0.135-0.208h0.003c-0.477,0.098-0.951,0.22-1.422,0.37L10.17,0.68z"/>
			</g>
			<g>
				<path fill="#622599" d="M12.014,0.23c0,0-0.11,0.119-0.143,0.202c-0.028,0.068-0.038,0.214-0.044,0.305
					c-0.003,0.084,0.021,0.187-0.023,0.295c0,0-0.058,0.132-0.151,0.227l0,0c0.46-0.098,0.92-0.174,1.379-0.224L13.02,1.027
					c0.1-0.084,0.172-0.211,0.172-0.211c0.053-0.105,0.038-0.208,0.049-0.292c0.014-0.091,0.04-0.231,0.072-0.299
					c0.04-0.082,0.162-0.19,0.162-0.19h0.004c-0.487,0.038-0.974,0.096-1.46,0.181L12.014,0.23z"/>
			</g>
			<g>
				<path fill="#622599" d="M13.902,0.024c0,0-0.126,0.104-0.168,0.181c-0.037,0.067-0.069,0.209-0.085,0.299
					c-0.013,0.082-0.002,0.186-0.06,0.288c0,0-0.077,0.124-0.18,0.206l0,0c0.469-0.04,0.934-0.053,1.398-0.044l-0.013-0.004
					c0.111-0.076,0.198-0.188,0.198-0.188c0.067-0.098,0.065-0.203,0.088-0.283c0.023-0.088,0.07-0.226,0.11-0.288
					c0.048-0.075,0.185-0.164,0.185-0.164h0.003c-0.488-0.029-0.978-0.034-1.471-0.011L13.902,0.024z"/>
			</g>
			<g>
				<path fill="#622599" d="M10.376,28.088c0,0,0.153,0.782,0.668,0.806c0.099-0.319,0.539-0.7,0.806-0.889l0.099-0.115
					c-0.084-0.651,0.21-1.004,0.21-1.004l-0.29,0.067c-0.623,0.167-1.181,0.595-1.502,1.136L10.376,28.088z"/>
			</g>
			<g>
				<path fill="#622599" d="M11.306,30.678c0.105-0.031,0.207-0.122,0.244-0.162h0.005c-0.359-0.279-0.587-0.719-0.577-1.21
					c-0.655-0.077-0.803-0.816-0.803-0.816l0.002,0.002c-0.09,0.248-0.144,0.518-0.15,0.796c-0.009,0.511,0.14,0.989,0.397,1.385
					h0.009C10.433,30.672,10.939,30.782,11.306,30.678z"/>
			</g>
			<g>
				<path fill="#622599" d="M12.723,30.805c-0.091,0.016-0.187,0.024-0.283,0.02c-0.183-0.002-0.357-0.038-0.519-0.102h-0.005
					c-0.14,0.448-1.155,0.351-1.155,0.351l0,0c0.359,0.346,0.846,0.605,1.369,0.68l-0.006-0.009c0,0,0.575-0.12,0.593-0.947
					L12.723,30.805z"/>
			</g>
			<g>
				<path fill="#622599" d="M13.03,30.752c0.006-0.004,0.011-0.007,0.018-0.013l0.435,0.097c0.81,0.209,0.962,0.333,0.962,0.333l0,0
					c0,0-0.924,0.867-1.736,0.658l0,0c0,0,0.608-0.441,0.339-1.088l0,0"/>
			</g>
			<g>
				<path fill="#622599" d="M15.755,30.548c-0.616-0.494-1.214-0.575-1.663-0.725l0,0l-0.899,0.626l1.071,0.356
					c0.325,0.086,0.407,0.24,0.816,0.504C15.08,31.309,16.026,30.765,15.755,30.548z"/>
			</g>
			<g>
				<path fill="#622599" d="M17.593,31.452c-0.349,0.35-0.923,0.372-0.923,0.372c-0.407,0.011-0.789-0.022-1.256-0.31
					c0,0,0.79-0.528,0.754-0.798c0.179,0.049,0.731,0.139,0.874,0.04C17.041,30.756,17.233,31.229,17.593,31.452z"/>
			</g>
			<g>
				<path fill="#622599" d="M16.18,28.031c0.409-0.336,0.767-0.465,1.042-0.381c0.949-0.41,1.103-0.443,1.103-0.443l0,0
					c-0.372-0.417-0.756-0.502-1.402-0.48c-0.292,0.011-1.183,0.341-1.323,0.541"/>
			</g>
			<g>
				<path fill="#622599" d="M15.88,28.234c0,0-0.623-0.524-0.504-0.896c-0.694,0.609-0.976,0.914-1.549,0.914l0,0
					c-0.145,0.025-0.018,0.005-0.018,0.005c-0.072,0.097-0.119,0.208-0.145,0.288c-0.028,0.088-0.057,0.188-0.058,0.264
					c-0.007,0.243,0.011,0.311,0.011,0.311l0,0c0.627,0.037,0.587,0.058,1.162-0.098c0,0,0.394-0.142,0.779-0.514
					C15.624,28.446,15.815,28.3,15.88,28.234z"/>
			</g>
			<g>
				<path fill="#622599" d="M13.322,29.158c0,0-0.068-0.004,0.009-0.371c0.023-0.109,0.063-0.179,0.096-0.264
					c0.03-0.077,0.07-0.184,0.145-0.275c0,0-0.118,0.064,0,0l-0.176,0.007c-0.469-0.04-0.711-0.08-1.164-0.166l0,0
					c-0.122-0.006,0,0,0,0c-0.147,0.044-0.354,0.179-0.39,0.253c-0.039,0.082-0.119,0.109-0.171,0.164
					c-0.038,0.04-0.168,0.204-0.168,0.204h-0.002C11.975,28.92,12.846,29.174,13.322,29.158L13.322,29.158z"/>
			</g>
			<g>
				<g>
					<path fill="#622599" d="M12.754,26.971c0.074-0.117,0.227-0.077,0.337-0.089c0.564-0.062,1.359,0.313,1.521,0.677l-0.254,0.191
						c-0.217,0.186-0.521,0.222-0.521,0.222l-0.144-0.051c-0.176-0.077-0.439-0.102-0.644-0.108
						c-0.201-0.004-0.424-0.053-0.601,0.015l0,0c-0.209-0.221,0.305-0.854,0.305-0.854V26.971z"/>
				</g>
			</g>
			<g>
				<path fill="#622599" d="M10.439,31.129c-0.201,0.146-0.33,0.266-0.33,0.266l-0.206,0.197l0.011-0.007
					c0,0-0.656-0.767-1.169-0.324l-0.005,0.004c0.218-0.271,0.41-0.519,0.52-0.626c0.114-0.117,0.244-0.233,0.448-0.341
					l-0.056,0.038c0.072-0.036,0.144-0.064,0.212-0.084C9.864,30.251,9.999,30.891,10.439,31.129z"/>
			</g>
			<g>
				<path fill="#622599" d="M8.403,31.687c0.669-0.551,1.217,0.177,1.217,0.177l-0.499,0.482L8.403,31.687z"/>
			</g>
			<g>
				<polygon fill="#622599" points="8.817,32.641 8.909,32.539 8.251,31.904 8.158,32.007 				"/>
			</g>
			<g>
				<path fill="#622599" d="M7.984,32.134c-0.229,0.148-0.374,0.279-0.374,0.279l0.738,0.862l0.308-0.46L7.984,32.134z"/>
			</g>
			<g>
				<path fill="#622599" d="M20.209,32.366c0.223,0.16,0.363,0.295,0.363,0.295l-0.769,0.834l-0.293-0.472L20.209,32.366z"/>
			</g>
			<g>
				<polygon fill="#622599" points="20.009,32.258 19.913,32.158 19.227,32.765 19.324,32.866 				"/>
			</g>
			<g>
				<path fill="#622599" d="M19.809,31.904c-0.645-0.574-1.224,0.132-1.224,0.132l0.481,0.501L19.809,31.904z"/>
			</g>
			<g>
				<path fill="#622599" d="M18.558,30.468c-0.88-0.471-1.347,0.202-1.347,0.202l0,0c0.545,0.264,0.966,0.858,0.966,0.858
					l0.137,0.226l-0.011-0.009c0,0,0.684-0.744,1.179-0.279l0.006,0.004c-0.211-0.279-0.393-0.522-0.496-0.634
					C18.903,30.741,18.754,30.608,18.558,30.468L18.558,30.468z"/>
			</g>
			<g>
				<path fill="#622599" d="M15.278,29.052c-0.076,0.031,0.465,0.224,1.325,0.1l0.007-0.009c0,0,0.116-0.116,0.148-0.196
					c0.031-0.073,0.089-0.237,0.096-0.33c0.007-0.082,0.033-0.135,0.036-0.25c0,0,0-0.115,0.039-0.213l0,0
					c-0.098,0.049-0.61,0.221-0.61,0.221c-0.14,0.033-0.236,0.053-0.236,0.053c-0.079,0.056-0.14,0.131-0.204,0.186
					c-0.043,0.033-0.142,0.12-0.252,0.208C15.574,28.869,15.312,29.028,15.278,29.052z"/>
			</g>
			<g>
				<path fill="#622599" d="M18.88,30.264c0.533-0.606,0.305-1.324,0.209-1.67l-1.047,0.48c0.016,0.047,0.173,0.345-0.121,0.682
					C17.921,29.756,18.939,30.196,18.88,30.264z"/>
			</g>
			<g>
				<g>
					<path fill="#622599" d="M16.837,30.524c0,0.007,0.706-0.656,1.157-0.452l-0.102-0.09c-0.405-0.301-0.896-0.478-1.378-0.49
						c-0.436-0.015-1.197,0.113-1.372,0.397c0,0,0.658,0.129,1.068,0.546C16.247,30.473,16.419,30.424,16.837,30.524z"/>
				</g>
			</g>
		</g>
		<g>
			<path fill="#622599" d="M6.044,14.253l0.421-0.838l0.926,0.144l-0.667-0.663l0.423-0.836l-0.836,0.43l-0.669-0.658l0.153,0.925
				l-0.833,0.432l0.929,0.14L6.044,14.253z M12.423,16.736l-0.023,0.004c-0.484,0.046-1.104,0.098-1.673,0.224
				c-0.274-1.068-1.048-2.435-2.378-2.244c-1.14,0.166-1.618,1.335-1.346,2.373c-1.625,0.226-2.991-1.091-3.319-2.59
				c-0.49-2.241,1.146-4.498,3.514-4.496C10.52,10.013,12.31,14.39,12.423,16.736z"/>
			<path fill="#622599" d="M23.009,14.259l0.154-0.925l0.929-0.139l-0.833-0.434l0.153-0.923l-0.668,0.656l-0.835-0.43l0.42,0.84
				l-0.669,0.658l0.929-0.14L23.009,14.259z M16.633,16.74c0.111-2.346,1.902-6.725,5.227-6.727
				c2.368-0.006,4.003,2.255,3.513,4.496c-0.328,1.497-1.696,2.814-3.322,2.588c0.274-1.038-0.203-2.209-1.343-2.373
				c-1.329-0.193-2.103,1.177-2.375,2.234c-0.573-0.113-1.194-0.168-1.673-0.213L16.633,16.74z"/>
			<path fill="#622599" d="M14.536,18.241c2.148,0,3.875-0.201,3.875-0.335c0-0.135-1.74-0.346-3.887-0.346
				c-2.148,0-3.889,0.211-3.889,0.346C10.635,18.04,12.388,18.241,14.536,18.241z M14.524,18.728c-2.482,0-4.496-0.367-4.496-0.821
				c0-0.452,2.014-0.819,4.496-0.819s4.494,0.367,4.494,0.819C19.018,18.361,17.006,18.728,14.524,18.728z"/>
			<g>
				<path fill="#622599" d="M18.179,18.879c-0.455,0.095-0.985,0.171-1.568,0.226l0.005-0.007c0.11,0.987,0.926,3.111,2.324,3.111
					c1.023,0,1.823-0.9,1.904-1.878c-1.202,0.571-2.425-0.024-2.674-1.455L18.179,18.879z"/>
			</g>
			<g>
				<path fill="#622599" d="M12.424,19.105c-0.571-0.055-1.096-0.129-1.551-0.221l-0.003-0.013
					c-0.235,1.455-1.469,2.059-2.677,1.484c0.08,0.98,0.878,1.878,1.903,1.878c1.41,0,2.228-2.156,2.326-3.132L12.424,19.105z"/>
			</g>
			<g>
				<path fill-rule="evenodd" clip-rule="evenodd" fill="#622599" d="M14.524,3.172c0.599,0.644,1.592,1.4,1.796,1.554
					c1.532,1.148,2.253,2.726,2.261,4.102c0.022,2.549-2.126,4.785-2.397,7.864c-0.436-0.051-0.901-0.071-1.386-0.075
					c0.055-3.122-0.063-7.352-0.275-10.406c-0.212,3.054-0.332,7.284-0.276,10.406c-0.482,0.004-0.948,0.024-1.384,0.075
					c-0.268-3.079-2.417-5.315-2.401-7.864c0.013-1.377,0.733-2.954,2.265-4.102C12.933,4.572,13.926,3.816,14.524,3.172z"/>
			</g>
			<g>
				<path fill-rule="evenodd" clip-rule="evenodd" fill="#622599" d="M14.524,25.053c1.199-0.527,2.43-1.642,2.958-2.788
					c-0.761-1.053-1.146-2.196-1.267-3.12c-0.443,0.031-0.907,0.051-1.391,0.051c-0.062,0.831-0.06,2.59-0.3,3.543
					c-0.242-0.953-0.239-2.712-0.298-3.543c-0.485,0-0.952-0.02-1.392-0.051c-0.119,0.924-0.506,2.067-1.266,3.12
					C12.094,23.411,13.327,24.526,14.524,25.053z"/>
			</g>
		</g>
	</g>
	<g>
		<path fill="#622599" d="M148.434,4.842c0.852,0,1.566,0.669,1.566,1.545c0,0.893-0.714,1.56-1.566,1.56
			c-0.851,0-1.567-0.668-1.567-1.544C146.867,5.51,147.583,4.842,148.434,4.842z M148.434,7.721c0.73,0,1.315-0.575,1.315-1.335
			c0-0.747-0.584-1.319-1.315-1.319c-0.73,0-1.316,0.571-1.316,1.335C147.118,7.146,147.704,7.721,148.434,7.721z M147.854,5.506
			h0.66c0.429,0,0.634,0.158,0.634,0.516c0,0.322-0.208,0.459-0.475,0.488l0.517,0.794h-0.272l-0.493-0.772h-0.321v0.772h-0.25
			V5.506z M148.104,6.306h0.31c0.25,0,0.484-0.013,0.484-0.296c0-0.251-0.214-0.279-0.406-0.279h-0.388V6.306z"/>
	</g>
	<g>
		<path fill="#622599" d="M81.448,21.237c-3.586,0-5.937-2.708-5.937-6.862c0-4.075,2.376-6.778,5.937-6.778
			c3.552,0,5.922,2.703,5.922,6.778C87.37,18.529,85.025,21.237,81.448,21.237z M81.459,4.91c-2.656,0-4.949,0.826-6.653,2.346
			c-1.925,1.709-3.008,4.287-3.008,7.325c0,3.125,1.149,5.713,3.218,7.449c1.662,1.397,3.877,2.191,6.418,2.162
			c2.639-0.029,4.916-0.831,6.605-2.304c1.997-1.743,3.093-4.288,3.093-7.351c0-2.889-0.982-5.379-2.778-7.106
			C86.618,5.766,84.24,4.889,81.459,4.91z"/>
		<path fill="#622599" d="M95.083,5.292l3.556-0.001v11.274c0,0.097,0.006,0.663,0.02,0.763c0.053,1.206,0.437,2.206,1.181,2.872
			c0.74,0.663,1.797,1.045,3.126,1.045c1.505,0,2.636-0.411,3.396-1.145c0.666-0.645,1.006-1.585,1.049-2.739
			c0.011-0.088,0.011-0.601,0.011-0.687V5.291l3.544,0.001v11.614c0,2.137-0.626,3.837-1.847,5.088
			c-1.405,1.44-3.487,2.198-6.201,2.198c-2.585,0-4.639-0.701-5.92-1.958c-1.238-1.207-1.916-2.951-1.916-5.042V5.292z"/>
		<path fill="#622599" d="M129.328,8.099L123.948,8.1v15.676h-3.531l-0.004-15.677h-5.752V5.292h16.271L129.328,8.099z"/>
		<g>
			<path fill="#622599" d="M56.935,7.528c1.662-1.619,3.99-2.588,6.767-2.694c0.313-0.013,0.627-0.014,0.939-0.001
				c1.443,0.058,3.039,0.604,4.321,1.292c0.191,0.106,0.376,0.237,0.376,0.251c-0.152,0.253-1.312,2.306-1.312,2.306
				S67.8,8.565,67.695,8.488c-0.885-0.494-1.856-0.752-2.989-0.785c-0.195-0.004-0.394-0.004-0.591,0.004
				c-1.828,0.062-3.389,0.773-4.495,1.995c-0.994,1.099-1.587,2.581-1.67,4.266c-0.015,0.279-0.015,0.557-0.004,0.836
				c0.154,3.724,2.525,6.284,6.009,6.465c0.233,0.013,0.469,0.013,0.704-0.002c1.291-0.074,2.444-0.475,3.535-1.185
				c0.013-0.016,0.018-0.016,0.031-0.033c0.098,0.159,1.344,2.524,1.414,2.636c-1.372,0.847-3.658,1.508-5.853,1.508
				c-2.892,0-5.301-0.953-6.988-2.623c-1.687-1.668-2.65-4.053-2.65-6.915C54.147,11.712,55.162,9.253,56.935,7.528z"/>
		</g>
		<g>
			<path fill="#622599" d="M47.075,18.699c0-1.758-1.775-2.585-3.586-3.376c-1.208-0.525-2.264-0.938-3.24-1.821
				c-1.022-0.9-1.54-2.14-1.54-3.687c0-3.118,2.435-4.992,6.218-4.992c2.726,0,4.577,0.934,5.527,1.595
				c-0.042,0.086-1.282,2.271-1.319,2.348c-1.109-0.712-2.481-1.316-3.657-1.282c-1.946,0.058-3.115,0.983-3.115,2.276
				c0,1.596,1.636,2.255,3.366,2.951l0.002,0.002c2.424,0.978,5.17,2.166,5.17,5.902c0,3.283-2.851,5.577-6.932,5.577
				c-2.323,0-4.274-0.552-6.24-1.581c0.038-0.08,1.4-2.566,1.438-2.647c1.575,0.849,3.057,1.411,4.402,1.411
				C45.692,21.376,47.075,20.23,47.075,18.699z"/>
		</g>
		<g>
			<path fill="#622599" d="M141.375,18.699c0-1.758-1.776-2.585-3.588-3.376c-1.208-0.525-2.265-0.938-3.239-1.821
				c-1.022-0.9-1.541-2.14-1.541-3.687c0-3.118,2.435-4.992,6.218-4.992c2.727,0,4.578,0.934,5.527,1.595
				c-0.042,0.086-1.283,2.271-1.319,2.348c-1.109-0.712-2.481-1.316-3.656-1.282c-1.947,0.058-3.115,0.983-3.115,2.276
				c0,1.596,1.636,2.255,3.366,2.951v0.002c2.425,0.978,5.172,2.166,5.172,5.902c0,3.283-2.849,5.577-6.931,5.577
				c-2.324,0-4.273-0.552-6.24-1.581c0.038-0.08,1.4-2.566,1.439-2.647c1.575,0.849,3.055,1.411,4.401,1.411
				C139.99,21.376,141.375,20.23,141.375,18.699z"/>
		</g>
	</g>
	<g>
		<path fill="#622599" d="M76.216,29.672c-0.428-0.443-1.022-0.716-1.643-0.716c-1.2,0-2.172,1.044-2.172,2.229
			c0,1.188,0.979,2.23,2.187,2.23c0.607,0,1.201-0.286,1.629-0.714v0.741c-0.465,0.337-1.037,0.53-1.607,0.53
			c-1.523,0-2.809-1.236-2.809-2.765c0-1.542,1.264-2.807,2.809-2.807c0.599,0,1.128,0.171,1.607,0.529V29.672z"/>
		<path fill="#622599" d="M77.774,30.887h0.015c0.201-0.266,0.371-0.459,0.743-0.459c0.193,0,0.35,0.066,0.516,0.159l-0.274,0.521
			c-0.115-0.078-0.193-0.149-0.343-0.149c-0.628,0-0.657,0.807-0.657,1.242v1.68h-0.573v-3.358h0.573V30.887z"/>
		<path fill="#622599" d="M79.911,32.322c0.007,0.622,0.449,1.12,1.1,1.12c0.484,0,0.799-0.292,1.021-0.692l0.487,0.278
			c-0.323,0.602-0.865,0.944-1.55,0.944c-1.002,0-1.646-0.765-1.646-1.73c0-0.991,0.58-1.814,1.631-1.814
			c1.078,0,1.648,0.894,1.592,1.894H79.911z M81.948,31.836c-0.08-0.485-0.487-0.878-0.985-0.878c-0.494,0-0.951,0.393-1.024,0.878
			H81.948z"/>
		<path fill="#622599" d="M86.399,33.88h-0.572v-0.465h-0.015c-0.294,0.372-0.685,0.557-1.159,0.557
			c-0.985,0-1.607-0.836-1.607-1.763c0-0.958,0.607-1.781,1.616-1.781c0.455,0,0.871,0.217,1.15,0.572h0.015v-0.478h0.572V33.88z
			 M83.632,32.165c0,0.658,0.386,1.277,1.1,1.277c0.738,0,1.122-0.592,1.122-1.27c0-0.672-0.421-1.214-1.13-1.214
			C84.062,30.958,83.632,31.537,83.632,32.165z"/>
		<path fill="#622599" d="M88.055,33.88h-0.57v-2.832h-0.35v-0.526h0.35v-1.21h0.57v1.21h0.602v0.526h-0.602V33.88z"/>
		<path fill="#622599" d="M89.969,29.256c0,0.23-0.183,0.408-0.406,0.408c-0.221,0-0.408-0.179-0.408-0.408
			c0-0.22,0.188-0.408,0.408-0.408C89.786,28.849,89.969,29.037,89.969,29.256z M89.85,33.88h-0.571v-3.358h0.571V33.88z"/>
		<path fill="#622599" d="M91.615,30.929h0.015c0.234-0.321,0.542-0.501,0.956-0.501c0.929,0,1.144,0.672,1.144,1.461v1.991h-0.573
			v-1.893c0-0.542-0.042-1.028-0.706-1.028c-0.785,0-0.836,0.728-0.836,1.327v1.594h-0.573v-3.358h0.573V30.929z"/>
		<path fill="#622599" d="M97.844,33.716c0,0.535,0,1-0.342,1.442c-0.314,0.401-0.799,0.594-1.301,0.594
			c-0.936,0-1.628-0.594-1.65-1.545h0.572c0.007,0.624,0.458,1.015,1.071,1.015c0.887,0,1.078-0.648,1.078-1.406v-0.401H97.26
			c-0.272,0.352-0.716,0.557-1.164,0.557c-0.98,0-1.601-0.821-1.601-1.758c0-0.944,0.628-1.787,1.621-1.787
			c0.465,0,0.872,0.208,1.144,0.572h0.013v-0.478h0.572V33.716z M95.079,32.165c0,0.658,0.387,1.277,1.102,1.277
			c0.736,0,1.12-0.592,1.12-1.27c0-0.672-0.421-1.214-1.13-1.214C95.509,30.958,95.079,31.537,95.079,32.165z"/>
		<path fill="#622599" d="M104.226,33.88h-0.571v-0.465h-0.015c-0.293,0.372-0.686,0.557-1.158,0.557
			c-0.986,0-1.609-0.836-1.609-1.763c0-0.958,0.609-1.781,1.616-1.781c0.457,0,0.871,0.217,1.15,0.572h0.015v-0.478h0.571V33.88z
			 M101.461,32.165c0,0.658,0.386,1.277,1.1,1.277c0.736,0,1.121-0.592,1.121-1.27c0-0.672-0.422-1.214-1.129-1.214
			C101.888,30.958,101.461,31.537,101.461,32.165z"/>
		<path fill="#622599" d="M107.485,28.491h0.885c0.978,0,1.801,0.357,1.801,1.458c0,0.437-0.166,0.809-0.531,1.051
			c0.644,0.158,1.022,0.736,1.022,1.378c0,1.073-0.863,1.501-1.929,1.501h-1.249V28.491z M108.084,30.865h0.23
			c0.677,0,1.256-0.078,1.256-0.916c0-0.815-0.513-0.899-1.249-0.899h-0.237V30.865z M108.084,33.322h0.601
			c0.671,0,1.379-0.164,1.379-0.985c0-0.836-0.8-0.956-1.458-0.956h-0.522V33.322z"/>
		<path fill="#622599" d="M111.829,32.322c0.007,0.622,0.45,1.12,1.1,1.12c0.485,0,0.8-0.292,1.022-0.692l0.486,0.278
			c-0.322,0.602-0.865,0.944-1.55,0.944c-1.002,0-1.645-0.765-1.645-1.73c0-0.991,0.579-1.814,1.63-1.814
			c1.078,0,1.648,0.894,1.592,1.894H111.829z M113.865,31.836c-0.08-0.485-0.486-0.878-0.986-0.878
			c-0.493,0-0.951,0.393-1.024,0.878H113.865z"/>
		<path fill="#622599" d="M115.851,33.88h-0.572v-2.832h-0.35v-0.526h0.35v-1.21h0.572v1.21h0.599v0.526h-0.599V33.88z"/>
		<path fill="#622599" d="M117.565,33.88h-0.57v-2.832h-0.352v-0.526h0.352v-1.21h0.57v1.21h0.602v0.526h-0.602V33.88z"/>
		<path fill="#622599" d="M118.966,32.322c0.007,0.622,0.451,1.12,1.1,1.12c0.486,0,0.8-0.292,1.022-0.692l0.486,0.278
			c-0.32,0.602-0.865,0.944-1.55,0.944c-1,0-1.644-0.765-1.644-1.73c0-0.991,0.578-1.814,1.629-1.814
			c1.078,0,1.65,0.894,1.594,1.894H118.966z M121.002,31.836c-0.078-0.485-0.487-0.878-0.986-0.878
			c-0.494,0-0.951,0.393-1.022,0.878H121.002z"/>
		<path fill="#622599" d="M122.932,30.887h0.015c0.201-0.266,0.371-0.459,0.743-0.459c0.191,0,0.35,0.066,0.514,0.159l-0.272,0.521
			c-0.115-0.078-0.193-0.149-0.343-0.149c-0.628,0-0.657,0.807-0.657,1.242v1.68h-0.573v-3.358h0.573V30.887z"/>
		<path fill="#622599" d="M128.596,32.53l1.745-4.318l1.743,4.318l1.416-4.039h0.648l-2.064,5.667l-1.743-4.337l-1.745,4.337
			l-2.064-5.667h0.65L128.596,32.53z"/>
		<path fill="#622599" d="M133.766,32.209c0-0.987,0.778-1.781,1.765-1.781c0.986,0,1.763,0.794,1.763,1.781
			c0,0.985-0.785,1.763-1.763,1.763C134.551,33.972,133.766,33.195,133.766,32.209z M134.336,32.2c0,0.687,0.487,1.243,1.195,1.243
			c0.705,0,1.192-0.555,1.192-1.243c0-0.677-0.487-1.242-1.192-1.242C134.823,30.958,134.336,31.523,134.336,32.2z"/>
		<path fill="#622599" d="M138.624,30.887h0.013c0.202-0.266,0.373-0.459,0.745-0.459c0.191,0,0.35,0.066,0.516,0.159l-0.274,0.521
			c-0.115-0.078-0.193-0.149-0.343-0.149c-0.628,0-0.657,0.807-0.657,1.242v1.68h-0.573v-3.358h0.573V30.887z"/>
		<path fill="#622599" d="M141.032,33.88h-0.572v-5.895h0.572V33.88z"/>
		<path fill="#622599" d="M144.59,33.415h-0.015c-0.277,0.365-0.7,0.557-1.157,0.557c-0.986,0-1.608-0.836-1.608-1.763
			c0-0.958,0.608-1.781,1.615-1.781c0.449,0,0.878,0.217,1.15,0.572h0.015v-3.015h0.572v5.895h-0.572V33.415z M142.397,32.165
			c0,0.658,0.387,1.277,1.1,1.277c0.738,0,1.122-0.592,1.122-1.27c0-0.672-0.423-1.214-1.13-1.214
			C142.825,30.958,142.397,31.537,142.397,32.165z"/>
	</g>
</g>
</svg>
