<svg id="图层_1" data-name="图层 1" xmlns="http://www.w3.org/2000/svg" viewBox="0 0 198.71 74.29"><defs><style>.cls-1{fill:#201600;}.cls-2{fill:#8e473e;}.cls-3{fill:#da9554;}.cls-4{fill:#e2b085;}.cls-5{fill:#cb7648;}.cls-6{fill:#e0b351;}.cls-7{fill:#d08748;}.cls-8{fill:#bf6745;}.cls-9{fill:#d277ab;}.cls-10{fill:#c46446;}.cls-11{fill:#b85a44;}.cls-12{fill:#a54f42;}.cls-13{fill:#a55b43;}.cls-14{fill:#2d2d2d;}</style></defs><title>pwc_logo_with_home</title><path class="cls-1" d="M.07,72.31l2.13-.18.41-.49V51.12H0V49.33l6.91-2.21H8.86v2.5c3.44-2,4.78-2.54,6.54-2.54,4.11,0,7.25,3.89,7.25,9,0,6-4.3,10-10.65,10-.74,0-1.94-.08-3.14-.18v5.76l.49.49,2.47.18-.08,2H.07Zm8.79-8.56a5.39,5.39,0,0,0,1,.08c3.85,0,5.91-2.4,5.91-6.88,0-3.81-1.68-5.83-4.78-5.83a14.64,14.64,0,0,0-2.13.19Z"/><path class="cls-1" d="M31,47.2a19,19,0,0,1,.49,3.17l.41,9.12,5.46-10.32V48.09L43,47.64l.71,14.2,4.82-6.69-1-6.88a3.82,3.82,0,0,1,2.88-1.2A2.83,2.83,0,0,1,53.46,50c0,1.83-1,4-3.51,7.47-.79,1.08-3.1,4-6.92,8.6H38.62l-.86-12.86-7,12.86H26l.37-1.68-.6-13.53-3.69-.6V48.77l6.77-1.57Z"/><path class="cls-1" d="M65.1,49.09c-3.18.49-4.82,2.84-4.82,6.92s2.2,6.83,5.49,6.83c1.57,0,3-.48,5.91-1.91v3.32a18.31,18.31,0,0,1-8.49,2.09,9.21,9.21,0,0,1-7.06-2.62,9.4,9.4,0,0,1-2.73-6.8c0-5.87,4.41-9.87,10.88-9.87,4.3,0,7.25,1.94,7.25,4.75,0,1.87-1.38,3.1-3.44,3.1a5.53,5.53,0,0,1-3-.9Z"/><rect class="cls-2" x="43.44" y="31.75" width="18.29" height="4.82"/><rect class="cls-3" x="61.72" width="17.88" height="3.82"/><rect class="cls-4" x="79.61" y="3.82" width="3.32" height="5.52"/><rect class="cls-5" x="61.72" y="3.82" width="17.88" height="5.52"/><rect class="cls-6" x="82.92" y="9.34" width="9.04" height="13.66"/><rect class="cls-7" x="79.61" y="9.34" width="3.32" height="13.66"/><polygon class="cls-8" points="72.78 23 79.61 23 79.61 9.34 61.72 9.34 61.72 18.49 72.78 18.49 72.78 23"/><rect class="cls-9" x="91.96" y="23" width="4.82" height="8.74"/><rect class="cls-10" x="82.92" y="23" width="9.04" height="8.74"/><rect class="cls-11" x="79.61" y="23" width="3.32" height="8.74"/><rect class="cls-12" x="72.78" y="23" width="6.83" height="8.74"/><rect class="cls-13" x="61.72" y="18.49" width="11.05" height="4.52"/><rect class="cls-2" x="61.72" y="23" width="11.05" height="8.74"/><path class="cls-14" d="M145.77,66h-2.05V57.74h-9.3V66h-2.05V48.39h2.05V55.9h9.3V48.39h2.05Z"/><path class="cls-14" d="M161.73,59.42a7.3,7.3,0,0,1-1.63,5.05,5.74,5.74,0,0,1-4.5,1.82,6,6,0,0,1-3.15-.83,5.5,5.5,0,0,1-2.12-2.39,8.32,8.32,0,0,1-.75-3.65,7.29,7.29,0,0,1,1.62-5,5.72,5.72,0,0,1,4.49-1.81,5.6,5.6,0,0,1,4.41,1.85A7.27,7.27,0,0,1,161.73,59.42Zm-10.08,0a6.28,6.28,0,0,0,1,3.86,4,4,0,0,0,6,0,6.24,6.24,0,0,0,1-3.87,6.15,6.15,0,0,0-1-3.83,3.59,3.59,0,0,0-3-1.31,3.53,3.53,0,0,0-3,1.29A6.22,6.22,0,0,0,151.65,59.42Z"/><path class="cls-14" d="M182.11,66V57.44a3.58,3.58,0,0,0-.68-2.37,2.62,2.62,0,0,0-2.1-.79,3.39,3.39,0,0,0-2.77,1.07,5.11,5.11,0,0,0-.89,3.31V66h-2V57.44a3.57,3.57,0,0,0-.68-2.37,2.63,2.63,0,0,0-2.11-.79,3.27,3.27,0,0,0-2.76,1.13,6.11,6.11,0,0,0-.88,3.7V66h-2V52.81h1.63l.33,1.81h.1a3.94,3.94,0,0,1,1.6-1.51,4.89,4.89,0,0,1,2.31-.54q3.1,0,4.06,2.25h.1a4.22,4.22,0,0,1,1.71-1.64,5.32,5.32,0,0,1,2.56-.6A4.48,4.48,0,0,1,183,53.72a5.16,5.16,0,0,1,1.12,3.69V66Z"/><path class="cls-14" d="M193.84,66.29a6.08,6.08,0,0,1-4.63-1.79,6.92,6.92,0,0,1-1.7-5,7.67,7.67,0,0,1,1.58-5.08,5.23,5.23,0,0,1,4.23-1.88,5,5,0,0,1,3.94,1.64,6.27,6.27,0,0,1,1.45,4.32v1.27h-9.12a5.24,5.24,0,0,0,1.18,3.54,4.07,4.07,0,0,0,3.15,1.21,10.66,10.66,0,0,0,4.23-.89v1.79a10.57,10.57,0,0,1-2,.66A11.3,11.3,0,0,1,193.84,66.29Zm-.54-12a3.27,3.27,0,0,0-2.54,1,4.79,4.79,0,0,0-1.12,2.87h6.92a4.41,4.41,0,0,0-.85-2.9A3,3,0,0,0,193.3,54.25Z"/><rect class="cls-14" x="102.93" y="47.08" width="1.55" height="18.97"/></svg>