<?xml version="1.0" encoding="utf-8"?>
<!-- Generator: Adobe Illustrator 21.1.0, SVG Export Plug-In . SVG Version: 6.00 Build 0)  -->
<svg version="1.1" id="Слой_1" xmlns="http://www.w3.org/2000/svg" xmlns:xlink="http://www.w3.org/1999/xlink" x="0px" y="0px"
	 viewBox="0 0 94.2 19.3" style="enable-background:new 0 0 94.2 19.3;" xml:space="preserve">
<style type="text/css">
	.st0{fill:#003333;}
	.st1{fill-rule:evenodd;clip-rule:evenodd;fill:#003333;}
</style>
<g>
	<g>
		<path class="st0" d="M16.9,19.1V4.5h3.8c0.9,0,1.6,0,2.1,0.1C23.5,4.8,24,5,24.5,5.3c0.4,0.3,0.8,0.7,1.1,1.3
			C25.8,7.2,26,7.8,26,8.4c0,1.1-0.4,2.1-1.1,2.9c-0.7,0.8-2,1.2-4,1.2h-2.2v6.5H16.9z M18.7,10.9h2.2c1.2,0,2-0.2,2.5-0.6
			c0.5-0.4,0.7-1,0.7-1.8c0-0.6-0.1-1-0.4-1.4c-0.3-0.4-0.7-0.7-1.1-0.8c-0.3-0.1-0.9-0.1-1.7-0.1h-2.2V10.9z"/>
		<path class="st0" d="M28.1,19.1V4.5h9.1v1.6h-7.3v4.5h7v1.6h-7v5.2h7.7v1.6H28.1z"/>
		<path class="st0" d="M39.8,19.1V4.5h1.8l8.1,11.6V4.5h1.7v14.5h-1.8L41.5,7.4v11.6H39.8z"/>
		<g>
			<path class="st0" d="M12.7,6.3c1.5,1.5,2.2,3.3,2.2,5.4s-0.7,3.9-2.2,5.4c-1.5,1.5-3.2,2.2-5.3,2.2c-2.1,0-3.8-0.7-5.3-2.2
				C0.7,15.6,0,13.8,0,11.7s0.7-3.9,2.2-5.4c1.5-1.5,3.2-2.2,5.3-2.2C9.5,4.1,11.3,4.8,12.7,6.3z M7.4,6C5.9,6,4.6,6.6,3.5,7.7
				c-1.1,1.1-1.6,2.4-1.6,4c0,1.6,0.5,2.9,1.6,4c1.1,1.1,2.4,1.7,3.9,1.7c1.5,0,2.8-0.6,3.9-1.7c1.1-1.1,1.6-2.4,1.6-4
				c0-1.6-0.5-2.9-1.6-4C10.3,6.6,9,6,7.4,6z"/>
		</g>
	</g>
	<path class="st1" d="M76.6,0c0,1,0,3,0,3l1.6,0c0,0,0.2,0.3,0.3,0.4c0,0,0,0,0,0c0,3.9,0,7.9,0,11.8c0,0,0,0,0,0
		c-0.2,0.2-0.3,0.4-0.5,0.6c-0.5,0-0.9,0-1.4,0c0,1,0,2.1,0,3.1c-0.4,0-0.7,0-1.1,0c0-0.4,0-0.9,0-1.3c-0.9,0.6-2.1,1.2-3.7,1.3
		c-0.3,0-0.6,0-0.9,0c-2.2-0.2-3.7-1.1-4.9-2.4c0,0,0,0,0,0c0.5-0.6,1-1.3,1.3-2.1c-0.9,0-1.8,0-2.6,0c0,0,0,0,0,0
		c-0.2-0.5-0.4-1-0.5-1.7c0,0,0,0,0,0c1,0,2,0,3.1,0c0,0,0,0,0,0c0.6,1.8,2.3,3.4,4.8,3c1.9-0.3,3.3-1.9,3.5-3.9
		c0.1-1.5-0.4-2.6-1.2-3.4c-0.6-0.6-1.4-1.2-2.6-1.3c-2.2-0.2-3.4,1-4.1,2.3c0,0,0,0,0,0c-0.3-1.2-0.9-2.1-1.6-2.9c0,0,0,0,0,0
		c1-1.1,2.4-2,4.3-2.3c2.1-0.3,3.9,0.3,5.2,1.2c0-0.8,0-1.7,0-2.5c-0.6-0.1-1.3,0-2,0c0-1,0-2,0-3C74.5,0,75.6,0,76.6,0z"/>
	<path class="st1" d="M76.6,0c0.6,0,1.3,0,1.9,0c0,1.1,0,2.3,0,3.4C78.4,3.3,78.2,3,78.2,3l-1.6,0C76.6,3,76.6,1,76.6,0z"/>
	<path class="st1" d="M78.5,0c1.9,0,3.7,0,5.6,0c0,1,0,2,0,3c-0.6,0-1.2,0-1.7,0c1,1.2,2,2.5,3,3.7c1-1.2,2-2.5,3-3.7c0,0,0,0,0,0
		c-0.6,0-1.1,0-1.7,0c0-1,0-2,0-3c2.5,0,5,0,7.5,0c0,1,0,2,0,3c-0.5,0-1.1,0-1.6,0c-1.7,2.1-3.4,4.2-5.1,6.3
		c1.7,2.2,3.5,4.4,5.3,6.5c0.5,0,0.9,0,1.4,0c0,1,0,2.1,0,3.1c-2.5,0-5,0-7.5,0c0-1,0-2.1,0-3.1c0.6,0,1.2,0,1.9,0
		c-1-1.3-2.1-2.6-3.2-4c-1.1,1.3-2.1,2.6-3.2,4c0.6,0,1.3,0,1.9,0c0,1,0,2.1,0,3.1c-1.1,0-2.2,0-3.3,0c0-1,0-2,0-3.1
		c-0.7,0-1.5,0-2.3,0c0-0.2,0-0.4,0-0.6c0,0,0,0,0,0c1.6-2,3.2-3.9,4.8-5.9c-1.6-2-3.2-4-4.8-5.9c0,0,0,0,0,0
		C78.5,2.2,78.5,1.1,78.5,0z"/>
	<path class="st1" d="M82.4,3c0.5-0.1,1.1,0,1.7,0C83.6,3,83,3,82.4,3z"/>
	<path class="st1" d="M86.7,3c0.6,0,1.1,0,1.7,0c0,0,0,0,0,0C87.9,3,87.2,3.1,86.7,3z"/>
	<path class="st1" d="M92.6,3c0.5-0.1,1.1,0,1.6,0C93.7,3,93.1,3,92.6,3z"/>
	<path class="st1" d="M60.4,4.3c0.1,0,0.4,0,0.6,0C60.8,4.3,60.6,4.3,60.4,4.3z"/>
	<path class="st1" d="M55.7,6.2c1.2-1,2.6-1.8,4.7-1.9c0.2,0,0.4,0,0.6,0c2.1,0.1,3.4,0.9,4.6,1.9c0.1,0.1,0.2,0.2,0.3,0.3
		c0,0.1,0.1,0.1,0.1,0.1c0,0,0,0,0,0c-0.8,0.8-1.3,1.7-1.7,2.9c0,0,0,0,0,0c-0.7-1.2-1.7-2.1-3.5-2.2c-0.1,0-0.3,0-0.4,0
		c-1.2,0-2,0.5-2.7,1.1c-0.1,0.1-0.2,0.2-0.3,0.3c-0.4,0.4-0.7,0.9-0.9,1.6c2.5,0,5.1,0,7.6,0c-0.1,0.7-0.1,1.7,0,2.4c0,0,0,0,0,0
		c-2.5,0-5.1,0-7.6,0c0.5,1.5,1.4,2.5,2.9,2.9c1.6,0.4,3-0.1,3.9-0.9c0.1-0.1,0.3-0.3,0.4-0.3c0.2,0,0.6,0,0.8,0c0,0,0,0,0,0
		c0.3,0.8,0.8,1.5,1.3,2.1c0,0,0,0,0,0c-1.2,1.3-2.7,2.2-4.9,2.4c-0.2,0-0.5,0-0.7,0c-2.1-0.2-3.7-1-4.8-2.1c-1.1-1.1-2-2.7-2.1-4.9
		c0-0.2,0-0.4,0-0.6c0.1-2.1,0.9-3.5,1.9-4.7C55.4,6.5,55.6,6.3,55.7,6.2z"/>
	<path class="st1" d="M66,6.6c0.7,0.8,1.3,1.7,1.6,2.9c-0.4,0.8-0.6,2.1-0.3,3.2c-1,0-2.1,0-3.1,0c-0.1-0.7-0.1-1.7,0-2.4
		c0.2,0,0.3,0,0.5,0c0-0.2-0.2-0.5-0.3-0.8C64.7,8.4,65.2,7.4,66,6.6z"/>
	<path class="st1" d="M64.3,9.6C64.3,9.6,64.3,9.6,64.3,9.6c0.1,0.2,0.3,0.5,0.3,0.8c-0.2,0-0.3,0-0.5,0
		C64.2,10.1,64.3,9.8,64.3,9.6z"/>
	<path class="st1" d="M67.5,9.6C67.6,9.6,67.6,9.6,67.5,9.6c0.2,0.9,0.4,2.2,0.2,3.2c-0.2,0-0.3,0-0.5,0c0,0,0,0,0,0
		C66.9,11.7,67.1,10.3,67.5,9.6z"/>
	<path class="st1" d="M64.6,14.4c0.9,0,1.8,0,2.6,0c-0.3,0.8-0.8,1.5-1.3,2.1C65.4,15.9,65,15.2,64.6,14.4z"/>
	<path class="st1" d="M78.5,15.2c0,0.2,0,0.4,0,0.6c0.8,0,1.6,0,2.3,0c0,1,0,2,0,3.1c-1.4,0-2.8,0-4.2,0c0-1,0-2.1,0-3.1
		c0.5,0,0.9,0,1.4,0C78.2,15.7,78.3,15.4,78.5,15.2z"/>
	<path class="st1" d="M65.5,6.2c0.1,0.1,0.2,0.2,0.3,0.3C65.7,6.4,65.6,6.3,65.5,6.2z"/>
	<path class="st1" d="M57.4,8.7c0.1-0.1,0.2-0.2,0.3-0.3C57.7,8.5,57.6,8.6,57.4,8.7z"/>
</g>
</svg>
