<?xml version="1.0" encoding="utf-8"?>
<!-- Generator: Adobe Illustrator 17.0.0, SVG Export Plug-In . SVG Version: 6.00 Build 0)  -->
<!DOCTYPE svg PUBLIC "-//W3C//DTD SVG 1.1//EN" "http://www.w3.org/Graphics/SVG/1.1/DTD/svg11.dtd">
<svg version="1.1" id="Layer_1" xmlns="http://www.w3.org/2000/svg" xmlns:xlink="http://www.w3.org/1999/xlink" x="0px" y="0px"
	 width="1032.148px" height="1209.591px" viewBox="0 0.001 1032.148 1209.591" enable-background="new 0 0.001 1032.148 1209.591"
	 xml:space="preserve">
<g>
	<path fill="#080808" d="M1.862,330.162c0-29.983-0.41-59.973,0.142-89.946c0.379-20.58,2.031-41.139,3.24-61.7
		c0.535-9.107,4.644-12.547,13.658-11.508c22.843,2.632,45.785,4.234,68.723,2.859c33.832-2.028,67.606-4.921,100.956-11.494
		c30.585-6.028,61.008-12.738,90.785-22C330.3,120.529,379.489,100.519,425.06,72.5c30.731-18.895,59.234-40.66,82.899-68.247
		c5.283-6.158,11.495-5.399,17.88,0.799c13.597,13.2,26.783,26.963,41.427,38.916c29.802,24.325,63.275,42.889,98.144,58.974
		c50.564,23.325,103.387,39.807,157.765,51.258c36.094,7.6,72.577,12.501,109.487,14.807c27.024,1.689,53.808,0.793,80.633-1.883
		c9.478-0.946,13.82,2.165,14.681,11.757c1.01,11.246,2.024,22.528,2.197,33.808c0.863,56.268,1.793,112.54,1.972,168.812
		c0.076,23.93-1.383,47.877-2.589,71.794c-1.003,19.878-2.239,39.762-4.135,59.571c-2.048,21.404-4.484,42.797-7.645,64.062
		c-4.878,32.813-9.798,65.649-15.975,98.233c-15.273,80.563-39.203,158.508-74.877,232.459
		c-26.583,55.108-59.858,105.863-101.864,150.782c-40.493,43.302-87.129,78.148-140.343,103.956
		c-40.174,19.484-82.307,33.521-126.455,41.066c-10.785,1.843-21.516,4.072-32.354,5.494c-5.891,0.773-12.054,0.951-17.927,0.161
		c-80.95-10.889-156.25-37.075-223.584-84.073c-48.537-33.877-89.112-75.826-123.33-124.013
		c-38.601-54.359-67.044-113.861-89.469-176.442c-14.353-40.055-25.987-80.931-34.942-122.448
		c-7.48-34.663-13.213-69.733-18.693-104.783c-3.68-23.536-6.052-47.309-8.141-71.052c-2.703-30.721-5.106-61.491-6.601-92.29
		C1.544,399.411,1.024,364.787,0,330.188C0.621,330.179,1.241,330.171,1.862,330.162z M517.028,8.671
		c-1.439,0.964-2.095,1.236-2.521,1.714c-38.148,42.717-85.132,73.015-136.418,97.347c-56.494,26.803-115.731,45.024-176.951,57.175
		c-40.566,8.052-81.49,13.124-122.848,13.528c-19.28,0.188-38.588-1.163-57.857-2.274c-4.608-0.266-6.661,0.272-6.873,5.344
		c-1.065,25.598-3.096,51.175-3.466,76.778C9.257,316.23,8.008,374.2,11.527,432.117c1.655,27.243,2.867,54.527,5.261,81.707
		c4.058,46.076,10.331,91.873,18.637,137.404c11.24,61.617,26.616,122.106,48.368,180.874
		c31.155,84.175,73.654,161.588,136.547,226.661c38.096,39.417,81.755,71.302,131.028,95.296
		c46.057,22.427,94.734,36.637,145.289,44.446c8.495,1.312,17.37,2.913,25.737,1.825c38.625-5.022,76.436-13.607,113.175-26.976
		c73.762-26.843,136.685-69.496,189.269-127.653c45.356-50.163,79.597-107.348,106.501-169.069
		c36.498-83.729,58.345-171.585,72.417-261.545c6.433-41.126,11.69-82.408,13.934-124.001c2.222-41.198,5.211-82.398,5.823-123.628
		c0.667-44.934-0.884-89.906-1.738-134.856c-0.31-16.299-1.366-32.585-2.149-48.874c-0.371-7.721-0.447-7.777-7.974-7.355
		c-11.63,0.652-23.246,1.713-34.884,2.04c-37.031,1.04-73.781-2.093-110.386-7.619c-45.478-6.866-90.067-17.341-133.697-31.896
		c-45.873-15.304-89.949-34.524-131.154-60.033C570.206,59.473,541.621,36.768,517.028,8.671z"/>
	<path fill="#030304" d="M517.65,57.093c2.394,1.799,3.585,2.429,4.431,3.37c33.312,37.017,74.018,63.904,118.379,85.503
		c66.101,32.184,135.955,52.079,208.602,62.79c28.733,4.236,57.592,6.388,86.555,6.758c14.931,0.191,29.893-1.498,44.83-2.489
		c7.199-0.478,7.448-0.648,7.762,6.45c1.401,31.595,3.241,63.187,3.778,94.799c0.599,35.303,0.667,70.647-0.347,105.935
		c-0.908,31.586-3.416,63.133-5.552,94.675c-3.155,46.573-9.56,92.748-18.003,138.636c-15.799,85.862-39.879,169.071-79.862,247.127
		c-32.417,63.286-74.068,119.354-129.318,164.683c-54.596,44.792-116.86,73.804-185.596,89.158
		c-13.951,3.116-28.153,5.092-42.178,7.9c-11.427,2.287-22.565,0.209-33.725-1.584c-90.399-14.528-170.722-50.433-238.3-113.009
		c-43.484-40.264-77.727-87.574-105.382-139.818c-34.208-64.625-57.029-133.357-73.339-204.374
		c-14.56-63.396-23.43-127.659-28.827-192.469c-5.729-68.802-6.848-137.706-5.553-206.664c0.537-28.608,2.639-57.184,3.746-85.785
		c0.19-4.908,1.694-6.41,6.526-5.832c33.881,4.053,67.817,3.266,101.628-0.362c101.534-10.897,197.861-38.293,285.588-92.053
		c26.256-16.09,50.179-35.182,70.801-58.196C515.621,60.76,516.503,58.878,517.65,57.093z M83.779,367.965
		c-0.301,0.007-0.602,0.014-0.902,0.02c0.978,34.589,1.856,69.18,2.99,103.764c0.37,11.276,1.134,22.555,2.202,33.787
		c1.632,17.15,3.693,34.259,5.556,51.387c1.506,13.843,2.443,27.775,4.608,41.514c3.356,21.293,7.479,42.466,11.39,63.669
		c7.781,42.195,18.543,83.665,32.443,124.216c13.061,38.103,28.666,75.168,48.439,110.434
		c27.241,48.585,60.369,92.26,102.757,128.769c38.297,32.985,81.307,57.509,128.834,74.422c27.006,9.61,54.832,15.794,83.015,20.552
		c5.534,0.934,11.336,2.252,16.763,1.522c29.276-3.939,58.187-9.778,86.268-19.165c26.576-8.884,51.975-20.329,76.377-34.195
		c22.379-12.716,43.365-27.451,62.409-44.521c32.824-29.421,61.575-62.477,84.911-100.158c19.511-31.505,36.294-64.32,49.975-98.698
		c15.619-39.252,28.577-79.385,37.774-120.659c4.833-21.692,10.15-43.323,13.777-65.224c4.382-26.46,7.48-53.147,10.618-79.796
		c2.403-20.406,4.133-40.894,5.916-61.367c0.98-11.248,1.448-22.541,2.153-33.813c1.161-18.551,3.322-37.102,3.296-55.651
		c-0.065-47.269-1.09-94.536-1.792-141.804c-0.044-2.965-0.544-5.934-0.969-8.882c-0.551-3.815-2.485-5.955-6.709-5.555
		c-2.644,0.25-5.329,0.026-7.994,0.089c-32.956,0.779-65.723-0.857-98.383-5.828c-44.739-6.81-88.727-16.629-131.551-31.249
		c-35.936-12.269-70.877-26.886-103.979-45.725c-28.418-16.173-55.512-34.085-79.098-56.936c-5.076-4.917-5.032-4.664-10.425-0.317
		c-15.257,12.298-30.109,25.188-46.074,36.498c-29.149,20.65-60.825,36.943-93.584,51.136
		c-30.25,13.106-61.197,24.232-93.073,32.664c-32.738,8.659-65.667,16.323-99.417,20.173c-23.084,2.633-46.11,5.609-69.397,5.513
		c-6.665-0.027-13.334,0.045-19.992-0.198c-4.936-0.18-7.184,1.513-7.314,6.828c-0.35,14.273-1.512,28.53-1.739,42.802
		C83.541,327.971,83.779,347.97,83.779,367.965z"/>
	<path fill="#0F2263" d="M83.779,367.965c0-19.995-0.237-39.994,0.08-59.984c0.227-14.273,1.389-28.529,1.739-42.802
		c0.13-5.315,2.378-7.008,7.314-6.828c6.658,0.243,13.327,0.17,19.992,0.198c23.287,0.096,46.313-2.88,69.397-5.513
		c33.75-3.85,66.679-11.514,99.417-20.173c31.876-8.431,62.823-19.558,93.073-32.664c32.76-14.193,64.435-30.486,93.584-51.136
		c15.965-11.31,30.817-24.2,46.074-36.498c5.393-4.347,5.349-4.601,10.425,0.317c23.586,22.851,50.68,40.763,79.098,56.936
		c33.102,18.839,68.043,33.457,103.979,45.725c42.824,14.621,86.813,24.44,131.551,31.249c32.66,4.971,65.427,6.607,98.383,5.828
		c2.665-0.063,5.35,0.16,7.994-0.089c4.223-0.399,6.158,1.741,6.709,5.555c0.426,2.947,0.925,5.916,0.969,8.882
		c0.703,47.267,1.727,94.535,1.792,141.804c0.026,18.549-2.135,37.1-3.296,55.651c-0.705,11.272-1.173,22.565-2.153,33.813
		c-1.783,20.473-3.513,40.962-5.916,61.367c-3.138,26.649-6.236,53.335-10.618,79.796c-3.627,21.902-8.944,43.533-13.777,65.224
		c-9.197,41.274-22.155,81.406-37.774,120.659c-13.68,34.379-30.464,67.194-49.975,98.698
		c-23.337,37.682-52.087,70.737-84.911,100.158c-19.044,17.07-40.03,31.805-62.409,44.521
		c-24.402,13.865-49.801,25.31-76.377,34.195c-28.08,9.387-56.991,15.226-86.268,19.165c-5.427,0.73-11.229-0.588-16.763-1.522
		c-28.183-4.758-56.009-10.941-83.015-20.552c-47.526-16.913-90.536-41.437-128.834-74.422
		c-42.388-36.509-75.516-80.184-102.757-128.769c-19.773-35.266-35.378-72.331-48.439-110.434
		c-13.901-40.551-24.662-82.021-32.443-124.216c-3.91-21.203-8.034-42.376-11.39-63.669c-2.165-13.739-3.102-27.671-4.608-41.514
		c-1.863-17.128-3.925-34.237-5.556-51.387c-1.068-11.232-1.833-22.511-2.202-33.787c-1.134-34.583-2.012-69.175-2.99-103.764
		C83.177,367.978,83.478,367.971,83.779,367.965z M409.796,842.954c5.321,0,10.641,0,15.962,0
		c94.973,0.001,189.946,0.003,284.92,0.004c2,0,4.015-0.169,5.995,0.027c5.213,0.516,6.958-1.742,6.864-6.908
		c-0.266-14.658-0.088-29.324-0.172-43.986c-0.007-1.28-0.661-2.557-1.523-5.672c-4.281,13.031-8.147,24.011-11.437,35.16
		c-1.571,5.324-4.285,7.467-9.905,7.548c-20.971,0.301-41.983,2.141-62.888,1.252c-19.196-0.816-38.354-3.902-57.375-6.949
		c-12.272-1.966-12.33-2.736-12.753-14.826c-1.014-28.959-2.198-57.92-2.625-86.89c-0.319-21.614,0.297-43.247,0.792-64.865
		c0.175-7.651,0.654-7.943,7.943-8.655c33.244-3.25,66.539-3.446,99.833-1c10.588,0.778,10.56,1.138,13.185,11.144
		c2.958,11.279,5.813,22.588,8.978,33.808c0.555,1.968,2.424,3.565,3.686,5.334c0.851-1.885,1.82-3.728,2.5-5.672
		c0.312-0.891,0.058-1.981,0.058-2.981c0-32.991,0.004-65.982-0.006-98.973c-0.001-1.997,0.143-4.046-0.261-5.969
		c-0.223-1.059-1.402-2.609-2.236-2.665c-0.957-0.064-2.463,1.069-2.924,2.058c-0.974,2.089-1.48,4.407-2.076,6.658
		c-2.472,9.339-5.499,18.585-7.162,28.068c-1.3,7.414-5.231,9.968-12.048,10.323c-9.31,0.484-18.608,1.882-27.905,1.821
		c-25.296-0.167-50.587-0.894-75.881-1.4c-3.708-0.074-5.345-2.167-5.524-5.673c-0.119-2.329-0.322-4.659-0.32-6.989
		c0.022-34.316-0.262-68.638,0.28-102.946c0.215-13.61,2.403-27.182,3.424-40.791c0.306-4.084,2.113-6.004,5.973-6.546
		c2.636-0.37,5.232-1.007,7.862-1.432c38.737-6.258,77.711-4.995,116.697-3.816c5.285,0.16,7.499,2.281,8.801,7.306
		c3.422,13.218,7.409,26.29,11.26,39.395c0.546,1.857,1.592,3.567,2.407,5.345c1.255-20.82,1.155-41.141,1.327-61.46
		c0.042-4.875-1.944-6.594-6.547-6.218c-2.317,0.189-4.663,0.029-6.995,0.029c-90.975,0-181.95-0.077-272.924,0.091
		c-12.292,0.023-24.759,0.2-36.833,2.196c-20.273,3.35-40.074,8.131-56.141,22.896c-31.04,28.525-37.966,66.128-18.241,101.166
		c6.79,12.062,15.797,22.41,26.867,30.599c19.813,14.655,40.028,28.766,60.076,43.103c13.006,9.301,26.263,18.273,38.955,27.984
		c15.511,11.868,28.929,25.769,36.296,44.316c15.32,38.573,2.999,79.562-30.729,103.778
		C443.016,831.334,427.211,837.87,409.796,842.954z M487.465,304.41c0.918-0.161,1.835-0.323,2.753-0.484
		c0.566-2.462,0.725-5.129,1.827-7.322c0.897-1.787,2.923-3.007,4.448-4.478c0.94,1.864,2.601,3.689,2.705,5.599
		c0.723,13.17-2.402,25.439-8.621,37.128c-2.584,4.857-5.354,9.017-10.23,11.753c-9.379,5.264-19.925-0.198-20.911-10.828
		c-0.27-2.911-0.759-5.971-1.961-8.59c-2.076-4.525-6.334-6.45-9.535-4.867c-4.242,2.098-3.593,5.763-3.079,9.52
		c0.476,3.482,1.449,7.255,0.611,10.488c-2.372,9.153-10.684,15.013-19.118,14.393c-12.469-0.917-21.884-8.689-22.622-19.832
		c-0.358-5.405,1.461-10.927,1.898-16.427c0.152-1.916-0.259-4.576-1.498-5.775c-3.948-3.822-10.243-3.779-15.512-1.349
		c-3.482,1.606-7.939,3.912-11.038,2.947c-6.438-2.005-10.877,1.985-16.061,3.415c-3.2,0.883-3.614,3.748-0.401,5.931
		c1.924,1.307,4.037,2.346,5.909,3.719c5.61,4.113,12.652,7.283,16.417,12.708c10.444,15.046,22.775,29.022,27.976,47.392
		c2.753,9.723,3.703,9.502,14.337,9.504c56.652,0.007,113.304,0.004,169.957,0.004c13.025,0,12.892-0.053,17.857-12.812
		c8.211-21.1,19.994-39.735,38.308-53.614c3.422-2.593,7.372-4.481,10.883-6.97c1.175-0.833,2.477-2.59,2.367-3.801
		c-0.096-1.055-1.955-2.353-3.288-2.815c-3.729-1.294-7.919-3.712-11.33-2.964c-6.981,1.53-12.09-1.275-17.775-4.131
		c-4.425-2.224-9.146-1.232-13.098,1.973c-2.615,2.12-3.273,4.118-1.213,7.619c7.152,12.153,1.338,27.858-12.273,33.262
		c-6.499,2.58-13.533,4.733-19.408-1.601c-5.65-6.091-11.664-12.037-6.552-21.687c2.006-3.787-0.396-7.585-4.518-9.416
		c-4.354-1.934-6.495,1.3-7.866,4.004c-1.26,2.484-1.027,5.766-1.283,8.712c-0.939,10.81-13.499,17.303-22.9,12.037
		c-8.009-4.486-11.458-11.445-14.482-19.933c-3.331-9.346-2.582-18.947-4.87-28.189c-0.765-3.089-0.397-5.529,2.705-6.407
		c3.257-0.922,4.89,1.155,5.317,4.262c0.091,0.66-0.03,1.397,0.225,1.975c0.634,1.435,1.43,2.799,2.16,4.191
		c1.656-0.955,3.718-1.562,4.891-2.93c3.478-4.059,3.598-16.468-0.072-20.591c-2.26-2.54-5.421-5.66-8.391-5.904
		c-6.403-0.525-7.069-3.776-7.826-9.084c-0.865-6.063-2.778-12.298-5.7-17.66c-3.158-5.795-7.987-5.346-11.037,0.457
		c-1.798,3.419-2.836,7.283-3.893,11.037c-1.982,7.036-2.459,14.197-12.189,16.491c-7.772,1.832-10.903,9.737-8.7,17.658
		C482.956,296.418,485.52,300.328,487.465,304.41z M294.931,779.785c-0.482,0.044-0.964,0.087-1.446,0.131
		c0,19.461,0.042,38.921-0.028,58.382c-0.019,5.246,3.64,4.746,6.909,4.625c31.774-1.178,63.582,2.159,95.372-3.477
		c24.399-4.325,44.916-13.944,61.111-32.607c23.096-26.615,25.535-64.702,6.033-93.53c-8.903-13.161-20.687-23.476-33.417-32.662
		c-22.412-16.172-45.225-31.788-67.588-48.026c-18.652-13.543-36.447-28.161-48.54-48.295
		c-17.918-29.832-17.332-60.119-0.665-90.099c12.953-23.299,33.832-36.895,58.585-45.218c1.863-0.626,3.568-1.72,6.979-3.401
		c-18.816-1.452-21.637-0.948-35.132,7.485c-5.915,3.697-11.885,7.525-17.049,12.162c-20.398,18.32-33.768,40.138-32.649,68.786
		c0.234,5.987-0.413,12.033,0.155,17.974c0.627,6.554,1.309,13.332,3.501,19.465c7.002,19.597,19.37,35.867,35.361,48.745
		c20.719,16.685,42.599,31.919,63.728,48.105c17.16,13.145,34.78,25.866,50.688,40.423c18.838,17.238,23.743,39.783,17.06,64.143
		c-9.295,33.88-33.296,51.982-66.768,58.147c-29.078,5.355-56.856-1.532-84.154-11.024c-4.458-1.55-6.953-4.462-8.28-9.09
		C301.7,800.474,298.217,790.158,294.931,779.785z"/>
	<path fill="#A69605" d="M409.796,842.954c17.416-5.083,33.22-11.619,47.504-21.875c33.729-24.216,46.05-65.205,30.729-103.778
		c-7.367-18.547-20.785-32.448-36.296-44.316c-12.692-9.711-25.949-18.683-38.955-27.984
		c-20.048-14.337-40.263-28.448-60.076-43.103c-11.07-8.188-20.077-18.537-26.867-30.599
		c-19.724-35.038-12.799-72.64,18.241-101.166c16.067-14.765,35.868-19.545,56.141-22.896c12.074-1.995,24.541-2.173,36.833-2.196
		c90.975-0.168,181.95-0.091,272.924-0.091c2.333,0,4.678,0.16,6.995-0.029c4.604-0.376,6.589,1.343,6.547,6.218
		c-0.172,20.319-0.072,40.64-1.327,61.46c-0.815-1.778-1.861-3.488-2.407-5.345c-3.851-13.104-7.838-26.177-11.26-39.395
		c-1.301-5.025-3.516-7.146-8.801-7.306c-38.986-1.18-77.96-2.443-116.697,3.816c-2.629,0.425-5.226,1.062-7.862,1.432
		c-3.86,0.542-5.667,2.462-5.973,6.546c-1.021,13.609-3.209,27.181-3.424,40.791c-0.542,34.308-0.258,68.63-0.28,102.946
		c-0.001,2.329,0.202,4.66,0.32,6.989c0.179,3.506,1.817,5.599,5.524,5.673c25.293,0.505,50.585,1.233,75.881,1.4
		c9.297,0.061,18.595-1.337,27.905-1.821c6.818-0.355,10.748-2.909,12.048-10.323c1.664-9.483,4.69-18.729,7.162-28.068
		c0.596-2.251,1.103-4.569,2.076-6.658c0.461-0.989,1.967-2.122,2.924-2.058c0.834,0.056,2.013,1.606,2.236,2.665
		c0.405,1.924,0.261,3.973,0.261,5.969c0.01,32.991,0.006,65.982,0.006,98.973c0,1,0.254,2.09-0.058,2.981
		c-0.68,1.944-1.649,3.788-2.5,5.672c-1.262-1.769-3.13-3.366-3.686-5.334c-3.166-11.22-6.021-22.529-8.978-33.808
		c-2.624-10.007-2.596-10.366-13.185-11.144c-33.294-2.446-66.589-2.249-99.833,1c-7.289,0.712-7.768,1.004-7.943,8.655
		c-0.495,21.618-1.111,43.251-0.792,64.865c0.427,28.97,1.611,57.931,2.625,86.89c0.423,12.09,0.48,12.86,12.753,14.826
		c19.021,3.047,38.179,6.133,57.375,6.949c20.906,0.889,41.918-0.951,62.888-1.252c5.62-0.081,8.333-2.224,9.905-7.548
		c3.29-11.149,7.156-22.129,11.437-35.16c0.862,3.115,1.516,4.391,1.523,5.672c0.084,14.662-0.094,29.328,0.172,43.986
		c0.094,5.166-1.651,7.424-6.864,6.908c-1.98-0.196-3.996-0.027-5.995-0.027c-94.973-0.001-189.946-0.003-284.92-0.004
		C420.437,842.954,415.116,842.954,409.796,842.954z M495.409,670.991c0-46.329-0.29-90.323,0.127-134.31
		c0.198-20.901-3.476-40.984-9.13-60.929c-1.252-4.419-3.426-6.822-7.602-8.197c-9.804-3.229-19.373-7.287-29.324-9.927
		c-23.09-6.126-46.081-6.135-68.662,2.865c-44.383,17.69-59.862,71.558-22.435,106.19c9.262,8.571,18.957,16.831,29.265,24.08
		c19.346,13.605,39.294,26.353,58.973,39.487c15.566,10.389,30.225,21.879,43.063,35.578
		C490.958,667.188,492.454,668.342,495.409,670.991z M534.303,645.672c0-60.634,0.008-121.267-0.007-181.901
		c-0.003-11.028-0.261-11.235-11.142-10.688c-0.665,0.033-1.332,0.051-1.998,0.051c-3.763,0-5.405,1.972-5.31,5.629
		c0.043,1.664-0.014,3.331-0.014,4.997c-0.001,80.956-0.085,161.912,0.095,242.868c0.026,11.614,1.805,23.221,1.885,34.838
		c0.062,8.941-1.738,17.884-1.883,26.84c-0.314,19.318-0.114,38.644-0.092,57.967c0.013,11.064,0.041,11.064,11.054,10.653
		c0.333-0.012,0.669-0.038,0.999-0.007c4.668,0.437,6.788-1.61,6.43-6.349c-0.175-2.318-0.018-4.662-0.018-6.994
		C534.303,764.274,534.303,704.973,534.303,645.672z"/>
	<path fill="#A69605" d="M487.465,304.41c-1.945-4.082-4.508-7.992-5.702-12.283c-2.203-7.921,0.928-15.826,8.7-17.658
		c9.73-2.294,10.208-9.454,12.189-16.491c1.057-3.755,2.095-7.618,3.893-11.037c3.051-5.802,7.879-6.251,11.037-0.457
		c2.923,5.362,4.835,11.597,5.7,17.66c0.757,5.308,1.423,8.559,7.826,9.084c2.971,0.243,6.131,3.364,8.391,5.904
		c3.67,4.124,3.55,16.532,0.072,20.591c-1.173,1.369-3.235,1.975-4.891,2.93c-0.731-1.392-1.526-2.756-2.16-4.191
		c-0.255-0.578-0.135-1.316-0.225-1.975c-0.427-3.107-2.06-5.184-5.317-4.262c-3.102,0.878-3.47,3.318-2.705,6.407
		c2.288,9.242,1.539,18.844,4.87,28.189c3.025,8.488,6.473,15.447,14.482,19.933c9.401,5.266,21.96-1.228,22.9-12.037
		c0.256-2.945,0.023-6.227,1.283-8.712c1.371-2.705,3.512-5.938,7.866-4.004c4.123,1.831,6.524,5.629,4.518,9.416
		c-5.112,9.65,0.902,15.595,6.552,21.687c5.875,6.334,12.91,4.181,19.408,1.601c13.611-5.405,19.425-21.109,12.273-33.262
		c-2.06-3.5-1.402-5.498,1.213-7.619c3.952-3.205,8.673-4.197,13.098-1.973c5.685,2.857,10.794,5.661,17.775,4.131
		c3.411-0.748,7.6,1.67,11.33,2.964c1.333,0.462,3.191,1.76,3.288,2.815c0.11,1.211-1.192,2.968-2.367,3.801
		c-3.511,2.489-7.461,4.377-10.883,6.97c-18.314,13.879-30.097,32.514-38.308,53.614c-4.965,12.759-4.831,12.812-17.857,12.812
		c-56.652,0-113.304,0.004-169.957-0.004c-10.635-0.001-11.585,0.219-14.337-9.504c-5.2-18.37-17.531-32.346-27.976-47.392
		c-3.765-5.425-10.807-8.595-16.417-12.708c-1.872-1.373-3.984-2.412-5.909-3.719c-3.213-2.183-2.799-5.048,0.401-5.931
		c5.184-1.43,9.624-5.42,16.061-3.415c3.099,0.965,7.556-1.341,11.038-2.947c5.269-2.43,11.564-2.472,15.512,1.349
		c1.239,1.199,1.65,3.859,1.498,5.775c-0.437,5.5-2.256,11.022-1.898,16.427c0.738,11.143,10.153,18.914,22.622,19.832
		c8.434,0.621,16.746-5.24,19.118-14.393c0.838-3.233-0.135-7.006-0.611-10.488c-0.514-3.758-1.163-7.422,3.079-9.52
		c3.201-1.583,7.458,0.343,9.535,4.867c1.202,2.619,1.691,5.678,1.961,8.59c0.985,10.63,11.531,16.092,20.911,10.828
		c4.876-2.736,7.646-6.897,10.23-11.753c6.22-11.689,9.345-23.958,8.621-37.128c-0.105-1.91-1.765-3.734-2.705-5.598
		c-1.525,1.471-3.551,2.691-4.448,4.478c-1.102,2.193-1.261,4.86-1.827,7.322C489.3,304.087,488.382,304.249,487.465,304.41z"/>
	<path fill="#A69605" d="M294.931,779.785c3.285,10.373,6.768,20.689,9.766,31.145c1.327,4.628,3.822,7.54,8.28,9.09
		c27.298,9.492,55.077,16.379,84.154,11.024c33.472-6.164,57.473-24.267,66.768-58.147c6.683-24.36,1.778-46.905-17.06-64.143
		c-15.908-14.557-33.528-27.278-50.688-40.423c-21.129-16.186-43.009-31.42-63.728-48.105
		c-15.991-12.878-28.359-29.148-35.361-48.745c-2.191-6.133-2.874-12.911-3.501-19.465c-0.568-5.941,0.078-11.988-0.155-17.974
		c-1.119-28.648,12.251-50.466,32.649-68.786c5.164-4.638,11.134-8.466,17.049-12.162c13.494-8.434,16.316-8.937,35.132-7.485
		c-3.411,1.681-5.116,2.774-6.979,3.401c-24.753,8.323-45.632,21.919-58.585,45.218c-16.667,29.98-17.254,60.266,0.665,90.099
		c12.094,20.135,29.889,34.752,48.54,48.295c22.363,16.238,45.176,31.855,67.588,48.026c12.731,9.186,24.514,19.501,33.417,32.662
		c19.502,28.828,17.064,66.915-6.033,93.53c-16.196,18.663-36.713,28.281-61.111,32.607c-31.79,5.636-63.598,2.299-95.372,3.477
		c-3.269,0.121-6.928,0.621-6.909-4.625c0.071-19.46,0.028-38.921,0.028-58.382C293.967,779.872,294.449,779.828,294.931,779.785z"
		/>
	<path fill="#0F2263" d="M495.409,670.991c-2.955-2.65-4.45-3.803-5.725-5.164c-12.838-13.699-27.497-25.19-43.063-35.578
		c-19.678-13.133-39.627-25.881-58.973-39.487c-10.308-7.249-20.003-15.509-29.265-24.08
		c-37.426-34.632-21.948-88.501,22.435-106.19c22.581-9,45.572-8.991,68.662-2.865c9.951,2.64,19.521,6.698,29.324,9.927
		c4.176,1.375,6.349,3.779,7.602,8.197c5.653,19.945,9.328,40.028,9.13,60.929C495.118,580.668,495.409,624.662,495.409,670.991z"/>
	<path fill="#0F2263" d="M534.303,645.672c0,59.301,0,118.602-0.001,177.903c0,2.332-0.157,4.675,0.018,6.994
		c0.358,4.74-1.762,6.786-6.43,6.349c-0.33-0.031-0.666-0.006-0.999,0.007c-11.013,0.411-11.041,0.411-11.054-10.653
		c-0.022-19.323-0.223-38.649,0.092-57.967c0.146-8.956,1.945-17.899,1.883-26.84c-0.081-11.616-1.86-23.224-1.885-34.838
		c-0.18-80.955-0.096-161.912-0.095-242.868c0-1.666,0.057-3.333,0.014-4.997c-0.095-3.657,1.548-5.629,5.31-5.629
		c0.666,0,1.333-0.018,1.998-0.051c10.88-0.547,11.139-0.34,11.142,10.688C534.311,524.405,534.303,585.038,534.303,645.672z"/>
</g>
</svg>
