<?xml version="1.0" encoding="utf-8"?>
<!-- Generator: Adobe Illustrator 21.1.0, SVG Export Plug-In . SVG Version: 6.00 Build 0)  -->
<svg version="1.1" xmlns="http://www.w3.org/2000/svg" xmlns:xlink="http://www.w3.org/1999/xlink" x="0px" y="0px"
	 viewBox="0 0 470 273.3" style="enable-background:new 0 0 470 273.3;" xml:space="preserve">
<style type="text/css">
	.st0{fill:#FF00CF;}
	.st1{clip-path:url(#SVGID_2_);}
	.st2{fill:#FFFFFF;}
	.st3{fill:#666666;stroke:#666666;stroke-miterlimit:10;}
	.st4{fill:none;stroke:#666666;stroke-miterlimit:10;}
	.st5{fill:#F15A22;}
	.st6{fill:#666666;}
	.st7{fill:#7C7E81;}
	.st8{fill:#737373;}
	.st9{fill:#F25022;}
	.st10{fill:#7FBA00;}
	.st11{fill:#00A4EF;}
	.st12{fill:#FFB900;}
	.st13{clip-path:url(#SVGID_4_);fill:#FFFFFF;}
	.st14{clip-path:url(#SVGID_4_);}
	.st15{fill:#E94E0F;}
	.st16{font-family:'EtihadAltis-Book';}
	.st17{font-size:254.9964px;}
</style>
<g id="BANNER">
	<g>
		<path class="st0" d="M-653.1-853.2c-4.4,0.4-4.8,0.6-4.8,5v20.5c0,4.4,0.5,4.6,4.8,5v1.5h-14.6v-1.5c4.5-0.4,5-0.6,5-5v-10.1h-18
			v10.1c0,4.3,0.4,4.6,4.8,5v1.5h-14.3v-1.5c4.2-0.4,4.6-0.6,4.6-5v-20.5c0-4.4-0.4-4.6-4.7-5v-1.5h14.2v1.5c-4.1,0.4-4.5,0.6-4.5,5
			v8.1h18v-8.1c0-4.3-0.4-4.6-4.6-5v-1.5h14.2V-853.2z"/>
		<path class="st0" d="M-637.5-844.4c6.7,0,11.6,5.2,11.6,11.4c0,8.3-6.3,12.2-11.6,12.2c-7.5,0-11.8-5.6-11.8-11.3
			C-649.3-840.4-642.4-844.4-637.5-844.4L-637.5-844.4z M-638.1-842.6c-3,0-5.8,3.1-5.8,8.9c0,6.5,2.8,11.2,7,11.2
			c3,0,5.7-2,5.7-9.2C-631.2-837.9-633.7-842.6-638.1-842.6L-638.1-842.6z"/>
		<path class="st0" d="M-593.3-821.3v-1.4c2.9-0.3,3.5-0.6,3.5-4.2v-8.3c0-3.9-1.5-5.9-4.5-5.9c-1.7,0-3.6,1-5.6,2.6
			c0.1,0.6,0.1,1.2,0.1,2.1v9.9c0,3.2,0.5,3.6,3.3,3.9v1.4h-11.5v-1.4c3.1-0.3,3.6-0.6,3.6-3.9v-8.7c0-3.9-1.4-5.8-4.4-5.8
			c-2,0-3.9,1.3-5.5,2.5v12c0,3.3,0.5,3.6,2.8,3.9v1.4h-11.2v-1.4c3.4-0.3,3.9-0.6,3.9-4v-10.4c0-3.3-0.2-3.6-3.2-4v-1.3
			c2.2-0.4,5.2-1,7.6-2v4.2c1.1-0.7,2.2-1.7,3.8-2.6c1.4-0.8,2.7-1.4,4.3-1.4c2.5,0,4.7,1.6,5.8,4.2c1.5-1.1,3-2.1,4.3-2.9
			c1.1-0.7,2.5-1.3,3.9-1.3c4.1,0,6.8,2.8,6.8,8v9.7c0,3.4,0.4,3.6,3.4,3.9v1.4H-593.3z"/>
		<path class="st0" d="M-559.8-825.9c-3.4,4.3-7.1,5.2-8.8,5.2c-6.4,0-10.2-5.2-10.2-10.9c0-3.4,1.2-6.5,3.3-8.8
			c2.2-2.5,5.1-3.9,7.9-3.9h0c4.5,0,8,3.8,8,7.9c0,1-0.3,1.4-1.2,1.7c-0.9,0.1-7.5,0.7-13.5,0.9c0.1,6.6,4,9.5,7.6,9.5
			c2.1,0,4.1-0.8,6-2.6L-559.8-825.9z M-568.8-842.4c-2.2,0-4.5,2-5.2,6.3c2.8,0,5.6,0,8.5-0.1c0.9,0,1.2-0.3,1.2-1
			C-564.4-839.9-566-842.4-568.8-842.4L-568.8-842.4z"/>
		<path class="st0" d="M-532-843.8c1-0.4,1.8-0.6,2.4-0.6c5.7,0,10.5,4.7,10.5,10.8c0,7.5-6.2,12.8-13.3,12.8c-2.2,0-5-0.5-8-1.8
			V-851c0-3.2-0.2-3.6-3.4-3.9v-1.2c2.5-0.3,5.9-1.1,8-1.8v15.8L-532-843.8z M-535.9-827.4c0,0.8,0.1,1.3,0.3,1.8
			c0.4,1.1,1.9,2.8,4.5,2.8c4.1,0,6.9-3.4,6.9-9.4c0-5.9-3.7-9.2-7.8-9.2c-1.4,0-2.9,0.4-3.9,0.9V-827.4z"/>
		<path class="st0" d="M-498.8-820.7c-1,0-2.1-0.5-2.7-1c-0.7-0.7-1-1.4-1.3-2.2c-2.1,1.3-4.6,3.2-6,3.2c-3.9,0-6.5-3.1-6.5-6.3
			c0-2.6,1.4-4.1,4.3-5c3.3-1.1,7-2.4,8.1-3.3v-0.9c0-3.7-1.7-5.7-4.2-5.7c-0.9,0-1.7,0.4-2.2,0.9c-0.7,0.7-1.1,1.8-1.6,3.5
			c-0.3,0.9-0.9,1.3-1.7,1.3c-1,0-2.4-1.1-2.4-2.3c0-0.8,0.7-1.4,1.7-2.1c1.5-1.1,5.1-3.1,8-3.6c1.7,0,3.2,0.4,4.4,1.3
			c1.9,1.6,2.5,3.8,2.5,6.5v9.2c0,2.3,0.9,3.1,1.9,3.1c0.6,0,1.3-0.2,1.9-0.6l0.5,1.4L-498.8-820.7z M-502.9-833.6
			c-1.1,0.5-3.2,1.5-4.3,2c-2,0.9-3.2,1.9-3.2,3.8c0,2.7,2,3.9,3.6,3.9c1.2,0,2.9-0.8,3.8-1.7V-833.6z"/>
		<path class="st0" d="M-477.4-821.3v-1.4c3-0.3,3.3-0.7,3.3-4.4v-8.4c0-3.6-1.4-5.7-4.6-5.7c-2,0-3.9,1.2-5.5,2.5v11.9
			c0,3.5,0.3,3.7,3.3,4v1.4h-11.6v-1.4c3.5-0.4,3.8-0.7,3.8-4.1v-10.3c0-3.3-0.4-3.6-3.1-4v-1.3c2.5-0.4,5.2-1.1,7.6-2v4.1
			c1.1-0.8,2.2-1.6,3.5-2.5c1.5-0.9,2.8-1.5,4.3-1.5c4.1,0,6.8,2.9,6.8,8v9.6c0,3.5,0.3,3.7,3.3,4v1.4H-477.4z"/>
		<path class="st0" d="M-448.4-821.3v-1.4c3-0.3,3.3-0.7,3.3-4.4v-8.4c0-3.6-1.4-5.7-4.6-5.7c-2,0-3.9,1.2-5.5,2.5v11.9
			c0,3.5,0.3,3.7,3.3,4v1.4h-11.6v-1.4c3.5-0.4,3.8-0.7,3.8-4.1v-10.3c0-3.3-0.4-3.6-3.1-4v-1.3c2.5-0.4,5.2-1.1,7.6-2v4.1
			c1.1-0.8,2.2-1.6,3.5-2.5c1.5-0.9,2.8-1.5,4.3-1.5c4.1,0,6.8,2.9,6.8,8v9.6c0,3.5,0.3,3.7,3.3,4v1.4H-448.4z"/>
		<path class="st0" d="M-415.1-825.9c-3.4,4.3-7.1,5.2-8.8,5.2c-6.4,0-10.2-5.2-10.2-10.9c0-3.4,1.2-6.5,3.3-8.8
			c2.2-2.5,5.1-3.9,7.9-3.9h0c4.5,0,8,3.8,8,7.9c0,1-0.3,1.4-1.2,1.7c-0.9,0.1-7.5,0.7-13.5,0.9c0.1,6.6,4,9.5,7.6,9.5
			c2.1,0,4.1-0.8,6-2.6L-415.1-825.9z M-424.2-842.4c-2.2,0-4.5,2-5.2,6.3c2.8,0,5.6,0,8.5-0.1c0.9,0,1.2-0.3,1.2-1
			C-419.7-839.9-421.4-842.4-424.2-842.4L-424.2-842.4z"/>
		<path class="st0" d="M-403.7-838.8c1.7-2.8,3.9-5.6,6.3-5.6c1.9,0,3.2,1.4,3.2,2.6c0,1.2-0.7,2.2-1.8,2.8
			c-0.6,0.2-1.1,0.1-1.4-0.1c-0.8-0.7-1.4-1.1-2.3-1.1c-1.3,0-2.9,1.5-4,4.3v9.2c0,3.4,0.2,3.7,4.3,4v1.4h-12.5v-1.4
			c3.2-0.3,3.6-0.6,3.6-4v-10.7c0-3.3-0.3-3.5-3.2-3.9v-1.2c2.6-0.4,5.1-1,7.7-2.1v5.7H-403.7z"/>
		<path class="st0" d="M-373.7-842.4c1.8,0,3,1.3,3,3.1c0,1.8-1.3,3.1-3.1,3.1c-1.8,0-3-1.3-3-3.1
			C-376.8-841.2-375.5-842.4-373.7-842.4L-373.7-842.4z M-373.7-820.7c-1.8,0-3-1.2-3-3.1c0-1.8,1.3-3.1,3.1-3.1s3.1,1.3,3.1,3.1
			C-370.6-821.9-371.9-820.7-373.7-820.7L-373.7-820.7z"/>
		<path class="st0" d="M-347.9-821.3v-1.5c4.6-0.3,5-0.8,5-4.6v-19.4c0-2.7-0.2-2.9-2.4-3.1l-2.7-0.1v-1.2c3.4-0.6,6.7-1.5,9.8-2.7
			v26.5c0,3.7,0.4,4.3,5,4.6v1.5H-347.9z"/>
		<path class="st0" d="M-315.4-853.9c6.7,0,10.5,5.9,10.5,12.9c0,9.5-5.4,16-12.5,18.8c-2.7,1-6.2,1.6-7.6,1.6l-0.3-1.6
			c7.6-1.2,13.3-6.5,15-14l-3.4,1.8c-1.2,0.6-2.2,0.8-3.1,0.8c-5.7,0-9.5-4-9.5-9.4C-326.4-847.8-322.3-853.9-315.4-853.9
			L-315.4-853.9z M-316.2-852.1c-3.8,0-5.3,4.3-5.3,7.3c0,4.4,2.6,8.3,7,8.3c1.8,0,3.4-0.6,4.4-1.3c0.1-1.2,0.2-2.4,0.2-3.4
			C-309.9-845.9-311.2-852.1-316.2-852.1L-316.2-852.1z"/>
		<path class="st0" d="M-279.5-828.4c-0.7,2.4-1.3,4.8-1.9,7.1h-19.8v-1.2c2.9-2.8,5.9-5.7,8.4-8.6c3.2-3.7,6.5-7.9,6.5-12.2
			c0-4.2-2.2-6.7-6-6.7c-3.6,0-5.8,2.8-7.2,4.9l-1.2-1.1l3.1-4.4c1.7-1.7,4.1-3.1,7.1-3.1c4.8,0,9,3.3,9,8.8c0,4.4-1.9,7.3-7,12.4
			l-7.2,7.2h9.5c2.9,0,3.5-0.1,5.2-3.5L-279.5-828.4z"/>
		<path class="st0" d="M-264.7-853.9c7.9,0,10.8,8.6,10.8,16.6c0,7.5-2.8,16.6-10.8,16.6s-10.9-8.4-10.9-16.5
			C-275.7-844.7-272.8-853.9-264.7-853.9L-264.7-853.9z M-264.8-852.1c-4.6,0-5.7,7.6-5.7,14.7c0,7.1,1.4,14.8,5.8,14.8
			c4.5,0,5.7-7.7,5.7-14.8C-259.1-844.6-260.3-852.1-264.8-852.1L-264.8-852.1z"/>
		<path class="st0" d="M-224.4-821.3v-1.4c2.2-0.3,2.6-0.7,1.8-2.1l-3.8-5.8c-1.2,1.8-2.4,3.7-3.3,5.2c-1,1.7-0.9,2.2,1.7,2.7v1.4
			h-9.8v-1.4c3.2-0.5,3.8-0.9,5.9-3.3c1.5-1.8,2.9-3.8,4.5-6l-4.6-7c-1.6-2.5-2.2-2.9-5.1-3.3v-1.4h10.9v1.4
			c-2.2,0.3-2.4,0.8-1.4,2.2l3,4.6c1.1-1.6,2.1-3.1,3-4.7c0.9-1.5,0.6-1.8-1.7-2.1v-1.4h9.7v1.4c-3.2,0.4-3.9,0.6-5.8,2.7
			c-1.1,1.2-2.3,3-4.1,5.4l5.2,7.7c1.9,2.8,2.6,3.3,5.7,3.8v1.4H-224.4z"/>
		<path class="st0" d="M-188.1-840.6c1.2-0.5,2.2-0.9,3.2-0.9c5.7,0,9.6,4.1,9.6,9.5c0,6.1-4.6,11.3-10.9,11.3c-6.3,0-11-5-11-12.8
			c0-11.2,8.1-17,13.7-18.9c2.1-0.7,4.9-1.3,6.9-1.7l0.4,1.7c-1.7,0.3-3.8,0.9-5.7,1.8c-3.1,1.4-8,4.7-9.6,11.7L-188.1-840.6z
			 M-187.1-838.5c-1.9,0-3.5,0.7-4.7,1.3c-0.2,0.9-0.3,2.4-0.3,3.6c0,6.2,2.7,11.1,6.8,11.1c4,0,5.2-4.3,5.2-7.6
			C-180.1-834.4-182.5-838.5-187.1-838.5L-187.1-838.5z"/>
		<path class="st0" d="M-160.9-853.9c7.9,0,10.8,8.6,10.8,16.6c0,7.5-2.8,16.6-10.8,16.6s-10.9-8.4-10.9-16.5
			C-171.9-844.7-169-853.9-160.9-853.9L-160.9-853.9z M-161-852.1c-4.6,0-5.7,7.6-5.7,14.7c0,7.1,1.4,14.8,5.8,14.8
			c4.5,0,5.7-7.7,5.7-14.8C-155.3-844.6-156.5-852.1-161-852.1L-161-852.1z"/>
		<path class="st0" d="M-135.6-853.9c7.9,0,10.8,8.6,10.8,16.6c0,7.5-2.8,16.6-10.8,16.6s-10.9-8.4-10.9-16.5
			C-146.5-844.7-143.6-853.9-135.6-853.9L-135.6-853.9z M-135.7-852.1c-4.6,0-5.7,7.6-5.7,14.7c0,7.1,1.4,14.8,5.8,14.8
			c4.5,0,5.7-7.7,5.7-14.8C-129.9-844.6-131.1-852.1-135.7-852.1L-135.7-852.1z"/>
	</g>
	<g>
		<defs>
			<rect id="SVGID_1_" x="-707.6" y="-786.5" width="1933.1" height="600"/>
		</defs>
		<clipPath id="SVGID_2_">
			<use xlink:href="#SVGID_1_"  style="overflow:visible;"/>
		</clipPath>
		<g class="st1">
			<rect x="-720.7" y="-801.9" class="st2" width="1946.2" height="626.1"/>
		</g>
		<g class="st1">
			
				<image style="overflow:visible;" width="5500" height="4500" xlink:href="../../../../../../../Desktop/NEW IFIKRA/orange s.jpg"  transform="matrix(0.1349 0 0 0.1349 494.4254 -787.4792)">
			</image>
		</g>
	</g>
</g>
<g id="Banner_logo">
	<g>
		<text transform="matrix(0.9832 0 0 1 -319.0843 -344.8311)" class="st3 st16" style="font-size:370.4962px;">I</text>
		<line class="st4" x1="-605.9" y1="-334.5" x2="-18.5" y2="-334.5"/>
		<polygon class="st5" points="-474.7,-344.8 -433.4,-345 -343.9,-480 -343.9,-345 -309.7,-345 -309.7,-531.7 -309.7,-542 
			-309.7,-593.6 		"/>
		<g>
			<path class="st6" d="M-603.5-349.6v-24.5h17.2l-1.6,5h-9.7v4.6h7v4.7h-7v5.2h9.7l1.6,5H-603.5z"/>
			<path class="st6" d="M-577.8-349.6V-369h-6.8v-5.1h20.2l-1.6,5.1h-5.8v19.4H-577.8z"/>
			<path class="st6" d="M-562-349.6v-24.5h6v24.5H-562z"/>
			<path class="st6" d="M-551.2-349.6v-24.5h6v24.5H-551.2z M-536.2-349.6v-10h-6l-3-5.2h8.9v-9.4h6v24.5H-536.2z"/>
			<path class="st6" d="M-527.7-349.6l10-24.5h4.3c3.9,9.5,7.2,17.6,9.9,24.5h-6.2l-1.7-4.4h-5.6l-1.6-4.2l-3.2,8.6H-527.7z
				 M-516.6-363.8l-2.1,5.5h5.6l-2.1-5.5l-0.7-2.1L-516.6-363.8z"/>
			<path class="st6" d="M-501-349.6v-24.5h7.9c4.4,0,7.8,1,10,2.8c2.2,1.9,3.4,5,3.4,9.3c0,2.2-0.3,4.1-1,5.8
				c-0.7,1.6-1.6,2.9-2.9,3.8c-1.2,0.9-2.6,1.6-4.2,2.1c-1.6,0.4-3.3,0.7-5.2,0.7H-501z M-495-354.6h1.9c2.7,0,4.5-0.5,5.6-1.6
				s1.6-2.9,1.6-5.5c0-2.6-0.5-4.4-1.6-5.6c-1.1-1.2-2.9-1.7-5.6-1.7h-1.9V-354.6z"/>
		</g>
		<g>
			<g>
				<path class="st6" d="M-202.4-600c1.1,0,2.1,0.1,3.2,0.2c0.4,0,0.7,0.1,1.1,0.1c0.7,0.1,1.3,0.2,2,0.3c0.4,0.1,0.9,0.2,1.3,0.3
					c0.6,0.1,1.1,0.3,1.7,0.4c0.4,0.1,0.9,0.3,1.3,0.4c0.5,0.2,1.1,0.4,1.6,0.6c0.4,0.2,0.8,0.3,1.3,0.5c0.5,0.2,1.1,0.5,1.6,0.8
					c0.4,0.2,0.7,0.4,1.1,0.6c0.6,0.3,1.2,0.7,1.8,1.1c0.2,0.2,0.5,0.3,0.7,0.5c1.7,1.2,3.3,2.5,4.7,3.9c0,0,0.1,0.1,0.1,0.1
					c0.7,0.7,1.3,1.4,1.9,2.1c0.1,0.1,0.2,0.3,0.3,0.4c0.5,0.7,1,1.3,1.5,2c0.1,0.2,0.2,0.4,0.4,0.5c0.4,0.7,0.9,1.4,1.3,2.1
					c0.1,0.2,0.2,0.4,0.4,0.7c0.4,0.7,0.7,1.4,1,2.1c0.1,0.3,0.2,0.5,0.3,0.8c0.3,0.7,0.5,1.4,0.8,2.1c0.1,0.3,0.2,0.5,0.3,0.8
					c0.2,0.8,0.4,1.5,0.6,2.3c0.1,0.3,0.1,0.5,0.2,0.8c1.9,9.2-0.3,18.8-6,26.3c-1.2,1.6-0.9,3.9,0.7,5.1c1.6,1.2,3.9,0.9,5.1-0.7
					c5.3-7,8.1-15.5,8.1-24.2c0-0.7-0.1-1.4-0.1-2.1c11.1,3.8,18.5,14.3,18.5,26c0,1.5-0.1,3-0.4,4.5c0,0.2-0.1,0.3-0.1,0.5
					c-0.8,4.3-2.6,8.3-5.2,11.8c0,0,0,0.1-0.1,0.1c-3.5,4.5-8.2,7.8-13.7,9.4c-1.9,0.6-3,2.6-2.4,4.6c0.6,1.9,2.7,3,4.6,2.4
					c5.7-1.7,10.8-4.9,15-9.2c6.1,5.6,9.7,13.4,9.7,21.7c0,1.2-0.1,2.5-0.3,3.7c0,0.4-0.1,0.8-0.2,1.2c-0.1,0.8-0.3,1.7-0.5,2.5
					c-0.1,0.4-0.2,0.8-0.3,1.2c-0.3,1-0.7,2-1.1,3c-0.2,0.6-0.5,1.1-0.8,1.6c-0.2,0.5-0.5,0.9-0.7,1.3c-0.3,0.6-0.7,1.2-1.1,1.7
					c-0.2,0.3-0.5,0.6-0.7,0.9c-0.7,1-1.5,1.9-2.3,2.8c-0.3,0.3-0.6,0.7-1,1c-0.4,0.4-0.9,0.9-1.4,1.3c-0.5,0.4-1.1,0.9-1.6,1.3
					c-0.4,0.3-0.9,0.7-1.3,1c-0.9,0.6-1.7,1.1-2.6,1.5c-4.2,2.2-8.8,3.3-13.5,3.3c-2,0-3.7,1.6-3.7,3.7s1.6,3.7,3.7,3.7
					c4.4,0,8.7-0.8,12.8-2.3c1.3,3.1,1.9,6.4,1.9,9.7c0,11.6-7.8,21.8-19.1,24.8c-11.2,3-23.1-1.9-28.9-12c-0.7-1.1-1.9-1.8-3.2-1.8
					c-1.3,0-2.5,0.7-3.2,1.8c-0.7,1.1-0.7,2.5,0,3.7c5.3,9,14.5,15,24.9,16.2c-0.8,14.8-13.4,26.3-28.3,25.9
					c-14.9-0.4-26.7-12.6-26.7-27.5v-22.7l15.9-22.3l13.5,5.9c0,0.2-0.1,0.4-0.1,0.5c-0.1,5.4,3.7,10,9,11c5.3,1,10.5-1.9,12.5-6.9
					c1.9-5,0-10.7-4.5-13.5c-4.6-2.8-10.5-2-14.1,2l-13.3-5.8c-0.9-0.4-1.9-0.6-2.9-0.6c-2.4,0-4.6,1.1-6,3.1l-10,13.9v-28.9h30.1
					c1.8,5.1,7,8.1,12.2,7.2c5.3-0.9,9.2-5.5,9.2-10.8s-3.9-9.9-9.2-10.8c-5.3-0.9-10.5,2.1-12.2,7.2h-30.1v-14.7h8
					c1.8,5.1,7,8.1,12.2,7.2c5.3-0.9,9.2-5.5,9.2-10.8s-3.9-9.9-9.2-10.8c-5.3-0.9-10.5,2.1-12.2,7.2h-8v-14.7h30
					c3.5,0,6.5-2.5,7.2-5.9l2.6-12.9c5.1-1.5,8.3-6.5,7.7-11.8c-0.6-5.3-5-9.3-10.3-9.6c-5.3-0.3-10,3.3-11.2,8.5
					c-1.2,5.2,1.5,10.4,6.4,12.5l-2.4,11.9h-30V-567C-235.4-585.2-220.6-599.9-202.4-600z M-198.7-460.7c0-2,1.6-3.7,3.7-3.7
					c2,0,3.7,1.6,3.7,3.7s-1.6,3.7-3.7,3.7C-197.1-457-198.7-458.6-198.7-460.7z M-198.7-490c0-2,1.6-3.7,3.7-3.7
					c2,0,3.7,1.6,3.7,3.7s-1.6,3.7-3.7,3.7C-197.1-486.3-198.7-488-198.7-490z M-220.7-512c0-2,1.6-3.7,3.7-3.7c2,0,3.7,1.6,3.7,3.7
					c0,2-1.6,3.7-3.7,3.7C-219.1-508.3-220.7-510-220.7-512z M-202.4-559.6c0-2,1.6-3.7,3.7-3.7c2,0,3.7,1.6,3.7,3.7
					c0,2-1.6,3.7-3.7,3.7C-200.7-556-202.4-557.6-202.4-559.6z M-242.8-471.9v18.4v7.3v24c0,10.5,4.8,20.4,12.9,27l10.5,5.8
					c10.4,3.6,21.9,2.2,31-4c9.1-6.2,14.8-16.3,15.3-27.2c0.9-0.1,1.7-0.2,2.6-0.4c0.2,0,0.3,0,0.5-0.1c1-0.2,2.1-0.5,3.1-0.8
					c0.3-0.1,0.6-0.2,0.9-0.3c0.7-0.2,1.4-0.5,2-0.7c0.4-0.2,0.7-0.3,1.1-0.5c0.6-0.3,1.2-0.5,1.7-0.8c0.4-0.2,0.7-0.4,1.1-0.6
					c0.5-0.3,1-0.6,1.5-0.9c0.4-0.2,0.7-0.5,1.1-0.8c0.5-0.3,0.9-0.7,1.4-1.1c0.3-0.3,0.7-0.6,1-0.9c0.4-0.4,0.9-0.8,1.3-1.2
					c0.3-0.3,0.6-0.6,1-1c0.4-0.4,0.8-0.8,1.2-1.3c0.3-0.3,0.6-0.7,0.9-1c0.4-0.5,0.7-0.9,1-1.4c0.3-0.4,0.5-0.7,0.8-1.1
					c0.3-0.5,0.6-1,0.9-1.5c0.2-0.4,0.5-0.8,0.7-1.2c0.3-0.5,0.5-1.1,0.8-1.6c0.2-0.4,0.4-0.8,0.5-1.2c0.2-0.6,0.4-1.1,0.6-1.7
					c0.1-0.4,0.3-0.8,0.4-1.2c0.2-0.6,0.3-1.2,0.5-1.8c0.1-0.4,0.2-0.8,0.3-1.2c0.1-0.7,0.2-1.4,0.3-2.1c0-0.4,0.1-0.7,0.1-1
					c0.1-1.1,0.2-2.2,0.2-3.3c0-4.4-0.9-8.8-2.6-12.9c0.2-0.1,0.4-0.3,0.7-0.5c0.6-0.4,1.2-0.8,1.7-1.2c1.3-1,2.6-2,3.8-3.2
					c0.1-0.1,0.3-0.3,0.4-0.4c0.7-0.7,1.3-1.4,2-2.2c0.2-0.2,0.4-0.5,0.6-0.7c0.6-0.8,1.2-1.5,1.7-2.3c0.2-0.2,0.3-0.5,0.4-0.7
					c1.6-2.4,2.9-5.1,3.8-7.8c0.2-0.6,0.5-1.3,0.6-2c0.2-0.6,0.3-1.2,0.5-1.8c0.2-0.9,0.4-1.7,0.5-2.6c0.1-0.5,0.2-1,0.2-1.5
					c0.1-0.4,0.1-0.9,0.1-1.3c0-0.1,0.1-0.1,0.1-0.2c0.1-0.9,0.1-1.8,0.1-2.8c0-10.5-4.6-20.6-12.5-27.5c1.6-2.7,2.9-5.5,3.7-8.5
					c0-0.2,0.1-0.3,0.1-0.5c0.4-1.4,0.7-2.8,0.9-4.2c0-0.2,0.1-0.5,0.1-0.7c0.2-1.5,0.3-2.9,0.3-4.4c0.1-16.2-11.1-30.3-27-33.9
					c-0.1-0.4-0.2-0.8-0.4-1.2c-0.1-0.4-0.2-0.8-0.4-1.2c-0.3-0.9-0.6-1.8-1-2.6c-0.1-0.3-0.2-0.6-0.3-0.8c-1.5-3.4-3.4-6.7-5.8-9.6
					c-0.1-0.2-0.3-0.3-0.4-0.5c-0.6-0.8-1.3-1.5-2-2.2c-0.2-0.2-0.5-0.5-0.7-0.7c-0.6-0.6-1.3-1.2-2-1.8c-0.3-0.2-0.5-0.5-0.8-0.7
					c-0.7-0.6-1.4-1.1-2.1-1.6c-0.3-0.2-0.5-0.4-0.8-0.6c-1-0.7-2-1.3-3.1-1.9c-0.2-0.1-0.4-0.2-0.6-0.3c-0.9-0.5-1.7-0.9-2.7-1.3
					c-0.4-0.2-0.9-0.4-1.4-0.5c-0.7-0.3-1.4-0.5-2-0.8c-0.5-0.2-1-0.3-1.5-0.5c-0.7-0.2-1.4-0.4-2.1-0.5c-0.5-0.1-1-0.2-1.5-0.3
					c-0.8-0.1-1.6-0.3-2.4-0.4c-0.4-0.1-0.9-0.1-1.3-0.2c-1.3-0.1-2.5-0.2-3.8-0.2c-5.3,0-10.6,1-15.5,3.1l-8.8,5.1
					c-10.2,7.6-16.1,19.5-16.1,32.2v18.5v7.3v18.4V-471.9z M-242.8-515.3v35.9"/>
			</g>
		</g>
		<g>
			<path class="st6" d="M-253.9-344.8l14.4-35.1h6.1c5.5,13.6,10.3,25.3,14.1,35.1h-8.9l-2.4-6.3h-8l-2.3-6l-4.6,12.3H-253.9z
				 M-237.9-365.1l-3,7.9h8l-3-7.9l-1-3L-237.9-365.1z"/>
			<path class="st6" d="M-200.1-344c-5.4,0-9.7-1.6-12.7-4.7c-3-3.1-4.5-7.7-4.5-13.7c0-5.8,1.6-10.3,4.8-13.5
				c3.2-3.2,7.3-4.8,12.2-4.8c4.5,0,8,0.9,10.2,2.7v8.6c-2.2-2.6-5.2-3.9-9-3.9c-3,0-5.4,0.9-7,2.8c-1.6,1.8-2.4,4.5-2.4,8
				c0,3.5,0.8,6.2,2.4,8.2c1.6,2,3.9,2.9,7,2.9c4,0,7-1.2,9-3.5v7.8c-1,0.9-2.3,1.7-4.1,2.3C-195.9-344.3-197.9-344-200.1-344z"/>
			<path class="st6" d="M-187.8-344.8l14.4-35.1h6.1c5.5,13.6,10.3,25.3,14.1,35.1h-8.9l-2.4-6.3h-8l-2.3-6l-4.6,12.3H-187.8z
				 M-171.9-365.1l-3,7.9h8l-3-7.9l-1-3L-171.9-365.1z"/>
			<path class="st6" d="M-149.6-344.8v-35.1h11.4c6.3,0,11.1,1.4,14.3,4.1c3.2,2.7,4.8,7.1,4.8,13.4c0,3.2-0.5,5.9-1.5,8.2
				c-1,2.3-2.4,4.2-4.1,5.5c-1.8,1.3-3.8,2.3-6,3c-2.2,0.6-4.7,1-7.5,1H-149.6z M-141-352h2.7c3.8,0,6.5-0.8,8-2.4
				c1.5-1.6,2.2-4.2,2.2-7.9c0-3.7-0.8-6.4-2.3-8c-1.5-1.7-4.2-2.5-8-2.5h-2.7V-352z"/>
			<path class="st6" d="M-113.9-344.8v-35.1h24.7l-2.2,7.1h-13.8v6.6h10.1v6.8h-10.1v7.5h13.8l2.2,7.1H-113.9z"/>
			<path class="st6" d="M-84.4-344.8v-35.1h7.6l10.7,15.2l10.1-15.2h7.7v35.1h-8.7v-21.7l-9,13.4h-0.4l-9.3-13.4v21.7H-84.4z"/>
			<path class="st6" d="M-33.2-344.8v-14.3L-45-379.9h9.8l6.8,13.3l7-13.3h8.7l-11.8,20.9v14.3H-33.2z"/>
		</g>
		<g>
			<path class="st7" d="M-264.8-294.3V-305h1.4l0.1,0.8c0.1-0.3,0.4-0.5,0.8-0.7c0.4-0.2,0.9-0.3,1.5-0.3c2.2,0,3.3,1.3,3.3,4
				c0,1.4-0.3,2.5-1,3.2s-1.6,1.2-2.6,1.2c-0.9,0-1.6-0.2-1.9-0.6v3.2H-264.8z M-261.5-298c0.7,0,1.3-0.3,1.7-0.9
				c0.4-0.6,0.6-1.3,0.6-2.3c0-1.9-0.7-2.9-2.1-2.9c-0.5,0-0.9,0.1-1.2,0.3s-0.6,0.4-0.7,0.7v4.4C-263-298.2-262.4-298-261.5-298z"
				/>
			<path class="st7" d="M-252.7-296.8c-1.1,0-2.1-0.3-2.7-1c-0.7-0.7-1-1.7-1-3.1c0-1.4,0.4-2.4,1.1-3.1c0.7-0.7,1.7-1.1,2.8-1.1
				c1.1,0,2.1,0.4,2.7,1.1c0.7,0.7,1,1.8,1,3.1c0,1.4-0.4,2.4-1.1,3.1S-251.6-296.8-252.7-296.8z M-252.6-298c0.7,0,1.3-0.3,1.7-0.8
				c0.4-0.5,0.6-1.3,0.6-2.2s-0.2-1.7-0.6-2.2s-1-0.8-1.7-0.8c-0.7,0-1.3,0.3-1.7,0.8s-0.6,1.3-0.6,2.2s0.2,1.7,0.6,2.2
				C-253.9-298.3-253.4-298-252.6-298z"/>
			<path class="st7" d="M-245.7-297.1l-2.2-7.9h1.5l1.4,5.4l2-5.4h0.6l2,5.4l1.4-5.4h1.4l-2.2,7.9h-0.9l-2-5.4l-2,5.4H-245.7z"/>
			<path class="st7" d="M-232.7-296.8c-1.3,0-2.3-0.3-3-1c-0.7-0.7-1.1-1.7-1.1-3.1c0-1.4,0.4-2.4,1.1-3.1c0.7-0.7,1.6-1.1,2.6-1.1
				c0.5,0,0.9,0.1,1.3,0.2c0.4,0.1,0.8,0.3,1.1,0.6c0.3,0.3,0.6,0.6,0.8,1.1c0.2,0.5,0.3,1.1,0.3,1.8v1h-5.6c0,0.8,0.3,1.4,0.7,1.8
				c0.4,0.4,1.1,0.7,1.9,0.7c1.2,0,2.1-0.3,2.7-1v1.3C-230.5-297.1-231.4-296.8-232.7-296.8z M-235.2-301.6h4.1v-0.2
				c0-1.5-0.7-2.2-2-2.2c-0.6,0-1.1,0.2-1.5,0.7C-234.9-302.9-235.1-302.3-235.2-301.6z"/>
			<path class="st7" d="M-227.9-297.1v-7.9h1.3l0.1,1.2c0.1-0.4,0.3-0.8,0.6-1c0.3-0.3,0.7-0.4,1.1-0.4c0.4,0,0.6,0.1,0.8,0.2v1.3
				c-0.2-0.1-0.5-0.2-1-0.2c-0.3,0-0.6,0.1-0.9,0.3s-0.5,0.4-0.6,0.8v5.8H-227.9z"/>
			<path class="st7" d="M-219-296.8c-1.3,0-2.3-0.3-3-1c-0.7-0.7-1.1-1.7-1.1-3.1c0-1.4,0.4-2.4,1.1-3.1c0.7-0.7,1.6-1.1,2.6-1.1
				c0.5,0,0.9,0.1,1.3,0.2c0.4,0.1,0.8,0.3,1.1,0.6c0.3,0.3,0.6,0.6,0.8,1.1c0.2,0.5,0.3,1.1,0.3,1.8v1h-5.6c0,0.8,0.3,1.4,0.7,1.8
				c0.4,0.4,1.1,0.7,1.9,0.7c1.2,0,2.1-0.3,2.7-1v1.3C-216.8-297.1-217.8-296.8-219-296.8z M-221.5-301.6h4.1v-0.2
				c0-1.5-0.7-2.2-2-2.2c-0.6,0-1.1,0.2-1.5,0.7C-221.3-302.9-221.5-302.3-221.5-301.6z"/>
			<path class="st7" d="M-211.3-296.8c-1,0-1.8-0.3-2.4-1c-0.6-0.7-0.9-1.7-0.9-3.1c0-1.4,0.3-2.5,1-3.2c0.7-0.7,1.5-1.1,2.6-1.1
				c1,0,1.6,0.2,1.9,0.6v-3.3h1.5v10.8h-1.4l-0.1-0.8c-0.1,0.3-0.4,0.5-0.8,0.7C-210.3-296.9-210.7-296.8-211.3-296.8z
				 M-209.1-298.9v-4.4c-0.3-0.5-0.9-0.7-1.8-0.7c-0.7,0-1.3,0.3-1.7,0.9s-0.6,1.3-0.6,2.3c0,1.9,0.7,2.9,2.1,2.9
				c0.5,0,0.9-0.1,1.2-0.2C-209.4-298.4-209.2-298.7-209.1-298.9z"/>
			<path class="st7" d="M-198.4-296.8c-1,0-1.6-0.3-2.1-0.8l-0.2,0.6h-1.1v-10.8h1.5v3.7c0.1-0.3,0.4-0.5,0.8-0.7
				c0.4-0.2,0.9-0.3,1.4-0.3c2.2,0,3.3,1.3,3.3,4c0,1.4-0.3,2.5-1,3.2S-197.4-296.8-198.4-296.8z M-200.4-303.1v4.4
				c0.3,0.5,0.9,0.7,1.8,0.7c0.7,0,1.3-0.3,1.7-0.9c0.4-0.6,0.6-1.3,0.6-2.3c0-1.9-0.7-2.9-2.1-2.9c-0.4,0-0.8,0.1-1.2,0.2
				C-200-303.6-200.2-303.4-200.4-303.1z"/>
			<path class="st7" d="M-192.5-294c-0.6,0-1.1-0.1-1.4-0.4v-1.3c0.4,0.4,0.8,0.6,1.3,0.6c0.8,0,1.4-0.6,1.8-1.8l-3.3-8h1.6l2.4,6.1
				l1.8-6.1h1.5l-2.4,7.4c-0.4,1.1-0.8,2-1.3,2.6S-191.6-294-192.5-294z"/>
		</g>
		<g>
			<path class="st8" d="M-115.8-311.2v19.5h-3.4V-307h-0.1l-6.1,15.3h-2.2l-6.2-15.3h0v15.3h-3.1v-19.5h4.9l5.6,14.5h0.1l5.9-14.5
				H-115.8z M-113-309.7c0-0.5,0.2-1,0.6-1.4c0.4-0.4,0.9-0.6,1.4-0.6c0.6,0,1.1,0.2,1.4,0.6c0.4,0.4,0.6,0.8,0.6,1.4
				c0,0.5-0.2,1-0.6,1.3c-0.4,0.4-0.9,0.5-1.4,0.5c-0.6,0-1-0.2-1.4-0.6C-112.8-308.8-113-309.2-113-309.7z M-109.4-305.7v14h-3.3
				v-14H-109.4z M-99.4-294.1c0.5,0,1-0.1,1.6-0.3c0.6-0.2,1.1-0.5,1.6-0.9v3.1c-0.5,0.3-1.1,0.5-1.8,0.7c-0.7,0.2-1.4,0.2-2.2,0.2
				c-2.1,0-3.7-0.7-5-2c-1.3-1.3-1.9-3-1.9-5c0-2.2,0.7-4.1,2-5.6c1.3-1.5,3.2-2.2,5.6-2.2c0.6,0,1.2,0.1,1.9,0.2
				c0.6,0.2,1.1,0.3,1.5,0.6v3.2c-0.5-0.4-1-0.7-1.6-0.9c-0.5-0.2-1.1-0.3-1.6-0.3c-1.3,0-2.3,0.4-3.1,1.3c-0.8,0.8-1.2,2-1.2,3.4
				c0,1.4,0.4,2.5,1.1,3.3C-101.7-294.5-100.7-294.1-99.4-294.1z M-86.8-305.9c0.3,0,0.5,0,0.7,0.1c0.2,0,0.4,0.1,0.5,0.1v3.3
				c-0.2-0.1-0.4-0.2-0.8-0.4c-0.3-0.1-0.7-0.2-1.2-0.2c-0.8,0-1.5,0.3-2,1c-0.6,0.7-0.8,1.7-0.8,3.1v7.1h-3.3v-14h3.3v2.2h0.1
				c0.3-0.8,0.8-1.4,1.4-1.8C-88.4-305.7-87.6-305.9-86.8-305.9z M-85.4-298.5c0-2.3,0.7-4.1,2-5.5c1.3-1.4,3.1-2,5.4-2
				c2.2,0,3.9,0.7,5.1,2c1.2,1.3,1.8,3.1,1.8,5.3c0,2.3-0.7,4.1-2,5.4c-1.3,1.3-3.1,2-5.3,2c-2.2,0-3.9-0.6-5.2-1.9
				C-84.7-294.6-85.4-296.3-85.4-298.5z M-81.9-298.6c0,1.5,0.3,2.6,1,3.3c0.7,0.8,1.6,1.2,2.8,1.2c1.2,0,2.1-0.4,2.7-1.2
				c0.6-0.8,0.9-1.9,0.9-3.4c0-1.5-0.3-2.6-1-3.4c-0.6-0.8-1.6-1.1-2.7-1.1c-1.2,0-2.1,0.4-2.8,1.2
				C-81.6-301.2-81.9-300.1-81.9-298.6z M-66.1-302c0,0.5,0.1,0.8,0.4,1.1c0.3,0.3,1,0.6,2,1c1.3,0.5,2.2,1.1,2.8,1.8
				c0.5,0.7,0.8,1.5,0.8,2.4c0,1.3-0.5,2.4-1.5,3.2c-1,0.8-2.4,1.2-4.1,1.2c-0.6,0-1.2-0.1-1.9-0.2c-0.7-0.1-1.3-0.3-1.8-0.5v-3.2
				c0.6,0.4,1.2,0.7,1.9,1c0.7,0.2,1.3,0.4,1.9,0.4c0.7,0,1.3-0.1,1.6-0.3c0.4-0.2,0.5-0.6,0.5-1c0-0.5-0.2-0.8-0.6-1.1
				s-1.1-0.7-2.1-1.1c-1.2-0.5-2.1-1.1-2.6-1.7c-0.5-0.6-0.8-1.4-0.8-2.4c0-1.3,0.5-2.3,1.5-3.1c1-0.8,2.3-1.2,3.9-1.2
				c0.5,0,1,0.1,1.6,0.2c0.6,0.1,1.1,0.2,1.5,0.4v3.1c-0.4-0.3-0.9-0.5-1.5-0.7c-0.6-0.2-1.2-0.3-1.7-0.3c-0.6,0-1.1,0.1-1.5,0.4
				C-65.9-302.8-66.1-302.5-66.1-302z M-58.7-298.5c0-2.3,0.7-4.1,2-5.5c1.3-1.4,3.1-2,5.4-2c2.2,0,3.9,0.7,5.1,2
				c1.2,1.3,1.8,3.1,1.8,5.3c0,2.3-0.7,4.1-2,5.4c-1.3,1.3-3.1,2-5.3,2c-2.2,0-3.9-0.6-5.2-1.9C-58.1-294.6-58.7-296.3-58.7-298.5z
				 M-55.3-298.6c0,1.5,0.3,2.6,1,3.3c0.7,0.8,1.6,1.2,2.8,1.2c1.2,0,2.1-0.4,2.7-1.2c0.6-0.8,0.9-1.9,0.9-3.4c0-1.5-0.3-2.6-1-3.4
				c-0.6-0.8-1.6-1.1-2.7-1.1c-1.2,0-2.1,0.4-2.8,1.2C-54.9-301.2-55.3-300.1-55.3-298.6z M-33.4-303h-4.9v11.3h-3.3V-303H-44v-2.7
				h2.3v-1.9c0-1.5,0.5-2.7,1.4-3.6c1-0.9,2.2-1.4,3.7-1.4c0.4,0,0.8,0,1.1,0.1c0.3,0,0.6,0.1,0.8,0.2v2.8c-0.1-0.1-0.3-0.1-0.6-0.2
				c-0.3-0.1-0.6-0.1-0.9-0.1c-0.7,0-1.2,0.2-1.6,0.6c-0.4,0.4-0.6,1.1-0.6,1.9v1.7h4.9v-3.1l3.3-1v4.1h3.3v2.7h-3.3v6.5
				c0,0.9,0.2,1.5,0.5,1.8c0.3,0.4,0.8,0.5,1.5,0.5c0.2,0,0.4,0,0.7-0.1c0.3-0.1,0.5-0.2,0.7-0.3v2.7c-0.2,0.1-0.6,0.2-1,0.3
				c-0.5,0.1-1,0.1-1.4,0.1c-1.4,0-2.4-0.4-3.1-1.1c-0.7-0.7-1-1.9-1-3.3V-303z"/>
			<g>
				<rect x="-179.2" y="-317.7" class="st9" width="15.4" height="15.4"/>
				<rect x="-162.1" y="-317.7" class="st10" width="15.4" height="15.4"/>
				<rect x="-179.2" y="-300.7" class="st11" width="15.4" height="15.4"/>
				<rect x="-162.1" y="-300.7" class="st12" width="15.4" height="15.4"/>
			</g>
		</g>
	</g>
</g>
<g id="EDM">
	<g>
		<path class="st0" d="M-667.9-76.4c-3.4,4.3-7.1,5.2-8.8,5.2c-6.4,0-10.2-5.2-10.2-10.9c0-3.4,1.2-6.5,3.3-8.8
			c2.2-2.5,5.1-3.9,7.9-3.9h0c4.5,0,8,3.8,8,7.9c0,1-0.3,1.4-1.2,1.7c-0.9,0.1-7.5,0.7-13.5,0.9c0.1,6.6,4,9.5,7.6,9.5
			c2.1,0,4.1-0.8,6-2.6L-667.9-76.4z M-677-93c-2.2,0-4.5,2-5.2,6.3c2.8,0,5.6,0,8.5-0.1c0.9,0,1.2-0.3,1.2-1
			C-672.5-90.5-674.2-93-677-93L-677-93z"/>
		<path class="st0" d="M-648.7-105.3c6.7,0,11.8,1.4,15.1,4.4c2.6,2.5,4.5,6.3,4.5,11.1c0,6.1-2.5,10.7-6.6,13.7
			c-4,2.9-9.4,4.3-15.9,4.3h-13.1v-1.5c4.5-0.3,5-0.6,5-5v-20.4c0-4.4-0.5-4.6-4.5-5v-1.6H-648.7z M-654.8-78.8c0,4.1,1.8,5,5.7,5
			c9.8,0,14.5-7.1,14.5-15.2c0-5.3-2.1-9.7-5.9-12.1c-2.4-1.6-5.6-2.4-9.4-2.4c-2.4,0-3.7,0.4-4.2,0.7c-0.5,0.4-0.7,1-0.7,3V-78.8z"
			/>
		<path class="st0" d="M-595.1-71.9v-1.5c4.3-0.4,4.5-0.8,4.4-6.2l-0.2-20.6h-0.2l-12.9,28h-1.1l-11.8-27.3h-0.1l-0.8,14.4
			c-0.2,4.3-0.2,6.4-0.1,8.5c0.1,2.4,1.3,2.8,4.8,3.1v1.5h-12.3v-1.5c3-0.3,4-1,4.5-3.1c0.3-1.8,0.6-4,1-9.5l0.8-10.3
			c0.5-6.7,0.1-7-4.6-7.4v-1.5h9l11.9,25.3l12.1-25.3h9.2v1.5c-4.6,0.4-4.9,0.6-4.7,5.7l0.5,18.6c0.2,5.4,0.3,5.8,4.9,6.2v1.5
			H-595.1z"/>
		<path class="st0" d="M-575.1-69.6h-3l11.5-36.5h3.1L-575.1-69.6z"/>
		<path class="st0" d="M-509.2-103.8c-2.9,0.1-4.2,0.7-4.4,3.1c-0.2,1.7-0.3,4-0.3,8.8v20.6h-1.7l-23.1-26.8h-0.1l0,12.6
			c0,4.7,0.2,7.2,0.4,8.6c0.2,2.7,1.4,3.3,5.1,3.6v1.5H-546v-1.5c3-0.2,4.4-0.9,4.6-3.4c0.2-1.6,0.4-4,0.4-8.8v-11
			c0-3.8-0.2-4-1.1-5.3c-1.1-1.3-2.2-1.7-4.7-1.9v-1.5h8.1l22.4,25.4h0.1v-12c0-4.8-0.2-7.1-0.4-8.6c-0.2-2.4-1.5-3.1-5.2-3.3v-1.5
			h12.6V-103.8z"/>
		<path class="st0" d="M-487-76.4c-3.4,4.3-7.1,5.2-8.8,5.2c-6.4,0-10.2-5.2-10.2-10.9c0-3.4,1.2-6.5,3.3-8.8
			c2.2-2.5,5.1-3.9,7.9-3.9h0c4.5,0,8,3.8,8,7.9c0,1-0.3,1.4-1.2,1.7c-0.9,0.1-7.5,0.7-13.5,0.9c0.1,6.6,4,9.5,7.6,9.5
			c2.1,0,4.1-0.8,6-2.6L-487-76.4z M-496.1-93c-2.2,0-4.5,2-5.2,6.3c2.8,0,5.6,0,8.5-0.1c0.9,0,1.2-0.3,1.2-1
			C-491.6-90.5-493.3-93-496.1-93L-496.1-93z"/>
		<path class="st0" d="M-448.8-92.9c-2.6,0.4-3.1,1-4.2,3.8c-1.6,4-3.9,10.9-6.4,17.9h-1.5c-2.2-5.5-4.4-10.6-6.4-15.7
			c-2,5.1-4.1,10.2-6.2,15.7h-1.7c-1.9-6.1-3.9-12.1-6.1-18.3c-0.9-2.6-1.4-3-3.8-3.3v-1.4h11.1v1.4c-3.1,0.5-3.4,0.8-2.6,3.1
			c1.2,3.8,2.5,7.7,3.7,11.5h0.1c2-4.8,3.9-10,6-15.7h1.5c2,5.2,4.1,10.5,6.3,15.9h0.1c1-3.2,2.6-7.8,3.5-11.5
			c0.7-2.5,0.3-2.9-3-3.3v-1.4h9.5V-92.9z"/>
		<path class="st0" d="M-434-88c-1-3-2.8-5.2-5.4-5.2c-1.9,0-3.2,1.4-3.2,3.4c0,2.1,2,3.3,4.3,4.3c4,1.6,6.7,3.4,6.7,7.1
			c0,4.8-4.4,7.2-8.8,7.2c-2.7,0-5.2-0.9-6-1.7c-0.4-0.7-0.8-4.3-0.9-6.3l1.4-0.2c1,3.4,3.3,6.5,6.4,6.5c1.9,0,3.6-1.4,3.6-3.5
			c0-2.1-1.4-3.3-4-4.5c-3-1.4-6.6-3.1-6.6-7.2c0-3.7,3.2-6.8,8.1-6.8c2.2,0,3.7,0.5,4.7,0.9c0.5,1.1,1.1,4.3,1.2,5.5L-434-88z"/>
		<path class="st0" d="M-429.5-71.9v-1.4c3.3-0.4,3.7-0.7,3.7-4.1v-24.1c0-3.5-0.4-3.6-3.6-3.9v-1.3c2.8-0.3,6.2-1.2,8.1-1.8v31.1
			c0,3.5,0.5,3.8,3.9,4.1v1.4H-429.5z"/>
		<path class="st0" d="M-395.8-76.4c-3.4,4.3-7.1,5.2-8.8,5.2c-6.4,0-10.2-5.2-10.2-10.9c0-3.4,1.2-6.5,3.3-8.8
			c2.2-2.5,5.1-3.9,7.9-3.9h0c4.5,0,8,3.8,8,7.9c0,1-0.3,1.4-1.2,1.7c-0.9,0.1-7.5,0.7-13.5,0.9c0.1,6.6,4,9.5,7.6,9.5
			c2.1,0,4.1-0.8,6-2.6L-395.8-76.4z M-404.8-93c-2.2,0-4.5,2-5.2,6.3c2.8,0,5.6,0,8.5-0.1c0.9,0,1.2-0.3,1.2-1
			C-400.4-90.5-402.1-93-404.8-93L-404.8-93z"/>
		<path class="st0" d="M-382-72c-0.9,0.5-1.8,0.7-2.2,0.7c-3.5,0-5.4-2-5.4-6.1v-14.8h-3.6l-0.2-0.6l1.4-1.5h2.4V-98l3.8-3.6
			l0.7,0.1v7.2h5.8c0.5,0.6,0.4,1.7-0.4,2.1h-5.5v13c0,4.1,1.8,4.9,3.1,4.9c1.2,0,2.4-0.5,3.2-0.9l0.5,1.4L-382-72z"/>
		<path class="st0" d="M-365.7-72c-0.9,0.5-1.8,0.7-2.2,0.7c-3.5,0-5.4-2-5.4-6.1v-14.8h-3.6l-0.2-0.6l1.4-1.5h2.4V-98l3.8-3.6
			l0.7,0.1v7.2h5.8c0.5,0.6,0.4,1.7-0.4,2.1h-5.5v13c0,4.1,1.8,4.9,3.1,4.9c1.2,0,2.4-0.5,3.2-0.9l0.5,1.4L-365.7-72z"/>
		<path class="st0" d="M-340.8-76.4c-3.4,4.3-7.1,5.2-8.8,5.2c-6.4,0-10.2-5.2-10.2-10.9c0-3.4,1.2-6.5,3.3-8.8
			c2.2-2.5,5.1-3.9,7.9-3.9h0c4.5,0,8,3.8,8,7.9c0,1-0.3,1.4-1.2,1.7c-0.9,0.1-7.5,0.7-13.5,0.9c0.1,6.6,4,9.5,7.6,9.5
			c2.1,0,4.1-0.8,6-2.6L-340.8-76.4z M-349.8-93c-2.2,0-4.5,2-5.2,6.3c2.8,0,5.6,0,8.5-0.1c0.9,0,1.2-0.3,1.2-1
			C-345.4-90.5-347.1-93-349.8-93L-349.8-93z"/>
		<path class="st0" d="M-329.3-89.3c1.7-2.8,3.9-5.6,6.3-5.6c1.9,0,3.2,1.4,3.2,2.6c0,1.2-0.7,2.2-1.8,2.8c-0.6,0.2-1.1,0.1-1.4-0.1
			c-0.8-0.7-1.4-1.1-2.3-1.1c-1.3,0-2.9,1.5-4,4.3v9.2c0,3.4,0.2,3.7,4.3,4v1.4h-12.5v-1.4c3.2-0.3,3.6-0.6,3.6-4v-10.7
			c0-3.3-0.3-3.5-3.2-3.9V-93c2.6-0.4,5.1-1,7.7-2.1v5.7H-329.3z"/>
		<path class="st0" d="M-299.4-93c1.8,0,3,1.3,3,3.1c0,1.8-1.3,3.1-3.1,3.1c-1.8,0-3-1.3-3-3.1C-302.5-91.7-301.2-93-299.4-93
			L-299.4-93z M-299.4-71.3c-1.8,0-3-1.2-3-3.1c0-1.8,1.3-3.1,3.1-3.1s3.1,1.3,3.1,3.1C-296.3-72.5-297.6-71.3-299.4-71.3
			L-299.4-71.3z"/>
		<path class="st0" d="M-268.3-91.2c1.2-0.5,2.2-0.9,3.2-0.9c5.7,0,9.6,4.1,9.6,9.5c0,6.1-4.6,11.3-10.9,11.3c-6.3,0-11-5-11-12.8
			c0-11.2,8.1-17,13.7-18.9c2.1-0.7,4.9-1.3,6.9-1.7l0.4,1.7c-1.7,0.3-3.8,0.9-5.7,1.8c-3.1,1.4-8,4.7-9.6,11.7L-268.3-91.2z
			 M-267.3-89c-1.9,0-3.5,0.7-4.7,1.3c-0.2,0.9-0.3,2.4-0.3,3.6c0,6.2,2.7,11.1,6.8,11.1c4,0,5.2-4.3,5.2-7.6
			C-260.4-85-262.7-89-267.3-89L-267.3-89z"/>
		<path class="st0" d="M-230.5-79c-0.7,2.4-1.3,4.8-1.9,7.1h-19.8v-1.2c2.9-2.8,5.9-5.7,8.4-8.6c3.2-3.7,6.5-7.9,6.5-12.2
			c0-4.2-2.2-6.7-6-6.7c-3.6,0-5.8,2.8-7.2,4.9l-1.2-1.1l3.1-4.4c1.7-1.7,4.1-3.1,7.1-3.1c4.8,0,9,3.3,9,8.8c0,4.4-1.9,7.3-7,12.4
			l-7.2,7.2h9.5c2.9,0,3.5-0.1,5.2-3.5L-230.5-79z"/>
		<path class="st0" d="M-215.8-104.4c7.9,0,10.8,8.6,10.8,16.6c0,7.5-2.8,16.6-10.8,16.6s-10.9-8.4-10.9-16.5
			C-226.7-95.3-223.8-104.4-215.8-104.4L-215.8-104.4z M-215.9-102.6c-4.6,0-5.7,7.6-5.7,14.7c0,7.1,1.4,14.8,5.8,14.8
			c4.5,0,5.7-7.7,5.7-14.8C-210.1-95.1-211.4-102.6-215.9-102.6L-215.9-102.6z"/>
		<path class="st0" d="M-175.5-71.9v-1.4c2.2-0.3,2.6-0.7,1.8-2.1l-3.8-5.8c-1.2,1.8-2.4,3.7-3.3,5.2c-1,1.7-0.9,2.2,1.7,2.7v1.4
			h-9.8v-1.4c3.2-0.5,3.8-0.9,5.9-3.3c1.5-1.8,2.9-3.8,4.5-6l-4.6-7c-1.6-2.5-2.2-2.9-5.1-3.3v-1.4h10.9v1.4
			c-2.2,0.3-2.4,0.8-1.4,2.2l3,4.6c1.1-1.6,2.1-3.1,3-4.7c0.9-1.5,0.6-1.8-1.7-2.1v-1.4h9.7v1.4c-3.2,0.4-3.9,0.6-5.8,2.7
			c-1.1,1.2-2.3,3-4.1,5.4l5.2,7.7c1.9,2.8,2.6,3.3,5.7,3.8v1.4H-175.5z"/>
		<path class="st0" d="M-126.7-79c-0.7,2.4-1.3,4.8-1.9,7.1h-19.8v-1.2c2.9-2.8,5.9-5.7,8.4-8.6c3.2-3.7,6.5-7.9,6.5-12.2
			c0-4.2-2.2-6.7-6-6.7c-3.6,0-5.8,2.8-7.2,4.9L-148-97l3.1-4.4c1.7-1.7,4.1-3.1,7.1-3.1c4.8,0,9,3.3,9,8.8c0,4.4-1.9,7.3-7,12.4
			L-143-76h9.5c2.9,0,3.5-0.1,5.2-3.5L-126.7-79z"/>
		<path class="st0" d="M-100.6-103.2c-5,10.4-9.9,20.8-14.9,31.3l-4.1,0.6l-0.4-0.6c5.7-8.6,11.5-19.2,15.8-27.8h-11.4
			c-3.5,0-3.8,0.5-5.2,3.8h-1.5c0.5-3.1,0.8-5.7,1.1-7.9h20.4L-100.6-103.2z"/>
		<path class="st0" d="M-86.6-104.4c7.9,0,10.8,8.6,10.8,16.6c0,7.5-2.8,16.6-10.8,16.6s-10.9-8.4-10.9-16.5
			C-97.6-95.3-94.7-104.4-86.6-104.4L-86.6-104.4z M-86.7-102.6c-4.6,0-5.7,7.6-5.7,14.7c0,7.1,1.4,14.8,5.8,14.8
			c4.5,0,5.7-7.7,5.7-14.8C-81-95.1-82.2-102.6-86.7-102.6L-86.7-102.6z"/>
	</g>
	<g>
		<defs>
			<rect id="SVGID_3_" x="-686.7" y="1.7" width="617.6" height="270.5"/>
		</defs>
		<clipPath id="SVGID_4_">
			<use xlink:href="#SVGID_3_"  style="overflow:visible;"/>
		</clipPath>
		<rect x="-686.7" y="1.7" class="st13" width="617.6" height="270.5"/>
		<g class="st14">
			
				<image style="overflow:visible;" width="4912" height="4129" xlink:href="../../../../../../../Desktop/NEW IFIKRA/ETIHAD EDM 1.jpg"  transform="matrix(7.397958e-02 0 0 7.397958e-02 -432.5415 -33.3156)">
			</image>
		</g>
		<g class="st14">
			<g>
				<text transform="matrix(0.9832 0 0 1 -527.0597 196.8783)" class="st3 st16" style="font-size:178.4988px;">I</text>
				<line class="st4" x1="-665.2" y1="201.8" x2="-382.3" y2="201.8"/>
				<polygon class="st15" points="-602,196.9 -582.1,196.8 -539,131.8 -539,196.8 -522.5,196.8 -522.5,106.9 -522.5,101.9 
					-522.5,77 				"/>
				<g>
					<path class="st6" d="M-664.1,194.6v-11.8h8.3l-0.7,2.4h-4.7v2.2h3.4v2.3h-3.4v2.5h4.7l0.7,2.4H-664.1z"/>
					<path class="st6" d="M-651.7,194.6v-9.3h-3.3v-2.5h9.7l-0.7,2.5h-2.8v9.3H-651.7z"/>
					<path class="st6" d="M-644.1,194.6v-11.8h2.9v11.8H-644.1z"/>
					<path class="st6" d="M-638.9,194.6v-11.8h2.9v11.8H-638.9z M-631.7,194.6v-4.8h-2.9l-1.4-2.5h4.3v-4.5h2.9v11.8H-631.7z"/>
					<path class="st6" d="M-627.6,194.6l4.8-11.8h2c1.9,4.6,3.5,8.5,4.8,11.8h-3l-0.8-2.1h-2.7l-0.8-2l-1.6,4.2H-627.6z
						 M-622.2,187.8l-1,2.7h2.7l-1-2.7l-0.3-1L-622.2,187.8z"/>
					<path class="st6" d="M-614.7,194.6v-11.8h3.8c2.1,0,3.7,0.5,4.8,1.4s1.6,2.4,1.6,4.5c0,1.1-0.2,2-0.5,2.8s-0.8,1.4-1.4,1.9
						c-0.6,0.5-1.3,0.8-2,1s-1.6,0.3-2.5,0.3H-614.7z M-611.8,192.2h0.9c1.3,0,2.2-0.3,2.7-0.8c0.5-0.5,0.8-1.4,0.8-2.7
						c0-1.2-0.3-2.1-0.8-2.7c-0.5-0.6-1.4-0.8-2.7-0.8h-0.9V192.2z"/>
				</g>
				<g>
					<g>
						<path class="st6" d="M-470.8,74c0.5,0,1,0,1.5,0.1c0.2,0,0.4,0,0.5,0.1c0.3,0,0.6,0.1,0.9,0.1c0.2,0,0.4,0.1,0.6,0.1
							c0.3,0.1,0.5,0.1,0.8,0.2c0.2,0.1,0.4,0.1,0.6,0.2c0.3,0.1,0.5,0.2,0.8,0.3c0.2,0.1,0.4,0.2,0.6,0.3c0.3,0.1,0.5,0.2,0.8,0.4
							c0.2,0.1,0.4,0.2,0.5,0.3c0.3,0.2,0.6,0.3,0.9,0.5c0.1,0.1,0.2,0.1,0.4,0.2c0.8,0.6,1.6,1.2,2.3,1.9c0,0,0,0,0.1,0.1
							c0.3,0.3,0.6,0.7,0.9,1c0.1,0.1,0.1,0.1,0.2,0.2c0.3,0.3,0.5,0.6,0.7,1c0.1,0.1,0.1,0.2,0.2,0.3c0.2,0.3,0.4,0.7,0.6,1
							c0.1,0.1,0.1,0.2,0.2,0.3c0.2,0.3,0.3,0.7,0.5,1c0.1,0.1,0.1,0.2,0.2,0.4c0.1,0.3,0.3,0.7,0.4,1c0,0.1,0.1,0.3,0.1,0.4
							c0.1,0.4,0.2,0.7,0.3,1.1c0,0.1,0.1,0.2,0.1,0.4c0.9,4.4-0.1,9.1-2.9,12.7c-0.6,0.8-0.4,1.9,0.4,2.5s1.9,0.4,2.5-0.3
							c2.5-3.4,3.9-7.5,3.9-11.7c0-0.3,0-0.7-0.1-1c5.3,1.8,8.9,6.9,8.9,12.5c0,0.7-0.1,1.5-0.2,2.2c0,0.1,0,0.1-0.1,0.2
							c-0.4,2.1-1.2,4-2.5,5.7c0,0,0,0,0,0.1c-1.7,2.2-4,3.7-6.6,4.5c-0.9,0.3-1.5,1.3-1.2,2.2s1.3,1.5,2.2,1.2
							c2.7-0.8,5.2-2.4,7.2-4.4c3,2.7,4.7,6.5,4.7,10.5c0,0.6,0,1.2-0.1,1.8c0,0.2-0.1,0.4-0.1,0.6c-0.1,0.4-0.2,0.8-0.3,1.2
							c-0.1,0.2-0.1,0.4-0.2,0.6c-0.1,0.5-0.3,1-0.5,1.4c-0.1,0.3-0.3,0.5-0.4,0.8c-0.1,0.2-0.2,0.4-0.3,0.6
							c-0.2,0.3-0.3,0.6-0.5,0.8c-0.1,0.2-0.2,0.3-0.3,0.5c-0.3,0.5-0.7,0.9-1.1,1.4c-0.2,0.2-0.3,0.3-0.5,0.5
							c-0.2,0.2-0.4,0.4-0.7,0.6c-0.3,0.2-0.5,0.4-0.8,0.6c-0.2,0.2-0.4,0.3-0.6,0.5c-0.4,0.3-0.8,0.5-1.3,0.7c-2,1-4.2,1.6-6.5,1.6
							c-1,0-1.8,0.8-1.8,1.8s0.8,1.8,1.8,1.8c2.1,0,4.2-0.4,6.2-1.1c0.6,1.5,0.9,3.1,0.9,4.7c0,5.6-3.8,10.5-9.2,11.9
							c-5.4,1.4-11.1-0.9-13.9-5.8c-0.3-0.5-0.9-0.9-1.5-0.9s-1.2,0.3-1.5,0.9c-0.3,0.5-0.3,1.2,0,1.8c2.5,4.3,7,7.2,12,7.8
							c-0.4,7.2-6.4,12.7-13.6,12.5c-7.2-0.2-12.9-6.1-12.9-13.2v-10.9l7.7-10.7l6.5,2.8c0,0.1,0,0.2,0,0.3c0,2.6,1.8,4.8,4.3,5.3
							c2.5,0.5,5.1-0.9,6-3.3c0.9-2.4,0-5.1-2.2-6.5c-2.2-1.4-5.1-0.9-6.8,1l-6.4-2.8c-0.4-0.2-0.9-0.3-1.4-0.3
							c-1.1,0-2.2,0.5-2.9,1.5l-4.8,6.7v-13.9h14.5c0.9,2.4,3.4,3.9,5.9,3.5c2.5-0.4,4.4-2.6,4.4-5.2c0-2.6-1.9-4.8-4.4-5.2
							c-2.5-0.4-5,1-5.9,3.5h-14.5v-7.1h3.9c0.9,2.4,3.4,3.9,5.9,3.5c2.5-0.4,4.4-2.6,4.4-5.2s-1.9-4.8-4.4-5.2
							c-2.5-0.4-5,1-5.9,3.5h-3.9v-7.1h14.5c1.7,0,3.1-1.2,3.5-2.8l1.2-6.2c2.4-0.7,4-3.1,3.7-5.7c-0.3-2.5-2.4-4.5-5-4.6
							s-4.8,1.6-5.4,4.1c-0.6,2.5,0.7,5,3.1,6l-1.1,5.7h-14.5V89.9C-486.7,81.1-479.6,74-470.8,74z M-469.1,141.1
							c0-1,0.8-1.8,1.8-1.8s1.8,0.8,1.8,1.8s-0.8,1.8-1.8,1.8C-468.3,142.8-469.1,142.1-469.1,141.1z M-469.1,126.9
							c0-1,0.8-1.8,1.8-1.8s1.8,0.8,1.8,1.8c0,1-0.8,1.8-1.8,1.8C-468.3,128.7-469.1,127.9-469.1,126.9z M-479.7,116.4
							c0-1,0.8-1.8,1.8-1.8s1.8,0.8,1.8,1.8c0,1-0.8,1.8-1.8,1.8C-478.9,118.1-479.7,117.3-479.7,116.4z M-470.8,93.4
							c0-1,0.8-1.8,1.8-1.8s1.8,0.8,1.8,1.8c0,1-0.8,1.8-1.8,1.8C-470,95.2-470.8,94.4-470.8,93.4z M-490.3,135.6v8.9v3.5v11.6
							c0,5.1,2.3,9.8,6.2,13l5.1,2.8c5,1.8,10.5,1,14.9-1.9c4.4-3,7.1-7.8,7.4-13.1c0.4,0,0.8-0.1,1.2-0.2c0.1,0,0.2,0,0.2,0
							c0.5-0.1,1-0.2,1.5-0.4c0.2,0,0.3-0.1,0.4-0.2c0.3-0.1,0.7-0.2,1-0.4c0.2-0.1,0.4-0.2,0.5-0.2c0.3-0.1,0.6-0.3,0.8-0.4
							c0.2-0.1,0.4-0.2,0.5-0.3c0.2-0.1,0.5-0.3,0.7-0.4c0.2-0.1,0.3-0.2,0.5-0.4c0.2-0.2,0.5-0.3,0.7-0.5c0.2-0.1,0.3-0.3,0.5-0.4
							c0.2-0.2,0.4-0.4,0.6-0.6c0.2-0.2,0.3-0.3,0.5-0.5c0.2-0.2,0.4-0.4,0.6-0.6c0.1-0.2,0.3-0.3,0.4-0.5c0.2-0.2,0.3-0.4,0.5-0.7
							c0.1-0.2,0.3-0.4,0.4-0.5c0.2-0.2,0.3-0.5,0.4-0.7c0.1-0.2,0.2-0.4,0.3-0.6c0.1-0.3,0.3-0.5,0.4-0.8c0.1-0.2,0.2-0.4,0.3-0.6
							c0.1-0.3,0.2-0.5,0.3-0.8c0.1-0.2,0.1-0.4,0.2-0.6c0.1-0.3,0.2-0.6,0.2-0.9c0-0.2,0.1-0.4,0.1-0.6c0.1-0.3,0.1-0.7,0.2-1
							c0-0.2,0.1-0.3,0.1-0.5c0.1-0.5,0.1-1,0.1-1.6c0-2.1-0.4-4.2-1.3-6.2c0.1-0.1,0.2-0.2,0.3-0.2c0.3-0.2,0.6-0.4,0.8-0.6
							c0.6-0.5,1.2-1,1.8-1.5c0.1-0.1,0.1-0.1,0.2-0.2c0.3-0.3,0.6-0.7,0.9-1c0.1-0.1,0.2-0.2,0.3-0.4c0.3-0.4,0.6-0.7,0.8-1.1
							c0.1-0.1,0.1-0.2,0.2-0.3c0.8-1.2,1.4-2.4,1.9-3.8c0.1-0.3,0.2-0.6,0.3-0.9c0.1-0.3,0.2-0.6,0.2-0.9c0.1-0.4,0.2-0.8,0.2-1.2
							c0-0.2,0.1-0.5,0.1-0.7c0-0.2,0-0.4,0.1-0.6c0,0,0-0.1,0-0.1c0-0.4,0-0.9,0-1.3c0-5.1-2.2-9.9-6-13.3c0.8-1.3,1.4-2.7,1.8-4.1
							c0-0.1,0-0.2,0.1-0.2c0.2-0.7,0.3-1.3,0.4-2c0-0.1,0-0.2,0-0.3c0.1-0.7,0.1-1.4,0.1-2.1c0-7.8-5.4-14.6-13-16.4
							c-0.1-0.2-0.1-0.4-0.2-0.6c-0.1-0.2-0.1-0.4-0.2-0.6c-0.1-0.4-0.3-0.8-0.5-1.3c-0.1-0.1-0.1-0.3-0.2-0.4
							c-0.7-1.7-1.7-3.2-2.8-4.6c-0.1-0.1-0.1-0.2-0.2-0.3c-0.3-0.4-0.6-0.7-1-1.1c-0.1-0.1-0.2-0.2-0.3-0.3c-0.3-0.3-0.6-0.6-1-0.9
							c-0.1-0.1-0.3-0.2-0.4-0.3c-0.3-0.3-0.7-0.5-1-0.8c-0.1-0.1-0.3-0.2-0.4-0.3c-0.5-0.3-1-0.6-1.5-0.9c-0.1-0.1-0.2-0.1-0.3-0.1
							c-0.4-0.2-0.8-0.4-1.3-0.6c-0.2-0.1-0.4-0.2-0.7-0.3c-0.3-0.1-0.7-0.3-1-0.4c-0.2-0.1-0.5-0.2-0.7-0.2c-0.3-0.1-0.7-0.2-1-0.3
							c-0.2-0.1-0.5-0.1-0.7-0.2c-0.4-0.1-0.8-0.1-1.2-0.2c-0.2,0-0.4-0.1-0.6-0.1c-0.6-0.1-1.2-0.1-1.8-0.1c-2.6,0-5.1,0.5-7.4,1.5
							l-4.2,2.4c-4.9,3.7-7.8,9.4-7.8,15.5v8.9v3.5v8.9V135.6z M-490.3,114.8v17.3"/>
					</g>
				</g>
				<g>
					<path class="st6" d="M-495.6,196.9l6.9-16.9h2.9c2.7,6.5,4.9,12.2,6.8,16.9h-4.3l-1.2-3h-3.9l-1.1-2.9l-2.2,5.9H-495.6z
						 M-488,187.1l-1.4,3.8h3.8l-1.4-3.8l-0.5-1.4L-488,187.1z"/>
					<path class="st6" d="M-469.7,197.3c-2.6,0-4.7-0.8-6.1-2.3c-1.5-1.5-2.2-3.7-2.2-6.6c0-2.8,0.8-5,2.3-6.5
						c1.6-1.5,3.5-2.3,5.9-2.3c2.2,0,3.8,0.4,4.9,1.3v4.2c-1-1.2-2.5-1.9-4.4-1.9c-1.5,0-2.6,0.4-3.4,1.3c-0.8,0.9-1.2,2.2-1.2,3.8
						c0,1.7,0.4,3,1.2,4s1.9,1.4,3.4,1.4c1.9,0,3.4-0.6,4.4-1.7v3.8c-0.5,0.4-1.1,0.8-2,1.1C-467.7,197.1-468.7,197.3-469.7,197.3z"
						/>
					<path class="st6" d="M-463.8,196.9l6.9-16.9h2.9c2.7,6.5,4.9,12.2,6.8,16.9h-4.3l-1.2-3h-3.9l-1.1-2.9l-2.2,5.9H-463.8z
						 M-456.1,187.1l-1.4,3.8h3.8l-1.4-3.8l-0.5-1.4L-456.1,187.1z"/>
					<path class="st6" d="M-445.4,196.9V180h5.5c3.1,0,5.3,0.7,6.9,2c1.5,1.3,2.3,3.4,2.3,6.4c0,1.5-0.2,2.8-0.7,4
						c-0.5,1.1-1.1,2-2,2.7c-0.9,0.6-1.8,1.1-2.9,1.4c-1.1,0.3-2.3,0.5-3.6,0.5H-445.4z M-441.3,193.4h1.3c1.8,0,3.1-0.4,3.8-1.1
						c0.7-0.8,1.1-2,1.1-3.8c0-1.8-0.4-3.1-1.1-3.9c-0.7-0.8-2-1.2-3.8-1.2h-1.3V193.4z"/>
					<path class="st6" d="M-428.2,196.9V180h11.9l-1.1,3.4h-6.7v3.2h4.9v3.3h-4.9v3.6h6.7l1.1,3.4H-428.2z"/>
					<path class="st6" d="M-414,196.9V180h3.7l5.2,7.3l4.9-7.3h3.7v16.9h-4.2v-10.5l-4.4,6.5h-0.2l-4.5-6.5v10.5H-414z"/>
					<path class="st6" d="M-389.3,196.9V190L-395,180h4.7l3.3,6.4l3.4-6.4h4.2l-5.7,10.1v6.9H-389.3z"/>
				</g>
				<g>
					<path class="st7" d="M-500.9,221.2v-5.2h0.7l0.1,0.4c0.1-0.1,0.2-0.3,0.4-0.4c0.2-0.1,0.4-0.1,0.7-0.1c1.1,0,1.6,0.6,1.6,1.9
						c0,0.7-0.2,1.2-0.5,1.6c-0.3,0.4-0.7,0.6-1.3,0.6c-0.5,0-0.8-0.1-0.9-0.3v1.5H-500.9z M-499.3,219.5c0.4,0,0.6-0.1,0.8-0.4
						c0.2-0.3,0.3-0.6,0.3-1.1c0-0.9-0.3-1.4-1-1.4c-0.2,0-0.4,0-0.6,0.1s-0.3,0.2-0.3,0.3v2.1C-500,219.3-499.7,219.5-499.3,219.5z
						"/>
					<path class="st7" d="M-495.1,220c-0.6,0-1-0.2-1.3-0.5c-0.3-0.3-0.5-0.8-0.5-1.5c0-0.7,0.2-1.2,0.5-1.5
						c0.4-0.3,0.8-0.5,1.3-0.5c0.6,0,1,0.2,1.3,0.5c0.3,0.3,0.5,0.8,0.5,1.5c0,0.7-0.2,1.2-0.5,1.5
						C-494.1,219.8-494.5,220-495.1,220z M-495.1,219.4c0.4,0,0.6-0.1,0.8-0.4s0.3-0.6,0.3-1.1c0-0.5-0.1-0.8-0.3-1.1
						s-0.5-0.4-0.8-0.4s-0.6,0.1-0.8,0.4s-0.3,0.6-0.3,1.1c0,0.5,0.1,0.8,0.3,1.1C-495.7,219.3-495.4,219.4-495.1,219.4z"/>
					<path class="st7" d="M-491.7,219.9l-1.1-3.8h0.7l0.7,2.6l0.9-2.6h0.3l1,2.6l0.7-2.6h0.7l-1,3.8h-0.4l-1-2.6l-1,2.6H-491.7z"/>
					<path class="st7" d="M-485.4,220c-0.6,0-1.1-0.2-1.4-0.5s-0.5-0.8-0.5-1.5c0-0.7,0.2-1.2,0.5-1.5c0.4-0.3,0.8-0.5,1.3-0.5
						c0.2,0,0.4,0,0.6,0.1c0.2,0.1,0.4,0.1,0.5,0.3c0.2,0.1,0.3,0.3,0.4,0.6c0.1,0.2,0.1,0.5,0.1,0.9v0.5h-2.7
						c0,0.4,0.1,0.7,0.3,0.9c0.2,0.2,0.5,0.3,0.9,0.3c0.6,0,1-0.2,1.3-0.5v0.6C-484.4,219.9-484.8,220-485.4,220z M-486.6,217.7h2
						v-0.1c0-0.7-0.3-1.1-1-1.1c-0.3,0-0.5,0.1-0.7,0.3C-486.5,217.1-486.6,217.4-486.6,217.7z"/>
					<path class="st7" d="M-483.1,219.9v-3.8h0.6l0.1,0.6c0-0.2,0.1-0.4,0.3-0.5c0.2-0.1,0.3-0.2,0.6-0.2c0.2,0,0.3,0,0.4,0.1v0.6
						c-0.1-0.1-0.3-0.1-0.5-0.1c-0.2,0-0.3,0-0.4,0.1c-0.1,0.1-0.2,0.2-0.3,0.4v2.8H-483.1z"/>
					<path class="st7" d="M-478.9,220c-0.6,0-1.1-0.2-1.4-0.5s-0.5-0.8-0.5-1.5c0-0.7,0.2-1.2,0.5-1.5c0.4-0.3,0.8-0.5,1.3-0.5
						c0.2,0,0.4,0,0.6,0.1c0.2,0.1,0.4,0.1,0.5,0.3c0.2,0.1,0.3,0.3,0.4,0.6c0.1,0.2,0.1,0.5,0.1,0.9v0.5h-2.7
						c0,0.4,0.1,0.7,0.3,0.9c0.2,0.2,0.5,0.3,0.9,0.3c0.6,0,1-0.2,1.3-0.5v0.6C-477.8,219.9-478.3,220-478.9,220z M-480,217.7h2
						v-0.1c0-0.7-0.3-1.1-1-1.1c-0.3,0-0.5,0.1-0.7,0.3C-479.9,217.1-480,217.4-480,217.7z"/>
					<path class="st7" d="M-475.1,220c-0.5,0-0.9-0.2-1.2-0.5c-0.3-0.3-0.4-0.8-0.4-1.5c0-0.7,0.2-1.2,0.5-1.5s0.7-0.5,1.3-0.5
						c0.5,0,0.8,0.1,0.9,0.3v-1.6h0.7v5.2h-0.7l-0.1-0.4c-0.1,0.1-0.2,0.3-0.4,0.3C-474.6,220-474.9,220-475.1,220z M-474.1,219
						v-2.1c-0.1-0.2-0.4-0.3-0.9-0.3c-0.4,0-0.6,0.1-0.8,0.4c-0.2,0.3-0.3,0.6-0.3,1.1c0,0.9,0.3,1.4,1,1.4c0.2,0,0.4,0,0.6-0.1
						C-474.2,219.2-474.1,219.1-474.1,219z"/>
					<path class="st7" d="M-468.9,220c-0.5,0-0.8-0.1-1-0.4l-0.1,0.3h-0.5v-5.2h0.7v1.8c0.1-0.1,0.2-0.3,0.4-0.4
						c0.2-0.1,0.4-0.1,0.7-0.1c1.1,0,1.6,0.6,1.6,1.9c0,0.7-0.2,1.2-0.5,1.6C-468,219.8-468.4,220-468.9,220z M-469.9,217v2.1
						c0.1,0.2,0.4,0.4,0.9,0.4c0.4,0,0.6-0.1,0.8-0.4c0.2-0.3,0.3-0.6,0.3-1.1c0-0.9-0.3-1.4-1-1.4c-0.2,0-0.4,0-0.6,0.1
						C-469.7,216.7-469.8,216.8-469.9,217z"/>
					<path class="st7" d="M-466.1,221.4c-0.3,0-0.5-0.1-0.7-0.2v-0.6c0.2,0.2,0.4,0.3,0.6,0.3c0.4,0,0.7-0.3,0.9-0.8l-1.6-3.9h0.8
						l1.1,3l0.9-3h0.7l-1.1,3.6c-0.2,0.5-0.4,0.9-0.6,1.2C-465.3,221.2-465.7,221.4-466.1,221.4z"/>
				</g>
				<g>
					<path class="st8" d="M-429.1,213.1v9.4h-1.6v-7.4h0l-2.9,7.4h-1.1l-3-7.4h0v7.4h-1.5v-9.4h2.3l2.7,7h0l2.9-7H-429.1z
						 M-427.8,213.8c0-0.3,0.1-0.5,0.3-0.7c0.2-0.2,0.4-0.3,0.7-0.3c0.3,0,0.5,0.1,0.7,0.3c0.2,0.2,0.3,0.4,0.3,0.7
						c0,0.3-0.1,0.5-0.3,0.6c-0.2,0.2-0.4,0.3-0.7,0.3s-0.5-0.1-0.7-0.3C-427.7,214.3-427.8,214-427.8,213.8z M-426,215.7v6.7h-1.6
						v-6.7H-426z M-421.2,221.3c0.2,0,0.5-0.1,0.8-0.2c0.3-0.1,0.5-0.3,0.8-0.4v1.5c-0.3,0.1-0.5,0.3-0.9,0.3
						c-0.3,0.1-0.7,0.1-1.1,0.1c-1,0-1.8-0.3-2.4-0.9c-0.6-0.6-0.9-1.4-0.9-2.4c0-1.1,0.3-2,1-2.7c0.6-0.7,1.5-1.1,2.7-1.1
						c0.3,0,0.6,0,0.9,0.1c0.3,0.1,0.5,0.2,0.7,0.3v1.5c-0.2-0.2-0.5-0.3-0.8-0.4c-0.3-0.1-0.5-0.1-0.8-0.1c-0.6,0-1.1,0.2-1.5,0.6
						c-0.4,0.4-0.6,1-0.6,1.6c0,0.7,0.2,1.2,0.6,1.6C-422.4,221.1-421.8,221.3-421.2,221.3z M-415.1,215.6c0.1,0,0.2,0,0.3,0
						c0.1,0,0.2,0,0.3,0.1v1.6c-0.1-0.1-0.2-0.1-0.4-0.2c-0.2-0.1-0.4-0.1-0.6-0.1c-0.4,0-0.7,0.2-1,0.5c-0.3,0.3-0.4,0.8-0.4,1.5
						v3.4h-1.6v-6.7h1.6v1.1h0c0.1-0.4,0.4-0.7,0.7-0.9C-415.9,215.7-415.5,215.6-415.1,215.6z M-414.5,219.2c0-1.1,0.3-2,0.9-2.6
						c0.6-0.7,1.5-1,2.6-1c1.1,0,1.9,0.3,2.5,0.9c0.6,0.6,0.9,1.5,0.9,2.5c0,1.1-0.3,2-0.9,2.6c-0.6,0.6-1.5,1-2.6,1
						c-1,0-1.9-0.3-2.5-0.9C-414.1,221.1-414.5,220.3-414.5,219.2z M-412.8,219.1c0,0.7,0.2,1.2,0.5,1.6c0.3,0.4,0.8,0.6,1.4,0.6
						c0.6,0,1-0.2,1.3-0.6c0.3-0.4,0.5-0.9,0.5-1.7c0-0.7-0.2-1.3-0.5-1.6c-0.3-0.4-0.8-0.6-1.3-0.6c-0.6,0-1,0.2-1.4,0.6
						C-412.6,217.9-412.8,218.4-412.8,219.1z M-405.2,217.5c0,0.2,0.1,0.4,0.2,0.5c0.1,0.1,0.5,0.3,1,0.5c0.6,0.3,1.1,0.5,1.3,0.9
						c0.3,0.3,0.4,0.7,0.4,1.1c0,0.6-0.2,1.1-0.7,1.5c-0.5,0.4-1.1,0.6-2,0.6c-0.3,0-0.6,0-0.9-0.1c-0.3-0.1-0.6-0.2-0.9-0.3v-1.6
						c0.3,0.2,0.6,0.4,0.9,0.5c0.3,0.1,0.6,0.2,0.9,0.2c0.4,0,0.6-0.1,0.8-0.2c0.2-0.1,0.3-0.3,0.3-0.5c0-0.2-0.1-0.4-0.3-0.6
						c-0.2-0.2-0.5-0.3-1-0.5c-0.6-0.2-1-0.5-1.2-0.8c-0.2-0.3-0.4-0.7-0.4-1.2c0-0.6,0.2-1.1,0.7-1.5c0.5-0.4,1.1-0.6,1.9-0.6
						c0.2,0,0.5,0,0.8,0.1c0.3,0.1,0.5,0.1,0.7,0.2v1.5c-0.2-0.1-0.5-0.3-0.7-0.4c-0.3-0.1-0.6-0.2-0.8-0.2c-0.3,0-0.5,0.1-0.7,0.2
						C-405.1,217.1-405.2,217.3-405.2,217.5z M-401.6,219.2c0-1.1,0.3-2,0.9-2.6c0.6-0.7,1.5-1,2.6-1c1.1,0,1.9,0.3,2.5,0.9
						c0.6,0.6,0.9,1.5,0.9,2.5c0,1.1-0.3,2-0.9,2.6c-0.6,0.6-1.5,1-2.6,1c-1,0-1.9-0.3-2.5-0.9
						C-401.3,221.1-401.6,220.3-401.6,219.2z M-400,219.1c0,0.7,0.2,1.2,0.5,1.6c0.3,0.4,0.8,0.6,1.4,0.6c0.6,0,1-0.2,1.3-0.6
						c0.3-0.4,0.5-0.9,0.5-1.7c0-0.7-0.2-1.3-0.5-1.6c-0.3-0.4-0.8-0.6-1.3-0.6c-0.6,0-1,0.2-1.4,0.6
						C-399.8,217.9-400,218.4-400,219.1z M-389.4,217h-2.4v5.4h-1.6V217h-1.1v-1.3h1.1v-0.9c0-0.7,0.2-1.3,0.7-1.7
						c0.5-0.5,1.1-0.7,1.8-0.7c0.2,0,0.4,0,0.5,0c0.1,0,0.3,0,0.4,0.1v1.4c-0.1,0-0.1-0.1-0.3-0.1c-0.1,0-0.3-0.1-0.5-0.1
						c-0.3,0-0.6,0.1-0.8,0.3c-0.2,0.2-0.3,0.5-0.3,0.9v0.8h2.4v-1.5l1.6-0.5v2h1.6v1.3h-1.6v3.2c0,0.4,0.1,0.7,0.2,0.9
						c0.2,0.2,0.4,0.3,0.7,0.3c0.1,0,0.2,0,0.3-0.1c0.1,0,0.2-0.1,0.3-0.2v1.3c-0.1,0.1-0.3,0.1-0.5,0.2c-0.2,0-0.5,0.1-0.7,0.1
						c-0.7,0-1.2-0.2-1.5-0.5c-0.3-0.4-0.5-0.9-0.5-1.6V217z"/>
					<g>
						<rect x="-459.7" y="209.9" class="st9" width="7.4" height="7.4"/>
						<rect x="-451.4" y="209.9" class="st10" width="7.4" height="7.4"/>
						<rect x="-459.7" y="218.2" class="st11" width="7.4" height="7.4"/>
						<rect x="-451.4" y="218.2" class="st12" width="7.4" height="7.4"/>
					</g>
				</g>
			</g>
		</g>
	</g>
</g>
<g id="LOGO">
	<g>
		<text transform="matrix(0.9832 0 0 1 226.0793 205.7163)" class="st3 st16 st17">I</text>
		<line class="st4" x1="28.7" y1="212.8" x2="432.9" y2="212.8"/>
		<polygon class="st5" points="119,205.7 147.4,205.6 209,112.7 209,205.6 232.6,205.6 232.6,77.1 232.6,70 232.6,34.5 		"/>
		<g>
			<path class="st6" d="M30.3,202.4v-16.9h11.9l-1.1,3.4h-6.7v3.2h4.8v3.3h-4.8v3.6h6.7l1.1,3.4H30.3z"/>
			<path class="st6" d="M48,202.4v-13.4h-4.7v-3.5h13.9l-1.1,3.5h-4v13.4H48z"/>
			<path class="st6" d="M58.9,202.4v-16.9h4.1v16.9H58.9z"/>
			<path class="st6" d="M66.3,202.4v-16.9h4.1v16.9H66.3z M76.7,202.4v-6.9h-4.1l-2-3.5h6.2v-6.5h4.1v16.9H76.7z"/>
			<path class="st6" d="M82.5,202.4l6.9-16.9h2.9c2.7,6.5,4.9,12.1,6.8,16.9h-4.3l-1.2-3h-3.8l-1.1-2.9l-2.2,5.9H82.5z M90.2,192.7
				l-1.4,3.8h3.8l-1.4-3.8l-0.5-1.4L90.2,192.7z"/>
			<path class="st6" d="M100.9,202.4v-16.9h5.5c3,0,5.3,0.7,6.9,2c1.5,1.3,2.3,3.4,2.3,6.4c0,1.5-0.2,2.8-0.7,4
				c-0.5,1.1-1.1,2-2,2.6c-0.9,0.6-1.8,1.1-2.9,1.4c-1.1,0.3-2.3,0.5-3.6,0.5H100.9z M105,199h1.3c1.8,0,3.1-0.4,3.8-1.1
				s1.1-2,1.1-3.8c0-1.8-0.4-3.1-1.1-3.8c-0.7-0.8-2-1.2-3.8-1.2H105V199z"/>
		</g>
		<g>
			<g>
				<path class="st6" d="M306.4,30.1c0.7,0,1.5,0,2.2,0.1c0.3,0,0.5,0.1,0.8,0.1c0.5,0.1,0.9,0.1,1.3,0.2c0.3,0.1,0.6,0.1,0.9,0.2
					c0.4,0.1,0.8,0.2,1.2,0.3c0.3,0.1,0.6,0.2,0.9,0.3c0.4,0.1,0.7,0.3,1.1,0.4c0.3,0.1,0.6,0.2,0.9,0.4c0.4,0.2,0.7,0.3,1.1,0.5
					c0.3,0.1,0.5,0.3,0.8,0.4c0.4,0.2,0.8,0.5,1.2,0.7c0.2,0.1,0.3,0.2,0.5,0.3c1.2,0.8,2.3,1.7,3.3,2.7c0,0,0.1,0.1,0.1,0.1
					c0.5,0.5,0.9,1,1.3,1.5c0.1,0.1,0.1,0.2,0.2,0.3c0.4,0.5,0.7,0.9,1.1,1.4c0.1,0.1,0.2,0.3,0.3,0.4c0.3,0.5,0.6,0.9,0.9,1.4
					c0.1,0.2,0.2,0.3,0.2,0.5c0.2,0.5,0.5,0.9,0.7,1.4c0.1,0.2,0.2,0.3,0.2,0.5c0.2,0.5,0.4,1,0.5,1.5c0.1,0.2,0.1,0.4,0.2,0.6
					c0.2,0.5,0.3,1,0.4,1.6c0,0.2,0.1,0.3,0.1,0.5c1.3,6.3-0.2,12.9-4.1,18.1c-0.8,1.1-0.6,2.7,0.5,3.5c1.1,0.8,2.7,0.6,3.5-0.5
					c3.6-4.8,5.6-10.6,5.6-16.7c0-0.5,0-1-0.1-1.5c7.6,2.6,12.7,9.8,12.7,17.9c0,1-0.1,2.1-0.3,3.1c0,0.1-0.1,0.2-0.1,0.3
					c-0.5,3-1.8,5.7-3.6,8.1c0,0,0,0.1,0,0.1c-2.4,3.1-5.7,5.4-9.4,6.5c-1.3,0.4-2.1,1.8-1.7,3.2s1.8,2.1,3.2,1.7
					c3.9-1.2,7.5-3.4,10.3-6.3c4.2,3.8,6.6,9.3,6.7,15c0,0.8-0.1,1.7-0.2,2.5c0,0.3-0.1,0.5-0.1,0.8c-0.1,0.6-0.2,1.1-0.4,1.7
					c-0.1,0.3-0.1,0.6-0.2,0.8c-0.2,0.7-0.5,1.4-0.7,2c-0.2,0.4-0.4,0.8-0.5,1.1c-0.2,0.3-0.3,0.6-0.5,0.9c-0.2,0.4-0.5,0.8-0.7,1.2
					c-0.1,0.2-0.3,0.4-0.5,0.7c-0.5,0.7-1,1.3-1.6,1.9c-0.2,0.2-0.4,0.5-0.7,0.7c-0.3,0.3-0.6,0.6-1,0.9c-0.4,0.3-0.7,0.6-1.1,0.9
					c-0.3,0.2-0.6,0.5-0.9,0.7c-0.6,0.4-1.2,0.7-1.8,1.1c-2.9,1.5-6,2.3-9.3,2.3c-1.4,0-2.5,1.1-2.5,2.5s1.1,2.5,2.5,2.5
					c3,0,6-0.6,8.8-1.6c0.9,2.1,1.3,4.4,1.3,6.7c0,8-5.4,15-13.1,17.1c-7.7,2.1-15.9-1.3-19.9-8.2c-0.5-0.8-1.3-1.3-2.2-1.3
					c-0.9,0-1.7,0.5-2.2,1.3s-0.4,1.7,0,2.5c3.6,6.2,10,10.4,17.1,11.2c-0.6,10.2-9.2,18.1-19.5,17.8c-10.2-0.3-18.4-8.7-18.4-18.9
					v-15.6l11-15.3l9.3,4.1c0,0.1,0,0.2,0,0.4c0,3.7,2.6,6.9,6.2,7.6c3.6,0.7,7.2-1.3,8.6-4.7s0-7.3-3.1-9.3
					c-3.2-1.9-7.2-1.3-9.7,1.4l-9.2-4c-0.6-0.3-1.3-0.4-2-0.4c-1.6,0-3.2,0.8-4.1,2.1l-6.9,9.6v-19.9h20.7c1.2,3.5,4.8,5.6,8.4,4.9
					c3.6-0.6,6.3-3.8,6.3-7.5s-2.7-6.8-6.3-7.5s-7.2,1.5-8.4,4.9h-20.7V93.2h5.5c1.2,3.5,4.8,5.6,8.4,4.9s6.3-3.8,6.3-7.5
					s-2.7-6.8-6.3-7.5c-3.6-0.6-7.2,1.5-8.4,4.9h-5.5V78.1h20.7c2.4,0,4.5-1.7,5-4.1l1.8-8.9c3.5-1.1,5.7-4.5,5.3-8.1
					c-0.4-3.6-3.4-6.4-7.1-6.6c-3.7-0.2-6.9,2.3-7.7,5.8c-0.8,3.6,1.1,7.2,4.4,8.6l-1.6,8.2h-20.7V52.8
					C283.7,40.3,293.8,30.1,306.4,30.1z M308.9,126c0-1.4,1.1-2.5,2.5-2.5s2.5,1.1,2.5,2.5s-1.1,2.5-2.5,2.5
					C310.1,128.5,308.9,127.4,308.9,126z M308.9,105.8c0-1.4,1.1-2.5,2.5-2.5s2.5,1.1,2.5,2.5s-1.1,2.5-2.5,2.5
					C310.1,108.3,308.9,107.2,308.9,105.8z M293.8,90.7c0-1.4,1.1-2.5,2.5-2.5c1.4,0,2.5,1.1,2.5,2.5s-1.1,2.5-2.5,2.5
					C294.9,93.2,293.8,92.1,293.8,90.7z M306.4,57.9c0-1.4,1.1-2.5,2.5-2.5s2.5,1.1,2.5,2.5c0,1.4-1.1,2.5-2.5,2.5
					C307.5,60.4,306.4,59.3,306.4,57.9z M278.6,118.2v12.7v5v16.5c0,7.2,3.3,14.1,8.9,18.6l7.2,4c7.1,2.5,15.1,1.5,21.3-2.8
					c6.3-4.2,10.2-11.2,10.5-18.7c0.6-0.1,1.2-0.2,1.8-0.3c0.1,0,0.2,0,0.3-0.1c0.7-0.1,1.4-0.3,2.1-0.5c0.2-0.1,0.4-0.2,0.6-0.2
					c0.5-0.2,0.9-0.3,1.4-0.5c0.3-0.1,0.5-0.2,0.8-0.3c0.4-0.2,0.8-0.4,1.2-0.6c0.3-0.1,0.5-0.3,0.8-0.4c0.4-0.2,0.7-0.4,1.1-0.6
					c0.3-0.2,0.5-0.3,0.7-0.5c0.3-0.2,0.7-0.5,1-0.7c0.2-0.2,0.5-0.4,0.7-0.6c0.3-0.3,0.6-0.5,0.9-0.8c0.2-0.2,0.4-0.4,0.7-0.7
					c0.3-0.3,0.5-0.6,0.8-0.9c0.2-0.2,0.4-0.5,0.6-0.7c0.2-0.3,0.5-0.6,0.7-0.9c0.2-0.3,0.4-0.5,0.5-0.8c0.2-0.3,0.4-0.7,0.6-1
					c0.2-0.3,0.3-0.5,0.5-0.8c0.2-0.4,0.4-0.7,0.5-1.1c0.1-0.3,0.3-0.6,0.4-0.8c0.2-0.4,0.3-0.8,0.4-1.2c0.1-0.3,0.2-0.6,0.3-0.9
					c0.1-0.4,0.2-0.8,0.3-1.3c0.1-0.3,0.1-0.6,0.2-0.8c0.1-0.5,0.2-1,0.2-1.5c0-0.2,0.1-0.5,0.1-0.7c0.1-0.7,0.1-1.5,0.1-2.2
					c0-3-0.6-6.1-1.8-8.9c0.2-0.1,0.3-0.2,0.5-0.3c0.4-0.3,0.8-0.6,1.2-0.9c0.9-0.7,1.8-1.4,2.6-2.2c0.1-0.1,0.2-0.2,0.3-0.3
					c0.5-0.5,0.9-1,1.3-1.5c0.1-0.2,0.3-0.3,0.4-0.5c0.4-0.5,0.8-1.1,1.2-1.6c0.1-0.2,0.2-0.3,0.3-0.5c1.1-1.7,2-3.5,2.6-5.4
					c0.2-0.4,0.3-0.9,0.4-1.4c0.1-0.4,0.2-0.8,0.3-1.3c0.1-0.6,0.2-1.2,0.3-1.8c0.1-0.3,0.1-0.7,0.2-1c0-0.3,0.1-0.6,0.1-0.9
					c0-0.1,0-0.1,0-0.1c0.1-0.6,0.1-1.3,0.1-1.9c0-7.3-3.1-14.2-8.6-18.9c1.1-1.8,2-3.8,2.6-5.8c0-0.1,0.1-0.2,0.1-0.3
					c0.3-0.9,0.5-1.9,0.6-2.9c0-0.2,0-0.3,0.1-0.5c0.1-1,0.2-2,0.2-3c0-11.2-7.7-20.9-18.6-23.4c-0.1-0.3-0.2-0.5-0.3-0.8
					c-0.1-0.3-0.2-0.5-0.2-0.8c-0.2-0.6-0.4-1.2-0.7-1.8c-0.1-0.2-0.1-0.4-0.2-0.6c-1-2.4-2.4-4.6-4-6.6c-0.1-0.1-0.2-0.2-0.3-0.4
					c-0.4-0.5-0.9-1-1.4-1.5c-0.2-0.2-0.3-0.3-0.5-0.5c-0.4-0.4-0.9-0.8-1.4-1.2c-0.2-0.2-0.4-0.3-0.6-0.5c-0.5-0.4-1-0.7-1.5-1.1
					c-0.2-0.1-0.4-0.3-0.6-0.4c-0.7-0.5-1.4-0.9-2.1-1.3c-0.1-0.1-0.3-0.1-0.4-0.2c-0.6-0.3-1.2-0.6-1.8-0.9
					c-0.3-0.1-0.6-0.2-0.9-0.4c-0.5-0.2-0.9-0.4-1.4-0.5c-0.3-0.1-0.7-0.2-1-0.3c-0.5-0.1-1-0.3-1.4-0.4c-0.3-0.1-0.7-0.2-1-0.2
					c-0.5-0.1-1.1-0.2-1.7-0.3c-0.3,0-0.6-0.1-0.9-0.1c-0.9-0.1-1.7-0.1-2.6-0.1c-3.7,0-7.3,0.7-10.6,2.1l-6.1,3.5
					c-7,5.2-11.1,13.4-11.1,22.1v12.7v5v12.7V118.2z M278.6,88.4v24.7"/>
			</g>
		</g>
		<g>
			<path class="st6" d="M271,205.7l9.9-24.2h4.2c3.8,9.3,7.1,17.4,9.7,24.2h-6.2l-1.7-4.3h-5.5l-1.6-4.2l-3.2,8.5H271z M281.9,191.7
				l-2.1,5.4h5.5l-2.1-5.4l-0.7-2.1L281.9,191.7z"/>
			<path class="st6" d="M308,206.3c-3.7,0-6.7-1.1-8.7-3.2c-2.1-2.2-3.1-5.3-3.1-9.5c0-4,1.1-7.1,3.3-9.3c2.2-2.2,5-3.3,8.4-3.3
				c3.1,0,5.5,0.6,7,1.8v5.9c-1.5-1.8-3.6-2.7-6.2-2.7c-2.1,0-3.7,0.6-4.8,1.9s-1.7,3.1-1.7,5.5c0,2.4,0.6,4.3,1.7,5.7s2.7,2,4.8,2
				c2.7,0,4.8-0.8,6.2-2.4v5.4c-0.7,0.6-1.6,1.2-2.8,1.6C310.8,206.1,309.5,206.3,308,206.3z"/>
			<path class="st6" d="M316.4,205.7l9.9-24.2h4.2c3.8,9.3,7.1,17.4,9.7,24.2h-6.1l-1.7-4.3h-5.5l-1.6-4.2l-3.2,8.5H316.4z
				 M327.4,191.7l-2.1,5.4h5.5l-2.1-5.4l-0.7-2.1L327.4,191.7z"/>
			<path class="st6" d="M342.7,205.7v-24.2h7.8c4.4,0,7.6,1,9.8,2.8c2.2,1.8,3.3,4.9,3.3,9.2c0,2.2-0.3,4.1-1,5.7
				c-0.7,1.6-1.6,2.9-2.8,3.8c-1.2,0.9-2.6,1.6-4.1,2c-1.5,0.4-3.3,0.7-5.2,0.7H342.7z M348.7,200.8h1.9c2.6,0,4.5-0.5,5.5-1.6
				c1-1.1,1.5-2.9,1.5-5.5c0-2.5-0.5-4.4-1.6-5.5s-2.9-1.7-5.5-1.7h-1.9V200.8z"/>
			<path class="st6" d="M367.3,205.7v-24.2h17l-1.5,4.9h-9.5v4.5h6.9v4.7h-6.9v5.2h9.5l1.5,4.9H367.3z"/>
			<path class="st6" d="M387.6,205.7v-24.2h5.3l7.4,10.4l6.9-10.4h5.3v24.2h-6v-15l-6.2,9.2h-0.3l-6.4-9.2v15H387.6z"/>
			<path class="st6" d="M422.8,205.7v-9.8l-8.1-14.4h6.7l4.7,9.1l4.8-9.1h6l-8.1,14.4v9.8H422.8z"/>
		</g>
		<g>
			<path class="st7" d="M263.5,240.5v-7.4h1l0.1,0.5c0.1-0.2,0.3-0.4,0.6-0.5s0.6-0.2,1-0.2c1.5,0,2.3,0.9,2.3,2.8
				c0,1-0.2,1.7-0.7,2.2s-1.1,0.8-1.8,0.8c-0.7,0-1.1-0.1-1.3-0.4v2.2H263.5z M265.7,238c0.5,0,0.9-0.2,1.2-0.6
				c0.3-0.4,0.4-0.9,0.4-1.6c0-1.3-0.5-2-1.5-2c-0.3,0-0.6,0.1-0.8,0.2c-0.2,0.1-0.4,0.3-0.5,0.5v3C264.7,237.8,265.1,238,265.7,238
				z"/>
			<path class="st7" d="M271.8,238.8c-0.8,0-1.4-0.2-1.9-0.7c-0.5-0.5-0.7-1.2-0.7-2.2c0-0.9,0.3-1.7,0.8-2.2s1.1-0.7,1.9-0.7
				c0.8,0,1.4,0.2,1.9,0.7s0.7,1.2,0.7,2.2c0,0.9-0.3,1.7-0.8,2.2C273.2,238.5,272.5,238.8,271.8,238.8z M271.8,237.9
				c0.5,0,0.9-0.2,1.2-0.5c0.3-0.4,0.4-0.9,0.4-1.5c0-0.6-0.1-1.2-0.4-1.5c-0.3-0.4-0.7-0.5-1.2-0.5c-0.5,0-0.9,0.2-1.2,0.5
				c-0.3,0.4-0.4,0.9-0.4,1.5c0,0.6,0.1,1.2,0.4,1.5C270.9,237.7,271.3,237.9,271.8,237.9z"/>
			<path class="st7" d="M276.6,238.6l-1.5-5.5h1l1,3.7l1.4-3.7h0.4l1.4,3.7l1-3.7h0.9l-1.5,5.5H280l-1.4-3.7l-1.4,3.7H276.6z"/>
			<path class="st7" d="M285.5,238.8c-0.9,0-1.6-0.2-2-0.7s-0.7-1.2-0.7-2.2c0-0.9,0.3-1.7,0.8-2.2c0.5-0.5,1.1-0.7,1.8-0.7
				c0.3,0,0.6,0,0.9,0.1c0.3,0.1,0.5,0.2,0.8,0.4c0.2,0.2,0.4,0.4,0.5,0.8c0.1,0.3,0.2,0.7,0.2,1.2v0.7h-3.9c0,0.5,0.2,1,0.5,1.3
				c0.3,0.3,0.7,0.5,1.3,0.5c0.8,0,1.4-0.2,1.8-0.7v0.9C287.1,238.6,286.4,238.8,285.5,238.8z M283.8,235.5h2.9v-0.1
				c0-1-0.5-1.5-1.4-1.5c-0.4,0-0.8,0.2-1,0.5C284,234.6,283.9,235,283.8,235.5z"/>
			<path class="st7" d="M288.9,238.6v-5.5h0.9l0.1,0.8c0-0.3,0.2-0.5,0.4-0.7s0.5-0.3,0.8-0.3c0.3,0,0.4,0,0.6,0.1v0.9
				c-0.2-0.1-0.4-0.2-0.7-0.2c-0.2,0-0.4,0.1-0.6,0.2c-0.2,0.1-0.3,0.3-0.4,0.5v4H288.9z"/>
			<path class="st7" d="M294.9,238.8c-0.9,0-1.6-0.2-2-0.7s-0.7-1.2-0.7-2.2c0-0.9,0.3-1.7,0.8-2.2c0.5-0.5,1.1-0.7,1.8-0.7
				c0.3,0,0.6,0,0.9,0.1c0.3,0.1,0.5,0.2,0.8,0.4c0.2,0.2,0.4,0.4,0.5,0.8c0.1,0.3,0.2,0.7,0.2,1.2v0.7h-3.9c0,0.5,0.2,1,0.5,1.3
				c0.3,0.3,0.7,0.5,1.3,0.5c0.8,0,1.4-0.2,1.8-0.7v0.9C296.4,238.6,295.8,238.8,294.9,238.8z M293.2,235.5h2.9v-0.1
				c0-1-0.5-1.5-1.4-1.5c-0.4,0-0.8,0.2-1,0.5C293.4,234.6,293.3,235,293.2,235.5z"/>
			<path class="st7" d="M300.2,238.8c-0.7,0-1.2-0.2-1.7-0.7c-0.4-0.5-0.6-1.2-0.6-2.1c0-1,0.2-1.7,0.7-2.2c0.4-0.5,1.1-0.8,1.8-0.8
				c0.7,0,1.1,0.1,1.3,0.4v-2.3h1v7.5h-1l-0.1-0.5c-0.1,0.2-0.3,0.4-0.6,0.5S300.6,238.8,300.2,238.8z M301.8,237.3v-3
				c-0.2-0.3-0.6-0.5-1.2-0.5c-0.5,0-0.9,0.2-1.1,0.6c-0.3,0.4-0.4,0.9-0.4,1.6c0,1.3,0.5,2,1.5,2c0.3,0,0.6-0.1,0.8-0.2
				C301.6,237.6,301.7,237.5,301.8,237.3z"/>
			<path class="st7" d="M309.1,238.8c-0.7,0-1.1-0.2-1.4-0.6l-0.2,0.4h-0.8v-7.5h1v2.5c0.1-0.2,0.3-0.4,0.6-0.5
				c0.3-0.1,0.6-0.2,1-0.2c1.5,0,2.3,0.9,2.3,2.8c0,1-0.2,1.7-0.7,2.2S309.8,238.8,309.1,238.8z M307.8,234.4v3
				c0.2,0.3,0.6,0.5,1.2,0.5c0.5,0,0.9-0.2,1.2-0.6c0.3-0.4,0.4-0.9,0.4-1.6c0-1.3-0.5-2-1.5-2c-0.3,0-0.6,0.1-0.8,0.2
				C308,234.1,307.9,234.2,307.8,234.4z"/>
			<path class="st7" d="M313.2,240.7c-0.4,0-0.7-0.1-0.9-0.3v-0.9c0.2,0.3,0.6,0.4,0.9,0.4c0.5,0,1-0.4,1.3-1.2l-2.3-5.5h1.1
				l1.6,4.2l1.2-4.2h1l-1.6,5.1c-0.2,0.8-0.5,1.4-0.9,1.8S313.8,240.7,313.2,240.7z"/>
		</g>
		<g>
			<path class="st8" d="M366,228.8v13.4h-2.3v-10.5h0l-4.2,10.5h-1.5l-4.3-10.5h0v10.5h-2.2v-13.4h3.3l3.9,9.9h0.1l4.1-9.9H366z
				 M367.9,229.9c0-0.4,0.1-0.7,0.4-0.9s0.6-0.4,1-0.4c0.4,0,0.7,0.1,1,0.4c0.3,0.3,0.4,0.6,0.4,0.9c0,0.4-0.1,0.7-0.4,0.9
				c-0.3,0.2-0.6,0.4-1,0.4c-0.4,0-0.7-0.1-1-0.4C368,230.5,367.9,230.2,367.9,229.9z M370.4,232.6v9.6h-2.3v-9.6H370.4z
				 M377.3,240.6c0.3,0,0.7-0.1,1.1-0.2c0.4-0.2,0.8-0.4,1.1-0.6v2.1c-0.4,0.2-0.8,0.4-1.2,0.5c-0.5,0.1-1,0.2-1.5,0.2
				c-1.4,0-2.6-0.4-3.5-1.3c-0.9-0.9-1.3-2-1.3-3.4c0-1.5,0.5-2.8,1.4-3.8c0.9-1,2.2-1.5,3.8-1.5c0.4,0,0.9,0.1,1.3,0.2
				c0.4,0.1,0.8,0.2,1,0.4v2.2c-0.3-0.3-0.7-0.5-1.1-0.6c-0.4-0.1-0.7-0.2-1.1-0.2c-0.9,0-1.6,0.3-2.2,0.9c-0.5,0.6-0.8,1.4-0.8,2.3
				c0,1,0.3,1.7,0.8,2.3C375.7,240.4,376.4,240.6,377.3,240.6z M386,232.5c0.2,0,0.3,0,0.5,0s0.3,0.1,0.4,0.1v2.3
				c-0.1-0.1-0.3-0.2-0.5-0.2c-0.2-0.1-0.5-0.1-0.8-0.1c-0.6,0-1,0.2-1.4,0.7c-0.4,0.5-0.6,1.2-0.6,2.2v4.9h-2.3v-9.6h2.3v1.5h0
				c0.2-0.5,0.5-0.9,0.9-1.2C384.9,232.6,385.4,232.5,386,232.5z M386.9,237.6c0-1.6,0.4-2.9,1.3-3.8c0.9-0.9,2.1-1.4,3.7-1.4
				c1.5,0,2.7,0.4,3.5,1.3c0.8,0.9,1.3,2.1,1.3,3.6c0,1.6-0.4,2.8-1.3,3.7c-0.9,0.9-2.1,1.4-3.7,1.4c-1.5,0-2.7-0.4-3.6-1.3
				C387.4,240.3,386.9,239.1,386.9,237.6z M389.3,237.5c0,1,0.2,1.8,0.7,2.3c0.5,0.5,1.1,0.8,2,0.8c0.8,0,1.5-0.3,1.9-0.8
				c0.4-0.5,0.6-1.3,0.6-2.4c0-1-0.2-1.8-0.7-2.3c-0.4-0.5-1.1-0.8-1.9-0.8c-0.8,0-1.5,0.3-1.9,0.8
				C389.5,235.7,389.3,236.5,389.3,237.5z M400.2,235.2c0,0.3,0.1,0.6,0.3,0.8c0.2,0.2,0.7,0.4,1.4,0.7c0.9,0.4,1.5,0.8,1.9,1.2
				c0.4,0.5,0.5,1,0.5,1.6c0,0.9-0.3,1.6-1,2.2c-0.7,0.5-1.6,0.8-2.8,0.8c-0.4,0-0.8,0-1.3-0.1c-0.5-0.1-0.9-0.2-1.2-0.4v-2.2
				c0.4,0.3,0.9,0.5,1.3,0.7c0.5,0.2,0.9,0.3,1.3,0.3c0.5,0,0.9-0.1,1.1-0.2c0.2-0.1,0.4-0.4,0.4-0.7c0-0.3-0.1-0.6-0.4-0.8
				c-0.3-0.2-0.7-0.5-1.4-0.7c-0.8-0.3-1.4-0.7-1.8-1.2c-0.3-0.4-0.5-1-0.5-1.7c0-0.9,0.3-1.6,1-2.1c0.7-0.6,1.6-0.8,2.7-0.8
				c0.3,0,0.7,0,1.1,0.1c0.4,0.1,0.8,0.2,1,0.3v2.2c-0.3-0.2-0.6-0.4-1-0.5c-0.4-0.1-0.8-0.2-1.2-0.2c-0.4,0-0.8,0.1-1,0.3
				C400.3,234.7,400.2,234.9,400.2,235.2z M405.3,237.6c0-1.6,0.4-2.9,1.3-3.8c0.9-0.9,2.1-1.4,3.7-1.4c1.5,0,2.7,0.4,3.5,1.3
				c0.8,0.9,1.3,2.1,1.3,3.6c0,1.6-0.4,2.8-1.3,3.7c-0.9,0.9-2.1,1.4-3.7,1.4c-1.5,0-2.7-0.4-3.6-1.3
				C405.7,240.3,405.3,239.1,405.3,237.6z M407.7,237.5c0,1,0.2,1.8,0.7,2.3c0.5,0.5,1.1,0.8,2,0.8c0.8,0,1.5-0.3,1.9-0.8
				c0.4-0.5,0.6-1.3,0.6-2.4c0-1-0.2-1.8-0.7-2.3c-0.4-0.5-1.1-0.8-1.9-0.8c-0.8,0-1.5,0.3-1.9,0.8
				C407.9,235.7,407.7,236.5,407.7,237.5z M422.7,234.5h-3.4v7.8H417v-7.8h-1.6v-1.9h1.6v-1.3c0-1,0.3-1.8,1-2.5
				c0.7-0.6,1.5-1,2.5-1c0.3,0,0.5,0,0.7,0c0.2,0,0.4,0.1,0.6,0.1v2c-0.1,0-0.2-0.1-0.4-0.2c-0.2-0.1-0.4-0.1-0.6-0.1
				c-0.5,0-0.8,0.1-1.1,0.4c-0.3,0.3-0.4,0.7-0.4,1.3v1.2h3.4v-2.2l2.3-0.7v2.9h2.3v1.9H425v4.5c0,0.6,0.1,1,0.3,1.3
				c0.2,0.2,0.6,0.4,1,0.4c0.1,0,0.3,0,0.5-0.1c0.2-0.1,0.3-0.1,0.5-0.2v1.9c-0.1,0.1-0.4,0.2-0.7,0.2c-0.3,0.1-0.7,0.1-1,0.1
				c-1,0-1.7-0.3-2.1-0.8c-0.5-0.5-0.7-1.3-0.7-2.3V234.5z"/>
			<g>
				<rect x="322.4" y="224.4" class="st9" width="10.6" height="10.6"/>
				<rect x="334.1" y="224.4" class="st10" width="10.6" height="10.6"/>
				<rect x="322.4" y="236.1" class="st11" width="10.6" height="10.6"/>
				<rect x="334.1" y="236.1" class="st12" width="10.6" height="10.6"/>
			</g>
		</g>
	</g>
	<g>
		<path class="st0" d="M28-26.5c-0.4,1.8-1.4,6.7-2,8.3H1.8v-1.5c4.5-0.3,5-0.7,5-5.2V-45c0-4.5-0.4-4.8-4.7-5.1v-1.5h14.2v1.5
			c-4.1,0.3-4.6,0.6-4.6,5.1v20c0,2.8,0.2,3.8,1.2,4.3c1,0.6,2.8,0.7,4.9,0.7c2.8,0,4.6-0.3,5.8-1.7c1-1,2-2.7,2.8-5.1L28-26.5z"/>
		<path class="st0" d="M49.4-52.4c9.2,0,17.6,6.8,17.6,17.1c0,11.1-8.3,18-18.3,18c-9.9,0-17.8-7.3-17.8-17.2
			C30.9-43.9,37.9-52.4,49.4-52.4L49.4-52.4z M48.2-50.5c-5.9,0-11.5,4.8-11.5,14.6c0,9.5,5.6,16.6,13.1,16.6
			c5.9,0,11.3-4.7,11.3-14.7C61.1-44.8,55.2-50.5,48.2-50.5L48.2-50.5z"/>
		<path class="st0" d="M106.8-32.3c-3.1,0.5-3.3,0.7-3.3,3.9v4.3c0,1.8,0,3.4,0.4,4.7c-3.3,0.8-7.8,2-12.2,2c-12,0-20-7.1-20-17.3
			c0-11.8,10-17.7,20.7-17.7c4.6,0,8.8,1.2,10.6,1.5c0.1,1.8,0.4,4.6,0.8,8.3l-1.5,0.4c-1.3-6.4-5.4-8.3-10.7-8.3
			c-8.1,0-14,5.8-14,15.2c0,7.4,4.5,16.1,14.8,16.1c1.7,0,3.4-0.4,4.5-0.9c1.1-0.6,1.8-1.3,1.8-3.3v-4.2c0-3.8-0.3-4.1-5.7-4.6v-1.5
			h13.9V-32.3z"/>
		<path class="st0" d="M128.8-52.4c9.2,0,17.6,6.8,17.6,17.1c0,11.1-8.3,18-18.3,18c-9.9,0-17.8-7.3-17.8-17.2
			C110.3-43.9,117.3-52.4,128.8-52.4L128.8-52.4z M127.6-50.5c-5.9,0-11.5,4.8-11.5,14.6c0,9.5,5.6,16.6,13.1,16.6
			c5.9,0,11.3-4.7,11.3-14.7C140.6-44.8,134.6-50.5,127.6-50.5L127.6-50.5z"/>
	</g>
</g>
</svg>
