<?xml version="1.0" encoding="utf-8"?>
<!-- Generator: Adobe Illustrator 17.0.0, SVG Export Plug-In . SVG Version: 6.00 Build 0)  -->
<!DOCTYPE svg PUBLIC "-//W3C//DTD SVG 1.1//EN" "http://www.w3.org/Graphics/SVG/1.1/DTD/svg11.dtd">
<svg version="1.1" id="Слой_1" xmlns="http://www.w3.org/2000/svg" xmlns:xlink="http://www.w3.org/1999/xlink" x="0px" y="0px"
	 width="272.892px" height="59.568px" viewBox="0 0 272.892 59.568" enable-background="new 0 0 272.892 59.568"
	 xml:space="preserve">
<g>
	<g>
		<g>
			<path fill="#272929" d="M58.155,6.815l1.688,3.613c0.218,0.514,0.417,1.031,0.622,1.527h0.026
				c0.149-0.453,0.312-0.958,0.53-1.549l1.322-3.592h1.164l-1.78,4.377c-0.47,1.13-0.998,2.451-1.596,3.239
				c-0.554,0.673-1.169,1.044-1.931,1.044c-0.275,0-0.479-0.031-0.617-0.093l0.113-0.898c0.089,0.023,0.216,0.034,0.402,0.034
				c0.889,0,1.404-0.843,1.669-1.438c0.085-0.215,0.064-0.304-0.039-0.516l-2.828-5.75H58.155z"/>
			<path fill="#272929" d="M65.175,9.212v2.636h0.265l2.3-2.636h1.354l-2.666,2.771c0.986,0.075,1.58,0.75,2.059,1.85
				c0.168,0.388,0.379,0.981,0.656,1.476h-1.157c-0.165-0.268-0.382-0.745-0.571-1.242c-0.417-0.977-0.986-1.452-2.018-1.452h-0.221
				v2.694h-1.1V9.212H65.175z"/>
			<path fill="#272929" d="M70.13,11.202c0-0.795-0.027-1.403-0.054-1.99h1l0.052,1.039h0.023c0.456-0.732,1.18-1.2,2.173-1.2
				c1.481,0,2.589,1.276,2.589,3.122c0,2.203-1.34,3.288-2.775,3.288c-0.807,0-1.518-0.37-1.881-0.976h-0.027v3.32h-1.1V11.202z
				 M71.229,12.831c0,0.164,0.027,0.301,0.049,0.459c0.202,0.76,0.871,1.288,1.666,1.288c1.179,0,1.861-0.944,1.861-2.344
				c0-1.25-0.65-2.293-1.821-2.293c-0.759,0-1.462,0.542-1.684,1.378c-0.034,0.15-0.071,0.312-0.071,0.449V12.831z"/>
			<path fill="#272929" d="M81.616,13.861c0,0.53,0.021,1.041,0.1,1.446H80.7l-0.086-0.773h-0.041
				c-0.334,0.487-0.994,0.927-1.867,0.927c-1.236,0-1.865-0.883-1.865-1.774c0-1.452,1.311-2.26,3.676-2.248V11.29
				c0-0.497-0.139-1.418-1.391-1.418c-0.571,0-1.165,0.202-1.594,0.479l-0.254-0.757c0.51-0.306,1.236-0.543,2.014-0.543
				c1.865,0,2.324,1.3,2.324,2.504V13.861z M80.538,12.204c-1.213-0.031-2.588,0.172-2.588,1.381c0,0.698,0.479,1.055,1.05,1.055
				c0.793,0,1.296-0.498,1.475-1.018c0.042-0.131,0.063-0.246,0.063-0.363V12.204z"/>
			<path fill="#272929" d="M82.788,8.127c-0.363,0-0.629-0.31-0.629-0.667c0-0.342,0.289-0.627,0.643-0.627
				c0.35,0,0.615,0.277,0.615,0.627c0,0.357-0.252,0.667-0.615,0.667H82.788z M83.405,15.308V9.212h1.109v6.096H83.405z
				 M85.128,8.127c-0.369,0-0.624-0.31-0.624-0.667c0-0.342,0.276-0.627,0.638-0.627c0.348,0,0.613,0.277,0.613,0.627
				c0,0.357-0.251,0.667-0.613,0.667H85.128z"/>
			<path fill="#272929" d="M87.438,9.212v2.466h2.903V9.212h1.097v6.096h-1.097v-2.75h-2.903v2.75h-1.1V9.212H87.438z"/>
			<path fill="#272929" d="M97.616,15.077c-0.292,0.174-0.934,0.384-1.754,0.384c-1.844,0-3.046-1.267-3.046-3.147
				c0-1.885,1.292-3.249,3.284-3.249c0.657,0,1.238,0.191,1.543,0.317l-0.25,0.869c-0.265-0.145-0.682-0.294-1.293-0.294
				c-1.4,0-2.158,1.027-2.158,2.323c0,1.396,0.908,2.266,2.123,2.266c0.632,0,1.051-0.142,1.363-0.305L97.616,15.077z"/>
			<path fill="#272929" d="M99.999,9.212v2.051c0.266-0.049,0.682-0.056,1.002-0.056c1.379,0,2.833,0.439,2.833,2.067
				c0,0.635-0.257,1.069-0.646,1.41c-0.67,0.567-1.756,0.685-2.646,0.685c-0.627,0-1.194-0.04-1.643-0.077v-6.08H99.999z
				 M99.999,14.534c0.209,0.028,0.447,0.059,0.82,0.059c0.83,0,1.907-0.28,1.907-1.288c0-1.057-1.112-1.292-1.933-1.292
				c-0.295,0-0.544,0.016-0.795,0.045V14.534z"/>
			<path fill="#272929" d="M106.308,9.212v2.636h0.266l2.303-2.636h1.352l-2.668,2.771c0.988,0.075,1.58,0.75,2.058,1.85
				c0.17,0.388,0.379,0.981,0.656,1.476h-1.156c-0.167-0.268-0.381-0.745-0.57-1.242c-0.418-0.977-0.988-1.452-2.02-1.452h-0.221
				v2.694h-1.099V9.212H106.308z"/>
			<path fill="#272929" d="M112.285,9.212v2.557c0,0.995-0.011,1.598-0.06,2.451h0.04c0.364-0.728,0.574-1.139,0.979-1.871
				l1.906-3.137h1.307v6.096h-1.06v-2.575c0-0.997,0.02-1.525,0.07-2.513h-0.04c-0.392,0.778-0.656,1.273-1.003,1.892
				c-0.586,0.97-1.254,2.12-1.907,3.196h-1.282V9.212H112.285z"/>
			<path fill="#272929" d="M119.284,9.212v2.557c0,0.995-0.016,1.598-0.063,2.451h0.035c0.371-0.728,0.584-1.139,0.987-1.871
				l1.907-3.137h1.302v6.096h-1.064v-2.575c0-0.997,0.026-1.525,0.083-2.513h-0.041c-0.39,0.778-0.654,1.273-1.014,1.892
				c-0.574,0.97-1.244,2.12-1.906,3.196h-1.271V9.212H119.284z M120.009,6.715c0.025,0.544,0.291,0.956,0.807,0.956
				c0.543,0,0.793-0.398,0.848-0.956h0.809c-0.07,1.025-0.709,1.555-1.686,1.555c-1.113,0-1.543-0.669-1.584-1.555H120.009z"/>
			<path fill="#272929" d="M129.017,9.212v5.24h2.813v-5.24h1.102v5.267l0.625,0.007l-0.055,2.763h-0.865l-0.052-1.94h-4.665V9.212
				H129.017z"/>
			<path fill="#272929" d="M135.452,12.468c0.025,1.486,0.986,2.11,2.102,2.11c0.791,0,1.279-0.126,1.693-0.322l0.184,0.795
				c-0.389,0.2-1.057,0.41-2.032,0.41c-1.877,0-3.007-1.259-3.007-3.112c0-1.835,1.086-3.298,2.867-3.298
				c1.998,0,2.531,1.773,2.531,2.905c0,0.217-0.022,0.38-0.037,0.512H135.452z M138.713,11.678c0.01-0.727-0.286-1.823-1.534-1.823
				c-1.129,0-1.616,1.055-1.715,1.823H138.713z"/>
			<path fill="#272929" d="M142.243,9.212v2.466h2.898V9.212h1.098v6.096h-1.098v-2.75h-2.898v2.75h-1.098V9.212H142.243z"/>
			<path fill="#272929" d="M152.161,9.212v0.883h-1.906v5.213h-1.102v-5.213h-1.906V9.212H152.161z"/>
			<path fill="#272929" d="M153.136,11.202c0-0.795-0.026-1.403-0.057-1.99h1.004l0.041,1.039h0.025
				c0.463-0.732,1.179-1.2,2.172-1.2c1.477,0,2.588,1.276,2.588,3.122c0,2.203-1.332,3.288-2.771,3.288
				c-0.81,0-1.512-0.37-1.889-0.976h-0.018v3.32h-1.096V11.202z M154.231,12.831c0,0.164,0.018,0.301,0.042,0.459
				c0.214,0.76,0.882,1.288,1.675,1.288c1.168,0,1.85-0.944,1.85-2.344c0-1.25-0.641-2.293-1.807-2.293
				c-0.77,0-1.476,0.542-1.686,1.378c-0.042,0.15-0.073,0.312-0.073,0.449V12.831z"/>
			<path fill="#272929" d="M164.091,9.212v2.636h0.266l2.297-2.636h1.354l-2.658,2.771c0.988,0.075,1.57,0.75,2.061,1.85
				c0.164,0.388,0.372,0.981,0.651,1.476h-1.16c-0.16-0.268-0.386-0.745-0.564-1.242c-0.417-0.977-0.988-1.452-2.025-1.452h-0.221
				v2.694h-1.1V9.212H164.091z"/>
			<path fill="#272929" d="M174.511,12.221c0,2.253-1.578,3.24-3.053,3.24c-1.658,0-2.924-1.23-2.924-3.158
				c0-2.037,1.34-3.252,3.021-3.252C173.313,9.051,174.511,10.351,174.511,12.221z M169.649,12.28c0,1.342,0.781,2.343,1.867,2.343
				c1.059,0,1.85-0.989,1.85-2.364c0-1.052-0.512-2.373-1.83-2.373C170.218,9.886,169.649,11.12,169.649,12.28z"/>
			<path fill="#272929" d="M176.981,9.212v2.466h2.898V9.212h1.102v6.096h-1.102v-2.75h-2.898v2.75h-1.094V9.212H176.981z"/>
			<path fill="#272929" d="M186.904,9.212v0.883h-1.908v5.213h-1.099v-5.213h-1.908V9.212H186.904z"/>
			<path fill="#272929" d="M187.877,11.202c0-0.795-0.024-1.403-0.054-1.99h1.002l0.037,1.039h0.031c0.463-0.732,1.174-1.2,2.17-1.2
				c1.475,0,2.59,1.276,2.59,3.122c0,2.203-1.334,3.288-2.773,3.288c-0.813,0-1.512-0.37-1.891-0.976h-0.018v3.32h-1.095V11.202z
				 M188.972,12.831c0,0.164,0.018,0.301,0.045,0.459c0.214,0.76,0.882,1.288,1.674,1.288c1.166,0,1.848-0.944,1.848-2.344
				c0-1.25-0.637-2.293-1.807-2.293c-0.77,0-1.476,0.542-1.684,1.378c-0.047,0.15-0.076,0.312-0.076,0.449V12.831z"/>
			<path fill="#272929" d="M200.585,12.221c0,2.253-1.551,3.24-3.033,3.24c-1.651,0-2.936-1.23-2.936-3.158
				c0-2.037,1.333-3.252,3.037-3.252C199.407,9.051,200.585,10.351,200.585,12.221z M195.747,12.28c0,1.342,0.76,2.343,1.846,2.343
				c1.062,0,1.866-0.989,1.866-2.364c0-1.052-0.528-2.373-1.835-2.373C196.317,9.886,195.747,11.12,195.747,12.28z"/>
			<path fill="#272929" d="M206.636,9.212v6.096h-1.102v-5.213h-2.105v1.552c0,1.72-0.155,2.839-0.96,3.37
				c-0.291,0.26-0.641,0.382-1.214,0.382l-0.109-0.891c0.221-0.023,0.465-0.104,0.617-0.252c0.561-0.377,0.624-1.245,0.624-2.609
				V9.212H206.636z"/>
			<path fill="#272929" d="M209.52,9.212v2.557h1.039c0.198-1.618,1.256-2.718,2.715-2.718c1.588,0,2.676,1.291,2.676,3.17
				c0,1.974-1.217,3.24-2.74,3.24c-1.48,0-2.558-1.085-2.683-2.848h-1.007v2.694h-1.087V9.212H209.52z M213.225,14.64
				c1.104,0,1.625-1.249,1.625-2.392c0-1.16-0.53-2.362-1.618-2.362c-1.074,0-1.64,1.171-1.64,2.409
				c0,1.182,0.545,2.345,1.627,2.345H213.225z"/>
			<path fill="#272929" d="M220.548,11.759h0.527c0.93,0,1.556-0.424,1.556-0.997c0-0.542-0.485-0.89-1.185-0.89
				c-0.479,0-1.037,0.191-1.472,0.455l-0.28-0.708c0.615-0.352,1.318-0.555,2.032-0.555c0.93,0,2.078,0.441,2.078,1.608
				c0,0.778-0.698,1.269-1.38,1.386v0.026c0.898,0.089,1.674,0.648,1.674,1.55c0,1.329-1.352,1.811-2.652,1.811
				c-0.723,0-1.426-0.18-1.971-0.481l0.283-0.761c0.432,0.25,1.037,0.421,1.625,0.421c0.917,0,1.5-0.434,1.5-1.038
				c0-0.821-0.861-1.047-1.779-1.047h-0.557V11.759z"/>
			<path fill="#272929" d="M229.776,13.861c0,0.53,0.03,1.041,0.092,1.446h-0.994l-0.105-0.773h-0.021
				c-0.352,0.487-1.003,0.927-1.887,0.927c-1.234,0-1.859-0.883-1.859-1.774c0-1.452,1.307-2.26,3.674-2.248V11.29
				c0-0.497-0.14-1.418-1.395-1.418c-0.568,0-1.148,0.202-1.582,0.479l-0.248-0.757c0.496-0.306,1.239-0.543,2-0.543
				c1.861,0,2.326,1.3,2.326,2.504V13.861z M228.706,12.204c-1.209-0.031-2.588,0.172-2.588,1.381c0,0.698,0.465,1.055,1.036,1.055
				c0.794,0,1.316-0.498,1.475-1.018c0.046-0.131,0.077-0.246,0.077-0.363V12.204z"/>
			<path fill="#272929" d="M62.156,30.257c-0.29,0.141-0.936,0.347-1.758,0.347c-1.84,0-3.038-1.245-3.038-3.107
				c0-1.884,1.283-3.247,3.281-3.247c0.658,0,1.238,0.148,1.538,0.305l-0.251,0.846c-0.265-0.135-0.682-0.285-1.287-0.285
				c-1.4,0-2.161,1.051-2.161,2.321c0,1.425,0.913,2.288,2.124,2.288c0.629,0,1.047-0.179,1.365-0.297L62.156,30.257z"/>
			<path fill="#272929" d="M68.917,27.359c0,2.278-1.57,3.244-3.047,3.244c-1.656,0-2.926-1.188-2.926-3.123
				c0-2.068,1.338-3.244,3.028-3.244C67.729,24.236,68.917,25.497,68.917,27.359z M64.063,27.435c0,1.333,0.775,2.334,1.861,2.334
				c1.058,0,1.854-0.984,1.854-2.365c0-1.024-0.518-2.335-1.828-2.335C64.631,25.069,64.063,26.26,64.063,27.435z"/>
			<path fill="#272929" d="M71.396,24.353v5.254h2.814v-5.254h1.099v5.3l0.629,0.014l-0.058,2.765h-0.861l-0.053-1.941h-4.669
				v-6.137H71.396z"/>
			<path fill="#272929" d="M78.504,22.648c0.011,0.368-0.266,0.679-0.704,0.679c-0.393,0-0.672-0.311-0.672-0.679
				c0-0.392,0.289-0.703,0.694-0.703C78.238,21.945,78.504,22.257,78.504,22.648z M77.267,30.489v-6.137h1.11v6.137H77.267z"/>
			<path fill="#272929" d="M84.515,29.002c0,0.529,0.027,1.046,0.104,1.487h-1.011l-0.086-0.777h-0.039
				c-0.344,0.483-1.002,0.892-1.867,0.892c-1.237,0-1.875-0.865-1.875-1.732c0-1.497,1.319-2.304,3.676-2.288v-0.12
				c0-0.519-0.139-1.404-1.387-1.404c-0.566,0-1.163,0.158-1.595,0.438l-0.251-0.718c0.504-0.335,1.238-0.543,2.007-0.543
				c1.874,0,2.323,1.261,2.323,2.491V29.002z M83.442,27.346c-1.211-0.028-2.589,0.204-2.589,1.378c0,0.732,0.484,1.06,1.05,1.06
				c0.799,0,1.302-0.502,1.48-1.015c0.033-0.118,0.059-0.232,0.059-0.363V27.346z"/>
			<path fill="#272929" d="M90.975,24.353v6.137h-1.101V25.25h-2.099v1.539c0,1.733-0.161,2.877-0.96,3.39
				c-0.297,0.249-0.643,0.383-1.213,0.383l-0.113-0.871c0.219-0.024,0.46-0.145,0.612-0.254c0.565-0.419,0.626-1.283,0.626-2.648
				v-2.436H90.975z"/>
			<path fill="#272929" d="M93.87,24.353v2.09c0.266-0.048,0.683-0.062,1.005-0.062c1.377,0,2.831,0.408,2.831,2.037
				c0,0.646-0.255,1.075-0.646,1.406c-0.668,0.573-1.754,0.718-2.647,0.718c-0.625,0-1.192-0.029-1.641-0.082v-6.107H93.87z
				 M93.87,29.712c0.21,0.021,0.449,0.035,0.821,0.035c0.831,0,1.907-0.273,1.907-1.302c0-1.057-1.111-1.272-1.934-1.272
				c-0.293,0-0.543,0.031-0.795,0.068V29.712z"/>
			<path fill="#272929" d="M100.157,24.353v2.464h2.903v-2.464h1.101v6.137h-1.101v-2.773h-2.903v2.773H99.06v-6.137H100.157z"/>
			<path fill="#272929" d="M111.514,27.359c0,2.278-1.562,3.244-3.044,3.244c-1.651,0-2.929-1.188-2.929-3.123
				c0-2.068,1.335-3.244,3.036-3.244C110.331,24.236,111.514,25.497,111.514,27.359z M106.669,27.435
				c0,1.333,0.765,2.334,1.852,2.334c1.059,0,1.856-0.984,1.856-2.365c0-1.024-0.52-2.335-1.829-2.335
				C107.233,25.069,106.669,26.26,106.669,27.435z"/>
			<path fill="#272929" d="M116.666,24.353v2.464h2.911v-2.464h1.098v6.137h-1.098v-2.773h-2.911v2.773h-1.098v-6.137H116.666z"/>
			<path fill="#272929" d="M123.114,27.608c0.028,1.528,0.99,2.13,2.098,2.13c0.799,0,1.271-0.132,1.688-0.302l0.197,0.798
				c-0.392,0.163-1.064,0.369-2.035,0.369c-1.885,0-3.006-1.229-3.006-3.075c0-1.861,1.087-3.292,2.869-3.292
				c1.988,0,2.518,1.732,2.518,2.859c0,0.222-0.026,0.425-0.037,0.513H123.114z M126.37,26.816c0.016-0.685-0.291-1.784-1.544-1.784
				c-1.117,0-1.614,1.023-1.698,1.784H126.37z"/>
			<path fill="#272929" d="M133.514,22.304c-0.319,0.092-0.878,0.202-1.28,0.278c-0.988,0.128-1.705,0.465-2.172,1.142
				c-0.389,0.555-0.619,1.373-0.668,2.007h0.039c0.393-0.884,1.244-1.378,2.118-1.378c1.505,0,2.604,1.071,2.604,3.021
				c0,2.016-1.036,3.229-2.825,3.229c-2.154,0-2.855-2.037-2.855-4.092c0-1.39,0.287-2.509,0.947-3.363
				c0.586-0.845,1.433-1.258,2.621-1.451c0.498-0.088,1.097-0.165,1.514-0.338L133.514,22.304z M133.026,27.467
				c0-0.991-0.391-2.293-1.697-2.293c-0.66,0-1.127,0.356-1.378,0.836c-0.21,0.385-0.308,0.807-0.308,1.298
				c0,1.035,0.491,2.476,1.706,2.476c1.225,0,1.677-1.177,1.677-2.303V27.467z"/>
			<path fill="#272929" d="M136.173,27.608c0.031,1.528,0.99,2.13,2.105,2.13c0.793,0,1.266-0.132,1.684-0.302l0.195,0.798
				c-0.39,0.163-1.06,0.369-2.032,0.369c-1.881,0-3.007-1.229-3.007-3.075c0-1.861,1.086-3.292,2.867-3.292
				c1.988,0,2.52,1.732,2.52,2.859c0,0.222-0.023,0.425-0.032,0.513H136.173z M139.432,26.816c0.013-0.685-0.292-1.784-1.538-1.784
				c-1.119,0-1.621,1.023-1.705,1.784H139.432z"/>
			<path fill="#272929" d="M142.425,26.938h0.531c0.935,0,1.574-0.448,1.574-1.014c0-0.545-0.5-0.865-1.191-0.865
				c-0.496,0-1.052,0.146-1.483,0.407l-0.275-0.663c0.626-0.39,1.333-0.554,2.035-0.554c0.939,0,2.069,0.396,2.069,1.604
				c0,0.745-0.696,1.226-1.378,1.388v0.023c0.919,0.053,1.669,0.61,1.669,1.521c0,1.318-1.35,1.806-2.637,1.806
				c-0.717,0-1.441-0.178-1.984-0.487l0.294-0.729c0.446,0.232,1.028,0.396,1.612,0.396c0.92,0,1.505-0.427,1.505-1.046
				c0-0.821-0.863-1.039-1.783-1.039h-0.558V26.938z"/>
			<path fill="#272929" d="M152.395,24.353v6.137h-1.116V25.25h-2.839v5.239h-1.099v-6.137H152.395z"/>
			<path fill="#272929" d="M154.818,27.608c0.029,1.528,0.99,2.13,2.104,2.13c0.793,0,1.269-0.132,1.685-0.302l0.194,0.798
				c-0.39,0.163-1.056,0.369-2.031,0.369c-1.881,0-3.009-1.229-3.009-3.075c0-1.861,1.086-3.292,2.868-3.292
				c1.988,0,2.52,1.732,2.52,2.859c0,0.222-0.017,0.425-0.028,0.513H154.818z M158.075,26.816c0.014-0.685-0.288-1.784-1.529-1.784
				c-1.125,0-1.624,1.023-1.713,1.784H158.075z"/>
			<path fill="#272929" d="M161.464,24.353v2.08c0,0.771,0.289,1.298,1.262,1.298c0.49,0,0.979-0.181,1.318-0.433v-2.945h1.096
				v6.199h-1.096v-2.469h-0.02c-0.418,0.277-1.075,0.468-1.656,0.468c-1.171,0-2.008-0.604-2.008-1.999v-2.199H161.464z"/>
			<path fill="#272929" d="M168.032,24.353v2.464h2.914v-2.464h1.1v6.137h-1.1v-2.773h-2.914v2.773h-1.1v-6.137H168.032z"/>
			<path fill="#272929" d="M174.887,24.353v2.599c0,0.951-0.017,1.57-0.07,2.452h0.04c0.364-0.753,0.588-1.178,0.991-1.875
				l1.907-3.176h1.291v6.137h-1.058v-2.614c0-0.982,0.031-1.494,0.083-2.496h-0.039c-0.389,0.798-0.654,1.296-1.02,1.901
				c-0.574,0.945-1.248,2.136-1.908,3.209h-1.263v-6.137H174.887z"/>
			<path fill="#272929" d="M180.929,24.353h1.364l1.102,3.099c0.149,0.438,0.415,1.191,0.555,1.686h0.026
				c0.139-0.476,0.489-1.438,0.729-2.118l0.988-2.666h1.371l0.422,6.137h-1.061l-0.14-2.934c-0.033-0.646-0.078-1.423-0.108-2.182
				h-0.044c-0.157,0.551-0.315,1.06-0.669,1.973l-1.164,3.099h-0.807l-1.086-3.025c-0.2-0.589-0.464-1.475-0.62-2.04h-0.039
				c-0.023,0.739-0.067,1.545-0.11,2.194l-0.15,2.916h-1.017L180.929,24.353z"/>
			<path fill="#272929" d="M189.949,24.353v2.599c0,0.951-0.012,1.57-0.051,2.452h0.031c0.374-0.753,0.575-1.178,0.979-1.875
				l1.906-3.176h1.316v6.137h-1.069v-2.614c0-0.982,0.018-1.494,0.079-2.496h-0.048c-0.388,0.798-0.65,1.296-0.997,1.901
				c-0.582,0.945-1.251,2.136-1.908,3.209h-1.28v-6.137H189.949z"/>
			<path fill="#272929" d="M199.13,24.353l0.874,1.314c0.226,0.343,0.413,0.667,0.612,1.021h0.047
				c0.187-0.384,0.402-0.706,0.592-1.03l0.867-1.305h1.193l-2.079,2.955l2.155,3.182h-1.27l-0.893-1.38
				c-0.252-0.372-0.442-0.716-0.668-1.061h-0.014c-0.21,0.356-0.415,0.675-0.656,1.061l-0.872,1.38h-1.226l2.172-3.144l-2.078-2.993
				H199.13z"/>
			<path fill="#272929" d="M204.434,24.444c0.434-0.092,1.225-0.151,1.954-0.151c1.008,0,2.713,0.181,2.713,1.545
				c0,0.745-0.589,1.201-1.288,1.38v0.024c0.909,0.104,1.566,0.609,1.566,1.496c0,1.601-2.021,1.814-3.232,1.814
				c-0.684,0-1.378-0.039-1.713-0.063V24.444z M205.475,29.738c0.323,0.031,0.543,0.045,0.913,0.045c0.727,0,1.844-0.161,1.844-1.06
				c0-0.883-0.874-1.07-1.947-1.07h-0.81V29.738z M205.487,26.938h0.838c0.822,0,1.675-0.239,1.675-0.984
				c0-0.589-0.528-0.874-1.644-0.874c-0.363,0-0.605,0.018-0.869,0.035V26.938z"/>
			<path fill="#272929" d="M216.313,27.359c0,2.278-1.58,3.244-3.057,3.244c-1.656,0-2.915-1.188-2.915-3.123
				c0-2.068,1.334-3.244,3.018-3.244C215.126,24.236,216.313,25.497,216.313,27.359z M211.453,27.435
				c0,1.333,0.78,2.334,1.866,2.334c1.055,0,1.846-0.984,1.846-2.365c0-1.024-0.512-2.335-1.819-2.335
				C212.017,25.069,211.453,26.26,211.453,27.435z"/>
			<path fill="#272929" d="M217.715,26.365c0-0.776-0.021-1.426-0.052-2.013h1.003l0.036,1.047h0.031
				c0.465-0.739,1.169-1.163,2.171-1.163c1.474,0,2.589,1.229,2.589,3.081c0,2.202-1.332,3.286-2.778,3.286
				c-0.813,0-1.506-0.337-1.89-0.938h-0.018v3.319h-1.093V26.365z M218.808,27.994c0,0.146,0.018,0.322,0.05,0.438
				c0.212,0.772,0.884,1.307,1.675,1.307c1.162,0,1.846-0.953,1.846-2.364c0-1.209-0.636-2.27-1.805-2.27
				c-0.77,0-1.48,0.543-1.685,1.371c-0.047,0.153-0.081,0.299-0.081,0.476V27.994z"/>
			<path fill="#272929" d="M230.427,27.359c0,2.278-1.553,3.244-3.039,3.244c-1.646,0-2.931-1.188-2.931-3.123
				c0-2.068,1.333-3.244,3.04-3.244C229.249,24.236,230.427,25.497,230.427,27.359z M225.589,27.435c0,1.333,0.76,2.334,1.844,2.334
				c1.059,0,1.863-0.984,1.863-2.365c0-1.024-0.527-2.335-1.83-2.335C226.156,25.069,225.589,26.26,225.589,27.435z"/>
			<path fill="#272929" d="M236.461,22.304c-0.325,0.092-0.884,0.202-1.287,0.278c-0.975,0.128-1.689,0.465-2.171,1.142
				c-0.387,0.555-0.604,1.373-0.667,2.007h0.048c0.386-0.884,1.254-1.378,2.106-1.378c1.505,0,2.607,1.071,2.607,3.021
				c0,2.016-1.023,3.229-2.822,3.229c-2.139,0-2.854-2.037-2.854-4.092c0-1.39,0.295-2.509,0.945-3.363
				c0.6-0.845,1.432-1.258,2.637-1.451c0.481-0.088,1.1-0.165,1.511-0.338L236.461,22.304z M235.972,27.467
				c0-0.991-0.395-2.293-1.697-2.293c-0.65,0-1.133,0.356-1.38,0.836c-0.195,0.385-0.311,0.807-0.311,1.298
				c0,1.035,0.511,2.476,1.722,2.476c1.226,0,1.666-1.177,1.666-2.303V27.467z"/>
			<path fill="#272929" d="M242.788,29.002c0,0.529,0.031,1.046,0.123,1.487h-1.021l-0.078-0.777h-0.047
				c-0.345,0.483-1.009,0.892-1.86,0.892c-1.239,0-1.884-0.865-1.884-1.732c0-1.497,1.326-2.304,3.674-2.288v-0.12
				c0-0.519-0.135-1.404-1.374-1.404c-0.571,0-1.177,0.158-1.61,0.438l-0.248-0.718c0.506-0.335,1.24-0.543,2.01-0.543
				c1.883,0,2.316,1.261,2.316,2.491V29.002z M241.718,27.346c-1.209-0.028-2.589,0.204-2.589,1.378c0,0.732,0.497,1.06,1.064,1.06
				c0.799,0,1.293-0.502,1.48-1.015c0.021-0.118,0.045-0.232,0.045-0.363V27.346z"/>
			<path fill="#272929" d="M244.667,24.353h1.365l1.107,3.099c0.143,0.438,0.412,1.191,0.546,1.686h0.02
				c0.139-0.476,0.497-1.438,0.729-2.118l0.993-2.666h1.381l0.418,6.137h-1.071l-0.139-2.934c-0.018-0.646-0.076-1.423-0.109-2.182
				h-0.039c-0.146,0.551-0.316,1.06-0.674,1.973l-1.163,3.099h-0.806l-1.085-3.025c-0.202-0.589-0.466-1.475-0.622-2.04h-0.029
				c-0.031,0.739-0.078,1.545-0.114,2.194l-0.143,2.916h-1.03L244.667,24.353z"/>
			<path fill="#272929" d="M253.682,24.353v2.599c0,0.951-0.003,1.57-0.05,2.452h0.042c0.361-0.753,0.563-1.178,0.966-1.875
				l1.908-3.176h1.317v6.137h-1.057v-2.614c0-0.982,0.01-1.494,0.064-2.496h-0.047c-0.387,0.798-0.65,1.296-0.992,1.901
				c-0.588,0.945-1.255,2.136-1.906,3.209h-1.287v-6.137H253.682z"/>
			<path fill="#272929" d="M65.011,41.905c-0.063-1.203-0.138-2.625-0.127-3.694h-0.033c-0.292,1.021-0.649,2.096-1.076,3.241
				l-1.502,4.122H61.44l-1.379-4.053c-0.402-1.181-0.748-2.28-0.986-3.311h-0.027c-0.024,1.069-0.084,2.491-0.163,3.776
				l-0.227,3.643h-1.045l0.59-8.518h1.402l1.454,4.116c0.353,1.052,0.646,1.998,0.856,2.893h0.041
				c0.211-0.864,0.516-1.818,0.893-2.893l1.517-4.116h1.403l0.531,8.518h-1.072L65.011,41.905z"/>
			<path fill="#272929" d="M69.196,37.813c0.013,0.368-0.264,0.665-0.711,0.665c-0.389,0-0.666-0.297-0.666-0.665
				c0-0.41,0.293-0.71,0.695-0.71C68.933,37.103,69.196,37.402,69.196,37.813z M67.958,45.631v-6.102h1.113v6.102H67.958z"/>
			<path fill="#272929" d="M71.984,39.528v2.459h2.905v-2.459h1.102v6.102H74.89v-2.773h-2.905v2.773h-1.099v-6.102H71.984z"/>
			<path fill="#272929" d="M79.046,37.813c0.013,0.368-0.265,0.665-0.701,0.665c-0.395,0-0.674-0.297-0.674-0.665
				c0-0.41,0.29-0.71,0.694-0.71C78.781,37.103,79.046,37.402,79.046,37.813z M77.811,45.631v-6.102h1.109v6.102H77.811z"/>
			<path fill="#272929" d="M85.128,45.412c-0.295,0.14-0.935,0.372-1.756,0.372c-1.851,0-3.049-1.282-3.049-3.148
				c0-1.875,1.293-3.241,3.283-3.241c0.656,0,1.242,0.159,1.546,0.327l-0.255,0.86c-0.268-0.172-0.683-0.288-1.291-0.288
				c-1.402,0-2.155,1.024-2.155,2.287c0,1.419,0.905,2.304,2.116,2.304c0.638,0,1.051-0.169,1.365-0.312L85.128,45.412z"/>
			<path fill="#272929" d="M90.76,39.528v0.869h-1.909v5.233h-1.098v-5.233h-1.908v-0.869H90.76z"/>
			<path fill="#272929" d="M92.187,42.788c0.029,1.493,0.99,2.126,2.1,2.126c0.797,0,1.27-0.159,1.688-0.324l0.195,0.792
				c-0.392,0.17-1.063,0.402-2.033,0.402c-1.885,0-3.008-1.268-3.008-3.101c0-1.834,1.088-3.305,2.869-3.305
				c1.99,0,2.52,1.771,2.52,2.885c0,0.239-0.024,0.404-0.035,0.525H92.187z M95.444,41.987c0.015-0.715-0.291-1.816-1.542-1.816
				c-1.119,0-1.618,1.032-1.702,1.816H95.444z"/>
			<path fill="#272929" d="M97.896,41.51c0-0.78-0.027-1.413-0.05-1.981h0.997l0.057,1.054h0.021
				c0.451-0.759,1.174-1.203,2.175-1.203c1.478,0,2.589,1.254,2.589,3.124c0,2.195-1.343,3.281-2.782,3.281
				c-0.808,0-1.517-0.357-1.878-0.976h-0.029v3.333h-1.1V41.51z M98.995,43.137c0,0.187,0.029,0.321,0.055,0.474
				c0.196,0.774,0.865,1.304,1.662,1.304c1.181,0,1.861-0.982,1.861-2.374c0-1.223-0.646-2.26-1.824-2.26
				c-0.751,0-1.461,0.541-1.68,1.378c-0.031,0.115-0.074,0.302-0.074,0.436V43.137z"/>
			<path fill="#272929" d="M109.439,45.412c-0.288,0.14-0.935,0.372-1.755,0.372c-1.836,0-3.041-1.282-3.041-3.148
				c0-1.875,1.287-3.241,3.282-3.241c0.661,0,1.236,0.159,1.54,0.327l-0.25,0.86c-0.265-0.172-0.684-0.288-1.29-0.288
				c-1.397,0-2.161,1.024-2.161,2.287c0,1.419,0.916,2.304,2.129,2.304c0.627,0,1.043-0.169,1.363-0.312L109.439,45.412z"/>
			<path fill="#272929" d="M115.078,39.528v0.869h-1.907v5.233h-1.102v-5.233h-1.906v-0.869H115.078z"/>
			<path fill="#272929" d="M116.026,39.586c0.433-0.058,1.225-0.115,1.949-0.115c1.016,0,2.716,0.142,2.716,1.51
				c0,0.757-0.587,1.243-1.282,1.377v0.032c0.9,0.135,1.561,0.644,1.561,1.513c0,1.616-2.024,1.819-3.229,1.819
				c-0.682,0-1.385-0.062-1.715-0.091V39.586z M117.071,44.914c0.318,0.04,0.543,0.049,0.904,0.049c0.738,0,1.85-0.196,1.85-1.065
				c0-0.877-0.88-1.081-1.945-1.081h-0.809V44.914z M117.084,42.08h0.835c0.82,0,1.672-0.235,1.672-0.942
				c0-0.609-0.529-0.906-1.644-0.906c-0.365,0-0.599,0.033-0.863,0.063V42.08z"/>
			<path fill="#272929" d="M126.665,44.173c0,0.535,0.027,1.059,0.097,1.458h-1.005l-0.096-0.762h-0.035
				c-0.341,0.467-0.995,0.915-1.871,0.915c-1.239,0-1.865-0.87-1.865-1.769c0-1.476,1.308-2.289,3.674-2.278v-0.108
				c0-0.504-0.139-1.426-1.393-1.426c-0.568,0-1.154,0.173-1.586,0.448l-0.25-0.729c0.5-0.336,1.237-0.543,2.004-0.543
				c1.865,0,2.326,1.272,2.326,2.512V44.173z M125.594,42.524c-1.212-0.021-2.589,0.19-2.589,1.373c0,0.724,0.47,1.065,1.04,1.065
				c0.795,0,1.306-0.516,1.478-1.04c0.041-0.093,0.071-0.243,0.071-0.336V42.524z"/>
			<path fill="#272929" d="M136.666,42.532c0,2.249-1.564,3.252-3.038,3.252c-1.658,0-2.939-1.225-2.939-3.161
				c0-2.028,1.343-3.244,3.032-3.244C135.477,39.379,136.666,40.651,136.666,42.532z M131.815,42.581
				c0,1.342,0.77,2.373,1.856,2.373c1.067,0,1.864-1.023,1.864-2.397c0-1.036-0.518-2.34-1.84-2.34
				C132.388,40.218,131.815,41.437,131.815,42.581z"/>
			<path fill="#272929" d="M138.428,39.528l0.865,1.321c0.231,0.326,0.417,0.632,0.627,0.98h0.029
				c0.209-0.368,0.403-0.671,0.612-0.995l0.86-1.307h1.2l-2.09,2.962l2.145,3.141h-1.255l-0.903-1.381
				c-0.234-0.348-0.441-0.672-0.653-1.055h-0.028c-0.194,0.392-0.418,0.702-0.641,1.055l-0.888,1.381h-1.225l2.174-3.106
				l-2.066-2.996H138.428z"/>
			<path fill="#272929" d="M149.108,42.532c0,2.249-1.559,3.252-3.041,3.252c-1.649,0-2.929-1.225-2.929-3.161
				c0-2.028,1.333-3.244,3.036-3.244C147.93,39.379,149.108,40.651,149.108,42.532z M144.267,42.581c0,1.342,0.765,2.373,1.85,2.373
				c1.059,0,1.857-1.023,1.857-2.397c0-1.036-0.52-2.34-1.828-2.34C144.832,40.218,144.267,41.437,144.267,42.581z"/>
			<path fill="#272929" d="M150.518,41.51c0-0.78-0.028-1.413-0.058-1.981h1.007l0.046,1.054h0.02
				c0.461-0.759,1.186-1.203,2.172-1.203c1.482,0,2.589,1.254,2.589,3.124c0,2.195-1.339,3.281-2.768,3.281
				c-0.807,0-1.518-0.357-1.883-0.976h-0.023v3.333h-1.102V41.51z M151.62,43.137c0,0.187,0.023,0.321,0.041,0.474
				c0.208,0.774,0.876,1.304,1.668,1.304c1.179,0,1.859-0.982,1.859-2.374c0-1.223-0.648-2.26-1.814-2.26
				c-0.766,0-1.465,0.541-1.688,1.378c-0.035,0.115-0.066,0.302-0.066,0.436V43.137z"/>
			<path fill="#272929" d="M163.232,42.532c0,2.249-1.561,3.252-3.036,3.252c-1.657,0-2.939-1.225-2.939-3.161
				c0-2.028,1.343-3.244,3.035-3.244C162.045,39.379,163.232,40.651,163.232,42.532z M158.385,42.581
				c0,1.342,0.767,2.373,1.854,2.373c1.071,0,1.865-1.023,1.865-2.397c0-1.036-0.519-2.34-1.842-2.34
				C158.958,40.218,158.385,41.437,158.385,42.581z"/>
			<path fill="#272929" d="M165.708,39.528v2.459h2.912v-2.459h1.102v6.102h-1.102v-2.773h-2.912v2.773h-1.1v-6.102H165.708z"/>
			<path fill="#272929" d="M172.561,39.528v2.565c0,0.981-0.015,1.573-0.065,2.449h0.035c0.37-0.713,0.589-1.165,0.992-1.859
				l1.908-3.155h1.294v6.102h-1.062v-2.575c0-1.017,0.03-1.534,0.085-2.499h-0.04c-0.389,0.776-0.654,1.258-1.02,1.894
				c-0.57,0.928-1.244,2.109-1.906,3.181h-1.264v-6.102H172.561z"/>
			<path fill="#272929" d="M181.725,42.08h0.53c0.93,0,1.556-0.412,1.556-0.98c0-0.543-0.486-0.897-1.185-0.897
				c-0.482,0-1.039,0.163-1.473,0.43l-0.279-0.682c0.613-0.388,1.318-0.557,2.032-0.557c0.929,0,2.077,0.419,2.077,1.6
				c0,0.754-0.698,1.263-1.381,1.396v0.03c0.9,0.083,1.673,0.636,1.673,1.512c0,1.337-1.353,1.843-2.649,1.843
				c-0.723,0-1.432-0.212-1.975-0.506l0.285-0.752c0.436,0.238,1.039,0.438,1.622,0.438c0.921,0,1.504-0.466,1.504-1.057
				c0-0.822-0.862-1.061-1.78-1.061h-0.558V42.08z"/>
			<path fill="#272929" d="M191.403,39.528v5.265l0.621,0.016l-0.057,2.773h-0.873l-0.06-1.951h-4.229l-0.039,1.951h-0.883
				l-0.045-2.773l0.523-0.016c0.266-0.374,0.455-0.808,0.593-1.229c0.248-0.764,0.368-1.584,0.368-2.438v-1.597H191.403z
				 M188.296,41.393c0,0.808-0.115,1.585-0.304,2.253c-0.126,0.432-0.309,0.802-0.505,1.136h2.83v-4.415h-2.021V41.393z"/>
			<path fill="#272929" d="M198.833,42.532c0,2.249-1.557,3.252-3.044,3.252c-1.646,0-2.925-1.225-2.925-3.161
				c0-2.028,1.332-3.244,3.036-3.244C197.655,39.379,198.833,40.651,198.833,42.532z M193.993,42.581
				c0,1.342,0.762,2.373,1.848,2.373c1.057,0,1.855-1.023,1.855-2.397c0-1.036-0.521-2.34-1.824-2.34
				C194.556,40.218,193.993,41.437,193.993,42.581z"/>
			<path fill="#272929" d="M200.247,41.51c0-0.78-0.031-1.413-0.063-1.981h1.008l0.045,1.054h0.02
				c0.463-0.759,1.188-1.203,2.172-1.203c1.485,0,2.589,1.254,2.589,3.124c0,2.195-1.337,3.281-2.763,3.281
				c-0.811,0-1.52-0.357-1.889-0.976h-0.02v3.333h-1.1V41.51z M201.347,43.137c0,0.187,0.02,0.321,0.036,0.474
				c0.214,0.774,0.88,1.304,1.671,1.304c1.178,0,1.86-0.982,1.86-2.374c0-1.223-0.652-2.26-1.814-2.26
				c-0.768,0-1.465,0.541-1.69,1.378c-0.036,0.115-0.063,0.302-0.063,0.436V43.137z"/>
			<path fill="#272929" d="M212.955,42.532c0,2.249-1.558,3.252-3.032,3.252c-1.658,0-2.945-1.225-2.945-3.161
				c0-2.028,1.345-3.244,3.039-3.244C211.768,39.379,212.955,40.651,212.955,42.532z M208.11,42.581
				c0,1.342,0.764,2.373,1.851,2.373c1.075,0,1.87-1.023,1.87-2.397c0-1.036-0.52-2.34-1.846-2.34
				C208.685,40.218,208.11,41.437,208.11,42.581z"/>
			<path fill="#272929" d="M214.331,39.586c0.433-0.058,1.223-0.115,1.953-0.115c1.023,0,2.713,0.142,2.713,1.51
				c0,0.757-0.586,1.243-1.278,1.377v0.032c0.906,0.135,1.558,0.644,1.558,1.513c0,1.616-2.016,1.819-3.211,1.819
				c-0.684,0-1.394-0.062-1.734-0.091V39.586z M215.395,44.914c0.3,0.04,0.544,0.049,0.89,0.049c0.75,0,1.85-0.196,1.85-1.065
				c0-0.877-0.874-1.081-1.931-1.081h-0.81V44.914z M215.399,42.08h0.828c0.819,0,1.669-0.235,1.669-0.942
				c0-0.609-0.527-0.906-1.645-0.906c-0.356,0-0.581,0.033-0.852,0.063V42.08z"/>
			<path fill="#272929" d="M222.078,36.888c-0.278,1.046-0.823,2.412-1.188,2.991l-0.71,0.09c0.277-0.728,0.618-2.057,0.758-2.934
				L222.078,36.888z"/>
			<path fill="#272929" d="M227.761,45.631h-1.102v-2.556h-0.821c-0.48,0-0.778,0.12-1.033,0.325
				c-0.44,0.383-0.61,1.128-0.845,1.731c-0.092,0.178-0.17,0.365-0.254,0.499h-1.203c0.139-0.189,0.266-0.413,0.39-0.677
				c0.269-0.599,0.413-1.391,0.958-1.859c0.188-0.163,0.411-0.295,0.686-0.339v-0.041c-0.794-0.107-1.616-0.59-1.616-1.531
				c0-0.613,0.357-1.066,0.808-1.331c0.52-0.289,1.255-0.396,2.047-0.396c0.743,0,1.456,0.06,1.985,0.106V45.631z M226.659,40.265
				c-0.279-0.047-0.527-0.079-0.916-0.079c-0.775,0-1.657,0.212-1.657,1.06c0,0.78,0.974,1.058,1.627,1.058c0.45,0,0.698,0,0.946,0
				V40.265z"/>
			<path fill="#272929" d="M232.585,37.112l1.705,3.648c0.201,0.496,0.42,0.997,0.605,1.503h0.032
				c0.155-0.433,0.326-0.931,0.525-1.534l1.336-3.617h1.163l-1.784,4.385c-0.468,1.154-1.006,2.448-1.582,3.234
				c-0.558,0.71-1.193,1.063-1.938,1.063c-0.279,0-0.489-0.02-0.623-0.072l0.123-0.913c0.081,0.029,0.205,0.045,0.406,0.045
				c0.868,0,1.383-0.854,1.652-1.476c0.102-0.183,0.068-0.293-0.024-0.506l-2.842-5.76H232.585z"/>
			<path fill="#272929" d="M239.627,39.528v2.657h0.263l2.295-2.657h1.35l-2.661,2.752c0.971,0.109,1.575,0.775,2.05,1.873
				c0.16,0.39,0.394,0.994,0.669,1.477h-1.175c-0.171-0.265-0.371-0.73-0.573-1.234c-0.418-1.008-0.971-1.45-2.017-1.45h-0.2v2.684
				h-1.1v-6.102H239.627z"/>
			<path fill="#272929" d="M244.561,41.51c0-0.78-0.008-1.413-0.032-1.981h0.981l0.057,1.054h0.032
				c0.451-0.759,1.162-1.203,2.17-1.203c1.473,0,2.59,1.254,2.59,3.124c0,2.195-1.334,3.281-2.792,3.281
				c-0.806,0-1.513-0.357-1.876-0.976h-0.031v3.333h-1.099V41.51z M245.659,43.137c0,0.187,0.031,0.321,0.063,0.474
				c0.197,0.774,0.873,1.304,1.674,1.304c1.163,0,1.846-0.982,1.846-2.374c0-1.223-0.636-2.26-1.824-2.26
				c-0.749,0-1.463,0.541-1.664,1.378c-0.047,0.115-0.094,0.302-0.094,0.436V43.137z"/>
			<path fill="#272929" d="M256.05,44.173c0,0.535,0.031,1.059,0.093,1.458h-0.99l-0.107-0.762h-0.017
				c-0.359,0.467-1.01,0.915-1.891,0.915c-1.226,0-1.863-0.87-1.863-1.769c0-1.476,1.314-2.289,3.675-2.278v-0.108
				c0-0.504-0.14-1.426-1.395-1.426c-0.556,0-1.147,0.173-1.583,0.448l-0.246-0.729c0.494-0.336,1.24-0.543,1.999-0.543
				c1.864,0,2.325,1.272,2.325,2.512V44.173z M254.98,42.524c-1.21-0.021-2.589,0.19-2.589,1.373c0,0.724,0.473,1.065,1.037,1.065
				c0.798,0,1.32-0.516,1.482-1.04c0.038-0.093,0.069-0.243,0.069-0.336V42.524z"/>
			<path fill="#272929" d="M257.223,38.44c-0.364,0-0.628-0.295-0.628-0.643c0-0.367,0.295-0.662,0.635-0.662
				c0.374,0,0.638,0.28,0.638,0.662c0,0.348-0.249,0.643-0.638,0.643H257.223z M257.852,45.631v-6.102h1.116v6.102H257.852z
				 M259.556,38.44c-0.355,0-0.604-0.295-0.604-0.643c0-0.367,0.279-0.662,0.619-0.662c0.37,0,0.637,0.28,0.637,0.662
				c0,0.348-0.264,0.643-0.637,0.643H259.556z"/>
			<path fill="#272929" d="M261.866,39.528v2.459h2.916v-2.459h1.102v6.102h-1.102v-2.773h-2.916v2.773h-1.1v-6.102H261.866z"/>
			<path fill="#272929" d="M268.724,39.528v2.565c0,0.981-0.018,1.573-0.062,2.449h0.03c0.383-0.713,0.59-1.165,0.992-1.859
				l1.908-3.155h1.299v6.102h-1.068v-2.575c0-1.017,0.032-1.534,0.094-2.499h-0.046c-0.388,0.776-0.651,1.258-1.024,1.894
				c-0.557,0.928-1.228,2.109-1.906,3.181h-1.255v-6.102H268.724z"/>
		</g>
		<path fill="#D3514B" d="M8.796,31.551c6.063-5.655,5.51-11.394,1.356-13.566c7.431,0.31,11.514,10.924,3.814,18.735l2.129,2.116
			H6.67v-9.41L8.796,31.551z"/>
		<path fill="#D3514B" d="M12.511,20.881c-5.844,0.509-5.843,4.663-5.845,8.54L0,22.738l1.556-1.541
			C6.669,16.087,11.265,18.497,12.511,20.881"/>
		<path fill="#70B463" d="M31.556,36.721c-5.653-6.075-11.394-5.521-13.567-1.354c0.322-7.445,10.932-11.527,18.738-3.815
			l2.129-2.124v9.41h-9.425L31.556,36.721z"/>
		<path fill="#70B463" d="M20.89,32.999c0.517,5.837,4.657,5.835,8.533,5.838l-6.661,6.678l-1.563-1.579
			C16.091,38.834,18.498,34.243,20.89,32.999"/>
		<path fill="#679DD7" d="M13.967,8.772c5.658,6.059,11.398,5.507,13.571,1.358c-0.325,7.427-10.933,11.51-18.742,3.814L6.67,16.089
			V6.643h9.426L13.967,8.772z"/>
		<path fill="#679DD7" d="M24.627,12.513c-0.515-5.868-4.659-5.868-8.531-5.87L22.761,0l1.556,1.55
			C29.429,6.647,27.019,11.242,24.627,12.513"/>
		<path fill-rule="evenodd" clip-rule="evenodd" fill="#EBB149" d="M38.856,6.643v9.446l-2.129-2.145
			c-6.058,5.676-5.506,11.414-1.356,13.586c-7.427-0.322-11.511-10.929-3.815-18.758l-2.125-2.13H38.856z"/>
		<path fill="#EBB149" d="M33.005,24.603c5.846-0.513,5.845-4.654,5.847-8.51l6.667,6.646l-1.56,1.559
			C38.85,29.427,34.25,27.008,33.005,24.603"/>
		<g>
			<rect x="47.535" y="0.005" fill="#272929" width="0.53" height="57.234"/>
		</g>
	</g>
	<g>
		<path fill="#272929" d="M8.127,48.037l1.902,3.986c0.242,0.554,0.47,1.107,0.695,1.644h0.029c0.171-0.472,0.355-1.022,0.597-1.679
			l1.491-3.951h1.303l-1.999,4.8c-0.525,1.236-1.122,2.665-1.789,3.528c-0.627,0.746-1.32,1.155-2.172,1.155
			c-0.316,0-0.539-0.031-0.696-0.099l0.128-0.97c0.098,0.024,0.239,0.029,0.455,0.029c0.992,0,1.572-0.911,1.873-1.609
			c0.098-0.201,0.071-0.312-0.044-0.553l-3.178-6.282H8.127z"/>
		<path fill="#272929" d="M16.402,48.037v8.294h4.386v-8.294h1.248v8.328l0.84,0.033l-0.085,3.17h-0.979l-0.087-2.24h-6.557v-9.291
			H16.402z"/>
		<path fill="#272929" d="M25.643,48.037v4.118h0.383l3.279-4.118h1.489l-3.621,4.279c1.578,0.19,2.187,1.143,2.685,2.389
			c0.35,0.953,0.621,1.794,1.048,2.623h-1.333c-0.342-0.609-0.612-1.436-0.868-2.193c-0.44-1.208-1.048-2.057-2.666-2.057h-0.397
			v4.25h-1.221v-9.291H25.643z"/>
		<path fill="#272929" d="M38.799,57.028c-0.455,0.24-1.363,0.477-2.526,0.477c-2.698,0-4.728-1.676-4.728-4.735
			c0-2.894,2.03-4.882,5-4.882c1.191,0,1.943,0.244,2.27,0.414l-0.3,0.988c-0.466-0.213-1.134-0.406-1.93-0.406
			c-2.241,0-3.73,1.395-3.73,3.835c0,2.298,1.347,3.757,3.675,3.757c0.75,0,1.519-0.16,2.015-0.387L38.799,57.028z"/>
	</g>
</g>
</svg>
