<?xml version="1.0" encoding="utf-8"?>
<!-- Generator: Adobe Illustrator 17.0.0, SVG Export Plug-In . SVG Version: 6.00 Build 0)  -->
<!DOCTYPE svg PUBLIC "-//W3C//DTD SVG 1.1//EN" "http://www.w3.org/Graphics/SVG/1.1/DTD/svg11.dtd">
<svg version="1.1" id="Слой_1" xmlns="http://www.w3.org/2000/svg" xmlns:xlink="http://www.w3.org/1999/xlink" x="0px" y="0px"
	 width="327.397px" height="48.209px" viewBox="0 0 327.397 48.209" enable-background="new 0 0 327.397 48.209"
	 xml:space="preserve">
<g>
	<g>
		<path fill="#FFFFFF" d="M169.859,19.342h1.519v10.827h-1.519V19.342z"/>
		<path fill="#FFFFFF" d="M174.013,22.409h1.442v1.028c0,0.307-0.031,0.567-0.031,0.567h0.031c0.307-0.675,1.227-1.779,2.913-1.779
			c1.825,0,2.668,0.997,2.668,2.975v4.969h-1.487v-4.631c0-1.089-0.229-1.947-1.472-1.947c-1.181,0-2.132,0.782-2.454,1.901
			c-0.092,0.307-0.122,0.66-0.122,1.043v3.634h-1.488V22.409z"/>
		<path fill="#FFFFFF" d="M183.582,23.713h-1.012v-1.196h1.058v-2.239h1.441v2.239h1.871v1.196h-1.871v3.45
			c0,1.549,1.089,1.749,1.656,1.749c0.215,0,0.354-0.031,0.354-0.031V30.2c0,0-0.215,0.031-0.521,0.031
			c-0.997,0-2.976-0.307-2.976-2.898V23.713z"/>
		<path fill="#FFFFFF" d="M192.091,22.226c2.192,0,3.358,1.625,3.358,3.634c0,0.199-0.046,0.644-0.046,0.644h-5.659
			c0.077,1.702,1.288,2.561,2.668,2.561c1.335,0,2.301-0.905,2.301-0.905l0.613,1.089c0,0-1.15,1.104-3.006,1.104
			c-2.438,0-4.109-1.764-4.109-4.064C188.212,23.82,189.882,22.226,192.091,22.226z M193.931,25.384
			c-0.046-1.334-0.874-1.978-1.871-1.978c-1.135,0-2.055,0.706-2.27,1.978H193.931z"/>
		<path fill="#FFFFFF" d="M197.257,22.409h1.442v1.35c0,0.322-0.031,0.583-0.031,0.583h0.031c0.353-1.135,1.257-2.024,2.453-2.024
			c0.199,0,0.384,0.031,0.384,0.031v1.472c0,0-0.2-0.046-0.43-0.046c-0.951,0-1.825,0.674-2.178,1.825
			c-0.138,0.445-0.184,0.92-0.184,1.396v3.174h-1.488V22.409z"/>
		<path fill="#FFFFFF" d="M203.007,22.409h1.442v1.028c0,0.307-0.031,0.567-0.031,0.567h0.031c0.307-0.675,1.227-1.779,2.913-1.779
			c1.825,0,2.668,0.997,2.668,2.975v4.969h-1.487v-4.631c0-1.089-0.229-1.947-1.472-1.947c-1.181,0-2.132,0.782-2.454,1.901
			c-0.092,0.307-0.122,0.66-0.122,1.043v3.634h-1.488V22.409z"/>
		<path fill="#FFFFFF" d="M216.3,25.323h0.338v-0.138c0-1.273-0.722-1.702-1.703-1.702c-1.195,0-2.162,0.751-2.162,0.751
			l-0.613-1.089c0,0,1.12-0.92,2.898-0.92c1.963,0,3.067,1.073,3.067,3.036v4.907h-1.381v-0.736c0-0.353,0.031-0.613,0.031-0.613
			h-0.031c0,0-0.628,1.534-2.483,1.534c-1.335,0-2.638-0.813-2.638-2.362C211.624,25.43,214.997,25.323,216.3,25.323z
			 M214.583,29.157c1.258,0,2.07-1.319,2.07-2.469v-0.246h-0.383c-1.12,0-3.144,0.077-3.144,1.472
			C213.127,28.543,213.617,29.157,214.583,29.157z"/>
		<path fill="#FFFFFF" d="M220.67,23.713h-1.012v-1.196h1.058v-2.239h1.441v2.239h1.871v1.196h-1.871v3.45
			c0,1.549,1.089,1.749,1.656,1.749c0.215,0,0.354-0.031,0.354-0.031V30.2c0,0-0.215,0.031-0.521,0.031
			c-0.997,0-2.976-0.307-2.976-2.898V23.713z"/>
		<path fill="#FFFFFF" d="M225.821,19.342h1.503v1.518h-1.503V19.342z M225.836,22.409h1.488v7.76h-1.488V22.409z"/>
		<path fill="#FFFFFF" d="M233.272,22.226c2.316,0,4.187,1.702,4.187,4.048c0,2.361-1.87,4.079-4.187,4.079
			c-2.315,0-4.187-1.718-4.187-4.079C229.086,23.928,230.957,22.226,233.272,22.226z M233.272,29.065
			c1.473,0,2.669-1.166,2.669-2.791c0-1.61-1.196-2.76-2.669-2.76c-1.456,0-2.668,1.15-2.668,2.76
			C230.604,27.899,231.816,29.065,233.272,29.065z"/>
		<path fill="#FFFFFF" d="M239.22,22.409h1.442v1.028c0,0.307-0.031,0.567-0.031,0.567h0.031c0.307-0.675,1.227-1.779,2.913-1.779
			c1.825,0,2.668,0.997,2.668,2.975v4.969h-1.487v-4.631c0-1.089-0.229-1.947-1.472-1.947c-1.181,0-2.132,0.782-2.454,1.901
			c-0.092,0.307-0.122,0.66-0.122,1.043v3.634h-1.488V22.409z"/>
		<path fill="#FFFFFF" d="M252.514,25.323h0.338v-0.138c0-1.273-0.722-1.702-1.703-1.702c-1.195,0-2.162,0.751-2.162,0.751
			l-0.613-1.089c0,0,1.12-0.92,2.898-0.92c1.963,0,3.067,1.073,3.067,3.036v4.907h-1.381v-0.736c0-0.353,0.031-0.613,0.031-0.613
			h-0.031c0,0-0.628,1.534-2.483,1.534c-1.335,0-2.638-0.813-2.638-2.362C247.838,25.43,251.211,25.323,252.514,25.323z
			 M250.797,29.157c1.258,0,2.07-1.319,2.07-2.469v-0.246h-0.383c-1.12,0-3.144,0.077-3.144,1.472
			C249.34,28.543,249.831,29.157,250.797,29.157z"/>
		<path fill="#FFFFFF" d="M256.469,19.342h1.487v8.45c0,0.936,0.368,1.104,0.828,1.104c0.139,0,0.261-0.015,0.261-0.015V30.2
			c0,0-0.229,0.031-0.49,0.031c-0.844,0-2.086-0.23-2.086-2.178V19.342z"/>
		<path fill="#FFFFFF" d="M269.64,19.158c2.607,0,3.941,1.426,3.941,1.426l-0.752,1.135c0,0-1.257-1.181-3.128-1.181
			c-2.423,0-4.003,1.84-4.003,4.141c0,2.315,1.61,4.278,4.019,4.278c2.039,0,3.343-1.411,3.343-1.411l0.813,1.088
			c0,0-1.487,1.718-4.201,1.718c-3.251,0-5.536-2.484-5.536-5.659C264.135,21.551,266.497,19.158,269.64,19.158z"/>
		<path fill="#FFFFFF" d="M278.977,22.226c2.192,0,3.358,1.625,3.358,3.634c0,0.199-0.046,0.644-0.046,0.644h-5.659
			c0.077,1.702,1.288,2.561,2.668,2.561c1.335,0,2.301-0.905,2.301-0.905l0.613,1.089c0,0-1.15,1.104-3.006,1.104
			c-2.438,0-4.109-1.764-4.109-4.064C275.097,23.82,276.768,22.226,278.977,22.226z M280.817,25.384
			c-0.046-1.334-0.874-1.978-1.871-1.978c-1.135,0-2.055,0.706-2.27,1.978H280.817z"/>
		<path fill="#FFFFFF" d="M284.142,22.409h1.442v1.028c0,0.307-0.031,0.567-0.031,0.567h0.031c0.307-0.675,1.227-1.779,2.913-1.779
			c1.825,0,2.668,0.997,2.668,2.975v4.969h-1.487v-4.631c0-1.089-0.229-1.947-1.472-1.947c-1.181,0-2.132,0.782-2.454,1.901
			c-0.092,0.307-0.122,0.66-0.122,1.043v3.634h-1.488V22.409z"/>
		<path fill="#FFFFFF" d="M293.71,23.713h-1.012v-1.196h1.058v-2.239h1.441v2.239h1.871v1.196h-1.871v3.45
			c0,1.549,1.089,1.749,1.656,1.749c0.215,0,0.354-0.031,0.354-0.031V30.2c0,0-0.215,0.031-0.521,0.031
			c-0.997,0-2.976-0.307-2.976-2.898V23.713z"/>
		<path fill="#FFFFFF" d="M302.22,22.226c2.192,0,3.358,1.625,3.358,3.634c0,0.199-0.046,0.644-0.046,0.644h-5.659
			c0.077,1.702,1.288,2.561,2.668,2.561c1.335,0,2.301-0.905,2.301-0.905l0.613,1.089c0,0-1.15,1.104-3.006,1.104
			c-2.438,0-4.109-1.764-4.109-4.064C298.34,23.82,300.011,22.226,302.22,22.226z M304.06,25.384
			c-0.046-1.334-0.874-1.978-1.871-1.978c-1.135,0-2.055,0.706-2.27,1.978H304.06z"/>
		<path fill="#FFFFFF" d="M307.385,22.409h1.442v1.35c0,0.322-0.031,0.583-0.031,0.583h0.031c0.353-1.135,1.257-2.024,2.453-2.024
			c0.199,0,0.384,0.031,0.384,0.031v1.472c0,0-0.2-0.046-0.43-0.046c-0.951,0-1.825,0.674-2.178,1.825
			c-0.138,0.445-0.184,0.92-0.184,1.396v3.174h-1.488V22.409z"/>
		<path fill="#FFFFFF" d="M171.77,38.962c2.296,0,4.15,1.687,4.15,4.012c0,2.342-1.854,4.043-4.15,4.043
			c-2.295,0-4.15-1.702-4.15-4.043C167.62,40.649,169.475,38.962,171.77,38.962z M171.77,45.741c1.46,0,2.646-1.155,2.646-2.767
			c0-1.595-1.186-2.736-2.646-2.736c-1.443,0-2.645,1.14-2.645,2.736C169.126,44.586,170.327,45.741,171.77,45.741z"/>
		<path fill="#FFFFFF" d="M177.667,39.144h1.43v1.018c0,0.304-0.031,0.562-0.031,0.562h0.031c0.304-0.669,1.216-1.763,2.888-1.763
			c1.809,0,2.645,0.987,2.645,2.949v4.925h-1.474v-4.59c0-1.079-0.227-1.931-1.459-1.931c-1.17,0-2.113,0.775-2.433,1.886
			c-0.091,0.304-0.121,0.653-0.121,1.033v3.603h-1.475V39.144z"/>
		<path fill="#FFFFFF" d="M190.292,36.05h1.503l4.82,7.045c0.399,0.584,0.906,1.566,0.906,1.566h0.03c0,0-0.108-0.967-0.108-1.566
			V36.05h1.52v10.837h-1.489l-4.836-7.031c-0.399-0.598-0.905-1.581-0.905-1.581h-0.031c0,0,0.108,0.967,0.108,1.581v7.031h-1.519
			V36.05z"/>
		<path fill="#FFFFFF" d="M205.224,38.936c2.319,0,4.191,1.704,4.191,4.052c0,2.365-1.872,4.083-4.191,4.083
			c-2.318,0-4.191-1.719-4.191-4.083C201.033,40.64,202.906,38.936,205.224,38.936z M205.224,45.782
			c1.474,0,2.672-1.166,2.672-2.794c0-1.611-1.198-2.763-2.672-2.763c-1.458,0-2.671,1.152-2.671,2.763
			C202.553,44.616,203.766,45.782,205.224,45.782z"/>
		<path fill="#FFFFFF" d="M211.178,39.12h1.444v1.028c0,0.307-0.031,0.568-0.031,0.568h0.031c0.307-0.675,1.228-1.78,2.916-1.78
			c1.827,0,2.671,0.997,2.671,2.978v4.974h-1.489v-4.636c0-1.09-0.23-1.95-1.473-1.95c-1.182,0-2.134,0.783-2.457,1.904
			c-0.092,0.307-0.122,0.66-0.122,1.043v3.638h-1.49V39.12z"/>
		<path fill="#FFFFFF" d="M219.374,39.12h1.581l1.889,5.25c0.153,0.429,0.245,1.059,0.261,1.059h0.03
			c0.016,0,0.123-0.63,0.277-1.059l1.888-5.25h1.566l-2.87,7.768h-1.72L219.374,39.12z"/>
		<path fill="#FFFFFF" d="M228.122,36.05h1.504v1.519h-1.504V36.05z M228.137,39.12h1.49v7.768h-1.49V39.12z"/>
		<path fill="#FFFFFF" d="M235.582,38.936c2.319,0,4.191,1.704,4.191,4.052c0,2.365-1.872,4.083-4.191,4.083
			c-2.318,0-4.191-1.719-4.191-4.083C231.391,40.64,233.264,38.936,235.582,38.936z M235.582,45.782
			c1.474,0,2.672-1.166,2.672-2.794c0-1.611-1.198-2.763-2.672-2.763c-1.458,0-2.671,1.152-2.671,2.763
			C232.911,44.616,234.125,45.782,235.582,45.782z"/>
		<path fill="#FFFFFF" d="M241.443,36.05h1.489v8.458c0,0.936,0.369,1.106,0.829,1.106c0.139,0,0.261-0.016,0.261-0.016v1.32
			c0,0-0.23,0.031-0.491,0.031c-0.845,0-2.088-0.231-2.088-2.18V36.05z"/>
		<path fill="#FFFFFF" d="M248.95,38.936c2.195,0,3.362,1.627,3.362,3.637c0,0.2-0.046,0.645-0.046,0.645h-5.665
			c0.077,1.704,1.289,2.563,2.671,2.563c1.336,0,2.303-0.905,2.303-0.905l0.614,1.09c0,0-1.152,1.105-3.009,1.105
			c-2.441,0-4.114-1.764-4.114-4.068C245.066,40.533,246.739,38.936,248.95,38.936z M250.792,42.099
			c-0.046-1.336-0.875-1.981-1.873-1.981c-1.136,0-2.057,0.706-2.272,1.981H250.792z"/>
		<path fill="#FFFFFF" d="M254.12,39.12h1.444v1.028c0,0.307-0.031,0.568-0.031,0.568h0.031c0.307-0.675,1.228-1.78,2.916-1.78
			c1.827,0,2.671,0.997,2.671,2.978v4.974h-1.489v-4.636c0-1.09-0.23-1.95-1.473-1.95c-1.182,0-2.134,0.783-2.457,1.904
			c-0.092,0.307-0.122,0.66-0.122,1.043v3.638h-1.49V39.12z"/>
		<path fill="#FFFFFF" d="M263.698,40.425h-1.013v-1.198h1.059v-2.242h1.443v2.242h1.873v1.198h-1.873v3.454
			c0,1.55,1.09,1.75,1.658,1.75c0.215,0,0.354-0.03,0.354-0.03v1.32c0,0-0.215,0.031-0.522,0.031c-0.998,0-2.979-0.307-2.979-2.901
			V40.425z"/>
		<path fill="#FFFFFF" d="M277.111,35.921c2.62,0,3.96,1.414,3.96,1.414l-0.756,1.125c0,0-1.263-1.171-3.143-1.171
			c-2.435,0-4.022,1.825-4.022,4.104c0,2.295,1.618,4.241,4.038,4.241c2.049,0,3.359-1.398,3.359-1.398l0.816,1.079
			c0,0-1.495,1.702-4.221,1.702c-3.267,0-5.563-2.462-5.563-5.609C271.58,38.293,273.952,35.921,277.111,35.921z"/>
		<path fill="#FFFFFF" d="M286.771,38.962c2.328,0,4.207,1.687,4.207,4.012c0,2.342-1.879,4.043-4.207,4.043
			c-2.327,0-4.207-1.702-4.207-4.043C282.564,40.649,284.444,38.962,286.771,38.962z M286.771,45.741
			c1.48,0,2.682-1.155,2.682-2.767c0-1.595-1.202-2.736-2.682-2.736c-1.463,0-2.681,1.14-2.681,2.736
			C284.09,44.586,285.308,45.741,286.771,45.741z"/>
		<path fill="#FFFFFF" d="M292.747,39.144h1.449v1.018c0,0.304-0.031,0.562-0.031,0.562h0.031c0.308-0.669,1.232-1.763,2.927-1.763
			c1.834,0,2.681,0.987,2.681,2.949v4.925h-1.494v-4.59c0-1.079-0.231-1.931-1.479-1.931c-1.186,0-2.142,0.775-2.466,1.886
			c-0.092,0.304-0.123,0.653-0.123,1.033v3.603h-1.495V39.144z"/>
		<path fill="#FFFFFF" d="M302.453,40.436h-0.97V39.25h0.97v-0.365c0-2.538,1.942-2.858,2.928-2.858c0.339,0,0.57,0.045,0.57,0.045
			v1.262c0,0-0.154-0.031-0.386-0.031c-0.57,0-1.633,0.183-1.633,1.612v0.334h1.849v1.186h-1.849v6.4h-1.48V40.436z"/>
		<path fill="#FFFFFF" d="M307.122,36.104h1.494v8.375c0,0.927,0.37,1.095,0.832,1.095c0.139,0,0.262-0.015,0.262-0.015v1.307
			c0,0-0.231,0.031-0.493,0.031c-0.848,0-2.096-0.228-2.096-2.159V36.104z"/>
		<path fill="#FFFFFF" d="M311.281,36.104h1.51v1.504h-1.51V36.104z M311.296,39.144h1.495v7.692h-1.495V39.144z"/>
		<path fill="#FFFFFF" d="M318.754,38.962c1.957,0,2.927,1.125,2.927,1.125l-0.708,1.034c0,0-0.832-0.882-2.158-0.882
			c-1.571,0-2.711,1.155-2.711,2.736c0,1.566,1.14,2.767,2.758,2.767c1.448,0,2.403-1.033,2.403-1.033l0.602,1.078
			c0,0-1.079,1.231-3.113,1.231c-2.45,0-4.176-1.717-4.176-4.028C314.577,40.71,316.303,38.962,318.754,38.962z"/>
		<path fill="#FFFFFF" d="M323.883,40.436h-1.017V39.25h1.063v-2.22h1.448v2.22h1.88v1.186h-1.88v3.42
			c0,1.535,1.094,1.733,1.664,1.733c0.216,0,0.355-0.03,0.355-0.03v1.307c0,0-0.216,0.031-0.524,0.031
			c-1.002,0-2.99-0.304-2.99-2.873V40.436z"/>
	</g>
	<g>
		<path fill="#E7AC11" d="M64.524,47.095V0.985h12.831L95.58,25.313l0.043-24.327h12.686v46.11H95.55L77.226,21.719L77.21,47.095
			H64.524z"/>
		<path fill="#FFFFFF" d="M0,0.786h12.748v47.423H0V0.786z"/>
		<path fill="#FFFFFF" d="M42.08,36.65c-6.282,0-11.375-5.581-11.375-12.465c0-6.885,5.093-12.465,11.375-12.465
			c3.268,0,6.206,1.519,8.28,3.937l9.909-7.821C55.728,3.021,49.193,0,41.929,0C28.211,0,17.09,10.768,17.09,24.052
			c0,13.284,11.121,24.052,24.839,24.052c7.583,0,14.368-3.294,18.924-8.481L50.77,32.219C48.683,34.926,45.567,36.65,42.08,36.65z"
			/>
		<path fill="#FFFFFF" d="M138.086,36.65c-6.282,0-11.375-5.581-11.375-12.465c0-6.885,5.093-12.465,11.375-12.465
			c3.268,0,6.206,1.519,8.28,3.937l9.909-7.821C151.734,3.021,145.199,0,137.935,0c-13.718,0-24.839,10.768-24.839,24.052
			c0,13.284,11.121,24.052,24.839,24.052c7.583,0,14.368-3.294,18.924-8.481l-10.083-7.404
			C144.689,34.926,141.573,36.65,138.086,36.65z"/>
	</g>
</g>
</svg>
