<svg id="Слой_1" data-name="Слой 1" xmlns="http://www.w3.org/2000/svg" xmlns:xlink="http://www.w3.org/1999/xlink" viewBox="0 0 344.03 148.77"><defs><style>.cls-1{fill:#fff;}.cls-2{fill:url(#Безымянный_градиент_37);}.cls-3{fill:url(#Безымянный_градиент_37-8);}.cls-4{fill:url(#Безымянный_градиент_37-11);}.cls-5{fill:url(#Безымянный_градиент_37-14);}.cls-6{fill:url(#Безымянный_градиент_37-23);}.cls-7{fill:url(#Безымянный_градиент_37-26);}.cls-8{fill:url(#Безымянный_градиент_37-29);}.cls-9{fill:url(#Безымянный_градиент_37-30);}.cls-10{fill:url(#Безымянный_градиент_37-49);}.cls-11{fill:url(#Безымянный_градиент_37-50);}.cls-12{fill:url(#Безымянный_градиент_37-51);}.cls-13{fill:#2d2d2d;}</style><linearGradient id="Безымянный_градиент_37" x1="344" y1="114.13" x2="161.19" y2="114.13" gradientUnits="userSpaceOnUse"><stop offset="0" stop-color="#00d47e"/><stop offset="1" stop-color="#aad444"/></linearGradient><linearGradient id="Безымянный_градиент_37-8" x1="344" y1="114.13" x2="161.19" y2="114.13" xlink:href="#Безымянный_градиент_37"/><linearGradient id="Безымянный_градиент_37-11" x1="344" y1="114.12" x2="161.19" y2="114.12" xlink:href="#Безымянный_градиент_37"/><linearGradient id="Безымянный_градиент_37-14" x1="344" y1="114.17" x2="161.19" y2="114.17" xlink:href="#Безымянный_градиент_37"/><linearGradient id="Безымянный_градиент_37-23" x1="160.99" y1="33.03" x2="344.36" y2="33.03" xlink:href="#Безымянный_градиент_37"/><linearGradient id="Безымянный_градиент_37-26" x1="160.99" y1="33.02" x2="344.36" y2="33.02" xlink:href="#Безымянный_градиент_37"/><linearGradient id="Безымянный_градиент_37-29" x1="160.99" y1="33.01" x2="344.36" y2="33.01" xlink:href="#Безымянный_градиент_37"/><linearGradient id="Безымянный_градиент_37-30" x1="160.99" y1="33.06" x2="344.36" y2="33.06" xlink:href="#Безымянный_градиент_37"/><linearGradient id="Безымянный_градиент_37-49" x1="163.39" y1="103.56" x2="342.51" y2="103.56" xlink:href="#Безымянный_градиент_37"/><linearGradient id="Безымянный_градиент_37-50" x1="347.24" y1="42.6" x2="159.69" y2="42.6" xlink:href="#Безымянный_градиент_37"/><linearGradient id="Безымянный_градиент_37-51" x1="-0.01" y1="74.02" x2="148.76" y2="74.02" xlink:href="#Безымянный_градиент_37"/></defs><title>Монтажная область 7</title><path class="cls-1" d="M170.22,67.93c0-2.22-.06-14.07-.31-15.25-1-.25-5.25-.62-6.6-.74l-.19-1.3,13.33-.06c5.86,0,13.21.06,17.41,1.73,3.27,1.3,5.31,3.64,5.31,7,0,3.89-4,9-8.7,11.67.68,1.54,10.62,17.71,17,24.5l-2.72.43C200.47,94,184,75,183.06,73.74c-2.35.19-4.88.37-5.93.37v1.6c0,4,.12,13.52.31,16.36a63.67,63.67,0,0,0,6.48.86l.25,1.3c-1.54-.12-7.78-.25-10.62-.25-2.53,0-9,.12-10.43.25l.25-1.3a56.88,56.88,0,0,0,6.54-.86c.25-1.79.31-13.89.31-20.37Zm6.91,4.26A21.38,21.38,0,0,0,184.67,71a10.39,10.39,0,0,0,7-9.94c0-4-3.58-8.76-14.26-8.76-.18,2.53-.31,13.58-.31,18Z"/><path class="cls-1" d="M230.71,78.43a35.9,35.9,0,0,0-.19-4.07c-.49-1.6-12.22-19-15.06-21.66a31.41,31.41,0,0,0-4.32-.86l-.25-1.3c1,.12,5.12.25,10.74.25,3.52,0,7.65-.12,8.52-.25l-.31,1.3c-1.11.25-3.89.56-5.31.86,3.64,6.42,9.94,15.43,11.85,18.7,1-1.79,10.49-16.17,10.68-18.7-1.3-.31-4-.74-4.81-.86l-.19-1.3c.93.12,4.38.25,7.78.25,2.84,0,6-.12,7.47-.25l-.19,1.3c-.93.19-2.9.49-4.2.86S238.85,71.14,238,73.86a30.51,30.51,0,0,0-.25,4.38v2.35c0,1.67.06,9.94.31,11.48.74.18,4.81.68,6,.86l.12,1.3c-1.3-.12-6.85-.25-11-.25-2.22,0-6.73.12-8.46.25l.31-1.3a49.34,49.34,0,0,0,5.43-.86c.25-.93.31-7.72.31-11.67Z"/><path class="cls-1" d="M278.41,70.77c0,5.25.06,19.5.31,21.29,1.48.25,5.92.68,7.84.86l.31,1.3c-2-.12-9-.25-11.79-.25-3.09,0-9,.12-10.68.25l.25-1.3c.93-.12,4.94-.56,6.54-.86.25-2.72.31-15.86.31-21.6V68c0-2-.06-13.21-.31-15.31a42.89,42.89,0,0,0-6.6-.86l-.18-1.3c1.85,0,10.86-.06,13.7-.06,6.73,0,11.85.56,14.88,1.79,5.49,2.28,6,6,6,7.59a13.45,13.45,0,0,1-4.26,9.81c-4.07,4.07-10.74,5.74-13,6l.19-1.54c2.22-.56,9.69-2.78,9.69-12.1a9,9,0,0,0-5-8.39,20.16,20.16,0,0,0-8-1.36c-.25,1.79-.31,10.55-.31,15.86Z"/><path class="cls-1" d="M319,70c0-5.55-.18-15.37-.43-17.28-1.17-.25-4.94-.68-6.42-.86l-.25-1.3c1.48.06,3.52.12,5.55.19s4.07.06,5.43.06c2,0,16.48,0,18.15-.43a23.35,23.35,0,0,0,.49-2.9l1.42-.25c-.31,1.3-1.11,10.86-1.23,12.78l-1.36-.43c0-.43.06-3.21,0-4.44-1.11-1.79-10.62-2.59-13.89-2.59-.19.86-.43,12.78-.43,16.42v1.23c5.31,0,11.29-.43,12.78-1a14.87,14.87,0,0,0,.62-2.65l1.3-.12c-.19,1.11-1.3,9.57-1.61,11.54l-1.17-.49c.06-1.3.12-2.9.12-4.14-1.91-1-6.73-1.36-12-1.36v1.24c0,3.76.25,17.22.43,19,6.17,0,12-.49,14.81-2.1.68-2.16,1-4.07,1.36-5.43l1.42-.37c-.43,1.79-1.79,11.17-2,14.26l-1.3-.25c0-1.67,0-2.78-.06-3.76-1.79-.31-15.49-.56-19.38-.56-2.1,0-7,.12-9.38.25l.31-1.3a49.73,49.73,0,0,0,6.36-.86c.25-1.11.43-12.47.43-19.26Z"/><path class="cls-2" d="M167.28,110.46v8.63H166v-8.63h-2.29v-1.28h5.86v1.28Z"/><path class="cls-2" d="M173.23,115.92h-1.16v3.17h-1.27v-9.92h2.79a3.38,3.38,0,0,1,2,1,3.4,3.4,0,0,1,0,4.77,2.76,2.76,0,0,1-1,.77l2.18,3.39h-1.54Zm-1.16-5.45v4.16h1.16a2,2,0,0,0,1.45-.61,2.09,2.09,0,0,0,0-2.95,2,2,0,0,0-1.45-.61Z"/><path class="cls-2" d="M181.63,109.17l3.57,9.92h-1.35l-1.27-3.51H180l-1.26,3.51h-1.36l3.57-9.92Zm.5,5.13-.84-2.32-.83,2.32Z"/><path class="cls-2" d="M187.83,109.17v9.92h-1.27v-9.92Z"/><path class="cls-2" d="M189.8,109.17H191l4.05,7.08v-7.08h1.28v9.92h-1.11l-4.11-7.16v7.16H189.8Z"/><path class="cls-2" d="M199.53,109.17v9.92h-1.27v-9.92Z"/><path class="cls-2" d="M201.5,109.17h1.16l4.05,7.08v-7.08H208v9.92h-1.11l-4.11-7.16v7.16H201.5Z"/><path class="cls-3" d="M218.17,117.73a5,5,0,0,1-8.49-3.6,4.91,4.91,0,0,1,1.47-3.58,4.81,4.81,0,0,1,3.55-1.49,5.4,5.4,0,0,1,3.69,1.6l-1,.87a4.07,4.07,0,0,0-2.74-1.18,3.59,3.59,0,0,0-2.64,1.1,3.79,3.79,0,0,0,0,5.33,3.59,3.59,0,0,0,2.64,1.1,3.38,3.38,0,0,0,2.2-.71v-3h1.27Z"/><path class="cls-3" d="M231.13,115.24a1.72,1.72,0,0,1,.06.43,1.55,1.55,0,0,1-.21.79,1.75,1.75,0,0,1-1.08.81,2.59,2.59,0,0,1-.69,1,3,3,0,0,1-4.33,0,3,3,0,0,1-.9-2.19,3.16,3.16,0,0,1,.88-2.22,1.8,1.8,0,0,1,1-.58,2.8,2.8,0,0,1-1-1.93,2.24,2.24,0,0,1,.67-1.63,2.19,2.19,0,0,1,1.62-.68,2.22,2.22,0,0,1,1.63.68,2.84,2.84,0,0,1,.64,1.18l-1.16.46a2.23,2.23,0,0,0-.38-.74,1,1,0,0,0-1.76.74,1.11,1.11,0,0,0,.32.78,1.71,1.71,0,0,0,.58.45,3.64,3.64,0,0,0,1.09.11v1.23h-.75a2.87,2.87,0,0,0-1.62.8,1.93,1.93,0,0,0-.53,1.34,1.77,1.77,0,0,0,.53,1.29,1.73,1.73,0,0,0,1.28.53,2.37,2.37,0,0,0,1.6-.88q-.17-.14-.61-.6l-.25-.21a.29.29,0,0,0-.14-.06h0a.1.1,0,0,0-.09.07.12.12,0,0,0,0,0,.22.22,0,0,0,0,.09l-1,.71a1.49,1.49,0,0,1-.2-.43,1.51,1.51,0,0,1,0-.38,1.37,1.37,0,0,1,.18-.68,1.43,1.43,0,0,1,1.22-.71,1.32,1.32,0,0,1,.67.19,2.49,2.49,0,0,1,.62.58,1.1,1.1,0,0,0,.65.46h.08a.34.34,0,0,0,.33-.22.27.27,0,0,0,0-.12.63.63,0,0,0-.28-.43l.63-1.1A1.58,1.58,0,0,1,231.13,115.24Z"/><path class="cls-3" d="M244.61,116.73l1,.86a5.39,5.39,0,0,1-3.69,1.61,4.81,4.81,0,0,1-3.55-1.48,5.1,5.1,0,0,1,0-7.16,4.81,4.81,0,0,1,3.55-1.49,5.4,5.4,0,0,1,3.69,1.6l-1,.87a4.08,4.08,0,0,0-2.74-1.18,3.58,3.58,0,0,0-2.64,1.1,3.79,3.79,0,0,0,0,5.33,3.58,3.58,0,0,0,2.64,1.1A4.08,4.08,0,0,0,244.61,116.73Z"/><path class="cls-4" d="M255.53,110.53a5.1,5.1,0,0,1,0,7.18,5,5,0,0,1-7.11,0,5.1,5.1,0,0,1,0-7.18,5,5,0,0,1,7.11,0Zm-3.56-.19a3.6,3.6,0,0,0-2.65,1.11,3.81,3.81,0,0,0,0,5.35,3.72,3.72,0,0,0,5.3,0,3.81,3.81,0,0,0,0-5.35A3.59,3.59,0,0,0,252,110.34Z"/><path class="cls-2" d="M258.7,109.17h1.16l4.05,7.08v-7.08h1.28v9.92h-1.11L260,111.93v7.16H258.7Z"/><path class="cls-3" d="M269.53,114a4.25,4.25,0,0,1-1.69-1,2.21,2.21,0,0,1-.65-1.62,2.24,2.24,0,0,1,.67-1.63,2.29,2.29,0,0,1,3.25,0,2.84,2.84,0,0,1,.64,1.18l-1.16.46a2.23,2.23,0,0,0-.38-.74,1,1,0,0,0-1.76.74,1,1,0,0,0,.3.74,3.32,3.32,0,0,0,.93.61,4.82,4.82,0,0,1,2,1.19,3,3,0,0,1,.9,2.18,3,3,0,0,1-.9,2.19,3,3,0,0,1-4.33,0,3.49,3.49,0,0,1-.91-2l1.23-.45a2.58,2.58,0,0,0,.57,1.56,1.78,1.78,0,0,0,2.54,0,1.83,1.83,0,0,0,0-2.57A3.73,3.73,0,0,0,269.53,114Z"/><path class="cls-5" d="M279.2,109.17h1.28v7a3.47,3.47,0,0,1-1,2,3.32,3.32,0,0,1-4.73,0,3.26,3.26,0,0,1-1-2.38v-6.62h1.28v6.63a2,2,0,0,0,.61,1.46,2.05,2.05,0,0,0,2.92,0,2,2,0,0,0,.6-1.47Z"/><path class="cls-2" d="M282.32,119.09v-9.92h1.27v8.63h3.51v1.29Z"/><path class="cls-2" d="M291,110.46v8.63h-1.28v-8.63h-2.29v-1.28h5.86v1.28Z"/><path class="cls-2" d="M295.93,109.17v9.92h-1.27v-9.92Z"/><path class="cls-2" d="M297.9,109.17h1.16l4.05,7.08v-7.08h1.28v9.92h-1.11l-4.11-7.16v7.16H297.9Z"/><path class="cls-3" d="M314.57,117.73a5,5,0,0,1-8.49-3.6,4.91,4.91,0,0,1,1.47-3.58,4.81,4.81,0,0,1,3.55-1.49,5.4,5.4,0,0,1,3.69,1.6l-1,.87a4.07,4.07,0,0,0-2.74-1.18,3.59,3.59,0,0,0-2.64,1.1,3.79,3.79,0,0,0,0,5.33,3.59,3.59,0,0,0,2.64,1.1,3.38,3.38,0,0,0,2.2-.71v-3h1.27Z"/><path class="cls-2" d="M320.83,119.09v-9.92h1.27v8.63h3.51v1.29Z"/><path class="cls-2" d="M327.09,119.09v-9.92h1.27v8.63h3.51v1.29Z"/><path class="cls-3" d="M341,116.73l1,.86a5.4,5.4,0,0,1-3.69,1.61,4.82,4.82,0,0,1-3.55-1.48,5.11,5.11,0,0,1,0-7.16,4.81,4.81,0,0,1,3.55-1.49,5.4,5.4,0,0,1,3.69,1.6l-1,.87a4.07,4.07,0,0,0-2.74-1.18,3.59,3.59,0,0,0-2.64,1.1,3.79,3.79,0,0,0,0,5.33,3.59,3.59,0,0,0,2.64,1.1A4.07,4.07,0,0,0,341,116.73Z"/><path class="cls-6" d="M165.34,34.49h-1v2.6h-1V29h2.29a2.78,2.78,0,0,1,1.64.81,2.79,2.79,0,0,1,0,3.91,2.25,2.25,0,0,1-.85.63l1.79,2.78H167Zm-1-4.47v3.42h1a1.61,1.61,0,0,0,1.19-.5,1.72,1.72,0,0,0,0-2.42,1.62,1.62,0,0,0-1.19-.5Z"/><path class="cls-6" d="M173.59,29V30h-3.3V32.5h3.3v1.05h-3.3V36h3.3v1.06h-4.34V29Z"/><path class="cls-6" d="M178,29l2.93,8.13h-1.11l-1-2.88h-2.14l-1,2.88h-1.11L177.4,29Zm.41,4.2-.69-1.91L177,33.16Z"/><path class="cls-7" d="M187.94,35.15l.78.71a4.43,4.43,0,0,1-3,1.32A4,4,0,0,1,182.78,36a4.19,4.19,0,0,1,0-5.88,3.94,3.94,0,0,1,2.91-1.22,4.43,4.43,0,0,1,3,1.32l-.78.72a3.34,3.34,0,0,0-2.25-1,2.94,2.94,0,0,0-2.16.91,3.11,3.11,0,0,0,0,4.38,2.94,2.94,0,0,0,2.16.9A3.34,3.34,0,0,0,187.94,35.15Z"/><path class="cls-6" d="M191,33.73v3.36h-1V29h1v3.71h2.49V29h1v8.13h-1V33.73Z"/><path class="cls-6" d="M201.61,33.83,198.82,29H200l2.11,3.68L204.23,29h1.21l-2.79,4.87v3.26h-1Z"/><path class="cls-8" d="M213.16,30.07a4.19,4.19,0,0,1,0,5.88,4.1,4.1,0,0,1-5.83,0,4.19,4.19,0,0,1,0-5.88,4.1,4.1,0,0,1,5.83,0Zm-2.92-.16a3,3,0,0,0-2.17.91,3.13,3.13,0,0,0,0,4.39,3,3,0,0,0,4.35,0,3.13,3.13,0,0,0,0-4.39A3,3,0,0,0,210.24,29.91Z"/><path class="cls-9" d="M220.19,29h1v5.73a2.85,2.85,0,0,1-.8,1.66,2.72,2.72,0,0,1-3.88,0,2.68,2.68,0,0,1-.8-2V29h1v5.43a1.64,1.64,0,0,0,.5,1.2,1.68,1.68,0,0,0,2.39,0,1.65,1.65,0,0,0,.49-1.21Z"/><path class="cls-6" d="M224.75,34.49h-1v2.6h-1V29H225a2.78,2.78,0,0,1,1.64.81,2.79,2.79,0,0,1,0,3.91,2.25,2.25,0,0,1-.85.63l1.79,2.78h-1.26Zm-1-4.47v3.42h1a1.61,1.61,0,0,0,1.19-.5,1.72,1.72,0,0,0,0-2.42,1.62,1.62,0,0,0-1.19-.5Z"/><path class="cls-6" d="M233.26,34.49v2.6h-1V29h2.29a2.78,2.78,0,0,1,1.64.81,2.79,2.79,0,0,1,0,3.91,2.62,2.62,0,0,1-1.94.81Zm0-4.47v3.42h1a1.61,1.61,0,0,0,1.19-.5,1.72,1.72,0,0,0,0-2.42,1.62,1.62,0,0,0-1.19-.5Z"/><path class="cls-8" d="M244.9,30.07a4.19,4.19,0,0,1,0,5.88,4.1,4.1,0,0,1-5.83,0,4.19,4.19,0,0,1,0-5.88,4.1,4.1,0,0,1,5.83,0ZM242,29.91a3,3,0,0,0-2.17.91,3.13,3.13,0,0,0,0,4.39,3,3,0,0,0,4.35,0,3.13,3.13,0,0,0,0-4.39A3,3,0,0,0,242,29.91Z"/><path class="cls-6" d="M249.55,30v7.08h-1V30h-1.88V29h4.8V30Z"/><path class="cls-6" d="M256.78,29V30h-3.3V32.5h3.3v1.05h-3.3V36h3.3v1.06h-4.34V29Z"/><path class="cls-6" d="M258.17,29h1l3.32,5.8V29h1v8.13h-.91l-3.37-5.87v5.87h-1Z"/><path class="cls-6" d="M267.43,30v7.08h-1V30H264.5V29h4.81V30Z"/><path class="cls-6" d="M271.46,29v8.13h-1V29Z"/><path class="cls-6" d="M276.07,29,279,37.09h-1.11l-1-2.88h-2.14l-1,2.88h-1.11L275.5,29Zm.41,4.2-.69-1.91-.69,1.91Z"/><path class="cls-6" d="M280,37.09V29h1V36h2.88v1.06Z"/><path class="cls-6" d="M291.6,29l2.93,8.13h-1.11l-1-2.88h-2.14l-1,2.88H288.1L291,29Zm.41,4.2-.69-1.91-.69,1.91Z"/><path class="cls-6" d="M295.54,29h1l3.32,5.8V29h1v8.13h-.91l-3.37-5.87v5.87h-1Z"/><path class="cls-6" d="M303.14,29a4.14,4.14,0,0,1,3.06,1.12,4.2,4.2,0,0,1,0,5.89,4.14,4.14,0,0,1-3.06,1.12h-.77V29Zm.28,1.07v6a2.74,2.74,0,0,0,2-.81,3.13,3.13,0,0,0,0-4.38A2.75,2.75,0,0,0,303.41,30Z"/><path class="cls-6" d="M316.57,29V30h-3.3V32.5h3.3v1.05h-3.3V36h3.3v1.06h-4.34V29Z"/><path class="cls-6" d="M317.46,37.09,320,32.65,317.88,29h1.2l1.51,2.65L322.11,29h1.2l-2.12,3.7,2.54,4.44h-1.2l-1.94-3.39-1.93,3.39Z"/><path class="cls-7" d="M330.7,35.15l.78.71a4.43,4.43,0,0,1-3,1.32A3.94,3.94,0,0,1,325.55,36a4.18,4.18,0,0,1,0-5.88,3.94,3.94,0,0,1,2.91-1.22,4.43,4.43,0,0,1,3,1.32l-.78.72a3.34,3.34,0,0,0-2.25-1,2.94,2.94,0,0,0-2.16.91,3.11,3.11,0,0,0,0,4.38,2.94,2.94,0,0,0,2.16.9A3.34,3.34,0,0,0,330.7,35.15Z"/><path class="cls-6" d="M337.08,29V30h-3.3V32.5h3.3v1.05h-3.3V36h3.3v1.06h-4.34V29Z"/><path class="cls-6" d="M338.47,37.09V29h1V36h2.88v1.06Z"/><rect class="cls-10" x="163.39" y="102.17" width="179.12" height="2.78"/><rect class="cls-11" x="163.39" y="41.21" width="179.12" height="2.78"/><circle class="cls-12" cx="74.38" cy="74.02" r="74.38"/><path class="cls-13" d="M74.38,143.48A69.46,69.46,0,1,1,143.84,74,69.54,69.54,0,0,1,74.38,143.48Zm0-137A67.49,67.49,0,1,0,141.87,74,67.57,67.57,0,0,0,74.38,6.53Z"/><path class="cls-13" d="M79,39.56l.85-14.12a1.8,1.8,0,0,0-1.8-1.91H73.79A1.8,1.8,0,0,0,72,25.44l.84,14.12Z"/><path class="cls-13" d="M90.87,49.82a75.14,75.14,0,0,1,6.23,17.3h8.65a29.85,29.85,0,0,0-20-28.19q-.71.59-1.39,1.25A45.21,45.21,0,0,1,90.87,49.82Z"/><path class="cls-13" d="M70.45,39.19a41.89,41.89,0,0,1,5.46,7.31,41.89,41.89,0,0,1,5.46-7.31c-.38-.35-.77-.69-1.16-1s-.61-.49-.92-.72a29.9,29.9,0,0,0-6.75,0q-.46.34-.92.72C71.21,38.5,70.83,38.84,70.45,39.19Z"/><path class="cls-13" d="M74.24,49.5l.09-.17a40.47,40.47,0,0,0-5.85-8.16,43.57,43.57,0,0,0-6.3,9.29,73.47,73.47,0,0,0-6,16.66H67.91A76,76,0,0,1,74.24,49.5Z"/><path class="cls-13" d="M67.49,40.18q-.69-.66-1.39-1.25a29.85,29.85,0,0,0-20,28.19h8.65a75.14,75.14,0,0,1,6.23-17.3A45.21,45.21,0,0,1,67.49,40.18Z"/><path class="cls-13" d="M77.58,49.5A76,76,0,0,1,83.9,67.12H95.67a73.47,73.47,0,0,0-6-16.66,43.57,43.57,0,0,0-6.3-9.29,40.48,40.48,0,0,0-5.85,8.16Z"/><path class="cls-13" d="M70.77,67.12H81a74.43,74.43,0,0,0-5.14-14.73A74.43,74.43,0,0,0,70.77,67.12Z"/><path class="cls-13" d="M82.2,121.77c11.42-5.78,19.9-26.92,19.9-52.12H84.48a108.87,108.87,0,0,1,2.11,21.61A103.11,103.11,0,0,1,82.2,121.77Z"/><path class="cls-13" d="M67.34,69.66H49.72c0,25.2,8.47,46.34,19.9,52.12a103.11,103.11,0,0,1-4.39-30.51A108.87,108.87,0,0,1,67.34,69.66Z"/><path class="cls-13" d="M68,91.27A98.63,98.63,0,0,0,72.94,123a13.07,13.07,0,0,0,5.93,0A98.63,98.63,0,0,0,83.8,91.27a105.79,105.79,0,0,0-2.17-21.61H70.17A105.79,105.79,0,0,0,68,91.27Z"/></svg>