<?xml version="1.0" encoding="UTF-8" standalone="no"?>
<!-- Generator: Adobe Illustrator 17.0.0, SVG Export Plug-In . SVG Version: 6.00 Build 0)  -->

<svg
   xmlns:dc="http://purl.org/dc/elements/1.1/"
   xmlns:cc="http://creativecommons.org/ns#"
   xmlns:rdf="http://www.w3.org/1999/02/22-rdf-syntax-ns#"
   xmlns:svg="http://www.w3.org/2000/svg"
   xmlns="http://www.w3.org/2000/svg"
   xmlns:sodipodi="http://sodipodi.sourceforge.net/DTD/sodipodi-0.dtd"
   xmlns:inkscape="http://www.inkscape.org/namespaces/inkscape"
   version="1.1"
   id="Слой_1"
   x="0px"
   y="0px"
   width="114.352px"
   height="50.312px"
   viewBox="0 0 114.352 50.312"
   enable-background="new 0 0 114.352 50.312"
   xml:space="preserve"
   inkscape:version="0.48.4 r9939"
   sodipodi:docname="logo-l.svg"><metadata
     id="metadata35"><rdf:RDF><cc:Work
         rdf:about=""><dc:format>image/svg+xml</dc:format><dc:type
           rdf:resource="http://purl.org/dc/dcmitype/StillImage" /><dc:title></dc:title></cc:Work></rdf:RDF></metadata><defs
     id="defs33" /><sodipodi:namedview
     pagecolor="#ffffff"
     bordercolor="#666666"
     borderopacity="1"
     objecttolerance="10"
     gridtolerance="10"
     guidetolerance="10"
     inkscape:pageopacity="0"
     inkscape:pageshadow="2"
     inkscape:window-width="1855"
     inkscape:window-height="1056"
     id="namedview31"
     showgrid="false"
     inkscape:zoom="14.444885"
     inkscape:cx="46.846662"
     inkscape:cy="30.907303"
     inkscape:window-x="1985"
     inkscape:window-y="37"
     inkscape:window-maximized="1"
     inkscape:current-layer="Слой_1"
     inkscape:snap-bbox="true" /><path
     style="fill:#e54725"
     inkscape:connector-curvature="0"
     id="path11"
     d="m 28.602,20.809 c 0,-1.781 0.33,-3.475 0.985,-5.082 0.654,-1.607 1.599,-3.033 2.844,-4.279 1.277,-1.276 2.718,-2.261 4.317,-2.946 1.6,-0.686 3.263,-1.025 4.988,-1.025 1.828,0 3.522,0.308 5.067,0.915 1.544,0.606 2.97,1.513 4.262,2.734 1.324,1.276 2.341,2.741 3.066,4.412 0.725,1.67 1.087,3.38 1.087,5.137 0,1.938 -0.315,3.703 -0.946,5.303 -0.63,1.6 -1.575,3.041 -2.837,4.333 -1.268,1.308 -2.702,2.301 -4.317,2.971 -1.615,0.67 -3.372,1.001 -5.264,1.001 -1.906,0 -3.647,-0.339 -5.216,-1.017 -1.575,-0.678 -3.001,-1.694 -4.294,-3.041 -1.237,-1.324 -2.166,-2.781 -2.796,-4.373 -0.631,-1.592 -0.946,-3.27 -0.946,-5.043 M 34.7,20.762 c 0,2.356 0.646,4.215 1.938,5.594 1.293,1.379 3.042,2.065 5.264,2.065 2.183,0 3.924,-0.702 5.224,-2.112 1.3,-1.403 1.946,-3.301 1.946,-5.681 0,-2.144 -0.678,-3.892 -2.04,-5.271 -1.364,-1.38 -3.073,-2.065 -5.13,-2.065 -2.127,0 -3.853,0.694 -5.192,2.088 -1.34,1.387 -2.01,3.183 -2.01,5.382"
     inkscape:export-xdpi="90"
     inkscape:export-ydpi="90" /></svg>