<?xml version="1.0" encoding="UTF-8"?>
<svg enable-background="new 0 0 82.8 82.8" version="1.1" viewBox="0 0 82.8 82.8" xml:space="preserve" xmlns="http://www.w3.org/2000/svg">
<style type="text/css">
	.st0{fill:#009289;}
	.st1{fill:#616161;}
	.st2{fill:#009BE0;}
</style>
	<path class="st0" d="m54 2c2.9 0.9 5.7 2.2 8.3 3.7-1.1 8.3-4.4 16.6-5.4 19.1-5 3.4-8.5 7.1-11.1 10.6 1.1-11.8 3.5-23.6 8.2-33.4z"/>
	<path class="st0" d="m74.5 16.5c-3.1 0.9-5.9 2-8.5 3.2 0.9-2.8 1.8-6.1 2.5-9.6 2.2 1.9 4.2 4 6 6.4z"/>
	<path class="st1" d="m80.4 55.4c-5.1 14.3-17.8 24.9-33.3 27-0.8-6.3-1.8-16.3-2-27.7 0.1-1.3 0.7-6.5 4.3-12.4 4.3 0.1 18.8 1.1 30.9 13l0.1 0.1z"/>
	<path class="st1" d="m82.8 41.4c0 2.2-0.2 4.4-0.5 6.5-10.2-8.7-21.2-11.4-28-12.2 4.9-5.1 12.4-10.1 23.9-13.3 2.9 5.7 4.6 12.2 4.6 19z"/>
	<path class="st0" d="m23.5 12.6c-2.5-1.2-5.2-2.3-8.3-3.2 2.5-2.1 5.3-3.9 8.3-5.3-0.5 3.2-0.4 6.1 0 8.5z"/>
	<path class="st2" d="m38.3 48.8c-1.4-1.6-5.5-5.4-13.5-8.9h-0.1c-0.2 0-12.1 0.3-23.8 10.1 3.9 18.4 20 32.2 39.4 32.7-1-7.6-2.3-20-2-33.9zm-28.7-34c-3 3.6-5.5 7.8-7.1 12.4 19 2.5 30.1 8.4 36.1 12.8 0-0.7 0.1-1.4 0.1-2.1-0.8-2.9-6-17.4-29.1-23.1zm31.8-14.8c-3.6 0-7 0.4-10.3 1.3-3.1 10.3 1 16.1 1.1 16.2 0.2 0.2 0.3 0.5 0.4 0.8 3.2 2.5 5.6 5.2 7.5 7.7 1.4-8.9 3.6-17.7 7.2-25.5-2-0.4-3.9-0.5-5.9-0.5z"/>
	<path class="st0" d="m12.1 35.8c-3.7 1.3-7.8 3.3-12.1 6.4v-0.8c0-2.6 0.2-5.1 0.7-7.6 4.2 0.5 8 1.2 11.4 2z"/>
</svg>
