<svg xmlns="http://www.w3.org/2000/svg" viewBox="0 0 256 103.95"><defs><style>.cls-1{fill:#fff;}</style></defs><title>zmist-white</title><g id="Слой_2" data-name="Слой 2"><g id="Слой_1-2" data-name="Слой 1"><g id="Слой_2-2" data-name="Слой 2"><g id="Слой_1-2-2" data-name="Слой 1-2"><path class="cls-1" d="M36.8,13.6H2.88V.92h54V12.83l-36.81,44H57.85v12.7H0V57.61Z"/><path class="cls-1" d="M78.51,19.85v6.72h.19a19.47,19.47,0,0,1,6.49-5.95,17.51,17.51,0,0,1,8.7-2.12,19.94,19.94,0,0,1,8.6,1.83,12.13,12.13,0,0,1,5.91,6.44,21.28,21.28,0,0,1,6-5.77,16,16,0,0,1,9-2.5,26.46,26.46,0,0,1,7.3,1,14.94,14.94,0,0,1,5.77,3.08,14,14,0,0,1,3.74,5.52,22.35,22.35,0,0,1,1.35,8.22V69.53H127.9V41.37c0-1.66-.06-3.23-.19-4.71a9.92,9.92,0,0,0-1.06-3.84,6.4,6.4,0,0,0-2.54-2.59,9.29,9.29,0,0,0-4.57-1,8.8,8.8,0,0,0-4.66,1.1,8.08,8.08,0,0,0-2.78,2.88,11.35,11.35,0,0,0-1.35,4,30.23,30.23,0,0,0-.34,4.56V69.53H96.77V41.66c0-1.47,0-2.93-.1-4.37a11.94,11.94,0,0,0-.82-4,6.15,6.15,0,0,0-2.4-2.93,9.07,9.07,0,0,0-5-1.1A9.78,9.78,0,0,0,86,29.7a8.39,8.39,0,0,0-3.08,1.63,9.54,9.54,0,0,0-2.54,3.46,13.93,13.93,0,0,0-1.06,5.91V69.53H65.63V19.85Z"/><path class="cls-1" d="M166.34,19.85V69.53H152.69V19.85Z"/><path class="cls-1" d="M188.59,57.18a7.91,7.91,0,0,0,2.35,2.6,10.19,10.19,0,0,0,3.31,1.49,16,16,0,0,0,3.9.48,14.45,14.45,0,0,0,3-.34A10.24,10.24,0,0,0,204,60.35a6.63,6.63,0,0,0,2.16-1.92,5,5,0,0,0,.86-3c0-2-1.36-3.58-4.08-4.61a81.47,81.47,0,0,0-11.39-3.07q-3-.68-5.81-1.59a20,20,0,0,1-5.05-2.4A11.64,11.64,0,0,1,177.2,40a10.6,10.6,0,0,1-1.35-5.53,15,15,0,0,1,1.88-7.88,14,14,0,0,1,5-4.85,21.87,21.87,0,0,1,6.91-2.5,43.42,43.42,0,0,1,7.88-.72,39.7,39.7,0,0,1,7.84.77,20.68,20.68,0,0,1,6.77,2.6A15.28,15.28,0,0,1,217,26.72a16.28,16.28,0,0,1,2.35,7.64h-13c-.19-2.63-1.19-4.4-3-5.33a13.64,13.64,0,0,0-6.34-1.4,20.84,20.84,0,0,0-2.5.15,8.33,8.33,0,0,0-2.45.62,5.12,5.12,0,0,0-1.87,1.39,3.68,3.68,0,0,0-.77,2.45,3.76,3.76,0,0,0,1.34,3,10.28,10.28,0,0,0,3.51,1.88,43.15,43.15,0,0,0,5,1.29q2.79.59,5.67,1.25a59,59,0,0,1,5.81,1.64,19.47,19.47,0,0,1,5.05,2.54,12.52,12.52,0,0,1,3.55,3.94,11.58,11.58,0,0,1,1.35,5.82,15.11,15.11,0,0,1-7.11,13.55A21,21,0,0,1,206.36,70a42.19,42.19,0,0,1-8.31.82,41.46,41.46,0,0,1-8.46-.87,22,22,0,0,1-7.35-3A16.38,16.38,0,0,1,177,61.7a16.61,16.61,0,0,1-2.26-8.31h13A7.45,7.45,0,0,0,188.59,57.18Z"/><path class="cls-1" d="M256,19.85V29H246V53.6c0,2.3.39,3.84,1.15,4.61s2.31,1.15,4.62,1.15a17.67,17.67,0,0,0,2.21-.09c.71-.09,1.37-.16,2-.29V69.53a33,33,0,0,1-3.85.38c-1.41.07-2.79.1-4.13.1a40.17,40.17,0,0,1-6-.43,14.09,14.09,0,0,1-5-1.68,9,9,0,0,1-3.42-3.56,12.75,12.75,0,0,1-1.24-6.05V29h-8.27V19.85h8.27V5H246V19.9Z"/><path class="cls-1" d="M166.5,6.54c0,3.54-2.63,6.54-7.1,6.54A6.49,6.49,0,0,1,152.54,7c0-.15,0-.29,0-.44,0-3.59,2.72-6.54,7-6.54S166.44,2.91,166.5,6.54Z"/><path class="cls-1" d="M16.65,92.67h-11a3.86,3.86,0,0,0,1.52,2.47,5,5,0,0,0,3,.9A5.14,5.14,0,0,0,14,94.52l1.76,2a6,6,0,0,1-2.39,1.72,8.88,8.88,0,0,1-3.27.58A8.57,8.57,0,0,1,6,97.91a6.54,6.54,0,0,1-2.73-2.56,7.72,7.72,0,0,1,0-7.43,6.6,6.6,0,0,1,2.59-2.57,7.65,7.65,0,0,1,3.74-.92,7.41,7.41,0,0,1,3.68.91,6.44,6.44,0,0,1,2.52,2.55,7.66,7.66,0,0,1,.91,3.81C16.7,91.93,16.68,92.25,16.65,92.67ZM6.92,88a3.91,3.91,0,0,0-1.33,2.49h8A3.91,3.91,0,0,0,12.28,88a4,4,0,0,0-2.69-1A4,4,0,0,0,6.92,88Z"/><path class="cls-1" d="M18.89,90h7.24v2.7H18.89Z"/><path class="cls-1" d="M29.21,79.11h3.3V98.65h-3.3Z"/><path class="cls-1" d="M49.47,92.67h-11A3.79,3.79,0,0,0,40,95.14a5,5,0,0,0,3,.9,5.12,5.12,0,0,0,3.82-1.52l1.76,2a6,6,0,0,1-2.39,1.72,8.88,8.88,0,0,1-3.27.58,8.6,8.6,0,0,1-4.08-.93,6.54,6.54,0,0,1-2.73-2.56,7.3,7.3,0,0,1-1-3.73A7.37,7.37,0,0,1,36,87.9a6.69,6.69,0,0,1,2.6-2.57,7.62,7.62,0,0,1,3.74-.92,7.35,7.35,0,0,1,3.67.91,6.4,6.4,0,0,1,2.53,2.55,7.66,7.66,0,0,1,.91,3.81A5.69,5.69,0,0,1,49.47,92.67ZM39.74,88a3.84,3.84,0,0,0-1.33,2.49h8A3.91,3.91,0,0,0,45.1,88,4.27,4.27,0,0,0,39.74,88Z"/><path class="cls-1" d="M61.89,85.92a5.77,5.77,0,0,1,1.64,4.49v8.24h-3.1V96.94a3.91,3.91,0,0,1-1.73,1.41,7,7,0,0,1-2.7.49,6.58,6.58,0,0,1-2.77-.54,4.32,4.32,0,0,1-1.83-1.5,3.86,3.86,0,0,1-.64-2.18,3.71,3.71,0,0,1,1.41-3,7,7,0,0,1,4.44-1.15h3.63v-.21A2.86,2.86,0,0,0,59.36,88a3.8,3.8,0,0,0-2.62-.79,7.38,7.38,0,0,0-2.33.37,6,6,0,0,0-1.94,1l-1.29-2.39a8,8,0,0,1,2.66-1.29,11.82,11.82,0,0,1,3.29-.45A6.82,6.82,0,0,1,61.89,85.92Zm-3,10a3,3,0,0,0,1.36-1.62V92.62h-3.4c-1.89,0-2.84.62-2.84,1.87a1.67,1.67,0,0,0,.71,1.42,3.21,3.21,0,0,0,2,.53,4.21,4.21,0,0,0,2.16-.57Z"/><path class="cls-1" d="M75.36,84.43v3.13a3.84,3.84,0,0,0-.76-.08,4,4,0,0,0-3,1.12,4.47,4.47,0,0,0-1.08,3.23v6.82h-3.3V84.59h3.14v2Q71.77,84.45,75.36,84.43Z"/><path class="cls-1" d="M89.87,86a6.17,6.17,0,0,1,1.61,4.61v8.06H88.19V91a4,4,0,0,0-.87-2.78,3.23,3.23,0,0,0-2.48-.93A3.76,3.76,0,0,0,82,88.39a4.39,4.39,0,0,0-1,3.15v7.11H77.7V84.59h3.14V86.4a5.11,5.11,0,0,1,2-1.47,7.62,7.62,0,0,1,2.8-.5A5.91,5.91,0,0,1,89.87,86Z"/><path class="cls-1" d="M95.3,81.7A1.93,1.93,0,0,1,95.21,79l.09-.09a2.14,2.14,0,0,1,1.5-.56,2.17,2.17,0,0,1,1.5.54,1.7,1.7,0,0,1,.61,1.35,2,2,0,0,1-.59,1.47,2.26,2.26,0,0,1-3,0Zm-.16,2.89h3.29V98.65H95.14Z"/><path class="cls-1" d="M114.47,86a6.17,6.17,0,0,1,1.61,4.61v8.06h-3.29V91a4,4,0,0,0-.87-2.78,3.23,3.23,0,0,0-2.48-.93,3.79,3.79,0,0,0-2.87,1.09,4.39,4.39,0,0,0-1,3.15v7.11h-3.29v-14h3.13V86.4a5.11,5.11,0,0,1,2-1.47,7.62,7.62,0,0,1,2.8-.5A5.88,5.88,0,0,1,114.47,86Z"/><path class="cls-1" d="M133.83,84.59V96.52q0,7.42-7.58,7.43a13.91,13.91,0,0,1-3.85-.52,8.13,8.13,0,0,1-3-1.49l1.47-2.47a7,7,0,0,0,2.33,1.22,9,9,0,0,0,2.86.46,4.7,4.7,0,0,0,3.4-1.05,4.26,4.26,0,0,0,1.08-3.21v-.74a5.49,5.49,0,0,1-2,1.4,7.31,7.31,0,0,1-2.66.47,7.64,7.64,0,0,1-3.63-.86,6.36,6.36,0,0,1-2.55-2.41,7.19,7.19,0,0,1,0-7.1,6.29,6.29,0,0,1,2.55-2.38,7.75,7.75,0,0,1,3.63-.84,7.47,7.47,0,0,1,2.77.5,5,5,0,0,1,2.1,1.53V84.59Zm-4.44,9.52a3.8,3.8,0,0,0,1.2-2.91,3.7,3.7,0,0,0-1.2-2.87,4.31,4.31,0,0,0-3.06-1.11,4.36,4.36,0,0,0-3.1,1.11A3.73,3.73,0,0,0,122,91.2a3.8,3.8,0,0,0,1.2,2.91,4.84,4.84,0,0,0,6.19,0Z"/><path class="cls-1" d="M155.84,85.32a6.44,6.44,0,0,1,2.54,2.53,8.19,8.19,0,0,1,0,7.55,6.46,6.46,0,0,1-2.54,2.54,7.51,7.51,0,0,1-3.68.9,5.7,5.7,0,0,1-4.5-1.9v6.82h-3.29V84.59h3.13v1.84a5.11,5.11,0,0,1,2-1.5,6.84,6.84,0,0,1,2.64-.5A7.58,7.58,0,0,1,155.84,85.32Zm-1.05,9.49a4.93,4.93,0,0,0,0-6.38,4,4,0,0,0-3-1.21,4.21,4.21,0,0,0-2.14.54,4,4,0,0,0-1.5,1.54,5.19,5.19,0,0,0,0,4.64,4,4,0,0,0,1.5,1.54,4.21,4.21,0,0,0,2.14.54A4,4,0,0,0,154.79,94.81Z"/><path class="cls-1" d="M161.91,79.11h3.29V98.65h-3.29Z"/><path class="cls-1" d="M179.12,85.92a5.73,5.73,0,0,1,1.65,4.49v8.24h-3.11V96.94a3.83,3.83,0,0,1-1.72,1.41,7,7,0,0,1-2.7.49,6.58,6.58,0,0,1-2.77-.54,4.32,4.32,0,0,1-1.83-1.5,3.82,3.82,0,0,1-.65-2.18,3.71,3.71,0,0,1,1.41-3,7,7,0,0,1,4.44-1.15h3.64v-.21a2.87,2.87,0,0,0-.89-2.26,3.8,3.8,0,0,0-2.62-.79,7.38,7.38,0,0,0-2.33.37,5.82,5.82,0,0,0-1.93,1l-1.29-2.39a7.82,7.82,0,0,1,2.66-1.29,11.46,11.46,0,0,1,3.29-.45A6.8,6.8,0,0,1,179.12,85.92Zm-3,10a3.1,3.1,0,0,0,1.36-1.62V92.62h-3.4c-1.9,0-2.85.62-2.85,1.87a1.64,1.64,0,0,0,.72,1.42,3.21,3.21,0,0,0,2,.53,4.24,4.24,0,0,0,2.17-.57Z"/><path class="cls-1" d="M192.91,97.89a4,4,0,0,1-1.41.71,6.48,6.48,0,0,1-1.75.24,5,5,0,0,1-3.58-1.22,4.63,4.63,0,0,1-1.27-3.52V87.33h-2.31V84.69h2.31V81.48h3.3v3.21H192v2.64h-3.8V94a2.21,2.21,0,0,0,.5,1.56,1.86,1.86,0,0,0,1.45.54,2.9,2.9,0,0,0,1.84-.58Z"/><path class="cls-1" d="M198.73,83.85v.84h3.87v2.64h-3.76V98.65h-3.29V87.33h-2.32V84.69h2.32V83.8a4.81,4.81,0,0,1,1.31-3.57,6,6,0,0,1,6.69-.54l-.92,2.47a3.2,3.2,0,0,0-1.82-.58C199.43,81.58,198.73,82.34,198.73,83.85Z"/><path class="cls-1" d="M206.56,97.91a6.61,6.61,0,0,1-2.68-2.56,7.3,7.3,0,0,1-1-3.73,7.13,7.13,0,0,1,1-3.71,6.74,6.74,0,0,1,2.68-2.56,8.52,8.52,0,0,1,7.71,0A6.8,6.8,0,0,1,217,87.91a7.13,7.13,0,0,1,1,3.71,7.3,7.3,0,0,1-1,3.73,6.74,6.74,0,0,1-2.68,2.56,8.45,8.45,0,0,1-7.71,0Zm6.84-3.1a4.86,4.86,0,0,0,0-6.38,4.31,4.31,0,0,0-6,0,4.93,4.93,0,0,0,0,6.38A4.31,4.31,0,0,0,213.4,94.81Z"/><path class="cls-1" d="M228.68,84.43v3.13a3.84,3.84,0,0,0-.76-.08,4,4,0,0,0-3,1.12,4.47,4.47,0,0,0-1.08,3.23v6.82h-3.29V84.59h3.14v2C224.62,85.16,226.29,84.44,228.68,84.43Z"/><path class="cls-1" d="M252.91,86a6.2,6.2,0,0,1,1.56,4.62v8.06h-3.29V91a4.14,4.14,0,0,0-.82-2.78A3,3,0,0,0,248,87.3a3.47,3.47,0,0,0-2.66,1.09,4.52,4.52,0,0,0-1,3.12v7.14h-3.29V91a4.14,4.14,0,0,0-.82-2.78,2.91,2.91,0,0,0-2.34-.93,3.44,3.44,0,0,0-2.67,1.08,4.45,4.45,0,0,0-1,3.13v7.14H231v-14h3.13v1.79a5.13,5.13,0,0,1,2-1.45,6.76,6.76,0,0,1,2.63-.5,6.48,6.48,0,0,1,2.81.59,4.6,4.6,0,0,1,1.93,1.75,5.89,5.89,0,0,1,2.24-1.72,7.2,7.2,0,0,1,3-.62A5.7,5.7,0,0,1,252.91,86Z"/></g></g></g></g></svg>