<svg xmlns="http://www.w3.org/2000/svg" viewBox="0 0 637.03 180.1"><defs><style>.cls-1{fill:#1e1e1e;}.cls-2{fill:#fff;}.cls-3{fill:#2d7ab9;}.cls-4{fill:#ea8b23;}.cls-5{fill:#42823e;}.cls-6{fill:#d63c27;}.cls-7{fill:#e0e6e8;}.cls-8{fill:#e08183;}</style></defs><title>Ресурс 1</title><g id="Слой_2" data-name="Слой 2"><g id="Layer_1" data-name="Layer 1"><path class="cls-1" d="M614.05,147.65c0,18.11,0,10.61-.46,23.15-.16,3.87-1.71,5.27-5,5.58-4.64.46-190.95.62-199.15.62-8.52,0-244.68,0-252-.62-3.25-.31-4.8-1.71-5-5.58-.47-12.54-.47-5-.47-23.15Z"/><path class="cls-1" d="M409.48,180.1c-25.06,0-245,0-252.22-.63h0c-5-.48-7.55-3.27-7.76-8.54-.14-3.67-.23-5.58-.3-7-.17-3.41-.17-3.41-.17-16.3a3.1,3.1,0,0,1,3.1-3.1H614.05a3.1,3.1,0,0,1,3.1,3.1c0,12.89,0,12.89-.16,16.3-.07,1.4-.17,3.31-.3,7-.21,5.28-2.75,8.07-7.76,8.55S411.41,180.1,409.48,180.1ZM157.8,173.28c5.91.48,160.93.61,251.68.61,13.08,0,193.58-.17,198.85-.6a3.19,3.19,0,0,0,1.67-.48c.1-.11.42-.57.48-2.13.14-3.68.23-5.62.3-7,.15-3,.16-3.23.16-12.88H155.21c0,9.65,0,9.91.16,12.88.07,1.42.17,3.36.3,7.05a3.58,3.58,0,0,0,.48,2.12A3.06,3.06,0,0,0,157.8,173.28Z"/><path class="cls-1" d="M633.92,147.65c0,18.11,0,10.61-.46,23.15-.16,3.87-1.7,5.27-5,5.58-4.64.46-190.94.62-199.15.62-8.51,0-244.68,0-251.95-.62-3.26-.31-4.8-1.71-5-5.58-.46-12.54-.46-5-.46-23.15Z"/><path class="cls-2" d="M486.91,160.4c.88-.06,2-.08,2.78-.08s1.9,0,2.77.08c2.54.16,3.06.74,3.06,3.07,0,.32,0,.45-.34.49h-4.39c-.3,0-.32-.06-.36-.32s0-.34,0-.47c0-.31-.23-.41-.71-.41s-.69.11-.69.41v1.38c0,.23.05.26.19.26,1.24,0,5.51,0,5.86,0s.47.15.47.47v2.42c0,2.33-.52,2.91-3.06,3.07-.87.06-2,.08-2.77.08s-1.9,0-2.78-.08c-2.53-.16-3.05-.74-3.05-3.07,0-.32,0-.45.33-.49h4.4c.3,0,.32.06.35.32s0,.34,0,.47c0,.31.21.41.71.41s.69-.11.69-.41v-1.38c0-.23-.06-.26-.19-.26-1.27,0-5.51,0-5.87,0s-.46-.15-.46-.47v-2.42C483.86,161.14,484.38,160.56,486.91,160.4Z"/><path class="cls-2" d="M517,160.53c1,.13,1.45.35,1.62,1.34a17.17,17.17,0,0,1,.28,2.72c0,.33,0,.45-.35.46-.75,0-1.75,0-2.31,0s-1.72,0-2.09,0-.34-.07-.35-.29,0-1.12-.06-1.31-.17-.41-.69-.41-.67.11-.69.41c0,.52,0,1.33,0,2.14s0,1.61,0,2.13c0,.3.22.41.69.41s.67-.15.69-.41,0-1.21.06-1.45,0-.28.35-.3,1.53,0,2.09,0,1.56,0,2.31,0c.31,0,.35.13.35.46a18.56,18.56,0,0,1-.28,2.89c-.22,1-.59,1.21-1.62,1.34a34.7,34.7,0,0,1-3.95.17,33.56,33.56,0,0,1-3.93-.17c-1.06-.13-1.4-.33-1.64-1.34a19.36,19.36,0,0,1-.32-3.76,18.42,18.42,0,0,1,.32-3.69c.24-1,.58-1.21,1.64-1.34a33.56,33.56,0,0,1,3.93-.17A34.7,34.7,0,0,1,517,160.53Z"/><path class="cls-2" d="M535.78,156.86c.26,0,.36.13.37.41s0,.59,0,.95,0,.72,0,.95-.11.39-.37.41c-.48,0-1.43,0-2.35,0s-1.86,0-2.34,0c-.26,0-.36-.13-.38-.41s0-.51,0-.95,0-.73,0-.95.12-.39.38-.41c.48,0,1.43,0,2.34,0S535.3,156.82,535.78,156.86Zm-.24,3.65c.37,0,.54.17.56.54,0,1.38,0,2.46,0,4.51s0,3.2,0,4.58c0,.37-.19.5-.56.54a21,21,0,0,1-2.11.06c-.76,0-1.65,0-2.1-.06s-.54-.17-.56-.54c0-1.38,0-2.46,0-4.58s0-3.13,0-4.51c0-.37.19-.5.56-.54s1.34-.06,2.1-.06A21,21,0,0,1,535.54,160.51Z"/><path class="cls-2" d="M553.13,168c0,.31.2.4.74.4s.73-.09.75-.4,0-.58,0-.9.05-.28.35-.3,1.53,0,2.09,0,1.52,0,2.21,0c.36,0,.39.21.39.56a10.41,10.41,0,0,1-.24,1.88c-.2,1-.56,1.25-1.64,1.38s-2.55.17-3.93.17a33.56,33.56,0,0,1-3.93-.17c-1.06-.13-1.4-.37-1.64-1.38a18.87,18.87,0,0,1-.32-3.72,17.94,17.94,0,0,1,.32-3.65c.24-1,.58-1.25,1.64-1.38a45.51,45.51,0,0,1,7.86,0c1.07.13,1.4.37,1.64,1.38a16.66,16.66,0,0,1,.32,3.14c0,.73-.09.86-.54.88-.65,0-1.45,0-2.14,0h-4C553.09,166.75,553.09,167.57,553.13,168Zm1.49-4.87c0-.31-.23-.41-.75-.41s-.72.1-.74.41,0,.75,0,1.23h1.56Q554.65,163.76,554.62,163.17Z"/><path class="cls-2" d="M580.37,160.28c2.21,0,2.86.73,2.86,3.23,0,2.18,0,5.44,0,6.63,0,.41-.27.52-.56.54s-1.12.06-2,.06-1.62,0-1.95-.06-.55-.13-.56-.54c0-1.21,0-4.34,0-6.07,0-.49-.17-.66-.65-.66s-.77.12-.77,1.05c0,1.79,0,4.47,0,5.68,0,.41-.26.52-.56.54s-1.16.06-2,.06-1.6,0-1.93-.06-.54-.13-.56-.54c0-1.21,0-2.85,0-4.55s0-3.33,0-4.54c0-.41.26-.52.56-.54s1.1-.06,1.93-.06a19.14,19.14,0,0,1,2,.06c.37,0,.56.17.56.54l0,1.73h.1C577.23,160.77,577.83,160.28,580.37,160.28Z"/><path class="cls-2" d="M604.85,160.53c1,.13,1.45.35,1.62,1.34a17.17,17.17,0,0,1,.28,2.72c0,.33,0,.45-.36.46-.74,0-1.75,0-2.31,0s-1.71,0-2.08,0-.34-.07-.36-.29,0-1.12,0-1.31-.17-.41-.69-.41-.67.11-.69.41c0,.52,0,1.33,0,2.14s0,1.61,0,2.13c0,.3.22.41.69.41s.67-.15.69-.41,0-1.21,0-1.45.06-.28.36-.3,1.52,0,2.08,0,1.57,0,2.31,0c.32,0,.36.13.36.46a18.56,18.56,0,0,1-.28,2.89c-.23,1-.6,1.21-1.62,1.34a34.81,34.81,0,0,1-4,.17,33.45,33.45,0,0,1-3.93-.17c-1.07-.13-1.4-.33-1.64-1.34a19.36,19.36,0,0,1-.32-3.76,18.42,18.42,0,0,1,.32-3.69c.24-1,.57-1.21,1.64-1.34a33.45,33.45,0,0,1,3.93-.17A34.81,34.81,0,0,1,604.85,160.53Z"/><path class="cls-2" d="M623.51,168c0,.31.21.4.75.4s.73-.09.75-.4,0-.58,0-.9.06-.28.36-.3,1.53,0,2.08,0,1.53,0,2.22,0c.36,0,.39.21.39.56a10.41,10.41,0,0,1-.24,1.88c-.2,1-.56,1.25-1.64,1.38s-2.55.17-3.93.17a33.56,33.56,0,0,1-3.93-.17c-1.06-.13-1.4-.37-1.64-1.38a18.87,18.87,0,0,1-.32-3.72,17.94,17.94,0,0,1,.32-3.65c.24-1,.58-1.25,1.64-1.38a45.51,45.51,0,0,1,7.86,0c1.06.13,1.4.37,1.64,1.38a16.66,16.66,0,0,1,.32,3.14c0,.73-.1.86-.54.88-.66,0-1.46,0-2.15,0h-4C623.48,166.75,623.48,167.57,623.51,168Zm1.5-4.87c0-.31-.23-.41-.75-.41s-.73.1-.75.41,0,.75,0,1.23H625C625,164,625,163.56,625,163.17Z"/><path class="cls-1" d="M429.35,180.1c-25.06,0-245,0-252.22-.63h0c-5-.48-7.55-3.27-7.76-8.54-.14-3.67-.23-5.58-.3-7-.17-3.41-.17-3.41-.17-16.3a3.1,3.1,0,0,1,3.11-3.1H633.92a3.1,3.1,0,0,1,3.11,3.1c0,12.89,0,12.89-.17,16.3-.07,1.4-.16,3.31-.3,7-.21,5.28-2.75,8.07-7.76,8.55S431.28,180.1,429.35,180.1Zm-251.67-6.82c5.92.48,160.93.61,251.67.61,13.08,0,193.58-.17,198.86-.6a3.15,3.15,0,0,0,1.66-.48c.1-.11.42-.57.49-2.13.13-3.68.23-5.62.3-7,.14-3,.16-3.23.16-12.88H175.08c0,9.65,0,9.91.16,12.88.07,1.42.17,3.36.3,7.05.07,1.55.39,2,.49,2.12A3.06,3.06,0,0,0,177.68,173.28Z"/><path class="cls-1" d="M217.26,44.4c3.1-.31,10.84-.62,18.74-.62,7.74,0,15.48.31,18.57.62,3.25.31,4.8,1.7,5,5.57.46,12.55.46,29.88.46,48,0,18.42,0,35.45-.46,48-.16,3.87-1.71,5.27-5,5.57-3.09.31-10.83.62-18.57.62-7.9,0-15.64-.31-18.74-.62s-4.64-1.7-4.64-5.57V112.68H199V146c0,3.87-1.39,5.27-4.64,5.57-3.1.31-10.84.62-18.73.62s-15.48-.31-18.58-.62c-3.25-.3-4.8-1.7-5-5.57-.46-12.54-.46-29.57-.46-48,0-18.12,0-35.45.46-48,.16-3.87,1.71-5.26,5-5.57,3.1-.31,10.84-.62,18.58-.62s15.63.31,18.73.62c3.25.31,4.64,1.7,4.64,5.57V81.71h13.63V50C212.62,46.1,214,44.71,217.26,44.4Z"/><path class="cls-1" d="M372.23,126.3c.16,3.1.16,6.19.16,9.6s0,7-.16,10.06c-.15,3.87-2.16,5.27-5.42,5.57-4.64.47-34.52.62-42.73.62-8.51,0-35.91,0-43.19-.62-3.25-.3-4.8-1.7-4.95-5.57-.47-12.54-.47-29.88-.47-48s0-35.45.47-48c.15-3.87,1.7-5.26,4.95-5.57,7.28-.62,34.68-.62,43.19-.62,8.21,0,38.09.16,42.73.62,3.26.31,5.27,1.7,5.42,5.57.16,3.1.16,6.66.16,10.07s0,6.5-.16,9.6c-.15,3.25-1.08,4.33-3.87,4.33H323.31c-1.39,0-1.86.62-1.86,2.79v5.88c0,2.17.47,2.48,1.86,2.48h42c2.63,0,3.71.46,3.87,3.09.15,3.1.15,6.66.15,9.76s0,6.66-.15,9.75c-.16,2.63-1.24,3.1-3.87,3.1h-42c-1.39,0-1.86.62-1.86,2.78v5.89c0,2.17.47,2.47,1.86,2.47h45.05C371.15,122,372.08,123.05,372.23,126.3Z"/><path class="cls-1" d="M496.08,148a3.05,3.05,0,0,1-.77,2.33c-.77.77-2,1.23-4.33,1.39-4.34.31-11.31.46-17.34.46s-12.7,0-17.5-.46c-5.88-.62-7.58-2-9.6-7.59l-9-25.23h-5.42v26.94c0,3.87-1.54,5.26-4.79,5.57s-10.22.62-18.12.62c-7.58,0-14.4-.31-17.49-.62-3.25-.31-4.8-1.7-5-5.57-.46-12.54-.46-29.57-.46-48,0-18.11,0-35.29.46-47.84.16-3.87,1.71-5.26,5-5.57,7.12-.62,29.88-.77,47.22-.77,11.92,0,25.39.31,34.21,1.08,18.27,1.55,21.52,7.9,21.52,34.37,0,23.69-2.94,29-14.86,31.58l14.55,31.12C495.93,145.19,496.08,146.74,496.08,148Zm-48.3-59.76a30.8,30.8,0,0,0,.62-7.12,30.91,30.91,0,0,0-.62-7.12c-.46-2.48-.93-3.09-3.25-3.09h-11c-1.09,0-1.55.92-1.55,3.09V88.21c0,2.33.46,3.1,1.55,3.1h11C446.85,91.31,447.32,90.69,447.78,88.21Z"/><ellipse class="cls-1" cx="507.6" cy="115.89" rx="9.56" ry="12.08"/><ellipse class="cls-1" cx="368.58" cy="78.39" rx="38.59" ry="12.08"/><ellipse class="cls-1" cx="368.58" cy="115.89" rx="38.59" ry="12.08"/><path class="cls-1" d="M615.29,147.05c0,2.78-1.39,4.33-4.49,4.64s-11.76.62-18.89.62-14.08-.16-17.18-.47c-5.11-.46-5.88-1.23-6.81-7.27l-1.4-9H550.11l-1.39,9c-.93,6-1.7,6.81-6.81,7.27-3.1.31-10.06.47-17.19.47s-15.79-.31-18.88-.62-4.49-1.86-4.49-4.64a51.41,51.41,0,0,1,1.7-10.22l20.44-87.78c.77-3.56,2.78-4.8,6.5-5s19-.46,28.33-.46,24.61.31,28.33.46,5.73,1.4,6.5,5l20.44,87.78A51.41,51.41,0,0,1,615.29,147.05Zm-62.54-37h11.14l-5.26-35.6H558Z"/><path class="cls-1" d="M236,155.26c-8.25,0-16-.33-19.05-.64-5-.47-7.44-3.31-7.44-8.66V115.78H202.1V146c0,5.35-2.44,8.19-7.46,8.67-3.06.3-10.78.63-19,.63s-15.81-.33-18.89-.64c-5-.47-7.54-3.27-7.75-8.53-.47-12.61-.47-29.86-.47-48.12s0-35.51.47-48.11c.21-5.28,2.75-8.07,7.76-8.55,3.07-.31,10.73-.63,18.88-.63s16,.32,19,.63c5,.48,7.44,3.31,7.44,8.66V78.61h7.41V50c0-5.34,2.44-8.18,7.45-8.66,3.08-.31,10.8-.63,19-.63s15.81.32,18.88.63c5,.48,7.54,3.27,7.75,8.54.47,12.61.47,29.86.47,48.12s0,35.51-.47,48.11c-.21,5.27-2.75,8.07-7.76,8.55C251.81,154.93,244.14,155.26,236,155.26Zm-40.11-45.69h19.83V146c0,2.31.28,2.34,1.84,2.48,3,.3,10.68.61,18.44.61s15.3-.31,18.26-.6a3.06,3.06,0,0,0,1.68-.49c.1-.1.42-.56.48-2.12.47-12.48.47-29.67.47-47.87s0-35.4-.47-47.88c-.06-1.55-.38-2-.48-2.12a3.05,3.05,0,0,0-1.66-.48c-3-.3-10.63-.6-18.28-.6s-15.46.3-18.43.6h0c-1.56.15-1.84.18-1.84,2.48V84.82H195.89V50c0-2.3-.28-2.33-1.83-2.48-3-.3-10.69-.6-18.44-.6s-15.3.3-18.27.6a3.11,3.11,0,0,0-1.68.48c-.1.11-.42.57-.48,2.13-.46,12.47-.46,29.67-.46,47.87s0,35.39.46,47.88c.06,1.55.38,2,.48,2.11a3,3,0,0,0,1.66.48c3,.3,10.63.61,18.29.61s15.45-.31,18.42-.6c1.57-.15,1.85-.18,1.85-2.49Z"/><path class="cls-1" d="M324.08,155.26c-8.91,0-36,0-43.45-.63h0c-5-.48-7.56-3.28-7.77-8.54-.46-12.61-.46-29.86-.46-48.12s0-35.51.46-48.11c.21-5.28,2.75-8.07,7.77-8.55h0c7.41-.63,34.54-.63,43.45-.63,8.1,0,38.22.15,43,.63,6.53.62,8.07,5,8.22,8.54.15,3.14.15,6.72.15,10.19s0,6.58-.16,9.75c-.08,1.8-.34,7.29-7,7.29h-43.8V82h40.71c1.81,0,6.61,0,7,6,.16,3.2.16,6.78.16,9.94s0,6.73-.16,9.91c-.36,6-5.16,6-7,6H324.56v4.94h43.8c6.62,0,6.89,5.47,7,7.29.16,3.17.16,6.36.16,9.75s0,7-.16,10.22c-.14,3.52-1.68,7.88-8.22,8.51C362.3,155.11,332.18,155.26,324.08,155.26Zm-42.91-6.82c4.76.4,19.2.61,42.91.61,10.36,0,38.18-.18,42.42-.6,2.11-.21,2.55-.64,2.63-2.61.15-3.05.15-6.55.15-9.94s0-6.43-.15-9.45h0a7.26,7.26,0,0,0-.16-1.35c-.13,0-.33,0-.61,0H323.31c-3.29,0-5-1.88-5-5.58V113.6a6.86,6.86,0,0,1,.94-3.95,4.59,4.59,0,0,1,4-1.94h42l.76,0a.76.76,0,0,1,0-.15c.15-3,.15-6.49.15-9.57s0-6.58-.15-9.6a.53.53,0,0,1,0-.12,7.42,7.42,0,0,0-.76,0h-42c-3.29,0-5-1.87-5-5.58V76.76a6.91,6.91,0,0,1,.94-4,4.59,4.59,0,0,1,4-1.93h45.05a4.05,4.05,0,0,0,.61,0,7,7,0,0,0,.16-1.34c.15-3,.15-6,.15-9.45s0-6.89-.15-9.91c-.08-2-.52-2.44-2.61-2.64-4.26-.42-32.08-.6-42.44-.6-23.71,0-38.15.2-42.91.6a3.13,3.13,0,0,0-1.65.48c-.1.11-.42.57-.48,2.13-.46,12.47-.46,29.67-.46,47.87s0,35.39.46,47.88c.06,1.55.38,2,.48,2.11A3,3,0,0,0,281.17,148.44Zm43.44-35.66Z"/><path class="cls-1" d="M473.64,155.26c-6,0-12.85,0-17.8-.48-7.06-.74-9.79-2.9-12.22-9.62L435.37,122h-.12v23.84c0,5.27-2.56,8.18-7.61,8.66-3,.31-10.11.63-18.41.63-7.87,0-14.75-.32-17.8-.63-5-.48-7.54-3.27-7.75-8.54-.47-12.61-.47-29.86-.47-48.12s0-35.35.47-47.95c.21-5.28,2.75-8.07,7.76-8.55,7.89-.69,33.16-.79,47.52-.79,14,0,26.55.4,34.48,1.1s15.7,2.25,20,9.31c3.64,6,4.37,15.2,4.37,28.15,0,21-2.08,29.74-13.6,33.61l13,27.81c1.64,3.61,2,5.6,2,7.47a6.19,6.19,0,0,1-1.68,4.52c-1.78,1.78-4.32,2.16-6.33,2.3C486.32,155.14,478.93,155.26,473.64,155.26ZM429,115.76h10.71l9.72,27.3c1.62,4.48,2.34,5.05,7,5.54s11.29.45,17.17.45c6.51,0,13.23-.18,17.11-.46a6.5,6.5,0,0,0,2.22-.4,1.41,1.41,0,0,0,0-.22c0-.66,0-1.77-1.42-4.89l-16.19-34.61,3.79-.84c9.39-2.07,12.43-4.74,12.43-28.55,0-26.95-3.54-30-18.68-31.27-7.77-.69-20.15-1.08-34-1.08-11.48,0-39,.08-46.95.76a3,3,0,0,0-1.64.48c-.1.11-.42.57-.48,2.13-.47,12.47-.47,29.59-.47,47.71s0,35.4.47,47.88c.06,1.55.38,2,.48,2.12a3.05,3.05,0,0,0,1.66.48c2.92.29,9.54.6,17.2.6s14.81-.3,17.81-.6c1.62-.15,2-.19,2-2.48Zm15.49-21.34h-11c-1.74,0-4.66-.81-4.66-6.21V74c0-5.6,3.26-6.2,4.66-6.2h11c4.32,0,5.65,2.21,6.29,5.54a33.66,33.66,0,0,1,.69,7.78,33.7,33.7,0,0,1-.69,7.79C450.18,92.21,448.85,94.42,444.53,94.42Zm-9.43-6.21h9.51q.06-.22.12-.57l0-.18a28.33,28.33,0,0,0,.53-6.37,28.33,28.33,0,0,0-.53-6.37l0-.18c0-.23-.08-.41-.12-.56H435.1Z"/><path class="cls-1" d="M591.91,155.41c-7.94,0-14.48-.18-17.49-.48-2.61-.23-5.14-.61-6.92-2.5s-2.17-4.29-2.65-7.39l-1-6.35H552.77l-1,6.35c-.48,3.1-1,5.61-2.65,7.39s-4.31,2.27-6.95,2.51c-3,.29-9.52.47-17.47.47-6.84,0-15.81-.29-19.19-.63-4.63-.46-7.29-3.28-7.29-7.73a51.56,51.56,0,0,1,1.79-11l20.43-87.74c1-4.74,4.11-7.15,9.4-7.37,3.79-.16,19-.47,28.46-.47s24.67.31,28.46.47c5.29.22,8.36,2.63,9.4,7.37l20.43,87.76a51.24,51.24,0,0,1,1.79,10.93c0,4.45-2.66,7.27-7.29,7.73C607.73,155.12,598.76,155.41,591.91,155.41Zm-44.46-22.93h21.73L571,144.09c.13.89.54,3.57,1,4.08.12.12.67.37,3,.58,2.8.28,9.26.45,16.9.45,7.18,0,15.73-.32,18.58-.6,1.7-.17,1.7-.55,1.7-1.55a48.42,48.42,0,0,0-1.62-9.5L590.12,49.71c-.38-1.73-.78-2.4-3.6-2.52-3.65-.15-19-.46-28.2-.46s-24.55.31-28.2.46c-2.82.12-3.22.79-3.6,2.52v0l-20.44,87.78a48.78,48.78,0,0,0-1.62,9.52c0,1,0,1.38,1.69,1.55,2.86.28,11.41.6,18.58.6,7.64,0,14.11-.17,16.88-.45,2.35-.21,2.9-.46,3-.58.48-.51.9-3.19,1-4.07Zm20-19.33H549.15l6.18-41.82h6Zm-11.15-6.21h3.95l-2-13.36Z"/><path class="cls-3" d="M235.89,44.4c3.1-.31,10.84-.62,18.74-.62,7.74,0,15.48.31,18.57.62,3.26.31,4.8,1.7,5,5.57.46,12.55.46,29.88.46,48,0,18.42,0,35.45-.46,48-.16,3.87-1.7,5.27-5,5.57-3.09.31-10.83.62-18.57.62-7.9,0-15.64-.31-18.74-.62s-4.64-1.7-4.64-5.57V112.68H217.63V146c0,3.87-1.4,5.27-4.65,5.57-3.1.31-10.84.62-18.73.62s-15.48-.31-18.58-.62-4.8-1.7-4.95-5.57c-.47-12.54-.47-29.57-.47-48,0-18.12,0-35.45.47-48,.15-3.87,1.7-5.26,4.95-5.57s10.84-.62,18.58-.62,15.63.31,18.73.62c3.25.31,4.65,1.7,4.65,5.57V81.71h13.62V50C231.25,46.1,232.64,44.71,235.89,44.4Z"/><path class="cls-4" d="M390.86,126.3c.16,3.1.16,6.19.16,9.6s0,7-.16,10.06c-.15,3.87-2.16,5.27-5.41,5.57-4.65.47-34.53.62-42.73.62-8.52,0-35.92,0-43.2-.62-3.25-.3-4.8-1.7-4.95-5.57-.47-12.54-.47-29.88-.47-48s0-35.45.47-48c.15-3.87,1.7-5.26,4.95-5.57,7.28-.62,34.68-.62,43.2-.62,8.2,0,38.08.16,42.73.62,3.25.31,5.26,1.7,5.41,5.57.16,3.1.16,6.66.16,10.07s0,6.5-.16,9.6C390.71,72.89,389.78,74,387,74H341.94c-1.39,0-1.86.62-1.86,2.79v5.88c0,2.17.47,2.48,1.86,2.48h42c2.63,0,3.71.46,3.87,3.09.15,3.1.15,6.66.15,9.76s0,6.66-.15,9.75c-.16,2.63-1.24,3.1-3.87,3.1h-42c-1.39,0-1.86.62-1.86,2.78v5.89c0,2.17.47,2.47,1.86,2.47H387C389.78,122,390.71,123.05,390.86,126.3Z"/><path class="cls-5" d="M514.72,148a3.06,3.06,0,0,1-.78,2.33c-.77.77-2,1.23-4.33,1.39-4.34.31-11.31.46-17.34.46s-12.7,0-17.5-.46c-5.88-.62-7.58-2-9.6-7.59l-9-25.23h-5.41v26.94c0,3.87-1.55,5.26-4.8,5.57s-10.22.62-18.12.62c-7.58,0-14.39-.31-17.49-.62s-4.8-1.7-5-5.57c-.46-12.54-.46-29.57-.46-48,0-18.11,0-35.29.46-47.84.16-3.87,1.71-5.26,5-5.57,7.12-.62,29.88-.77,47.22-.77,11.92,0,25.39.31,34.21,1.08,18.27,1.55,21.52,7.9,21.52,34.37,0,23.69-2.94,29-14.86,31.58L513,141.78C514.56,145.19,514.72,146.74,514.72,148ZM466.41,88.21a30.8,30.8,0,0,0,.62-7.12,30.91,30.91,0,0,0-.62-7.12c-.46-2.48-.93-3.09-3.25-3.09h-11c-1.08,0-1.55.92-1.55,3.09V88.21c0,2.33.47,3.1,1.55,3.1h11C465.48,91.31,466,90.69,466.41,88.21Z"/><path class="cls-6" d="M633.92,147.05c0,2.78-1.39,4.33-4.49,4.64s-11.76.62-18.88.62-14.09-.16-17.19-.47c-5.11-.46-5.88-1.23-6.81-7.27l-1.39-9H568.74l-1.39,9c-.93,6-1.7,6.81-6.81,7.27-3.1.31-10.06.47-17.19.47s-15.79-.31-18.88-.62-4.49-1.86-4.49-4.64a51.41,51.41,0,0,1,1.7-10.22l20.44-87.78c.77-3.56,2.78-4.8,6.5-5s19-.46,28.33-.46,24.62.31,28.33.46,5.73,1.4,6.5,5l20.44,87.78A51.41,51.41,0,0,1,633.92,147.05Zm-62.54-37h11.14l-5.26-35.6h-.62Z"/><path class="cls-1" d="M254.63,155.26c-8.25,0-16-.33-19-.64-5-.47-7.44-3.31-7.44-8.66V115.78h-7.41V146c0,5.35-2.44,8.19-7.45,8.67-3.07.3-10.79.63-19,.63s-15.81-.33-18.89-.64c-5-.47-7.54-3.27-7.75-8.53-.46-12.61-.46-29.86-.46-48.12s0-35.51.46-48.11c.21-5.28,2.75-8.07,7.77-8.55,3.06-.31,10.72-.63,18.87-.63s16,.32,19,.63c5,.48,7.44,3.31,7.44,8.66V78.61h7.41V50c0-5.34,2.44-8.18,7.45-8.66,3.08-.31,10.8-.63,19-.63s15.81.32,18.88.63c5,.48,7.54,3.27,7.75,8.54.47,12.61.47,29.86.47,48.12s0,35.51-.47,48.11c-.21,5.27-2.75,8.07-7.76,8.55C270.44,154.93,262.77,155.26,254.63,155.26Zm-40.11-45.69h19.83V146c0,2.31.28,2.34,1.84,2.48,3,.3,10.68.61,18.44.61s15.3-.31,18.27-.6a3,3,0,0,0,1.67-.49c.1-.1.42-.56.49-2.12.46-12.48.46-29.67.46-47.87s0-35.4-.46-47.88c-.07-1.55-.39-2-.49-2.12a3.05,3.05,0,0,0-1.66-.48c-3-.3-10.63-.6-18.28-.6s-15.46.3-18.43.6h0c-1.56.15-1.84.18-1.84,2.48V84.82H214.52V50c0-2.3-.28-2.33-1.83-2.48-3-.3-10.69-.6-18.44-.6s-15.3.3-18.27.6a3.11,3.11,0,0,0-1.68.48c-.1.11-.42.57-.48,2.13-.46,12.47-.46,29.67-.46,47.87s0,35.39.46,47.88c.06,1.55.38,2,.48,2.11a3,3,0,0,0,1.66.48c3,.3,10.63.61,18.29.61s15.45-.31,18.42-.6c1.57-.15,1.85-.18,1.85-2.49Z"/><path class="cls-1" d="M342.72,155.26c-8.92,0-36.05,0-43.46-.63h0c-5-.48-7.55-3.28-7.77-8.54C291,133.48,291,116.23,291,98s0-35.51.46-48.11c.22-5.28,2.75-8.07,7.77-8.55h0c7.41-.63,34.54-.63,43.46-.63,8.09,0,38.21.15,43,.63,6.53.62,8.07,5,8.22,8.54.15,3.14.15,6.72.15,10.19s0,6.58-.16,9.75c-.08,1.8-.34,7.29-7,7.29h-43.8V82H383.9c1.81,0,6.61,0,7,6,.16,3.2.16,6.78.16,9.94s0,6.73-.16,9.91c-.36,6-5.16,6-7,6H343.19v4.94H387c6.62,0,6.89,5.47,7,7.29.16,3.17.16,6.36.16,9.75s0,7-.16,10.22c-.14,3.52-1.68,7.88-8.22,8.51C380.93,155.11,350.81,155.26,342.72,155.26Zm-42.92-6.82c4.76.4,19.2.61,42.92.61,10.35,0,38.17-.18,42.42-.6,2.1-.21,2.54-.64,2.62-2.61.15-3.05.15-6.55.15-9.94s0-6.43-.15-9.45h0a6.46,6.46,0,0,0-.16-1.35c-.13,0-.33,0-.61,0H341.94c-3.29,0-5-1.88-5-5.58V113.6a6.86,6.86,0,0,1,.94-3.95,4.59,4.59,0,0,1,4-1.94h42l.76,0a.76.76,0,0,1,0-.15c.15-3,.15-6.49.15-9.57s0-6.58-.15-9.6a.53.53,0,0,1,0-.12,7.42,7.42,0,0,0-.76,0h-42c-3.29,0-5-1.87-5-5.58V76.76a6.91,6.91,0,0,1,.94-4,4.59,4.59,0,0,1,4-1.93H387a4.05,4.05,0,0,0,.61,0,6.22,6.22,0,0,0,.16-1.34c.15-3,.15-6,.15-9.45s0-6.89-.15-9.91c-.08-2-.52-2.44-2.61-2.64-4.26-.42-32.08-.6-42.43-.6-23.72,0-38.16.2-42.92.6a3.13,3.13,0,0,0-1.65.48,3.6,3.6,0,0,0-.48,2.13c-.46,12.47-.46,29.67-.46,47.87s0,35.39.46,47.88c.06,1.55.39,2,.48,2.11A3,3,0,0,0,299.8,148.44Zm43.44-35.66Z"/><path class="cls-1" d="M492.27,155.26c-6,0-12.85,0-17.8-.48-7.05-.74-9.79-2.9-12.22-9.62L454,122h-.12v23.84c0,5.27-2.56,8.18-7.61,8.66-3,.31-10.11.63-18.41.63-7.87,0-14.74-.32-17.8-.63-5-.48-7.54-3.27-7.75-8.54-.47-12.61-.47-29.86-.47-48.12s0-35.35.47-47.95c.21-5.28,2.75-8.07,7.76-8.55,7.89-.69,33.16-.79,47.52-.79,14,0,26.55.4,34.48,1.1s15.7,2.25,20,9.31c3.63,6,4.36,15.2,4.36,28.15,0,21-2.07,29.74-13.6,33.61l13,27.81c1.64,3.61,2,5.6,2,7.47a6.19,6.19,0,0,1-1.68,4.52c-1.78,1.78-4.32,2.16-6.33,2.3C505,155.14,497.56,155.26,492.27,155.26Zm-44.6-39.5h10.72l9.71,27.3c1.62,4.48,2.34,5.05,7,5.54s11.29.45,17.17.45c6.51,0,13.23-.18,17.12-.46a6.48,6.48,0,0,0,2.21-.4,1.41,1.41,0,0,0,0-.22c0-.66,0-1.77-1.42-4.89L494,108.47l3.79-.84c9.39-2.07,12.43-4.74,12.43-28.55,0-26.95-3.54-30-18.68-31.27-7.77-.69-20.15-1.08-34-1.08-11.48,0-39,.08-46.95.76A3.07,3.07,0,0,0,409,48c-.1.11-.42.57-.48,2.13-.46,12.47-.46,29.59-.46,47.71s0,35.4.46,47.88c.06,1.55.38,2,.48,2.12a3.09,3.09,0,0,0,1.66.48c2.93.29,9.54.6,17.2.6s14.81-.3,17.81-.6c1.62-.15,2-.19,2-2.48Zm15.49-21.34h-11c-1.74,0-4.65-.81-4.65-6.21V74c0-5.6,3.25-6.2,4.65-6.2h11c4.32,0,5.65,2.21,6.29,5.54a33.66,33.66,0,0,1,.69,7.78,33.7,33.7,0,0,1-.69,7.79C468.81,92.21,467.48,94.42,463.16,94.42Zm-9.43-6.21h9.52c0-.15.07-.34.11-.57l0-.18a28.33,28.33,0,0,0,.53-6.37,28.33,28.33,0,0,0-.53-6.37l0-.18c0-.23-.08-.41-.11-.56h-9.52Z"/><path class="cls-1" d="M610.55,155.41c-7.95,0-14.49-.18-17.5-.48-2.61-.23-5.13-.61-6.92-2.5s-2.17-4.29-2.65-7.39l-1-6.35H571.41l-1,6.35c-.48,3.1-1,5.61-2.65,7.39s-4.31,2.27-6.95,2.51c-3,.29-9.52.47-17.47.47-6.84,0-15.81-.29-19.19-.63-4.63-.46-7.29-3.28-7.29-7.73a51.56,51.56,0,0,1,1.79-11l20.43-87.74c1-4.74,4.11-7.15,9.4-7.37,3.79-.16,19-.47,28.46-.47s24.67.31,28.46.47c5.29.22,8.36,2.63,9.4,7.37l20.43,87.76A51.24,51.24,0,0,1,637,147.05c0,4.45-2.66,7.27-7.29,7.73C626.36,155.12,617.39,155.41,610.55,155.41Zm-44.47-22.93h21.74l1.8,11.61c.13.89.55,3.57,1,4.08.12.12.67.37,3,.58,2.8.28,9.27.45,16.91.45,7.17,0,15.72-.32,18.57-.6,1.7-.17,1.7-.55,1.7-1.55a48.42,48.42,0,0,0-1.62-9.5L608.75,49.71c-.38-1.73-.78-2.4-3.6-2.52-3.65-.15-19-.46-28.2-.46s-24.55.31-28.2.46c-2.82.12-3.22.79-3.6,2.52v0L524.7,137.53a48.78,48.78,0,0,0-1.62,9.52c0,1,0,1.38,1.7,1.55,2.85.28,11.4.6,18.57.6,7.64,0,14.11-.17,16.88-.45,2.35-.21,2.9-.46,3-.58.48-.51.9-3.19,1-4.07Zm20-19.33H567.78L574,71.33h6ZM575,106.94h4l-2-13.36Z"/><path class="cls-1" d="M44.75,84.37,9.36,67.21a.9.9,0,0,1,.78-1.63h0l35,18a.46.46,0,0,1,.2.61A.47.47,0,0,1,44.75,84.37Z"/><path class="cls-1" d="M9.76,65.16a.91.91,0,0,1-.32-.06.89.89,0,0,1-.52-1.16l3-7.83a.9.9,0,0,1,1.68.64l-3,7.83A.89.89,0,0,1,9.76,65.16Z"/><polygon class="cls-1" points="11.05 63.23 9.28 67.59 0.9 70.52 0.9 59.65 11.05 63.23"/><path class="cls-1" d="M.9,71.42a.9.9,0,0,1-.52-.17A.89.89,0,0,1,0,70.52V59.65a.89.89,0,0,1,.38-.73.92.92,0,0,1,.82-.12l10.15,3.58a.9.9,0,0,1,.53,1.19l-1.77,4.36a.88.88,0,0,1-.54.51L1.2,71.37A1,1,0,0,1,.9,71.42Zm.9-10.49v8.32l6.79-2.37,1.27-3.12Z"/><ellipse class="cls-1" cx="85.36" cy="175.59" rx="47.32" ry="4.51"/><circle class="cls-3" cx="177.09" cy="4.51" r="4.51"/><circle class="cls-3" cx="158.47" cy="19.36" r="6.76"/><circle class="cls-3" cx="177.09" cy="21.61" r="4.51"/><rect class="cls-7" x="88.69" y="34.81" width="49.57" height="81.12" transform="translate(86.53 -58.16) rotate(45)"/><path class="cls-1" d="M102.32,123.84a2.23,2.23,0,0,1-1.59-.66L65.67,88.12a2.26,2.26,0,0,1,0-3.19L123,27.57a2.29,2.29,0,0,1,1.6-.66,2.27,2.27,0,0,1,1.59.66l35.05,35.06a2.25,2.25,0,0,1,0,3.18l-57.36,57.37A2.23,2.23,0,0,1,102.32,123.84ZM70.45,86.53l31.87,31.87,54.17-54.18L124.63,32.35Z"/><path class="cls-7" d="M112.86,37.68h58.59a0,0,0,0,1,0,0v8a10,10,0,0,1-10,10H122.86a10,10,0,0,1-10-10v-8a0,0,0,0,1,0,0Z" transform="translate(74.65 -86.84) rotate(45)"/><ellipse class="cls-7" cx="148.53" cy="40.32" rx="4.51" ry="29.29" transform="translate(14.99 116.83) rotate(-45)"/><path class="cls-1" d="M116.66,37.13A6.77,6.77,0,0,1,115.11,30,6.49,6.49,0,0,1,116,28.3a7.24,7.24,0,0,1,.62-.73l.46-.45,1.82-1.82L126.22,18a2.26,2.26,0,0,1,3.19,3.19l-7.29,7.28L120.3,30.3l-.45.46a1.64,1.64,0,0,0-.21.25,1.91,1.91,0,0,0-.31.56,2.26,2.26,0,0,0,.52,2.38,2.25,2.25,0,1,1-3.16,3.21h0Z"/><path class="cls-1" d="M170.83,62.63c-1.89,2.12-3.88,4.16-5.87,6.18-1,1-2,2-3,3-.28.26-.43.44-.91.85a6.81,6.81,0,0,1-7.62.8,7,7,0,0,1-1.31-.92c-.45-.41-.6-.61-.86-.88-1-1-1.93-2.1-2.87-3.16-1.88-2.15-3.72-4.33-5.4-6.67a1.14,1.14,0,0,1,1.59-1.59,85.3,85.3,0,0,1,6.67,5.39c1.07,1,2.13,1.9,3.16,2.87a3.68,3.68,0,0,0,1.12.88,2.46,2.46,0,0,0,1,.18,2.39,2.39,0,0,0,1-.29,4.36,4.36,0,0,0,1-.92c1-1,2-2,3-3,2-2,4.06-4,6.19-5.88a2.26,2.26,0,0,1,3.18,3.19Z"/><path class="cls-1" d="M169.24,63.29a2.26,2.26,0,0,1-2-3.21c-.49-2.08-5.66-9.94-17.08-21.35s-19.27-16.59-21.36-17.08A2.25,2.25,0,0,1,126.22,18c1.91-1.91,5.17-.87,11.25,3.59a146.67,146.67,0,0,1,15.84,13.94,145.38,145.38,0,0,1,13.93,15.84c4.46,6.08,5.5,9.34,3.59,11.25A2.23,2.23,0,0,1,169.24,63.29Z"/><path class="cls-7" d="M123.38,65a54.08,54.08,0,1,1-76.48.45A54.08,54.08,0,0,1,123.38,65"/><path class="cls-3" d="M125.77,78.84a47.33,47.33,0,1,1-80.82,0"/><ellipse class="cls-1" cx="62.03" cy="101.48" rx="4.51" ry="10.14"/><ellipse class="cls-1" cx="84.57" cy="101.48" rx="4.51" ry="10.14"/><path class="cls-1" d="M136.07,81.63l1,2.31a22.26,22.26,0,0,1,.92,2.34l.8,2.39.19.6.16.61.31,1.22c.2.82.44,1.63.6,2.45l.44,2.49c.07.42.15.83.21,1.25l.13,1.26.24,2.52a56.47,56.47,0,0,1-2.44,20.07A55.63,55.63,0,0,1,129,139c-.26.33-.5.68-.79,1l-.86.94-1.71,1.9c-1.2,1.22-2.43,2.4-3.73,3.51a57.5,57.5,0,0,1-8.33,5.94A56.38,56.38,0,0,1,74,158.84a55.71,55.71,0,0,1-19-7.64A56.32,56.32,0,0,1,34.56,79,56,56,0,0,1,63.78,51.6a55.49,55.49,0,0,1,39.76-.73,54.31,54.31,0,0,1,17.23,10.25,1.13,1.13,0,0,1-1.45,1.73h0a56.14,56.14,0,0,0-8-5.25,53.17,53.17,0,0,0-45.9-2.09A51.89,51.89,0,0,0,44,134.33,53.15,53.15,0,0,0,57.66,147a50.83,50.83,0,0,0,17.28,7,52.53,52.53,0,0,0,18.67.46,51,51,0,0,0,9.11-2.28,52,52,0,0,0,22.84-16,45.2,45.2,0,0,0,2.83-3.77c.44-.65.89-1.29,1.32-2l1.17-2,.59-1c.21-.33.35-.7.53-1l1-2.13.25-.53.22-.55.43-1.1c.28-.74.6-1.46.85-2.21a55.63,55.63,0,0,0,2.93-18.66l-.13-2.38-.06-1.19c0-.39-.1-.79-.14-1.18l-.29-2.37c-.1-.79-.29-1.57-.44-2.35A57.66,57.66,0,0,0,134,82.52l0-.07a1.12,1.12,0,0,1,2.09-.82Z"/><path class="cls-1" d="M143,61.83c4,4,2.07,12.07-.8,16.73L151.71,69Z"/><ellipse class="cls-3" cx="85.36" cy="78.84" rx="40.41" ry="5.63"/><path class="cls-1" d="M71.79,85.28a147.22,147.22,0,0,1-15.25-.86,59.77,59.77,0,0,1-7.68-1.29c-.65-.17-1.3-.35-2-.59a10.18,10.18,0,0,1-2.1-1,4.51,4.51,0,0,1-.59-.44l-.32-.3a3.66,3.66,0,0,1-.32-.41,2.34,2.34,0,0,1-.3-.55,3.19,3.19,0,0,1-.11-.33,2.32,2.32,0,0,1-.07-.38,2.55,2.55,0,0,1,0-.78,2.66,2.66,0,0,1,.21-.69,2.94,2.94,0,0,1,.3-.53,4.46,4.46,0,0,1,.32-.39,4,4,0,0,1,.61-.53,7,7,0,0,1,1.09-.67,21.19,21.19,0,0,1,4-1.4c1.28-.34,2.56-.62,3.83-.86,2.55-.49,5.1-.82,7.64-1.11s5.08-.51,7.63-.69,5.08-.3,7.63-.39c5.08-.17,10.17-.21,15.25-.07s10.17.42,15.25.92c2.55.26,5.08.59,7.62,1a58.7,58.7,0,0,1,7.63,1.69c.64.2,1.28.42,1.93.69a9.81,9.81,0,0,1,2,1.13,3.57,3.57,0,0,1,1.11,1.36,2.33,2.33,0,0,1,.18,1.3,2.15,2.15,0,0,1-.18.62,2.5,2.5,0,0,1-.26.49l-.3.36a2.26,2.26,0,0,1-.29.26,3.78,3.78,0,0,1-.56.41,7.3,7.3,0,0,1-1,.53,21.22,21.22,0,0,1-3.91,1.11c-1.28.25-2.56.43-3.83.58a1.13,1.13,0,0,1-.39-2.22h0c1.21-.28,2.41-.59,3.58-.93a18.81,18.81,0,0,0,3.28-1.23,4.83,4.83,0,0,0,.62-.37,1.15,1.15,0,0,0,.19-.17l.06-.06s0,0,0,0,0,0,0,.08a.6.6,0,0,0,0,.16.83.83,0,0,0,0,.38c.08.16,0,.05-.14,0a6,6,0,0,0-1.33-.59c-.52-.19-1.09-.34-1.66-.49a64,64,0,0,0-7.22-1.21c-2.46-.29-5-.5-7.44-.68-10-.69-20-.8-30-.56-2.51.07-5,.19-7.5.33s-5,.31-7.46.54-5,.53-7.37.91c-1.21.19-2.41.41-3.58.68a18.1,18.1,0,0,0-3.21,1,5.78,5.78,0,0,0-.53.29c-.12.07-.16.18,0-.06a1.12,1.12,0,0,0,.08-.55.8.8,0,0,0,0-.15.61.61,0,0,1,0-.11c0-.06-.08-.12-.08-.13s-.05,0,0,0l0,0s.08.08.16.13a6.35,6.35,0,0,0,1.31.66c.51.2,1.07.38,1.64.56A64.71,64.71,0,0,0,57,81.22C61.9,82,66.89,82.56,71.9,83h0a1.13,1.13,0,0,1,1,1.23A1.14,1.14,0,0,1,71.79,85.28Z"/><path class="cls-2" d="M85.65,152.5A49.4,49.4,0,0,1,39.6,122.75,50,50,0,0,1,39,84.59a50.4,50.4,0,0,1,46.08-31.8h0a3.38,3.38,0,0,1,.11,6.76h-.07A44.08,44.08,0,0,0,53.81,72.3,44.73,44.73,0,0,0,43.89,121a45.35,45.35,0,0,0,41.74,28.17h0a1.69,1.69,0,0,1,0,3.38Z"/><path class="cls-1" d="M62.31,121.94a10.54,10.54,0,0,0,2,.86c.71.21,1.45.41,2.2.56a37.28,37.28,0,0,0,4.61.62,58.87,58.87,0,0,0,9.39-.08,45.76,45.76,0,0,0,9.11-1.66,21.93,21.93,0,0,0,4.1-1.64,9.21,9.21,0,0,0,3-2.38l0,0a2.26,2.26,0,0,1,3.6,2.73l-.09.11a13.52,13.52,0,0,1-4.66,3.36,26.68,26.68,0,0,1-5,1.66,48.93,48.93,0,0,1-9.93,1.22,60.54,60.54,0,0,1-9.89-.49,41.76,41.76,0,0,1-4.89-1,16.11,16.11,0,0,1-4.82-2,1.13,1.13,0,0,1,1.2-1.91Z"/><path class="cls-1" d="M71.45,126.24l-.61,6.45,3.27,4.22s12.3-1.07,12.39-1.21,11.25-12.77,11.25-12.77l-7.37.15-8.5,1.76-8.51.27Z"/><path class="cls-8" d="M82.16,128.6a7.47,7.47,0,0,0-1,.6,10.46,10.46,0,0,0-1.16,1,8.22,8.22,0,0,0-1.77,2.43h0a.27.27,0,0,1-.51-.18,9.34,9.34,0,0,1,1.4-3c.14-.2.29-.4.45-.59-1.47-.56-7.88.07-7.88,2.51l.72,3.22s3.74,1.76,3.74,1.85,7.18,0,7.18,0L88,134C88.85,130.88,85.67,128.25,82.16,128.6Z"/><path class="cls-1" d="M77.33,139.8a9.93,9.93,0,0,1-6.8-2.28c-2-1.82-4-5.53-1.65-12.82.38-1.18,1,.24,2.14.62s2.53-.43,2.15.76c-1.24,3.89-1.12,6.76.36,8.09,1.89,1.69,6.28,1.43,10.91-.64,5.66-2.52,11.74-8,11.74-13.91a2.26,2.26,0,0,1,4.51,0c0,8-7.24,14.82-14.41,18A22.47,22.47,0,0,1,77.33,139.8Z"/><path class="cls-1" d="M97.49,113.92c.46.76.79,1.51,1.23,2.1A5.14,5.14,0,0,0,100,117.4a3.63,3.63,0,0,0,1.51.57,8.62,8.62,0,0,0,2.12-.06h.12a.82.82,0,0,1,.92.72.8.8,0,0,1-.15.59,4.41,4.41,0,0,1-2.87,1.66,4.75,4.75,0,0,1-3.49-.92,5.8,5.8,0,0,1-2-2.76c-.07-.26-.15-.51-.21-.76s-.08-.5-.11-.75a4.71,4.71,0,0,1,0-.75c0-.25,0-.49,0-.74a.81.81,0,0,1,.9-.72.83.83,0,0,1,.61.39Z"/><path class="cls-1" d="M73,141.42a4.83,4.83,0,0,0,2,.69,12.42,12.42,0,0,0,2.21.09,19.28,19.28,0,0,0,2.26-.25,9.87,9.87,0,0,0,2-.5l.24-.1a.55.55,0,0,1,.69.74,3.12,3.12,0,0,1-1.09,1.2c-.21.14-.42.26-.64.38L80,144a8.08,8.08,0,0,1-2.74.49,7.81,7.81,0,0,1-2.81-.45,4.21,4.21,0,0,1-2.32-1.84.58.58,0,0,1,.24-.78.6.6,0,0,1,.58,0Z"/><path class="cls-1" d="M128.09,91.23l18.33,40.29a.9.9,0,0,1-.19,1h0L126.4,152.07a.9.9,0,0,1-1.26-1.29L145,131.24l-.19,1L127.27,91.6a.46.46,0,0,1,.24-.6A.45.45,0,0,1,128.09,91.23Z"/><polygon class="cls-1" points="125.77 151.43 131.39 160.44 140.29 159.35 131.34 151.63 125.77 151.43"/><path class="cls-1" d="M131.39,161.34a.91.91,0,0,1-.77-.43l-5.61-9a.89.89,0,0,1,0-.93.91.91,0,0,1,.81-.45l5.58.21a.87.87,0,0,1,.55.22l8.94,7.72a.89.89,0,0,1-.47,1.57l-8.9,1.09Zm-4-9,4.42,7.08,6.31-.77L131,152.52Z"/></g></g></svg>