<?xml version="1.0" encoding="utf-8"?> <svg version="1.1" id="mama_seal" xmlns="http://www.w3.org/2000/svg" xmlns:xlink="http://www.w3.org/1999/xlink" x="0px" y="0px" viewBox="0 0 446.3 446.5" style="enable-background:new 0 0 446.3 446.5;" xml:space="preserve"> <style type="text/css"> .st0{fill-rule:evenodd;clip-rule:evenodd;fill:#7861A8;} .st1{fill-rule:evenodd;clip-rule:evenodd;fill:#7861A9;} </style> <path id="circle_1" class="st0" d="M223.1,0c123.2,0,223.1,100,223.1,223.3s-99.9,223.3-223.1,223.3S0,346.6,0,223.3S99.9,0,223.1,0 z M223.1,7.4c119.1,0,215.7,96.7,215.7,215.9s-96.6,215.9-215.7,215.9S7.4,342.5,7.4,223.3S104,7.4,223.1,7.4z"/> <path id="circle_2" class="st0" d="M223.6,69.7c85.1,0,154.1,68.9,154.1,154s-68.9,154.1-154,154.1s-154.1-68.9-154.1-154 c0,0,0-0.1,0-0.1C69.6,138.7,138.5,69.7,223.6,69.7z M223.5,74.3c82.5,0,149.3,66.9,149.3,149.5S306,373.3,223.5,373.3 S74.2,306.3,74.2,223.8S141,74.3,223.5,74.3z"/> <path id="star" class="st1" d="M221.2,399.3c0,2.7,2.1,4.8,4.8,4.8s4.8-2.1,4.8-4.8c0,0,0,0,0,0c0-2.7-2.2-4.8-4.8-4.8 C223.4,394.5,221.2,396.6,221.2,399.3z M221.1,419.6c0,2.6,2.1,4.8,4.8,4.8s4.8-2.1,4.8-4.8c0.1-2.6-2-4.8-4.6-4.9 c-2.6-0.1-4.8,2-4.9,4.6C221.1,419.4,221.1,419.5,221.1,419.6L221.1,419.6z M230.5,403.9c0,2.7,2.2,4.8,4.9,4.8 c2.6,0,4.7-2.2,4.8-4.8c0-2.7-2.1-4.9-4.8-4.9c-2.7,0-4.9,2.1-4.9,4.8C230.5,403.8,230.5,403.9,230.5,403.9z M230.5,414.7 c0.1,2.7,2.3,4.8,5,4.7c2.6-0.1,4.7-2.1,4.7-4.7c0-2.7-2.1-4.9-4.8-4.9c-2.7,0-4.9,2.1-4.9,4.8C230.5,414.7,230.5,414.7,230.5,414.7 z M211.7,414.7c0.1,2.7,2.3,4.8,5,4.7c2.6-0.1,4.7-2.1,4.7-4.7c0-2.7-2.1-4.9-4.8-4.9c-2.7,0-4.9,2.1-4.9,4.8 C211.7,414.7,211.7,414.7,211.7,414.7z M211.7,403.9c0,2.7,2.2,4.8,4.9,4.8c2.6,0,4.7-2.2,4.8-4.8c0-2.7-2.1-4.9-4.8-4.9 c-2.7,0-4.9,2.1-4.9,4.8C211.7,403.8,211.7,403.9,211.7,403.9z"/> <path id="text" class="st1" d="M161.2,382.5l-4.8-2.5l-10.1,19.8l-2.6-16.6l-0.7-0.4l-15,7.8l10.2-20l-4.8-2.5l-14.1,27.6l4.6,2.3 l15.6-8.3l2.8,17.7l4.9,2.5L161.2,382.5z M128.5,365.1l-4.2-3.5l-7.5,4.1l-10.2-8.4l2.5-8.2l-4.5-3.7l-9.6,32.3l3.7,3L128.5,365.1z M101.4,373.9l3.5-11.4l7,5.8L101.4,373.9z M72.2,355.1l3.6,4l16.9-15.2c1.6-1.5,3.2-1.8,4.6-0.4c0.6,0.8,1,1.7,1.1,2.7l4.3-1.5 c0-1.9-0.8-3.8-2.1-5.2c-3.4-3.7-7.1-3.7-10.8-0.3L72.2,355.1z M76.9,337.4c8.1-5.2,9.7-14.4,4.8-22.2s-14.3-10-22.1-5 c-8.1,5.2-9.7,14.5-4.7,22.2C59.9,340.4,69.3,342.2,76.9,337.4L76.9,337.4z M73.8,332.5c-5.4,3.5-11.5,2.1-14.7-2.8 c-3.1-4.9-1.8-11.2,3.6-14.6c5.1-3.3,11.3-2.6,14.8,2.9C80.4,322.8,79,329.2,73.8,332.5L73.8,332.5z M67.6,289.8l-10.8,4.2l-1.4-3.5 l7.7-12.2l-2.4-6.1l-8.3,13.6c-2.6-3-6.8-3.9-10.4-2.3c-5,1.9-7.9,6.1-4.8,13.9c0.3,0.8,2.9,7.1,3.5,8.8l28.9-11.2L67.6,289.8z M42.1,295.8c-1.6-4.1-0.1-6.1,2.1-7c3-1.2,5.5,0.9,6.6,3.8l1.3,3.3l-8.6,3.3C42.9,297.9,42.4,296.8,42.1,295.8L42.1,295.8z M55.6,249.8l-0.3-5.5l-8.1-2.7l-0.8-13.2l7.7-3.7l-0.4-5.8l-30.2,15l0.3,4.8L55.6,249.8z M30.7,235.9l10.7-5.2l0.6,9.1L30.7,235.9z M54.5,213l0.6-5.4l-12-1.3l1.2-10.9l-5.1-0.5l-1.2,10.9l-8.7-0.9l1.3-12.2l-5.1-0.5l-1.9,17.6L54.5,213z M57.8,188.4l1.4-5.3 l-11.7-3l2.7-10.6l-4.9-1.3l-2.7,10.6l-8.5-2.2l3.1-11.9l-4.9-1.3l-4.4,17.1L57.8,188.4z M65.1,163.8l2-5.1l-28.8-11.3l-2,5.1 L65.1,163.8z M71.2,149.3l9.2-17.1l-4.5-2.4l-6.6,12.3l-22.8-12.4l-2.6,4.8L71.2,149.3z M84.4,127l3.2-4.4l-25.2-18l-3.2,4.4 L84.4,127z M91,117l3.8-4l-3.5-7.8l9.2-9.5l7.9,3.1l4-4.2l-31.5-12L77.6,86L91,117z M84.3,89.3l11.1,4.4l-6.3,6.5L84.3,89.3z M96.3,74.7l8-6.1l15.6,20.7l4.3-3.3l-15.6-20.7l8-6.1l-3.1-4.1L93.3,70.6L96.3,74.7z M137.5,77l16.2-8.6l-2.4-4.5L139.9,70 l-3.8-7.1l9.9-5.2l-2.4-4.5l-9.9,5.2l-3.6-6.8l11-5.9l-2.4-4.5l-15.8,8.4L137.5,77z M181.1,58.2l5.4-0.9l-3.6-22l12,11.8l0.8-0.1 l7.4-15.2l3.7,22.1l5.3-0.9l-5.1-30.6l-5.1,0.8l-7.6,15.9l-12.8-12.6l-5.4,0.9L181.1,58.2z M217.8,52.8l5.5,0.3l3.6-7.8l13.2,0.7 L243,54l5.8,0.3l-11.5-31.7l-4.8-0.2L217.8,52.8z M234.4,29.5l4,11.2l-9.1-0.5L234.4,29.5z M259.7,56.9l2.7-11.3l3.7,0.9l5.6,13.3 l6.4,1.5l-6.5-14.6c3.9-0.4,7.1-3.3,7.9-7.2c1.2-5.2-0.5-9.9-8.7-11.9c-0.9-0.2-7.5-1.7-9.2-2.1l-7.2,30.1L259.7,56.9z M269.4,32.5 c4.3,1,5.1,3.4,4.5,5.7c-0.7,3.1-3.8,4-6.9,3.3l-3.4-0.8l2.1-9C267.2,32,268.4,32.2,269.4,32.5L269.4,32.5z M283.6,63.5l5,2.2 l6.4-14.6l5.1,19.7l6.3,2.8L300.8,53l17.5-8.1l-6-2.6l-17.1,8.5l5.9-13.4l-5-2.2L283.6,63.5z M311.4,76.9L326.7,87l2.8-4.2 l-10.8-7.1l4.4-6.7l9.3,6.2l2.8-4.2l-9.3-6.2l4.3-6.4l10.4,6.9l2.8-4.2l-15-9.9L311.4,76.9z M347.8,70.5l7.4,6.8l-17.5,19.1l4,3.7 l17.5-19.1l7.4,6.8L370,84l-18.8-17.3L347.8,70.5z M353.2,112l3.5,4.2l23.7-19.9l-3.5-4.2L353.2,112z M377,146.8l26.5-16.1l-2.6-4.4 l-18.4,11.2l9.6-25.8l-2.2-3.7l-26.5,16.1l2.6,4.4l18.4-11.1l-9.5,25.7L377,146.8z M396.3,164l2.5,7.1l-4.6,1.6 c-1.9-1.3-3.4-3.2-4.1-5.3c-2.1-5.9,0.6-11.3,6.8-13.5c6.5-2.3,11.7,0.5,13.7,6.1c0.9,2.4,0.9,5,0.1,7.4l4.9,0.7 c1.1-3.4,1-7.1-0.4-10.4c-3.2-8.9-11.8-12.2-20.2-9.2c-9.1,3.2-13.1,11-9.7,20.6c1.3,3.6,4.5,7.8,8,9.5l12.1-4.3l-4.2-11.9 L396.3,164z M394.4,204.3l0.1,5.5l8,3.1l0.3,13.2l-7.8,3.4l0.1,5.8l30.7-13.8l-0.1-4.8L394.4,204.3z M418.7,219.1l-10.9,4.8 l-0.2-9.1L418.7,219.1z M398,262.2c-1.3-2.3-1.7-5-1.3-7.6c1-6.3,6-9.9,12.4-8.9c6.6,1,10.1,6,9.2,11.6c-0.3,2.5-1.4,4.8-3.1,6.6 l3.6,3c2.5-2.3,4.2-5.4,4.6-8.8c1.6-10.1-4.6-16.8-13.3-18.1c-9.5-1.5-16.8,4-18.2,13.3c-0.6,4,0.2,8.1,1.9,10.3L398,262.2z M390.3,265.6l-1.8,5.2l6.4,5.7l-4.4,12.5l-8.5,0.4l-1.9,5.5l33.6-2l1.6-4.5L390.3,265.6z M407.9,288l-11.9,0.6l3-8.6L407.9,288z M377.2,300l-0.3,0.5c-1.4,2.4-3.3,5.4-4.2,7c-6,10.2-2.9,18.9,4.6,23.4c7,4.2,15.7,3.5,22-7.2c1.1-1.9,3.3-5.8,4.2-7.4l0.3-0.5 L377.2,300z M395,321c-3.8,6.4-9.4,8.1-14.8,4.9c-5.6-3.3-7.1-9.2-3.3-15.7c0.4-0.6,1-1.7,1.9-3l17.9,10.6 C396.2,319,395.7,319.9,395,321L395,321z M358.9,328.5l-12,13.9l3.9,3.3l8.4-9.8l6.1,5.2l-7.3,8.4l3.9,3.3l7.3-8.4l5.8,5l-8.2,9.4 l3.9,3.3l11.7-13.6L358.9,328.5z M341.4,348.5l-4.3,3.3l13.7,17.6l-16.2-4.7l-0.6,0.5l0.7,16.9L321,364.4l-4.3,3.3l19,24.5l4-3.2 l-0.9-17.6l17.2,4.9l4.3-3.4L341.4,348.5z M300.8,410.5l5.3-2.6l1.1-15l12.6,8.3l5.6-2.7L307.6,387l-5.7-11.6l-4.9,2.4l5.7,11.6 L300.8,410.5z"/> <path id="mama_logo" class="st0" d="M175.1,312.7l8.7-21.2h7.7v30h-5.6v-21.2l-8.6,21.2H173l-8.6-21.2v21.2h-5.6v-30h7.7 L175.1,312.7z M200.4,321.5h-5.8l12.5-30h4.6l12.5,30h-5.8l-2.8-7h-12.3L200.4,321.5z M205.1,309.8h8.5l-4.2-10.5L205.1,309.8z M243.6,312.7l8.7-21.2h7.7v30h-5.6v-21.2l-8.6,21.2h-4.3l-8.6-21.2v21.2h-5.6v-30h7.7L243.6,312.7z M268.9,321.5h-5.8l12.5-30h4.6 l12.5,30h-5.8l-2.8-7h-12.3L268.9,321.5z M273.6,309.8h8.5l-4.2-10.5L273.6,309.8z M292.8,276.6H156.3v-5.4h136.5L292.8,276.6 L292.8,276.6z M172.9,210.5c5-0.1,9,3.9,9.1,8.9c0.1,5-3.9,9-8.9,9.1s-9-3.9-9.1-8.9c0,0,0-0.1,0-0.1 C164,214.6,168,210.6,172.9,210.5 M172.9,198c-11.9-0.1-21.6,9.4-21.8,21.3c-0.1,11.9,9.4,21.6,21.3,21.8 c11.9,0.1,21.6-9.4,21.8-21.3c0-0.1,0-0.2,0-0.3C194.3,207.7,184.8,198.1,172.9,198L172.9,198L172.9,198z M272.9,210.5 c5-0.1,9,3.9,9.1,8.9c0.1,5-3.9,9-8.9,9.1c-5,0.1-9-3.9-9.1-8.9c0,0,0-0.1,0-0.1C264,214.6,267.9,210.6,272.9,210.5 M272.9,198 c-11.9-0.1-21.6,9.4-21.8,21.3c-0.1,11.9,9.4,21.6,21.3,21.8s21.6-9.4,21.8-21.3c0-0.1,0-0.2,0-0.3 C294.2,207.7,284.7,198.1,272.9,198L272.9,198z M230.4,238.9l-11.8,0c-0.1-0.3-10.4-32.7-37-55c-15-12.6-31.8-22.7-50-30 c-4.8-7.4-9.8-16.5-9.8-16.5c1.4,0.3,34.1,8.6,67.7,36.8c17.8,15,28.9,33.7,35,46.4c6.1-12.7,17.1-31.3,34.9-46.3 c34.2-28.8,66.4-36.5,67.8-36.9c0,0-4.9,7.6-11.7,17.2c-17.5,7.2-33.7,17.1-48.1,29.3C240.9,206.3,230.5,238.6,230.4,238.9 L230.4,238.9z M144.1,250.7h-12.4v-85.3l12.4,6.3L144.1,250.7L144.1,250.7z M314.5,250.7h-12.4v-78l12.4-7.3L314.5,250.7 L314.5,250.7z"/> </svg>
