<svg xmlns="http://www.w3.org/2000/svg" width="100" height="100" viewBox="0 0 100 100">
  <g id="Group_129" data-name="Group 129" transform="translate(-1004.194 -283.717)">
    <g id="Group_128" data-name="Group 128">
      <rect id="Rectangle_69" data-name="Rectangle 69" width="90" height="90" transform="translate(1009.194 288.717)" fill="#161616"/>
      <g id="Group_126" data-name="Group 126">
        <rect id="Rectangle_70" data-name="Rectangle 70" width="67.5" height="67.5" transform="translate(1020.444 299.967)" fill="#161616"/>
        <path id="Path_235" data-name="Path 235" d="M1087.944,299.967v67.5h-67.5v-67.5h67.5m2-2h-71.5v71.5h71.5v-71.5Z" fill="#fff"/>
      </g>
      <g id="Group_127" data-name="Group 127">
        <path id="Path_236" data-name="Path 236" d="M1056.873,329.968c0,5.849-4.443,9.485-11.543,9.485h-5.354v7.236h-6.151V320.445h11.505C1052.43,320.445,1056.873,324.082,1056.873,329.968Zm-6.227,0c0-2.887-1.9-4.573-5.658-4.573h-5.012V334.5h5.012C1048.747,334.5,1050.646,332.817,1050.646,329.968Z" fill="#fff"/>
        <path id="Path_237" data-name="Path 237" d="M1074.562,345.715a8.555,8.555,0,0,1-4.822,1.274c-4.822,0-7.632-2.437-7.632-7.236v-8.285h-3.152v-4.5h3.152v-4.911h5.924v4.911h5.087v4.5h-5.087v8.21a2.366,2.366,0,0,0,2.543,2.662,4.025,4.025,0,0,0,2.393-.75Z" fill="#fff"/>
      </g>
    </g>
    <rect id="Rectangle_71" data-name="Rectangle 71" width="100" height="100" transform="translate(1004.194 283.717)" fill="none"/>
  </g>
</svg>
