<?xml version="1.0" encoding="utf-8"?>
<!-- Generator: Adobe Illustrator 17.0.0, SVG Export Plug-In . SVG Version: 6.00 Build 0)  -->
<!DOCTYPE svg PUBLIC "-//W3C//DTD SVG 1.1//EN" "http://www.w3.org/Graphics/SVG/1.1/DTD/svg11.dtd">
<svg version="1.1" id="Слой_1" xmlns="http://www.w3.org/2000/svg" xmlns:xlink="http://www.w3.org/1999/xlink" x="0px" y="0px"
	 width="158px" height="41.267px" viewBox="0 0 158 41.267" enable-background="new 0 0 158 41.267" xml:space="preserve">
<g>
	<g>
		<g>
			<path fill="#5C9CD6" d="M28.383,40.85V16.494h6.437c1.501,0,2.648,0.072,3.439,0.216c1.111,0.185,2.041,0.537,2.792,1.056
				c0.751,0.519,1.355,1.247,1.813,2.183c0.457,0.936,0.686,1.964,0.686,3.085c0,1.923-0.612,3.55-1.835,4.882
				c-1.224,1.332-3.435,1.997-6.633,1.997h-3.707V40.85H28.383z M31.375,27.245h3.753c1.933,0,3.306-0.36,4.118-1.08
				c0.812-0.72,1.219-1.732,1.219-3.039c0-0.946-0.239-1.756-0.717-2.429c-0.478-0.673-1.108-1.118-1.89-1.334
				c-0.504-0.133-1.434-0.201-2.792-0.201h-3.692V27.245z"/>
			<path fill="#5C9CD6" d="M47.16,40.85V16.494h15.304v2.668H50.152v7.623h11.812v2.653H50.152v8.743h12.835v2.668H47.16z"/>
			<path fill="#5C9CD6" d="M66.669,40.85V16.494h3.07l13.62,19.497V16.494h2.869V40.85h-3.07L69.538,21.338V40.85H66.669z"/>
			<g>
				<path fill="#5C9CD6" d="M21.311,19.503c2.439,2.491,3.658,5.495,3.658,9.014s-1.219,6.523-3.658,9.014
					c-2.439,2.491-5.381,3.736-8.826,3.736c-3.445,0-6.387-1.245-8.826-3.736C1.22,35.04,0,32.035,0,28.517s1.22-6.523,3.659-9.014
					c2.439-2.491,5.381-3.736,8.826-3.736C15.93,15.767,18.872,17.012,21.311,19.503z M12.485,19.02
					c-2.571,0-4.764,0.926-6.578,2.779c-1.814,1.852-2.721,4.092-2.721,6.717c0,2.626,0.909,4.868,2.729,6.726
					c1.819,1.858,4.009,2.786,6.57,2.786c2.571,0,4.764-0.929,6.578-2.786c1.814-1.858,2.721-4.1,2.721-6.726
					c0-2.625-0.907-4.865-2.721-6.717C17.249,19.947,15.056,19.02,12.485,19.02z"/>
			</g>
		</g>
		<path fill-rule="evenodd" clip-rule="evenodd" fill="#888A8D" d="M128.494,8.889c0,1.667,0,5.002,0,5.002l2.658,0.039
			c0,0,0.356,0.435,0.547,0.636c0,0.013,0-0.024,0-0.011c0,6.618,0,13.235,0,19.853c0,0.013,0,0.026,0,0.039
			c-0.296,0.329-0.541,0.709-0.86,1.016c-0.825,0.03-1.533-0.057-2.345-0.039c0,1.72,0,3.439,0,5.159c-0.625,0-1.251,0-1.876,0
			c0-0.716,0-1.433,0-2.149c-1.575,1.03-3.589,1.96-6.136,2.149c-0.521,0-1.042,0-1.563,0c-3.746-0.331-6.263-1.892-8.285-3.947
			c0-0.013,0-0.026,0-0.039c0.914-0.988,1.652-2.151,2.189-3.517c-1.472,0-2.944,0-4.416,0c-0.013,0-0.026,0-0.039,0
			c-0.331-0.854-0.635-1.735-0.782-2.775c0-0.013,0-0.026,0-0.039c1.671,0.061,3.432,0.034,5.159,0.039c0.013,0,0.026,0,0.039,0
			c0.925,3.065,3.893,5.734,8.011,5.08c3.126-0.496,5.613-3.105,5.823-6.487c0.159-2.561-0.706-4.315-1.993-5.628
			c-1.064-1.086-2.422-1.971-4.338-2.11c-3.665-0.267-5.673,1.641-6.956,3.791c-0.013,0-0.026,0-0.039,0
			c-0.507-2.008-1.451-3.578-2.618-4.924c0-0.013,0-0.026,0-0.039c1.678-1.864,4.065-3.349,7.23-3.83
			c3.507-0.533,6.583,0.526,8.715,2.032c0-1.407,0-4.221,0-4.221s-2.228-0.013-3.322-0.039c0-1.681,0-3.361,0-5.041
			C125.029,8.889,126.762,8.889,128.494,8.889z"/>
		<path fill-rule="evenodd" clip-rule="evenodd" fill="#3C6AA0" d="M128.494,8.889c1.068,0,2.136,0,3.205,0c0,1.876,0,3.802,0,5.678
			c-0.195-0.197-0.547-0.636-0.547-0.636l-2.658-0.039C128.494,13.891,128.494,10.556,128.494,8.889z"/>
		<path fill-rule="evenodd" clip-rule="evenodd" fill="#5B9CD6" d="M131.699,8.889c3.113,0,6.227,0,9.34,0c0,1.667,0,5.002,0,5.002
			l-2.846-0.003c0,0,3.38,4.198,5.073,6.256c1.671-2.055,5.041-6.253,5.041-6.253s-1.876,0-2.814,0c0-1.667,0-3.335,0-5.002
			c4.169,0,8.337,0,12.506,0c0,1.667,0,5.002,0,5.002l-2.634,0.008c0,0-5.727,7.04-8.582,10.543
			c2.91,3.708,5.918,7.317,8.871,10.982c0.782,0,1.563,0,2.345,0c0,1.72,0,3.439,0,5.159c-4.169,0-8.337,0-12.506,0
			c0-1.72,0-3.439,0-5.159c1.042,0,2.084,0,3.126,0c-1.672-2.17-3.585-4.439-5.354-6.644c-1.804,2.208-3.591,4.434-5.393,6.644
			c1.055,0,2.11,0,3.165,0c0,1.72,0,3.439,0,5.159c-1.824,0-3.647,0-5.471,0c0-1.707,0-3.413,0-5.12
			c-1.2-0.022-2.592-0.013-3.869-0.039c0-0.326,0-0.651,0-0.977c0-0.013,0-0.026,0-0.039c2.693-3.299,5.371-6.614,8.051-9.926
			c-2.654-3.338-5.343-6.642-8.051-9.926c0-0.013,0-0.026,0-0.039C131.699,12.641,131.699,10.765,131.699,8.889z"/>
		<path fill-rule="evenodd" clip-rule="evenodd" fill="#672430" d="M110.673,20.027c1.168,1.346,2.112,2.916,2.618,4.924
			c-0.744,1.289-1.07,3.584-0.547,5.354c-1.727-0.005-3.488,0.022-5.159-0.039c-0.238-1.208-0.187-2.844,0-4.064
			c0.261,0,0.521,0,0.782,0c-0.031-0.399-0.302-0.897-0.469-1.29C108.488,22.948,109.409,21.316,110.673,20.027z"/>
		<path fill-rule="evenodd" clip-rule="evenodd" fill="#888A8D" d="M107.86,24.912c0.013,0,0.026,0,0.039,0
			c0.167,0.393,0.437,0.891,0.469,1.29c-0.261,0-0.521,0-0.782,0C107.665,25.76,107.784,25.358,107.86,24.912z"/>
		<path fill-rule="evenodd" clip-rule="evenodd" fill="#9C2C66" d="M113.292,24.951c0.013,0,0.026,0,0.039,0
			c0.366,1.537,0.599,3.646,0.234,5.354c-0.26,0-0.521,0-0.782,0c-0.013,0-0.026,0-0.039,0
			C112.222,28.535,112.548,26.24,113.292,24.951z"/>
		<path fill-rule="evenodd" clip-rule="evenodd" fill="#672430" d="M108.407,33.08c1.472,0,2.944,0,4.416,0
			c-0.536,1.366-1.275,2.529-2.189,3.517C109.755,35.562,108.944,34.457,108.407,33.08z"/>
		<path fill-rule="evenodd" clip-rule="evenodd" fill="#3C6AA0" d="M131.699,34.448c0,0.326,0,0.651,0,0.977
			c1.299,0.012,2.681-0.005,3.869,0.039c0,1.706,0,3.413,0,5.12c-2.358,0-4.716,0-7.074,0c0-1.72,0-3.439,0-5.159
			c0.812-0.018,1.52,0.069,2.345,0.039C131.158,35.157,131.403,34.777,131.699,34.448z"/>
		<path fill-rule="evenodd" clip-rule="evenodd" fill="#9C2C66" d="M96.917,22.958c1.125-0.959,2.445-1.724,4.455-1.798
			c0.174-0.021,0.513-0.004,0.664,0c2.988,0.203,4.698,1.685,5.823,3.752c0.013,0,0.026,0,0.039,0
			c0.589-1.964,1.51-3.596,2.775-4.885c0-0.013,0-0.026,0-0.039c-0.095-0.062-0.173-0.14-0.234-0.235
			c-0.166-0.199-0.348-0.381-0.547-0.547c-1.917-1.691-4.211-3.006-7.66-3.165c-0.326,0-0.651,0-0.977,0
			c-3.504,0.17-5.845,1.502-7.816,3.205c-0.305,0.257-0.505,0.468-0.742,0.743c-1.702,1.971-3.035,4.312-3.205,7.816
			c0,0.339,0,0.677,0,1.016c0.206,3.58,1.638,6.249,3.556,8.168c1.919,1.919,4.583,3.319,8.09,3.595c0.404,0,0.808,0,1.211,0
			c3.79-0.288,6.315-1.84,8.285-3.947c0-0.013,0-0.026,0-0.039c-0.879-1.035-1.69-2.14-2.228-3.517c-0.013,0-0.026,0-0.039,0
			c-0.382,0-0.964-0.038-1.368,0c-0.083,0.096-0.488,0.43-0.664,0.586c-1.473,1.298-3.842,2.245-6.566,1.524
			c-2.536-0.671-4.16-2.427-4.924-4.885c4.247,0,8.493,0,12.74,0c0-0.013,0-0.026,0-0.039c-0.238-1.208-0.187-2.844,0-4.064
			c-4.234-0.026-8.49,0-12.74-0.039c0.331-1.037,0.844-1.892,1.485-2.618C96.51,23.333,96.705,23.137,96.917,22.958z"/>
		<path fill-rule="evenodd" clip-rule="evenodd" fill="#888A8D" d="M96.331,23.544c0.179-0.212,0.374-0.407,0.586-0.586
			C96.738,23.17,96.543,23.365,96.331,23.544z"/>
	</g>
	<g>
		<path fill="#7F848C" d="M0.036,0.267c0.662-0.098,1.527-0.183,2.63-0.183c1.354,0,2.346,0.281,2.976,0.787
			c0.583,0.45,0.929,1.138,0.929,1.981c0,0.857-0.284,1.531-0.819,2.023C5.028,5.564,3.847,5.915,2.508,5.915
			c-0.409,0-0.787-0.014-1.102-0.085v3.794h-1.37V0.267z M1.406,4.833c0.299,0.07,0.677,0.098,1.134,0.098
			c1.653,0,2.661-0.716,2.661-2.023c0-1.25-0.992-1.854-2.504-1.854c-0.598,0-1.055,0.042-1.291,0.098V4.833z"/>
		<path fill="#7F848C" d="M17.486,4.791c0,3.26-2.22,4.987-4.929,4.987c-2.803,0-4.771-1.939-4.771-4.805
			C7.786,1.967,9.88,0,12.715,0C15.612,0,17.486,1.981,17.486,4.791z M9.25,4.946c0,2.023,1.229,3.835,3.386,3.835
			c2.173,0,3.401-1.784,3.401-3.934c0-1.882-1.103-3.85-3.386-3.85C10.384,0.997,9.25,2.866,9.25,4.946z"/>
		<path fill="#7F848C" d="M21,9.624l-2.692-9.469h1.449l1.26,4.791c0.315,1.18,0.598,2.36,0.787,3.274h0.032
			c0.173-0.941,0.504-2.065,0.866-3.288l1.417-4.777h1.433l1.291,4.805c0.299,1.124,0.583,2.248,0.74,3.246h0.032
			c0.22-1.04,0.52-2.093,0.85-3.274l1.401-4.777h1.402L28.26,9.624h-1.433l-1.338-4.932c-0.331-1.208-0.551-2.136-0.693-3.091
			h-0.032c-0.189,0.941-0.425,1.869-0.819,3.091l-1.512,4.932H21z"/>
		<path fill="#7F848C" d="M38.09,5.184h-4.125v3.414h4.598v1.026h-5.968V0.155h5.732V1.18h-4.362v2.993h4.125V5.184z"/>
		<path fill="#7F848C" d="M40.344,0.281c0.693-0.126,1.685-0.197,2.63-0.197c1.464,0,2.409,0.239,3.071,0.773
			c0.535,0.422,0.834,1.068,0.834,1.798c0,1.25-0.882,2.079-2,2.417v0.042c0.819,0.253,1.307,0.927,1.559,1.911
			c0.346,1.32,0.598,2.234,0.819,2.599h-1.417c-0.173-0.267-0.409-1.082-0.708-2.262c-0.315-1.307-0.882-1.798-2.126-1.841h-1.291
			v4.103h-1.37V0.281z M41.714,4.594h1.401c1.464,0,2.394-0.716,2.394-1.798c0-1.222-0.992-1.756-2.441-1.77
			c-0.661,0-1.134,0.056-1.354,0.112V4.594z"/>
		<path fill="#7F848C" d="M54.313,5.184h-4.125v3.414h4.598v1.026h-5.968V0.155h5.732V1.18h-4.362v2.993h4.125V5.184z"/>
		<path fill="#7F848C" d="M56.567,0.281c0.834-0.112,1.827-0.197,2.913-0.197c1.968,0,3.37,0.408,4.299,1.18
			c0.944,0.773,1.496,1.869,1.496,3.4c0,1.545-0.535,2.81-1.527,3.681c-0.992,0.885-2.63,1.363-4.693,1.363
			c-0.976,0-1.795-0.043-2.488-0.112V0.281z M57.937,8.654c0.346,0.057,0.85,0.071,1.386,0.071c2.929,0,4.519-1.461,4.519-4.018
			c0.016-2.234-1.401-3.653-4.299-3.653c-0.708,0-1.244,0.056-1.606,0.126V8.654z"/>
		<path fill="#7F848C" d="M70.397,0.281c0.599-0.112,1.543-0.197,2.504-0.197c1.37,0,2.252,0.211,2.913,0.688
			c0.551,0.366,0.882,0.928,0.882,1.672c0,0.913-0.677,1.714-1.795,2.079v0.028c1.008,0.225,2.188,0.969,2.188,2.374
			c0,0.815-0.362,1.433-0.897,1.897c-0.74,0.604-1.937,0.885-3.669,0.885c-0.945,0-1.669-0.057-2.126-0.112V0.281z M71.767,4.159
			h1.244c1.448,0,2.299-0.674,2.299-1.588c0-1.11-0.945-1.545-2.331-1.545c-0.63,0-0.992,0.042-1.212,0.084V4.159z M71.767,8.697
			c0.268,0.042,0.661,0.056,1.149,0.056c1.417,0,2.724-0.464,2.724-1.84c0-1.293-1.244-1.827-2.74-1.827h-1.134V8.697z"/>
		<path fill="#7F848C" d="M81.06,9.624V5.606l-3.354-5.451h1.559l1.496,2.613c0.409,0.717,0.724,1.293,1.055,1.953h0.031
			c0.299-0.618,0.661-1.236,1.071-1.953l1.527-2.613h1.559l-3.559,5.437v4.032H81.06z"/>
	</g>
</g>
</svg>
