<svg xmlns="http://www.w3.org/2000/svg" width="100" height="100" viewBox="0 0 100 100">
  <g id="Group_120" data-name="Group 120" transform="translate(-764.194 -283.717)">
    <g id="Group_119" data-name="Group 119">
      <g id="Group_116" data-name="Group 116">
        <g id="Group_115" data-name="Group 115">
          <path id="Path_218" data-name="Path 218" d="M782.8,352.175c0,3.614-2.65,5.8-7.034,5.8H771.6v5.041h-2.408V346.372h6.575C780.153,346.372,782.8,348.56,782.8,352.175Zm-2.41,0c0-2.378-1.613-3.734-4.7-3.734h-4.1v7.467h4.1C778.78,355.908,780.393,354.553,780.393,352.175Z" fill="#161616"/>
          <path id="Path_219" data-name="Path 219" d="M785.208,354.7c0-4.876,3.806-8.514,8.984-8.514,5.13,0,8.936,3.615,8.936,8.514s-3.806,8.514-8.936,8.514C789.014,363.21,785.208,359.571,785.208,354.7Zm15.512,0a6.554,6.554,0,1,0-6.528,6.4A6.291,6.291,0,0,0,800.72,354.7Z" fill="#161616"/>
          <path id="Path_220" data-name="Path 220" d="M806.811,346.372h2.408v16.647h-2.408Z" fill="#161616"/>
          <path id="Path_221" data-name="Path 221" d="M828.777,346.372v16.647H826.8l-10.116-12.414v12.414h-2.409V346.372h1.975l10.117,12.414V346.372Z" fill="#161616"/>
          <path id="Path_222" data-name="Path 222" d="M837.18,348.441H831.4v-2.069h13.946v2.069h-5.781v14.578H837.18Z" fill="#161616"/>
          <path id="Path_223" data-name="Path 223" d="M846.211,361.117l.891-1.855a8.743,8.743,0,0,0,5.564,1.926c2.914,0,4.166-1.118,4.166-2.568,0-4.067-10.213-1.5-10.213-7.682,0-2.569,2.024-4.756,6.457-4.756a10.02,10.02,0,0,1,5.419,1.474l-.795,1.9a8.786,8.786,0,0,0-4.624-1.356c-2.867,0-4.095,1.189-4.095,2.64,0,4.067,10.213,1.522,10.213,7.634,0,2.545-2.073,4.733-6.528,4.733A10.091,10.091,0,0,1,846.211,361.117Z" fill="#161616"/>
        </g>
      </g>
      <g id="Group_118" data-name="Group 118">
        <g id="Group_117" data-name="Group 117">
          <path id="Path_224" data-name="Path 224" d="M785.157,304.85v36.53h-8.562V311.636h-7.4V304.85Z" fill="#161616"/>
          <path id="Path_225" data-name="Path 225" d="M791.6,323.115c0-12.054,6.765-18.891,15.857-18.891,9.143,0,15.855,6.837,15.855,18.891s-6.712,18.891-15.855,18.891C798.367,342.006,791.6,335.17,791.6,323.115Zm23.1,0c0-8.3-2.96-11.74-7.24-11.74-4.229,0-7.19,3.444-7.19,11.74s2.961,11.743,7.19,11.743C811.739,334.858,814.7,331.414,814.7,323.115Z" fill="#161616"/>
          <path id="Path_226" data-name="Path 226" d="M827.481,323.115c0-12.054,6.766-18.891,15.858-18.891,9.142,0,15.855,6.837,15.855,18.891s-6.713,18.891-15.855,18.891C834.247,342.006,827.481,335.17,827.481,323.115Zm23.1,0c0-8.3-2.961-11.74-7.24-11.74-4.229,0-7.19,3.444-7.19,11.74s2.961,11.743,7.19,11.743C847.618,334.858,850.579,331.414,850.579,323.115Z" fill="#161616"/>
        </g>
      </g>
    </g>
    <rect id="Rectangle_65" data-name="Rectangle 65" width="100" height="100" transform="translate(764.194 283.717)" fill="none"/>
  </g>
</svg>
