<?xml version="1.0" encoding="UTF-8"?>
<svg width="48px" height="62px" viewBox="0 0 48 62" version="1.1" xmlns="http://www.w3.org/2000/svg" xmlns:xlink="http://www.w3.org/1999/xlink">
    <!-- Generator: Sketch 47 (45396) - http://www.bohemiancoding.com/sketch -->
    <title>Иконка алгебры@svg</title>
    <desc>Created with Sketch.</desc>
    <defs>
        <filter x="-2.2%" y="-0.8%" width="104.3%" height="103.2%" filterUnits="objectBoundingBox" id="filter-1">
            <feOffset dx="0" dy="3" in="SourceAlpha" result="shadowOffsetOuter1"></feOffset>
            <feGaussianBlur stdDeviation="1.5" in="shadowOffsetOuter1" result="shadowBlurOuter1"></feGaussianBlur>
            <feColorMatrix values="0 0 0 0 0   0 0 0 0 0   0 0 0 0 0  0 0 0 0.3 0" type="matrix" in="shadowBlurOuter1" result="shadowMatrixOuter1"></feColorMatrix>
            <feMerge>
                <feMergeNode in="shadowMatrixOuter1"></feMergeNode>
                <feMergeNode in="SourceGraphic"></feMergeNode>
            </feMerge>
        </filter>
        <path d="M256.198031,218 L229.802261,218 C227.161076,218 225,215.832551 225,213.183284 L225,174.816422 C225,172.167449 227.161076,170 229.802261,170 L256.197739,170 C258.838924,170 261,172.167449 261,174.816422 L261,213.183578 C261,215.832551 258.839216,218 256.198031,218 L256.198031,218 Z M229.165137,182.511437 L256.834571,182.511437 L256.834571,173.989443 L229.165137,173.989443 L229.165137,182.511437 L229.165137,182.511437 Z M250.450756,198.818768 C253.562402,198.818768 256.084875,196.288563 256.084875,193.168035 C256.084875,190.047214 253.562402,187.517302 250.450756,187.517302 C247.339111,187.517302 244.816637,190.047214 244.816637,193.168035 C244.81693,196.288563 247.339403,198.818768 250.450756,198.818768 L250.450756,198.818768 Z M246.693215,194.130499 C251.547814,194.130499 249.354283,194.130499 254.20859,194.130499 L254.20859,192.204985 C249.35399,192.204985 251.547522,192.204985 246.693215,192.204985 L246.693215,194.130499 L246.693215,194.130499 Z M250.450756,213.88563 C253.562402,213.88563 256.084875,211.355718 256.084875,208.234897 C256.084875,205.114076 253.562402,202.584164 250.450756,202.584164 C247.339111,202.584164 244.816637,205.114076 244.816637,208.234897 C244.816637,211.355718 247.339403,213.88563 250.450756,213.88563 L250.450756,213.88563 Z M246.693215,209.197654 C251.547814,209.197654 249.354283,209.197654 254.20859,209.197654 L254.20859,207.272141 C249.35399,207.272141 251.547522,207.272141 246.693215,207.272141 L246.693215,209.197654 L246.693215,209.197654 Z M251.076185,206.601466 C251.344309,206.601466 251.563896,206.381232 251.563896,206.112317 L251.563896,204.858065 C251.563896,204.58915 251.344309,204.368915 251.076185,204.368915 L249.825913,204.368915 C249.557496,204.368915 249.337909,204.58915 249.337909,204.858065 L249.337909,206.112317 C249.337909,206.381232 249.557496,206.601466 249.825913,206.601466 L251.076185,206.601466 L251.076185,206.601466 Z M251.076185,212.101173 C251.344309,212.101173 251.563896,211.880938 251.563896,211.612023 L251.563896,210.357771 C251.563896,210.08915 251.344309,209.868622 251.076185,209.868622 L249.825913,209.868622 C249.557496,209.868622 249.337909,210.08915 249.337909,210.357771 L249.337909,211.612023 C249.337909,211.880938 249.557496,212.101173 249.825913,212.101173 L251.076185,212.101173 L251.076185,212.101173 Z M235.549244,213.88563 C238.660889,213.88563 241.183363,211.355718 241.183363,208.234897 C241.183363,205.114076 238.660889,202.584457 235.549244,202.584457 C232.437598,202.584457 229.915125,205.11437 229.915125,208.235191 C229.915125,211.356012 232.437598,213.88563 235.549244,213.88563 L235.549244,213.88563 Z M233.570913,211.580645 L235.549244,209.596481 L237.527574,211.580645 L238.885447,210.218768 L236.907117,208.234311 L238.885447,206.25044 L237.527574,204.888856 L235.549244,206.872727 L233.570913,204.888856 L232.213333,206.25044 L234.191664,208.234311 L232.213333,210.218768 L233.570913,211.580645 L233.570913,211.580645 Z M235.549244,198.818768 C238.660889,198.818768 241.183363,196.288563 241.183363,193.168035 C241.183363,190.047214 238.660889,187.517302 235.549244,187.517302 C232.437598,187.517302 229.915125,190.047214 229.915125,193.168035 C229.915125,196.288563 232.437598,198.818768 235.549244,198.818768 L235.549244,198.818768 Z M234.61154,196.929032 L236.486656,196.929032 L236.486656,194.130792 L239.306785,194.130792 L239.306785,192.204985 L236.486656,192.204985 L236.486656,189.406745 L234.61154,189.406745 L234.61154,192.204985 L231.79141,192.204985 L231.79141,194.130792 L234.61154,194.130792 L234.61154,196.929032 L234.61154,196.929032 Z" id="path-2"></path>
        <filter x="-23.6%" y="-13.5%" width="147.2%" height="135.4%" filterUnits="objectBoundingBox" id="filter-3">
            <feMorphology radius="0.5" operator="dilate" in="SourceAlpha" result="shadowSpreadOuter1"></feMorphology>
            <feOffset dx="0" dy="2" in="shadowSpreadOuter1" result="shadowOffsetOuter1"></feOffset>
            <feGaussianBlur stdDeviation="2" in="shadowOffsetOuter1" result="shadowBlurOuter1"></feGaussianBlur>
            <feColorMatrix values="0 0 0 0 0   0 0 0 0 0   0 0 0 0 0  0 0 0 0.15 0" type="matrix" in="shadowBlurOuter1"></feColorMatrix>
        </filter>
    </defs>
    <g id="Дизайн-макет" stroke="none" stroke-width="1" fill="none" fill-rule="evenodd">
        <g id="Desktop-Страница-школы-1440" transform="translate(-1262.000000, -992.000000)" fill-rule="nonzero">
            <g id="Плитка-алгебра" filter="url(#filter-1)" transform="translate(1043.000000, 825.000000)">
                <g id="Иконка-алгебры">
                    <use fill="black" fill-opacity="1" filter="url(#filter-3)" xlink:href="#path-2"></use>
                    <use fill="#062860" fill-rule="evenodd" xlink:href="#path-2"></use>
                </g>
            </g>
        </g>
    </g>
</svg>