<?xml version="1.0" encoding="UTF-8"?>
<svg width="48px" height="48px" viewBox="0 0 48 48" version="1.1" xmlns="http://www.w3.org/2000/svg" xmlns:xlink="http://www.w3.org/1999/xlink">
    <!-- Generator: Sketch 47 (45396) - http://www.bohemiancoding.com/sketch -->
    <title>Иконка неделя 1@svg</title>
    <desc>Created with Sketch.</desc>
    <defs></defs>
    <g id="Дизайн-макет" stroke="none" stroke-width="1" fill="none" fill-rule="evenodd">
        <g id="Desktop-Прогресс-1440" transform="translate(-191.000000, -371.000000)" fill="#062860">
            <g id="Неделя-1" transform="translate(120.000000, 371.000000)">
                <path d="M113.666667,0 L76.3333333,0 C73.4,0 71,2.4 71,5.33333333 L71,42.6666667 C71,45.6 73.4,48 76.3333333,48 L113.666667,48 C116.6,48 119,45.6 119,42.6666667 L119,5.33333333 C119,2.4 116.6,0 113.666667,0 L113.666667,0 Z M87,37.3333333 L81.6666667,37.3333333 L81.6666667,18.6666667 L87,18.6666667 L87,37.3333333 L87,37.3333333 Z M97.6666667,37.3333333 L92.3333333,37.3333333 L92.3333333,10.6666667 L97.6666667,10.6666667 L97.6666667,37.3333333 L97.6666667,37.3333333 Z M108.333333,37.3333333 L103,37.3333333 L103,26.6666667 L108.333333,26.6666667 L108.333333,37.3333333 L108.333333,37.3333333 Z" id="Иконка-неделя-1"></path>
            </g>
        </g>
    </g>
</svg>