<?xml version="1.0" encoding="UTF-8"?>
<svg width="43px" height="48px" viewBox="0 0 43 48" version="1.1" xmlns="http://www.w3.org/2000/svg" xmlns:xlink="http://www.w3.org/1999/xlink">
    <!-- Generator: Sketch 47 (45396) - http://www.bohemiancoding.com/sketch -->
    <title>Иконка неделя 3@svg</title>
    <desc>Created with Sketch.</desc>
    <defs></defs>
    <g id="Дизайн-макет" stroke="none" stroke-width="1" fill="none" fill-rule="evenodd">
        <g id="Desktop-Прогресс-1440" transform="translate(-867.000000, -371.000000)" fill="#062860">
            <g id="Неделя-3" transform="translate(794.000000, 371.000000)">
                <path d="M108.833333,33.9277108 C107.017778,33.9277108 105.393333,34.6506024 104.151111,35.7831325 L87.1183333,25.7831325 C87.2377778,25.2289157 87.3333333,24.6746988 87.3333333,24.0963855 C87.3333333,23.5180723 87.2377778,22.9638554 87.1183333,22.4096386 L103.96,12.5060241 C105.25,13.7108434 106.946111,14.4578313 108.833333,14.4578313 C112.798889,14.4578313 116,11.2289157 116,7.22891566 C116,3.22891566 112.798889,0 108.833333,0 C104.867778,0 101.666667,3.22891566 101.666667,7.22891566 C101.666667,7.80722892 101.762222,8.36144578 101.881667,8.91566265 L85.04,18.8192771 C83.75,17.6144578 82.0538889,16.8674699 80.1666667,16.8674699 C76.2011111,16.8674699 73,20.0963855 73,24.0963855 C73,28.0963855 76.2011111,31.3253012 80.1666667,31.3253012 C82.0538889,31.3253012 83.75,30.5783133 85.04,29.373494 L102.048889,39.3975904 C101.929444,39.9036145 101.857778,40.4337349 101.857778,40.9638554 C101.857778,44.8433735 104.987222,48 108.833333,48 C112.679444,48 115.808889,44.8433735 115.808889,40.9638554 C115.808889,37.0843373 112.679444,33.9277108 108.833333,33.9277108 L108.833333,33.9277108 Z" id="Иконка-неделя-3"></path>
            </g>
        </g>
    </g>
</svg>