<?xml version="1.0" encoding="utf-8"?>
<!-- Generator: Adobe Illustrator 17.0.0, SVG Export Plug-In . SVG Version: 6.00 Build 0)  -->
<!DOCTYPE svg PUBLIC "-//W3C//DTD SVG 1.1//EN" "http://www.w3.org/Graphics/SVG/1.1/DTD/svg11.dtd">
<svg version="1.1" id="Слой_1" xmlns="http://www.w3.org/2000/svg" xmlns:xlink="http://www.w3.org/1999/xlink" x="0px" y="0px"
	 width="17.227px" height="13.977px" viewBox="0 0 17.227 13.977" enable-background="new 0 0 17.227 13.977" xml:space="preserve">
<path fill="#FFFFFF" d="M15.149,3.285l-3.276-3.283v2.203L9.888,1.774H9.886L8.614,1.777V1.776L7.342,1.772H7.341L5.355,2.203V0
	L2.078,3.283L0.001,5.365L0,5.366l1.61,1.608l2.361,2.361l1.634,1.633l3.009,3.008v0.002l3.009-3.008l1.635-1.633l2.36-2.361
	l1.61-1.609L15.149,3.285z M11.132,10.823l-0.002,0.002L8.614,9.914V9.912l-2.516,0.912l-0.002-0.003L4.394,9.104l1.691-1.042
	l2.529-0.539v0.002l2.529,0.539l1.691,1.042L11.132,10.823z M15.236,6.683h-0.001L13.56,5.368l-1.688-0.68l-1.384,0.68l-1.875,0.91
	V6.276L6.74,5.367L5.355,4.686L3.667,5.367L1.992,6.682L1.991,6.681L0.669,5.346L0.668,5.345l2.204-2.209l2.03-2.034l0.002,1.73
	l0.014-0.003l2.578-0.625l0.002-0.001h1.116v0.002h1.119l2.578,0.626l0.014,0.003l0.002-1.73l2.03,2.034l2.203,2.209v0.001
	L15.236,6.683z"/>
</svg>
