<?xml version="1.0" encoding="utf-8"?>
<!-- Generator: Adobe Illustrator 17.0.0, SVG Export Plug-In . SVG Version: 6.00 Build 0)  -->
<!DOCTYPE svg PUBLIC "-//W3C//DTD SVG 1.1//EN" "http://www.w3.org/Graphics/SVG/1.1/DTD/svg11.dtd">
<svg version="1.1" id="Слой_1" xmlns="http://www.w3.org/2000/svg" xmlns:xlink="http://www.w3.org/1999/xlink" x="0px" y="0px"
	 width="395.961px" height="45.94px" viewBox="0 0 395.961 45.94" enable-background="new 0 0 395.961 45.94" xml:space="preserve">
<g>
	<g>
		<path fill="#DF4625" d="M72.821,25.091c-0.096-0.151-0.238-0.242-0.427-0.271c-0.171-0.019-0.271,0.119-0.299,0.414v4.457
			c0,0.465-0.233,0.698-0.698,0.698h-5.611c-0.465,0-0.699-0.233-0.699-0.698V9.042c0-0.465,0.218-0.698,0.655-0.698l9.342-0.058
			c1.985-0.009,3.684,0.523,5.099,1.595c1.453,1.102,2.383,2.611,2.791,4.529c0.123,0.598,0.186,1.192,0.186,1.78
			c0,1.044-0.2,2.093-0.599,3.147c-0.617,1.661-1.713,2.91-3.29,3.745c-0.238,0.123-0.356,0.28-0.356,0.469
			c0,0.162,0.085,0.347,0.256,0.556l3.66,5.583c0.123,0.18,0.185,0.327,0.185,0.441c0,0.171-0.143,0.256-0.427,0.256h-5.596
			c-0.466,0-0.851-0.233-1.154-0.698L72.821,25.091z M73.021,14.938h-0.185c-0.456,0-0.688,0.218-0.699,0.655v0.911v0.897
			c0,0.465,0.205,0.688,0.613,0.67l0.271-0.014c1.244-0.066,2.103-0.18,2.578-0.342c0.569-0.2,0.859-0.627,0.868-1.282
			c0-0.645-0.289-1.068-0.868-1.268C75.132,15.014,74.274,14.938,73.021,14.938z"/>
		<path fill="#DF4625" d="M90.951,9.285l10.239,20.277c0.066,0.133,0.1,0.247,0.1,0.342c0,0.323-0.337,0.485-1.011,0.485h-4.414
			c-0.513,0-0.835-0.029-0.969-0.087c-0.171-0.087-0.365-0.333-0.583-0.738c-0.323-0.608-0.85-0.902-1.581-0.884
			c-1.348,0.019-2.544,0.019-3.589,0c-1.186,0-2.373,0-3.56,0c-0.655,0-1.11,0.276-1.367,0.826c-0.2,0.427-0.37,0.682-0.512,0.762
			c-0.143,0.08-0.466,0.121-0.969,0.121l-2.265-0.014c-0.493,0-1.243-0.004-2.249-0.014c-0.683,0-1.026-0.166-1.026-0.498
			c0-0.114,0.038-0.247,0.114-0.399l10.182-20.18c0.37-0.731,0.945-1.097,1.723-1.097C90,8.187,90.58,8.553,90.951,9.285z
			 M90.267,21.731c-0.171-0.342-0.422-0.85-0.755-1.524c-0.104-0.114-0.204-0.171-0.299-0.171c-0.105,0-0.205,0.062-0.299,0.185
			c-0.19,0.351-0.451,0.868-0.783,1.552c-0.114,0.266-0.038,0.419,0.227,0.456h1.738c0.143,0,0.214-0.071,0.214-0.213
			C90.318,21.892,90.305,21.797,90.267,21.731z"/>
		<path fill="#DF4625" d="M106.501,7.603c2.069,0,4.009,0.515,5.817,1.545c1.81,1.03,3.24,2.438,4.294,4.222
			c0.332,0.551,0.423,0.917,0.271,1.097c-0.123,0.152-0.323,0.29-0.599,0.413l-4.528,2.008c-0.637,0.285-1.011,0.352-1.126,0.2
			c-0.096-0.105-0.243-0.29-0.441-0.556c-0.959-1.215-2.189-1.823-3.689-1.823c-1.281,0-2.375,0.452-3.282,1.353
			c-0.907,0.902-1.361,1.994-1.361,3.276c0,1.291,0.451,2.387,1.353,3.29c0.902,0.902,1.998,1.353,3.29,1.353
			c1.614,0,2.886-0.665,3.816-1.994c0.342-0.494,0.604-0.726,0.783-0.698c0.19,0.028,0.414,0.1,0.67,0.213l4.5,1.952
			c0.161,0.066,0.384,0.18,0.67,0.342c0.255,0.142,0.232,0.498-0.072,1.068c-1.026,1.918-2.466,3.432-4.322,4.543
			c-1.856,1.111-3.871,1.666-6.045,1.666c-3.266,0-6.035-1.139-8.31-3.417c-2.273-2.279-3.41-5.051-3.41-8.317
			c0-3.257,1.138-6.027,3.417-8.31C100.478,8.745,103.245,7.603,106.501,7.603z"/>
		<path fill="#DF4625" d="M125.343,7.603c2.069,0,4.008,0.515,5.817,1.545c1.809,1.03,3.24,2.438,4.293,4.222
			c0.333,0.551,0.423,0.917,0.271,1.097c-0.123,0.152-0.323,0.29-0.598,0.413l-4.528,2.008c-0.636,0.285-1.011,0.352-1.125,0.2
			c-0.096-0.105-0.243-0.29-0.441-0.556c-0.959-1.215-2.189-1.823-3.689-1.823c-1.282,0-2.376,0.452-3.283,1.353
			c-0.907,0.902-1.36,1.994-1.36,3.276c0,1.291,0.45,2.387,1.353,3.29c0.901,0.902,1.997,1.353,3.29,1.353
			c1.613,0,2.885-0.665,3.816-1.994c0.342-0.494,0.603-0.726,0.783-0.698c0.19,0.028,0.414,0.1,0.669,0.213l4.501,1.952
			c0.162,0.066,0.385,0.18,0.67,0.342c0.256,0.142,0.233,0.498-0.071,1.068c-1.026,1.918-2.466,3.432-4.323,4.543
			c-1.855,1.111-3.871,1.666-6.045,1.666c-3.266,0-6.036-1.139-8.31-3.417c-2.274-2.279-3.41-5.051-3.41-8.317
			c0-3.257,1.139-6.027,3.418-8.31C119.318,8.745,122.085,7.603,125.343,7.603z"/>
		<path fill="#DF4625" d="M186.067,8.33c0.465,0,0.698,0.233,0.698,0.698v20.864c0,0.408-0.134,0.612-0.399,0.612
			c-0.057,0-0.118-0.01-0.185-0.029c-0.38-0.104-0.655-0.214-0.826-0.327l-7.491-4.813c-0.256-0.162-0.384-0.114-0.384,0.142
			c-0.01,0.826-0.01,1.505,0,2.036v2.036c0,0.551-0.286,0.826-0.855,0.826h-2.749h-2.748c-0.474,0-0.712-0.233-0.712-0.698V8.913
			c0-0.446,0.181-0.641,0.541-0.583c0.37,0.067,0.617,0.143,0.741,0.228l7.306,4.983c0.179,0.123,0.322,0.185,0.426,0.185
			c0.19,0,0.286-0.171,0.286-0.512V9.027c0-0.485,0.275-0.717,0.825-0.698c1.025,0.019,1.947,0.019,2.763,0
			C184.225,8.33,185.146,8.33,186.067,8.33z"/>
		<path fill="#DF4625" d="M49.792,10.796L39.025,0.007v7.24L32.499,5.83h-0.007L28.31,5.84V5.837l-4.181-0.014h-0.003L17.6,7.24V0
			L6.829,10.789l-6.826,6.844L0,17.636l5.291,5.283l7.762,7.762l5.369,5.366l9.889,9.886v0.007l9.889-9.886l5.373-5.366l7.758-7.762
			l5.291-5.287L49.792,10.796z M36.586,35.572l-0.007,0.007l-8.268-2.995v-0.007l-8.268,2.999l-0.007-0.01l-5.594-5.644L20,26.498
			l8.311-1.771v0.007l8.311,1.771l5.558,3.424L36.586,35.572z M50.077,21.966h-0.003l-5.505-4.324l-5.548-2.235l-4.549,2.235
			l-6.163,2.992v-0.007l-6.158-2.988L17.599,15.4l-5.548,2.239l-5.505,4.324L6.543,21.96l-4.344-4.388l-0.004-0.003l7.244-7.262
			l6.673-6.686l0.007,5.687l0.046-0.01l8.472-2.053l0.007-0.003h3.667v0.007h3.677l8.472,2.056l0.046,0.01l0.007-5.687l6.673,6.686
			l7.24,7.262v0.003L50.077,21.966z"/>
		<path fill="#3E9EC8" d="M143.785,7.575c3.247,0,6.014,1.144,8.302,3.432c2.288,2.288,3.432,5.055,3.432,8.303
			c0,3.257-1.142,6.026-3.426,8.309c-2.283,2.284-5.053,3.426-8.309,3.426c-3.266,0-6.038-1.14-8.317-3.418
			c-2.279-2.279-3.417-5.051-3.417-8.317c0-3.257,1.142-6.026,3.425-8.31C137.759,8.716,140.528,7.575,143.785,7.575z
			 M143.785,14.667c-1.282,0-2.376,0.453-3.283,1.36c-0.907,0.907-1.36,2.001-1.36,3.283c0,1.291,0.451,2.388,1.353,3.29
			c0.901,0.902,1.998,1.353,3.29,1.353c1.282,0,2.376-0.453,3.283-1.36c0.907-0.907,1.36-2.001,1.36-3.283s-0.453-2.376-1.36-3.283
			S145.067,14.667,143.785,14.667z"/>
		<path fill="#3E9EC8" d="M161.557,7.575c3.247,0,6.015,1.144,8.303,3.432s3.432,5.055,3.432,8.303c0,3.257-1.142,6.026-3.425,8.309
			c-2.283,2.284-5.054,3.426-8.31,3.426c-3.266,0-6.039-1.14-8.317-3.418c-2.278-2.279-3.418-5.051-3.418-8.317
			c0-3.257,1.142-6.026,3.425-8.31C155.531,8.716,158.301,7.575,161.557,7.575z M161.557,14.667c-1.281,0-2.375,0.453-3.282,1.36
			c-0.907,0.907-1.361,2.001-1.361,3.283c0,1.291,0.451,2.388,1.353,3.29c0.902,0.902,1.998,1.353,3.29,1.353
			c1.282,0,2.375-0.453,3.283-1.36c0.907-0.907,1.36-2.001,1.36-3.283s-0.453-2.376-1.36-3.283
			C163.933,15.12,162.839,14.667,161.557,14.667z"/>
		<g enable-background="new    ">
			<path fill="#3E9EC8" d="M204.649,8.32h1.3v16.43c-0.238,1.744-0.967,3.225-2.186,4.443c-1.458,1.458-3.215,2.186-5.272,2.186
				c-2.068,0-3.83-0.728-5.286-2.186c-1.458-1.458-2.187-3.215-2.187-5.272V8.32h1.301v15.601c0,1.695,0.602,3.146,1.807,4.352
				c1.205,1.205,2.659,1.807,4.365,1.807c1.706,0,3.158-0.602,4.358-1.807c1.2-1.205,1.8-2.656,1.8-4.352L204.649,8.32L204.649,8.32
				z"/>
			<path fill="#3E9EC8" d="M211.521,20.277V31.18h-1.287V17.15h1.287v0.899c1.172-1.162,2.533-1.742,4.086-1.742
				c1.659,0,3.005,0.519,4.044,1.557c1.039,1.037,1.572,2.347,1.601,3.929v9.386h-1.287v-9.273c0-1.19-0.43-2.207-1.293-3.05
				s-1.883-1.265-3.065-1.265c-1.18,0-2.199,0.416-3.057,1.243C212.083,19.302,211.74,19.784,211.521,20.277z"/>
			<path fill="#3E9EC8" d="M227.373,12.548c0.253,0.248,0.379,0.549,0.379,0.901c0,0.361-0.126,0.667-0.379,0.914
				c-0.253,0.248-0.555,0.371-0.908,0.371c-0.352,0-0.655-0.123-0.908-0.371c-0.253-0.248-0.379-0.554-0.379-0.914
				c0-0.352,0.126-0.653,0.379-0.901c0.253-0.248,0.555-0.371,0.908-0.371C226.818,12.178,227.12,12.301,227.373,12.548z
				 M227.108,17.149v14.03h-1.287v-14.03C225.821,17.149,227.108,17.149,227.108,17.149z"/>
			<path fill="#3E9EC8" d="M237.14,28.836l5.4-11.687h1.486l-6.886,14.416l-6.886-14.416h1.486L237.14,28.836z"/>
			<path fill="#3E9EC8" d="M249.27,28.55c1.208,1.105,2.648,1.657,4.315,1.657c1.79,0,3.319-0.633,4.586-1.9
				c0.161-0.161,0.314-0.327,0.457-0.5l1.358,0.487c-0.248,0.342-0.529,0.672-0.844,0.986c-1.533,1.533-3.386,2.3-5.557,2.3
				c-2.162,0-4.011-0.768-5.543-2.3c-1.534-1.534-2.3-3.386-2.3-5.558c0-2.162,0.766-4.009,2.3-5.543
				c1.533-1.534,3.381-2.3,5.543-2.3c1.857,0,3.481,0.557,4.872,1.672c0.228,0.189,0.457,0.399,0.685,0.628
				c0.086,0.085,0.168,0.171,0.244,0.258l-0.972,0.971L249.27,28.55z M257.471,18.536c-1.115-0.858-2.41-1.287-3.886-1.287
				c-1.782,0-3.306,0.632-4.573,1.893c-1.267,1.261-1.9,2.789-1.9,4.579c0,1.476,0.429,2.772,1.285,3.886L257.471,18.536z"/>
			<path fill="#3E9EC8" d="M263.414,17.149h1.286v2.558c0.266-0.382,0.577-0.748,0.929-1.1c1.134-1.134,2.295-1.729,3.486-1.787
				v1.401c-0.809,0.038-1.647,0.49-2.515,1.356c-1.218,1.21-1.852,2.663-1.9,4.358v7.244h-1.286L263.414,17.149L263.414,17.149z"/>
			<path fill="#3E9EC8" d="M276.116,23.964c-1.095-0.59-1.852-1.095-2.271-1.514c-0.658-0.657-0.987-1.448-0.987-2.372
				c0-0.932,0.329-1.73,0.987-2.394c0.657-0.662,1.446-0.992,2.37-0.992c0.934,0,1.705,0.304,2.315,0.914
				c0.59,0.6,0.886,1.282,0.886,2.043v0.071l-1.115,0.444c-0.095-0.725-0.321-1.267-0.678-1.629s-0.826-0.544-1.408-0.544
				c-0.57,0-1.062,0.203-1.471,0.607c-0.409,0.406-0.615,0.899-0.615,1.479c0,0.572,0.206,1.062,0.615,1.471
				c0.238,0.239,0.743,0.6,1.514,1.087c1.22,0.667,2.086,1.257,2.601,1.772c0.809,0.819,1.213,1.795,1.213,2.929
				c0,1.162-0.404,2.149-1.213,2.964c-0.811,0.814-1.792,1.222-2.944,1.222c-1.154,0-2.134-0.407-2.944-1.222
				s-1.213-1.707-1.213-2.678l1.272-0.329c0,0.838,0.283,1.538,0.849,2.101c0.567,0.562,1.245,0.843,2.036,0.843
				c0.79,0,1.469-0.281,2.036-0.843c0.567-0.563,0.849-1.248,0.849-2.058c0-0.791-0.281-1.468-0.843-2.03
				C277.655,25.003,277.04,24.556,276.116,23.964z"/>
			<path fill="#3E9EC8" d="M285.552,12.548c0.253,0.248,0.379,0.549,0.379,0.901c0,0.361-0.126,0.667-0.379,0.914
				s-0.555,0.371-0.908,0.371s-0.655-0.123-0.908-0.371s-0.379-0.554-0.379-0.914c0-0.352,0.126-0.653,0.379-0.901
				s0.555-0.371,0.908-0.371S285.299,12.301,285.552,12.548z M285.288,17.149v14.03h-1.286v-14.03H285.288z"/>
			<path fill="#3E9EC8" d="M291.861,17.149v-5.972h1.285v5.972h2.859v1.287h-2.859V31.18h-1.285V18.436h-2.857v-1.287H291.861z"/>
			<path fill="#3E9EC8" d="M304.477,29.923l-3.173,6.614h-1.257l3.786-7.943l-5.472-11.444h1.456l4.659,10.058l4.657-10.058h1.443
				l-6.1,12.787L304.477,29.923L304.477,29.923z"/>
		</g>
	</g>
	<g>
		<path fill="#3E9EC8" d="M323.822,23.223c-0.981-0.327-1.756-0.775-2.324-1.343c-0.567-0.568-0.852-1.257-0.852-2.066
			c0-0.792,0.284-1.473,0.852-2.044c0.568-0.571,1.257-0.856,2.066-0.856c0.803,0,1.491,0.284,2.065,0.852
			c0.315,0.304,0.533,0.646,0.654,1.024l-0.697,0.276c-0.104-0.281-0.272-0.54-0.508-0.775c-0.419-0.413-0.924-0.62-1.515-0.62
			c-0.592,0-1.097,0.208-1.516,0.624c-0.419,0.416-0.628,0.922-0.628,1.519c0,0.591,0.209,1.096,0.628,1.515
			c0.391,0.384,0.93,0.737,1.618,1.059c1.103,0.356,2.028,0.91,2.78,1.661c0.798,0.792,1.196,1.75,1.196,2.875
			c0,1.13-0.398,2.094-1.196,2.892c-0.798,0.797-1.759,1.196-2.883,1.196c-1.125,0-2.086-0.402-2.884-1.205
			c-0.637-0.637-1.019-1.377-1.145-2.221l0.731-0.267c0.08,0.746,0.398,1.397,0.955,1.954c0.648,0.648,1.429,0.973,2.342,0.973
			c0.918,0,1.701-0.324,2.35-0.973c0.649-0.649,0.973-1.432,0.973-2.35c0-0.913-0.324-1.693-0.973-2.341
			C325.346,24.015,324.648,23.562,323.822,23.223z"/>
		<path fill="#3E9EC8" d="M338.489,30.849h-0.774v-1.722c-0.149,0.201-0.313,0.394-0.491,0.577c-0.924,0.924-2.04,1.386-3.348,1.386
			c-1.303,0-2.416-0.462-3.34-1.386c-0.924-0.924-1.386-2.037-1.386-3.34c0-1.308,0.462-2.424,1.386-3.348s2.037-1.386,3.34-1.386
			c1.308,0,2.424,0.462,3.348,1.386c0.178,0.184,0.342,0.376,0.491,0.577v-1.196h0.774V30.849z M337.715,27.131v-1.532
			c-0.144-0.757-0.503-1.423-1.076-1.997c-0.764-0.763-1.685-1.145-2.763-1.145c-1.079,0-2,0.382-2.764,1.145
			c-0.763,0.764-1.145,1.685-1.145,2.763s0.382,1.999,1.145,2.759c0.764,0.76,1.685,1.14,2.764,1.14
			c1.078,0,1.999-0.381,2.763-1.145C337.212,28.546,337.571,27.883,337.715,27.131z"/>
		<path fill="#3E9EC8" d="M341.846,24.282v6.567h-0.774v-8.452h0.774v0.542c0.706-0.7,1.526-1.05,2.462-1.05
			c0.999,0,1.811,0.313,2.436,0.938c0.626,0.625,0.947,1.415,0.965,2.367v5.655h-0.775v-5.586c0-0.717-0.26-1.33-0.778-1.838
			c-0.52-0.508-1.135-0.762-1.847-0.762s-1.325,0.25-1.842,0.749C342.184,23.694,341.977,23.984,341.846,24.282z"/>
		<path fill="#3E9EC8" d="M359.414,30.849h-0.774v-1.722c-0.149,0.201-0.313,0.394-0.491,0.577c-0.924,0.924-2.04,1.386-3.348,1.386
			c-1.303,0-2.416-0.462-3.34-1.386c-0.924-0.924-1.386-2.037-1.386-3.34c0-1.308,0.462-2.424,1.386-3.348
			c0.924-0.924,2.037-1.386,3.34-1.386c1.308,0,2.424,0.462,3.348,1.386c0.178,0.184,0.342,0.376,0.491,0.577v-6.516h0.774V30.849z
			 M358.639,27.131v-1.532c-0.144-0.757-0.503-1.423-1.076-1.997c-0.764-0.763-1.685-1.145-2.763-1.145
			c-1.079,0-2,0.382-2.764,1.145c-0.763,0.764-1.145,1.685-1.145,2.763s0.382,1.999,1.145,2.759c0.764,0.76,1.685,1.14,2.764,1.14
			c1.078,0,1.999-0.381,2.763-1.145C358.137,28.546,358.496,27.883,358.639,27.131z"/>
		<path fill="#3E9EC8" d="M361.996,17.078h0.774v6.507c0.144-0.195,0.308-0.384,0.491-0.568c0.924-0.924,2.037-1.386,3.34-1.386
			c1.308,0,2.423,0.462,3.344,1.386s1.381,2.04,1.381,3.348c0,1.303-0.46,2.416-1.381,3.34s-2.036,1.386-3.344,1.386
			c-1.303,0-2.416-0.462-3.34-1.386c-0.184-0.184-0.348-0.373-0.491-0.568v1.713h-0.774V17.078z M362.77,25.556v1.618
			c0.149,0.734,0.505,1.383,1.067,1.945c0.764,0.763,1.685,1.145,2.764,1.145c1.078,0,1.999-0.38,2.763-1.14
			c0.763-0.76,1.145-1.68,1.145-2.759s-0.382-2-1.145-2.763c-0.764-0.763-1.685-1.145-2.763-1.145c-1.079,0-2,0.382-2.764,1.145
			C363.275,24.164,362.92,24.816,362.77,25.556z"/>
		<path fill="#3E9EC8" d="M377.902,21.631c1.309,0,2.423,0.462,3.344,1.386s1.382,2.04,1.382,3.348c0,1.303-0.461,2.416-1.382,3.34
			c-0.921,0.924-2.035,1.386-3.344,1.386c-1.303,0-2.416-0.462-3.34-1.386c-0.924-0.924-1.386-2.037-1.386-3.34
			c0-1.308,0.462-2.424,1.386-3.348C375.486,22.093,376.599,21.631,377.902,21.631z M375.139,23.602
			c-0.764,0.764-1.145,1.685-1.145,2.763s0.381,1.999,1.145,2.759c0.763,0.76,1.684,1.14,2.763,1.14c1.079,0,2-0.38,2.763-1.14
			c0.764-0.76,1.146-1.68,1.146-2.759s-0.382-2-1.146-2.763c-0.763-0.763-1.684-1.145-2.763-1.145
			C376.823,22.457,375.902,22.839,375.139,23.602z"/>
		<path fill="#3E9EC8" d="M389.651,22.397l-2.178,3.77l-0.025,0.043l0.025,0.043l2.651,4.596h-0.896l-2.203-3.813l-2.204,3.813
			h-0.903l2.66-4.596l0.025-0.043l-0.025-0.043l-2.178-3.77h0.895l1.73,2.986l1.722-2.986H389.651z"/>
	</g>
</g>
</svg>