<svg width="48" height="48" viewBox="0 0 48 48" fill="none" xmlns="http://www.w3.org/2000/svg">
<g clip-path="url(#clip0)">
<rect opacity="0.5" x="-5" y="-5" width="58" height="58" rx="29" fill="#673AB7"/>
<path d="M27.2012 20.1917C27.2012 20.4862 27.4396 20.7253 27.7347 20.7253H33.0701C33.3652 20.7253 33.6037 20.4862 33.6037 20.1917C33.6037 19.8972 33.3652 19.6582 33.0701 19.6582H27.7347C27.4396 19.6581 27.2012 19.8972 27.2012 20.1917Z" fill="#392765"/>
<path fill-rule="evenodd" clip-rule="evenodd" d="M27.7348 19.4082C27.7348 19.4082 27.7347 19.4082 27.7348 19.4082H33.0701C33.5034 19.4082 33.8537 19.7593 33.8537 20.1917C33.8537 20.6241 33.5034 20.9753 33.0701 20.9753H27.7347C27.3014 20.9753 26.9512 20.6241 26.9512 20.1917C26.9512 19.7593 27.3014 19.4081 27.7348 19.4082ZM27.7346 19.9082C27.5779 19.9082 27.4512 20.035 27.4512 20.1917C27.4512 20.3483 27.5779 20.4753 27.7347 20.4753H33.0701C33.227 20.4753 33.3537 20.3483 33.3537 20.1917C33.3537 20.0351 33.227 19.9082 33.0701 19.9082H27.7346Z" fill="#392765"/>
<path d="M30.4023 23.3929C30.4023 23.6874 30.6408 23.9264 30.9359 23.9264H34.1372C34.4322 23.9264 34.6707 23.6874 34.6707 23.3929C34.6707 23.0984 34.4322 22.8594 34.1372 22.8594H30.9359C30.6408 22.8593 30.4023 23.0983 30.4023 23.3929Z" fill="#392765"/>
<path fill-rule="evenodd" clip-rule="evenodd" d="M30.9359 22.6094C30.9359 22.6094 30.9359 22.6094 30.9359 22.6094H34.1372C34.5705 22.6094 34.9207 22.9605 34.9207 23.3929C34.9207 23.8253 34.5705 24.1764 34.1372 24.1764H30.9359C30.5026 24.1764 30.1523 23.8253 30.1523 23.3929C30.1523 22.9605 30.5026 22.6093 30.9359 22.6094ZM30.9358 23.1094C30.7791 23.1093 30.6523 23.2362 30.6523 23.3929C30.6523 23.5495 30.7791 23.6764 30.9359 23.6764H34.1372C34.294 23.6764 34.4207 23.5495 34.4207 23.3929C34.4207 23.2363 34.294 23.1094 34.1372 23.1094H30.9358Z" fill="#392765"/>
<path d="M29.8692 17.5241C30.1643 17.5241 30.4027 17.2851 30.4027 16.9906C30.4027 16.6961 30.1643 16.457 29.8692 16.457H28.8021C28.507 16.457 28.2686 16.6961 28.2686 16.9906C28.2686 17.2851 28.507 17.5241 28.8021 17.5241H29.8692Z" fill="#392765"/>
<path fill-rule="evenodd" clip-rule="evenodd" d="M28.0186 16.9906C28.0186 16.5582 28.3688 16.207 28.8021 16.207H29.8692C30.3025 16.207 30.6527 16.5582 30.6527 16.9906C30.6527 17.423 30.3025 17.7741 29.8692 17.7741H28.8021C28.3688 17.7741 28.0186 17.423 28.0186 16.9906ZM28.8021 16.707C28.6453 16.707 28.5186 16.834 28.5186 16.9906C28.5186 17.1472 28.6453 17.2741 28.8021 17.2741H29.8692C30.026 17.2741 30.1527 17.1472 30.1527 16.9906C30.1527 16.834 30.026 16.707 29.8692 16.707H28.8021Z" fill="#392765"/>
<path d="M23.4661 22.8594C23.1711 22.8594 22.9326 23.0984 22.9326 23.3929C22.9326 23.6874 23.1711 23.9264 23.4661 23.9264H28.8016C29.0966 23.9264 29.3351 23.6874 29.3351 23.3929C29.3351 23.0984 29.0966 22.8594 28.8016 22.8594H23.4661Z" fill="#392765"/>
<path fill-rule="evenodd" clip-rule="evenodd" d="M22.6826 23.3929C22.6826 22.9605 23.0328 22.6094 23.4661 22.6094H28.8016C29.2349 22.6094 29.5851 22.9605 29.5851 23.3929C29.5851 23.8253 29.2349 24.1764 28.8016 24.1764H23.4661C23.0328 24.1764 22.6826 23.8253 22.6826 23.3929ZM23.4661 23.1094C23.3093 23.1094 23.1826 23.2363 23.1826 23.3929C23.1826 23.5495 23.3093 23.6764 23.4661 23.6764H28.8016C28.9584 23.6764 29.0851 23.5495 29.0851 23.3929C29.0851 23.2363 28.9584 23.1094 28.8016 23.1094H23.4661Z" fill="#392765"/>
<path d="M26.1336 37.7985H15.9963C15.1138 37.7985 14.3956 37.0803 14.3956 36.1978V11.6546C14.3956 11.3601 14.1571 11.1211 13.8621 11.1211C12.3911 11.1211 11.1943 12.3178 11.1943 13.7888C11.1943 14.0833 11.4328 14.3224 11.7279 14.3224C12.0229 14.3224 12.2614 14.0833 12.2614 13.7888C12.2614 13.0931 12.7074 12.4998 13.3285 12.2794V36.1978C13.3285 37.6688 14.5252 38.8656 15.9963 38.8656H26.1336C26.4287 38.8656 26.6672 38.6265 26.6672 38.3321C26.6672 38.0376 26.4287 37.7985 26.1336 37.7985Z" fill="#392765"/>
<path fill-rule="evenodd" clip-rule="evenodd" d="M10.9443 13.7888C10.9443 12.1797 12.2531 10.8711 13.8621 10.8711C14.2954 10.8711 14.6456 11.2222 14.6456 11.6546V36.1978C14.6456 36.9422 15.2519 37.5485 15.9963 37.5485H26.1336C26.567 37.5485 26.9172 37.8997 26.9172 38.3321C26.9172 38.7644 26.5669 39.1156 26.1336 39.1156H15.9963C14.3872 39.1156 13.0785 37.8069 13.0785 36.1978V12.6892C12.7352 12.9347 12.5114 13.3364 12.5114 13.7888C12.5114 14.2212 12.1612 14.5724 11.7279 14.5724C11.2946 14.5724 10.9443 14.2212 10.9443 13.7888ZM13.8621 11.3711C12.5292 11.3711 11.4443 12.4559 11.4443 13.7888C11.4443 13.9454 11.571 14.0724 11.7279 14.0724C11.8847 14.0724 12.0114 13.9454 12.0114 13.7888C12.0114 12.9836 12.5275 12.2983 13.2449 12.0438L13.5785 11.9255V36.1978C13.5785 37.5307 14.6633 38.6156 15.9963 38.6156H26.1336C26.2904 38.6156 26.4172 38.4886 26.4172 38.3321C26.4172 38.1754 26.2904 38.0485 26.1336 38.0485H15.9963C14.9757 38.0485 14.1456 37.2184 14.1456 36.1978V11.6546C14.1456 11.498 14.0189 11.3711 13.8621 11.3711Z" fill="#392765"/>
<path d="M18.1312 20.7253H25.6008C25.8959 20.7253 26.1344 20.4862 26.1344 20.1917C26.1344 19.8972 25.8959 19.6582 25.6008 19.6582H18.1312C17.8361 19.6582 17.5977 19.8972 17.5977 20.1917C17.5977 20.4862 17.8361 20.7253 18.1312 20.7253Z" fill="#392765"/>
<path fill-rule="evenodd" clip-rule="evenodd" d="M17.3477 20.1917C17.3477 19.7593 17.6979 19.4082 18.1312 19.4082H25.6008C26.0341 19.4082 26.3844 19.7593 26.3844 20.1917C26.3844 20.6241 26.0341 20.9753 25.6008 20.9753H18.1312C17.6979 20.9753 17.3477 20.6241 17.3477 20.1917ZM18.1312 19.9082C17.9744 19.9082 17.8477 20.0351 17.8477 20.1917C17.8477 20.3483 17.9744 20.4753 18.1312 20.4753H25.6008C25.7577 20.4753 25.8844 20.3483 25.8844 20.1917C25.8844 20.0351 25.7577 19.9082 25.6008 19.9082H18.1312Z" fill="#392765"/>
<path d="M18.1312 17.5241H20.2653C20.5604 17.5241 20.7989 17.2851 20.7989 16.9906C20.7989 16.6961 20.5604 16.457 20.2653 16.457H18.1312C17.8361 16.457 17.5977 16.6961 17.5977 16.9906C17.5977 17.2851 17.8361 17.5241 18.1312 17.5241Z" fill="#392765"/>
<path fill-rule="evenodd" clip-rule="evenodd" d="M17.3477 16.9906C17.3477 16.5582 17.6979 16.207 18.1312 16.207H20.2653C20.6986 16.207 21.0489 16.5582 21.0489 16.9906C21.0489 17.423 20.6986 17.7741 20.2653 17.7741H18.1312C17.6979 17.7741 17.3477 17.423 17.3477 16.9906ZM18.1312 16.707C17.9744 16.707 17.8477 16.834 17.8477 16.9906C17.8477 17.1472 17.9744 17.2741 18.1312 17.2741H20.2653C20.4222 17.2741 20.5489 17.1472 20.5489 16.9906C20.5489 16.834 20.4222 16.707 20.2653 16.707H18.1312Z" fill="#392765"/>
<path d="M26.6672 16.457H22.3988C22.1037 16.457 21.8652 16.6961 21.8652 16.9906C21.8652 17.2851 22.1037 17.5241 22.3988 17.5241H26.6672C26.9622 17.5241 27.2007 17.2851 27.2007 16.9906C27.2007 16.6961 26.9622 16.457 26.6672 16.457Z" fill="#392765"/>
<path fill-rule="evenodd" clip-rule="evenodd" d="M21.6152 16.9906C21.6152 16.5582 21.9655 16.207 22.3988 16.207H26.6672C27.1004 16.207 27.4507 16.5581 27.4507 16.9906M22.3988 16.707C22.2419 16.707 22.1152 16.834 22.1152 16.9906C22.1152 17.1472 22.2419 17.2741 22.3988 17.2741H26.6672C26.824 17.2741 26.9507 17.1472 26.9507 16.9906V16.9905C26.9507 16.834 26.824 16.707 26.6672 16.707H22.3988ZM21.6152 16.9906C21.6152 17.423 21.9655 17.7741 22.3988 17.7741L21.6152 16.9906ZM27.4507 16.9906C27.4507 17.423 27.1004 17.7741 26.6672 17.7741H22.3988" fill="#392765"/>
<path d="M34.1373 9H13.8625C11.2208 9 9.07068 11.1443 9.06055 13.7832V13.7896V13.7955V13.8019V13.8083C9.06749 15.5098 9.98573 17.0949 11.4609 17.9486C11.716 18.0959 12.042 18.0089 12.1897 17.7544C12.338 17.4994 12.25 17.1729 11.9955 17.0256C10.8453 16.3592 10.1298 15.1225 10.1277 13.7955C10.1314 11.7392 11.8051 10.0671 13.8625 10.0671H34.1373C36.1962 10.0671 37.8721 11.7425 37.8721 13.8019V36.2109C37.8721 36.4814 37.7963 36.753 37.6539 36.9952C37.505 37.2492 37.5893 37.5763 37.8433 37.7256C37.9286 37.7758 38.0215 37.7993 38.1132 37.7993C38.2962 37.7993 38.4744 37.7054 38.5737 37.5362C38.8127 37.1302 38.9391 36.6719 38.9391 36.2109V13.8019C38.9392 11.1539 36.7853 9 34.1373 9Z" fill="#392765"/>
<path fill-rule="evenodd" clip-rule="evenodd" d="M8.81055 13.7823C8.82121 11.0057 11.0831 8.75 13.8625 8.75H34.1373C36.9233 8.75 39.1892 11.0159 39.1891 13.8019V36.2109C39.1891 36.7174 39.0503 37.2193 38.7893 37.6627C38.6432 37.9118 38.3809 38.0493 38.1132 38.0493C37.9783 38.0493 37.8415 38.0146 37.7166 37.9412C37.3432 37.7216 37.2199 37.2412 37.4382 36.8688C37.5591 36.6632 37.6221 36.4348 37.6221 36.2109V13.8019C37.6221 11.8806 36.0582 10.3171 34.1373 10.3171H13.8625C11.9433 10.3171 10.3814 11.8773 10.3777 13.7956C10.3798 15.033 11.0475 16.1875 12.1209 16.8093C12.4943 17.0255 12.624 17.5049 12.4059 17.8801C12.1888 18.2537 11.7103 18.3813 11.3359 18.1652C9.78388 17.267 8.81785 15.5997 8.81055 13.8093L8.81055 13.8083L8.81055 13.7823ZM9.31055 13.7837V13.8078C9.3173 15.4201 10.1879 16.923 11.5859 17.7321M9.31055 13.7837C9.3204 11.2826 11.3588 9.25 13.8625 9.25H34.1373C36.6472 9.25 38.6892 11.292 38.6891 13.8019V36.2109C38.6891 36.6262 38.5752 37.0409 38.3582 37.4094C38.3059 37.4986 38.2116 37.5493 38.1132 37.5493C38.0646 37.5493 38.0157 37.537 37.9699 37.5101C37.8354 37.4309 37.7901 37.2571 37.8695 37.1216C38.0334 36.8428 38.1221 36.5278 38.1221 36.2109V13.8019C38.1221 11.6044 36.3343 9.81711 34.1373 9.81711H13.8625C11.6672 9.81711 9.88166 11.601 9.87766 13.7951C9.87993 15.2113 10.6431 16.531 11.8702 17.2419C12.0057 17.3203 12.052 17.4939 11.9736 17.6288C11.8951 17.7639 11.7216 17.8103 11.5859 17.7321" fill="#392765"/>
<path d="M35.7375 33.5314C35.7375 31.7658 34.3018 30.3301 32.5362 30.3301C30.7707 30.3301 29.335 31.7658 29.335 33.5314C29.335 35.2969 30.7707 36.7326 32.5362 36.7326C34.3018 36.7326 35.7375 35.2969 35.7375 33.5314ZM32.5362 35.6655C31.3592 35.6655 30.4021 34.7083 30.4021 33.5314C30.4021 32.3544 31.3593 31.3972 32.5362 31.3972C33.7133 31.3972 34.6704 32.3544 34.6704 33.5314C34.6704 34.7083 33.7133 35.6655 32.5362 35.6655Z" fill="#392765"/>
<path fill-rule="evenodd" clip-rule="evenodd" d="M29.085 33.5314C29.085 31.6278 30.6327 30.0801 32.5362 30.0801C34.4398 30.0801 35.9875 31.6278 35.9875 33.5314C35.9875 35.435 34.4398 36.9826 32.5362 36.9826C30.6327 36.9826 29.085 35.435 29.085 33.5314ZM32.5362 30.5801C30.9088 30.5801 29.585 31.9039 29.585 33.5314C29.585 35.1588 30.9088 36.4826 32.5362 36.4826C34.1637 36.4826 35.4875 35.1588 35.4875 33.5314C35.4875 31.9039 34.1637 30.5801 32.5362 30.5801ZM32.5362 31.6472C31.4973 31.6472 30.6521 32.4925 30.6521 33.5314C30.6521 34.5703 31.4973 35.4155 32.5362 35.4155C33.5752 35.4155 34.4204 34.5703 34.4204 33.5314C34.4204 32.4925 33.5752 31.6472 32.5362 31.6472ZM30.1521 33.5314C30.1521 32.2163 31.2212 31.1472 32.5362 31.1472C33.8514 31.1472 34.9204 32.2163 34.9204 33.5314C34.9204 34.8464 33.8514 35.9155 32.5362 35.9155C31.2211 35.9155 30.1521 34.8464 30.1521 33.5314Z" fill="#392765"/>
<path d="M31.5734 37.2661C31.3189 37.1189 30.9923 37.2064 30.8445 37.4614L29.6958 39.4521L29.5134 39.1768C29.4211 39.0365 29.2679 38.9479 29.1004 38.9383L28.7706 38.9186L29.9386 36.8964C30.0858 36.6414 29.9984 36.3149 29.7433 36.1676C29.4883 36.0198 29.1618 36.1073 29.014 36.3628L27.415 39.1325C27.3227 39.2926 27.32 39.4895 27.4075 39.6522C27.4949 39.8148 27.6604 39.9211 27.8455 39.9317L28.7701 39.9872L29.2807 40.7603C29.3794 40.9102 29.5469 40.9998 29.7257 40.9998H29.7423C29.9263 40.994 30.0955 40.8931 30.1883 40.733L31.7692 37.9949C31.9164 37.74 31.829 37.4134 31.5734 37.2661Z" fill="#392765"/>
<path fill-rule="evenodd" clip-rule="evenodd" d="M28.7975 36.2377C29.0142 35.8631 29.4934 35.734 29.8684 35.9512C30.2429 36.1676 30.3713 36.6469 30.1551 37.0215L29.1876 38.6964C29.3815 38.726 29.557 38.8276 29.6793 38.9805L30.6279 37.3365C30.8446 36.9626 31.324 36.8332 31.6984 37.0497C32.0735 37.266 32.202 37.7454 31.9857 38.1199C31.9857 38.1199 31.9857 38.1199 31.9857 38.1199L30.4048 40.8581C30.2687 41.0928 30.0206 41.2411 29.7502 41.2498L29.7422 41.25L29.7257 41.2499C29.4633 41.2499 29.2172 41.1184 29.0719 40.8979M28.6304 40.2293L28.7551 40.2368L28.7701 39.9872L28.5615 40.125L28.6304 40.2293ZM29.1149 38.6888C29.1151 38.6888 29.1148 38.6888 29.1149 38.6888L28.7855 38.6691L28.7706 38.9186L28.9871 39.0436L29.1061 38.8376L29.1003 38.9384M29.2303 36.4881C29.2303 36.4881 29.2304 36.488 29.2303 36.4881L27.6315 39.2574C27.5826 39.3423 27.581 39.4472 27.6276 39.5338C27.6742 39.6204 27.762 39.6766 27.8598 39.6822L28.9098 39.7452L29.4893 40.6226C29.5415 40.7019 29.6306 40.7499 29.7257 40.7499H29.7376C29.834 40.7457 29.9229 40.6922 29.9719 40.6079C29.972 40.6078 29.9719 40.6079 29.9719 40.6079L31.5526 37.8699C31.6308 37.7347 31.5844 37.5611 31.4485 37.4828C31.3141 37.405 31.1399 37.4506 31.0609 37.5866C31.0609 37.5867 31.0609 37.5865 31.0609 37.5866L29.7105 39.9269L29.3049 39.3149C29.2559 39.2404 29.1744 39.193 29.0861 39.188L28.3517 39.144L29.722 36.7715C29.8003 36.636 29.7538 36.4624 29.6182 36.3841C29.4832 36.3059 29.3093 36.3517 29.2303 36.4881ZM28.7975 36.2377L27.1984 39.0076L28.7975 36.2377ZM27.1984 39.0076C27.0628 39.2428 27.0589 39.5319 27.1872 39.7706L27.1984 39.0076ZM27.1872 39.7706C27.3156 40.0093 27.5586 40.1656 27.8309 40.1813L27.1872 39.7706ZM27.8309 40.1813C27.8308 40.1813 27.831 40.1813 27.8309 40.1813V40.1813Z" fill="#392765"/>
<path d="M36.0725 36.3882C35.9246 36.1327 35.5976 36.0451 35.3436 36.193C35.0881 36.3402 35.0005 36.6668 35.1478 36.9217L36.3019 38.9188L35.9721 38.9385C35.8046 38.9487 35.6515 39.0373 35.5586 39.177L35.3772 39.4523L34.2344 37.4718C34.0861 37.2167 33.7595 37.1293 33.5051 37.2765C33.25 37.4238 33.1625 37.7503 33.3098 38.0054L34.8848 40.7334C34.9776 40.8935 35.1468 40.9943 35.3308 41.0002H35.3474C35.5256 41.0002 35.6937 40.9105 35.7929 40.7606L36.303 39.9881L37.2271 39.9321C37.4122 39.9214 37.5776 39.8152 37.6652 39.6525C37.7527 39.4898 37.7494 39.2929 37.6577 39.1329L36.0725 36.3882Z" fill="#392765"/>
<path fill-rule="evenodd" clip-rule="evenodd" d="M36.4427 40.2301L36.5116 40.1259L36.3029 39.9882L36.3181 40.2377L36.4427 40.2301Z" fill="#392765"/>
<path d="M18.1312 23.9264H21.3325C21.6275 23.9264 21.866 23.6874 21.866 23.3929C21.866 23.0984 21.6275 22.8594 21.3325 22.8594H18.1312C17.8361 22.8594 17.5977 23.0984 17.5977 23.3929C17.5977 23.6874 17.8361 23.9264 18.1312 23.9264Z" fill="#392765"/>
<path fill-rule="evenodd" clip-rule="evenodd" d="M17.3477 23.3929C17.3477 22.9605 17.6979 22.6094 18.1312 22.6094H21.3325C21.7658 22.6094 22.116 22.9605 22.116 23.3929C22.116 23.8253 21.7658 24.1764 21.3325 24.1764H18.1312C17.6979 24.1764 17.3477 23.8253 17.3477 23.3929ZM18.1312 23.1094C17.9744 23.1094 17.8477 23.2363 17.8477 23.3929C17.8477 23.5495 17.9744 23.6764 18.1312 23.6764H21.3325C21.4893 23.6764 21.616 23.5495 21.616 23.3929C21.616 23.2363 21.4893 23.1094 21.3325 23.1094H18.1312Z" fill="#392765"/>
<path d="M18.1312 27.1276H24.5337C24.8288 27.1276 25.0673 26.8886 25.0673 26.5941C25.0673 26.2996 24.8288 26.0605 24.5337 26.0605H18.1312C17.8361 26.0605 17.5977 26.2996 17.5977 26.5941C17.5977 26.8886 17.8361 27.1276 18.1312 27.1276Z" fill="#392765"/>
<path fill-rule="evenodd" clip-rule="evenodd" d="M17.3477 26.5941C17.3477 26.1617 17.6979 25.8105 18.1312 25.8105H24.5337C24.967 25.8105 25.3173 26.1617 25.3173 26.5941C25.3173 27.0265 24.967 27.3776 24.5337 27.3776H18.1312C17.6979 27.3776 17.3477 27.0265 17.3477 26.5941ZM18.1312 26.3105C17.9744 26.3105 17.8477 26.4375 17.8477 26.5941C17.8477 26.7507 17.9744 26.8776 18.1312 26.8776H24.5337C24.6905 26.8776 24.8173 26.7507 24.8173 26.5941C24.8173 26.4375 24.6905 26.3105 24.5337 26.3105H18.1312Z" fill="#392765"/>
<path d="M18.1876 33.7685C18.3188 34.0321 18.6395 34.1388 18.903 34.0076C19.1666 33.8758 19.2739 33.5551 19.1415 33.2915C18.6133 32.2351 18.4949 31.2875 18.8235 30.7556C18.9985 30.4723 19.3037 30.3287 19.7316 30.3287C19.9861 30.3287 20.0811 30.4162 20.1408 30.5016C20.5383 31.0746 20.1606 32.8198 19.7653 33.8763C19.6772 34.1115 19.7653 34.3762 19.9765 34.5123C20.1867 34.6472 20.4647 34.6179 20.6424 34.4408C20.8703 34.2135 21.1173 33.9867 21.3323 33.8027V34.0636C21.3323 34.2791 21.462 34.4739 21.6615 34.556C21.861 34.6392 22.0899 34.5934 22.2431 34.4408C22.4869 34.1975 22.7696 33.959 23.0076 33.7872C23.0012 33.8005 22.9948 33.8134 22.9884 33.8256C22.9068 33.991 22.9158 34.1874 23.013 34.3442C23.1107 34.5011 23.2819 34.5971 23.4665 34.5971H25.6007C25.8957 34.5971 26.1342 34.3581 26.1342 34.0636C26.1342 33.7691 25.8957 33.5301 25.6007 33.5301H24.2119C24.2551 33.2761 24.2444 33.0178 24.1158 32.8098C23.9798 32.5894 23.7429 32.4629 23.4665 32.4629C23.1367 32.4629 22.7489 32.6635 22.3946 32.9122C22.3674 32.6795 22.2297 32.488 22.0206 32.4016C21.8782 32.3429 21.6946 32.2661 21.2491 32.5334C21.4246 31.6141 21.4759 30.5545 21.0181 29.894C20.818 29.6053 20.4328 29.2617 19.7317 29.2617C18.9324 29.2617 18.2874 29.593 17.9155 30.1949C17.3836 31.056 17.4822 32.3584 18.1876 33.7685Z" fill="#392765"/>
<path fill-rule="evenodd" clip-rule="evenodd" d="M17.703 30.0635C18.127 29.3772 18.8593 29.0117 19.7319 29.0117C20.5315 29.0117 20.9872 29.4104 21.2237 29.7516C21.4897 30.1353 21.5973 30.6179 21.621 31.1045C21.6372 31.4385 21.6143 31.785 21.5696 32.1211C21.627 32.107 21.6817 32.0987 21.7343 32.0957C21.9103 32.0855 22.0354 32.1372 22.1109 32.1684C22.1127 32.1691 22.1144 32.1698 22.116 32.1705C22.2946 32.2442 22.4346 32.3713 22.5263 32.5288C22.8237 32.3521 23.1538 32.2129 23.4667 32.2129C23.8226 32.2129 24.1434 32.3785 24.3286 32.6783C24.4454 32.8672 24.4855 33.0774 24.4849 33.2801H25.6008C26.0341 33.2801 26.3844 33.6312 26.3844 34.0636C26.3844 34.496 26.0341 34.8471 25.6008 34.8471H23.4667C23.1948 34.8471 22.9438 34.7057 22.8009 34.4763C22.7719 34.4295 22.748 34.3799 22.7298 34.3293C22.6239 34.4216 22.5185 34.5193 22.4198 34.6178C22.1957 34.841 21.8595 34.9092 21.566 34.787C21.3558 34.7003 21.1986 34.5287 21.1264 34.3222C21.0232 34.4181 20.9192 34.5179 20.8192 34.6178C20.5583 34.8778 20.1506 34.921 19.8416 34.7226C19.5317 34.523 19.402 34.1343 19.5313 33.7886C19.7235 33.275 19.9119 32.5918 20.0032 31.9713C20.0489 31.6608 20.0691 31.3739 20.056 31.1358C20.0425 30.8907 19.9954 30.7306 19.9359 30.6445C19.9206 30.6228 19.9102 30.6132 19.8947 30.6053C19.8763 30.5958 19.8309 30.5787 19.7318 30.5787C19.3625 30.5787 19.1528 30.6985 19.0364 30.887C18.9132 31.0863 18.8588 31.3915 18.9094 31.7958C18.9596 32.1964 19.1104 32.6699 19.3653 33.1797C19.5596 33.5672 19.4016 34.0378 19.015 34.2312C18.6285 34.4236 18.1573 34.2677 17.9641 33.8803C17.2428 32.4382 17.104 31.0331 17.703 30.0635ZM23.2118 33.9382C23.1693 34.0261 23.1745 34.1298 23.2255 34.2122C23.278 34.2965 23.3694 34.3471 23.4667 34.3471H25.6008C25.7576 34.3471 25.8844 34.2202 25.8844 34.0636C25.8844 33.907 25.7576 33.7801 25.6008 33.7801H23.9159L23.9656 33.4881C24.0041 33.2614 23.986 33.0749 23.9033 32.9412C23.8164 32.8005 23.6634 32.7129 23.4667 32.7129C23.2206 32.7129 22.8886 32.871 22.5384 33.1168L22.1952 33.3577L22.1465 32.9412C22.129 32.7917 22.0444 32.682 21.9255 32.6327C21.858 32.6049 21.8218 32.5915 21.763 32.5948C21.6982 32.5986 21.5807 32.6261 21.3779 32.7478L20.899 33.0351L21.0037 32.4865C21.0893 32.0379 21.1427 31.5644 21.1215 31.1288C21.1003 30.6906 21.0046 30.3132 20.8128 30.0364C20.6491 29.8002 20.3344 29.5117 19.7319 29.5117C19.0058 29.5117 18.448 29.8089 18.1284 30.3263C17.6635 31.0788 17.722 32.2785 18.4113 33.6567C18.4807 33.796 18.6511 33.8537 18.7915 33.7839C18.9318 33.7136 18.9883 33.5433 18.9183 33.4037C18.645 32.8571 18.4722 32.3283 18.4133 31.8579C18.3548 31.3914 18.4055 30.9568 18.611 30.6242C18.611 30.6242 18.611 30.6242 18.611 30.6242C18.8446 30.2461 19.2453 30.0787 19.7318 30.0787C19.8871 30.0787 20.0164 30.1054 20.1241 30.161C20.2346 30.218 20.3015 30.2949 20.3458 30.3582L20.3464 30.3591C20.4855 30.5596 20.5401 30.8324 20.5552 31.1084C20.5708 31.3916 20.5464 31.7145 20.4979 32.044C20.4008 32.7035 20.2027 33.4211 19.9996 33.9639M19.9996 33.9639C19.9528 34.0887 19.9994 34.2295 20.1119 34.302C20.2233 34.3734 20.3716 34.3579 20.466 34.2638C20.4661 34.2638 20.466 34.2638 20.466 34.2638M22.0668 34.2637C22.3198 34.0113 22.6126 33.7642 22.8615 33.5845L23.2333 33.8952C23.2261 33.9102 23.2189 33.9246 23.2118 33.9382" fill="#392765"/>
<path d="M32.5363 26.5941C32.5363 26.2996 32.2978 26.0605 32.0028 26.0605H26.6673C26.3723 26.0605 26.1338 26.2996 26.1338 26.5941C26.1338 26.8886 26.3723 27.1276 26.6673 27.1276H32.0028C32.2978 27.1276 32.5363 26.8886 32.5363 26.5941Z" fill="#392765"/>
<path fill-rule="evenodd" clip-rule="evenodd" d="M25.8838 26.5941C25.8838 26.1617 26.234 25.8105 26.6673 25.8105H32.0028C32.4361 25.8105 32.7863 26.1617 32.7863 26.5941C32.7863 27.0265 32.4361 27.3776 32.0028 27.3776H26.6673C26.234 27.3776 25.8838 27.0265 25.8838 26.5941ZM26.6673 26.3105C26.5105 26.3105 26.3838 26.4375 26.3838 26.5941C26.3838 26.7507 26.5105 26.8776 26.6673 26.8776H32.0028C32.1596 26.8776 32.2863 26.7507 32.2863 26.5941C32.2863 26.4375 32.1596 26.3105 32.0028 26.3105H26.6673Z" fill="#392765"/>
</g>
<defs>
<clipPath id="clip0">
<path d="M0 0H48V48H0V0Z" fill="white"/>
</clipPath>
</defs>
</svg>
