<svg width="48" height="48" viewBox="0 0 48 48" fill="none" xmlns="http://www.w3.org/2000/svg"> <g clip-path="url(#clip0)"> <rect x="-5" y="-5" width="58" height="58" rx="29" fill="#B2DFDB"/> <path d="M35 12.9961L13 13.0001C12.447 13.0001 12 13.4431 12 13.9961V27.9961C12 28.5491 12.447 28.9961 13 28.9961H35C35.553 28.9961 36 28.5491 36 27.9961V13.9961C36 13.4431 35.553 12.9961 35 12.9961ZM35 28.0001H13V13.9961H35V28.0001Z" fill="#009688"/> <path d="M37 9H11C9.343 9 8 10.342 8 12V32C8 33.654 9.338 34.994 10.99 34.998H21V36.215L14.758 37.026C14.312 37.137 14 37.537 14 37.996C14 38.549 14.447 38.996 15 38.996H33C33.553 38.996 34 38.549 34 37.996C34 37.537 33.688 37.137 33.242 37.025L27 36.215V34.998H37.01C38.662 34.994 40 33.654 40 32V12C40 10.342 38.656 9 37 9ZM38 32C38 32.551 37.551 33 37 33H28H20H11C10.448 33 10 32.551 10 32V12C10 11.448 10.448 11 11 11H37C37.551 11 38 11.448 38 12V32Z" fill="#009688"/> </g> <defs> <clipPath id="clip0"> <path d="M0 0H48V48H0V0Z" fill="white"/> </clipPath> </defs> </svg>
