<svg width="48" height="48" viewBox="0 0 48 48" fill="none" xmlns="http://www.w3.org/2000/svg"> <g clip-path="url(#clip0)"> <rect opacity="0.5" x="-5" y="-5" width="58" height="58" rx="29" fill="#FE9800"/> <path d="M39 16C39 14.594 38.043 13.392 36.674 13.076L23.661 10.073C23.443 10.024 23.221 10 23 10C22.779 10 22.557 10.024 22.325 10.076L9.326 13.076C7.956 13.392 7 14.594 7 16C7 17.406 7.957 18.608 9.325 18.924L12 19.541V28C12 30.654 15.038 33 23 33C30.962 33 34 30.654 34 28V19.541L36.674 18.924C38.043 18.608 39 17.406 39 16ZM32 28C32 29.105 29 31 23 31C17 31 14 29.105 14 28V20.003L22.338 21.927C22.556 21.976 22.779 22 23 22C23.221 22 23.444 21.976 23.674 21.924L32 20.003V28ZM23.225 19.975C23.15 19.991 23.075 20 23 20C22.925 20 22.849 19.991 22.775 19.975L9.775 16.975C9.321 16.87 9 16.466 9 16C9 15.534 9.321 15.13 9.775 15.025L22.775 12.025C22.849 12.009 22.924 12 23 12C23.076 12 23.151 12.009 23.225 12.025L36.225 15.025C36.678 15.13 37 15.534 37 16C37 16.466 36.678 16.87 36.225 16.975L23.225 19.975Z" fill="#FE9800"/> <path d="M36 21V30C36 30.553 36.447 31 37 31C37.552 31 38 30.553 38 30V21C38 20.447 37.552 20 37 20C36.447 20 36 20.447 36 21Z" fill="#FE9800"/> <path d="M37 32C35.895 32 35 34.896 35 36C35 37.104 35.895 38 37 38C38.104 38 39 37.104 39 36C39 34.896 38.104 32 37 32Z" fill="#FE9800"/> </g> <defs> <clipPath id="clip0"> <path d="M0 0H48V48H0V0Z" fill="white"/> </clipPath> </defs> </svg>