
<svg width="407px" height="73px" viewBox="0 0 407 73" version="1.1" xmlns="http://www.w3.org/2000/svg" xmlns:xlink="http://www.w3.org/1999/xlink">
    <g id="Page-1" stroke="none" stroke-width="1" fill="none" fill-rule="evenodd">
        <path d="M370.741421,10 L365.741421,5 L370.741421,0 L375.741421,5 L370.741421,10 Z M356.741421,72.2 L385.541421,72.2 L385.541421,65 L356.741421,65 L356.741421,72.2 Z M394.741421,7 L389.741421,12 L394.741421,17 L399.741421,12 L394.741421,7 Z M390.341421,34.8 C390.341421,40.1 388.241421,44.8 384.941421,48.4 L384.941421,58.2 L356.141421,58.2 L356.141421,48.4 C352.841421,44.9 350.741421,40.1 350.741421,34.8 C350.741421,23.9 359.641421,15 370.541421,15 C381.441421,15 390.341421,23.9 390.341421,34.8 Z M382.941421,34.6 C382.941421,27.7 377.241421,22 370.341421,22 C363.441421,22 357.741421,27.6 357.741421,34.6 C357.741421,38.9 359.841421,42.6 363.141421,44.9 L363.141421,50.8 L377.541421,50.8 L377.541421,44.9 C380.741421,42.6 382.941421,38.8 382.941421,34.6 Z M346.741421,7 L341.741421,12 L346.741421,17 L351.741421,12 L346.741421,7 Z M396.741421,34 L401.741421,39 L406.741421,34 L401.741421,29 L396.741421,34 Z M334.741421,34 L339.741421,39 L344.741421,34 L339.741421,29 L334.741421,34 Z M149.141421,47.6 L149.141421,57 C149.141421,58.5 148.741421,59.6 147.941421,60.5 C147.141421,61.3 145.941421,61.7 144.341421,61.7 C143.641421,61.7 142.941421,61.6 142.241421,61.3 C141.541421,61 141.041421,60.6 140.641421,60.2 C140.541421,60.1 140.541421,60 140.641421,59.9 L141.941421,58.6 C142.041421,58.5 142.141421,58.5 142.241421,58.6 C142.941421,59.2 143.641421,59.6 144.441421,59.6 C145.241421,59.6 145.841421,59.4 146.141421,59 C146.541421,58.6 146.741421,58 146.741421,57.2 L146.741421,56.2 L146.741421,56.2 C146.541421,56.6 146.141421,56.9 145.741421,57.1 C145.341421,57.3 144.741421,57.4 144.041421,57.4 C143.141421,57.4 142.441421,57.2 141.841421,56.8 C141.241421,56.4 140.841421,55.8 140.541421,54.9 C140.441421,54.5 140.341421,54.1 140.241421,53.7 C140.241421,53.3 140.141421,52.8 140.141421,52.3 C140.141421,51.7 140.141421,51.3 140.241421,50.9 C140.241421,50.5 140.341421,50.1 140.541421,49.7 C140.841421,48.9 141.241421,48.2 141.841421,47.8 C142.441421,47.4 143.141421,47.2 144.041421,47.2 C144.741421,47.2 145.241421,47.3 145.741421,47.5 C146.141421,47.7 146.541421,48 146.741421,48.4 L146.741421,48.4 L146.741421,47.6 C146.741421,47.5 146.841421,47.4 146.941421,47.4 L148.941421,47.4 C149.141421,47.4 149.141421,47.5 149.141421,47.6 Z M146.741421,52.3 C146.741421,51.6 146.641421,51.1 146.541421,50.6 C146.441421,50.2 146.141421,49.9 145.841421,49.6 C145.541421,49.4 145.141421,49.3 144.641421,49.3 C143.741421,49.3 143.141421,49.7 142.841421,50.6 C142.641421,51.1 142.641421,51.6 142.641421,52.3 C142.641421,52.7 142.641421,53 142.741421,53.2 C142.741421,53.5 142.841421,53.7 142.941421,54 C143.241421,54.9 143.841421,55.3 144.741421,55.3 C145.241421,55.3 145.641421,55.2 145.941421,55 C146.241421,54.8 146.441421,54.4 146.641421,54 C146.741421,53.8 146.741421,53.5 146.841421,53.2 C146.741421,53 146.741421,52.6 146.741421,52.3 Z M281.441421,47.6 L281.441421,57 C281.441421,58.5 281.041421,59.6 280.241421,60.5 C279.441421,61.3 278.241421,61.7 276.641421,61.7 C275.941421,61.7 275.241421,61.6 274.541421,61.3 C273.841421,61 273.341421,60.6 272.941421,60.2 C272.841421,60.1 272.841421,60 272.941421,59.9 L274.241421,58.6 C274.341421,58.5 274.441421,58.5 274.541421,58.6 C275.241421,59.2 275.941421,59.6 276.741421,59.6 C277.541421,59.6 278.141421,59.4 278.541421,59 C278.941421,58.6 279.141421,58 279.141421,57.2 L279.141421,56.2 L279.141421,56.2 C278.941421,56.6 278.541421,56.9 278.141421,57.1 C277.741421,57.3 277.141421,57.4 276.441421,57.4 C275.541421,57.4 274.841421,57.2 274.241421,56.8 C273.641421,56.4 273.241421,55.8 272.941421,54.9 C272.841421,54.5 272.741421,54.1 272.641421,53.7 C272.541421,53.3 272.541421,52.8 272.541421,52.3 C272.541421,51.7 272.541421,51.3 272.641421,50.9 C272.641421,50.5 272.741421,50.1 272.941421,49.7 C273.241421,48.9 273.641421,48.2 274.241421,47.8 C274.841421,47.4 275.541421,47.2 276.441421,47.2 C277.141421,47.2 277.641421,47.3 278.141421,47.5 C278.541421,47.7 278.941421,48 279.141421,48.4 L279.141421,48.4 L279.141421,47.6 C279.141421,47.5 279.241421,47.4 279.341421,47.4 L281.341421,47.4 C281.441421,47.4 281.441421,47.5 281.441421,47.6 Z M279.141421,52.3 C279.141421,51.6 279.041421,51.1 278.941421,50.6 C278.841421,50.2 278.541421,49.9 278.241421,49.6 C277.941421,49.4 277.541421,49.3 277.041421,49.3 C276.141421,49.3 275.541421,49.7 275.241421,50.6 C275.041421,51.1 275.041421,51.6 275.041421,52.3 C275.041421,52.7 275.041421,53 275.141421,53.2 C275.141421,53.5 275.241421,53.7 275.341421,54 C275.641421,54.9 276.241421,55.3 277.141421,55.3 C277.641421,55.3 278.041421,55.2 278.341421,55 C278.641421,54.8 278.841421,54.4 279.041421,54 C279.141421,53.8 279.141421,53.5 279.241421,53.2 C279.041421,53 279.141421,52.6 279.141421,52.3 Z M7.54142136,43.4 L12.4414214,57.5 C12.4414214,57.6 12.4414214,57.7 12.3414214,57.7 L10.1414214,57.7 C10.0414214,57.7 9.94142136,57.6 9.84142136,57.5 L8.84142136,54.7 L3.34142136,54.7 L2.34142136,57.5 C2.34142136,57.6 2.24142136,57.7 2.04142136,57.7 L0.141421356,57.7 C0.0414213562,57.7 -0.0585786438,57.6 0.0414213562,57.5 L5.04142136,43.4 C5.04142136,43.3 5.14142136,43.2 5.34142136,43.2 L7.34142136,43.2 C7.34142136,43.2 7.44142136,43.3 7.54142136,43.4 Z M8.14142136,52.4 L6.24142136,46.8 L6.14142136,46.8 L4.24142136,52.4 L8.14142136,52.4 Z M16.1414214,43.2 L14.1414214,43.2 C14.0414214,43.2 13.9414214,43.3 13.9414214,43.4 L13.9414214,50.4 L13.9414214,50.4 L13.9414214,57.4 C13.9414214,57.5 14.0414214,57.6 14.1414214,57.6 L16.1414214,57.6 C16.2414214,57.6 16.3414214,57.5 16.3414214,57.4 L16.3414214,50.4 L16.3414214,50.4 L16.3414214,43.4 C16.3414214,43.3 16.2414214,43.2 16.1414214,43.2 Z M33.4414214,49.7 L28.6414214,49.7 C28.5414214,49.7 28.4414214,49.8 28.4414214,49.9 L28.4414214,51.6 C28.4414214,51.7 28.5414214,51.8 28.6414214,51.8 L31.0414214,51.8 C31.1414214,51.8 31.1414214,51.8 31.1414214,51.9 C31.1414214,52.3 31.1414214,52.7 31.0414214,53 C31.0414214,53.3 30.9414214,53.6 30.8414214,53.8 C30.6414214,54.4 30.3414214,54.8 29.8414214,55.1 C29.3414214,55.4 28.7414214,55.6 28.1414214,55.6 C27.4414214,55.6 26.8414214,55.4 26.3414214,55.1 C25.9414214,54.8 25.5414214,54.3 25.3414214,53.7 C25.3414214,53.6 25.2414214,53.4 25.2414214,53.3 C25.2414214,53.1 25.1414214,52.9 25.1414214,52.7 L25.1414214,51.8 L25.1414214,50.5 L25.1414214,49.2 L25.1414214,48.3 C25.1414214,48 25.1414214,47.8 25.2414214,47.7 C25.2414214,47.5 25.3414214,47.4 25.3414214,47.3 C25.5414214,46.7 25.8414214,46.2 26.3414214,45.9 C26.7414214,45.6 27.3414214,45.4 28.1414214,45.4 C28.8414214,45.4 29.4414214,45.6 29.8414214,45.9 C30.2414214,46.2 30.6414214,46.7 31.0414214,47.2 C31.1414214,47.3 31.1414214,47.3 31.3414214,47.3 L33.1414214,46.5 C33.2414214,46.4 33.2414214,46.3 33.2414214,46.2 C33.0414214,45.8 32.8414214,45.4 32.5414214,45 C32.2414214,44.6 31.9414214,44.3 31.4414214,44 C31.0414214,43.7 30.5414214,43.5 29.9414214,43.3 C29.3414214,43.1 28.7414214,43 28.0414214,43 C26.7414214,43 25.6414214,43.3 24.7414214,43.9 C23.8414214,44.5 23.2414214,45.4 22.8414214,46.5 C22.7414214,46.7 22.7414214,47 22.6414214,47.2 C22.5414214,47.4 22.5414214,47.7 22.5414214,48 C22.5414214,48.3 22.5414214,48.7 22.4414214,49.1 L22.4414214,50.6 L22.4414214,52.1 C22.4414214,52.5 22.4414214,52.9 22.5414214,53.2 C22.5414214,53.5 22.6414214,53.8 22.6414214,54 C22.6414214,54.2 22.7414214,54.5 22.8414214,54.7 C23.2414214,55.9 23.8414214,56.7 24.7414214,57.3 C25.6414214,57.9 26.7414214,58.2 28.0414214,58.2 C29.3414214,58.2 30.3414214,57.9 31.2414214,57.3 C32.1414214,56.7 32.7414214,55.8 33.1414214,54.7 C33.2414214,54.3 33.3414214,53.9 33.4414214,53.3 C33.5414214,52.7 33.5414214,52.1 33.5414214,51.5 L33.5414214,50.2 C33.6414214,49.8 33.6414214,49.7 33.4414214,49.7 Z M43.8414214,48.3 C43.5414214,48 43.1414214,47.7 42.7414214,47.5 C42.3414214,47.3 41.8414214,47.2 41.2414214,47.2 C40.5414214,47.2 40.0414214,47.3 39.5414214,47.6 C39.1414214,47.8 38.7414214,48.1 38.5414214,48.4 L38.5414214,48.4 L38.5414214,43.4 C38.5414214,43.3 38.4414214,43.2 38.3414214,43.2 L36.3414214,43.2 C36.2414214,43.2 36.1414214,43.3 36.1414214,43.4 L36.1414214,57.5 C36.1414214,57.6 36.2414214,57.7 36.3414214,57.7 L38.3414214,57.7 C38.4414214,57.7 38.5414214,57.6 38.5414214,57.5 L38.5414214,51.6 C38.5414214,50.9 38.7414214,50.4 39.0414214,50 C39.3414214,49.6 39.8414214,49.4 40.5414214,49.4 C41.1414214,49.4 41.6414214,49.6 42.0414214,50 C42.3414214,50.4 42.5414214,51 42.5414214,51.6 L42.5414214,57.5 C42.5414214,57.6 42.6414214,57.7 42.7414214,57.7 L44.7414214,57.7 C44.8414214,57.7 44.9414214,57.6 44.9414214,57.5 L44.9414214,51 C44.9414214,50.4 44.8414214,49.9 44.7414214,49.5 C44.3414214,49 44.1414214,48.6 43.8414214,48.3 Z M55.7414214,47.4 L53.7414214,47.4 C53.6414214,47.4 53.5414214,47.5 53.5414214,47.6 L53.5414214,53.6 C53.5414214,54.3 53.3414214,54.8 53.0414214,55.2 C52.7414214,55.6 52.2414214,55.8 51.6414214,55.8 C50.9414214,55.8 50.5414214,55.6 50.1414214,55.2 C49.8414214,54.8 49.6414214,54.2 49.6414214,53.6 L49.6414214,47.7 C49.6414214,47.6 49.5414214,47.5 49.4414214,47.5 L47.4414214,47.5 C47.3414214,47.5 47.2414214,47.6 47.2414214,47.7 L47.2414214,54.2 C47.2414214,54.8 47.3414214,55.3 47.4414214,55.7 C47.6414214,56.2 47.8414214,56.6 48.1414214,56.9 C48.4414214,57.2 48.8414214,57.5 49.2414214,57.7 C49.6414214,57.9 50.1414214,58 50.7414214,58 C51.4414214,58 51.9414214,57.9 52.3414214,57.7 C52.7414214,57.5 53.1414214,57.2 53.4414214,56.8 L53.4414214,56.8 L53.4414214,57.5 C53.4414214,57.6 53.5414214,57.7 53.6414214,57.7 L55.6414214,57.7 C55.7414214,57.7 55.8414214,57.6 55.8414214,57.5 L55.8414214,47.6 C56.0414214,47.5 55.9414214,47.4 55.7414214,47.4 Z M65.0414214,47.4 C64.6414214,47.3 64.2414214,47.2 63.8414214,47.2 C63.1414214,47.2 62.6414214,47.3 62.2414214,47.6 C61.8414214,47.8 61.4414214,48.2 61.2414214,48.6 L61.2414214,48.6 L61.2414214,47.7 C61.2414214,47.6 61.1414214,47.5 61.0414214,47.5 L59.0414214,47.5 C58.9414214,47.5 58.8414214,47.6 58.8414214,47.7 L58.8414214,57.6 C58.8414214,57.7 58.9414214,57.8 59.0414214,57.8 L61.0414214,57.8 C61.1414214,57.8 61.2414214,57.7 61.2414214,57.6 L61.2414214,52 C61.2414214,51.2 61.4414214,50.5 61.7414214,50.1 C62.0414214,49.6 62.5414214,49.4 63.2414214,49.4 C63.5414214,49.4 63.7414214,49.4 64.0414214,49.5 C64.2414214,49.6 64.5414214,49.7 64.7414214,49.9 C64.8414214,50 64.9414214,50 65.0414214,49.9 L66.1414214,48.5 C66.2414214,48.4 66.2414214,48.3 66.1414214,48.2 C65.7414214,47.8 65.4414214,47.6 65.0414214,47.4 Z M74.3414214,48 C74.9414214,48.6 75.3414214,49.5 75.3414214,50.7 L75.3414214,57.4 C75.3414214,57.5 75.2414214,57.6 75.1414214,57.6 L73.3414214,57.6 C73.2414214,57.6 73.1414214,57.5 73.1414214,57.4 L73.1414214,56.7 L73.1414214,56.7 C72.9414214,57.1 72.5414214,57.3 72.0414214,57.6 C71.5414214,57.8 70.9414214,57.9 70.2414214,57.9 C69.7414214,57.9 69.3414214,57.8 68.9414214,57.7 C68.5414214,57.6 68.1414214,57.4 67.8414214,57.1 C67.5414214,56.8 67.2414214,56.5 67.1414214,56.1 C66.9414214,55.7 66.8414214,55.2 66.8414214,54.7 C66.8414214,53.6 67.2414214,52.8 67.9414214,52.2 C68.6414214,51.7 69.6414214,51.4 70.9414214,51.4 L73.0414214,51.4 C73.1414214,51.4 73.1414214,51.4 73.1414214,51.3 L73.1414214,50.8 C73.1414214,50.2 72.9414214,49.8 72.6414214,49.5 C72.3414214,49.2 71.7414214,49.1 70.8414214,49.1 C70.2414214,49.1 69.7414214,49.2 69.4414214,49.3 C69.0414214,49.4 68.7414214,49.6 68.5414214,49.8 C68.4414214,49.9 68.3414214,49.9 68.2414214,49.8 L67.4414214,48.4 C67.3414214,48.3 67.3414214,48.2 67.4414214,48.1 C67.8414214,47.8 68.3414214,47.6 68.9414214,47.4 C69.5414214,47.2 70.2414214,47.1 71.1414214,47.1 C72.5414214,47.2 73.6414214,47.5 74.3414214,48 Z M73.0414214,53.5 C73.0414214,53.4 73.0414214,53.4 72.9414214,53.4 L71.1414214,53.4 C70.3414214,53.4 69.8414214,53.5 69.4414214,53.7 C69.0414214,53.9 68.9414214,54.3 68.9414214,54.8 C68.9414214,55.7 69.5414214,56.1 70.7414214,56.1 C71.4414214,56.1 72.0414214,56 72.4414214,55.7 C72.8414214,55.4 73.0414214,55 73.0414214,54.4 L73.0414214,53.5 Z M80.1414214,47.4 L78.1414214,47.4 C78.0414214,47.4 77.9414214,47.5 77.9414214,47.6 L77.9414214,57.5 C77.9414214,57.6 78.0414214,57.7 78.1414214,57.7 L80.1414214,57.7 C80.2414214,57.7 80.3414214,57.6 80.3414214,57.5 L80.3414214,47.6 C80.3414214,47.5 80.3414214,47.4 80.1414214,47.4 Z M80.1414214,43.2 L78.1414214,43.2 C78.0414214,43.2 77.9414214,43.3 77.9414214,43.4 L77.9414214,45.3 C77.9414214,45.4 78.0414214,45.5 78.1414214,45.5 L80.1414214,45.5 C80.2414214,45.5 80.3414214,45.4 80.3414214,45.3 L80.3414214,43.4 C80.3414214,43.3 80.3414214,43.2 80.1414214,43.2 Z M89.4414214,47.4 C89.0414214,47.3 88.6414214,47.2 88.2414214,47.2 C87.5414214,47.2 87.0414214,47.3 86.6414214,47.6 C86.2414214,47.8 85.8414214,48.2 85.6414214,48.6 L85.6414214,48.6 L85.6414214,47.7 C85.6414214,47.6 85.5414214,47.5 85.4414214,47.5 L83.4414214,47.5 C83.3414214,47.5 83.2414214,47.6 83.2414214,47.7 L83.2414214,57.6 C83.2414214,57.7 83.3414214,57.8 83.4414214,57.8 L85.4414214,57.8 C85.5414214,57.8 85.6414214,57.7 85.6414214,57.6 L85.6414214,52 C85.6414214,51.2 85.8414214,50.5 86.1414214,50.1 C86.4414214,49.6 86.9414214,49.4 87.6414214,49.4 C87.9414214,49.4 88.1414214,49.4 88.4414214,49.5 C88.6414214,49.6 88.9414214,49.7 89.1414214,49.9 C89.2414214,50 89.3414214,50 89.4414214,49.9 L90.5414214,48.5 C90.6414214,48.4 90.6414214,48.3 90.5414214,48.2 C90.1414214,47.8 89.8414214,47.6 89.4414214,47.4 Z M105.641421,43.2 L103.541421,43.2 C103.441421,43.2 103.341421,43.3 103.241421,43.4 L100.341421,49 L100.241421,49 L97.4414214,43.4 C97.3414214,43.3 97.2414214,43.2 97.1414214,43.2 L94.9414214,43.2 C94.7414214,43.2 94.7414214,43.3 94.7414214,43.4 L98.9414214,51.8 L98.9414214,57.5 C98.9414214,57.6 99.0414214,57.7 99.1414214,57.7 L101.241421,57.7 C101.341421,57.7 101.441421,57.6 101.441421,57.5 L101.441421,51.8 L105.641421,43.4 C105.841421,43.3 105.741421,43.2 105.641421,43.2 Z M115.841421,51.1 C115.941421,51.5 115.941421,52 115.941421,52.5 C115.941421,53.1 115.941421,53.5 115.841421,53.9 C115.741421,54.3 115.741421,54.7 115.541421,55 C115.241421,55.9 114.741421,56.6 114.041421,57.1 C113.341421,57.6 112.441421,57.8 111.341421,57.8 C110.241421,57.8 109.341421,57.6 108.641421,57.1 C107.941421,56.6 107.341421,55.9 107.141421,55 C107.041421,54.6 106.941421,54.3 106.841421,53.9 C106.741421,53.5 106.741421,53.1 106.741421,52.5 C106.741421,51.9 106.741421,51.5 106.841421,51.1 C106.941421,50.7 106.941421,50.3 107.141421,50 C107.441421,49.1 107.941421,48.4 108.641421,47.9 C109.341421,47.4 110.241421,47.2 111.341421,47.2 C112.341421,47.2 113.241421,47.4 114.041421,47.9 C114.741421,48.4 115.341421,49.1 115.541421,50 C115.641421,50.4 115.741421,50.8 115.841421,51.1 Z M113.441421,52.6 L113.441421,51.5 C113.441421,51.2 113.341421,51 113.241421,50.7 C113.041421,50.3 112.841421,49.9 112.541421,49.7 C112.241421,49.5 111.841421,49.3 111.341421,49.3 C110.841421,49.3 110.441421,49.4 110.141421,49.7 C109.841421,49.9 109.541421,50.3 109.441421,50.7 C109.341421,51 109.341421,51.3 109.241421,51.5 L109.241421,52.6 L109.241421,53.7 C109.241421,54 109.341421,54.3 109.441421,54.5 C109.641421,54.9 109.841421,55.3 110.141421,55.5 C110.441421,55.7 110.841421,55.9 111.341421,55.9 C111.841421,55.9 112.241421,55.8 112.541421,55.5 C112.841421,55.3 113.141421,54.9 113.241421,54.5 C113.341421,54.2 113.341421,54 113.441421,53.7 L113.441421,52.6 Z M126.441421,47.4 L124.441421,47.4 C124.341421,47.4 124.241421,47.5 124.241421,47.6 L124.241421,53.6 C124.241421,54.3 124.041421,54.8 123.741421,55.2 C123.441421,55.6 122.941421,55.8 122.341421,55.8 C121.641421,55.8 121.241421,55.6 120.841421,55.2 C120.541421,54.8 120.341421,54.2 120.341421,53.6 L120.341421,47.7 C120.341421,47.6 120.241421,47.5 120.141421,47.5 L118.141421,47.5 C118.041421,47.5 117.941421,47.6 117.941421,47.7 L117.941421,54.2 C117.941421,54.8 118.041421,55.3 118.141421,55.7 C118.341421,56.2 118.541421,56.6 118.841421,56.9 C119.141421,57.2 119.541421,57.5 119.941421,57.7 C120.341421,57.9 120.841421,58 121.441421,58 C122.141421,58 122.641421,57.9 123.041421,57.7 C123.441421,57.5 123.841421,57.2 124.141421,56.8 L124.141421,56.8 L124.141421,57.5 C124.141421,57.6 124.241421,57.7 124.341421,57.7 L126.341421,57.7 C126.441421,57.7 126.541421,57.6 126.541421,57.5 L126.541421,47.6 C126.641421,47.5 126.541421,47.4 126.441421,47.4 Z M137.141421,48.3 C136.841421,48 136.441421,47.7 136.041421,47.5 C135.641421,47.3 135.141421,47.2 134.541421,47.2 C133.841421,47.2 133.341421,47.3 132.841421,47.6 C132.441421,47.8 132.041421,48.1 131.841421,48.4 L131.841421,48.4 L131.841421,47.7 C131.841421,47.6 131.741421,47.5 131.641421,47.5 L129.641421,47.5 C129.541421,47.5 129.441421,47.6 129.441421,47.7 L129.441421,57.6 C129.441421,57.7 129.541421,57.8 129.641421,57.8 L131.641421,57.8 C131.741421,57.8 131.841421,57.7 131.841421,57.6 L131.841421,51.7 C131.841421,51 132.041421,50.5 132.341421,50.1 C132.641421,49.7 133.141421,49.5 133.841421,49.5 C134.441421,49.5 134.941421,49.7 135.341421,50.1 C135.641421,50.5 135.841421,51.1 135.841421,51.7 L135.841421,57.6 C135.841421,57.7 135.941421,57.8 136.041421,57.8 L138.041421,57.8 C138.141421,57.8 138.241421,57.7 138.241421,57.6 L138.241421,51.1 C138.241421,50.5 138.141421,50 138.041421,49.6 C137.741421,49 137.541421,48.6 137.141421,48.3 Z M165.941421,43.2 L155.541421,43.2 C155.441421,43.2 155.341421,43.3 155.341421,43.4 L155.341421,45.3 C155.341421,45.4 155.441421,45.5 155.541421,45.5 L159.341421,45.5 C159.441421,45.5 159.441421,45.5 159.441421,45.6 L159.441421,57.5 C159.441421,57.6 159.541421,57.7 159.641421,57.7 L161.741421,57.7 C161.841421,57.7 161.941421,57.6 161.941421,57.5 L161.941421,45.6 C161.941421,45.5 161.941421,45.5 162.041421,45.5 L165.841421,45.5 C165.941421,45.5 166.041421,45.4 166.041421,45.3 L166.041421,43.4 C166.141421,43.2 166.141421,43.2 165.941421,43.2 Z M175.641421,48.3 C175.341421,48 174.941421,47.7 174.541421,47.5 C174.141421,47.3 173.641421,47.2 173.041421,47.2 C172.341421,47.2 171.841421,47.3 171.341421,47.6 C170.941421,47.8 170.541421,48.1 170.341421,48.4 L170.341421,48.4 L170.341421,43.4 C170.341421,43.3 170.241421,43.2 170.141421,43.2 L168.141421,43.2 C168.041421,43.2 167.941421,43.3 167.941421,43.4 L167.941421,57.5 C167.941421,57.6 168.041421,57.7 168.141421,57.7 L170.141421,57.7 C170.241421,57.7 170.341421,57.6 170.341421,57.5 L170.341421,51.6 C170.341421,50.9 170.541421,50.4 170.841421,50 C171.141421,49.6 171.641421,49.4 172.341421,49.4 C172.941421,49.4 173.441421,49.6 173.841421,50 C174.141421,50.4 174.341421,51 174.341421,51.6 L174.341421,57.5 C174.341421,57.6 174.441421,57.7 174.541421,57.7 L176.541421,57.7 C176.641421,57.7 176.741421,57.6 176.741421,57.5 L176.741421,51 C176.741421,50.4 176.641421,49.9 176.541421,49.5 C176.141421,49 175.941421,48.6 175.641421,48.3 Z M181.441421,43.2 L179.441421,43.2 C179.341421,43.2 179.241421,43.3 179.241421,43.4 L179.241421,45.3 C179.241421,45.4 179.341421,45.5 179.441421,45.5 L181.441421,45.5 C181.541421,45.5 181.641421,45.4 181.641421,45.3 L181.641421,43.4 C181.741421,43.3 181.641421,43.2 181.441421,43.2 Z M181.441421,47.4 L179.441421,47.4 C179.341421,47.4 179.241421,47.5 179.241421,47.6 L179.241421,57.5 C179.241421,57.6 179.341421,57.7 179.441421,57.7 L181.441421,57.7 C181.541421,57.7 181.641421,57.6 181.641421,57.5 L181.641421,47.6 C181.741421,47.5 181.641421,47.4 181.441421,47.4 Z M192.241421,48.3 C191.941421,48 191.541421,47.7 191.141421,47.5 C190.741421,47.3 190.241421,47.2 189.641421,47.2 C188.941421,47.2 188.441421,47.3 187.941421,47.6 C187.541421,47.8 187.141421,48.1 186.941421,48.4 L186.941421,48.4 L186.941421,47.7 C186.941421,47.6 186.841421,47.5 186.741421,47.5 L184.741421,47.5 C184.641421,47.5 184.541421,47.6 184.541421,47.7 L184.541421,57.6 C184.541421,57.7 184.641421,57.8 184.741421,57.8 L186.741421,57.8 C186.841421,57.8 186.941421,57.7 186.941421,57.6 L186.941421,51.7 C186.941421,51 187.141421,50.5 187.441421,50.1 C187.741421,49.7 188.241421,49.5 188.941421,49.5 C189.541421,49.5 190.041421,49.7 190.441421,50.1 C190.741421,50.5 190.941421,51.1 190.941421,51.7 L190.941421,57.6 C190.941421,57.7 191.041421,57.8 191.141421,57.8 L193.141421,57.8 C193.241421,57.8 193.341421,57.7 193.341421,57.6 L193.341421,51.1 C193.341421,50.5 193.241421,50 193.141421,49.6 C192.741421,49 192.541421,48.6 192.241421,48.3 Z M201.241421,51.4 L204.541421,47.6 C204.541421,47.6 204.641421,47.5 204.541421,47.5 L204.441421,47.4 L202.241421,47.4 C202.141421,47.4 201.941421,47.5 201.841421,47.6 L198.341421,51.7 L198.341421,43.3 C198.341421,43.2 198.241421,43.1 198.141421,43.1 L196.141421,43.1 C196.041421,43.1 195.941421,43.2 195.941421,43.3 L195.941421,57.4 C195.941421,57.5 196.041421,57.6 196.141421,57.6 L198.141421,57.6 C198.241421,57.6 198.341421,57.5 198.341421,57.4 L198.341421,54.7 L199.741421,53.1 L202.341421,57.4 C202.441421,57.5 202.541421,57.6 202.641421,57.6 L204.841421,57.6 C204.941421,57.6 204.941421,57.6 204.941421,57.5 L204.941421,57.4 L201.241421,51.4 Z M215.241421,52 L215.241421,53.1 C215.241421,53.2 215.141421,53.3 215.041421,53.3 L208.741421,53.3 C208.641421,53.3 208.641421,53.3 208.641421,53.4 L208.641421,53.8 C208.641421,53.9 208.741421,54 208.741421,54.2 C209.141421,55.2 209.841421,55.8 211.041421,55.8 C211.641421,55.8 212.141421,55.7 212.541421,55.5 C212.941421,55.3 213.241421,55.1 213.541421,54.8 C213.641421,54.7 213.741421,54.7 213.841421,54.8 L215.141421,55.9 C215.241421,56 215.241421,56.1 215.141421,56.2 C214.741421,56.7 214.141421,57.1 213.441421,57.5 C212.741421,57.8 211.941421,58 210.941421,58 C209.841421,58 208.941421,57.7 208.241421,57.2 C207.541421,56.7 207.041421,56 206.741421,55.1 C206.641421,54.8 206.541421,54.4 206.441421,54 C206.341421,53.6 206.341421,53.1 206.341421,52.6 C206.341421,52.1 206.341421,51.6 206.441421,51.2 C206.541421,50.8 206.541421,50.4 206.741421,50.1 C207.041421,49.2 207.541421,48.5 208.241421,48 C208.941421,47.5 209.841421,47.3 210.841421,47.3 C211.941421,47.3 212.841421,47.6 213.541421,48.1 C214.241421,48.6 214.741421,49.3 215.041421,50.2 C215.141421,50.4 215.141421,50.6 215.141421,50.8 C215.141421,51 215.241421,51.2 215.241421,51.4 C215.241421,51.5 215.241421,51.7 215.241421,52 Z M212.841421,51.4 C212.841421,51.1 212.841421,50.8 212.741421,50.5 C212.641421,50.1 212.341421,49.8 212.041421,49.5 C211.641421,49.3 211.241421,49.1 210.741421,49.1 C210.241421,49.1 209.841421,49.2 209.441421,49.5 C209.041421,49.7 208.841421,50.1 208.741421,50.5 C208.641421,50.8 208.641421,51.1 208.641421,51.4 C208.641421,51.5 208.641421,51.5 208.741421,51.5 L212.741421,51.5 C212.841421,51.6 212.841421,51.5 212.841421,51.4 Z M223.841421,47.4 C223.441421,47.3 223.041421,47.2 222.641421,47.2 C221.941421,47.2 221.441421,47.3 221.041421,47.6 C220.641421,47.8 220.241421,48.2 220.041421,48.6 L220.041421,48.6 L220.041421,47.7 C220.041421,47.6 219.941421,47.5 219.841421,47.5 L217.841421,47.5 C217.741421,47.5 217.641421,47.6 217.641421,47.7 L217.641421,57.6 C217.641421,57.7 217.741421,57.8 217.841421,57.8 L219.841421,57.8 C219.941421,57.8 220.041421,57.7 220.041421,57.6 L220.041421,52 C220.041421,51.2 220.241421,50.5 220.541421,50.1 C220.841421,49.6 221.341421,49.4 222.041421,49.4 C222.341421,49.4 222.541421,49.4 222.841421,49.5 C223.041421,49.6 223.341421,49.7 223.541421,49.9 C223.641421,50 223.741421,50 223.841421,49.9 L224.941421,48.5 C225.041421,48.4 225.041421,48.3 224.941421,48.2 C224.541421,47.8 224.241421,47.6 223.841421,47.4 Z M231.041421,51.4 L229.941421,51.3 C229.241421,51.2 228.841421,51.1 228.641421,50.9 C228.441421,50.7 228.341421,50.5 228.341421,50.2 C228.341421,49.9 228.441421,49.6 228.741421,49.4 C229.041421,49.2 229.441421,49.1 229.941421,49.1 C230.441421,49.1 230.941421,49.2 231.441421,49.4 C231.941421,49.6 232.341421,49.8 232.641421,50 C232.741421,50.1 232.841421,50.1 232.941421,50 L233.941421,48.7 C234.041421,48.6 234.041421,48.5 233.941421,48.4 C233.441421,48 232.941421,47.7 232.241421,47.5 C231.541421,47.3 230.841421,47.1 230.041421,47.1 C228.741421,47.1 227.741421,47.4 227.041421,48 C226.341421,48.6 226.041421,49.4 226.041421,50.4 C226.041421,51.3 226.341421,52 226.841421,52.5 C227.341421,53 228.141421,53.3 229.241421,53.4 L230.341421,53.5 C231.041421,53.6 231.441421,53.7 231.741421,53.9 C231.941421,54.1 232.141421,54.3 232.141421,54.6 C232.141421,55 231.941421,55.2 231.641421,55.5 C231.341421,55.7 230.841421,55.8 230.241421,55.8 C229.741421,55.8 229.141421,55.7 228.641421,55.5 C228.141421,55.3 227.641421,55 227.241421,54.7 C227.141421,54.6 227.041421,54.6 226.941421,54.7 L225.741421,56 C225.641421,56.1 225.641421,56.2 225.741421,56.3 C226.141421,56.7 226.741421,57.1 227.441421,57.4 C228.141421,57.7 229.041421,57.9 230.141421,57.9 C231.541421,57.9 232.641421,57.6 233.341421,56.9 C234.041421,56.3 234.441421,55.4 234.441421,54.4 C234.441421,53.5 234.141421,52.9 233.641421,52.3 C232.941421,51.9 232.141421,51.6 231.041421,51.4 Z M251.241421,45.8 C251.441421,46.4 251.641421,47 251.641421,47.6 C251.641421,48.3 251.541421,48.9 251.241421,49.5 C251.041421,50.1 250.641421,50.5 250.241421,50.9 C249.841421,51.3 249.341421,51.6 248.741421,51.8 C248.141421,52 247.541421,52.1 246.841421,52.1 L243.841421,52.1 C243.741421,52.1 243.741421,52.1 243.741421,52.2 L243.741421,57.3 C243.741421,57.4 243.641421,57.5 243.541421,57.5 L241.441421,57.5 C241.341421,57.5 241.241421,57.4 241.241421,57.3 L241.241421,43.4 C241.241421,43.3 241.341421,43.2 241.441421,43.2 L246.841421,43.2 C247.541421,43.2 248.141421,43.3 248.741421,43.5 C249.341421,43.7 249.841421,44 250.241421,44.4 C250.741421,44.8 251.041421,45.3 251.241421,45.8 Z M249.141421,47.7 C249.141421,47 248.941421,46.5 248.541421,46.1 C248.141421,45.7 247.541421,45.5 246.741421,45.5 L243.841421,45.5 C243.741421,45.5 243.741421,45.5 243.741421,45.6 L243.741421,49.8 C243.741421,49.9 243.741421,49.9 243.841421,49.9 L246.741421,49.9 C247.541421,49.9 248.041421,49.7 248.541421,49.3 C248.841421,48.9 249.141421,48.4 249.141421,47.7 Z M259.841421,47.4 C259.441421,47.3 259.041421,47.2 258.641421,47.2 C257.941421,47.2 257.441421,47.3 257.041421,47.6 C256.641421,47.8 256.241421,48.2 256.041421,48.6 L256.041421,48.6 L256.041421,47.7 C256.041421,47.6 255.941421,47.5 255.841421,47.5 L253.841421,47.5 C253.741421,47.5 253.641421,47.6 253.641421,47.7 L253.641421,57.6 C253.641421,57.7 253.741421,57.8 253.841421,57.8 L255.841421,57.8 C255.941421,57.8 256.041421,57.7 256.041421,57.6 L256.041421,52 C256.041421,51.2 256.241421,50.5 256.541421,50.1 C256.841421,49.6 257.341421,49.4 258.041421,49.4 C258.341421,49.4 258.541421,49.4 258.841421,49.5 C259.041421,49.6 259.341421,49.7 259.541421,49.9 C259.641421,50 259.741421,50 259.841421,49.9 L260.941421,48.5 C261.041421,48.4 261.041421,48.3 260.941421,48.2 C260.541421,47.8 260.241421,47.6 259.841421,47.4 Z M270.841421,51.1 C270.941421,51.5 270.941421,52 270.941421,52.5 C270.941421,53.1 270.941421,53.5 270.841421,53.9 C270.741421,54.3 270.741421,54.7 270.541421,55 C270.241421,55.9 269.741421,56.6 269.041421,57.1 C268.341421,57.6 267.441421,57.8 266.341421,57.8 C265.241421,57.8 264.341421,57.6 263.641421,57.1 C262.941421,56.6 262.341421,55.9 262.141421,55 C262.041421,54.6 261.941421,54.3 261.841421,53.9 C261.741421,53.5 261.741421,53.1 261.741421,52.5 C261.741421,51.9 261.741421,51.5 261.841421,51.1 C261.941421,50.7 261.941421,50.3 262.141421,50 C262.441421,49.1 262.941421,48.4 263.641421,47.9 C264.341421,47.4 265.241421,47.2 266.341421,47.2 C267.341421,47.2 268.241421,47.4 269.041421,47.9 C269.741421,48.4 270.341421,49.1 270.541421,50 C270.741421,50.4 270.741421,50.8 270.841421,51.1 Z M268.541421,52.6 L268.541421,51.5 C268.541421,51.2 268.441421,51 268.341421,50.7 C268.141421,50.3 267.941421,49.9 267.641421,49.7 C267.341421,49.5 266.941421,49.3 266.441421,49.3 C265.941421,49.3 265.541421,49.4 265.241421,49.7 C264.941421,49.9 264.641421,50.3 264.541421,50.7 C264.441421,51 264.441421,51.3 264.341421,51.5 L264.341421,52.6 L264.341421,53.7 C264.341421,54 264.441421,54.3 264.541421,54.5 C264.741421,54.9 264.941421,55.3 265.241421,55.5 C265.541421,55.7 265.941421,55.9 266.441421,55.9 C266.941421,55.9 267.341421,55.8 267.641421,55.5 C267.941421,55.3 268.241421,54.9 268.341421,54.5 C268.441421,54.2 268.441421,54 268.541421,53.7 C268.441421,53.4 268.541421,53 268.541421,52.6 Z M290.541421,47.4 C290.141421,47.3 289.741421,47.2 289.341421,47.2 C288.641421,47.2 288.141421,47.3 287.741421,47.6 C287.341421,47.8 286.941421,48.2 286.741421,48.6 L286.741421,48.6 L286.741421,47.7 C286.741421,47.6 286.641421,47.5 286.541421,47.5 L284.541421,47.5 C284.441421,47.5 284.341421,47.6 284.341421,47.7 L284.341421,57.6 C284.341421,57.7 284.441421,57.8 284.541421,57.8 L286.541421,57.8 C286.641421,57.8 286.741421,57.7 286.741421,57.6 L286.741421,52 C286.741421,51.2 286.941421,50.5 287.241421,50.1 C287.541421,49.6 288.041421,49.4 288.741421,49.4 C289.041421,49.4 289.241421,49.4 289.541421,49.5 C289.741421,49.6 290.041421,49.7 290.241421,49.9 C290.341421,50 290.441421,50 290.541421,49.9 L291.641421,48.5 C291.741421,48.4 291.741421,48.3 291.641421,48.2 C291.241421,47.8 290.941421,47.6 290.541421,47.4 Z M299.741421,48 C300.341421,48.6 300.741421,49.5 300.741421,50.7 L300.741421,57.4 C300.741421,57.5 300.641421,57.6 300.541421,57.6 L298.741421,57.6 C298.641421,57.6 298.541421,57.5 298.541421,57.4 L298.541421,56.7 L298.541421,56.7 C298.341421,57.1 297.941421,57.3 297.441421,57.6 C296.941421,57.8 296.341421,57.9 295.641421,57.9 C295.141421,57.9 294.741421,57.8 294.341421,57.7 C293.941421,57.6 293.541421,57.4 293.241421,57.1 C292.941421,56.8 292.641421,56.5 292.541421,56.1 C292.341421,55.7 292.241421,55.2 292.241421,54.7 C292.241421,53.6 292.641421,52.8 293.341421,52.2 C294.041421,51.7 295.041421,51.4 296.341421,51.4 L298.441421,51.4 C298.541421,51.4 298.541421,51.4 298.541421,51.3 L298.541421,50.8 C298.541421,50.2 298.341421,49.8 298.041421,49.5 C297.741421,49.2 297.141421,49.1 296.241421,49.1 C295.641421,49.1 295.141421,49.2 294.841421,49.3 C294.441421,49.4 294.141421,49.6 293.941421,49.8 C293.841421,49.9 293.741421,49.9 293.641421,49.8 L292.841421,48.4 C292.741421,48.3 292.741421,48.2 292.841421,48.1 C293.241421,47.8 293.741421,47.6 294.341421,47.4 C294.941421,47.2 295.641421,47.1 296.541421,47.1 C298.041421,47.2 299.141421,47.5 299.741421,48 Z M298.541421,53.5 C298.541421,53.4 298.541421,53.4 298.441421,53.4 L296.741421,53.4 C295.941421,53.4 295.441421,53.5 295.041421,53.7 C294.641421,53.9 294.541421,54.3 294.541421,54.8 C294.541421,55.7 295.141421,56.1 296.341421,56.1 C297.041421,56.1 297.641421,56 298.041421,55.7 C298.441421,55.4 298.641421,55 298.641421,54.4 L298.641421,53.5 L298.541421,53.5 Z M318.241421,49.5 C318.041421,49 317.841421,48.6 317.541421,48.3 C317.241421,48 316.841421,47.7 316.341421,47.5 C315.841421,47.3 315.341421,47.2 314.741421,47.2 C314.041421,47.2 313.341421,47.3 312.841421,47.6 C312.341421,47.8 311.841421,48.2 311.441421,48.6 L311.441421,48.6 C311.141421,48.2 310.741421,47.8 310.241421,47.6 C309.741421,47.4 309.241421,47.2 308.641421,47.2 C307.941421,47.2 307.441421,47.3 306.941421,47.6 C306.541421,47.8 306.141421,48.1 305.941421,48.4 L305.941421,48.4 L305.941421,47.7 C305.941421,47.6 305.841421,47.5 305.741421,47.5 L303.741421,47.5 C303.641421,47.5 303.541421,47.6 303.541421,47.7 L303.541421,57.6 C303.541421,57.7 303.641421,57.8 303.741421,57.8 L305.741421,57.8 C305.841421,57.8 305.941421,57.7 305.941421,57.6 L305.941421,51.7 C305.941421,51 306.141421,50.5 306.441421,50.1 C306.741421,49.7 307.241421,49.5 307.941421,49.5 C308.541421,49.5 309.041421,49.7 309.441421,50.1 C309.741421,50.5 309.941421,51.1 309.941421,51.7 L309.941421,57.6 C309.941421,57.7 310.041421,57.8 310.141421,57.8 L312.141421,57.8 C312.241421,57.8 312.341421,57.7 312.341421,57.6 L312.341421,51.7 C312.341421,51 312.541421,50.5 312.841421,50.1 C313.141421,49.7 313.641421,49.5 314.341421,49.5 C314.941421,49.5 315.441421,49.7 315.841421,50.1 C316.141421,50.5 316.341421,51.1 316.341421,51.7 L316.341421,57.6 C316.341421,57.7 316.441421,57.8 316.541421,57.8 L318.541421,57.8 C318.641421,57.8 318.741421,57.7 318.741421,57.6 L318.741421,51.1 C318.441421,50.4 318.341421,49.9 318.241421,49.5 Z M75.8414214,20.8 L77.8414214,20.8 C77.9414214,20.8 78.0414214,20.7 78.0414214,20.6 L78.0414214,18.7 C78.0414214,18.6 77.9414214,18.5 77.8414214,18.5 L75.8414214,18.5 C75.7414214,18.5 75.6414214,18.6 75.6414214,18.7 L75.6414214,20.6 C75.5414214,20.7 75.6414214,20.8 75.8414214,20.8 Z M107.441421,17.9 L109.441421,17.9 C109.541421,17.9 109.641421,17.8 109.641421,17.7 L109.641421,15.8 C109.641421,15.7 109.541421,15.6 109.441421,15.6 L107.441421,15.6 C107.341421,15.6 107.241421,15.7 107.241421,15.8 L107.241421,17.7 C107.241421,17.8 107.341421,17.9 107.441421,17.9 Z M86.7414214,32.8 L86.7414214,30.9 C86.7414214,30.8 86.6414214,30.7 86.5414214,30.7 L84.7414214,30.7 C84.6414214,30.7 84.5414214,30.8 84.5414214,30.9 L84.5414214,32.8 C84.5414214,32.9 84.6414214,33 84.7414214,33 L86.5414214,33 C86.7414214,33 86.7414214,32.9 86.7414214,32.8 Z M233.041421,30.9 L233.041421,32.8 C233.041421,32.9 233.141421,33 233.241421,33 L235.041421,33 C235.141421,33 235.241421,32.9 235.241421,32.8 L235.241421,30.9 C235.241421,30.8 235.141421,30.7 235.041421,30.7 L233.241421,30.7 C233.141421,30.7 233.041421,30.8 233.041421,30.9 Z M134.141421,28.9 L136.141421,28.9 C136.241421,28.9 136.341421,28.8 136.341421,28.7 L136.341421,14.6 C136.341421,14.5 136.241421,14.4 136.141421,14.4 L134.141421,14.4 C134.041421,14.4 133.941421,14.5 133.941421,14.6 L133.941421,28.7 C133.941421,28.8 133.941421,28.9 134.141421,28.9 Z M247.941421,17.9 L249.941421,17.9 C250.041421,17.9 250.141421,17.8 250.141421,17.7 L250.141421,15.8 C250.141421,15.7 250.041421,15.6 249.941421,15.6 L247.941421,15.6 C247.841421,15.6 247.741421,15.7 247.741421,15.8 L247.741421,17.7 C247.741421,17.8 247.741421,17.9 247.941421,17.9 Z M185.641421,17.9 L187.641421,17.9 C187.741421,17.9 187.841421,17.8 187.841421,17.7 L187.841421,15.8 C187.841421,15.7 187.741421,15.6 187.641421,15.6 L185.641421,15.6 C185.541421,15.6 185.441421,15.7 185.441421,15.8 L185.441421,17.7 C185.441421,17.8 185.541421,17.9 185.641421,17.9 Z M148.441421,20.8 L150.441421,20.8 C150.541421,20.8 150.641421,20.7 150.641421,20.6 L150.641421,18.7 C150.641421,18.6 150.541421,18.5 150.441421,18.5 L148.441421,18.5 C148.341421,18.5 148.241421,18.6 148.241421,18.7 L148.241421,20.6 C148.241421,20.7 148.341421,20.8 148.441421,20.8 Z M312.241421,28.2 C312.441421,28.5 312.741421,28.7 313.141421,28.8 C313.441421,28.9 313.941421,28.9 314.341421,28.9 L314.341421,28.9 L314.341421,28.9 L316.341421,28.9 C317.241421,28.9 317.841421,28.7 318.241421,28.2 C318.641421,27.8 318.841421,27.1 318.841421,26.2 L318.841421,20.2 C318.841421,20.1 318.741421,20 318.641421,20 L316.641421,20 C316.541421,20 316.441421,20.1 316.441421,20.2 L316.441421,25.6 C316.441421,26 316.341421,26.3 316.241421,26.5 C316.041421,26.7 315.841421,26.7 315.441421,26.7 L314.441421,26.7 L314.441421,26.7 L314.441421,26.7 L314.041421,26.7 C313.541421,26.7 313.041421,26.6 312.741421,26.4 C312.441421,26.2 312.241421,25.8 312.241421,25.4 L312.241421,20.2 C312.241421,20.1 312.141421,20 312.041421,20 L310.041421,20 C309.941421,20 309.841421,20.1 309.841421,20.2 L309.841421,27.8 L309.841421,29.2 C309.841421,29.6 309.741421,29.9 309.641421,30.2 C309.541421,30.5 309.341421,30.7 309.141421,30.8 C308.941421,30.9 308.641421,31 308.141421,31 L307.641421,31 C307.541421,31 307.441421,31.1 307.441421,31.2 L307.441421,32.9 C307.441421,33 307.541421,33.1 307.641421,33.1 L308.441421,33.1 C309.141421,33.1 309.741421,33 310.241421,32.8 C310.741421,32.6 311.141421,32.3 311.441421,31.9 C311.741421,31.5 311.941421,31 312.041421,30.5 C312.141421,29.9 312.241421,29.3 312.241421,28.5 L312.241421,28.2 L312.241421,28.2 Z M227.341421,30.6 C227.441421,30 227.541421,29.4 227.541421,28.6 L227.541421,28.2 C227.741421,28.5 228.041421,28.7 228.441421,28.8 C228.741421,28.9 229.241421,28.9 229.641421,28.9 L229.641421,28.9 L229.641421,28.9 L231.941421,28.9 C232.841421,28.9 233.441421,28.7 233.841421,28.2 C234.241421,27.8 234.441421,27.1 234.441421,26.2 L234.441421,20.2 C234.441421,20.1 234.341421,20 234.241421,20 L232.241421,20 C232.141421,20 232.041421,20.1 232.041421,20.2 L232.041421,25.6 C232.041421,26 231.941421,26.3 231.841421,26.5 C231.641421,26.7 231.441421,26.7 231.041421,26.7 L229.641421,26.7 L229.641421,26.7 L229.641421,26.7 L229.241421,26.7 C228.741421,26.7 228.241421,26.6 227.941421,26.4 C227.641421,26.2 227.441421,25.8 227.441421,25.4 L227.441421,20.2 C227.441421,20.1 227.341421,20 227.241421,20 L225.241421,20 C225.141421,20 225.041421,20.1 225.041421,20.2 L225.041421,27.8 L225.041421,29.2 C225.041421,29.6 224.941421,29.9 224.841421,30.2 C224.741421,30.5 224.541421,30.7 224.341421,30.8 C224.141421,30.9 223.841421,31 223.341421,31 L222.841421,31 C222.741421,31 222.641421,31.1 222.641421,31.2 L222.641421,32.9 C222.641421,33 222.741421,33.1 222.841421,33.1 L223.641421,33.1 C224.341421,33.1 224.941421,33 225.441421,32.8 C225.941421,32.6 226.341421,32.3 226.641421,31.9 C226.941421,31.5 227.241421,31.2 227.341421,30.6 Z M264.341421,14.4 L262.341421,14.4 C262.241421,14.4 262.141421,14.5 262.141421,14.6 L262.141421,28.7 C262.141421,28.8 262.241421,28.9 262.341421,28.9 L264.341421,28.9 C264.441421,28.9 264.541421,28.8 264.541421,28.7 L264.541421,14.6 C264.541421,14.5 264.441421,14.4 264.341421,14.4 Z M279.241421,32.5 C279.341421,32.5 279.441421,32.4 279.441421,32.3 L279.441421,30.4 C279.441421,30.3 279.341421,30.2 279.241421,30.2 L277.241421,30.2 C277.141421,30.2 277.041421,30.3 277.041421,30.4 L277.041421,32.3 C277.041421,32.4 277.141421,32.5 277.241421,32.5 L279.241421,32.5 Z M230.541421,30.7 C230.441421,30.7 230.341421,30.8 230.341421,30.9 L230.341421,32.8 C230.341421,32.9 230.441421,33 230.541421,33 L232.341421,33 C232.441421,33 232.541421,32.9 232.541421,32.8 L232.541421,30.9 C232.541421,30.8 232.441421,30.7 232.341421,30.7 L230.541421,30.7 Z M256.841421,28.9 L254.841421,28.9 L251.641421,28.9 C251.141421,28.9 250.641421,28.9 250.141421,28.8 C249.641421,28.7 249.241421,28.5 248.841421,28.3 C248.341421,28.6 247.841421,28.7 247.341421,28.8 C246.841421,28.9 246.341421,28.9 245.941421,28.9 L242.841421,28.9 L242.841421,28.9 L242.841421,28.9 C242.341421,28.9 241.941421,28.9 241.641421,28.8 C241.341421,28.7 241.041421,28.5 240.741421,28.2 L240.741421,28.6 C240.741421,29.4 240.641421,30 240.541421,30.6 C240.441421,31.2 240.241421,31.7 239.941421,32 C239.641421,32.3 239.241421,32.7 238.741421,32.9 C238.241421,33.1 237.641421,33.2 236.941421,33.2 L236.141421,33.2 C236.041421,33.2 235.941421,33.1 235.941421,33 L235.941421,31.3 C235.941421,31.2 236.041421,31.1 236.141421,31.1 L236.641421,31.1 C237.041421,31.1 237.341421,31 237.641421,30.9 C237.841421,30.8 238.041421,30.5 238.141421,30.3 C238.241421,30 238.341421,29.7 238.341421,29.3 L238.341421,27.9 L238.341421,20.3 C238.341421,20.2 238.441421,20.1 238.541421,20.1 L240.541421,20.1 C240.641421,20.1 240.741421,20.2 240.741421,20.3 L240.741421,25.5 C240.741421,25.9 240.941421,26.3 241.241421,26.5 C241.541421,26.7 242.041421,26.8 242.541421,26.8 L242.941421,26.8 L242.941421,26.8 L242.941421,26.8 L245.441421,26.8 L246.241421,26.8 C246.541421,26.8 246.841421,26.7 247.241421,26.6 C247.141421,26.1 246.941421,25.7 246.741421,25.4 C246.541421,25.1 246.341421,24.8 246.041421,24.5 C245.841421,24.2 245.541421,24 245.241421,23.8 C244.941421,23.6 244.641421,23.4 244.441421,23.2 C244.241421,23.1 244.241421,23 244.141421,22.9 L244.141421,22.6 L244.141421,21.3 C244.141421,21.1 244.241421,21 244.541421,20.8 C244.841421,20.6 245.141421,20.4 245.641421,20.3 C246.141421,20.2 246.541421,20 247.141421,19.9 C247.741421,19.8 248.341421,19.8 248.941421,19.8 C250.541421,19.8 251.741421,20.1 252.541421,20.7 C253.341421,21.3 253.641421,22.1 253.641421,23.1 C253.641421,23.5 253.541421,23.9 253.441421,24.3 C253.341421,24.7 253.141421,25 252.941421,25.3 C252.741421,25.6 252.441421,25.9 252.241421,26.2 C251.941421,26.5 251.741421,26.7 251.441421,26.8 L251.841421,26.8 L252.241421,26.8 L254.941421,26.8 L255.941421,26.8 C256.341421,26.8 256.541421,26.7 256.741421,26.6 C256.941421,26.4 256.941421,26.1 256.941421,25.7 L256.941421,14.7 C256.941421,14.6 257.041421,14.5 257.141421,14.5 L259.141421,14.5 C259.241421,14.5 259.341421,14.6 259.341421,14.7 L259.341421,26.3 C259.341421,27.2 259.141421,27.9 258.741421,28.3 C258.441421,28.7 257.741421,28.9 256.841421,28.9 Z M251.141421,23.4 C251.141421,22.8 250.941421,22.4 250.541421,22.2 C250.141421,22 249.541421,21.9 248.941421,21.9 C248.341421,21.9 247.841421,22 247.441421,22.1 C247.041421,22.2 246.741421,22.3 246.541421,22.4 C247.241421,22.8 247.741421,23.3 248.241421,24 C248.741421,24.7 249.041421,25.4 249.241421,26.2 C249.441421,26.1 249.741421,25.9 249.941421,25.7 C250.141421,25.5 250.341421,25.3 250.541421,25 C250.741421,24.8 250.841421,24.5 250.941421,24.2 C251.141421,23.9 251.141421,23.6 251.141421,23.4 Z M316.241421,30.7 C316.141421,30.7 316.041421,30.8 316.041421,30.9 L316.041421,32.7 C316.041421,32.8 316.141421,32.9 316.241421,32.9 L318.241421,32.9 C318.341421,32.9 318.441421,32.8 318.441421,32.7 L318.441421,30.8 C318.441421,30.7 318.341421,30.6 318.241421,30.6 L316.241421,30.6 L316.241421,30.7 Z M89.3414214,30.7 L87.5414214,30.7 C87.4414214,30.7 87.3414214,30.8 87.3414214,30.9 L87.3414214,32.8 C87.3414214,32.9 87.4414214,33 87.5414214,33 L89.3414214,33 C89.4414214,33 89.5414214,32.9 89.5414214,32.8 L89.5414214,30.9 C89.5414214,30.8 89.4414214,30.7 89.3414214,30.7 Z M288.841421,28.8 C288.241421,28.6 287.841421,28.3 287.441421,27.8 C287.341421,28 287.141421,28.2 286.941421,28.4 C286.741421,28.5 286.541421,28.7 286.341421,28.7 C286.141421,28.8 285.941421,28.8 285.641421,28.9 L285.041421,28.9 L284.141421,28.9 L284.041421,28.9 C283.541421,28.9 283.041421,28.8 282.641421,28.7 C282.241421,28.5 281.841421,28.2 281.641421,27.7 C281.341421,28.2 281.041421,28.5 280.541421,28.7 C280.041421,28.9 279.441421,29 278.841421,29 L275.141421,29 C274.741421,29 274.441421,29.1 274.241421,29.3 C274.041421,29.5 273.941421,29.8 273.941421,30.1 C273.941421,30.5 274.041421,30.8 274.241421,30.9 C274.441421,31.1 274.841421,31.2 275.541421,31.2 L276.141421,31.2 C276.241421,31.2 276.341421,31.3 276.341421,31.4 L276.341421,33.1 C276.341421,33.2 276.241421,33.3 276.141421,33.3 L275.341421,33.3 C274.141421,33.3 273.241421,33.1 272.541421,32.6 C271.841421,32.1 271.541421,31.3 271.541421,30.1 C271.541421,29.5 271.641421,29 271.841421,28.5 C272.041421,28.1 272.241421,27.8 272.641421,27.5 C272.941421,27.3 273.341421,27.1 273.741421,27 C274.141421,26.9 274.541421,26.8 274.941421,26.8 L277.941421,26.8 C278.341421,26.8 278.641421,26.8 278.841421,26.7 C279.041421,26.6 279.241421,26.5 279.341421,26.4 C279.441421,26.3 279.541421,26.1 279.641421,25.8 C279.641421,25.6 279.741421,25.3 279.741421,24.9 C279.741421,24.4 279.741421,24 279.641421,23.6 C279.541421,23.2 279.441421,22.9 279.241421,22.6 C279.041421,22.3 278.841421,22.1 278.441421,21.9 C278.141421,21.7 277.741421,21.7 277.241421,21.7 C276.741421,21.7 276.341421,21.8 275.941421,22 C275.541421,22.2 275.241421,22.4 274.941421,22.7 C274.841421,22.8 274.741421,22.8 274.641421,22.7 L273.541421,21.5 C273.441421,21.4 273.441421,21.3 273.441421,21.2 C273.941421,20.7 274.441421,20.3 275.041421,20 C275.641421,19.7 276.341421,19.5 277.241421,19.5 C278.241421,19.5 278.941421,19.6 279.641421,19.9 C280.241421,20.2 280.741421,20.6 281.141421,21.1 C281.541421,21.6 281.841421,22.2 281.941421,22.8 C282.141421,23.4 282.141421,24.1 282.141421,24.9 L282.141421,25.2 L282.141421,25.5 C282.141421,25.9 282.341421,26.2 282.641421,26.4 C282.941421,26.6 283.341421,26.7 283.841421,26.7 L284.141421,26.7 L284.241421,26.7 L284.941421,26.7 C285.141421,26.7 285.241421,26.7 285.441421,26.6 C285.641421,26.5 285.741421,26.4 285.841421,26.3 C285.941421,26.2 286.041421,26 286.141421,25.7 C286.241421,25.5 286.241421,25.1 286.241421,24.8 L286.241421,24.5 L286.241421,24.2 C286.241421,23.4 286.341421,22.7 286.641421,22.1 C286.841421,21.5 287.141421,21.1 287.541421,20.7 C287.941421,20.3 288.441421,20.1 288.941421,19.9 C289.441421,19.7 290.041421,19.7 290.641421,19.7 C291.241421,19.7 291.841421,19.8 292.441421,20 C292.941421,20.2 293.441421,20.4 293.841421,20.8 C294.241421,21.2 294.541421,21.7 294.741421,22.3 C294.941421,22.9 295.041421,23.7 295.041421,24.5 C295.041421,25.3 294.941421,26 294.741421,26.6 C294.541421,27.2 294.241421,27.7 293.841421,28 C293.441421,28.4 293.041421,28.6 292.441421,28.8 C291.941421,29 291.341421,29.1 290.641421,29.1 C290.041421,29 289.341421,29 288.841421,28.8 Z M288.741421,24.4 C288.741421,25.3 288.941421,26 289.241421,26.4 C289.541421,26.8 290.041421,27 290.741421,27 C291.441421,27 291.941421,26.8 292.241421,26.4 C292.541421,26 292.741421,25.3 292.741421,24.5 C292.741421,22.8 292.041421,21.9 290.741421,21.9 C290.041421,21.9 289.541421,22.1 289.241421,22.6 C288.841421,22.9 288.741421,23.5 288.741421,24.4 Z M306.141421,20 L304.141421,20 C304.041421,20 303.941421,20.1 303.941421,20.2 L303.941421,25.6 C303.941421,26 303.841421,26.3 303.741421,26.5 C303.541421,26.7 303.341421,26.7 302.941421,26.7 L301.941421,26.7 L301.941421,26.7 C301.941421,26.7 301.941421,26.7 301.841421,26.7 L301.141421,26.7 C300.741421,26.7 300.541421,26.6 300.341421,26.5 C300.141421,26.3 300.141421,26 300.141421,25.6 L300.141421,14.6 C300.141421,14.5 300.041421,14.4 299.941421,14.4 L297.941421,14.4 C297.841421,14.4 297.741421,14.5 297.741421,14.6 L297.741421,26.2 C297.741421,27.1 297.941421,27.8 298.341421,28.2 C298.741421,28.6 299.341421,28.9 300.241421,28.9 L301.941421,28.9 L302.041421,28.9 L302.141421,28.9 L304.141421,28.9 C305.041421,28.9 305.641421,28.7 306.041421,28.2 C306.441421,27.8 306.641421,27.1 306.641421,26.2 L306.641421,20.2 C306.341421,20.1 306.241421,20 306.141421,20 Z M306.241421,15.6 L304.241421,15.6 C304.141421,15.6 304.041421,15.7 304.041421,15.8 L304.041421,17.7 C304.041421,17.8 304.141421,17.9 304.241421,17.9 L306.241421,17.9 C306.341421,17.9 306.441421,17.8 306.441421,17.7 L306.441421,15.8 C306.441421,15.7 306.341421,15.6 306.241421,15.6 Z M125.441421,33 C125.541421,33 125.641421,32.9 125.641421,32.8 L125.641421,30.9 C125.641421,30.8 125.541421,30.7 125.441421,30.7 L123.641421,30.7 C123.541421,30.7 123.441421,30.8 123.441421,30.9 L123.441421,32.8 C123.441421,32.9 123.541421,33 123.641421,33 L125.441421,33 Z M120.841421,33 L122.641421,33 C122.741421,33 122.841421,32.9 122.841421,32.8 L122.841421,30.9 C122.841421,30.8 122.741421,30.7 122.641421,30.7 L120.841421,30.7 C120.741421,30.7 120.641421,30.8 120.641421,30.9 L120.641421,32.8 C120.641421,32.9 120.741421,33 120.841421,33 Z M95.0414214,28.8 C94.5414214,28.9 94.0414214,28.9 93.6414214,28.9 L90.5414214,28.9 L90.5414214,28.9 L90.5414214,28.9 C89.9414214,28.9 89.5414214,28.8 89.0414214,28.7 C88.6414214,28.6 88.3414214,28.3 88.0414214,27.8 C87.8414214,28.2 87.5414214,28.5 87.1414214,28.7 C86.7414214,28.9 86.2414214,28.9 85.5414214,28.9 L83.5414214,28.9 C83.5414214,28.9 83.5414214,28.9 83.4414214,28.9 C83.4414214,28.9 83.4414214,28.9 83.3414214,28.9 C82.9414214,28.9 82.5414214,28.9 82.2414214,28.8 C81.9414214,28.7 81.6414214,28.5 81.3414214,28.2 L81.3414214,28.4 C81.3414214,29.2 81.2414214,29.9 80.9414214,30.5 C80.7414214,31.1 80.3414214,31.6 79.8414214,32 C79.3414214,32.4 78.8414214,32.7 78.1414214,32.9 C77.5414214,33.1 76.8414214,33.2 76.0414214,33.2 C75.2414214,33.2 74.6414214,33.1 73.9414214,32.9 C73.3414214,32.7 72.7414214,32.4 72.2414214,32 C71.7414214,31.6 71.4414214,31.1 71.1414214,30.5 C70.8414214,29.9 70.7414214,29.2 70.7414214,28.3 C70.7414214,27.5 70.8414214,26.8 71.1414214,26 C71.4414214,25.2 71.6414214,24.6 72.0414214,24 C72.1414214,23.9 72.2414214,23.9 72.3414214,24 L74.0414214,24.7 C74.1414214,24.7 74.1414214,24.8 74.1414214,24.8 L74.1414214,25 C73.9414214,25.4 73.7414214,25.9 73.4414214,26.4 C73.2414214,26.9 73.1414214,27.5 73.1414214,28.2 C73.1414214,28.8 73.2414214,29.2 73.4414214,29.6 C73.6414214,30 73.8414214,30.3 74.1414214,30.5 C74.4414214,30.7 74.7414214,30.9 75.0414214,31 C75.3414214,31.1 75.7414214,31.1 76.0414214,31.1 C76.8414214,31.1 77.5414214,30.9 78.0414214,30.4 C78.5414214,29.9 78.8414214,29.3 78.8414214,28.3 L78.8414214,22 C78.8414214,21.9 78.9414214,21.8 79.0414214,21.8 L81.0414214,21.8 C81.1414214,21.8 81.2414214,21.9 81.2414214,22 L81.2414214,25.4 C81.2414214,25.8 81.4414214,26.2 81.7414214,26.4 C82.0414214,26.6 82.5414214,26.7 83.0414214,26.7 L83.2414214,26.7 L83.3414214,26.7 L83.4414214,26.7 L84.8414214,26.7 C85.1414214,26.7 85.3414214,26.7 85.4414214,26.6 C85.5414214,26.5 85.6414214,26.4 85.7414214,26.2 C85.8414214,26 85.8414214,25.8 85.8414214,25.6 L85.8414214,24.6 L85.8414214,20.2 C85.8414214,20.1 85.8414214,20.1 85.9414214,20 L86.1414214,20 L87.9414214,20 C88.0414214,20 88.1414214,20.1 88.1414214,20.2 L88.1414214,25.4 C88.1414214,25.8 88.3414214,26.2 88.6414214,26.4 C88.9414214,26.6 89.4414214,26.7 89.9414214,26.7 L90.3414214,26.7 L90.3414214,26.7 L90.3414214,26.7 L92.8414214,26.7 L93.6414214,26.7 C93.9414214,26.7 94.2414214,26.6 94.6414214,26.5 C94.5414214,26 94.3414214,25.6 94.1414214,25.3 C93.9414214,25 93.7414214,24.7 93.4414214,24.4 C93.2414214,24.1 92.9414214,23.9 92.6414214,23.7 C92.3414214,23.5 92.0414214,23.3 91.8414214,23.1 C91.6414214,23 91.6414214,22.9 91.5414214,22.8 L91.5414214,22.5 L91.5414214,21.2 C91.5414214,21 91.6414214,20.9 91.9414214,20.7 C92.2414214,20.5 92.5414214,20.3 93.0414214,20.2 C93.4414214,20.1 93.9414214,19.9 94.5414214,19.8 C95.1414214,19.7 95.7414214,19.7 96.2414214,19.7 C97.8414214,19.7 99.0414214,20 99.8414214,20.6 C100.641421,21.2 100.941421,22 100.941421,23 C100.941421,23.4 100.841421,23.8 100.741421,24.2 C100.641421,24.6 100.441421,24.9 100.241421,25.2 C100.041421,25.5 99.7414214,25.8 99.5414214,26.1 C99.2414214,26.4 99.0414214,26.6 98.7414214,26.7 L99.1414214,26.7 L99.5414214,26.7 L102.241421,26.7 L102.341421,26.7 L104.341421,26.7 C104.041421,26.1 103.841421,25.3 103.841421,24.3 C103.841421,23.4 103.941421,22.7 104.241421,22.1 C104.441421,21.5 104.841421,21 105.241421,20.6 C105.641421,20.2 106.141421,20 106.641421,19.8 C107.141421,19.6 107.741421,19.5 108.341421,19.5 C108.941421,19.5 109.541421,19.6 110.141421,19.8 C110.641421,20 111.141421,20.2 111.541421,20.6 C111.941421,21 112.241421,21.5 112.441421,22.1 C112.641421,22.7 112.741421,23.5 112.741421,24.3 C112.741421,25.1 112.641421,25.8 112.441421,26.4 C112.241421,27 111.941421,27.4 111.541421,27.8 C111.141421,28.2 110.741421,28.4 110.141421,28.6 C109.641421,28.8 109.041421,28.8 108.341421,28.8 L102.441421,28.8 C102.441421,28.8 102.441421,28.8 102.341421,28.8 C102.341421,28.8 102.341421,28.8 102.241421,28.8 L99.0414214,28.8 C98.5414214,28.8 98.0414214,28.8 97.5414214,28.7 C97.0414214,28.6 96.6414214,28.4 96.2414214,28.2 C96.0414214,28.5 95.5414214,28.7 95.0414214,28.8 Z M106.441421,24.3 C106.441421,25.2 106.641421,25.9 106.941421,26.3 C107.241421,26.7 107.741421,26.9 108.441421,26.9 C109.141421,26.9 109.641421,26.7 109.941421,26.4 C110.241421,26 110.441421,25.4 110.441421,24.5 C110.441421,22.8 109.741421,21.9 108.441421,21.9 C107.741421,21.9 107.241421,22.1 106.941421,22.6 C106.641421,22.9 106.441421,23.5 106.441421,24.3 Z M95.8414214,23.9 C96.3414214,24.6 96.6414214,25.3 96.8414214,26.1 C97.0414214,26 97.3414214,25.8 97.5414214,25.6 C97.7414214,25.4 97.9414214,25.2 98.1414214,24.9 C98.3414214,24.7 98.4414214,24.4 98.5414214,24.1 C98.6414214,23.8 98.7414214,23.6 98.7414214,23.3 C98.7414214,22.7 98.5414214,22.3 98.1414214,22.1 C97.7414214,21.9 97.1414214,21.8 96.5414214,21.8 C95.9414214,21.8 95.4414214,21.9 95.0414214,22 C94.6414214,22.1 94.3414214,22.2 94.1414214,22.3 C94.8414214,22.7 95.3414214,23.2 95.8414214,23.9 Z M211.841421,28.9 C211.241421,28.9 210.841421,28.8 210.341421,28.7 C209.941421,28.6 209.641421,28.3 209.341421,27.8 C209.141421,28.2 208.841421,28.5 208.441421,28.7 C208.041421,28.9 207.541421,28.9 206.941421,28.9 L205.141421,28.9 L205.141421,28.9 L204.441421,28.9 C204.141421,28.9 203.941421,28.8 203.641421,28.8 C203.341421,28.7 203.141421,28.6 202.841421,28.5 C202.641421,28.3 202.441421,28.1 202.241421,27.9 C201.841421,28.4 201.341421,28.7 200.841421,28.9 C200.341421,29.1 199.641421,29.2 198.841421,29.2 C198.141421,29.2 197.441421,29.1 196.941421,28.9 C196.341421,28.7 195.941421,28.4 195.541421,27.9 C195.441421,28.1 195.241421,28.3 195.041421,28.5 C194.841421,28.6 194.641421,28.8 194.441421,28.8 C194.241421,28.9 194.041421,28.9 193.741421,29 L193.141421,29 L192.441421,29 L189.441421,29 C188.941421,29 188.441421,29 187.941421,28.9 C187.441421,28.9 187.041421,28.7 186.641421,28.5 C186.141421,28.8 185.641421,28.9 185.141421,28.9 C184.641421,28.9 184.141421,29 183.741421,29 L180.941421,29 L180.941421,29 L180.941421,29 C180.341421,29 179.841421,28.9 179.341421,28.8 C178.941421,28.6 178.541421,28.3 178.341421,27.8 C178.141421,28.3 177.741421,28.6 177.341421,28.8 C176.941421,29 176.341421,29.1 175.641421,29.1 L169.341421,29.1 L169.341421,29.1 L169.341421,29.1 C168.841421,29.1 168.441421,29.1 168.141421,29 C167.841421,28.9 167.541421,28.7 167.241421,28.4 L167.241421,28.8 C167.241421,29.6 167.141421,30.2 167.041421,30.8 C166.941421,31.4 166.741421,31.9 166.441421,32.2 C166.141421,32.6 165.741421,32.9 165.241421,33.1 C164.741421,33.3 164.141421,33.4 163.441421,33.4 L162.641421,33.4 C162.541421,33.4 162.441421,33.3 162.441421,33.2 L162.441421,31.5 C162.441421,31.4 162.541421,31.3 162.641421,31.3 L163.141421,31.3 C163.541421,31.3 163.841421,31.2 164.141421,31.1 C164.341421,31 164.541421,30.7 164.641421,30.5 C164.741421,30.2 164.841421,29.9 164.841421,29.5 L164.841421,28.1 L164.841421,20.5 C164.841421,20.4 164.941421,20.3 165.041421,20.3 L167.041421,20.3 C167.141421,20.3 167.241421,20.4 167.241421,20.5 L167.241421,25.7 C167.241421,26.1 167.441421,26.5 167.741421,26.7 C168.041421,26.9 168.541421,27 169.041421,27 L169.441421,27 L169.441421,27 L169.441421,27 L174.741421,27 C175.141421,27 175.441421,27 175.641421,26.9 C175.841421,26.8 176.041421,26.8 176.141421,26.6 C176.241421,26.5 176.341421,26.3 176.341421,26.1 C176.341421,25.9 176.441421,25.6 176.441421,25.3 L176.441421,24.2 C176.441421,23 175.741421,22.3 174.241421,22.3 L170.841421,22.3 C170.741421,22.3 170.641421,22.2 170.641421,22.1 L170.641421,20.6 C170.641421,20.5 170.641421,20.4 170.741421,20.3 L170.941421,20.1 L175.541421,14.7 C175.641421,14.6 175.741421,14.6 175.841421,14.6 L177.241421,15.8 C177.341421,15.9 177.341421,16 177.341421,16.1 L173.841421,20.2 C174.541421,20.2 175.241421,20.3 175.841421,20.3 C176.441421,20.4 176.941421,20.6 177.441421,20.8 C177.841421,21.1 178.241421,21.4 178.441421,22 C178.741421,22.5 178.841421,23.2 178.841421,24 L178.841421,25.8 C178.841421,26.2 179.041421,26.5 179.341421,26.7 C179.641421,26.9 180.041421,27 180.641421,27 L181.041421,27 L181.041421,27 L181.041421,27 L184.041421,27 C183.541421,26.6 183.141421,26.2 182.741421,25.6 C182.441421,25 182.241421,24.4 182.241421,23.7 C182.241421,22.6 182.641421,21.6 183.441421,20.9 C184.241421,20.2 185.341421,19.9 186.741421,19.9 C188.241421,19.9 189.341421,20.2 190.041421,20.9 C190.841421,21.6 191.241421,22.5 191.241421,23.7 C191.241421,24.4 191.041421,25 190.741421,25.6 C190.441421,26.2 189.941421,26.6 189.441421,27 L192.441421,27 L193.241421,27 C193.541421,27 193.841421,26.9 194.141421,26.6 C194.441421,26.3 194.541421,25.8 194.541421,25.1 L194.541421,24.8 L194.541421,24.5 C194.541421,23.7 194.641421,23 194.941421,22.4 C195.141421,21.8 195.441421,21.4 195.841421,21 C196.241421,20.6 196.741421,20.4 197.241421,20.2 C197.741421,20 198.341421,20 198.941421,20 C199.541421,20 200.141421,20.1 200.741421,20.3 C201.341421,20.5 201.741421,20.7 202.141421,21.1 C202.541421,21.5 202.841421,22 203.041421,22.6 C203.241421,23.2 203.341421,23.9 203.341421,24.8 L203.341421,25.2 L203.341421,25.6 C203.341421,26.2 203.541421,26.6 203.741421,26.9 C204.041421,27.1 204.341421,27.3 204.641421,27.3 L205.241421,27.3 L205.241421,27.3 L206.241421,27.3 C206.641421,27.3 206.841421,27.2 207.041421,27.1 C207.241421,26.9 207.241421,26.6 207.241421,26.2 L207.241421,15.2 C207.241421,15.1 207.341421,15 207.441421,15 L209.441421,15 C209.541421,15 209.641421,15.1 209.641421,15.2 L209.641421,26 C209.641421,26.4 209.841421,26.8 210.141421,27 C210.441421,27.2 210.941421,27.3 211.441421,27.3 L211.841421,27.3 L211.841421,27.3 L211.841421,27.3 L212.841421,27.3 C213.241421,27.3 213.441421,27.2 213.641421,27.1 C213.841421,26.9 213.841421,26.6 213.841421,26.2 L213.841421,15.2 C213.841421,15.1 213.941421,15 214.041421,15 L216.041421,15 C216.141421,15 216.241421,15.1 216.241421,15.2 L216.241421,26.8 C216.241421,27.7 216.041421,28.4 215.641421,28.8 C215.241421,29.2 214.641421,29.5 213.741421,29.5 L211.841421,29.5 L211.841421,28.9 L211.841421,28.9 Z M188.741421,23.6 C188.741421,22.9 188.541421,22.4 188.141421,22.1 C187.741421,21.8 187.241421,21.6 186.741421,21.6 C186.141421,21.6 185.741421,21.8 185.341421,22.1 C184.941421,22.4 184.741421,23 184.741421,23.6 C184.741421,24.3 184.941421,24.9 185.341421,25.4 C185.741421,25.8 186.241421,26.2 186.841421,26.4 C187.441421,26.2 187.841421,25.8 188.241421,25.4 C188.541421,24.9 188.741421,24.4 188.741421,23.6 Z M200.941421,24.4 C200.941421,22.7 200.241421,21.8 198.941421,21.8 C198.241421,21.8 197.741421,22 197.441421,22.5 C197.141421,22.9 196.941421,23.6 196.941421,24.4 C196.941421,25.3 197.141421,26 197.441421,26.4 C197.741421,26.8 198.241421,27 198.941421,27 C199.641421,27 200.141421,26.8 200.441421,26.4 C200.841421,25.9 200.941421,25.3 200.941421,24.4 Z M131.141421,26.2 L131.141421,14.6 C131.141421,14.5 131.041421,14.4 130.941421,14.4 L128.941421,14.4 C128.841421,14.4 128.741421,14.5 128.741421,14.6 L128.741421,25.6 C128.741421,26 128.641421,26.3 128.541421,26.5 C128.341421,26.7 128.141421,26.7 127.741421,26.7 L126.741421,26.7 L126.741421,26.7 L126.741421,26.7 L126.341421,26.7 C125.841421,26.7 125.341421,26.6 125.041421,26.4 C124.741421,26.2 124.541421,25.8 124.541421,25.4 L124.541421,20.2 C124.541421,20.1 124.441421,20 124.341421,20 L122.541421,20 L122.341421,20 C122.241421,20 122.241421,20.1 122.241421,20.2 L122.241421,24.7 L122.241421,25.7 C122.241421,26 122.141421,26.2 122.141421,26.3 C122.041421,26.5 121.941421,26.6 121.841421,26.7 C121.741421,26.8 121.541421,26.8 121.241421,26.8 L119.841421,26.8 C119.841421,26.8 119.841421,26.8 119.741421,26.8 C119.741421,26.8 119.741421,26.8 119.641421,26.8 L118.941421,26.8 C118.541421,26.8 118.341421,26.7 118.141421,26.6 C117.941421,26.4 117.941421,26.1 117.941421,25.7 L117.941421,14.7 C117.941421,14.6 117.841421,14.5 117.741421,14.5 L115.741421,14.5 C115.641421,14.5 115.541421,14.6 115.541421,14.7 L115.541421,26.3 C115.541421,27.2 115.741421,27.9 116.141421,28.3 C116.541421,28.7 117.141421,29 118.041421,29 L119.741421,29 L119.841421,29 L119.941421,29 L121.941421,29 C122.641421,29 123.141421,28.9 123.541421,28.8 C123.941421,28.6 124.241421,28.4 124.441421,27.9 C124.641421,28.4 125.041421,28.7 125.441421,28.8 C125.841421,28.9 126.341421,29 126.941421,29 L126.941421,29 L126.941421,29 L128.941421,29 C129.841421,29 130.441421,28.8 130.841421,28.3 C130.941421,27.8 131.141421,27.1 131.141421,26.2 Z M161.541421,30.7 L159.741421,30.7 C159.641421,30.7 159.541421,30.8 159.541421,30.9 L159.541421,32.8 C159.541421,32.9 159.641421,33 159.741421,33 L161.541421,33 C161.641421,33 161.741421,32.9 161.741421,32.8 L161.741421,30.9 C161.741421,30.8 161.641421,30.7 161.541421,30.7 Z M156.941421,30.7 C156.841421,30.7 156.741421,30.8 156.741421,30.9 L156.741421,32.8 C156.741421,32.9 156.841421,33 156.941421,33 L158.741421,33 C158.841421,33 158.941421,32.9 158.941421,32.8 L158.941421,30.9 C158.941421,30.8 158.841421,30.7 158.741421,30.7 L156.941421,30.7 Z M156.141421,28.9 L156.141421,28.9 L156.141421,28.9 L158.441421,28.9 C159.341421,28.9 159.941421,28.7 160.341421,28.2 C160.741421,27.8 160.941421,27.1 160.941421,26.2 L160.941421,20.2 C160.941421,20.1 160.841421,20 160.741421,20 L158.741421,20 C158.641421,20 158.541421,20.1 158.541421,20.2 L158.541421,25.6 C158.541421,26 158.441421,26.3 158.341421,26.5 C158.141421,26.7 157.941421,26.7 157.541421,26.7 L156.141421,26.7 L156.141421,26.7 L156.141421,26.7 L155.941421,26.7 C155.441421,26.7 154.941421,26.6 154.641421,26.4 C154.341421,26.2 154.141421,25.8 154.141421,25.4 L154.141421,22 C154.141421,21.9 154.041421,21.8 153.941421,21.8 L151.941421,21.8 C151.841421,21.8 151.741421,21.9 151.741421,22 L151.741421,28.3 C151.741421,29.3 151.441421,30 150.941421,30.4 C150.441421,30.8 149.741421,31.1 148.941421,31.1 C148.641421,31.1 148.241421,31.1 147.941421,31 C147.641421,30.9 147.241421,30.7 147.041421,30.5 C146.741421,30.3 146.541421,30 146.341421,29.6 C146.141421,29.2 146.041421,28.8 146.041421,28.2 C146.041421,27.6 146.141421,27 146.341421,26.4 C146.541421,25.9 146.741421,25.4 147.041421,25 L147.041421,24.8 C147.041421,24.8 147.041421,24.7 146.941421,24.7 L145.241421,24 C145.141421,23.9 145.041421,23.9 144.941421,24 C144.541421,24.6 144.241421,25.2 144.041421,26 C143.841421,26.8 143.641421,27.5 143.641421,28.3 C143.641421,29.1 143.741421,29.8 144.041421,30.5 C144.341421,31.2 144.641421,31.6 145.141421,32 C145.641421,32.4 146.141421,32.7 146.841421,32.9 C147.441421,33.1 148.141421,33.2 148.941421,33.2 C149.741421,33.2 150.441421,33.1 151.041421,32.9 C151.641421,32.7 152.241421,32.4 152.741421,32 C153.241421,31.6 153.541421,31.1 153.841421,30.5 C154.041421,29.9 154.241421,29.2 154.241421,28.4 L154.241421,28.2 C154.441421,28.5 154.741421,28.7 155.141421,28.8 C155.341421,28.9 155.641421,28.9 156.141421,28.9 Z" id="Shape" fill="#00B4C8" fill-rule="nonzero"></path>
    </g>
</svg>