<?xml version="1.0" encoding="utf-8"?>
<!-- Generator: Adobe Illustrator 21.1.0, SVG Export Plug-In . SVG Version: 6.00 Build 0)  -->
<svg version="1.1" id="Layer_1" xmlns="http://www.w3.org/2000/svg" xmlns:xlink="http://www.w3.org/1999/xlink" x="0px" y="0px"
	 viewBox="0 0 433.7 100.8" style="enable-background:new 0 0 433.7 100.8;" xml:space="preserve">
<style type="text/css">
	.st0{fill:#00B4C8;}
</style>
<path class="st0" d="M50.4,24.3l-5-5l5-5l5,5L50.4,24.3z M36,86.4h28.8v-7.2H36V86.4z M74.2,21.6l-5,5l5,5l5-5L74.2,21.6z
	 M70.2,48.6c0,5.3-2.1,10-5.4,13.6V72H36v-9.8c-3.3-3.5-5.4-8.3-5.4-13.6c0-10.9,8.9-19.8,19.8-19.8C61.3,28.8,70.2,37.7,70.2,48.6z
	 M63,48.6C63,41.7,57.3,36,50.4,36c-6.9,0-12.6,5.6-12.6,12.6c0,4.3,2.1,8,5.4,10.3v5.9h14.4v-5.9C60.8,56.6,63,52.8,63,48.6z
	 M26.6,21.6l-5,5l5,5l5-5L26.6,21.6z M76.5,48.2l5,5l5-5l-5-5L76.5,48.2z M14.4,48.2l5,5l5-5l-5-5L14.4,48.2z M250,61.9v9.4
	c0,1.5-0.4,2.6-1.2,3.5c-0.8,0.8-2,1.2-3.6,1.2c-0.7,0-1.4-0.1-2.1-0.4c-0.7-0.3-1.2-0.7-1.6-1.1c-0.1-0.1-0.1-0.2,0-0.3l1.3-1.3
	c0.1-0.1,0.2-0.1,0.3,0c0.7,0.6,1.4,1,2.2,1c0.8,0,1.4-0.2,1.7-0.6c0.4-0.4,0.6-1,0.6-1.8v-1h0c-0.2,0.4-0.6,0.7-1,0.9
	c-0.4,0.2-1,0.3-1.7,0.3c-0.9,0-1.6-0.2-2.2-0.6c-0.6-0.4-1-1-1.3-1.9c-0.1-0.4-0.2-0.8-0.3-1.2c0-0.4-0.1-0.9-0.1-1.4
	c0-0.6,0-1,0.1-1.4c0-0.4,0.1-0.8,0.3-1.2c0.3-0.8,0.7-1.5,1.3-1.9c0.6-0.4,1.3-0.6,2.2-0.6c0.7,0,1.2,0.1,1.7,0.3
	c0.4,0.2,0.8,0.5,1,0.9h0v-0.8c0-0.1,0.1-0.2,0.2-0.2h2C250,61.7,250,61.8,250,61.9z M247.6,66.6c0-0.7-0.1-1.2-0.2-1.7
	c-0.1-0.4-0.4-0.7-0.7-1c-0.3-0.2-0.7-0.3-1.2-0.3c-0.9,0-1.5,0.4-1.8,1.3c-0.2,0.5-0.2,1-0.2,1.7c0,0.4,0,0.7,0.1,0.9
	c0,0.3,0.1,0.5,0.2,0.8c0.3,0.9,0.9,1.3,1.8,1.3c0.5,0,0.9-0.1,1.2-0.3c0.3-0.2,0.5-0.6,0.7-1c0.1-0.2,0.1-0.5,0.2-0.8
	C247.6,67.3,247.6,66.9,247.6,66.6z M382.3,61.9v9.4c0,1.5-0.4,2.6-1.2,3.5c-0.8,0.8-2,1.2-3.6,1.2c-0.7,0-1.4-0.1-2.1-0.4
	c-0.7-0.3-1.2-0.7-1.6-1.1c-0.1-0.1-0.1-0.2,0-0.3l1.3-1.3c0.1-0.1,0.2-0.1,0.3,0c0.7,0.6,1.4,1,2.2,1c0.8,0,1.4-0.2,1.8-0.6
	c0.4-0.4,0.6-1,0.6-1.8v-1h0c-0.2,0.4-0.6,0.7-1,0.9c-0.4,0.2-1,0.3-1.7,0.3c-0.9,0-1.6-0.2-2.2-0.6c-0.6-0.4-1-1-1.3-1.9
	c-0.1-0.4-0.2-0.8-0.3-1.2c-0.1-0.4-0.1-0.9-0.1-1.4c0-0.6,0-1,0.1-1.4c0-0.4,0.1-0.8,0.3-1.2c0.3-0.8,0.7-1.5,1.3-1.9
	c0.6-0.4,1.3-0.6,2.2-0.6c0.7,0,1.2,0.1,1.7,0.3c0.4,0.2,0.8,0.5,1,0.9h0v-0.8c0-0.1,0.1-0.2,0.2-0.2h2
	C382.3,61.7,382.3,61.8,382.3,61.9z M380,66.6c0-0.7-0.1-1.2-0.2-1.7c-0.1-0.4-0.4-0.7-0.7-1c-0.3-0.2-0.7-0.3-1.2-0.3
	c-0.9,0-1.5,0.4-1.8,1.3c-0.2,0.5-0.2,1-0.2,1.7c0,0.4,0,0.7,0.1,0.9c0,0.3,0.1,0.5,0.2,0.8c0.3,0.9,0.9,1.3,1.8,1.3
	c0.5,0,0.9-0.1,1.2-0.3c0.3-0.2,0.5-0.6,0.7-1c0.1-0.2,0.1-0.5,0.2-0.8C379.9,67.3,380,66.9,380,66.6z M108.4,57.7l4.9,14.1
	c0,0.1,0,0.2-0.1,0.2H111c-0.1,0-0.2-0.1-0.3-0.2l-1-2.8h-5.5l-1,2.8c0,0.1-0.1,0.2-0.3,0.2H101c-0.1,0-0.2-0.1-0.1-0.2l5-14.1
	c0-0.1,0.1-0.2,0.3-0.2h2C108.2,57.5,108.3,57.6,108.4,57.7z M109,66.7l-1.9-5.6H107l-1.9,5.6H109z M117,57.5h-2
	c-0.1,0-0.2,0.1-0.2,0.2v7v0v7c0,0.1,0.1,0.2,0.2,0.2h2c0.1,0,0.2-0.1,0.2-0.2v-7v0v-7C117.2,57.6,117.1,57.5,117,57.5z M134.3,64
	h-4.8c-0.1,0-0.2,0.1-0.2,0.2v1.7c0,0.1,0.1,0.2,0.2,0.2h2.4c0.1,0,0.1,0,0.1,0.1c0,0.4,0,0.8-0.1,1.1c0,0.3-0.1,0.6-0.2,0.8
	c-0.2,0.6-0.5,1-1,1.3c-0.5,0.3-1.1,0.5-1.7,0.5c-0.7,0-1.3-0.2-1.8-0.5c-0.4-0.3-0.8-0.8-1-1.4c0-0.1-0.1-0.3-0.1-0.4
	c0-0.2-0.1-0.4-0.1-0.6c0-0.3,0-0.6,0-0.9c0-0.4,0-0.8,0-1.3c0-0.5,0-0.9,0-1.3c0-0.4,0-0.7,0-0.9c0-0.3,0-0.5,0.1-0.6
	c0-0.2,0.1-0.3,0.1-0.4c0.2-0.6,0.5-1.1,1-1.4c0.4-0.3,1-0.5,1.8-0.5c0.7,0,1.3,0.2,1.7,0.5s0.8,0.8,1.2,1.3
	c0.1,0.1,0.1,0.1,0.3,0.1l1.8-0.8c0.1-0.1,0.1-0.2,0.1-0.3c-0.2-0.4-0.4-0.8-0.7-1.2c-0.3-0.4-0.6-0.7-1.1-1
	c-0.4-0.3-0.9-0.5-1.5-0.7c-0.6-0.2-1.2-0.3-1.9-0.3c-1.3,0-2.4,0.3-3.3,0.9c-0.9,0.6-1.5,1.5-1.9,2.6c-0.1,0.2-0.1,0.5-0.2,0.7
	c-0.1,0.2-0.1,0.5-0.1,0.8c0,0.3,0,0.7-0.1,1.1c0,0.4,0,0.9,0,1.5c0,0.6,0,1.1,0,1.5c0,0.4,0,0.8,0.1,1.1c0,0.3,0.1,0.6,0.1,0.8
	c0,0.2,0.1,0.5,0.2,0.7c0.4,1.2,1,2,1.9,2.6c0.9,0.6,2,0.9,3.3,0.9c1.3,0,2.3-0.3,3.2-0.9c0.9-0.6,1.5-1.5,1.9-2.6
	c0.1-0.4,0.2-0.8,0.3-1.4c0.1-0.6,0.1-1.2,0.1-1.8v-1.3C134.5,64.1,134.5,64,134.3,64z M144.7,62.6c-0.3-0.3-0.7-0.6-1.1-0.8
	c-0.4-0.2-0.9-0.3-1.5-0.3c-0.7,0-1.2,0.1-1.7,0.4c-0.4,0.2-0.8,0.5-1,0.8h0v-5c0-0.1-0.1-0.2-0.2-0.2h-2c-0.1,0-0.2,0.1-0.2,0.2
	v14.1c0,0.1,0.1,0.2,0.2,0.2h2c0.1,0,0.2-0.1,0.2-0.2v-5.9c0-0.7,0.2-1.2,0.5-1.6c0.3-0.4,0.8-0.6,1.5-0.6c0.6,0,1.1,0.2,1.5,0.6
	c0.3,0.4,0.5,1,0.5,1.6v5.9c0,0.1,0.1,0.2,0.2,0.2h2c0.1,0,0.2-0.1,0.2-0.2v-6.5c0-0.6-0.1-1.1-0.2-1.5
	C145.2,63.3,145,62.9,144.7,62.6z M156.6,61.7h-2c-0.1,0-0.2,0.1-0.2,0.2v6c0,0.7-0.2,1.2-0.5,1.6c-0.3,0.4-0.8,0.6-1.4,0.6
	c-0.7,0-1.1-0.2-1.5-0.6c-0.3-0.4-0.5-1-0.5-1.6v-5.9c0-0.1-0.1-0.2-0.2-0.2h-2c-0.1,0-0.2,0.1-0.2,0.2v6.5c0,0.6,0.1,1.1,0.2,1.5
	c0.2,0.5,0.4,0.9,0.7,1.2c0.3,0.3,0.7,0.6,1.1,0.8c0.4,0.2,0.9,0.3,1.5,0.3c0.7,0,1.2-0.1,1.6-0.3c0.4-0.2,0.8-0.5,1.1-0.9h0v0.7
	c0,0.1,0.1,0.2,0.2,0.2h2c0.1,0,0.2-0.1,0.2-0.2v-9.9C156.9,61.8,156.8,61.7,156.6,61.7z M165.9,61.7c-0.4-0.1-0.8-0.2-1.2-0.2
	c-0.7,0-1.2,0.1-1.6,0.4c-0.4,0.2-0.8,0.6-1,1h0v-0.9c0-0.1-0.1-0.2-0.2-0.2h-2c-0.1,0-0.2,0.1-0.2,0.2v9.9c0,0.1,0.1,0.2,0.2,0.2h2
	c0.1,0,0.2-0.1,0.2-0.2v-5.6c0-0.8,0.2-1.5,0.5-1.9c0.3-0.5,0.8-0.7,1.5-0.7c0.3,0,0.5,0,0.8,0.1c0.2,0.1,0.5,0.2,0.7,0.4
	c0.1,0.1,0.2,0.1,0.3,0l1.1-1.4c0.1-0.1,0.1-0.2,0-0.3C166.6,62.1,166.3,61.9,165.9,61.7z M175.2,62.3c0.6,0.6,1,1.5,1,2.7v6.7
	c0,0.1-0.1,0.2-0.2,0.2h-1.8c-0.1,0-0.2-0.1-0.2-0.2V71h0c-0.2,0.4-0.6,0.6-1.1,0.9c-0.5,0.2-1.1,0.3-1.8,0.3
	c-0.5,0-0.9-0.1-1.3-0.2c-0.4-0.1-0.8-0.3-1.1-0.6c-0.3-0.3-0.6-0.6-0.7-1c-0.2-0.4-0.3-0.9-0.3-1.4c0-1.1,0.4-1.9,1.1-2.5
	c0.7-0.5,1.7-0.8,3-0.8h2.1c0.1,0,0.1,0,0.1-0.1v-0.5c0-0.6-0.2-1-0.5-1.3c-0.3-0.3-0.9-0.4-1.8-0.4c-0.6,0-1.1,0.1-1.4,0.2
	c-0.4,0.1-0.7,0.3-0.9,0.5c-0.1,0.1-0.2,0.1-0.3,0l-0.8-1.4c-0.1-0.1-0.1-0.2,0-0.3c0.4-0.3,0.9-0.5,1.5-0.7
	c0.6-0.2,1.3-0.3,2.2-0.3C173.4,61.5,174.5,61.8,175.2,62.3z M173.9,67.8c0-0.1,0-0.1-0.1-0.1H172c-0.8,0-1.3,0.1-1.7,0.3
	c-0.4,0.2-0.5,0.6-0.5,1.1c0,0.9,0.6,1.3,1.8,1.3c0.7,0,1.3-0.1,1.7-0.4c0.4-0.3,0.6-0.7,0.6-1.3V67.8z M181,61.7h-2
	c-0.1,0-0.2,0.1-0.2,0.2v9.9c0,0.1,0.1,0.2,0.2,0.2h2c0.1,0,0.2-0.1,0.2-0.2v-9.9C181.2,61.8,181.2,61.7,181,61.7z M181,57.5h-2
	c-0.1,0-0.2,0.1-0.2,0.2v1.9c0,0.1,0.1,0.2,0.2,0.2h2c0.1,0,0.2-0.1,0.2-0.2v-1.9C181.2,57.6,181.2,57.5,181,57.5z M190.3,61.7
	c-0.4-0.1-0.8-0.2-1.2-0.2c-0.7,0-1.2,0.1-1.6,0.4c-0.4,0.2-0.8,0.6-1,1h0v-0.9c0-0.1-0.1-0.2-0.2-0.2h-2c-0.1,0-0.2,0.1-0.2,0.2
	v9.9c0,0.1,0.1,0.2,0.2,0.2h2c0.1,0,0.2-0.1,0.2-0.2v-5.6c0-0.8,0.2-1.5,0.5-1.9c0.3-0.5,0.8-0.7,1.5-0.7c0.3,0,0.5,0,0.8,0.1
	c0.2,0.1,0.5,0.2,0.7,0.4c0.1,0.1,0.2,0.1,0.3,0l1.1-1.4c0.1-0.1,0.1-0.2,0-0.3C191,62.1,190.7,61.9,190.3,61.7z M206.5,57.5h-2.1
	c-0.1,0-0.2,0.1-0.3,0.2l-2.9,5.6h-0.1l-2.8-5.6c-0.1-0.1-0.2-0.2-0.3-0.2h-2.2c-0.2,0-0.2,0.1-0.2,0.2l4.2,8.4v5.7
	c0,0.1,0.1,0.2,0.2,0.2h2.1c0.1,0,0.2-0.1,0.2-0.2v-5.7l4.2-8.4C206.7,57.6,206.6,57.5,206.5,57.5z M216.7,65.4
	c0.1,0.4,0.1,0.9,0.1,1.4c0,0.6,0,1-0.1,1.4c-0.1,0.4-0.1,0.8-0.3,1.1c-0.3,0.9-0.8,1.6-1.5,2.1c-0.7,0.5-1.6,0.7-2.7,0.7
	c-1.1,0-2-0.2-2.7-0.7c-0.7-0.5-1.3-1.2-1.5-2.1c-0.1-0.4-0.2-0.7-0.3-1.1c-0.1-0.4-0.1-0.8-0.1-1.4c0-0.6,0-1,0.1-1.4
	c0.1-0.4,0.1-0.8,0.3-1.1c0.3-0.9,0.8-1.6,1.5-2.1c0.7-0.5,1.6-0.7,2.7-0.7c1,0,1.9,0.2,2.7,0.7c0.7,0.5,1.3,1.2,1.5,2.1
	C216.5,64.7,216.6,65.1,216.7,65.4z M214.3,66.9c0-0.4,0-0.8,0-1.1c0-0.3-0.1-0.5-0.2-0.8c-0.2-0.4-0.4-0.8-0.7-1
	c-0.3-0.2-0.7-0.4-1.2-0.4c-0.5,0-0.9,0.1-1.2,0.4c-0.3,0.2-0.6,0.6-0.7,1c-0.1,0.3-0.1,0.6-0.2,0.8c0,0.3,0,0.6,0,1.1
	c0,0.4,0,0.8,0,1.1c0,0.3,0.1,0.6,0.2,0.8c0.2,0.4,0.4,0.8,0.7,1c0.3,0.2,0.7,0.4,1.2,0.4c0.5,0,0.9-0.1,1.2-0.4
	c0.3-0.2,0.6-0.6,0.7-1c0.1-0.3,0.1-0.5,0.2-0.8C214.3,67.7,214.3,67.3,214.3,66.9z M227.3,61.7h-2c-0.1,0-0.2,0.1-0.2,0.2v6
	c0,0.7-0.2,1.2-0.5,1.6c-0.3,0.4-0.8,0.6-1.4,0.6c-0.7,0-1.1-0.2-1.5-0.6c-0.3-0.4-0.5-1-0.5-1.6v-5.9c0-0.1-0.1-0.2-0.2-0.2h-2
	c-0.1,0-0.2,0.1-0.2,0.2v6.5c0,0.6,0.1,1.1,0.2,1.5c0.2,0.5,0.4,0.9,0.7,1.2c0.3,0.3,0.7,0.6,1.1,0.8c0.4,0.2,0.9,0.3,1.5,0.3
	c0.7,0,1.2-0.1,1.6-0.3c0.4-0.2,0.8-0.5,1.1-0.9h0v0.7c0,0.1,0.1,0.2,0.2,0.2h2c0.1,0,0.2-0.1,0.2-0.2v-9.9
	C227.5,61.8,227.4,61.7,227.3,61.7z M238,62.6c-0.3-0.3-0.7-0.6-1.1-0.8c-0.4-0.2-0.9-0.3-1.5-0.3c-0.7,0-1.2,0.1-1.7,0.4
	c-0.4,0.2-0.8,0.5-1,0.8h0v-0.7c0-0.1-0.1-0.2-0.2-0.2h-2c-0.1,0-0.2,0.1-0.2,0.2v9.9c0,0.1,0.1,0.2,0.2,0.2h2
	c0.1,0,0.2-0.1,0.2-0.2v-5.9c0-0.7,0.2-1.2,0.5-1.6c0.3-0.4,0.8-0.6,1.5-0.6c0.6,0,1.1,0.2,1.5,0.6c0.3,0.4,0.5,1,0.5,1.6v5.9
	c0,0.1,0.1,0.2,0.2,0.2h2c0.1,0,0.2-0.1,0.2-0.2v-6.5c0-0.6-0.1-1.1-0.2-1.5C238.6,63.3,238.4,62.9,238,62.6z M266.8,57.5h-10.4
	c-0.1,0-0.2,0.1-0.2,0.2v1.9c0,0.1,0.1,0.2,0.2,0.2h3.8c0.1,0,0.1,0,0.1,0.1v11.9c0,0.1,0.1,0.2,0.2,0.2h2.1c0.1,0,0.2-0.1,0.2-0.2
	V59.9c0-0.1,0-0.1,0.1-0.1h3.8c0.1,0,0.2-0.1,0.2-0.2v-1.9C267,57.5,267,57.5,266.8,57.5z M276.5,62.6c-0.3-0.3-0.7-0.6-1.1-0.8
	c-0.4-0.2-0.9-0.3-1.5-0.3c-0.7,0-1.2,0.1-1.7,0.4c-0.4,0.2-0.8,0.5-1,0.8h0v-5c0-0.1-0.1-0.2-0.2-0.2h-2c-0.1,0-0.2,0.1-0.2,0.2
	v14.1c0,0.1,0.1,0.2,0.2,0.2h2c0.1,0,0.2-0.1,0.2-0.2v-5.9c0-0.7,0.2-1.2,0.5-1.6c0.3-0.4,0.8-0.6,1.5-0.6c0.6,0,1.1,0.2,1.5,0.6
	c0.3,0.4,0.5,1,0.5,1.6v5.9c0,0.1,0.1,0.2,0.2,0.2h2c0.1,0,0.2-0.1,0.2-0.2v-6.5c0-0.6-0.1-1.1-0.2-1.5
	C277,63.3,276.8,62.9,276.5,62.6z M282.3,57.5h-2c-0.1,0-0.2,0.1-0.2,0.2v1.9c0,0.1,0.1,0.2,0.2,0.2h2c0.1,0,0.2-0.1,0.2-0.2v-1.9
	C282.6,57.6,282.5,57.5,282.3,57.5z M282.3,61.7h-2c-0.1,0-0.2,0.1-0.2,0.2v9.9c0,0.1,0.1,0.2,0.2,0.2h2c0.1,0,0.2-0.1,0.2-0.2v-9.9
	C282.6,61.8,282.5,61.7,282.3,61.7z M293.1,62.6c-0.3-0.3-0.7-0.6-1.1-0.8c-0.4-0.2-0.9-0.3-1.5-0.3c-0.7,0-1.2,0.1-1.7,0.4
	c-0.4,0.2-0.8,0.5-1,0.8h0v-0.7c0-0.1-0.1-0.2-0.2-0.2h-2c-0.1,0-0.2,0.1-0.2,0.2v9.9c0,0.1,0.1,0.2,0.2,0.2h2
	c0.1,0,0.2-0.1,0.2-0.2v-5.9c0-0.7,0.2-1.2,0.5-1.6c0.3-0.4,0.8-0.6,1.5-0.6c0.6,0,1.1,0.2,1.5,0.6c0.3,0.4,0.5,1,0.5,1.6v5.9
	c0,0.1,0.1,0.2,0.2,0.2h2c0.1,0,0.2-0.1,0.2-0.2v-6.5c0-0.6-0.1-1.1-0.2-1.5C293.6,63.3,293.4,62.9,293.1,62.6z M302.1,65.7l3.3-3.8
	c0,0,0.1-0.1,0-0.1c0,0-0.1-0.1-0.1-0.1h-2.2c-0.1,0-0.3,0.1-0.4,0.2l-3.5,4.1v-8.4c0-0.1-0.1-0.2-0.2-0.2h-2
	c-0.1,0-0.2,0.1-0.2,0.2v14.1c0,0.1,0.1,0.2,0.2,0.2h2c0.1,0,0.2-0.1,0.2-0.2v-2.7l1.4-1.6l2.6,4.3c0.1,0.1,0.2,0.2,0.3,0.2h2.2
	c0.1,0,0.1,0,0.1-0.1c0,0,0-0.1,0-0.1L302.1,65.7z M316.1,66.3c0,0.3,0,0.7,0,1.1c0,0.1-0.1,0.2-0.2,0.2h-6.3c-0.1,0-0.1,0-0.1,0.1
	c0,0.2,0,0.3,0,0.4c0,0.1,0.1,0.2,0.1,0.4c0.4,1,1.1,1.6,2.3,1.6c0.6,0,1.1-0.1,1.5-0.3c0.4-0.2,0.7-0.4,1-0.7
	c0.1-0.1,0.2-0.1,0.3,0l1.3,1.1c0.1,0.1,0.1,0.2,0,0.3c-0.4,0.5-1,0.9-1.7,1.3c-0.7,0.3-1.5,0.5-2.5,0.5c-1.1,0-2-0.3-2.7-0.8
	c-0.7-0.5-1.2-1.2-1.5-2.1c-0.1-0.3-0.2-0.7-0.3-1.1c-0.1-0.4-0.1-0.9-0.1-1.4c0-0.5,0-1,0.1-1.4c0.1-0.4,0.1-0.8,0.3-1.1
	c0.3-0.9,0.8-1.6,1.5-2.1c0.7-0.5,1.6-0.7,2.6-0.7c1.1,0,2,0.3,2.7,0.8c0.7,0.5,1.2,1.2,1.5,2.1c0.1,0.2,0.1,0.4,0.1,0.6
	c0,0.2,0.1,0.4,0.1,0.6C316.1,65.8,316.1,66,316.1,66.3z M313.7,65.7c0-0.3,0-0.6-0.1-0.9c-0.1-0.4-0.4-0.7-0.7-1
	c-0.4-0.2-0.8-0.4-1.3-0.4c-0.5,0-0.9,0.1-1.3,0.4c-0.4,0.2-0.6,0.6-0.7,1c-0.1,0.3-0.1,0.6-0.1,0.9c0,0.1,0,0.1,0.1,0.1h4
	C313.7,65.9,313.7,65.8,313.7,65.7z M324.7,61.7c-0.4-0.1-0.8-0.2-1.2-0.2c-0.7,0-1.2,0.1-1.6,0.4c-0.4,0.2-0.8,0.6-1,1h0v-0.9
	c0-0.1-0.1-0.2-0.2-0.2h-2c-0.1,0-0.2,0.1-0.2,0.2v9.9c0,0.1,0.1,0.2,0.2,0.2h2c0.1,0,0.2-0.1,0.2-0.2v-5.6c0-0.8,0.2-1.5,0.5-1.9
	c0.3-0.5,0.8-0.7,1.5-0.7c0.3,0,0.5,0,0.8,0.1c0.2,0.1,0.5,0.2,0.7,0.4c0.1,0.1,0.2,0.1,0.3,0l1.1-1.4c0.1-0.1,0.1-0.2,0-0.3
	C325.4,62.1,325.1,61.9,324.7,61.7z M331.9,65.7l-1.1-0.1c-0.7-0.1-1.1-0.2-1.3-0.4c-0.2-0.2-0.3-0.4-0.3-0.7c0-0.3,0.1-0.6,0.4-0.8
	c0.3-0.2,0.7-0.3,1.2-0.3c0.5,0,1,0.1,1.5,0.3c0.5,0.2,0.9,0.4,1.2,0.6c0.1,0.1,0.2,0.1,0.3,0l1-1.3c0.1-0.1,0.1-0.2,0-0.3
	c-0.5-0.4-1-0.7-1.7-0.9c-0.7-0.2-1.4-0.4-2.2-0.4c-1.3,0-2.3,0.3-3,0.9c-0.7,0.6-1,1.4-1,2.4c0,0.9,0.3,1.6,0.8,2.1
	c0.5,0.5,1.3,0.8,2.4,0.9l1.1,0.1c0.7,0.1,1.1,0.2,1.4,0.4c0.2,0.2,0.4,0.4,0.4,0.7c0,0.4-0.2,0.6-0.5,0.9c-0.3,0.2-0.8,0.3-1.4,0.3
	c-0.5,0-1.1-0.1-1.6-0.3s-1-0.5-1.4-0.8c-0.1-0.1-0.2-0.1-0.3,0l-1.2,1.3c-0.1,0.1-0.1,0.2,0,0.3c0.4,0.4,1,0.8,1.7,1.1
	c0.7,0.3,1.6,0.5,2.7,0.5c1.4,0,2.5-0.3,3.2-1c0.7-0.6,1.1-1.5,1.1-2.5c0-0.9-0.3-1.5-0.8-2.1C333.8,66.2,333,65.9,331.9,65.7z
	 M352.1,60.1c0.2,0.6,0.4,1.2,0.4,1.8c0,0.7-0.1,1.3-0.4,1.9c-0.2,0.6-0.6,1-1,1.4c-0.4,0.4-0.9,0.7-1.5,0.9
	c-0.6,0.2-1.2,0.3-1.9,0.3h-3c-0.1,0-0.1,0-0.1,0.1v5.1c0,0.1-0.1,0.2-0.2,0.2h-2.1c-0.1,0-0.2-0.1-0.2-0.2V57.7
	c0-0.1,0.1-0.2,0.2-0.2h5.4c0.7,0,1.3,0.1,1.9,0.3c0.6,0.2,1.1,0.5,1.5,0.9C351.6,59.1,351.9,59.6,352.1,60.1z M350,62
	c0-0.7-0.2-1.2-0.6-1.6c-0.4-0.4-1-0.6-1.8-0.6h-2.9c-0.1,0-0.1,0-0.1,0.1v4.2c0,0.1,0,0.1,0.1,0.1h2.9c0.8,0,1.3-0.2,1.8-0.6
	C349.7,63.2,350,62.7,350,62z M360.7,61.7c-0.4-0.1-0.8-0.2-1.2-0.2c-0.7,0-1.2,0.1-1.6,0.4c-0.4,0.2-0.8,0.6-1,1h0v-0.9
	c0-0.1-0.1-0.2-0.2-0.2h-2c-0.1,0-0.2,0.1-0.2,0.2v9.9c0,0.1,0.1,0.2,0.2,0.2h2c0.1,0,0.2-0.1,0.2-0.2v-5.6c0-0.8,0.2-1.5,0.5-1.9
	c0.3-0.5,0.8-0.7,1.5-0.7c0.3,0,0.5,0,0.8,0.1c0.2,0.1,0.5,0.2,0.7,0.4c0.1,0.1,0.2,0.1,0.3,0l1.1-1.4c0.1-0.1,0.1-0.2,0-0.3
	C361.4,62.1,361.1,61.9,360.7,61.7z M371.7,65.4c0.1,0.4,0.1,0.9,0.1,1.4c0,0.6,0,1-0.1,1.4c-0.1,0.4-0.1,0.8-0.3,1.1
	c-0.3,0.9-0.8,1.6-1.5,2.1c-0.7,0.5-1.6,0.7-2.7,0.7c-1.1,0-2-0.2-2.7-0.7c-0.7-0.5-1.3-1.2-1.5-2.1c-0.1-0.4-0.2-0.7-0.3-1.1
	c-0.1-0.4-0.1-0.8-0.1-1.4c0-0.6,0-1,0.1-1.4c0.1-0.4,0.1-0.8,0.3-1.1c0.3-0.9,0.8-1.6,1.5-2.1c0.7-0.5,1.6-0.7,2.7-0.7
	c1,0,1.9,0.2,2.7,0.7c0.7,0.5,1.3,1.2,1.5,2.1C371.6,64.7,371.6,65.1,371.7,65.4z M369.4,66.9c0-0.4,0-0.8,0-1.1
	c0-0.3-0.1-0.5-0.2-0.8c-0.2-0.4-0.4-0.8-0.7-1c-0.3-0.2-0.7-0.4-1.2-0.4c-0.5,0-0.9,0.1-1.2,0.4c-0.3,0.2-0.6,0.6-0.7,1
	c-0.1,0.3-0.1,0.6-0.2,0.8c0,0.3,0,0.6,0,1.1c0,0.4,0,0.8,0,1.1c0,0.3,0.1,0.6,0.2,0.8c0.2,0.4,0.4,0.8,0.7,1
	c0.3,0.2,0.7,0.4,1.2,0.4c0.5,0,0.9-0.1,1.2-0.4c0.3-0.2,0.6-0.6,0.7-1c0.1-0.3,0.1-0.5,0.2-0.8C369.3,67.7,369.4,67.3,369.4,66.9z
	 M391.4,61.7c-0.4-0.1-0.8-0.2-1.2-0.2c-0.7,0-1.2,0.1-1.6,0.4c-0.4,0.2-0.8,0.6-1,1h0v-0.9c0-0.1-0.1-0.2-0.2-0.2h-2
	c-0.1,0-0.2,0.1-0.2,0.2v9.9c0,0.1,0.1,0.2,0.2,0.2h2c0.1,0,0.2-0.1,0.2-0.2v-5.6c0-0.8,0.2-1.5,0.5-1.9c0.3-0.5,0.8-0.7,1.5-0.7
	c0.3,0,0.5,0,0.8,0.1c0.2,0.1,0.5,0.2,0.7,0.4c0.1,0.1,0.2,0.1,0.3,0l1.1-1.4c0.1-0.1,0.1-0.2,0-0.3
	C392.1,62.1,391.8,61.9,391.4,61.7z M400.6,62.3c0.6,0.6,1,1.5,1,2.7v6.7c0,0.1-0.1,0.2-0.2,0.2h-1.8c-0.1,0-0.2-0.1-0.2-0.2V71h0
	c-0.2,0.4-0.6,0.6-1.1,0.9c-0.5,0.2-1.1,0.3-1.8,0.3c-0.5,0-0.9-0.1-1.3-0.2c-0.4-0.1-0.8-0.3-1.1-0.6c-0.3-0.3-0.6-0.6-0.7-1
	c-0.2-0.4-0.3-0.9-0.3-1.4c0-1.1,0.4-1.9,1.1-2.5c0.7-0.5,1.7-0.8,3-0.8h2.1c0.1,0,0.1,0,0.1-0.1v-0.5c0-0.6-0.2-1-0.5-1.3
	c-0.3-0.3-0.9-0.4-1.8-0.4c-0.6,0-1.1,0.1-1.4,0.2c-0.4,0.1-0.7,0.3-0.9,0.5c-0.1,0.1-0.2,0.1-0.3,0l-0.8-1.4
	c-0.1-0.1-0.1-0.2,0-0.3c0.4-0.3,0.9-0.5,1.5-0.7c0.6-0.2,1.3-0.3,2.2-0.3C398.9,61.5,400,61.8,400.6,62.3z M399.4,67.8
	c0-0.1,0-0.1-0.1-0.1h-1.7c-0.8,0-1.3,0.1-1.7,0.3c-0.4,0.2-0.5,0.6-0.5,1.1c0,0.9,0.6,1.3,1.8,1.3c0.7,0,1.3-0.1,1.7-0.4
	c0.4-0.3,0.6-0.7,0.6-1.3V67.8z M419.1,63.8c-0.2-0.5-0.4-0.9-0.7-1.2c-0.3-0.3-0.7-0.6-1.2-0.8c-0.5-0.2-1-0.3-1.6-0.3
	c-0.7,0-1.4,0.1-1.9,0.4c-0.5,0.2-1,0.6-1.4,1h0c-0.3-0.4-0.7-0.8-1.2-1c-0.5-0.2-1-0.4-1.6-0.4c-0.7,0-1.2,0.1-1.7,0.4
	c-0.4,0.2-0.8,0.5-1,0.8h0v-0.7c0-0.1-0.1-0.2-0.2-0.2h-2c-0.1,0-0.2,0.1-0.2,0.2v9.9c0,0.1,0.1,0.2,0.2,0.2h2
	c0.1,0,0.2-0.1,0.2-0.2v-5.9c0-0.7,0.2-1.2,0.5-1.6c0.3-0.4,0.8-0.6,1.5-0.6c0.6,0,1.1,0.2,1.5,0.6c0.3,0.4,0.5,1,0.5,1.6v5.9
	c0,0.1,0.1,0.2,0.2,0.2h2c0.1,0,0.2-0.1,0.2-0.2v-5.9c0-0.7,0.2-1.2,0.5-1.6c0.3-0.4,0.8-0.6,1.5-0.6c0.6,0,1.1,0.2,1.5,0.6
	c0.3,0.4,0.5,1,0.5,1.6v5.9c0,0.1,0.1,0.2,0.2,0.2h2c0.1,0,0.2-0.1,0.2-0.2v-6.5C419.3,64.7,419.2,64.2,419.1,63.8z M105.7,35.1h2
	c0.1,0,0.2-0.1,0.2-0.2V33c0-0.1-0.1-0.2-0.2-0.2h-2c-0.1,0-0.2,0.1-0.2,0.2v1.9C105.4,35,105.5,35.1,105.7,35.1z M137.3,32.2h2
	c0.1,0,0.2-0.1,0.2-0.2v-1.9c0-0.1-0.1-0.2-0.2-0.2h-2c-0.1,0-0.2,0.1-0.2,0.2V32C137.1,32.1,137.2,32.2,137.3,32.2z M116.6,47.1
	v-1.9c0-0.1-0.1-0.2-0.2-0.2h-1.8c-0.1,0-0.2,0.1-0.2,0.2v1.9c0,0.1,0.1,0.2,0.2,0.2h1.8C116.6,47.3,116.6,47.2,116.6,47.1z
	 M262.9,45.2v1.9c0,0.1,0.1,0.2,0.2,0.2h1.8c0.1,0,0.2-0.1,0.2-0.2v-1.9c0-0.1-0.1-0.2-0.2-0.2h-1.8C263,45,262.9,45.1,262.9,45.2z
	 M164,43.2h2c0.1,0,0.2-0.1,0.2-0.2V28.9c0-0.1-0.1-0.2-0.2-0.2h-2c-0.1,0-0.2,0.1-0.2,0.2V43C163.8,43.1,163.8,43.2,164,43.2z
	 M277.8,32.2h2c0.1,0,0.2-0.1,0.2-0.2v-1.9c0-0.1-0.1-0.2-0.2-0.2h-2c-0.1,0-0.2,0.1-0.2,0.2V32C277.6,32.1,277.6,32.2,277.8,32.2z
	 M215.5,32.2h2c0.1,0,0.2-0.1,0.2-0.2v-1.9c0-0.1-0.1-0.2-0.2-0.2h-2c-0.1,0-0.2,0.1-0.2,0.2V32C215.3,32.1,215.4,32.2,215.5,32.2z
	 M178.3,35.1h2c0.1,0,0.2-0.1,0.2-0.2V33c0-0.1-0.1-0.2-0.2-0.2h-2c-0.1,0-0.2,0.1-0.2,0.2v1.9C178.1,35,178.2,35.1,178.3,35.1z
	 M342.1,42.5c0.2,0.3,0.5,0.5,0.9,0.6c0.3,0.1,0.8,0.1,1.2,0.1c0,0,0,0,0,0c0,0,0,0,0,0h2c0.9,0,1.5-0.2,1.9-0.7
	c0.4-0.4,0.6-1.1,0.6-2v-6c0-0.1-0.1-0.2-0.2-0.2h-2c-0.1,0-0.2,0.1-0.2,0.2v5.4c0,0.4-0.1,0.7-0.2,0.9c-0.2,0.2-0.4,0.2-0.8,0.2h-1
	c0,0,0,0,0,0c0,0,0,0,0,0h-0.4c-0.5,0-1-0.1-1.3-0.3c-0.3-0.2-0.5-0.6-0.5-1v-5.2c0-0.1-0.1-0.2-0.2-0.2h-2c-0.1,0-0.2,0.1-0.2,0.2
	v7.6c0,0.5,0,1,0,1.4c0,0.4-0.1,0.7-0.2,1c-0.1,0.3-0.3,0.5-0.5,0.6c-0.2,0.1-0.5,0.2-1,0.2h-0.5c-0.1,0-0.2,0.1-0.2,0.2v1.7
	c0,0.1,0.1,0.2,0.2,0.2h0.8c0.7,0,1.3-0.1,1.8-0.3c0.5-0.2,0.9-0.5,1.2-0.9c0.3-0.4,0.5-0.9,0.6-1.4c0.1-0.6,0.2-1.2,0.2-2V42.5z
	 M257.2,44.9c0.1-0.6,0.2-1.2,0.2-2v-0.4c0.2,0.3,0.5,0.5,0.9,0.6c0.3,0.1,0.8,0.1,1.2,0.1c0,0,0,0,0,0c0,0,0,0,0,0h2.3
	c0.9,0,1.5-0.2,1.9-0.7c0.4-0.4,0.6-1.1,0.6-2v-6c0-0.1-0.1-0.2-0.2-0.2h-2c-0.1,0-0.2,0.1-0.2,0.2v5.4c0,0.4-0.1,0.7-0.2,0.9
	c-0.2,0.2-0.4,0.2-0.8,0.2h-1.4c0,0,0,0,0,0c0,0,0,0,0,0h-0.4c-0.5,0-1-0.1-1.3-0.3c-0.3-0.2-0.5-0.6-0.5-1v-5.2
	c0-0.1-0.1-0.2-0.2-0.2h-2c-0.1,0-0.2,0.1-0.2,0.2v7.6c0,0.5,0,1,0,1.4c0,0.4-0.1,0.7-0.2,1c-0.1,0.3-0.3,0.5-0.5,0.6
	c-0.2,0.1-0.5,0.2-1,0.2h-0.5c-0.1,0-0.2,0.1-0.2,0.2v1.7c0,0.1,0.1,0.2,0.2,0.2h0.8c0.7,0,1.3-0.1,1.8-0.3c0.5-0.2,0.9-0.5,1.2-0.9
	S257.1,45.5,257.2,44.9z M294.2,28.7h-2c-0.1,0-0.2,0.1-0.2,0.2V43c0,0.1,0.1,0.2,0.2,0.2h2c0.1,0,0.2-0.1,0.2-0.2V28.9
	C294.4,28.8,294.3,28.7,294.2,28.7z M309.1,46.8c0.1,0,0.2-0.1,0.2-0.2v-1.9c0-0.1-0.1-0.2-0.2-0.2h-2c-0.1,0-0.2,0.1-0.2,0.2v1.9
	c0,0.1,0.1,0.2,0.2,0.2H309.1z M260.4,45c-0.1,0-0.2,0.1-0.2,0.2v1.9c0,0.1,0.1,0.2,0.2,0.2h1.8c0.1,0,0.2-0.1,0.2-0.2v-1.9
	c0-0.1-0.1-0.2-0.2-0.2H260.4z M286.7,43.2h-2h-3.2c-0.5,0-1,0-1.5-0.1c-0.5-0.1-0.9-0.3-1.3-0.5c-0.5,0.3-1,0.4-1.5,0.5
	c-0.5,0.1-1,0.1-1.4,0.1h-3.1c0,0,0,0,0,0c0,0,0,0,0,0c-0.5,0-0.9,0-1.2-0.1c-0.3-0.1-0.6-0.3-0.9-0.6v0.4c0,0.8-0.1,1.4-0.2,2
	c-0.1,0.6-0.3,1.1-0.6,1.4s-0.7,0.7-1.2,0.9c-0.5,0.2-1.1,0.3-1.8,0.3h-0.8c-0.1,0-0.2-0.1-0.2-0.2v-1.7c0-0.1,0.1-0.2,0.2-0.2h0.5
	c0.4,0,0.7-0.1,1-0.2c0.2-0.1,0.4-0.4,0.5-0.6c0.1-0.3,0.2-0.6,0.2-1c0-0.4,0-0.8,0-1.4v-7.6c0-0.1,0.1-0.2,0.2-0.2h2
	c0.1,0,0.2,0.1,0.2,0.2v5.2c0,0.4,0.2,0.8,0.5,1c0.3,0.2,0.8,0.3,1.3,0.3h0.4c0,0,0,0,0,0c0,0,0,0,0,0h2.5c0.2,0,0.5,0,0.8,0
	c0.3,0,0.6-0.1,1-0.2c-0.1-0.5-0.3-0.9-0.5-1.2c-0.2-0.3-0.4-0.6-0.7-0.9c-0.2-0.3-0.5-0.5-0.8-0.7c-0.3-0.2-0.6-0.4-0.8-0.6
	c-0.2-0.1-0.2-0.2-0.3-0.3c0-0.1,0-0.2,0-0.3v-1.3c0-0.2,0.1-0.3,0.4-0.5c0.3-0.2,0.6-0.4,1.1-0.5s0.9-0.3,1.5-0.4
	c0.6-0.1,1.2-0.1,1.8-0.1c1.6,0,2.8,0.3,3.6,0.9c0.8,0.6,1.1,1.4,1.1,2.4c0,0.4-0.1,0.8-0.2,1.2c-0.1,0.4-0.3,0.7-0.5,1
	c-0.2,0.3-0.5,0.6-0.7,0.9c-0.3,0.3-0.5,0.5-0.8,0.6c0.1,0,0.2,0,0.4,0h0.4h2.7h1c0.4,0,0.6-0.1,0.8-0.2c0.2-0.2,0.2-0.5,0.2-0.9
	v-11c0-0.1,0.1-0.2,0.2-0.2h2c0.1,0,0.2,0.1,0.2,0.2v11.6c0,0.9-0.2,1.6-0.6,2C288.3,43,287.6,43.2,286.7,43.2z M281,37.7
	c0-0.6-0.2-1-0.6-1.2c-0.4-0.2-1-0.3-1.6-0.3c-0.6,0-1.1,0.1-1.5,0.2c-0.4,0.1-0.7,0.2-0.9,0.3c0.7,0.4,1.2,0.9,1.7,1.6
	c0.5,0.7,0.8,1.4,1,2.2c0.2-0.1,0.5-0.3,0.7-0.5c0.2-0.2,0.4-0.4,0.6-0.7c0.2-0.2,0.3-0.5,0.4-0.8C281,38.2,281,37.9,281,37.7z
	 M346.1,45c-0.1,0-0.2,0.1-0.2,0.2V47c0,0.1,0.1,0.2,0.2,0.2h2c0.1,0,0.2-0.1,0.2-0.2v-1.9c0-0.1-0.1-0.2-0.2-0.2H346.1z M119.2,45
	h-1.8c-0.1,0-0.2,0.1-0.2,0.2v1.9c0,0.1,0.1,0.2,0.2,0.2h1.8c0.1,0,0.2-0.1,0.2-0.2v-1.9C119.4,45.1,119.3,45,119.2,45z M318.7,43.1
	c-0.6-0.2-1-0.5-1.4-1c-0.1,0.2-0.3,0.4-0.5,0.6c-0.2,0.1-0.4,0.3-0.6,0.3c-0.2,0.1-0.4,0.1-0.7,0.2c-0.2,0-0.4,0-0.6,0H314
	c0,0-0.1,0-0.1,0c-0.5,0-1-0.1-1.4-0.2c-0.4-0.2-0.8-0.5-1-1c-0.3,0.5-0.6,0.8-1.1,1c-0.5,0.2-1.1,0.3-1.7,0.3H305
	c-0.4,0-0.7,0.1-0.9,0.3c-0.2,0.2-0.3,0.5-0.3,0.8c0,0.4,0.1,0.7,0.3,0.8c0.2,0.2,0.6,0.3,1.3,0.3h0.6c0.1,0,0.2,0.1,0.2,0.2v1.7
	c0,0.1-0.1,0.2-0.2,0.2h-0.8c-1.2,0-2.1-0.2-2.8-0.7c-0.7-0.5-1-1.3-1-2.5c0-0.6,0.1-1.1,0.3-1.6c0.2-0.4,0.4-0.7,0.8-1
	c0.3-0.2,0.7-0.4,1.1-0.5s0.8-0.2,1.2-0.2h3c0.4,0,0.7,0,0.9-0.1c0.2-0.1,0.4-0.2,0.5-0.3c0.1-0.1,0.2-0.3,0.3-0.6
	c0-0.2,0.1-0.5,0.1-0.9c0-0.5,0-0.9-0.1-1.3c-0.1-0.4-0.2-0.7-0.4-1c-0.2-0.3-0.4-0.5-0.8-0.7c-0.3-0.2-0.7-0.2-1.2-0.2
	c-0.5,0-0.9,0.1-1.3,0.3c-0.4,0.2-0.7,0.4-1,0.7c-0.1,0.1-0.2,0.1-0.3,0l-1.1-1.2c-0.1-0.1-0.1-0.2-0.1-0.3c0.5-0.5,1-0.9,1.6-1.2
	c0.6-0.3,1.3-0.5,2.2-0.5c1,0,1.7,0.1,2.4,0.4c0.6,0.3,1.1,0.7,1.5,1.2c0.4,0.5,0.7,1.1,0.8,1.7c0.2,0.6,0.2,1.3,0.2,2.1
	c0,0.1,0,0.2,0,0.3c0,0.1,0,0.2,0,0.3c0,0.4,0.2,0.7,0.5,0.9c0.3,0.2,0.7,0.3,1.2,0.3h0.3h0.1h0.7c0.2,0,0.3,0,0.5-0.1
	c0.2-0.1,0.3-0.2,0.4-0.3s0.2-0.3,0.3-0.6c0.1-0.2,0.1-0.6,0.1-0.9c0-0.1,0-0.2,0-0.3v-0.3c0-0.8,0.1-1.5,0.4-2.1
	c0.2-0.6,0.5-1,0.9-1.4c0.4-0.4,0.9-0.6,1.4-0.8c0.5-0.2,1.1-0.2,1.7-0.2c0.6,0,1.2,0.1,1.8,0.3c0.5,0.2,1,0.4,1.4,0.8
	c0.4,0.4,0.7,0.9,0.9,1.5c0.2,0.6,0.3,1.4,0.3,2.2c0,0.8-0.1,1.5-0.3,2.1c-0.2,0.6-0.5,1.1-0.9,1.4c-0.4,0.4-0.8,0.6-1.4,0.8
	c-0.5,0.2-1.1,0.3-1.8,0.3C319.9,43.3,319.2,43.3,318.7,43.1z M318.6,38.7c0,0.9,0.2,1.6,0.5,2c0.3,0.4,0.8,0.6,1.5,0.6
	c0.7,0,1.2-0.2,1.5-0.6c0.3-0.4,0.5-1.1,0.5-1.9c0-1.7-0.7-2.6-2-2.6c-0.7,0-1.2,0.2-1.5,0.7C318.7,37.2,318.6,37.8,318.6,38.7z
	 M336,34.3h-2c-0.1,0-0.2,0.1-0.2,0.2v5.4c0,0.4-0.1,0.7-0.2,0.9c-0.2,0.2-0.4,0.2-0.8,0.2h-1c0,0,0,0,0,0c0,0,0,0-0.1,0h-0.7
	c-0.4,0-0.6-0.1-0.8-0.2c-0.2-0.2-0.2-0.5-0.2-0.9v-11c0-0.1-0.1-0.2-0.2-0.2h-2c-0.1,0-0.2,0.1-0.2,0.2v11.6c0,0.9,0.2,1.6,0.6,2
	s1,0.7,1.9,0.7h1.7c0,0,0,0,0.1,0c0,0,0,0,0.1,0h2c0.9,0,1.5-0.2,1.9-0.7c0.4-0.4,0.6-1.1,0.6-2v-6C336.2,34.4,336.1,34.3,336,34.3z
	 M336.1,29.9h-2c-0.1,0-0.2,0.1-0.2,0.2V32c0,0.1,0.1,0.2,0.2,0.2h2c0.1,0,0.2-0.1,0.2-0.2v-1.9C336.3,30,336.2,29.9,336.1,29.9z
	 M155.3,47.3c0.1,0,0.2-0.1,0.2-0.2v-1.9c0-0.1-0.1-0.2-0.2-0.2h-1.8c-0.1,0-0.2,0.1-0.2,0.2v1.9c0,0.1,0.1,0.2,0.2,0.2H155.3z
	 M150.7,47.3h1.8c0.1,0,0.2-0.1,0.2-0.2v-1.9c0-0.1-0.1-0.2-0.2-0.2h-1.8c-0.1,0-0.2,0.1-0.2,0.2v1.9
	C150.5,47.2,150.6,47.3,150.7,47.3z M124.9,43.1c-0.5,0.1-1,0.1-1.4,0.1h-3.1c0,0,0,0,0,0c0,0,0,0,0,0c-0.6,0-1-0.1-1.5-0.2
	c-0.4-0.1-0.7-0.4-1-0.9c-0.2,0.4-0.5,0.7-0.9,0.9c-0.4,0.2-0.9,0.2-1.6,0.2h-2c0,0,0,0-0.1,0c0,0,0,0-0.1,0c-0.4,0-0.8,0-1.1-0.1
	c-0.3-0.1-0.6-0.3-0.9-0.6v0.2c0,0.8-0.1,1.5-0.4,2.1c-0.2,0.6-0.6,1.1-1.1,1.5c-0.5,0.4-1,0.7-1.7,0.9c-0.6,0.2-1.3,0.3-2.1,0.3
	c-0.8,0-1.4-0.1-2.1-0.3c-0.6-0.2-1.2-0.5-1.7-0.9c-0.5-0.4-0.8-0.9-1.1-1.5c-0.3-0.6-0.4-1.3-0.4-2.2c0-0.8,0.1-1.5,0.4-2.3
	s0.5-1.4,0.9-2c0.1-0.1,0.2-0.1,0.3,0l1.7,0.7c0.1,0,0.1,0.1,0.1,0.1c0,0.1,0,0.1,0,0.2c-0.2,0.4-0.4,0.9-0.7,1.4
	c-0.2,0.5-0.3,1.1-0.3,1.8c0,0.6,0.1,1,0.3,1.4c0.2,0.4,0.4,0.7,0.7,0.9c0.3,0.2,0.6,0.4,0.9,0.5c0.3,0.1,0.7,0.1,1,0.1
	c0.8,0,1.5-0.2,2-0.7s0.8-1.1,0.8-2.1v-6.3c0-0.1,0.1-0.2,0.2-0.2h2c0.1,0,0.2,0.1,0.2,0.2v3.4c0,0.4,0.2,0.8,0.5,1s0.8,0.3,1.3,0.3
	h0.2c0,0,0,0,0.1,0c0,0,0,0,0.1,0h1.4c0.3,0,0.5,0,0.6-0.1c0.1-0.1,0.2-0.2,0.3-0.4c0.1-0.2,0.1-0.4,0.1-0.6c0-0.3,0-0.6,0-1v-4.4
	c0-0.1,0-0.1,0.1-0.2c0.1,0,0.2,0,0.2,0h1.8c0.1,0,0.2,0.1,0.2,0.2v5.2c0,0.4,0.2,0.8,0.5,1c0.3,0.2,0.8,0.3,1.3,0.3h0.4
	c0,0,0,0,0,0c0,0,0,0,0,0h2.5c0.2,0,0.5,0,0.8,0c0.3,0,0.6-0.1,1-0.2c-0.1-0.5-0.3-0.9-0.5-1.2c-0.2-0.3-0.4-0.6-0.7-0.9
	c-0.2-0.3-0.5-0.5-0.8-0.7c-0.3-0.2-0.6-0.4-0.8-0.6c-0.2-0.1-0.2-0.2-0.3-0.3c0-0.1,0-0.2,0-0.3v-1.3c0-0.2,0.1-0.3,0.4-0.5
	c0.3-0.2,0.6-0.4,1.1-0.5c0.4-0.1,0.9-0.3,1.5-0.4c0.6-0.1,1.2-0.1,1.7-0.1c1.6,0,2.8,0.3,3.6,0.9c0.8,0.6,1.1,1.4,1.1,2.4
	c0,0.4-0.1,0.8-0.2,1.2c-0.1,0.4-0.3,0.7-0.5,1c-0.2,0.3-0.5,0.6-0.7,0.9c-0.3,0.3-0.5,0.5-0.8,0.6c0.1,0,0.2,0,0.4,0h0.4h2.7
	c0.1,0,0.1,0,0.1,0h2c-0.3-0.6-0.5-1.4-0.5-2.4c0-0.9,0.1-1.6,0.4-2.2c0.2-0.6,0.6-1.1,1-1.5c0.4-0.4,0.9-0.6,1.4-0.8
	c0.5-0.2,1.1-0.3,1.7-0.3c0.6,0,1.2,0.1,1.8,0.3c0.5,0.2,1,0.4,1.4,0.8c0.4,0.4,0.7,0.9,0.9,1.5c0.2,0.6,0.3,1.4,0.3,2.2
	c0,0.8-0.1,1.5-0.3,2.1c-0.2,0.6-0.5,1-0.9,1.4c-0.4,0.4-0.8,0.6-1.4,0.8c-0.5,0.2-1.1,0.2-1.8,0.2h-5.9c0,0,0,0-0.1,0
	c0,0,0,0-0.1,0h-3.2c-0.5,0-1,0-1.5-0.1c-0.5-0.1-0.9-0.3-1.3-0.5C125.9,42.8,125.4,43,124.9,43.1z M136.3,38.6c0,0.9,0.2,1.6,0.5,2
	c0.3,0.4,0.8,0.6,1.5,0.6c0.7,0,1.2-0.2,1.5-0.5c0.3-0.4,0.5-1,0.5-1.9c0-1.7-0.7-2.6-2-2.6c-0.7,0-1.2,0.2-1.5,0.7
	C136.5,37.2,136.3,37.8,136.3,38.6z M125.7,38.2c0.5,0.7,0.8,1.4,1,2.2c0.2-0.1,0.5-0.3,0.7-0.5c0.2-0.2,0.4-0.4,0.6-0.7
	c0.2-0.2,0.3-0.5,0.4-0.8s0.2-0.5,0.2-0.8c0-0.6-0.2-1-0.6-1.2c-0.4-0.2-1-0.3-1.6-0.3c-0.6,0-1.1,0.1-1.5,0.2
	c-0.4,0.1-0.7,0.2-0.9,0.3C124.7,37,125.2,37.5,125.7,38.2z M241.7,43.2c-0.6,0-1-0.1-1.5-0.2c-0.4-0.1-0.7-0.4-1-0.9
	c-0.2,0.4-0.5,0.7-0.9,0.9c-0.4,0.2-0.9,0.2-1.5,0.2h-1.8c0,0,0,0,0,0c-0.2,0-0.5,0-0.7,0c-0.3,0-0.5-0.1-0.8-0.1
	c-0.3-0.1-0.5-0.2-0.8-0.3c-0.2-0.2-0.4-0.4-0.6-0.6c-0.4,0.5-0.9,0.8-1.4,1s-1.2,0.3-2,0.3c-0.7,0-1.4-0.1-1.9-0.3
	c-0.6-0.2-1-0.5-1.4-1c-0.1,0.2-0.3,0.4-0.5,0.6c-0.2,0.1-0.4,0.3-0.6,0.3c-0.2,0.1-0.4,0.1-0.7,0.2c-0.2,0-0.4,0-0.6,0h-0.7h-3
	c-0.5,0-1,0-1.5-0.1c-0.5,0-0.9-0.2-1.3-0.4c-0.5,0.3-1,0.4-1.5,0.4c-0.5,0-1,0.1-1.4,0.1h-2.8c0,0,0,0,0,0c0,0,0,0,0,0
	c-0.6,0-1.1-0.1-1.6-0.2c-0.4-0.2-0.8-0.5-1-1c-0.2,0.5-0.6,0.8-1,1c-0.4,0.2-1,0.3-1.7,0.3h-6.3c0,0,0,0,0,0c0,0,0,0,0,0
	c-0.5,0-0.9,0-1.2-0.1c-0.3-0.1-0.6-0.3-0.9-0.6v0.4c0,0.8-0.1,1.4-0.2,2c-0.1,0.6-0.3,1.1-0.6,1.4c-0.3,0.4-0.7,0.7-1.2,0.9
	c-0.5,0.2-1.1,0.3-1.8,0.3h-0.8c-0.1,0-0.2-0.1-0.2-0.2v-1.7c0-0.1,0.1-0.2,0.2-0.2h0.5c0.4,0,0.7-0.1,1-0.2
	c0.2-0.1,0.4-0.4,0.5-0.6c0.1-0.3,0.2-0.6,0.2-1c0-0.4,0-0.8,0-1.4v-7.6c0-0.1,0.1-0.2,0.2-0.2h2c0.1,0,0.2,0.1,0.2,0.2v5.2
	c0,0.4,0.2,0.8,0.5,1c0.3,0.2,0.8,0.3,1.3,0.3h0.4c0,0,0,0,0,0c0,0,0,0,0,0h5.3c0.4,0,0.7,0,0.9-0.1c0.2-0.1,0.4-0.1,0.5-0.3
	c0.1-0.1,0.2-0.3,0.2-0.5c0-0.2,0.1-0.5,0.1-0.8v-1.1c0-1.2-0.7-1.9-2.2-1.9h-3.4c-0.1,0-0.2-0.1-0.2-0.2v-1.5c0-0.1,0-0.2,0.1-0.3
	c0.1-0.1,0.2-0.2,0.2-0.2l4.6-5.4c0.1-0.1,0.2-0.1,0.3-0.1l1.4,1.2c0.1,0.1,0.1,0.2,0.1,0.3l-3.5,4.1c0.7,0,1.4,0.1,2,0.1
	c0.6,0.1,1.1,0.3,1.6,0.5c0.4,0.3,0.8,0.6,1,1.2c0.3,0.5,0.4,1.2,0.4,2v1.8c0,0.4,0.2,0.7,0.5,0.9c0.3,0.2,0.7,0.3,1.3,0.3h0.4
	c0,0,0,0,0,0c0,0,0,0,0,0h3c-0.5-0.4-0.9-0.8-1.3-1.4c-0.3-0.6-0.5-1.2-0.5-1.9c0-1.1,0.4-2.1,1.2-2.8c0.8-0.7,1.9-1,3.3-1
	c1.5,0,2.6,0.3,3.3,1c0.8,0.7,1.2,1.6,1.2,2.8c0,0.7-0.2,1.3-0.5,1.9c-0.3,0.6-0.8,1-1.3,1.4h3h0.8c0.3,0,0.6-0.1,0.9-0.4
	c0.3-0.3,0.4-0.8,0.4-1.5c0-0.1,0-0.2,0-0.3v-0.3c0-0.8,0.1-1.5,0.4-2.1c0.2-0.6,0.5-1,0.9-1.4c0.4-0.4,0.9-0.6,1.4-0.8
	c0.5-0.2,1.1-0.2,1.7-0.2s1.2,0.1,1.8,0.3s1,0.4,1.4,0.8c0.4,0.4,0.7,0.9,0.9,1.5s0.3,1.3,0.3,2.2v0.4c0,0.1,0,0.2,0,0.4
	c0,0.6,0.2,1,0.4,1.3c0.3,0.2,0.6,0.4,0.9,0.4h0.6h0h1c0.4,0,0.6-0.1,0.8-0.2c0.2-0.2,0.2-0.5,0.2-0.9v-11c0-0.1,0.1-0.2,0.2-0.2h2
	c0.1,0,0.2,0.1,0.2,0.2v10.8c0,0.4,0.2,0.8,0.5,1c0.3,0.2,0.8,0.3,1.3,0.3h0.4c0,0,0,0,0,0c0,0,0,0,0,0h1c0.4,0,0.6-0.1,0.8-0.2
	c0.2-0.2,0.2-0.5,0.2-0.9v-11c0-0.1,0.1-0.2,0.2-0.2h2c0.1,0,0.2,0.1,0.2,0.2v11.6c0,0.9-0.2,1.6-0.6,2c-0.4,0.4-1,0.7-1.9,0.7
	H241.7C241.7,43.2,241.7,43.2,241.7,43.2C241.7,43.2,241.7,43.2,241.7,43.2z M218.6,37.9c0-0.7-0.2-1.2-0.6-1.5
	c-0.4-0.3-0.9-0.5-1.4-0.5c-0.6,0-1,0.2-1.4,0.5c-0.4,0.3-0.6,0.9-0.6,1.5c0,0.7,0.2,1.3,0.6,1.8c0.4,0.4,0.9,0.8,1.5,1
	c0.6-0.2,1-0.6,1.4-1C218.4,39.2,218.6,38.7,218.6,37.9z M230.8,38.7c0-1.7-0.7-2.6-2-2.6c-0.7,0-1.2,0.2-1.5,0.7
	c-0.3,0.4-0.5,1.1-0.5,1.9c0,0.9,0.2,1.6,0.5,2c0.3,0.4,0.8,0.6,1.5,0.6c0.7,0,1.2-0.2,1.5-0.6C230.7,40.2,230.8,39.6,230.8,38.7z
	 M161,40.5V28.9c0-0.1-0.1-0.2-0.2-0.2h-2c-0.1,0-0.2,0.1-0.2,0.2v11c0,0.4-0.1,0.7-0.2,0.9c-0.2,0.2-0.4,0.2-0.8,0.2h-1
	c0,0,0,0,0,0c0,0,0,0,0,0h-0.4c-0.5,0-1-0.1-1.3-0.3c-0.3-0.2-0.5-0.6-0.5-1v-5.2c0-0.1-0.1-0.2-0.2-0.2h-1.8c-0.1,0-0.2,0-0.2,0
	c-0.1,0-0.1,0.1-0.1,0.2V39c0,0.4,0,0.7,0,1c0,0.3-0.1,0.5-0.1,0.6c-0.1,0.2-0.2,0.3-0.3,0.4c-0.1,0.1-0.3,0.1-0.6,0.1h-1.4
	c0,0,0,0-0.1,0c0,0,0,0-0.1,0h-0.7c-0.4,0-0.6-0.1-0.8-0.2c-0.2-0.2-0.2-0.5-0.2-0.9v-11c0-0.1-0.1-0.2-0.2-0.2h-2
	c-0.1,0-0.2,0.1-0.2,0.2v11.6c0,0.9,0.2,1.6,0.6,2c0.4,0.4,1,0.7,1.9,0.7h1.7c0,0,0,0,0.1,0c0,0,0,0,0.1,0h2c0.7,0,1.2-0.1,1.6-0.2
	c0.4-0.2,0.7-0.4,0.9-0.9c0.2,0.5,0.6,0.8,1,0.9c0.4,0.1,0.9,0.2,1.5,0.2c0,0,0,0,0,0c0,0,0,0,0,0h2c0.9,0,1.5-0.2,1.9-0.7
	C160.8,42.1,161,41.4,161,40.5z M191.4,45h-1.8c-0.1,0-0.2,0.1-0.2,0.2v1.9c0,0.1,0.1,0.2,0.2,0.2h1.8c0.1,0,0.2-0.1,0.2-0.2v-1.9
	C191.6,45.1,191.5,45,191.4,45z M186.8,45c-0.1,0-0.2,0.1-0.2,0.2v1.9c0,0.1,0.1,0.2,0.2,0.2h1.8c0.1,0,0.2-0.1,0.2-0.2v-1.9
	c0-0.1-0.1-0.2-0.2-0.2H186.8z M186,43.2C186,43.2,186,43.2,186,43.2C186,43.2,186,43.2,186,43.2h2.3c0.9,0,1.5-0.2,1.9-0.7
	c0.4-0.4,0.6-1.1,0.6-2v-6c0-0.1-0.1-0.2-0.2-0.2h-2c-0.1,0-0.2,0.1-0.2,0.2v5.4c0,0.4-0.1,0.7-0.2,0.9c-0.2,0.2-0.4,0.2-0.8,0.2
	H186c0,0,0,0,0,0c0,0,0,0,0,0h-0.2c-0.5,0-1-0.1-1.3-0.3c-0.3-0.2-0.5-0.6-0.5-1v-3.4c0-0.1-0.1-0.2-0.2-0.2h-2
	c-0.1,0-0.2,0.1-0.2,0.2v6.3c0,1-0.3,1.7-0.8,2.1s-1.2,0.7-2,0.7c-0.3,0-0.7,0-1-0.1c-0.3-0.1-0.7-0.3-0.9-0.5
	c-0.3-0.2-0.5-0.5-0.7-0.9s-0.3-0.8-0.3-1.4c0-0.6,0.1-1.2,0.3-1.8c0.2-0.5,0.4-1,0.7-1.4c0-0.1,0-0.1,0-0.2c0,0,0-0.1-0.1-0.1
	l-1.7-0.7c-0.1-0.1-0.2-0.1-0.3,0c-0.4,0.6-0.7,1.2-0.9,2s-0.4,1.5-0.4,2.3c0,0.8,0.1,1.5,0.4,2.2s0.6,1.1,1.1,1.5
	c0.5,0.4,1,0.7,1.7,0.9c0.6,0.2,1.3,0.3,2.1,0.3c0.8,0,1.5-0.1,2.1-0.3c0.6-0.2,1.2-0.5,1.7-0.9c0.5-0.4,0.8-0.9,1.1-1.5
	c0.2-0.6,0.4-1.3,0.4-2.1v-0.2c0.2,0.3,0.5,0.5,0.9,0.6C185.2,43.2,185.5,43.2,186,43.2z"/>
</svg>
