<svg xmlns="http://www.w3.org/2000/svg" width="140.273" height="120" viewBox="0 0 140.273 120"><defs><style>.a{fill:#161616;}.b{fill:#0068ac;}.c{fill:#d8e0e3;}.d{fill:#fff;}.e{fill:#d76b6f;}</style></defs><g transform="translate(-4.863 -5)"><ellipse class="a" cx="31.529" cy="3.003" rx="31.529" ry="3.003" transform="translate(49.483 118.994)"/><circle class="b" cx="3.003" cy="3.003" r="3.003" transform="translate(139.131 5)"/><circle class="b" cx="4.504" cy="4.504" r="4.504" transform="translate(125.223 13.395)"/><circle class="b" cx="3.003" cy="3.003" r="3.003" transform="translate(139.131 16.398)"/><path class="a" d="M5.413,44.6l26.25,36.881-3.116,1.4L4.913,44.929A.3.3,0,0,1,5.413,44.6Z"/><path class="a" d="M37.194,95.854a3.012,3.012,0,0,1-2.452-1.263c-.029-.041-.061-.087-.088-.131l-4.51-7.967,1.562-1.156,1.226-2.951-.184-.517,6.9,9.25a3.005,3.005,0,0,1-2.453,4.735Z"/><rect class="c" width="33.031" height="54.05" transform="translate(107.175 24.434) rotate(45)"/><path class="a" d="M92.312,87.511a1.5,1.5,0,0,1-1.062-.44L67.894,63.715a1.5,1.5,0,0,1,0-2.123l38.219-38.22a1.5,1.5,0,0,1,2.123,0l23.357,23.357a1.5,1.5,0,0,1,0,2.123L93.373,87.071A1.5,1.5,0,0,1,92.312,87.511ZM71.079,62.653,92.312,83.886l36.1-36.1L107.175,26.557Z"/><path class="c" d="M0,0H39.036a0,0,0,0,1,0,0V2.011a10,10,0,0,1-10,10H10a10,10,0,0,1-10-10V0A0,0,0,0,1,0,0Z" transform="translate(109.298 18.064) rotate(45)"/><ellipse class="c" cx="3.003" cy="19.518" rx="3.003" ry="19.518" transform="translate(107.175 20.187) rotate(-45)"/><path class="a" d="M101.867,29.742a4.508,4.508,0,0,1-1.033-4.76,4.363,4.363,0,0,1,.617-1.126,4.841,4.841,0,0,1,.417-.485l.3-.3,1.213-1.213L108.236,17a1.5,1.5,0,0,1,2.124,2.124l-4.852,4.852-1.213,1.213-.3.3a2.109,2.109,0,0,0-.139.166,1.393,1.393,0,0,0-.2.372,1.51,1.51,0,0,0,.343,1.587,1.5,1.5,0,1,1-2.1,2.142l-.009-.008Z"/><path class="a" d="M137.963,46.728c-1.265,1.415-2.586,2.773-3.917,4.121-.675.665-1.336,1.343-2.021,2-.186.176-.289.293-.607.568a4.657,4.657,0,0,1-.91.6,4.549,4.549,0,0,1-2.1.473,4.66,4.66,0,0,1-2.066-.541,4.591,4.591,0,0,1-.873-.615c-.3-.275-.4-.4-.577-.587-.652-.688-1.285-1.394-1.913-2.106-1.25-1.428-2.478-2.88-3.595-4.441a.761.761,0,0,1,1.061-1.062c1.562,1.117,3.014,2.345,4.442,3.595.711.629,1.418,1.262,2.106,1.913a2.385,2.385,0,0,0,.744.58,1.549,1.549,0,0,0,.671.12,1.676,1.676,0,0,0,.636-.187,2.888,2.888,0,0,0,.678-.614c.654-.685,1.332-1.347,2-2.021,1.348-1.331,2.706-2.652,4.12-3.917a1.5,1.5,0,0,1,2.124,2.123Z"/><path class="a" d="M136.9,47.168a1.5,1.5,0,0,1-1.361-2.135c-.325-1.388-3.773-6.624-11.379-14.229S111.32,19.749,109.932,19.425A1.5,1.5,0,0,1,108.237,17c1.271-1.271,3.441-.579,7.493,2.392a97.261,97.261,0,0,1,10.554,9.286,97.267,97.267,0,0,1,9.287,10.555c2.97,4.051,3.663,6.222,2.392,7.493A1.494,1.494,0,0,1,136.9,47.168Z"/><path class="a" d="M54.2,71.475q-4.269,2.67-8.588,5.254-2.152,1.305-4.325,2.575c-1.448.847-2.9,1.683-4.372,2.493a.6.6,0,0,1-.6-1.04c1.437-.867,2.888-1.708,4.346-2.538s2.922-1.65,4.393-2.457q4.4-2.443,8.847-4.808a.3.3,0,0,1,.3.521Z"/><path class="a" d="M36.617,81.277,29.7,88.725l-7.362-6.246L32.3,79.417Z"/><path class="a" d="M29.7,89.325a.6.6,0,0,1-.388-.143L21.95,82.936a.6.6,0,0,1,.212-1.032l9.958-3.061a.6.6,0,0,1,.414.023l4.32,1.859a.6.6,0,0,1,.2.961l-6.916,7.447A.6.6,0,0,1,29.7,89.325ZM23.564,82.73l6.087,5.165,5.946-6.4-3.335-1.436Z"/><path class="c" d="M106.343,48.325a36.033,36.033,0,1,1-50.958.3,36.033,36.033,0,0,1,50.958-.3"/><path class="b" d="M107.938,57.533a31.534,31.534,0,1,1-53.851,0"/><ellipse class="a" cx="3.003" cy="6.756" rx="3.003" ry="6.756" transform="translate(62.466 67.859)"/><ellipse class="a" cx="3.003" cy="6.756" rx="3.003" ry="6.756" transform="translate(77.48 67.859)"/><path class="a" d="M114.8,59.391l.658,1.538a15.084,15.084,0,0,1,.612,1.559l.531,1.592.132.4.1.407.207.814c.13.544.292,1.083.4,1.634l.295,1.658c.047.277.1.553.142.831l.085.838.162,1.68a37.625,37.625,0,0,1-1.63,13.374,37.077,37.077,0,0,1-6.418,11.918c-.178.221-.337.458-.531.665l-.571.633-1.142,1.264c-.795.811-1.615,1.6-2.482,2.335a37.457,37.457,0,0,1-31.938,8.305,37.206,37.206,0,0,1-12.631-5.091,37.427,37.427,0,0,1-16-21.484A37.446,37.446,0,0,1,66.63,39.377a36.789,36.789,0,0,1,13.236-2.695,37.222,37.222,0,0,1,13.261,2.21A36.161,36.161,0,0,1,104.6,45.726a.751.751,0,0,1-.961,1.154l0,0a37.493,37.493,0,0,0-5.346-3.5,35.4,35.4,0,0,0-30.578-1.389,34.643,34.643,0,0,0-10.428,6.885A34.419,34.419,0,0,0,46.71,70.986a34.781,34.781,0,0,0,1.218,12.383A34.435,34.435,0,0,0,53.446,94.5a35.518,35.518,0,0,0,9.109,8.462,33.913,33.913,0,0,0,11.514,4.678,35.075,35.075,0,0,0,12.441.307,33.872,33.872,0,0,0,11.753-4.125,34.824,34.824,0,0,0,9.532-8.057,29.67,29.67,0,0,0,1.887-2.509c.292-.434.591-.865.878-1.3l.781-1.364.395-.68c.138-.223.233-.469.353-.7l.683-1.418.171-.354.144-.366.287-.733c.186-.491.4-.973.564-1.471a36.947,36.947,0,0,0,1.952-12.432l-.087-1.585-.04-.794c-.023-.263-.062-.525-.092-.789l-.191-1.58c-.069-.527-.2-1.043-.291-1.566a39.379,39.379,0,0,0-1.766-6.139l-.017-.048a.75.75,0,0,1,1.4-.545Z"/><path class="a" d="M119.384,46.2c2.654,2.654,1.381,8.04-.531,11.148l6.37-6.37Z"/><ellipse class="b" cx="26.925" cy="3.753" rx="26.925" ry="3.753" transform="translate(54.087 53.779)"/><path class="a" d="M71.967,61.821a99.562,99.562,0,0,1-10.159-.569,40.192,40.192,0,0,1-5.117-.866c-.433-.113-.867-.232-1.311-.388a6.864,6.864,0,0,1-1.4-.649,3.792,3.792,0,0,1-.394-.29c-.072-.067-.143-.135-.211-.2a2.186,2.186,0,0,1-.216-.273,1.68,1.68,0,0,1-.2-.367A1.661,1.661,0,0,1,52.885,58a2.45,2.45,0,0,1-.046-.256,1.719,1.719,0,0,1,.007-.521,1.914,1.914,0,0,1,.142-.457,2.156,2.156,0,0,1,.2-.353,2.883,2.883,0,0,1,.211-.256,3.048,3.048,0,0,1,.4-.358,5.072,5.072,0,0,1,.732-.448,14.1,14.1,0,0,1,2.634-.933c.857-.226,1.707-.408,2.556-.569,1.7-.325,3.393-.544,5.087-.74s3.388-.341,5.082-.462,3.389-.195,5.084-.255c3.389-.119,6.777-.145,10.166-.052q5.083.115,10.162.617,2.54.256,5.074.664a38.43,38.43,0,0,1,5.081,1.13c.427.133.854.278,1.29.459a6.121,6.121,0,0,1,1.356.753,2.3,2.3,0,0,1,.741.9,1.546,1.546,0,0,1,.117.866,1.38,1.38,0,0,1-.113.413,1.767,1.767,0,0,1-.18.326c-.062.083-.128.164-.2.241a2.559,2.559,0,0,1-.192.177,2.782,2.782,0,0,1-.373.271,5.143,5.143,0,0,1-.695.355,14.241,14.241,0,0,1-2.6.736c-.854.167-1.705.285-2.553.388a.752.752,0,0,1-.261-1.478l.007,0c.809-.184,1.609-.39,2.389-.619a12.575,12.575,0,0,0,2.186-.821,3.008,3.008,0,0,0,.411-.248.788.788,0,0,0,.128-.11c.011-.014.034-.031.037-.039s0-.007,0-.007-.031.029-.032.049a.937.937,0,0,0-.034.111.684.684,0,0,0,.027.254c.053.1,0,.029-.092-.026a4.363,4.363,0,0,0-.884-.39c-.348-.123-.724-.228-1.107-.324a42.675,42.675,0,0,0-4.813-.805c-1.639-.2-3.294-.334-4.952-.453-6.635-.46-13.328-.536-20-.373q-2.5.071-4.994.215c-1.662.089-3.321.206-4.972.361s-3.294.356-4.91.608c-.807.128-1.607.275-2.382.455a11.736,11.736,0,0,0-2.139.671,2.764,2.764,0,0,0-.353.194c-.08.045-.106.115-.02-.043a.822.822,0,0,0,.052-.366.382.382,0,0,0-.023-.1c-.011-.03-.011-.047-.021-.07-.017-.044-.05-.083-.049-.089s-.036-.033-.023-.025a.03.03,0,0,1,.012.017,1.263,1.263,0,0,0,.11.088,4.534,4.534,0,0,0,.869.438c.344.138.717.258,1.093.373a43.444,43.444,0,0,0,4.785,1.034c3.271.538,6.6.9,9.934,1.2h0a.752.752,0,0,1-.077,1.5Z"/><path class="d" d="M81.2,106.607A32.9,32.9,0,0,1,50.524,86.79,33.3,33.3,0,0,1,57.187,50.4,33.592,33.592,0,0,1,80.816,40.172h0a2.252,2.252,0,0,1,.076,4.5h-.051a29.37,29.37,0,0,0-20.852,8.5,29.808,29.808,0,0,0-6.613,32.415A30.2,30.2,0,0,0,81.19,104.355h0a1.126,1.126,0,0,1,.012,2.252Z"/><path class="a" d="M65.653,88.249a6.994,6.994,0,0,0,1.3.567,14.4,14.4,0,0,0,1.468.376,25.169,25.169,0,0,0,3.073.411,38.423,38.423,0,0,0,6.255-.052,30.629,30.629,0,0,0,6.069-1.1,14.9,14.9,0,0,0,2.73-1.094,6.221,6.221,0,0,0,2-1.589l.013-.018a1.5,1.5,0,0,1,2.394,1.817c-.019.025-.041.052-.061.075a9.046,9.046,0,0,1-3.1,2.238,17.569,17.569,0,0,1-3.3,1.108,33.047,33.047,0,0,1-6.621.814,40.481,40.481,0,0,1-6.584-.331,26.9,26.9,0,0,1-3.265-.634,10.559,10.559,0,0,1-3.21-1.338.75.75,0,0,1,.8-1.27Z"/><path class="a" d="M71.746,91.112l-.407,4.3,2.179,2.81s8.195-.718,8.253-.805,7.5-8.515,7.5-8.515l-4.911.1-5.667,1.177-5.667.174Z"/><path class="e" d="M78.881,92.684a5.055,5.055,0,0,0-.664.4,6.565,6.565,0,0,0-.767.632,5.5,5.5,0,0,0-1.185,1.619v0a.181.181,0,0,1-.339-.121,6.035,6.035,0,0,1,.929-2.005c.094-.136.2-.268.3-.4-.977-.369-5.251.049-5.251,1.676l.484,2.141s2.489,1.172,2.489,1.233,4.785,0,4.785,0L82.8,96.255C83.336,94.2,81.216,92.453,78.881,92.684Z"/><path class="a" d="M75.658,100.148a6.638,6.638,0,0,1-4.531-1.517c-1.358-1.217-2.651-3.687-1.094-8.544.253-.79.632.161,1.422.415s1.691-.289,1.438.5c-.832,2.594-.747,4.509.238,5.391,1.259,1.127,4.18.957,7.269-.423,3.768-1.683,7.822-5.3,7.822-9.268a1.5,1.5,0,0,1,3,0c0,5.333-4.821,9.874-9.6,12.009A14.9,14.9,0,0,1,75.658,100.148Z"/><path class="a" d="M89.094,82.906c.306.505.53,1,.821,1.4a3.445,3.445,0,0,0,.87.92,2.42,2.42,0,0,0,1.009.378,5.518,5.518,0,0,0,1.41-.038l.079-.01a.554.554,0,0,1,.514.878,2.921,2.921,0,0,1-1.91,1.1,3.148,3.148,0,0,1-2.326-.613,3.81,3.81,0,0,1-1.3-1.84c-.052-.167-.1-.335-.143-.5s-.054-.335-.071-.5a2.761,2.761,0,0,1-.02-.5c0-.164.01-.328.028-.491a.546.546,0,0,1,1.008-.226Z"/><path class="a" d="M72.744,101.229a3.264,3.264,0,0,0,1.322.457,7.828,7.828,0,0,0,1.475.058,13.581,13.581,0,0,0,1.5-.163,6.423,6.423,0,0,0,1.337-.337l.156-.062a.363.363,0,0,1,.47.2.37.37,0,0,1-.008.285,2.058,2.058,0,0,1-.729.8c-.139.09-.277.17-.421.249s-.289.129-.437.189a5.488,5.488,0,0,1-1.827.326,5.214,5.214,0,0,1-1.868-.3,2.843,2.843,0,0,1-1.547-1.228.383.383,0,0,1,.542-.5Z"/><path class="a" d="M108.568,71.006l16.591,16.843a.593.593,0,0,1-.007.839l-.011.011-.008.007-17.019,15.716a.6.6,0,1,1-.815-.883l17.019-15.715-.026.857L108.135,71.422a.3.3,0,0,1,.433-.416Z"/><path class="a" d="M107.706,103.98l3.743,6.006,5.928-.726-5.957-5.144Z"/><path class="a" d="M111.449,110.586a.6.6,0,0,1-.51-.283L107.2,104.3a.6.6,0,0,1-.01-.619.617.617,0,0,1,.541-.3l3.714.136a.6.6,0,0,1,.37.146l5.958,5.143a.6.6,0,0,1-.32,1.051l-5.928.726A.6.6,0,0,1,111.449,110.586Zm-2.635-5.964,2.942,4.721,4.2-.515-4.772-4.12Z"/></g></svg>