<svg xmlns="http://www.w3.org/2000/svg" width="255.614" height="241.569" viewBox="0 0 255.614 241.569"><defs><style>.a{fill:#161616;}.b{fill:#0068ac;}.c{fill:#d8e0e3;}.d{fill:#fff;}.e{fill:#d76b6f;}</style></defs><ellipse class="a" cx="63.696" cy="6.066" rx="63.696" ry="6.066" transform="translate(62.547 229.436)"/><circle class="b" cx="6.066" cy="6.066" r="6.066" transform="translate(243.481)"/><circle class="b" cx="9.099" cy="9.099" r="9.099" transform="translate(215.384 16.96)"/><circle class="b" cx="6.066" cy="6.066" r="6.066" transform="translate(243.481 23.026)"/><rect class="c" width="66.729" height="109.192" transform="translate(178.923 38.976) rotate(45)"/><path class="a" d="M346.678,222.245a3.032,3.032,0,0,1-2.145-.889l-47.185-47.185a3.031,3.031,0,0,1,0-4.288l77.21-77.212a3.035,3.035,0,0,1,2.145-.889h0a3.033,3.033,0,0,1,2.145.889l47.185,47.185a3.033,3.033,0,0,1,0,4.289l-77.21,77.21A3.035,3.035,0,0,1,346.678,222.245Zm-42.9-50.219,42.9,42.9L419.6,142,376.7,99.1Z" transform="translate(-197.78 -55.556)"/><path class="c" d="M0,0H78.861a0,0,0,0,1,0,0V14.265a10,10,0,0,1-10,10H10a10,10,0,0,1-10-10V0A0,0,0,0,1,0,0Z" transform="translate(183.213 26.392) rotate(45)"/><ellipse class="c" cx="6.066" cy="39.431" rx="6.066" ry="39.431" transform="translate(178.923 30.681) rotate(-45)"/><path class="a" d="M340.489,110.446a9.113,9.113,0,0,1-2.086-9.616,8.837,8.837,0,0,1,1.248-2.276,10.212,10.212,0,0,1,.842-.981l.613-.613,2.45-2.45,9.8-9.8A3.034,3.034,0,0,1,357.648,89l-9.8,9.8-2.45,2.45-.612.613a3.824,3.824,0,0,0-.281.336,2.773,2.773,0,0,0-.414.752,3.049,3.049,0,0,0,.692,3.2,3.034,3.034,0,1,1-4.251,4.33l-.018-.018Z" transform="translate(-172.19 -60.462)"/><path class="a" d="M399.014,123.458c-2.553,2.857-5.223,5.6-7.913,8.323-1.362,1.343-2.7,2.714-4.082,4.036-.377.354-.585.59-1.227,1.147a9.3,9.3,0,0,1-1.838,1.212,9.183,9.183,0,0,1-4.242.957,9.391,9.391,0,0,1-4.175-1.094,9.187,9.187,0,0,1-1.763-1.241c-.609-.556-.808-.816-1.165-1.186-1.317-1.39-2.6-2.817-3.864-4.254-2.526-2.885-5.007-5.818-7.263-8.973a1.537,1.537,0,0,1,2.145-2.145c3.155,2.258,6.086,4.737,8.973,7.263,1.437,1.27,2.864,2.549,4.254,3.864a4.9,4.9,0,0,0,1.5,1.173,3.134,3.134,0,0,0,1.356.241A3.4,3.4,0,0,0,381,132.4a5.807,5.807,0,0,0,1.369-1.24c1.322-1.383,2.693-2.72,4.036-4.082,2.723-2.689,5.466-5.359,8.323-7.914a3.038,3.038,0,0,1,4.289,4.291Z" transform="translate(-157.893 -39.464)"/><path class="a" d="M405.684,145.778a3.033,3.033,0,0,1-2.749-4.314c-.656-2.8-7.623-13.382-22.987-28.747S354,90.387,351.2,89.731a3.033,3.033,0,0,1-3.425-4.894c2.568-2.568,6.953-1.17,15.137,4.832A222.592,222.592,0,0,1,403,129.752c6,8.183,7.4,12.569,4.831,15.137A3.02,3.02,0,0,1,405.684,145.778Z" transform="translate(-166.708 -60.59)"/><g transform="translate(0 82.71)"><path class="a" d="M295.71,168.608q-10.725-9.959-21.307-20.06-5.312-5.03-10.566-10.119T253.4,128.175a1.213,1.213,0,0,1,1.694-1.736q5.3,5.042,10.508,10.179t10.376,10.314q10.354,10.337,20.577,20.806a.607.607,0,0,1-.847.87Z" transform="translate(-224.192 -117.489)"/><path class="a" d="M250.91,128.49a1.233,1.233,0,0,1-.286-.184l-6.293-5.4a1.213,1.213,0,1,1,1.579-1.842l6.293,5.4a1.214,1.214,0,0,1-1.293,2.027Z" transform="translate(-229.823 -120.774)"/><path class="a" d="M264.788,128.252,250.816,143.3l-14.872-12.619,19.69-6.053a1.224,1.224,0,0,1,.837.045Z" transform="translate(-234.73 -118.434)"/><path class="a" d="M251.279,144.973a1.215,1.215,0,0,1-.785-.288l-14.872-12.619a1.214,1.214,0,0,1,.428-2.086l19.691-6.052a2.429,2.429,0,0,1,1.671.092l8.318,3.58a1.213,1.213,0,0,1,.409,1.941l-13.972,15.045A1.207,1.207,0,0,1,251.279,144.973Zm-12.4-13.324,12.3,10.434,12.011-12.936-6.738-2.9Z" transform="translate(-235.193 -118.896)"/></g><path class="c" d="M392.334,131.538a72.8,72.8,0,1,1-102.946.6,72.8,72.8,0,0,1,102.946-.6" transform="translate(-214.917 -44.868)"/><path class="b" d="M392.086,135.033a63.7,63.7,0,1,1-108.788,0" transform="translate(-211.449 -29.53)"/><ellipse class="a" cx="6.066" cy="13.649" rx="6.066" ry="13.649" transform="translate(88.817 126.483)"/><ellipse class="a" cx="6.066" cy="13.649" rx="6.066" ry="13.649" transform="translate(119.106 126.483)"/><path class="a" d="M410.663,154.849l1.33,3.108a30.244,30.244,0,0,1,1.236,3.15l1.073,3.216.267.806.208.821.419,1.645c.263,1.1.592,2.188.8,3.3l.6,3.349c.094.559.205,1.117.288,1.678l.17,1.694.33,3.394a75.982,75.982,0,0,1-3.3,27.019,74.9,74.9,0,0,1-12.963,24.076c-.36.446-.682.924-1.075,1.343l-1.151,1.278-2.309,2.555c-1.606,1.637-3.263,3.229-5.013,4.716a75.668,75.668,0,0,1-64.522,16.779,75.153,75.153,0,0,1-25.516-10.285,75.613,75.613,0,0,1-32.313-43.4,75.644,75.644,0,0,1,44.124-90.671,74.335,74.335,0,0,1,26.739-5.446,75.183,75.183,0,0,1,26.791,4.465,73.037,73.037,0,0,1,23.182,13.807,1.517,1.517,0,0,1-1.941,2.329l-.006,0a75.322,75.322,0,0,0-10.8-7.071,72.294,72.294,0,0,0-37.068-8.427,71.453,71.453,0,0,0-24.7,5.619A69.981,69.981,0,0,0,294.473,133.6a69.508,69.508,0,0,0-21.367,44.675,69.762,69.762,0,0,0,13.607,47.509,71.8,71.8,0,0,0,18.4,17.094,68.519,68.519,0,0,0,23.26,9.451,70.847,70.847,0,0,0,25.133.621,68.439,68.439,0,0,0,23.743-8.335,70.279,70.279,0,0,0,19.257-16.276,59.832,59.832,0,0,0,3.813-5.068c.59-.878,1.194-1.747,1.775-2.631l1.579-2.756.8-1.374c.281-.451.474-.947.714-1.419l1.38-2.862.346-.716.291-.74.58-1.48c.375-.992.8-1.965,1.138-2.972a74.606,74.606,0,0,0,3.945-25.114l-.176-3.2-.081-1.6c-.049-.533-.126-1.062-.186-1.594l-.386-3.193c-.141-1.063-.4-2.106-.588-3.163a79.6,79.6,0,0,0-3.567-12.4l-.035-.1a1.515,1.515,0,0,1,2.82-1.1Z" transform="translate(-216.157 -45.825)"/><path class="a" d="M361.781,120.864c5.362,5.361,2.791,16.241-1.073,22.52l12.868-12.868Z" transform="translate(-158.137 -37.96)"/><ellipse class="b" cx="54.394" cy="7.583" rx="54.394" ry="7.583" transform="translate(71.848 98.173)"/><path class="a" d="M316.847,147.74a201.124,201.124,0,0,1-20.524-1.149,81.111,81.111,0,0,1-10.337-1.749c-.874-.23-1.752-.469-2.649-.784a13.944,13.944,0,0,1-2.83-1.311,8.159,8.159,0,0,1-.8-.587c-.145-.136-.288-.273-.427-.415a4.345,4.345,0,0,1-.436-.551,3.437,3.437,0,0,1-.4-.74,3.126,3.126,0,0,1-.155-.438,4.931,4.931,0,0,1-.094-.516,3.443,3.443,0,0,1,.016-1.054,3.91,3.91,0,0,1,.286-.923,4.215,4.215,0,0,1,.406-.713,5.89,5.89,0,0,1,.427-.519,6.183,6.183,0,0,1,.816-.722,10.222,10.222,0,0,1,1.477-.9,28.442,28.442,0,0,1,5.324-1.886c1.729-.457,3.447-.824,5.162-1.151,3.429-.656,6.856-1.1,10.277-1.493s6.844-.688,10.267-.934,6.846-.393,10.269-.514c6.846-.241,13.692-.294,20.538-.105q10.269.23,20.53,1.246,5.127.519,10.251,1.341a77.643,77.643,0,0,1,10.263,2.282c.863.268,1.726.561,2.607.928a12.439,12.439,0,0,1,2.739,1.521,4.7,4.7,0,0,1,1.5,1.823,3.129,3.129,0,0,1,.238,1.75,2.838,2.838,0,0,1-.229.834,3.77,3.77,0,0,1-.362.658c-.128.168-.26.331-.4.488a5.157,5.157,0,0,1-.388.357,5.876,5.876,0,0,1-.753.546,10.333,10.333,0,0,1-1.4.718,28.734,28.734,0,0,1-5.261,1.487c-1.726.338-3.444.575-5.157.784a1.519,1.519,0,0,1-.527-2.987l.013,0c1.634-.37,3.25-.787,4.827-1.251a25.64,25.64,0,0,0,4.415-1.657,6.5,6.5,0,0,0,.831-.5,1.578,1.578,0,0,0,.259-.223c.021-.027.068-.063.074-.078s-.01-.015,0-.013-.062.057-.065.1a2.114,2.114,0,0,0-.07.225,1.379,1.379,0,0,0,.057.514c.107.208.01.057-.187-.052a8.7,8.7,0,0,0-1.784-.79c-.7-.247-1.464-.459-2.237-.653a85.952,85.952,0,0,0-9.724-1.628c-3.31-.4-6.654-.676-10-.915-13.4-.929-26.925-1.083-40.394-.753q-5.05.141-10.088.435c-3.358.179-6.71.415-10.046.729s-6.654.719-9.918,1.227c-1.631.26-3.247.556-4.813.92a23.906,23.906,0,0,0-4.322,1.356,5.6,5.6,0,0,0-.711.393c-.163.092-.215.231-.042-.087a1.674,1.674,0,0,0,.107-.74.839.839,0,0,0-.049-.2c-.021-.061-.021-.1-.04-.142-.035-.089-.1-.168-.1-.181s-.073-.066-.045-.048a.066.066,0,0,1,.024.034,2.521,2.521,0,0,0,.221.178,9.178,9.178,0,0,0,1.755.884c.695.278,1.448.52,2.208.755a87.927,87.927,0,0,0,9.666,2.088c6.608,1.088,13.335,1.81,20.069,2.436H317a1.518,1.518,0,0,1-.155,3.029Z" transform="translate(-208.877 -33.317)"/><path class="d" d="M339.379,247.545A66.463,66.463,0,0,1,277.4,207.511a67.2,67.2,0,0,1-.826-51.365,67.837,67.837,0,0,1,62.02-42.815h0a4.55,4.55,0,1,1,.152,9.1c-.027,0-.076,0-.1,0A59.331,59.331,0,0,0,296.525,139.6a60.215,60.215,0,0,0-13.359,65.482A61,61,0,0,0,339.353,243h0a2.275,2.275,0,0,1,.023,4.549Z" transform="translate(-212.696 -42.84)"/><g transform="translate(92.857 156.099)"><path class="a" d="M295.11,175.812a14.072,14.072,0,0,0,2.623,1.147,29.481,29.481,0,0,0,2.966.758,50.805,50.805,0,0,0,6.209.831,77.6,77.6,0,0,0,12.635-.105,61.909,61.909,0,0,0,12.26-2.227,30.057,30.057,0,0,0,5.516-2.209,12.546,12.546,0,0,0,4.047-3.211l.027-.036a3.035,3.035,0,1,1,4.836,3.67c-.039.05-.082.105-.123.152a18.268,18.268,0,0,1-6.264,4.52,35.539,35.539,0,0,1-6.66,2.24,66.959,66.959,0,0,1-13.377,1.644,82.054,82.054,0,0,1-13.3-.667,54.43,54.43,0,0,1-6.594-1.282,21.278,21.278,0,0,1-6.486-2.7,1.515,1.515,0,0,1,1.613-2.565Z" transform="translate(-292.747 -164.4)"/><path class="a" d="M302.137,178.708l-.821,8.688,4.4,5.676s16.554-1.45,16.672-1.626,15.147-17.2,15.147-17.2l-9.922.205-11.447,2.377-11.449.352Z" transform="translate(-287.467 -161.512)"/><g transform="translate(14.983 20.33)"><path class="e" d="M316.119,178.988a10.31,10.31,0,0,0-1.341.81,13.2,13.2,0,0,0-1.548,1.278,11.062,11.062,0,0,0-2.393,3.269l0,.008a.365.365,0,0,1-.684-.244,12.209,12.209,0,0,1,1.876-4.052c.191-.275.394-.541.6-.8-1.973-.745-10.608.1-10.608,3.387l.978,4.323s5.03,2.368,5.03,2.492,9.666,0,9.666,0l6.34-3.255C325.118,182.057,320.837,178.521,316.119,178.988Z" transform="translate(-302.018 -178.946)"/></g><path class="a" d="M311.595,199.814a13.405,13.405,0,0,1-9.154-3.066c-2.744-2.458-5.356-7.447-2.211-17.261.512-1.6,1.277.326,2.873.839s3.415-.582,2.9,1.013c-1.681,5.24-1.509,9.109.48,10.89,2.544,2.279,8.446,1.935,14.686-.853,7.611-3.4,15.8-10.71,15.8-18.723a3.033,3.033,0,1,1,6.065,0c0,10.773-9.741,19.948-19.394,24.262A30.137,30.137,0,0,1,311.595,199.814Z" transform="translate(-289.021 -164.363)"/><path class="a" d="M324.331,166.986c.619,1.02,1.07,2.023,1.658,2.82a6.971,6.971,0,0,0,1.76,1.859,4.859,4.859,0,0,0,2.038.761,11.046,11.046,0,0,0,2.846-.074l.16-.019a1.119,1.119,0,0,1,1.039,1.773,5.905,5.905,0,0,1-3.858,2.224,6.358,6.358,0,0,1-4.7-1.24,7.673,7.673,0,0,1-2.62-3.716c-.105-.338-.21-.677-.289-1.015-.053-.339-.108-.676-.142-1.015a5.345,5.345,0,0,1-.042-1c.007-.333.021-.664.058-.992a1.1,1.1,0,0,1,2.035-.456Z" transform="translate(-274.615 -166.367)"/><path class="a" d="M303.548,189.714a6.574,6.574,0,0,0,2.672.924,15.8,15.8,0,0,0,2.979.116,27.785,27.785,0,0,0,3.038-.328,13.072,13.072,0,0,0,2.7-.682l.315-.124a.731.731,0,0,1,.934.984,4.147,4.147,0,0,1-1.472,1.626c-.281.181-.561.343-.852.5-.289.134-.583.26-.881.381a11.063,11.063,0,0,1-3.691.658,10.544,10.544,0,0,1-3.775-.6,5.736,5.736,0,0,1-3.124-2.479.774.774,0,0,1,1.1-1.02Z" transform="translate(-286.862 -152.08)"/></g><g transform="translate(178.846 132.31)"><path class="a" d="M348.978,151.944l33.516,34.025a1.2,1.2,0,0,1-.013,1.7l-.023.023-.016.015L348.06,219.449a1.213,1.213,0,1,1-1.645-1.783L380.8,185.919l-.053,1.731L348.1,152.784a.606.606,0,0,1,.874-.84Z" transform="translate(-346.024 -151.763)"/><path class="a" d="M346.775,193.093l7.561,12.132,11.976-1.468-12.035-10.391Z" transform="translate(-345.562 -126.298)"/><path class="a" d="M354.8,206.9a1.212,1.212,0,0,1-1.03-.572l-7.56-12.133a1.212,1.212,0,0,1-.021-1.249,1.231,1.231,0,0,1,1.094-.6l7.5.275a1.214,1.214,0,0,1,.748.294l12.036,10.39a1.214,1.214,0,0,1-.645,2.124l-11.976,1.467C354.9,206.9,354.846,206.9,354.8,206.9Zm-5.324-12.05,5.944,9.539,8.49-1.041-9.639-8.322Z" transform="translate(-346.024 -126.76)"/></g></svg>