<?xml version="1.0" encoding="utf-8"?>
<!-- Generator: Adobe Illustrator 17.0.0, SVG Export Plug-In . SVG Version: 6.00 Build 0)  -->
<!DOCTYPE svg PUBLIC "-//W3C//DTD SVG 1.1//EN" "http://www.w3.org/Graphics/SVG/1.1/DTD/svg11.dtd">
<svg version="1.1" id="Слой_1" xmlns="http://www.w3.org/2000/svg" xmlns:xlink="http://www.w3.org/1999/xlink" x="0px" y="0px"
	 width="17px" height="14px" viewBox="0 0 13 12" enable-background="new 0 0 13 12" xml:space="preserve">
<g>
	<path fill="#BCBCBC" d="M12.989,2.025c-0.363,0.529-0.8,0.981-1.313,1.354c0.005,0.076,0.008,0.189,0.008,0.34
		c0,0.702-0.103,1.403-0.308,2.103c-0.206,0.7-0.518,1.372-0.936,2.014c-0.418,0.643-0.917,1.211-1.495,1.705
		c-0.578,0.495-1.275,0.889-2.091,1.183c-0.817,0.295-1.689,0.442-2.618,0.442c-1.464,0-2.804-0.392-4.02-1.175
		c0.189,0.021,0.4,0.032,0.632,0.032c1.216,0,2.299-0.372,3.25-1.118C3.531,8.895,3.023,8.72,2.575,8.382
		C2.126,8.045,1.818,7.614,1.651,7.09c0.178,0.027,0.343,0.04,0.494,0.04c0.232,0,0.462-0.03,0.689-0.089
		C2.229,6.917,1.728,6.616,1.331,6.138S0.735,5.105,0.735,4.473V4.44c0.368,0.206,0.762,0.316,1.183,0.332
		C1.562,4.535,1.278,4.224,1.067,3.84c-0.21-0.384-0.316-0.8-0.316-1.248c0-0.475,0.119-0.915,0.356-1.321
		c0.654,0.805,1.449,1.45,2.387,1.933C4.432,3.688,5.436,3.957,6.506,4.01c-0.044-0.205-0.065-0.405-0.065-0.6
		c0-0.724,0.255-1.341,0.766-1.851s1.127-0.766,1.852-0.766c0.756,0,1.393,0.275,1.912,0.827c0.589-0.113,1.143-0.324,1.662-0.632
		c-0.2,0.621-0.584,1.102-1.151,1.442C11.983,2.376,12.486,2.241,12.989,2.025z"/>
</g>
</svg>
