<?xml version="1.0" encoding="utf-8"?>
<!-- Generator: Adobe Illustrator 17.0.0, SVG Export Plug-In . SVG Version: 6.00 Build 0)  -->
<!DOCTYPE svg PUBLIC "-//W3C//DTD SVG 1.1//EN" "http://www.w3.org/Graphics/SVG/1.1/DTD/svg11.dtd">
<svg version="1.1" id="Capa_1" xmlns="http://www.w3.org/2000/svg" xmlns:xlink="http://www.w3.org/1999/xlink" x="0px" y="0px"
	 width="16px" height="17px" viewBox="0 0 9.869 11" enable-background="new 0 0 9.869 11" xml:space="preserve">
<g>
	<path fill="#BCBCBC" d="M9.869,6.339v3.243c0,0.203-0.043,0.388-0.129,0.557c-0.086,0.171-0.203,0.32-0.351,0.448
		c-0.148,0.129-0.319,0.228-0.513,0.302C8.681,10.962,8.471,11,8.245,11H1.617c-0.221,0-0.429-0.037-0.624-0.111
		s-0.366-0.174-0.513-0.302s-0.265-0.277-0.352-0.448C0.042,9.969,0,9.785,0,9.582V6.339c0-0.192,0.043-0.376,0.129-0.55
		c0.086-0.175,0.205-0.326,0.352-0.45C0.628,5.214,0.8,5.112,0.994,5.036C1.189,4.96,1.397,4.922,1.618,4.922h6.628
		c0.221,0,0.43,0.038,0.627,0.114S9.242,5.214,9.39,5.339c0.149,0.125,0.265,0.276,0.351,0.45C9.827,5.963,9.869,6.147,9.869,6.339z
		 M2.061,9.943v-3.42h0.813V6.006H0.679v0.502h0.703v3.435H2.061z M2.393,1.987L1.484,0h0.791l0.452,1.485L3.177,0h0.79L3.116,1.987
		v2.314H2.393V1.987z M4.528,7.025H3.849v1.826c0,0.132,0.001,0.235,0.006,0.305C3.86,9.228,3.85,9.274,3.825,9.293
		C3.805,9.372,3.747,9.429,3.65,9.467C3.556,9.503,3.483,9.452,3.433,9.308C3.423,9.289,3.421,9.24,3.427,9.165
		c0.005-0.077,0.006-0.177,0.006-0.3L3.419,7.026h-0.68l0.016,1.811c0,0.142-0.003,0.261-0.008,0.357S2.744,9.362,2.755,9.412
		c0.009,0.08,0.018,0.164,0.029,0.255c0.009,0.09,0.056,0.164,0.141,0.218C3.004,9.934,3.096,9.96,3.201,9.96
		c0.107,0,0.211-0.018,0.311-0.053c0.102-0.035,0.194-0.082,0.28-0.143C3.878,9.703,3.941,9.636,3.98,9.568L3.967,9.929l0.561,0.015
		C4.528,9.944,4.528,7.025,4.528,7.025z M3.907,2.29c0-0.271,0.026-0.496,0.074-0.671C4.042,1.436,4.137,1.305,4.27,1.226
		c0.133-0.098,0.303-0.148,0.51-0.148c0.182,0,0.333,0.03,0.458,0.089C5.36,1.217,5.462,1.302,5.54,1.426
		c0.059,0.09,0.104,0.189,0.133,0.304c0.028,0.123,0.044,0.288,0.044,0.495V3c0,0.281-0.016,0.483-0.044,0.607
		C5.661,3.719,5.614,3.845,5.524,3.983C5.436,4.105,5.34,4.187,5.237,4.227C5.112,4.286,4.974,4.315,4.815,4.315
		c-0.161,0-0.311-0.024-0.442-0.074C4.249,4.202,4.157,4.13,4.1,4.028c-0.059-0.08-0.109-0.19-0.149-0.333
		C3.922,3.561,3.907,3.361,3.907,3.089C3.907,3.088,3.907,2.29,3.907,2.29z M4.513,3.494c0,0.079,0.03,0.149,0.089,0.211
		C4.66,3.766,4.733,3.796,4.815,3.796c0.078,0,0.149-0.029,0.211-0.089c0.062-0.058,0.091-0.131,0.091-0.214V1.89
		c0-0.089-0.03-0.163-0.091-0.224c-0.061-0.062-0.133-0.093-0.21-0.093c-0.079,0-0.149,0.031-0.21,0.093
		C4.544,1.728,4.513,1.802,4.513,1.89V3.494z M6.722,9.109V7.594c0-0.29-0.103-0.498-0.309-0.62
		C6.344,6.935,6.264,6.915,6.176,6.915c-0.163,0-0.35,0.076-0.561,0.229V6.006h-0.68v3.908l0.562-0.015l0.044-0.244
		c0.182,0.153,0.347,0.247,0.491,0.281C6.178,9.97,6.3,9.956,6.401,9.895c0.101-0.061,0.18-0.161,0.236-0.303
		C6.693,9.453,6.722,9.29,6.722,9.109z M5.903,7.292c0.079,0,0.147,0.023,0.21,0.071c0.061,0.047,0.092,0.1,0.092,0.158v1.714
		c0,0.059-0.031,0.11-0.092,0.154c-0.062,0.044-0.132,0.067-0.21,0.067c-0.08,0-0.149-0.023-0.212-0.067
		c-0.061-0.044-0.09-0.096-0.09-0.154V7.52c0-0.059,0.03-0.111,0.09-0.158C5.754,7.315,5.823,7.292,5.903,7.292z M6.22,3.997
		c-0.017-0.04-0.031-0.082-0.036-0.122C6.178,3.834,6.172,3.792,6.161,3.753c-0.009-0.05-0.014-0.116-0.014-0.2V3.229V1.198h0.635
		v2.349c0,0.06,0.022,0.11,0.066,0.156c0.046,0.044,0.104,0.066,0.178,0.066c0.069,0,0.128-0.023,0.177-0.066
		c0.05-0.045,0.076-0.096,0.076-0.156V1.198h0.589v3.014H7.116l0.013-0.244C7.06,4.066,6.994,4.143,6.93,4.196
		C6.851,4.245,6.766,4.27,6.671,4.27c-0.112,0-0.207-0.025-0.281-0.074C6.325,4.153,6.269,4.086,6.22,3.997z M8.864,8.918H8.356
		v0.073v0.258c0,0.079-0.029,0.14-0.085,0.184C8.214,9.478,8.147,9.499,8.069,9.499H7.964c-0.078,0-0.142-0.021-0.195-0.066
		C7.717,9.389,7.69,9.328,7.69,9.249V9.22V8.932V8.547h1.175V8.141c0-0.152-0.002-0.299-0.008-0.439
		C8.852,7.561,8.841,7.451,8.821,7.374C8.801,7.24,8.742,7.133,8.639,7.052c-0.1-0.081-0.218-0.136-0.354-0.166
		C8.15,6.855,8.012,6.85,7.871,6.871c-0.14,0.02-0.261,0.066-0.366,0.14C7.373,7.1,7.278,7.221,7.218,7.374
		C7.159,7.526,7.129,7.738,7.129,8.009v0.909c0,0.383,0.102,0.657,0.304,0.819c0.186,0.152,0.383,0.229,0.59,0.229
		c0.02,0,0.04,0,0.061,0C8.316,9.952,8.52,9.853,8.698,9.671c0.133-0.133,0.199-0.308,0.199-0.524C8.888,9.077,8.88,9,8.864,8.918z
		 M8.34,8.052H7.69l0.015-0.361c0-0.079,0.03-0.143,0.089-0.196c0.059-0.052,0.13-0.078,0.215-0.078h0.03
		c0.087,0,0.163,0.025,0.225,0.074c0.061,0.05,0.093,0.116,0.093,0.2L8.34,8.052z"/>
</g>
</svg>
