<?xml version="1.0" encoding="utf-8"?>
<!-- Generator: Adobe Illustrator 17.0.0, SVG Export Plug-In . SVG Version: 6.00 Build 0)  -->
<!DOCTYPE svg PUBLIC "-//W3C//DTD SVG 1.1//EN" "http://www.w3.org/Graphics/SVG/1.1/DTD/svg11.dtd">
<svg version="1.1" id="Слой_1" xmlns="http://www.w3.org/2000/svg" xmlns:xlink="http://www.w3.org/1999/xlink" x="0px" y="0px"
	 width="12px" height="10px" viewBox="0 0 12 10" enable-background="new 0 0 12 10" xml:space="preserve">
<g>
	<path fill="#BCBCBC" d="M11.657,0C11.846,0,12,0.154,12,0.343v8.381c0,0.188-0.154,0.343-0.343,0.343H0.339
		C0.15,9.067,0,8.912,0,8.724V0.343C0,0.154,0.15,0,0.339,0H11.657z M5.997,4.719L8.565,2.5l2.099-1.82H1.332L3.43,2.5L5.997,4.719z
		 M9.009,3.01L6.224,5.424C6.1,5.534,5.907,5.54,5.776,5.428L2.987,3.01L0.68,1.014v7.039l2.307-2.002L4.28,4.936
		c0.141-0.125,0.358-0.11,0.478,0.034c0.126,0.139,0.107,0.358-0.034,0.478L3.43,6.567L1.332,8.381h9.332L8.565,6.567L7.272,5.448
		C7.133,5.328,7.118,5.109,7.238,4.97c0.126-0.144,0.339-0.159,0.478-0.034l1.293,1.115l2.311,2.002V1.014L9.009,3.01z M9.009,3.01"
		/>
</g>
</svg>
